<?xml version="1.0" standalone="no"?>
<!DOCTYPE svg PUBLIC "-//W3C//DTD SVG 1.1//EN" "http://www.w3.org/Graphics/SVG/1.1/DTD/svg11.dtd" >
<svg>
<metadata>
Created by FontForge 20090914 at Fri Apr 26 12:18:52 2013
 By www-data
URW Software, Copyright 1993 by URW
</metadata>
<defs>
<font id="NimbusSansDEE-Bold" horiz-adv-x="1024" >
  <font-face 
    font-family="NimbuSanDEE"
    font-weight="600"
    font-stretch="semi-expanded"
    units-per-em="2048"
    panose-1="0 0 0 0 0 0 0 0 0 0"
    ascent="1638"
    descent="-410"
    x-height="997"
    cap-height="1365"
    bbox="-221 -518.999 2221 1832"
    underline-thickness="221"
    underline-position="-102"
    unicode-range="U+0020-U+00FF"
  />
<missing-glyph horiz-adv-x="546" 
d="M55 0v1365h436v-1365h-436zM436 55v1255h-326v-1255h326z" />
    <glyph glyph-name=".notdef" horiz-adv-x="546" 
d="M55 0v1365h436v-1365h-436zM436 55v1255h-326v-1255h326z" />
    <glyph glyph-name="space" unicode=" " horiz-adv-x="546" 
 />
    <glyph glyph-name="space" unicode="&#xa0;" horiz-adv-x="546" 
 />
    <glyph glyph-name="exclam" unicode="!" horiz-adv-x="546" 
d="M137 263h273v-263h-273v263zM137 1365h268v-319l-74 -650h-124l-70 672v297z" />
    <glyph glyph-name="quotedbl" unicode="&#x22;" horiz-adv-x="815" 
d="M315 817h-182l-45 548h272zM682 817h-182l-44 548h272z" />
    <glyph glyph-name="numbersign" unicode="#" horiz-adv-x="1229" 
d="M1159 603l-34 -221h-210l-61 -382h-258l65 382h-192l-62 -382h-246l62 382h-211l33 221h211l30 187h-209l33 221h209l56 354h249l-60 -354h196l57 354h252l-58 -354h208l-33 -221h-208l-30 -187h211zM726 790h-192l-29 -187h191z" />
    <glyph glyph-name="dollar" unicode="$" horiz-adv-x="1270" 
d="M579 1536l122.999 0.00195312v-130c270 -23.333 423 -164.333 459 -423h-254c-17.333 116.667 -85.666 185 -204.999 205v-370c152.667 -32.667 259.334 -65.334 320.001 -98.001c120 -64 180 -169 180 -315c0 -121.333 -44.167 -220.833 -132.5 -298.5
s-210.833 -124.834 -367.5 -141.501v-166h-123v166c-324 29.333 -494.333 181.333 -511 456h261c10 -81.333 33.167 -139 69.5 -173s96.5 -54.667 180.5 -62v397l-32 8c-188 46.667 -310 100.667 -366 162c-56.667 62 -85 140.333 -85 235c0 118 43.667 214.833 131 290.5
s204.666 118.167 351.999 127.5v130zM578.999 1188c-68 -7.33301 -120.667 -26.167 -158 -56.5s-56 -68.833 -56 -115.5c0 -74.667 58 -128 174 -160l40 -11v343zM701.999 186.001c69.333 7.33301 124.166 27.332 164.499 59.999s60.5 73.334 60.5 122.001
s-16.667 87 -50 115s-91.666 52.667 -174.999 74v-371z" />
    <glyph glyph-name="percent" unicode="%" horiz-adv-x="1613" 
d="M382 1385c94.667 0 168.5 -32.333 221.5 -97s79.5 -154.667 79.5 -270c0 -114.667 -26.5 -204.334 -79.5 -269.001s-126.833 -97 -221.5 -97c-94 0 -167.5 32.333 -220.5 97s-79.5 154.334 -79.5 269.001c0 115.333 26.5 205.333 79.5 270s126.5 97 220.5 97zM382 1244
c-82 0 -123 -75.333 -123 -226c0 -150 41 -225 123 -225c82.667 0 124 75 124 225c0 150.667 -41.333 226 -124 226zM1018 1365h128l-557 -1365h-133zM1230 731c94.667 0 168.5 -32.333 221.5 -97s79.5 -154.667 79.5 -270c0 -114.667 -26.5 -204.334 -79.5 -269.001
s-126.833 -97 -221.5 -97c-94 0 -167.5 32.333 -220.5 97s-79.5 154.334 -79.5 269.001c0 115.333 26.5 205.333 79.5 270s126.5 97 220.5 97zM1230 590c-82 0 -123 -75.333 -123 -226c0 -150 41 -225 123 -225c82.667 0 124 75 124 225c0 150.667 -41.333 226 -124 226z
" />
    <glyph glyph-name="ampersand" unicode="&#x26;" horiz-adv-x="1205" 
d="M962 692l220 0.000976562c-29.333 -156.667 -83.666 -289 -162.999 -397l224 -295h-281l-93 125c-117.333 -108.667 -256 -163 -416 -163c-114.667 0 -211 36.333 -289 109s-117 162 -117 268c0 179.333 114.667 321.666 344 426.999l-15 18
c-92.667 112 -139 210 -139 294c0 86 34 159.833 102 221.5s149.333 92.5 244 92.5c100 0 184.667 -32.167 254 -96.5s104 -143.5 104 -237.5c0 -138.667 -81.333 -253.667 -244 -345l186 -243c41.333 64.667 67.666 138.667 78.999 222zM579 869.001
c94.667 73.333 142 138.332 142 194.999c0 33.333 -12.667 61.833 -38 85.5s-56 35.5 -92 35.5c-33.333 0 -61.833 -10.5 -85.5 -31.5s-35.5 -46.833 -35.5 -77.5c0 -35.333 16 -75.666 48 -120.999zM513 592c-144 -85.333 -216 -167.668 -216 -247.001
c0 -47.333 16 -87.166 48 -119.499s71 -48.5 117 -48.5c78.667 0 171.667 39.333 279 118z" />
    <glyph glyph-name="quotesingle" unicode="'" horiz-adv-x="448" 
d="M315 817h-182l-45 548h272z" />
    <glyph glyph-name="parenleft" unicode="(" horiz-adv-x="706" 
d="M389 1365h200c-72 -106 -128.833 -232.5 -170.5 -379.5s-62.5 -295.5 -62.5 -445.5c0 -305.333 82.333 -597 247 -875h-214c-94 146 -167.167 296.167 -219.5 450.5s-78.5 296.833 -78.5 427.5c0 260 99.333 534 298 822z" />
    <glyph glyph-name="parenright" unicode=")" horiz-adv-x="706" 
d="M316 -335l-200 0.000976562c72 106 128.833 232.5 170.5 379.5s62.5 295.167 62.5 444.5c0 306 -82.333 598 -247 876h214c94 -145.333 167.167 -295.333 219.5 -450s78.5 -297.334 78.5 -428.001c0 -260.667 -99.333 -534.667 -298 -822z" />
    <glyph glyph-name="asterisk" unicode="*" horiz-adv-x="824" 
d="M332 1147v218h160v-218l208 67l49 -152l-208 -67l128 -177l-129 -94l-128 177l-129 -176l-129 93l129 177l-208 68l49 151z" />
    <glyph glyph-name="plus" unicode="+" horiz-adv-x="1270" 
d="M123 795h416v434h193v-434h415v-184h-415v-434h-193v434h-416v184z" />
    <glyph glyph-name="comma" unicode="," horiz-adv-x="518" 
d="M123 263h273.001v-216c0 -73.333 -5.83301 -129.5 -17.5 -168.5s-33.834 -77.167 -66.501 -114.5c-50.667 -56.667 -113.667 -89.667 -189 -99v81c106.667 44 160 123 160 237v17h-160v263z" />
    <glyph glyph-name="hyphen" unicode="-" horiz-adv-x="517" 
d="M0 624h517v-224h-517v224z" />
    <glyph glyph-name="period" unicode="." horiz-adv-x="518" 
d="M123 263h273v-263h-273v263z" />
    <glyph glyph-name="slash" unicode="/" horiz-adv-x="900" 
d="M656 1365h178l-643 -1700h-177z" />
    <glyph glyph-name="zero" unicode="0" horiz-adv-x="1270" 
d="M635 1365c170 0 305.167 -62.833 405.5 -188.5s150.5 -294.834 150.5 -507.501s-50.167 -381.834 -150.5 -507.501s-235.5 -188.5 -405.5 -188.5s-305.167 62.833 -405.5 188.5s-150.5 294.834 -150.5 507.501s50.167 381.834 150.5 507.501s235.5 188.5 405.5 188.5z
M635 1158c-102 0 -176.333 -39 -223 -117s-70 -202 -70 -372s23.333 -294 70 -372s121 -117 223 -117s176.333 39 223 117s70 202 70 372s-23.333 294 -70 372s-121 117 -223 117z" />
    <glyph glyph-name="one" unicode="1" horiz-adv-x="1270" 
d="M876 1352v-1352h-264v937h-345v166c229.333 0 356 83 380 249h229z" />
    <glyph glyph-name="two" unicode="2" horiz-adv-x="1270" 
d="M1121 208l0.00390625 -208.002h-973c15.333 121.333 48.166 219.5 98.499 294.5s141.5 162.167 273.5 261.5c137.333 102.667 223.5 175.5 258.5 218.5s52.5 96.5 52.5 160.5c0 66 -19 119.667 -57 161s-87.333 62 -148 62c-71.333 0 -126.833 -23.667 -166.5 -71
s-59.5 -113.666 -59.5 -198.999h-241c7.33301 132.667 33.666 231.334 78.999 296.001c39.333 56 93.166 100.167 161.499 132.5s142.166 48.5 221.499 48.5c142 0 256.333 -40.667 343 -122s130 -188.333 130 -321c0 -86.667 -22.833 -163.5 -68.5 -230.5
s-124.5 -138.833 -236.5 -215.5l-160 -110c-54.667 -37.333 -92.167 -66 -112.5 -86s-36.833 -44 -49.5 -72h654z" />
    <glyph glyph-name="three" unicode="3" horiz-adv-x="1270" 
d="M392 924l-231.998 -0.000976562c10 140.667 55.333 249.334 136 326.001s190.667 115 330 115c132 0 241.833 -34.667 329.5 -104s131.5 -156.333 131.5 -261c0 -66 -20.833 -123.667 -62.5 -173s-100.834 -86.666 -177.501 -111.999c94 -14 167.667 -50.333 221 -109
s80 -132.334 80 -221.001c0 -120.667 -49 -219.5 -147 -296.5s-223.333 -115.5 -376 -115.5s-274.667 42.667 -366 128s-137 199.333 -137 342h247c20.667 -175.333 108 -263 262 -263c75.333 0 136.666 20.167 183.999 60.5s71 92.833 71 157.5
c0 68 -24.167 121.5 -72.5 160.5s-114.5 58.5 -198.5 58.5c-15.333 0 -39.666 -1.33301 -72.999 -4v179c96.667 0 170.667 16 222 48s77 78 77 138c0 54 -19.5 97.5 -58.5 130.5s-90.5 49.5 -154.5 49.5c-134.667 0 -213.334 -78 -236.001 -234z" />
    <glyph glyph-name="four" unicode="4" horiz-adv-x="1270" 
d="M992 1352v-870h192v-191h-192v-291h-251v291h-626v264l614 797h263zM741 482v582l-426 -582h426z" />
    <glyph glyph-name="five" unicode="5" horiz-adv-x="1270" 
d="M327 1338h770.001v-208h-594l-56 -313c82.667 60 175.667 90 279 90c127.333 0 235.166 -44.5 323.499 -133.5s132.5 -197.5 132.5 -325.5c0 -138.667 -50.5 -252.5 -151.5 -341.5s-229.833 -133.5 -386.5 -133.5c-140.667 0 -255.667 35.333 -345 106
s-141.333 167.334 -156 290.001h247c30.667 -126 114 -189 250 -189c82.667 0 149.667 24.167 201 72.5s77 111.166 77 188.499c0 75.333 -26 137.333 -78 186s-118.333 73 -199 73c-76 0 -144.333 -28 -205 -84h-240z" />
    <glyph glyph-name="six" unicode="6" horiz-adv-x="1270" 
d="M1151 1015l-243.001 -0.00195312c-15.333 99.333 -85.666 149 -210.999 149c-100 0 -176.5 -35.667 -229.5 -107s-79.5 -174.666 -79.5 -309.999c81.333 108 190 162 326 162c127.333 0 235.5 -44.5 324.5 -133.5s133.5 -196.833 133.5 -323.5
c0 -136 -48.167 -249.833 -144.5 -341.5s-215.833 -137.5 -358.5 -137.5c-123.333 0 -231.333 37 -324 111c-146 116.667 -219 304.334 -219 563.001c0 224 49 399.667 147 527s233.333 191 406 191c128 0 233.667 -30.833 317 -92.5s135 -147.5 155 -257.5z
M655.999 707.998c-76.667 0 -138.499 -23.667 -185.499 -71s-70.5 -110 -70.5 -188c0 -79.333 25 -145 75 -197s113 -78 189 -78c74.667 0 136.5 25.167 185.5 75.5s73.5 113.5 73.5 189.5c0 80.667 -24.333 145.667 -73 195s-113.334 74 -194.001 74z" />
    <glyph glyph-name="seven" unicode="7" horiz-adv-x="1270" 
d="M163 1338h956.998v-215c-136.667 -132 -251.5 -305.667 -344.5 -521s-139.5 -416 -139.5 -602h-290c8.66699 126 24.334 233.833 47.001 323.5s59.334 188.167 110.001 295.5c91.333 194.667 212 365 362 511h-702v208z" />
    <glyph glyph-name="eight" unicode="8" horiz-adv-x="1270" 
d="M389 732c-84 31.333 -144.168 68.666 -180.501 111.999s-54.5 99.333 -54.5 168c0 105.333 44.5 190.5 133.5 255.5s204.833 97.5 347.5 97.5c143.333 0 259.5 -32.5 348.5 -97.5s133.5 -150.167 133.5 -255.5c0 -68.667 -18.167 -124.667 -54.5 -168
s-96.5 -80.666 -180.5 -111.999c101.333 -27.333 174.5 -67 219.5 -119s67.5 -123.667 67.5 -215c0 -120.667 -51.167 -221.667 -153.5 -303s-229.166 -122 -380.499 -122c-150.667 0 -277.167 40.667 -379.5 122s-153.5 182.333 -153.5 303c0 91.333 22.333 163 67 215
s118 91.667 220 119zM634.999 1180c-72.667 0 -129.832 -17.167 -171.499 -51.5s-62.5 -81.166 -62.5 -140.499c0 -58.667 21.167 -105.334 63.5 -140.001s99.166 -52 170.499 -52c72 0 129.167 17.333 171.5 52s63.5 81.334 63.5 140.001
c0 59.333 -20.833 106.166 -62.5 140.499s-99.167 51.5 -172.5 51.5zM635.001 633c-86 0 -153.833 -20.667 -203.5 -62s-74.5 -97.666 -74.5 -168.999c0 -65.333 26.333 -119.666 79 -162.999s119 -65 199 -65c80.667 0 147.334 21.667 200.001 65s79 97.666 79 162.999
c0 71.333 -24.833 127.666 -74.5 168.999s-117.834 62 -204.501 62z" />
    <glyph glyph-name="nine" unicode="9" horiz-adv-x="1270" 
d="M149 303l251.001 -0.00195312c25.333 -86 89.666 -129 192.999 -129c100.667 0 174.834 35.167 222.501 105.5s71.5 179.5 71.5 327.5c-65.333 -123.333 -173.333 -185 -324 -185c-134.667 0 -247.5 44.667 -338.5 134s-136.5 200 -136.5 332
c0 134.667 49.167 247.834 147.5 339.501s219.166 137.5 362.499 137.5c179.333 0 316.833 -57.5 412.5 -172.5s143.5 -279.833 143.5 -494.5c0 -233.333 -46.333 -412.5 -139 -537.5s-225.334 -187.5 -398.001 -187.5c-131.333 0 -239.166 29.833 -323.499 89.5
s-132.5 139.834 -144.5 240.501zM612.001 1164c-76.667 0 -141 -25.833 -193 -77.5s-78 -116.167 -78 -193.5c0 -76.667 25.667 -140.667 77 -192s115.333 -77 192 -77c78 0 143 25.333 195 76s78 114 78 190c0 80.667 -25.333 146.5 -76 197.5s-115.667 76.5 -195 76.5z
" />
    <glyph glyph-name="colon" unicode=":" horiz-adv-x="518" 
d="M123 997h273v-263h-273v263zM123 263h273v-263h-273v263z" />
    <glyph glyph-name="semicolon" unicode=";" horiz-adv-x="518" 
d="M123 997h273v-263h-273v263zM123 263h273.001v-216c0 -73.333 -5.83301 -129.5 -17.5 -168.5s-33.834 -77.167 -66.501 -114.5c-50.667 -56.667 -113.667 -89.667 -189 -99v81c106.667 44 160 123 160 237v17h-160v263z" />
    <glyph glyph-name="less" unicode="&#x3c;" 
d="M955 1245v-243l-627 -307l627 -307v-242l-887 447v206z" />
    <glyph glyph-name="equal" unicode="=" horiz-adv-x="1270" 
d="M123 945h1024v-177h-1024v177zM123 596h1024v-177h-1024v177z" />
    <glyph glyph-name="greater" unicode="&#x3e;" 
d="M68 145v244l627 306l-627 307v242l887 -446v-207z" />
    <glyph glyph-name="question" unicode="?" horiz-adv-x="1090" 
d="M435 263h273v-263h-273v263zM287 942l-232 0.00195312c6.66699 139.333 54.167 249.166 142.5 329.499s205.5 120.5 351.5 120.5c141.333 0 257.833 -39.167 349.5 -117.5s137.5 -177.5 137.5 -297.5c0 -66.667 -15.333 -125.334 -46 -176.001s-82.667 -103 -156 -157
c-68 -49.333 -110 -86.833 -126 -112.5s-24 -68.5 -24 -128.5h-227v40c0 80.667 10.5 140 31.5 178s69.5 85 145.5 141c56.667 42 95.667 78.5 117 109.5s32 67.167 32 108.5c0 60 -21.667 109 -65 147s-99 57 -167 57c-160 0 -248 -80.667 -264 -242z" />
    <glyph glyph-name="at" unicode="@" horiz-adv-x="1502" 
d="M977 1009l171 -0.00195312l-78 -398c-8.66699 -46 -13 -77.333 -13 -94c0 -44.667 16.667 -67 50 -67c45.333 0 86.833 35.167 124.5 105.5s56.5 147.5 56.5 231.5c0 133.333 -45.833 242.333 -137.5 327s-209.834 127 -354.501 127c-160 0 -294.5 -55 -403.5 -165
s-163.5 -245.333 -163.5 -406c0 -138.667 41.667 -259.334 125 -362.001c100 -122.667 246.333 -184 439 -184c139.333 0 268.666 22.333 387.999 67l40 -154c-126 -45.333 -267.333 -68 -424 -68c-238 0 -424 76.333 -558 229c-117.333 133.333 -176 291 -176 473
c0 200.667 69.667 371.334 209 512.001s308.666 211 507.999 211c190.667 0 348.167 -57.167 472.5 -171.5s186.5 -259.166 186.5 -434.499c0 -125.333 -34.167 -236.333 -102.5 -333s-146.833 -145 -235.5 -145c-39.333 0 -73.5 10.5 -102.5 31.5
s-48.167 49.167 -57.5 84.5c-28 -41.333 -64.667 -73.666 -110 -96.999s-93.666 -35 -144.999 -35c-83.333 0 -152.666 31 -207.999 93s-83 139.667 -83 233c0 110 35.833 206.167 107.5 288.5s155.834 123.5 252.501 123.5c96 0 164.333 -36 205 -108zM779 849.998
c-51.333 0 -95.833 -22.499 -133.5 -67.499s-56.5 -98.5 -56.5 -160.5c0 -45.333 13.333 -82.5 40 -111.5s60.667 -43.5 102 -43.5c50 0 93.333 22.833 130 68.5s55 99.5 55 161.5c0 45.333 -12.667 82.166 -38 110.499s-58.333 42.5 -99 42.5z" />
    <glyph glyph-name="A" unicode="A" horiz-adv-x="1246" 
d="M372 292l-91 -292h-281l480 1365h303l463 -1365h-282l-91 292h-501zM433 490h380l-190 612z" />
    <glyph glyph-name="B" unicode="B" horiz-adv-x="1326" 
d="M145 0v1365h622c136 0 242.5 -30.333 319.5 -91s115.5 -144.667 115.5 -252c0 -146.667 -80.333 -243.667 -241 -291c90.667 -19.333 161.667 -58.666 213 -117.999s77 -132 77 -218c0 -152 -58.667 -264.333 -176 -337c-62 -38.667 -157.667 -58 -287 -58h-643z
M415 811.999h252c184 0 276 59.667 276 179c0 56 -21 96.5 -63 121.5s-110.667 37.5 -206 37.5h-259v-338zM415 214.999h264c107.333 0 184.5 15.333 231.5 46s70.5 80.667 70.5 150s-23.667 120 -71 152s-123 48 -227 48h-268v-396z" />
    <glyph glyph-name="C" unicode="C" horiz-adv-x="1401" 
d="M1083 449l263.001 -0.00195312c-16 -145.333 -78 -261.166 -186 -347.499s-244.667 -129.5 -410 -129.5c-206 0 -370 72 -492 216c-112.667 134 -169 294.333 -169 481c0 214.667 60.833 388.834 182.5 522.501s280.5 200.5 476.5 200.5
c162.667 0 295.167 -40 397.5 -120s169.166 -195.667 200.499 -347h-269c-38 161.333 -144 242 -318 242c-116 0 -211.667 -45.667 -287 -137s-113 -207.333 -113 -348c0 -142.667 38 -259 114 -349s174.333 -135 295 -135c167.333 0 272.333 83.667 315 251z" />
    <glyph glyph-name="D" unicode="D" horiz-adv-x="1389" 
d="M145 0v1365h494c112 0 201.333 -10.5 268 -31.5s129 -58.833 187 -113.5c138 -128.667 207 -316.667 207 -564c0 -102.667 -16.667 -200 -50 -292s-78.333 -165.667 -135 -221c-99.333 -95.333 -251 -143 -455 -143h-516zM415 215h256c240 0 360 146 360 438
c0 331.333 -139.333 497 -418 497h-198v-935z" />
    <glyph glyph-name="E" unicode="E" horiz-adv-x="1246" 
d="M145 0v1365h1006v-215h-736v-322h644v-215h-644v-398h750v-215h-1020z" />
    <glyph glyph-name="F" unicode="F" horiz-adv-x="1174" 
d="M145 0v1365h976v-215h-706v-351h607v-215h-607v-584h-270z" />
    <glyph glyph-name="G" unicode="G" horiz-adv-x="1466" 
d="M784 740h565.001v-740h-179l-28 186c-112 -142 -259 -213 -441 -213c-172 0 -317 67 -435 201s-177 299 -177 495c0 214.667 61 388.834 183 522.501s280.667 200.5 476 200.5c152.667 0 281.5 -41.333 386.5 -124s170.167 -194.334 195.5 -335.001h-254
c-40.667 156 -145.334 234 -314.001 234c-117.333 0 -213.833 -45.667 -289.5 -137s-113.5 -207.333 -113.5 -348c0 -142 36.5 -258.167 109.5 -348.5s166.833 -135.5 281.5 -135.5c98 0 181.833 30.5 251.5 91.5s110.5 139.5 122.5 235.5h-340v215z" />
    <glyph glyph-name="H" unicode="H" horiz-adv-x="1402" 
d="M145 1365h270v-546h572v546h270v-1365h-270v604h-572v-604h-270v1365z" />
    <glyph glyph-name="I" unicode="I" horiz-adv-x="559" 
d="M145 1365h270v-1365h-270v1365z" />
    <glyph glyph-name="J" unicode="J" horiz-adv-x="1030" 
d="M629 1365l270 -0.000976562v-938c0 -129.333 -20 -224 -60 -284c-74.667 -113.333 -199.667 -170 -375 -170c-120 0 -215.667 24 -287 72c-60 40.667 -101.167 89.834 -123.5 147.501s-33.5 144.167 -33.5 259.5v45h248c0 -86.667 1.33301 -142 4 -166
c10.667 -88.667 71 -133 181 -133c69.333 0 116 16.5 140 49.5s36 97.167 36 192.5v925z" />
    <glyph glyph-name="K" unicode="K" horiz-adv-x="1309" 
d="M415 482v-482h-270v1365h270v-573l527 573h341l-532 -550l574 -815h-321l-436 645z" />
    <glyph glyph-name="L" unicode="L" horiz-adv-x="1127" 
d="M415 215h685v-215h-955v1365h270v-1150z" />
    <glyph glyph-name="M" unicode="M" horiz-adv-x="1659" 
d="M965 0h-269l-305 1038v-1038h-246v1365h391l293 -1014l294 1014h392v-1365h-246v1038z" />
    <glyph glyph-name="N" unicode="N" horiz-adv-x="1423" 
d="M145 1365h288l576 -953v953h270v-1365h-280l-584 970v-970h-270v1365z" />
    <glyph glyph-name="O" unicode="O" horiz-adv-x="1483" 
d="M742 1392c190.667 0 347 -66.335 469 -199.002s183 -302.667 183 -510c0 -208 -61 -378.333 -183 -511s-278.333 -199 -469 -199c-193.333 0 -350.5 66.833 -471.5 200.5s-181.5 306.834 -181.5 519.501c0 202.667 61.5 369.834 184.5 501.501s279.167 197.5 468.5 197.5
zM741 1167c-114.667 0 -207 -44.333 -277 -133s-105 -205.667 -105 -351c0 -146 35 -263.333 105 -352s162.333 -133 277 -133c115.333 0 208 44.333 278 133s105 206 105 352c0 145.333 -35 262.333 -105 351s-162.667 133 -278 133z" />
    <glyph glyph-name="P" unicode="P" horiz-adv-x="1233" 
d="M415 482l0.000976562 -482.001h-270v1365h543c115.333 0 205.666 -16.667 270.999 -50c68.667 -35.333 123.5 -88.666 164.5 -159.999s61.5 -149 61.5 -233c0 -92 -21.333 -173 -64 -243s-102 -121.333 -178 -154c-66.667 -28.667 -159 -43 -277 -43h-251z
M415.001 696.999h222c185.333 0 278 72.667 278 218c0 96 -35.667 164 -107 204c-37.333 20.667 -105 31 -203 31h-190v-453z" />
    <glyph glyph-name="Q" unicode="Q" horiz-adv-x="1483" 
d="M1092 71c-108.667 -65.333 -225.333 -98 -350 -98c-191.333 0 -348 66.333 -470 199s-183 303 -183 511c0 207.333 61 377.333 183 510s278.333 199 469 199c191.333 0 348 -66.333 470 -199s183 -303 183 -511c0 -181.333 -51.667 -341 -155 -479l148 -138l-134 -144z
M912.001 239l-115 107l135 144l119 -112c48.667 88 73 189.667 73 305c0 145.333 -35 262.333 -105 351s-162.667 133 -278 133c-114.667 0 -207 -44.333 -277 -133s-105 -205.667 -105 -351c0 -146 35 -263.333 105 -352s162.667 -133 278 -133c59.333 0 116 13.667 170 41
z" />
    <glyph glyph-name="R" unicode="R" horiz-adv-x="1300" 
d="M415 553v-552.999h-270v1365h561c134.667 0 231.334 -11 290.001 -33c69.333 -25.333 124.166 -69 164.499 -131s60.5 -133.667 60.5 -215c0 -88.667 -25 -159.334 -75 -212.001s-133 -95.667 -249 -129c99.333 -11.333 168.833 -39.333 208.5 -84
s63.167 -121.667 70.5 -231l7 -113c6 -96.667 20.333 -169 43 -217h-257c-23.333 42.667 -35 99.667 -35 171c0 176.667 -36.333 289.667 -109 339c-42.667 28.667 -108 43 -196 43h-214zM415 754.001l282.001 0.00195312c83.333 0 147.666 17.167 192.999 51.5
s68 83.166 68 146.499c0 69.333 -20.833 119.666 -62.5 150.999s-108.167 47 -199.5 47h-281v-396z" />
    <glyph glyph-name="S" unicode="S" horiz-adv-x="1270" 
d="M1160 975h-252.001c-24 135.333 -120.333 203 -289 203c-74.667 0 -134.667 -15.167 -180 -45.5s-68 -70.5 -68 -120.5c0 -57.333 24.667 -100 74 -128c26.667 -15.333 125.667 -43.333 297 -84c102 -24 179.167 -47.667 231.5 -71s95.166 -52.666 128.499 -87.999
c62 -66 93 -148.667 93 -248c0 -122 -51.667 -222.5 -155 -301.5s-235 -118.5 -395 -118.5c-173.333 0 -310.833 39.5 -412.5 118.5s-156.5 189.167 -164.5 330.5h260c9.33301 -156.667 111.333 -235 306 -235c90 0 161.167 16.5 213.5 49.5s78.5 77.5 78.5 133.5
c0 51.333 -21 89.5 -63 114.5s-137.667 56.5 -287 94.5c-112 28.667 -192.667 52.667 -242 72s-89.666 42.666 -120.999 69.999c-74 64.667 -111 150 -111 256c0 124.667 46.833 225 140.5 301s216.834 114 369.501 114c164.667 0 290.167 -33 376.5 -99
s143.5 -172 171.5 -318z" />
    <glyph glyph-name="T" unicode="T" horiz-adv-x="1185" 
d="M728 1150v-1150h-270v1150h-431v215h1131v-215h-430z" />
    <glyph glyph-name="U" unicode="U" horiz-adv-x="1354" 
d="M953 1365h269.997v-776c0 -114 -3.66699 -196.333 -11 -247s-22.666 -97 -45.999 -139c-84 -153.333 -247 -230 -489 -230s-405 76.667 -489 230c-23.333 42 -38.666 88.333 -45.999 139s-11 133 -11 247v776h270v-754c0 -147.333 11 -243.666 33 -288.999
c39.333 -82.667 120.333 -124 243 -124c56.667 0 106.834 11.167 150.501 33.5s74.5 52.5 92.5 90.5c22 45.333 33 141.666 33 288.999v754z" />
    <glyph glyph-name="V" unicode="V" horiz-adv-x="1196" 
d="M0 1365h292l306 -1060l306 1060h292l-470 -1365h-256z" />
    <glyph glyph-name="W" unicode="W" horiz-adv-x="1771" 
d="M0 1365h276l272 -1049l213 1049h277l211 -1049l256 1049h266l-395 -1365h-256l-223 1047l-227 -1047h-262z" />
    <glyph glyph-name="X" unicode="X" horiz-adv-x="1206" 
d="M601 513l-297 -513h-304l447 723l-402 642h304l252 -437l244 437h304l-397 -642l454 -723h-304z" />
    <glyph glyph-name="Y" unicode="Y" horiz-adv-x="1136" 
d="M-14 1365h289l293 -584l293 584h289l-447 -844v-521h-270v521z" />
    <glyph glyph-name="Z" unicode="Z" horiz-adv-x="1242" 
d="M415 215h778v-215h-1144v200l763 950h-719v215h1081v-205z" />
    <glyph glyph-name="bracketleft" unicode="[" horiz-adv-x="713" 
d="M604 1160h-227v-1290h227v-205h-478v1700h478v-205z" />
    <glyph glyph-name="backslash" unicode="\" horiz-adv-x="900" 
d="M245 1365l643 -1700h-178l-642 1700h177z" />
    <glyph glyph-name="bracketright" unicode="]" horiz-adv-x="713" 
d="M109 -130h228v1290h-228v205h479v-1700h-479v205z" />
    <glyph glyph-name="asciicircum" unicode="^" 
d="M274 696h-257l334 677h322l335 -677h-258l-238 481z" />
    <glyph glyph-name="underscore" unicode="_" 
d="M0 -101h1024v-221h-1024v221z" />
    <glyph glyph-name="grave" unicode="`" 
d="M500 1396l93 -249h-164l-202 249h273z" />
    <glyph glyph-name="a" unicode="a" horiz-adv-x="1124" 
d="M373 701l-234.997 -0.000976562c15.333 112.667 57.666 194.667 126.999 246s172 77 308 77c132.667 0 235 -24.667 307 -74c44.667 -31.333 76.5 -71.333 95.5 -120s28.5 -115.334 28.5 -200.001v-420c0 -92.667 11.333 -162.667 34 -210h-243l-27 93
c-102.667 -80 -209.334 -120 -320.001 -120c-100.667 0 -187.334 29.667 -260.001 89s-109 129.666 -109 210.999c0 100 41.5 177.667 124.5 233s213.5 93.333 391.5 114c58 6.66699 98.5 17.334 121.5 32.001s34.5 37.334 34.5 68.001c0 38.667 -17 69.834 -51 93.501
s-78.667 35.5 -134 35.5c-57.333 0 -102.833 -13 -136.5 -39s-52.5 -62.333 -56.5 -109zM761.003 523.999c-38.667 -24 -91 -43.999 -157 -59.999c-105.333 -25.333 -176.5 -49.833 -213.5 -73.5s-55.5 -56.5 -55.5 -98.5c0 -36.667 16 -66 48 -88s74 -33 126 -33
c68.667 0 127 16 175 48c29.333 19.333 49.5 41.166 60.5 65.499s16.5 58.833 16.5 103.5v136z" />
    <glyph glyph-name="b" unicode="b" horiz-adv-x="1185" 
d="M128 1365l249 -0.00195312v-482c76.667 94 174.667 141 294 141c124 0 227.5 -50.667 310.5 -152s124.5 -228 124.5 -380c0 -149.333 -41.333 -273.166 -124 -371.499s-187 -147.5 -313 -147.5c-60 0 -111.333 9.83301 -154 29.5s-88.667 54.834 -138 105.501v-108h-249
v1365zM610 814.998c-74 0 -133.334 -29.667 -178.001 -89s-67 -138 -67 -236c0 -93.333 23.167 -169.833 69.5 -229.5s105.5 -89.5 177.5 -89.5c73.333 0 131.333 29.5 174 88.5s64 138.833 64 239.5c0 94 -22.167 170.167 -66.5 228.5s-102.166 87.5 -173.499 87.5z" />
    <glyph glyph-name="c" unicode="c" horiz-adv-x="1090" 
d="M786 352h238.999c-16.667 -117.333 -65.5 -209.833 -146.5 -277.5s-183.5 -101.5 -307.5 -101.5c-143.333 0 -261.166 49 -353.499 147s-138.5 223.333 -138.5 376c0 153.333 46 279.833 138 379.5s208.667 149.5 350 149.5c116.667 0 213.5 -31.5 290.5 -94.5
s129.5 -153.167 157.5 -270.5h-244c-31.333 111.333 -99 167 -203 167c-69.333 0 -125.5 -30.667 -168.5 -92s-64.5 -141.333 -64.5 -240c0 -100 21.333 -179 64 -237s101 -87 175 -87c115.333 0 186 60.333 212 181z" />
    <glyph glyph-name="d" unicode="d" horiz-adv-x="1185" 
d="M808 1365l248.998 0.000976562v-1365h-249v116c-53.333 -54.667 -100.666 -92.167 -141.999 -112.5s-90.333 -30.5 -147 -30.5c-126 0 -230.833 48.667 -314.5 146s-125.5 219.666 -125.5 366.999c0 153.333 40.333 281.333 121 384s181.334 154 302.001 154
c110.667 0 212.667 -46.667 306 -140v481zM576.998 826.001c-74 0 -132.833 -30.167 -176.5 -90.5s-65.5 -141.5 -65.5 -243.5c0 -94 22.5 -171 67.5 -231s102.833 -90 173.5 -90c72.667 0 131.667 30.5 177 91.5s68 139.833 68 236.5c0 98 -22.333 177 -67 237
s-103.667 90 -177 90z" />
    <glyph glyph-name="e" unicode="e" horiz-adv-x="1144" 
d="M1064 441h-729.999c20 -180 102.667 -270 248 -270c97.333 0 168.666 43 213.999 129h259c-30.667 -100.667 -88.167 -180.334 -172.5 -239.001s-183.5 -88 -297.5 -88c-146.667 0 -267.667 48.833 -363 146.5s-143 221.834 -143 372.501c0 162 44.5 291.167 133.5 387.5
s208.167 144.5 357.5 144.5s269 -53.167 359 -159.5s135 -247.5 135 -423.5zM806.001 605c-18 152 -96 228 -234 228c-132 0 -208.667 -76 -230 -228h464z" />
    <glyph glyph-name="f" unicode="f" horiz-adv-x="611" 
d="M400 997h183v-157h-183v-840h-249v840h-127v157h127v60c0 110 31 189 93 237s164.333 72 307 72h31v-196c-72 0 -120.333 -8.66699 -145 -26s-37 -51 -37 -101v-46z" />
    <glyph glyph-name="g" unicode="g" horiz-adv-x="1185" 
d="M827 997l230.003 0.000976562v-911c0 -82.667 -10 -147.334 -30 -194.001s-55.667 -89 -107 -127c-84.667 -62.667 -195.667 -94 -333 -94c-126.667 0 -228.334 25 -305.001 75s-124 122 -142 216h254c20.667 -76 81 -114 181 -114c155.333 0 233 79.333 233 238v119
c-70.667 -84 -167.334 -126 -290.001 -126c-128 0 -233 43.167 -315 129.5s-123 196.5 -123 330.5c0 144.667 40 261.667 120 351s184.667 134 314 134c131.333 0 235.666 -49.333 312.999 -148v121zM575.003 826.001c-72.667 0 -130.666 -25.833 -173.999 -77.5
s-65 -120.5 -65 -206.5c0 -82.667 21.667 -149.167 65 -199.5s100.333 -75.5 171 -75.5c76 0 136 24.5 180 73.5s66 116.167 66 201.5c0 84.667 -22.333 153.167 -67 205.5s-103.334 78.5 -176.001 78.5z" />
    <glyph glyph-name="h" unicode="h" horiz-adv-x="1150" 
d="M128 1365l249 -0.000976562v-506c84.667 110 183 165 295 165c120.667 0 214.667 -46 282 -138c44.667 -61.333 67 -153.666 67 -276.999v-609h-249v558c0 165.333 -60.667 248 -182 248c-64 0 -117 -23.667 -159 -71c-36 -40.667 -54 -109.667 -54 -207v-528h-249v1365z
" />
    <glyph glyph-name="i" unicode="i" horiz-adv-x="506" 
d="M128 1372h249v-228h-249v228zM128 997h249v-997h-249v997z" />
    <glyph glyph-name="j" unicode="j" horiz-adv-x="514" 
d="M137 997l249 -0.000976562v-1092c0 -91.333 -18 -154.166 -54 -188.499s-101.667 -51.5 -197 -51.5h-164v199h28c92 0 138 37.667 138 113v1020zM137 1372h249v-228h-249v228z" />
    <glyph glyph-name="k" unicode="k" horiz-adv-x="1096" 
d="M377 324v-324h-249v1365h249v-766l363 398h298l-359 -377l414 -620h-316l-274 455z" />
    <glyph glyph-name="l" unicode="l" horiz-adv-x="506" 
d="M128 1365h249v-1365h-249v1365z" />
    <glyph glyph-name="m" unicode="m" horiz-adv-x="1720" 
d="M128 997l248.998 0.00195312v-124c63.333 100.667 155.333 151 276 151c136 0 235.667 -61.333 299 -184c72.667 122.667 177.334 184 314.001 184c68.667 0 129.167 -16.667 181.5 -50s90.166 -79 113.499 -137c20 -50.667 30 -131.334 30 -242.001v-595h-249v570
c0 83.333 -13.167 143.666 -39.5 180.999s-69.166 56 -128.499 56c-74 0 -128 -30.667 -162 -92c-18.667 -34 -28 -87 -28 -159v-556h-249v570c0 82 -13.333 141.833 -40 179.5s-69 56.5 -127 56.5c-69.333 0 -122.666 -29 -159.999 -87c-20.667 -32 -31 -81.667 -31 -149
v-570h-249v997z" />
    <glyph glyph-name="n" unicode="n" horiz-adv-x="1146" 
d="M128 997l249 -0.000976562v-139c84.667 110.667 181 166 289 166c132.667 0 232 -50.333 298 -151c36 -56 54 -133.667 54 -233v-640h-249v576c0 78.667 -14.5 136.5 -43.5 173.5s-74.833 55.5 -137.5 55.5c-67.333 0 -119.333 -21.667 -156 -65
s-55 -104.666 -55 -183.999v-556h-249v997z" />
    <glyph glyph-name="o" unicode="o" horiz-adv-x="1192" 
d="M595 1024c150 0 273.667 -49.5 371 -148.5s146 -224.833 146 -377.5c0 -152 -48.667 -277.5 -146 -376.5s-221 -148.5 -371 -148.5c-149.333 0 -272.666 49.5 -369.999 148.5s-146 224.5 -146 376.5c0 152.667 48.667 278.5 146 377.5s220.666 148.5 369.999 148.5z
M595 826c-78 0 -140.833 -30 -188.5 -90s-71.5 -139.333 -71.5 -238c0 -98 23.833 -177 71.5 -237s110.5 -90 188.5 -90c78.667 0 141.834 30 189.501 90s71.5 139 71.5 237c0 98.667 -23.833 178 -71.5 238s-110.834 90 -189.501 90z" />
    <glyph glyph-name="p" unicode="p" horiz-adv-x="1175" 
d="M128 997l249.001 0.000976562v-130c71.333 104.667 164.666 157 279.999 157c126.667 0 231.334 -49.167 314.001 -147.5s124 -223.5 124 -375.5c0 -156.667 -39.5 -283.834 -118.5 -381.501s-182.167 -146.5 -309.5 -146.5c-61.333 0 -113.333 12 -156 36
s-87.334 66.667 -134.001 128v-472h-249v1332zM610.001 826.001c-76 0 -136 -29.834 -180 -89.501s-66 -141.5 -66 -245.5c0 -94.667 22.5 -171.667 67.5 -231s103.5 -89 175.5 -89c69.333 0 125.333 29.833 168 89.5s64 138.167 64 235.5c0 98.667 -21 178.334 -63 239.001
s-97.333 91 -166 91z" />
    <glyph glyph-name="q" unicode="q" horiz-adv-x="1188" 
d="M811 997l249 0.000976562v-1332h-249v474c-63.333 -111.333 -164 -167 -302 -167c-126.667 0 -230 49.167 -310 147.5s-120 225.5 -120 381.5c0 163.333 46 293.666 138 390.999c84 88 181.667 132 293 132c114.667 0 215 -45.667 301 -137v110zM577 826.001
c-72.667 0 -131.166 -29.667 -175.499 -89s-66.5 -137.333 -66.5 -234c0 -100 22.5 -180.5 67.5 -241.5s104.167 -91.5 177.5 -91.5c71.333 0 129.166 30.5 173.499 91.5s66.5 140.5 66.5 238.5c0 99.333 -22 178.5 -66 237.5s-103 88.5 -177 88.5z" />
    <glyph glyph-name="r" unicode="r" horiz-adv-x="724" 
d="M128 997h248.998v-138c66.667 106 149.334 159 248.001 159c16 0 37.667 -1.66699 65 -5v-214l-40 1c-85.333 0 -152.166 -26 -200.499 -78s-72.5 -123.667 -72.5 -215v-507h-249v997z" />
    <glyph glyph-name="s" unicode="s" horiz-adv-x="994" 
d="M905 701l-219 -0.00195312c-23.333 92.667 -90 139 -200 139c-52 0 -94.833 -10.667 -128.5 -32s-50.5 -48.333 -50.5 -81s15.667 -56.167 47 -70.5s107.333 -32.166 228 -53.499c136 -24 227.667 -58.667 275 -104c52.667 -49.333 79 -115.666 79 -198.999
c0 -98 -38.5 -177 -115.5 -237s-178.167 -90 -303.5 -90c-136.667 0 -244.5 29.833 -323.5 89.5s-124.5 145.167 -136.5 256.5h229c20.667 -108 95 -162 223 -162c56.667 0 102.667 11.167 138 33.5s53 51.5 53 87.5c0 32.667 -11.5 56.5 -34.5 71.5
s-67.833 28.167 -134.5 39.5c-162.667 27.333 -278.5 65.333 -347.5 114s-103.5 116 -103.5 202c0 92.667 37.333 169 112 229s169 90 283 90c124 0 224.167 -28.5 300.5 -85.5s119.5 -136.167 129.5 -237.5z" />
    <glyph glyph-name="t" unicode="t" horiz-adv-x="644" 
d="M399 997h188.002v-157h-188v-507c0 -62 7.5 -103.167 22.5 -123.5s45.833 -30.5 92.5 -30.5c10.667 0 33 1 67 3c4.66699 0.666992 11.667 1 21 1v-183h-179c-64 0 -109.833 4.16699 -137.5 12.5s-53.834 25.5 -78.501 51.5c-22.667 24 -37.834 54.167 -45.501 90.5
s-11.5 95.833 -11.5 178.5v507h-140v157h140v331h249v-331z" />
    <glyph glyph-name="u" unicode="u" horiz-adv-x="1138" 
d="M1009 997l-0.000976562 -997.002h-249v102c-92.667 -86 -191.667 -129 -297 -129c-102 0 -184.333 35.667 -247 107c-35.333 40.667 -58.833 85 -70.5 133s-17.5 124 -17.5 228v556h249v-556c0 -91.333 13.5 -155.666 40.5 -192.999s73.167 -56 138.5 -56
c66.667 0 117.334 21.333 152.001 64s52 104.334 52 185.001v556h249z" />
    <glyph glyph-name="v" unicode="v" horiz-adv-x="941" 
d="M5 997h264l211 -705l204 705h251l-329 -997h-253z" />
    <glyph glyph-name="w" unicode="w" horiz-adv-x="1463" 
d="M5 997h254l185 -696l174 696h228l190 -696l167 696h254l-292 -997h-236l-193 691l-190 -691h-238z" />
    <glyph glyph-name="x" unicode="x" horiz-adv-x="983" 
d="M683 997h273l-320 -464l351 -533h-286l-211 334l-221 -334h-273l361 524l-312 473h287l171 -295z" />
    <glyph glyph-name="y" unicode="y" horiz-adv-x="979" 
d="M718 997l254.999 0.00195312l-363 -1074c-35.333 -104.667 -80.666 -175.334 -135.999 -212.001c-30 -20 -58.667 -32.667 -86 -38s-76.333 -8 -147 -8h-126v194h74c114.667 0 172 46 172 138c0 49.333 -16 115.666 -48 198.999l-308 801h271l230 -736z" />
    <glyph glyph-name="z" unicode="z" horiz-adv-x="952" 
d="M96 997h767v-209l-534 -597h566v-191h-851v198l535 608h-483v191z" />
    <glyph glyph-name="braceleft" unicode="{" horiz-adv-x="643" 
d="M296 520c47.333 -30 79.834 -63.332 97.501 -99.999s26.5 -88.667 26.5 -156v-266v-28c0 -50 10.5 -82.667 31.5 -98s66.167 -23 135.5 -23h29v-215l-61 -1l-75 -2c-110.667 0 -190.334 23 -239.001 69s-73 121.333 -73 226v321c0 56.667 -8.5 98.5 -25.5 125.5
s-46.167 44.5 -87.5 52.5v207c75.333 16 113 69.333 113 160v325c0 106.667 24.667 182.167 74 226.5s133.333 66.5 252 66.5l61 -2l61 -2v-216l-29 1c-69.333 0 -114.5 -7.66699 -135.5 -23s-31.5 -48.333 -31.5 -99v-26v-268c0 -68.667 -8.5 -120.334 -25.5 -155.001
s-49.833 -68 -98.5 -100z" />
    <glyph glyph-name="bar" unicode="|" 
d="M389 1365h246v-1706h-246v1706z" />
    <glyph glyph-name="braceright" unicode="}" horiz-adv-x="643" 
d="M347 521c-47.333 29.333 -79.834 62.332 -97.501 98.999s-26.5 89 -26.5 157v266v27c0 50.667 -10.5 83.667 -31.5 99s-66.167 23 -135.5 23l-29 -1v216l61 1l75 2c110.667 0 190.334 -23 239.001 -69s73 -121.667 73 -227v-320c0 -56.667 8.5 -98.5 25.5 -125.5
s46.167 -44.833 87.5 -53.5v-207c-75.333 -16 -113 -69.333 -113 -160v-324c0 -106.667 -24.667 -182.167 -74 -226.5s-133.333 -66.5 -252 -66.5l-61 2l-61 2v216l29 -1c69.333 0 114.5 7.66699 135.5 23s31.5 48.333 31.5 99v26v268c0 68.667 8.5 120.334 25.5 155.001
s49.833 68 98.5 100z" />
    <glyph glyph-name="asciitilde" unicode="~" horiz-adv-x="1365" 
d="M321 1155l-136 89c6.66699 14.667 11.667 26 15 34c41.333 90.667 83.166 153.834 125.499 189.501s97.166 53.5 164.499 53.5c46.667 0 118.334 -18.667 215.001 -56c88.667 -34 150 -51 184 -51c32.667 0 59.667 7.83301 81 23.5s44.333 44.5 69 86.5l141 -81
c-46.667 -98 -94.167 -166.833 -142.5 -206.5s-108.166 -59.5 -179.499 -59.5c-36.667 0 -104 18 -202 54l-97 36c-30.667 11.333 -58.667 17 -84 17c-34 0 -61.667 -8.83301 -83 -26.5s-45 -51.834 -71 -102.501z" />
    <glyph glyph-name="quotesinglbase" horiz-adv-x="541" 
d="M391 220v-151c0 -100 -18.667 -176.333 -56 -229s-99 -89.334 -185 -110.001v63c84 24 126 81.333 126 172c0 6.66699 -0.666992 18.334 -2 35.001h-124v220h241z" />
    <glyph glyph-name="quotesinglbase" unicode="&#x201a;" horiz-adv-x="541" 
d="M391 220v-151c0 -100 -18.667 -176.333 -56 -229s-99 -89.334 -185 -110.001v63c84 24 126 81.333 126 172c0 6.66699 -0.666992 18.334 -2 35.001h-124v220h241z" />
    <glyph glyph-name="quotedblbase" horiz-adv-x="821" 
d="M364 220v-151c0 -100 -18.667 -176.333 -56 -229s-99 -89.334 -185 -110.001v63c84 24 126 81.333 126 172c0 6.66699 -0.666992 18.334 -2 35.001h-124v220h241zM698 220v-151c0 -100 -18.833 -176.333 -56.5 -229s-99.167 -89.334 -184.5 -110.001v63
c84 24 126 81.333 126 172c0 6.66699 -0.666992 18.334 -2 35.001h-124v220h241z" />
    <glyph glyph-name="quotedblbase" unicode="&#x201e;" horiz-adv-x="821" 
d="M364 220v-151c0 -100 -18.667 -176.333 -56 -229s-99 -89.334 -185 -110.001v63c84 24 126 81.333 126 172c0 6.66699 -0.666992 18.334 -2 35.001h-124v220h241zM698 220v-151c0 -100 -18.833 -176.333 -56.5 -229s-99.167 -89.334 -184.5 -110.001v63
c84 24 126 81.333 126 172c0 6.66699 -0.666992 18.334 -2 35.001h-124v220h241z" />
    <glyph glyph-name="ellipsis" unicode="&#x85;" horiz-adv-x="1501" 
d="M123 263h273v-263h-273v263zM614 263h273v-263h-273v263zM1105 263h273v-263h-273v263z" />
    <glyph glyph-name="ellipsis" unicode="&#x2026;" horiz-adv-x="1501" 
d="M123 263h273v-263h-273v263zM614 263h273v-263h-273v263zM1105 263h273v-263h-273v263z" />
    <glyph glyph-name="dagger" horiz-adv-x="1111" 
d="M651 1365v-355h311v-178h-311v-1167h-191v1167h-311v178h311v355h191z" />
    <glyph glyph-name="dagger" unicode="&#x2020;" horiz-adv-x="1111" 
d="M651 1365v-355h311v-178h-311v-1167h-191v1167h-311v178h311v355h191z" />
    <glyph glyph-name="daggerdbl" horiz-adv-x="1111" 
d="M651 1365v-355h311v-178h-311v-633h311v-178h-311v-356h-191v356h-311v178h311v633h-311v178h311v355h191z" />
    <glyph glyph-name="daggerdbl" unicode="&#x2021;" horiz-adv-x="1111" 
d="M651 1365v-355h311v-178h-311v-633h311v-178h-311v-356h-191v356h-311v178h311v633h-311v178h311v355h191z" />
    <glyph glyph-name="perthousand" horiz-adv-x="2302" 
d="M382 1385c94.667 0 168.5 -32.333 221.5 -97s79.5 -154.667 79.5 -270c0 -114.667 -26.5 -204.334 -79.5 -269.001s-126.833 -97 -221.5 -97c-94 0 -167.5 32.333 -220.5 97s-79.5 154.334 -79.5 269.001c0 115.333 26.5 205.333 79.5 270s126.5 97 220.5 97zM382 1244
c-82 0 -123 -75.333 -123 -226c0 -150 41 -225 123 -225c82.667 0 124 75 124 225c0 150.667 -41.333 226 -124 226zM1018 1365h128l-557 -1365h-133zM1230 731c94.667 0 168.5 -32.333 221.5 -97s79.5 -154.667 79.5 -270c0 -114.667 -26.5 -204.334 -79.5 -269.001
s-126.833 -97 -221.5 -97c-94 0 -167.5 32.333 -220.5 97s-79.5 154.334 -79.5 269.001c0 115.333 26.5 205.333 79.5 270s126.5 97 220.5 97zM1230 590c-82 0 -123 -75.333 -123 -226c0 -150 41 -225 123 -225c82.667 0 124 75 124 225c0 150.667 -41.333 226 -124 226z
M1920 731c94.667 0 168.5 -32.333 221.5 -97s79.5 -154.667 79.5 -270c0 -114.667 -26.5 -204.334 -79.5 -269.001s-126.833 -97 -221.5 -97c-94 0 -167.5 32.333 -220.5 97s-79.5 154.334 -79.5 269.001c0 115.333 26.5 205.333 79.5 270s126.5 97 220.5 97zM1920 590
c-82 0 -123 -75.333 -123 -226c0 -150 41 -225 123 -225c82.667 0 124 75 124 225c0 150.667 -41.333 226 -124 226z" />
    <glyph glyph-name="perthousand" unicode="&#x2030;" horiz-adv-x="2302" 
d="M382 1385c94.667 0 168.5 -32.333 221.5 -97s79.5 -154.667 79.5 -270c0 -114.667 -26.5 -204.334 -79.5 -269.001s-126.833 -97 -221.5 -97c-94 0 -167.5 32.333 -220.5 97s-79.5 154.334 -79.5 269.001c0 115.333 26.5 205.333 79.5 270s126.5 97 220.5 97zM382 1244
c-82 0 -123 -75.333 -123 -226c0 -150 41 -225 123 -225c82.667 0 124 75 124 225c0 150.667 -41.333 226 -124 226zM1018 1365h128l-557 -1365h-133zM1230 731c94.667 0 168.5 -32.333 221.5 -97s79.5 -154.667 79.5 -270c0 -114.667 -26.5 -204.334 -79.5 -269.001
s-126.833 -97 -221.5 -97c-94 0 -167.5 32.333 -220.5 97s-79.5 154.334 -79.5 269.001c0 115.333 26.5 205.333 79.5 270s126.5 97 220.5 97zM1230 590c-82 0 -123 -75.333 -123 -226c0 -150 41 -225 123 -225c82.667 0 124 75 124 225c0 150.667 -41.333 226 -124 226z
M1920 731c94.667 0 168.5 -32.333 221.5 -97s79.5 -154.667 79.5 -270c0 -114.667 -26.5 -204.334 -79.5 -269.001s-126.833 -97 -221.5 -97c-94 0 -167.5 32.333 -220.5 97s-79.5 154.334 -79.5 269.001c0 115.333 26.5 205.333 79.5 270s126.5 97 220.5 97zM1920 590
c-82 0 -123 -75.333 -123 -226c0 -150 41 -225 123 -225c82.667 0 124 75 124 225c0 150.667 -41.333 226 -124 226z" />
    <glyph glyph-name="Scaron" horiz-adv-x="1270" 
d="M1160 975h-252.001c-24 135.333 -120.333 203 -289 203c-74.667 0 -134.667 -15.167 -180 -45.5s-68 -70.5 -68 -120.5c0 -57.333 24.667 -100 74 -128c26.667 -15.333 125.667 -43.333 297 -84c102 -24 179.167 -47.667 231.5 -71s95.166 -52.666 128.499 -87.999
c62 -66 93 -148.667 93 -248c0 -122 -51.667 -222.5 -155 -301.5s-235 -118.5 -395 -118.5c-173.333 0 -310.833 39.5 -412.5 118.5s-156.5 189.167 -164.5 330.5h260c9.33301 -156.667 111.333 -235 306 -235c90 0 161.167 16.5 213.5 49.5s78.5 77.5 78.5 133.5
c0 51.333 -21 89.5 -63 114.5s-137.667 56.5 -287 94.5c-112 28.667 -192.667 52.667 -242 72s-89.666 42.666 -120.999 69.999c-74 64.667 -111 150 -111 256c0 124.667 46.833 225 140.5 301s216.834 114 369.501 114c164.667 0 290.167 -33 376.5 -99
s143.5 -172 171.5 -318zM474.999 1502l-160 249h211l105 -167l106 167h211l-154 -249h-319z" />
    <glyph glyph-name="Scaron" unicode="&#x160;" horiz-adv-x="1270" 
d="M1160 975h-252.001c-24 135.333 -120.333 203 -289 203c-74.667 0 -134.667 -15.167 -180 -45.5s-68 -70.5 -68 -120.5c0 -57.333 24.667 -100 74 -128c26.667 -15.333 125.667 -43.333 297 -84c102 -24 179.167 -47.667 231.5 -71s95.166 -52.666 128.499 -87.999
c62 -66 93 -148.667 93 -248c0 -122 -51.667 -222.5 -155 -301.5s-235 -118.5 -395 -118.5c-173.333 0 -310.833 39.5 -412.5 118.5s-156.5 189.167 -164.5 330.5h260c9.33301 -156.667 111.333 -235 306 -235c90 0 161.167 16.5 213.5 49.5s78.5 77.5 78.5 133.5
c0 51.333 -21 89.5 -63 114.5s-137.667 56.5 -287 94.5c-112 28.667 -192.667 52.667 -242 72s-89.666 42.666 -120.999 69.999c-74 64.667 -111 150 -111 256c0 124.667 46.833 225 140.5 301s216.834 114 369.501 114c164.667 0 290.167 -33 376.5 -99
s143.5 -172 171.5 -318zM474.999 1502l-160 249h211l105 -167l106 167h211l-154 -249h-319z" />
    <glyph glyph-name="guilsinglleft" horiz-adv-x="495" 
d="M385 884v-221l-183 -154l183 -159v-210l-303 260v214z" />
    <glyph glyph-name="guilsinglleft" unicode="&#x2039;" horiz-adv-x="495" 
d="M385 884v-221l-183 -154l183 -159v-210l-303 260v214z" />
    <glyph glyph-name="uni008C" horiz-adv-x="1270" 
d="M1160 975h-252.001c-24 135.333 -120.333 203 -289 203c-74.667 0 -134.667 -15.167 -180 -45.5s-68 -70.5 -68 -120.5c0 -57.333 24.667 -100 74 -128c26.667 -15.333 125.667 -43.333 297 -84c102 -24 179.167 -47.667 231.5 -71s95.166 -52.666 128.499 -87.999
c62 -66 93 -148.667 93 -248c0 -122 -51.667 -222.5 -155 -301.5s-235 -118.5 -395 -118.5c-173.333 0 -310.833 39.5 -412.5 118.5s-156.5 189.167 -164.5 330.5h260c9.33301 -156.667 111.333 -235 306 -235c90 0 161.167 16.5 213.5 49.5s78.5 77.5 78.5 133.5
c0 51.333 -21 89.5 -63 114.5s-137.667 56.5 -287 94.5c-112 28.667 -192.667 52.667 -242 72s-89.666 42.666 -120.999 69.999c-74 64.667 -111 150 -111 256c0 124.667 46.833 225 140.5 301s216.834 114 369.501 114c164.667 0 290.167 -33 376.5 -99
s143.5 -172 171.5 -318zM609.999 1749h273l-203 -249h-163z" />
    <glyph glyph-name="uni008C" unicode="&#x15a;" horiz-adv-x="1270" 
d="M1160 975h-252.001c-24 135.333 -120.333 203 -289 203c-74.667 0 -134.667 -15.167 -180 -45.5s-68 -70.5 -68 -120.5c0 -57.333 24.667 -100 74 -128c26.667 -15.333 125.667 -43.333 297 -84c102 -24 179.167 -47.667 231.5 -71s95.166 -52.666 128.499 -87.999
c62 -66 93 -148.667 93 -248c0 -122 -51.667 -222.5 -155 -301.5s-235 -118.5 -395 -118.5c-173.333 0 -310.833 39.5 -412.5 118.5s-156.5 189.167 -164.5 330.5h260c9.33301 -156.667 111.333 -235 306 -235c90 0 161.167 16.5 213.5 49.5s78.5 77.5 78.5 133.5
c0 51.333 -21 89.5 -63 114.5s-137.667 56.5 -287 94.5c-112 28.667 -192.667 52.667 -242 72s-89.666 42.666 -120.999 69.999c-74 64.667 -111 150 -111 256c0 124.667 46.833 225 140.5 301s216.834 114 369.501 114c164.667 0 290.167 -33 376.5 -99
s143.5 -172 171.5 -318zM609.999 1749h273l-203 -249h-163z" />
    <glyph glyph-name="uni008C" unicode="&#x152;" horiz-adv-x="1270" 
d="M1160 975h-252.001c-24 135.333 -120.333 203 -289 203c-74.667 0 -134.667 -15.167 -180 -45.5s-68 -70.5 -68 -120.5c0 -57.333 24.667 -100 74 -128c26.667 -15.333 125.667 -43.333 297 -84c102 -24 179.167 -47.667 231.5 -71s95.166 -52.666 128.499 -87.999
c62 -66 93 -148.667 93 -248c0 -122 -51.667 -222.5 -155 -301.5s-235 -118.5 -395 -118.5c-173.333 0 -310.833 39.5 -412.5 118.5s-156.5 189.167 -164.5 330.5h260c9.33301 -156.667 111.333 -235 306 -235c90 0 161.167 16.5 213.5 49.5s78.5 77.5 78.5 133.5
c0 51.333 -21 89.5 -63 114.5s-137.667 56.5 -287 94.5c-112 28.667 -192.667 52.667 -242 72s-89.666 42.666 -120.999 69.999c-74 64.667 -111 150 -111 256c0 124.667 46.833 225 140.5 301s216.834 114 369.501 114c164.667 0 290.167 -33 376.5 -99
s143.5 -172 171.5 -318zM609.999 1749h273l-203 -249h-163z" />
    <glyph glyph-name="uni008D" horiz-adv-x="1185" 
d="M728 1150v-1150h-270v1150h-431v215h1131v-215h-430zM436 1502l-160 249h211l105 -167l106 167h211l-154 -249h-319z" />
    <glyph glyph-name="uni008D" unicode="&#x164;" horiz-adv-x="1185" 
d="M728 1150v-1150h-270v1150h-431v215h1131v-215h-430zM436 1502l-160 249h211l105 -167l106 167h211l-154 -249h-319z" />
    <glyph glyph-name="Zcaron" horiz-adv-x="1242" 
d="M415 215h778v-215h-1144v200l763 950h-719v215h1081v-205zM471 1502l-160 249h211l106 -167l106 167h210l-154 -249h-319z" />
    <glyph glyph-name="Zcaron" unicode="&#x17d;" horiz-adv-x="1242" 
d="M415 215h778v-215h-1144v200l763 950h-719v215h1081v-205zM471 1502l-160 249h211l106 -167l106 167h210l-154 -249h-319z" />
    <glyph glyph-name="uni008F" horiz-adv-x="1242" 
d="M415 215h778v-215h-1144v200l763 950h-719v215h1081v-205zM620 1749h273l-203 -249h-163z" />
    <glyph glyph-name="uni008F" unicode="&#x179;" horiz-adv-x="1242" 
d="M415 215h778v-215h-1144v200l763 950h-719v215h1081v-205zM620 1749h273l-203 -249h-163z" />
    <glyph glyph-name="quoteleft" horiz-adv-x="486" 
d="M123 903v151.001c0 100 18.667 176.167 56 228.5s99 88.833 185 109.5v-62c-84 -24.667 -126 -82 -126 -172c0 -6.66699 0.666992 -18.334 2 -35.001h124v-220h-241z" />
    <glyph glyph-name="quoteleft" unicode="&#x2018;" horiz-adv-x="486" 
d="M123 903v151.001c0 100 18.667 176.167 56 228.5s99 88.833 185 109.5v-62c-84 -24.667 -126 -82 -126 -172c0 -6.66699 0.666992 -18.334 2 -35.001h124v-220h-241z" />
    <glyph glyph-name="quoteright" horiz-adv-x="541" 
d="M391 1365v-150.999c0 -100 -18.667 -176.333 -56 -229s-99 -89.334 -185 -110.001v63c84 24 126 81 126 171c0 7.33301 -0.666992 19.333 -2 36h-124v220h241z" />
    <glyph glyph-name="quoteright" unicode="&#x2019;" horiz-adv-x="541" 
d="M391 1365v-150.999c0 -100 -18.667 -176.333 -56 -229s-99 -89.334 -185 -110.001v63c84 24 126 81 126 171c0 7.33301 -0.666992 19.333 -2 36h-124v220h241z" />
    <glyph glyph-name="quotedblleft" horiz-adv-x="821" 
d="M457 903v150.999c0 99.333 18.667 175.333 56 228s99 89.334 185 110.001v-62c-84 -24.667 -126 -82 -126 -172c0 -7.33301 0.666992 -19 2 -35h124v-220h-241zM123 902.999v151.001c0 100 18.667 176.167 56 228.5s99 88.833 185 109.5v-62
c-84 -24.667 -126 -82 -126 -172c0 -6.66699 0.666992 -18.334 2 -35.001h124v-220h-241z" />
    <glyph glyph-name="quotedblleft" unicode="&#x201c;" horiz-adv-x="821" 
d="M457 903v150.999c0 99.333 18.667 175.333 56 228s99 89.334 185 110.001v-62c-84 -24.667 -126 -82 -126 -172c0 -7.33301 0.666992 -19 2 -35h124v-220h-241zM123 902.999v151.001c0 100 18.667 176.167 56 228.5s99 88.833 185 109.5v-62
c-84 -24.667 -126 -82 -126 -172c0 -6.66699 0.666992 -18.334 2 -35.001h124v-220h-241z" />
    <glyph glyph-name="quotedblright" horiz-adv-x="821" 
d="M364 1365v-150.999c0 -100 -18.667 -176.333 -56 -229s-99 -89.334 -185 -110.001v63c84 24 126 81 126 171c0 7.33301 -0.666992 19.333 -2 36h-124v220h241zM698 1365v-150.999c0 -100 -18.833 -176.333 -56.5 -229s-99.167 -89.334 -184.5 -110.001v63
c84 24 126 81 126 171c0 7.33301 -0.666992 19.333 -2 36h-124v220h241z" />
    <glyph glyph-name="quotedblright" unicode="&#x201d;" horiz-adv-x="821" 
d="M364 1365v-150.999c0 -100 -18.667 -176.333 -56 -229s-99 -89.334 -185 -110.001v63c84 24 126 81 126 171c0 7.33301 -0.666992 19.333 -2 36h-124v220h241zM698 1365v-150.999c0 -100 -18.833 -176.333 -56.5 -229s-99.167 -89.334 -184.5 -110.001v63
c84 24 126 81 126 171c0 7.33301 -0.666992 19.333 -2 36h-124v220h241z" />
    <glyph glyph-name="bullet" horiz-adv-x="1365" 
d="M687 978c77.333 0 143.666 -27.833 198.999 -83.5s83 -122.5 83 -200.5s-27.667 -144.833 -83 -200.5s-121.666 -83.5 -198.999 -83.5c-79.333 0 -146.833 27.667 -202.5 83s-83.5 122.333 -83.5 201s27.833 145.667 83.5 201s123.167 83 202.5 83z" />
    <glyph glyph-name="bullet" unicode="&#x2022;" horiz-adv-x="1365" 
d="M687 978c77.333 0 143.666 -27.833 198.999 -83.5s83 -122.5 83 -200.5s-27.667 -144.833 -83 -200.5s-121.666 -83.5 -198.999 -83.5c-79.333 0 -146.833 27.667 -202.5 83s-83.5 122.333 -83.5 201s27.833 145.667 83.5 201s123.167 83 202.5 83z" />
    <glyph glyph-name="endash" horiz-adv-x="1132" 
d="M123 624h886v-224h-886v224z" />
    <glyph glyph-name="endash" unicode="&#x2013;" horiz-adv-x="1132" 
d="M123 624h886v-224h-886v224z" />
    <glyph glyph-name="emdash" horiz-adv-x="1463" 
d="M0 624h1463v-224h-1463v224z" />
    <glyph glyph-name="emdash" unicode="&#x2014;" horiz-adv-x="1463" 
d="M0 624h1463v-224h-1463v224z" />
    <glyph glyph-name="trademark" horiz-adv-x="1678" 
d="M436 1231v-644h-173v644h-254v134h681v-134h-254zM1273 587h-168l-168 543v-543h-159v778h243l167 -551l168 551h243v-778h-159v543z" />
    <glyph glyph-name="trademark" unicode="&#x2122;" horiz-adv-x="1678" 
d="M436 1231v-644h-173v644h-254v134h681v-134h-254zM1273 587h-168l-168 543v-543h-159v778h243l167 -551l168 551h243v-778h-159v543z" />
    <glyph glyph-name="scaron" horiz-adv-x="994" 
d="M905 701l-219 -0.00195312c-23.333 92.667 -90 139 -200 139c-52 0 -94.833 -10.667 -128.5 -32s-50.5 -48.333 -50.5 -81s15.667 -56.167 47 -70.5s107.333 -32.166 228 -53.499c136 -24 227.667 -58.667 275 -104c52.667 -49.333 79 -115.666 79 -198.999
c0 -98 -38.5 -177 -115.5 -237s-178.167 -90 -303.5 -90c-136.667 0 -244.5 29.833 -323.5 89.5s-124.5 145.167 -136.5 256.5h229c20.667 -108 95 -162 223 -162c56.667 0 102.667 11.167 138 33.5s53 51.5 53 87.5c0 32.667 -11.5 56.5 -34.5 71.5
s-67.833 28.167 -134.5 39.5c-162.667 27.333 -278.5 65.333 -347.5 114s-103.5 116 -103.5 202c0 92.667 37.333 169 112 229s169 90 283 90c124 0 224.167 -28.5 300.5 -85.5s119.5 -136.167 129.5 -237.5zM340 1147l-160 249h211l106 -167l105 167h211l-154 -249h-319z
" />
    <glyph glyph-name="scaron" unicode="&#x161;" horiz-adv-x="994" 
d="M905 701l-219 -0.00195312c-23.333 92.667 -90 139 -200 139c-52 0 -94.833 -10.667 -128.5 -32s-50.5 -48.333 -50.5 -81s15.667 -56.167 47 -70.5s107.333 -32.166 228 -53.499c136 -24 227.667 -58.667 275 -104c52.667 -49.333 79 -115.666 79 -198.999
c0 -98 -38.5 -177 -115.5 -237s-178.167 -90 -303.5 -90c-136.667 0 -244.5 29.833 -323.5 89.5s-124.5 145.167 -136.5 256.5h229c20.667 -108 95 -162 223 -162c56.667 0 102.667 11.167 138 33.5s53 51.5 53 87.5c0 32.667 -11.5 56.5 -34.5 71.5
s-67.833 28.167 -134.5 39.5c-162.667 27.333 -278.5 65.333 -347.5 114s-103.5 116 -103.5 202c0 92.667 37.333 169 112 229s169 90 283 90c124 0 224.167 -28.5 300.5 -85.5s119.5 -136.167 129.5 -237.5zM340 1147l-160 249h211l106 -167l105 167h211l-154 -249h-319z
" />
    <glyph glyph-name="guilsinglright" horiz-adv-x="495" 
d="M111 140v222l183 153l-183 159v210l303 -260v-214z" />
    <glyph glyph-name="guilsinglright" unicode="&#x203a;" horiz-adv-x="495" 
d="M111 140v222l183 153l-183 159v210l303 -260v-214z" />
    <glyph glyph-name="uni009C" horiz-adv-x="994" 
d="M905 701l-219 -0.00195312c-23.333 92.667 -90 139 -200 139c-52 0 -94.833 -10.667 -128.5 -32s-50.5 -48.333 -50.5 -81s15.667 -56.167 47 -70.5s107.333 -32.166 228 -53.499c136 -24 227.667 -58.667 275 -104c52.667 -49.333 79 -115.666 79 -198.999
c0 -98 -38.5 -177 -115.5 -237s-178.167 -90 -303.5 -90c-136.667 0 -244.5 29.833 -323.5 89.5s-124.5 145.167 -136.5 256.5h229c20.667 -108 95 -162 223 -162c56.667 0 102.667 11.167 138 33.5s53 51.5 53 87.5c0 32.667 -11.5 56.5 -34.5 71.5
s-67.833 28.167 -134.5 39.5c-162.667 27.333 -278.5 65.333 -347.5 114s-103.5 116 -103.5 202c0 92.667 37.333 169 112 229s169 90 283 90c124 0 224.167 -28.5 300.5 -85.5s119.5 -136.167 129.5 -237.5zM482 1396h273l-203 -249h-163z" />
    <glyph glyph-name="uni009C" unicode="&#x153;" horiz-adv-x="994" 
d="M905 701l-219 -0.00195312c-23.333 92.667 -90 139 -200 139c-52 0 -94.833 -10.667 -128.5 -32s-50.5 -48.333 -50.5 -81s15.667 -56.167 47 -70.5s107.333 -32.166 228 -53.499c136 -24 227.667 -58.667 275 -104c52.667 -49.333 79 -115.666 79 -198.999
c0 -98 -38.5 -177 -115.5 -237s-178.167 -90 -303.5 -90c-136.667 0 -244.5 29.833 -323.5 89.5s-124.5 145.167 -136.5 256.5h229c20.667 -108 95 -162 223 -162c56.667 0 102.667 11.167 138 33.5s53 51.5 53 87.5c0 32.667 -11.5 56.5 -34.5 71.5
s-67.833 28.167 -134.5 39.5c-162.667 27.333 -278.5 65.333 -347.5 114s-103.5 116 -103.5 202c0 92.667 37.333 169 112 229s169 90 283 90c124 0 224.167 -28.5 300.5 -85.5s119.5 -136.167 129.5 -237.5zM482 1396h273l-203 -249h-163z" />
    <glyph glyph-name="uni009D" horiz-adv-x="722" 
d="M399 997h188.002v-157h-188v-507c0 -62 7.5 -103.167 22.5 -123.5s45.833 -30.5 92.5 -30.5c10.667 0 33 1 67 3c4.66699 0.666992 11.667 1 21 1v-183h-179c-64 0 -109.833 4.16699 -137.5 12.5s-53.834 25.5 -78.501 51.5c-22.667 24 -37.834 54.167 -45.501 90.5
s-11.5 95.833 -11.5 178.5v507h-140v157h140v331h249v-331zM743.002 1514l-0.000976562 -170c0 -88 -29.667 -152.667 -89 -194c-41.333 -29.333 -85 -44 -131 -44h-12v91c30.667 2 55.334 13.5 74.001 34.5s28 47.5 28 79.5h-105v203h235z" />
    <glyph glyph-name="uni009D" unicode="&#x165;" horiz-adv-x="722" 
d="M399 997h188.002v-157h-188v-507c0 -62 7.5 -103.167 22.5 -123.5s45.833 -30.5 92.5 -30.5c10.667 0 33 1 67 3c4.66699 0.666992 11.667 1 21 1v-183h-179c-64 0 -109.833 4.16699 -137.5 12.5s-53.834 25.5 -78.501 51.5c-22.667 24 -37.834 54.167 -45.501 90.5
s-11.5 95.833 -11.5 178.5v507h-140v157h140v331h249v-331zM743.002 1514l-0.000976562 -170c0 -88 -29.667 -152.667 -89 -194c-41.333 -29.333 -85 -44 -131 -44h-12v91c30.667 2 55.334 13.5 74.001 34.5s28 47.5 28 79.5h-105v203h235z" />
    <glyph glyph-name="uni009D" unicode="&#x15b;" horiz-adv-x="722" 
d="M399 997h188.002v-157h-188v-507c0 -62 7.5 -103.167 22.5 -123.5s45.833 -30.5 92.5 -30.5c10.667 0 33 1 67 3c4.66699 0.666992 11.667 1 21 1v-183h-179c-64 0 -109.833 4.16699 -137.5 12.5s-53.834 25.5 -78.501 51.5c-22.667 24 -37.834 54.167 -45.501 90.5
s-11.5 95.833 -11.5 178.5v507h-140v157h140v331h249v-331zM743.002 1514l-0.000976562 -170c0 -88 -29.667 -152.667 -89 -194c-41.333 -29.333 -85 -44 -131 -44h-12v91c30.667 2 55.334 13.5 74.001 34.5s28 47.5 28 79.5h-105v203h235z" />
    <glyph glyph-name="zcaron" horiz-adv-x="952" 
d="M96 997h767v-209l-534 -597h566v-191h-851v198l535 608h-483v191zM323 1147l-160 249h211l106 -167l105 167h211l-154 -249h-319z" />
    <glyph glyph-name="zcaron" unicode="&#x17e;" horiz-adv-x="952" 
d="M96 997h767v-209l-534 -597h566v-191h-851v198l535 608h-483v191zM323 1147l-160 249h211l106 -167l105 167h211l-154 -249h-319z" />
    <glyph glyph-name="uni009F" horiz-adv-x="952" 
d="M96 997h767v-209l-534 -597h566v-191h-851v198l535 608h-483v191zM465 1396h273l-203 -249h-163z" />
    <glyph glyph-name="uni009F" unicode="&#x17a;" horiz-adv-x="952" 
d="M96 997h767v-209l-534 -597h566v-191h-851v198l535 608h-483v191zM465 1396h273l-203 -249h-163z" />
    <glyph glyph-name="uni009F" unicode="&#x178;" horiz-adv-x="952" 
d="M96 997h767v-209l-534 -597h566v-191h-851v198l535 608h-483v191zM465 1396h273l-203 -249h-163z" />
    <glyph glyph-name="caron" unicode="&#xa1;" 
d="M356 1147l-160 249h211l105 -167l106 167h211l-154 -249h-319z" />
    <glyph glyph-name="caron" unicode="&#x2c7;" 
d="M356 1147l-160 249h211l105 -167l106 167h211l-154 -249h-319z" />
    <glyph glyph-name="breve" unicode="&#xa2;" 
d="M654 1394l168 -0.000976562c0 -47.333 -17 -93.666 -51 -138.999c-57.333 -77.333 -143 -116 -257 -116c-92.667 0 -167.667 23.5 -225 70.5s-86 108.5 -86 184.5h168c14 -70 62.667 -105 146 -105c72 0 117.667 35 137 105z" />
    <glyph glyph-name="breve" unicode="&#x2d8;" 
d="M654 1394l168 -0.000976562c0 -47.333 -17 -93.666 -51 -138.999c-57.333 -77.333 -143 -116 -257 -116c-92.667 0 -167.667 23.5 -225 70.5s-86 108.5 -86 184.5h168c14 -70 62.667 -105 146 -105c72 0 117.667 35 137 105z" />
    <glyph glyph-name="Lslash" unicode="&#xa3;" horiz-adv-x="1127" 
d="M145 461l-137 -88v228l137 88v676h270v-549l321 208v-228l-321 -208v-373h685v-215h-955v461z" />
    <glyph glyph-name="Lslash" unicode="&#x141;" horiz-adv-x="1127" 
d="M145 461l-137 -88v228l137 88v676h270v-549l321 208v-228l-321 -208v-373h685v-215h-955v461z" />
    <glyph glyph-name="currency" unicode="&#xa4;" horiz-adv-x="1365" 
d="M54 276l206.999 207.999c-61.333 88.667 -92 182.667 -92 282c0 98.667 31.333 193.334 94 284.001l-211 209l134 135l210 -210c92.667 61.333 190.334 92 293.001 92c95.333 0 188 -30 278 -90l208 206l133 -133l-206 -206c63.333 -98 95 -193.667 95 -287
c0 -96 -30.333 -189.667 -91 -281l208 -208l-132 -134l-208 207c-92 -62.667 -189 -94 -291 -94c-94 0 -190.333 31 -289 93l-207 -206zM682.999 1055c-80 0 -148.167 -28.167 -204.5 -84.5s-84.5 -124.5 -84.5 -204.5c0 -79.333 28.333 -147.333 85 -204
s124.667 -85 204 -85s147.333 28.333 204 85s85 124.667 85 204c0 80 -28.167 148.167 -84.5 204.5s-124.5 84.5 -204.5 84.5z" />
    <glyph glyph-name="glyph259" unicode="&#xa5;" horiz-adv-x="1246" 
d="M1246 0c-98 -51.333 -147 -104.333 -147 -159c0 -24.667 10 -46.167 30 -64.5s44 -27.5 72 -27.5c32 0 62.667 6.66699 92 20v-128c-44.667 -17.333 -85.667 -26 -123 -26c-66.667 0 -120.667 16.833 -162 50.5s-62 77.167 -62 130.5c0 78 53.333 146 160 204h-142
l-91 292h-501l-91 -292h-281l480 1365h303zM433 490h380l-190 612z" />
    <glyph glyph-name="glyph259" unicode="&#x104;" horiz-adv-x="1246" 
d="M1246 0c-98 -51.333 -147 -104.333 -147 -159c0 -24.667 10 -46.167 30 -64.5s44 -27.5 72 -27.5c32 0 62.667 6.66699 92 20v-128c-44.667 -17.333 -85.667 -26 -123 -26c-66.667 0 -120.667 16.833 -162 50.5s-62 77.167 -62 130.5c0 78 53.333 146 160 204h-142
l-91 292h-501l-91 -292h-281l480 1365h303zM433 490h380l-190 612z" />
    <glyph glyph-name="brokenbar" unicode="&#xa6;" 
d="M389 1365h246v-705h-246v705zM389 314h246v-655h-246v655z" />
    <glyph glyph-name="section" unicode="&#xa7;" horiz-adv-x="1295" 
d="M1062 1030h-243.999c-7.33301 103.333 -60.333 155 -159 155c-42 0 -76.167 -10.5 -102.5 -31.5s-39.5 -48.833 -39.5 -83.5c0 -48.667 34 -91.334 102 -128.001l84 -44l97 -50l97 -51c100 -53.333 168.833 -103 206.5 -149s56.5 -103 56.5 -171
c0 -64 -17.167 -120.167 -51.5 -168.5s-82.833 -84.833 -145.5 -109.5c68.667 -62 103 -136.333 103 -223c0 -98.667 -38.333 -179.667 -115 -243s-174.667 -95 -294 -95c-136 0 -242.167 33.667 -318.5 101s-114.5 161 -114.5 281h245c13.333 -116 74.333 -174 183 -174
c46 0 82.667 12.167 110 36.5s41 56.833 41 97.5c0 38.667 -20.833 74.167 -62.5 106.5s-129.834 80.833 -264.501 145.5c-136.667 66 -227.667 123.667 -273 173s-68 115 -68 197c0 64.667 17.833 121.334 53.5 170.001s85.167 83 148.5 103
c-54.667 59.333 -82 123.333 -82 192c0 95.333 37.667 173.333 113 234s172.333 91 291 91c120 0 217.167 -33.333 291.5 -100s111.5 -154 111.5 -262zM472.001 756c-68.667 -22 -103 -65.667 -103 -131c0 -34.667 13.167 -62.667 39.5 -84s96.5 -60.333 210.5 -117
c84.667 -42 152 -78 202 -108c68 28 102 71 102 129c0 46.667 -38.333 90.667 -115 132l-126 67l-127 67l-60 32c-5.33301 2.66699 -13 7 -23 13z" />
    <glyph glyph-name="dieresis" unicode="&#xa8;" 
d="M192 1379h237v-217h-237v217zM595 1379h237v-217h-237v217z" />
    <glyph glyph-name="copyright" unicode="&#xa9;" horiz-adv-x="1555" 
d="M987 565h167.999c-9.33301 -86 -46.166 -154.167 -110.499 -204.5s-147.166 -75.5 -248.499 -75.5c-116.667 0 -212 37 -286 111s-111 169.333 -111 286c0 122 36.5 221.167 109.5 297.5s168.167 114.5 285.5 114.5c202.667 0 323.334 -92 362.001 -276h-173
c-20.667 90.667 -81.334 136 -182.001 136c-66.667 0 -121.5 -25 -164.5 -75s-64.5 -113.333 -64.5 -190c0 -78 21.667 -141.5 65 -190.5s99.666 -73.5 168.999 -73.5c96 0 156.333 46.667 181 140zM781.999 1395c194 0 359.999 -69.667 497.999 -209s207 -307 207 -503
s-69 -363.833 -207 -503.5s-304 -209.5 -498 -209.5c-197.333 0 -365.666 69.5 -504.999 208.5s-209 307.167 -209 504.5s69.5 365.333 208.5 504s307.5 208 505.5 208zM781.998 1275c-161.333 0 -298.5 -57.667 -411.5 -173s-169.5 -255 -169.5 -419
c0 -163.333 56.667 -303 170 -419s250.333 -174 411 -174c157.333 0 292 58.167 404 174.5s168 255.833 168 418.5c0 163.333 -56 302.833 -168 418.5s-246.667 173.5 -404 173.5z" />
    <glyph glyph-name="Scedilla" unicode="&#xaa;" horiz-adv-x="1270" 
d="M642 -26l-62.001 -96.9971c30 6.66699 55 10 75 10c48.667 0 88.667 -12.833 120 -38.5s47 -58.5 47 -98.5c0 -54 -21.667 -97 -65 -129s-101.333 -48 -174 -48c-62.667 0 -133.667 14.667 -213 44l37 82c55.333 -22.667 105 -34 149 -34c66 0 99 24.333 99 73
c0 46.667 -32 70 -96 70c-18.667 0 -41 -5 -67 -15l-39 39l96 145c-152.667 18.667 -269.167 65.167 -349.5 139.5s-124.166 176.166 -131.499 305.499h260c9.33301 -156.667 111.333 -235 306 -235c90 0 161.167 16.5 213.5 49.5s78.5 77.5 78.5 133.5
c0 51.333 -21 89.5 -63 114.5s-137.667 56.5 -287 94.5c-112 28.667 -192.5 52.667 -241.5 72s-89.5 42.666 -121.5 69.999c-74 65.333 -111 150.666 -111 255.999c0 124.667 46.833 225 140.5 301s216.834 114 369.501 114c164.667 0 290.167 -33 376.5 -99
s143.5 -172 171.5 -318h-252c-24 135.333 -120.333 203 -289 203c-74.667 0 -134.667 -15.167 -180 -45.5s-68 -70.5 -68 -120.5c0 -57.333 24.667 -100 74 -128c26.667 -15.333 125.667 -43.333 297 -84c102 -24 179.167 -47.667 231.5 -71s95.166 -52.666 128.499 -87.999
c62 -66.667 93 -149.334 93 -248.001c0 -123.333 -51.333 -224 -154 -302s-235.667 -117 -399 -117z" />
    <glyph glyph-name="Scedilla" unicode="&#x15e;" horiz-adv-x="1270" 
d="M642 -26l-62.001 -96.9971c30 6.66699 55 10 75 10c48.667 0 88.667 -12.833 120 -38.5s47 -58.5 47 -98.5c0 -54 -21.667 -97 -65 -129s-101.333 -48 -174 -48c-62.667 0 -133.667 14.667 -213 44l37 82c55.333 -22.667 105 -34 149 -34c66 0 99 24.333 99 73
c0 46.667 -32 70 -96 70c-18.667 0 -41 -5 -67 -15l-39 39l96 145c-152.667 18.667 -269.167 65.167 -349.5 139.5s-124.166 176.166 -131.499 305.499h260c9.33301 -156.667 111.333 -235 306 -235c90 0 161.167 16.5 213.5 49.5s78.5 77.5 78.5 133.5
c0 51.333 -21 89.5 -63 114.5s-137.667 56.5 -287 94.5c-112 28.667 -192.5 52.667 -241.5 72s-89.5 42.666 -121.5 69.999c-74 65.333 -111 150.666 -111 255.999c0 124.667 46.833 225 140.5 301s216.834 114 369.501 114c164.667 0 290.167 -33 376.5 -99
s143.5 -172 171.5 -318h-252c-24 135.333 -120.333 203 -289 203c-74.667 0 -134.667 -15.167 -180 -45.5s-68 -70.5 -68 -120.5c0 -57.333 24.667 -100 74 -128c26.667 -15.333 125.667 -43.333 297 -84c102 -24 179.167 -47.667 231.5 -71s95.166 -52.666 128.499 -87.999
c62 -66.667 93 -149.334 93 -248.001c0 -123.333 -51.333 -224 -154 -302s-235.667 -117 -399 -117z" />
    <glyph glyph-name="guillemotleft" unicode="&#xab;" horiz-adv-x="884" 
d="M385 884v-221l-183 -154l183 -159v-210l-303 260v214zM774 884v-221l-183 -154l183 -159v-210l-303 260v214z" />
    <glyph glyph-name="logicalnot" unicode="&#xac;" 
d="M709 0v317h-641v229h887v-546h-246z" />
    <glyph glyph-name="minus" unicode="&#xad;" horiz-adv-x="1270" 
d="M123 774h1024v-184h-1024v184z" />
    <glyph glyph-name="registered" unicode="&#xae;" horiz-adv-x="1555" 
d="M623 611l0.00195312 -310.999h-173v779h338c80 0 138 -6.33301 174 -19c91.333 -32 137 -98.667 137 -200c0 -89.333 -55 -152 -165 -188c51.333 -14.667 86.166 -33.834 104.499 -57.501s29.5 -64.167 33.5 -121.5l4 -63c4 -56 13.667 -99.333 29 -130h-166
c-15.333 26.667 -23 61 -23 103c0 77.333 -12.833 131.333 -38.5 162s-70.834 46 -135.501 46h-119zM623.002 737.001h159c98.667 0 148 34.667 148 104s-49.333 104 -148 104h-159v-208zM782.002 1395c194 0 359.999 -69.667 497.999 -209s207 -307 207 -503
s-69 -363.833 -207 -503.5s-304 -209.5 -498 -209.5c-197.333 0 -365.666 69.5 -504.999 208.5s-209 307.167 -209 504.5s69.5 365.333 208.5 504s307.5 208 505.5 208zM782.001 1275c-161.333 0 -298.5 -57.667 -411.5 -173s-169.5 -255 -169.5 -419
c0 -163.333 56.667 -303 170 -419s250.333 -174 411 -174c157.333 0 292 58.167 404 174.5s168 255.833 168 418.5c0 163.333 -56 302.833 -168 418.5s-246.667 173.5 -404 173.5z" />
    <glyph glyph-name="glyph275" unicode="&#xaf;" horiz-adv-x="1242" 
d="M415 215h778v-215h-1144v200l763 950h-719v215h1081v-205zM503 1739h249v-217h-249v217z" />
    <glyph glyph-name="glyph275" unicode="&#x17b;" horiz-adv-x="1242" 
d="M415 215h778v-215h-1144v200l763 950h-719v215h1081v-205zM503 1739h249v-217h-249v217z" />
    <glyph glyph-name="degree" unicode="&#xb0;" horiz-adv-x="847" 
d="M423 1379c79.333 0 147 -28 203 -84s84 -123.667 84 -203s-28 -147 -84 -203s-123.667 -84 -203 -84c-78.667 0 -146 28.167 -202 84.5s-84 123.833 -84 202.5c0 79.333 28 147 84 203s123.333 84 202 84zM423 1263c-46.667 0 -86.667 -16.667 -120 -50
s-50 -73.666 -50 -120.999s16.667 -87.666 50 -120.999s73.333 -50 120 -50c47.333 0 87.666 16.667 120.999 50s50 73.666 50 120.999s-16.667 87.666 -50 120.999s-73.666 50 -120.999 50z" />
    <glyph glyph-name="plusminus" unicode="&#xb1;" horiz-adv-x="1270" 
d="M123 905h416v433h193v-433h415v-184h-415v-434h-193v434h-416v184zM124 187h1024v-184h-1024v184z" />
    <glyph glyph-name="ogonek" unicode="&#xb2;" 
d="M824 0h140c-98 -50.667 -147 -103.667 -147 -159c0 -24.667 10 -46.167 30 -64.5s44 -27.5 72 -27.5c31.333 0 62 6.66699 92 20v-128c-44.667 -17.333 -85.667 -26 -123 -26c-66.667 0 -120.667 16.833 -162 50.5s-62 77.167 -62 130.5c0 78 53.333 146 160 204z" />
    <glyph glyph-name="ogonek" unicode="&#x2db;" 
d="M824 0h140c-98 -50.667 -147 -103.667 -147 -159c0 -24.667 10 -46.167 30 -64.5s44 -27.5 72 -27.5c31.333 0 62 6.66699 92 20v-128c-44.667 -17.333 -85.667 -26 -123 -26c-66.667 0 -120.667 16.833 -162 50.5s-62 77.167 -62 130.5c0 78 53.333 146 160 204z" />
    <glyph glyph-name="lslash" unicode="&#xb3;" horiz-adv-x="536" 
d="M393 1365v-488l136 87v-178l-136 -87v-699h-249v590l-137 -90v178l137 89v598h249z" />
    <glyph glyph-name="lslash" unicode="&#x142;" horiz-adv-x="536" 
d="M393 1365v-488l136 87v-178l-136 -87v-699h-249v590l-137 -90v178l137 89v598h249z" />
    <glyph glyph-name="acute" unicode="&#xb4;" 
d="M524 1396h273l-203 -249h-163z" />
    <glyph glyph-name="mu" unicode="&#xb5;" horiz-adv-x="1270" 
d="M182 -335l0.000976562 1318h246v-526c0 -65.333 4.83301 -114.666 14.5 -147.999s27.167 -62.666 52.5 -87.999c39.333 -38.667 87.333 -58 144 -58c135.333 0 203 101 203 303v517h246v-983h-246v125c-48.667 -97.333 -117.334 -146 -206.001 -146
c-86.667 0 -156 43 -208 129v-443h-246z" />
    <glyph glyph-name="paragraph" unicode="&#xb6;" horiz-adv-x="1270" 
d="M413 -335v990h-24c-110 0 -198.833 32.167 -266.5 96.5s-101.5 148.5 -101.5 252.5c0 240.667 156.333 361 469 361h663v-189h-146v-1511h-208v1511h-178v-1511h-208z" />
    <glyph glyph-name="periodcentered" unicode="&#xb7;" horiz-adv-x="518" 
d="M123 644h273v-263h-273v263z" />
    <glyph glyph-name="periodcentered" unicode="&#x2219;" horiz-adv-x="518" 
d="M123 644h273v-263h-273v263z" />
    <glyph glyph-name="cedilla" unicode="&#xb8;" 
d="M576 0l-79 -123c29.333 7.33301 54 11 74 11c48.667 0 88.667 -13 120 -39s47 -58.667 47 -98c0 -54 -21.667 -97.167 -65 -129.5s-101 -48.5 -173 -48.5c-62.667 0 -134 14.667 -214 44l38 82c54.667 -22.667 104 -34 148 -34c66 0 99 24.667 99 74
c0 46.667 -32 70 -96 70c-18.667 0 -40.667 -5.33301 -66 -16l-40 39l112 168h95z" />
    <glyph glyph-name="uni00B9" unicode="&#xb9;" horiz-adv-x="1124" 
d="M1038 0c-97.333 -50.667 -145.997 -103.668 -145.997 -159.001c0 -24.667 10 -46.167 30 -64.5s43.667 -27.5 71 -27.5c32 0 62.667 6.66699 92 20v-128c-44.667 -17.333 -85.667 -26 -123 -26c-66 0 -119.667 16.833 -161 50.5s-62 77.167 -62 130.5
c0 78 53 146 159 204h-103l-27 93c-102.667 -80 -209.334 -120 -320.001 -120c-100.667 0 -187.334 29.667 -260.001 89s-109 129.666 -109 210.999c0 100 41.5 177.667 124.5 233s213.5 93.333 391.5 114c58 6.66699 98.5 17.334 121.5 32.001s34.5 37.334 34.5 68.001
c0 38.667 -17 69.834 -51 93.501s-78.667 35.5 -134 35.5c-57.333 0 -102.833 -13 -136.5 -39s-52.5 -62.333 -56.5 -109h-235c15.333 112.667 57.666 194.667 126.999 246s172 77 308 77c132.667 0 235 -24.667 307 -74c44.667 -31.333 76.5 -71.333 95.5 -120
s28.5 -115.334 28.5 -200.001v-420c0 -92 10.333 -160 31 -204zM761.003 523.999c-38.667 -24 -91 -43.999 -157 -59.999c-105.333 -25.333 -176.5 -49.833 -213.5 -73.5s-55.5 -56.5 -55.5 -98.5c0 -36.667 16 -66 48 -88s74 -33 126 -33c68.667 0 127 16 175 48
c29.333 19.333 49.5 41.166 60.5 65.499s16.5 58.833 16.5 103.5v136z" />
    <glyph glyph-name="uni00B9" unicode="&#x105;" horiz-adv-x="1124" 
d="M1038 0c-97.333 -50.667 -145.997 -103.668 -145.997 -159.001c0 -24.667 10 -46.167 30 -64.5s43.667 -27.5 71 -27.5c32 0 62.667 6.66699 92 20v-128c-44.667 -17.333 -85.667 -26 -123 -26c-66 0 -119.667 16.833 -161 50.5s-62 77.167 -62 130.5
c0 78 53 146 159 204h-103l-27 93c-102.667 -80 -209.334 -120 -320.001 -120c-100.667 0 -187.334 29.667 -260.001 89s-109 129.666 -109 210.999c0 100 41.5 177.667 124.5 233s213.5 93.333 391.5 114c58 6.66699 98.5 17.334 121.5 32.001s34.5 37.334 34.5 68.001
c0 38.667 -17 69.834 -51 93.501s-78.667 35.5 -134 35.5c-57.333 0 -102.833 -13 -136.5 -39s-52.5 -62.333 -56.5 -109h-235c15.333 112.667 57.666 194.667 126.999 246s172 77 308 77c132.667 0 235 -24.667 307 -74c44.667 -31.333 76.5 -71.333 95.5 -120
s28.5 -115.334 28.5 -200.001v-420c0 -92 10.333 -160 31 -204zM761.003 523.999c-38.667 -24 -91 -43.999 -157 -59.999c-105.333 -25.333 -176.5 -49.833 -213.5 -73.5s-55.5 -56.5 -55.5 -98.5c0 -36.667 16 -66 48 -88s74 -33 126 -33c68.667 0 127 16 175 48
c29.333 19.333 49.5 41.166 60.5 65.499s16.5 58.833 16.5 103.5v136z" />
    <glyph glyph-name="scedilla" unicode="&#xba;" horiz-adv-x="994" 
d="M504 -27l-62.0029 -96.001c30 7.33301 55 11 75 11c48 0 87.833 -13 119.5 -39s47.5 -58.667 47.5 -98c0 -54 -21.667 -97.167 -65 -129.5s-101.333 -48.5 -174 -48.5c-62.667 0 -134 14.667 -214 44l38 82c55.333 -22.667 105 -34 149 -34c66 0 99 24.667 99 74
c0 46.667 -32 70 -96 70c-19.333 0 -41.666 -5.33301 -66.999 -16l-39 39l98 147l-29 5c-198.667 37.333 -307.667 149 -327 335h229c20.667 -108 95 -162 223 -162c56.667 0 102.667 11.167 138 33.5s53 51.5 53 87.5c0 32.667 -11.5 56.5 -34.5 71.5
s-67.833 28.167 -134.5 39.5c-162.667 27.333 -278.5 65.333 -347.5 114s-103.5 116 -103.5 202c0 92.667 37.333 169 112 229s169 90 283 90c124 0 224.167 -28.5 300.5 -85.5s119.5 -136.167 129.5 -237.5h-219c-23.333 92.667 -90 139 -200 139
c-52 0 -94.833 -10.667 -128.5 -32s-50.5 -48.333 -50.5 -81s15.667 -56.167 47 -70.5s107.333 -32.166 228 -53.499c136.667 -24 228.334 -58.667 275.001 -104c52.667 -49.333 79 -115.666 79 -198.999c0 -94.667 -37.667 -172.834 -113 -234.501
s-171.666 -92.5 -288.999 -92.5h-30z" />
    <glyph glyph-name="scedilla" unicode="&#x15f;" horiz-adv-x="994" 
d="M504 -27l-62.0029 -96.001c30 7.33301 55 11 75 11c48 0 87.833 -13 119.5 -39s47.5 -58.667 47.5 -98c0 -54 -21.667 -97.167 -65 -129.5s-101.333 -48.5 -174 -48.5c-62.667 0 -134 14.667 -214 44l38 82c55.333 -22.667 105 -34 149 -34c66 0 99 24.667 99 74
c0 46.667 -32 70 -96 70c-19.333 0 -41.666 -5.33301 -66.999 -16l-39 39l98 147l-29 5c-198.667 37.333 -307.667 149 -327 335h229c20.667 -108 95 -162 223 -162c56.667 0 102.667 11.167 138 33.5s53 51.5 53 87.5c0 32.667 -11.5 56.5 -34.5 71.5
s-67.833 28.167 -134.5 39.5c-162.667 27.333 -278.5 65.333 -347.5 114s-103.5 116 -103.5 202c0 92.667 37.333 169 112 229s169 90 283 90c124 0 224.167 -28.5 300.5 -85.5s119.5 -136.167 129.5 -237.5h-219c-23.333 92.667 -90 139 -200 139
c-52 0 -94.833 -10.667 -128.5 -32s-50.5 -48.333 -50.5 -81s15.667 -56.167 47 -70.5s107.333 -32.166 228 -53.499c136.667 -24 228.334 -58.667 275.001 -104c52.667 -49.333 79 -115.666 79 -198.999c0 -94.667 -37.667 -172.834 -113 -234.501
s-171.666 -92.5 -288.999 -92.5h-30z" />
    <glyph glyph-name="guillemotright" unicode="&#xbb;" horiz-adv-x="884" 
d="M500 140v222l183 153l-183 159v210l303 -260v-214zM111 140v222l183 153l-183 159v210l303 -260v-214z" />
    <glyph glyph-name="glyph264" unicode="&#xbc;" horiz-adv-x="1127" 
d="M415 215h685v-215h-955v1365h270v-1150zM869 1365v-173.001c0 -177.333 -82.333 -270 -247 -278v103c69.333 20.667 104 62.334 104 125.001h-107v223h250z" />
    <glyph glyph-name="glyph264" unicode="&#x13d;" horiz-adv-x="1127" 
d="M415 215h685v-215h-955v1365h270v-1150zM869 1365v-173.001c0 -177.333 -82.333 -270 -247 -278v103c69.333 20.667 104 62.334 104 125.001h-107v223h250z" />
    <glyph glyph-name="hungarumlaut" unicode="&#xbd;" 
d="M381 1396h232l-182 -249h-143zM710 1396h232l-182 -249h-143z" />
    <glyph glyph-name="hungarumlaut" unicode="&#x2dd;" 
d="M381 1396h232l-182 -249h-143zM710 1396h232l-182 -249h-143z" />
    <glyph glyph-name="glyph284" unicode="&#xbe;" horiz-adv-x="701" 
d="M128 1365h249v-1365h-249v1365zM722 1365v-170c0 -88 -29.667 -152.667 -89 -194c-42 -29.333 -86 -44 -132 -44h-12v92c30.667 2 55.5 13.333 74.5 34s28.5 47 28.5 79h-105v203h235z" />
    <glyph glyph-name="glyph284" unicode="&#x13e;" horiz-adv-x="701" 
d="M128 1365h249v-1365h-249v1365zM722 1365v-170c0 -88 -29.667 -152.667 -89 -194c-42 -29.333 -86 -44 -132 -44h-12v92c30.667 2 55.5 13.333 74.5 34s28.5 47 28.5 79h-105v203h235z" />
    <glyph glyph-name="glyph294" unicode="&#xbf;" horiz-adv-x="952" 
d="M96 997h767v-209l-534 -597h566v-191h-851v198l535 608h-483v191zM365 1379h237v-217h-237v217z" />
    <glyph glyph-name="glyph294" unicode="&#x17c;" horiz-adv-x="952" 
d="M96 997h767v-209l-534 -597h566v-191h-851v198l535 608h-483v191zM365 1379h237v-217h-237v217z" />
    <glyph glyph-name="glyph268" unicode="&#xc0;" horiz-adv-x="1300" 
d="M415 553v-552.999h-270v1365h561c134.667 0 231.334 -11 290.001 -33c69.333 -25.333 124.166 -69 164.499 -131s60.5 -133.667 60.5 -215c0 -88.667 -25 -159.334 -75 -212.001s-133 -95.667 -249 -129c99.333 -11.333 168.833 -39.333 208.5 -84
s63.167 -121.667 70.5 -231l7 -113c6 -96.667 20.333 -169 43 -217h-257c-23.333 42.667 -35 99.667 -35 171c0 176.667 -36.333 289.667 -109 339c-42.667 28.667 -108 43 -196 43h-214zM415 754.001l282.001 0.00195312c83.333 0 147.666 17.167 192.999 51.5
s68 83.166 68 146.499c0 69.333 -20.833 119.666 -62.5 150.999s-108.167 47 -199.5 47h-281v-396zM616.001 1749h273l-203 -249h-163z" />
    <glyph glyph-name="glyph268" unicode="&#x154;" horiz-adv-x="1300" 
d="M415 553v-552.999h-270v1365h561c134.667 0 231.334 -11 290.001 -33c69.333 -25.333 124.166 -69 164.499 -131s60.5 -133.667 60.5 -215c0 -88.667 -25 -159.334 -75 -212.001s-133 -95.667 -249 -129c99.333 -11.333 168.833 -39.333 208.5 -84
s63.167 -121.667 70.5 -231l7 -113c6 -96.667 20.333 -169 43 -217h-257c-23.333 42.667 -35 99.667 -35 171c0 176.667 -36.333 289.667 -109 339c-42.667 28.667 -108 43 -196 43h-214zM415 754.001l282.001 0.00195312c83.333 0 147.666 17.167 192.999 51.5
s68 83.166 68 146.499c0 69.333 -20.833 119.666 -62.5 150.999s-108.167 47 -199.5 47h-281v-396zM616.001 1749h273l-203 -249h-163z" />
    <glyph glyph-name="Aacute" unicode="&#xc1;" horiz-adv-x="1246" 
d="M372 292l-91 -292h-281l480 1365h303l463 -1365h-282l-91 292h-501zM433 490h380l-190 612zM622 1749h273l-203 -249h-163z" />
    <glyph glyph-name="Acircumflex" unicode="&#xc2;" horiz-adv-x="1246" 
d="M372 292l-91 -292h-281l480 1365h303l463 -1365h-282l-91 292h-501zM433 490h380l-190 612zM466 1751h319l154 -249h-210l-106 167l-106 -167h-210z" />
    <glyph glyph-name="glyph258" unicode="&#xc3;" horiz-adv-x="1246" 
d="M372 292l-91 -292h-281l480 1365h303l463 -1365h-282l-91 292h-501zM433 490h380l-190 612zM765 1749h167c0 -46.667 -17 -93 -51 -139c-56.667 -76.667 -142.334 -115 -257.001 -115c-92 0 -166.667 23.5 -224 70.5s-86 108.167 -86 183.5h167
c14.667 -69.333 63.334 -104 146.001 -104c72 0 118 34.667 138 104z" />
    <glyph glyph-name="glyph258" unicode="&#x102;" horiz-adv-x="1246" 
d="M372 292l-91 -292h-281l480 1365h303l463 -1365h-282l-91 292h-501zM433 490h380l-190 612zM765 1749h167c0 -46.667 -17 -93 -51 -139c-56.667 -76.667 -142.334 -115 -257.001 -115c-92 0 -166.667 23.5 -224 70.5s-86 108.167 -86 183.5h167
c14.667 -69.333 63.334 -104 146.001 -104c72 0 118 34.667 138 104z" />
    <glyph glyph-name="Adieresis" unicode="&#xc4;" horiz-adv-x="1246" 
d="M372 292l-91 -292h-281l480 1365h303l463 -1365h-282l-91 292h-501zM433 490h380l-190 612zM286 1739h237v-217h-237v217zM723 1739h237v-217h-237v217z" />
    <glyph glyph-name="glyph263" unicode="&#xc5;" horiz-adv-x="1127" 
d="M415 215h685v-215h-955v1365h270v-1150zM273 1749h273l-202 -249h-164z" />
    <glyph glyph-name="glyph263" unicode="&#x139;" horiz-adv-x="1127" 
d="M415 215h685v-215h-955v1365h270v-1150zM273 1749h273l-202 -249h-164z" />
    <glyph glyph-name="Cacute" unicode="&#xc6;" horiz-adv-x="1401" 
d="M1083 449l263.001 -0.00195312c-16 -145.333 -78 -261.166 -186 -347.499s-244.667 -129.5 -410 -129.5c-206 0 -370 72 -492 216c-112.667 134 -169 294.333 -169 481c0 214.667 60.833 388.834 182.5 522.501s280.5 200.5 476.5 200.5
c162.667 0 295.167 -40 397.5 -120s169.166 -195.667 200.499 -347h-269c-38 161.333 -144 242 -318 242c-116 0 -211.667 -45.667 -287 -137s-113 -207.333 -113 -348c0 -142.667 38 -259 114 -349s174.333 -135 295 -135c167.333 0 272.333 83.667 315 251zM737.001 1749
h273l-203 -249h-163z" />
    <glyph glyph-name="Cacute" unicode="&#x106;" horiz-adv-x="1401" 
d="M1083 449l263.001 -0.00195312c-16 -145.333 -78 -261.166 -186 -347.499s-244.667 -129.5 -410 -129.5c-206 0 -370 72 -492 216c-112.667 134 -169 294.333 -169 481c0 214.667 60.833 388.834 182.5 522.501s280.5 200.5 476.5 200.5
c162.667 0 295.167 -40 397.5 -120s169.166 -195.667 200.499 -347h-269c-38 161.333 -144 242 -318 242c-116 0 -211.667 -45.667 -287 -137s-113 -207.333 -113 -348c0 -142.667 38 -259 114 -349s174.333 -135 295 -135c167.333 0 272.333 83.667 315 251zM737.001 1749
h273l-203 -249h-163z" />
    <glyph glyph-name="Ccedilla" unicode="&#xc7;" horiz-adv-x="1401" 
d="M762 -27l-60.999 -96.0039c29.333 6.66699 54 10 74 10c48.667 0 88.667 -12.833 120 -38.5s47 -58.5 47 -98.5c0 -53.333 -21.667 -96.166 -65 -128.499s-101 -48.5 -173 -48.5c-62.667 0 -134 14.667 -214 44l38 82c54.667 -22.667 104 -34 148 -34
c66 0 99 24.333 99 73c0 46.667 -32 70 -96 70c-18.667 0 -40.667 -5 -66 -15l-40 39l95 143c-118 12.667 -218 49.334 -300 110.001c-88 65.333 -156.5 149.333 -205.5 252s-73.5 213.334 -73.5 332.001c0 214.667 60.833 388.834 182.5 522.501s280.5 200.5 476.5 200.5
c162.667 0 295.167 -40 397.5 -120s169.166 -195.667 200.499 -347h-269c-38 161.333 -144 242 -318 242c-116 0 -211.667 -45.667 -287 -137s-113 -207.333 -113 -348c0 -142.667 38 -259 114 -349s174.333 -135 295 -135c167.333 0 272.333 83.667 315 251h263
c-16 -142.667 -77.5 -257.667 -184.5 -345s-240.167 -131 -399.5 -131z" />
    <glyph glyph-name="Ccaron" unicode="&#xc8;" horiz-adv-x="1401" 
d="M1083 449l263.001 -0.00195312c-16 -145.333 -78 -261.166 -186 -347.499s-244.667 -129.5 -410 -129.5c-206 0 -370 72 -492 216c-112.667 134 -169 294.333 -169 481c0 214.667 60.833 388.834 182.5 522.501s280.5 200.5 476.5 200.5
c162.667 0 295.167 -40 397.5 -120s169.166 -195.667 200.499 -347h-269c-38 161.333 -144 242 -318 242c-116 0 -211.667 -45.667 -287 -137s-113 -207.333 -113 -348c0 -142.667 38 -259 114 -349s174.333 -135 295 -135c167.333 0 272.333 83.667 315 251zM602.001 1502
l-160 249h211l105 -167l106 167h211l-154 -249h-319z" />
    <glyph glyph-name="Ccaron" unicode="&#x10c;" horiz-adv-x="1401" 
d="M1083 449l263.001 -0.00195312c-16 -145.333 -78 -261.166 -186 -347.499s-244.667 -129.5 -410 -129.5c-206 0 -370 72 -492 216c-112.667 134 -169 294.333 -169 481c0 214.667 60.833 388.834 182.5 522.501s280.5 200.5 476.5 200.5
c162.667 0 295.167 -40 397.5 -120s169.166 -195.667 200.499 -347h-269c-38 161.333 -144 242 -318 242c-116 0 -211.667 -45.667 -287 -137s-113 -207.333 -113 -348c0 -142.667 38 -259 114 -349s174.333 -135 295 -135c167.333 0 272.333 83.667 315 251zM602.001 1502
l-160 249h211l105 -167l106 167h211l-154 -249h-319z" />
    <glyph glyph-name="Eacute" unicode="&#xc9;" horiz-adv-x="1246" 
d="M145 0v1365h1006v-215h-736v-322h644v-215h-644v-398h750v-215h-1020zM627 1749h272l-202 -249h-164z" />
    <glyph glyph-name="glyph262" unicode="&#xca;" horiz-adv-x="1246" 
d="M1165 0c-98 -50.667 -147 -103.667 -147 -159c0 -24.667 10 -46.167 30 -64.5s44 -27.5 72 -27.5c32 0 62.667 6.66699 92 20v-128c-44 -17.333 -85 -26 -123 -26c-66.667 0 -120.667 16.833 -162 50.5s-62 77.167 -62 130.5c0 78 53.333 146 160 204h-880v1365h1006
v-215h-736v-322h644v-215h-644v-398h750v-215z" />
    <glyph glyph-name="glyph262" unicode="&#x118;" horiz-adv-x="1246" 
d="M1165 0c-98 -50.667 -147 -103.667 -147 -159c0 -24.667 10 -46.167 30 -64.5s44 -27.5 72 -27.5c32 0 62.667 6.66699 92 20v-128c-44 -17.333 -85 -26 -123 -26c-66.667 0 -120.667 16.833 -162 50.5s-62 77.167 -62 130.5c0 78 53.333 146 160 204h-880v1365h1006
v-215h-736v-322h644v-215h-644v-398h750v-215z" />
    <glyph glyph-name="Edieresis" unicode="&#xcb;" horiz-adv-x="1246" 
d="M145 0v1365h1006v-215h-736v-322h644v-215h-644v-398h750v-215h-1020zM310 1739h237v-217h-237v217zM747 1739h237v-217h-237v217z" />
    <glyph glyph-name="glyph261" unicode="&#xcc;" horiz-adv-x="1246" 
d="M145 0v1365h1006v-215h-736v-322h644v-215h-644v-398h750v-215h-1020zM492 1502l-160 249h210l106 -167l106 167h210l-154 -249h-318z" />
    <glyph glyph-name="glyph261" unicode="&#x11a;" horiz-adv-x="1246" 
d="M145 0v1365h1006v-215h-736v-322h644v-215h-644v-398h750v-215h-1020zM492 1502l-160 249h210l106 -167l106 167h210l-154 -249h-318z" />
    <glyph glyph-name="Iacute" unicode="&#xcd;" horiz-adv-x="559" 
d="M145 1365h270v-1365h-270v1365zM272 1749h273l-203 -249h-163z" />
    <glyph glyph-name="Icircumflex" unicode="&#xce;" horiz-adv-x="559" 
d="M144 1365h270v-1365h-270v1365zM123 1751h318l144 -249h-210l-96 167l-95 -167h-211z" />
    <glyph glyph-name="glyph260" unicode="&#xcf;" horiz-adv-x="1389" 
d="M145 0v1365h494c112 0 201.333 -10.5 268 -31.5s129 -58.833 187 -113.5c138 -128.667 207 -316.667 207 -564c0 -102.667 -16.667 -200 -50 -292s-78.333 -165.667 -135 -221c-99.333 -95.333 -251 -143 -455 -143h-516zM415 215h256c240 0 360 146 360 438
c0 331.333 -139.333 497 -418 497h-198v-935zM477 1502l-159 249h210l106 -167l106 167h210l-154 -249h-319z" />
    <glyph glyph-name="glyph260" unicode="&#x10e;" horiz-adv-x="1389" 
d="M145 0v1365h494c112 0 201.333 -10.5 268 -31.5s129 -58.833 187 -113.5c138 -128.667 207 -316.667 207 -564c0 -102.667 -16.667 -200 -50 -292s-78.333 -165.667 -135 -221c-99.333 -95.333 -251 -143 -455 -143h-516zM415 215h256c240 0 360 146 360 438
c0 331.333 -139.333 497 -418 497h-198v-935zM477 1502l-159 249h210l106 -167l106 167h210l-154 -249h-319z" />
    <glyph glyph-name="Eth" unicode="&#xd0;" horiz-adv-x="1389" 
d="M145 609h-137.001v205h137v551h494c112 0 201.167 -10.5 267.5 -31.5s128.5 -58.833 186.5 -113.5c138 -128.667 207 -316.667 207 -564c0 -102.667 -16.667 -200 -50 -292s-78.333 -165.667 -135 -221c-99.333 -95.333 -250.666 -143 -453.999 -143h-516v609z
M414.999 609v-394h256c239.333 0 359 146 359 438c0 331.333 -139.333 497 -418 497h-197v-336h279v-205h-279z" />
    <glyph glyph-name="Eth" unicode="&#x110;" horiz-adv-x="1389" 
d="M145 609h-137.001v205h137v551h494c112 0 201.167 -10.5 267.5 -31.5s128.5 -58.833 186.5 -113.5c138 -128.667 207 -316.667 207 -564c0 -102.667 -16.667 -200 -50 -292s-78.333 -165.667 -135 -221c-99.333 -95.333 -250.666 -143 -453.999 -143h-516v609z
M414.999 609v-394h256c239.333 0 359 146 359 438c0 331.333 -139.333 497 -418 497h-197v-336h279v-205h-279z" />
    <glyph glyph-name="glyph265" unicode="&#xd1;" horiz-adv-x="1423" 
d="M145 1365h288l576 -953v953h270v-1365h-280l-584 970v-970h-270v1365zM690 1749h273l-202 -249h-164z" />
    <glyph glyph-name="glyph265" unicode="&#x143;" horiz-adv-x="1423" 
d="M145 1365h288l576 -953v953h270v-1365h-280l-584 970v-970h-270v1365zM690 1749h273l-202 -249h-164z" />
    <glyph glyph-name="glyph266" unicode="&#xd2;" horiz-adv-x="1423" 
d="M145 1365h288l576 -953v953h270v-1365h-280l-584 970v-970h-270v1365zM555 1502l-159 249h210l106 -167l106 167h210l-154 -249h-319z" />
    <glyph glyph-name="glyph266" unicode="&#x147;" horiz-adv-x="1423" 
d="M145 1365h288l576 -953v953h270v-1365h-280l-584 970v-970h-270v1365zM555 1502l-159 249h210l106 -167l106 167h210l-154 -249h-319z" />
    <glyph glyph-name="Oacute" unicode="&#xd3;" horiz-adv-x="1483" 
d="M742 1392c190.667 0 347 -66.335 469 -199.002s183 -302.667 183 -510c0 -208 -61 -378.333 -183 -511s-278.333 -199 -469 -199c-193.333 0 -350.5 66.833 -471.5 200.5s-181.5 306.834 -181.5 519.501c0 202.667 61.5 369.834 184.5 501.501s279.167 197.5 468.5 197.5
zM741 1167c-114.667 0 -207 -44.333 -277 -133s-105 -205.667 -105 -351c0 -146 35 -263.333 105 -352s162.333 -133 277 -133c115.333 0 208 44.333 278 133s105 206 105 352c0 145.333 -35 262.333 -105 351s-162.667 133 -278 133zM727 1749h273l-203 -249h-163z" />
    <glyph glyph-name="Ocircumflex" unicode="&#xd4;" horiz-adv-x="1483" 
d="M742 1392c190.667 0 347 -66.335 469 -199.002s183 -302.667 183 -510c0 -208 -61 -378.333 -183 -511s-278.333 -199 -469 -199c-193.333 0 -350.5 66.833 -471.5 200.5s-181.5 306.834 -181.5 519.501c0 202.667 61.5 369.834 184.5 501.501s279.167 197.5 468.5 197.5
zM741 1167c-114.667 0 -207 -44.333 -277 -133s-105 -205.667 -105 -351c0 -146 35 -263.333 105 -352s162.333 -133 277 -133c115.333 0 208 44.333 278 133s105 206 105 352c0 145.333 -35 262.333 -105 351s-162.667 133 -278 133zM585 1751h319l154 -249h-211l-106 167
l-105 -167h-211z" />
    <glyph glyph-name="glyph267" unicode="&#xd5;" horiz-adv-x="1483" 
d="M742 1392c190.667 0 347 -66.335 469 -199.002s183 -302.667 183 -510c0 -208 -61 -378.333 -183 -511s-278.333 -199 -469 -199c-193.333 0 -350.5 66.833 -471.5 200.5s-181.5 306.834 -181.5 519.501c0 202.667 61.5 369.834 184.5 501.501s279.167 197.5 468.5 197.5
zM741 1167c-114.667 0 -207 -44.333 -277 -133s-105 -205.667 -105 -351c0 -146 35 -263.333 105 -352s162.333 -133 277 -133c115.333 0 208 44.333 278 133s105 206 105 352c0 145.333 -35 262.333 -105 351s-162.667 133 -278 133zM597 1749h232l-182 -249h-143z
M926 1749h231l-182 -249h-143z" />
    <glyph glyph-name="glyph267" unicode="&#x150;" horiz-adv-x="1483" 
d="M742 1392c190.667 0 347 -66.335 469 -199.002s183 -302.667 183 -510c0 -208 -61 -378.333 -183 -511s-278.333 -199 -469 -199c-193.333 0 -350.5 66.833 -471.5 200.5s-181.5 306.834 -181.5 519.501c0 202.667 61.5 369.834 184.5 501.501s279.167 197.5 468.5 197.5
zM741 1167c-114.667 0 -207 -44.333 -277 -133s-105 -205.667 -105 -351c0 -146 35 -263.333 105 -352s162.333 -133 277 -133c115.333 0 208 44.333 278 133s105 206 105 352c0 145.333 -35 262.333 -105 351s-162.667 133 -278 133zM597 1749h232l-182 -249h-143z
M926 1749h231l-182 -249h-143z" />
    <glyph glyph-name="Odieresis" unicode="&#xd6;" horiz-adv-x="1483" 
d="M742 1392c190.667 0 347 -66.335 469 -199.002s183 -302.667 183 -510c0 -208 -61 -378.333 -183 -511s-278.333 -199 -469 -199c-193.333 0 -350.5 66.833 -471.5 200.5s-181.5 306.834 -181.5 519.501c0 202.667 61.5 369.834 184.5 501.501s279.167 197.5 468.5 197.5
zM741 1167c-114.667 0 -207 -44.333 -277 -133s-105 -205.667 -105 -351c0 -146 35 -263.333 105 -352s162.333 -133 277 -133c115.333 0 208 44.333 278 133s105 206 105 352c0 145.333 -35 262.333 -105 351s-162.667 133 -278 133zM405 1739h237v-217h-237v217zM842 1739
h237v-217h-237v217z" />
    <glyph glyph-name="multiply" unicode="&#xd7;" horiz-adv-x="1270" 
d="M179 377l322 323l-335 336l136 136l336 -336l322 323l131 -130l-323 -323l335 -335l-136 -137l-335 336l-323 -323z" />
    <glyph glyph-name="glyph269" unicode="&#xd8;" horiz-adv-x="1300" 
d="M415 553v-552.999h-270v1365h561c134.667 0 231.334 -11 290.001 -33c69.333 -25.333 124.166 -69 164.499 -131s60.5 -133.667 60.5 -215c0 -88.667 -25 -159.334 -75 -212.001s-133 -95.667 -249 -129c99.333 -11.333 168.833 -39.333 208.5 -84
s63.167 -121.667 70.5 -231l7 -113c6 -96.667 20.333 -169 43 -217h-257c-23.333 42.667 -35 99.667 -35 171c0 176.667 -36.333 289.667 -109 339c-42.667 28.667 -108 43 -196 43h-214zM415 754.001l282.001 0.00195312c83.333 0 147.666 17.167 192.999 51.5
s68 83.166 68 146.499c0 69.333 -20.833 119.666 -62.5 150.999s-108.167 47 -199.5 47h-281v-396zM481.001 1502l-160 249h211l105 -167l106 167h211l-154 -249h-319z" />
    <glyph glyph-name="glyph269" unicode="&#x158;" horiz-adv-x="1300" 
d="M415 553v-552.999h-270v1365h561c134.667 0 231.334 -11 290.001 -33c69.333 -25.333 124.166 -69 164.499 -131s60.5 -133.667 60.5 -215c0 -88.667 -25 -159.334 -75 -212.001s-133 -95.667 -249 -129c99.333 -11.333 168.833 -39.333 208.5 -84
s63.167 -121.667 70.5 -231l7 -113c6 -96.667 20.333 -169 43 -217h-257c-23.333 42.667 -35 99.667 -35 171c0 176.667 -36.333 289.667 -109 339c-42.667 28.667 -108 43 -196 43h-214zM415 754.001l282.001 0.00195312c83.333 0 147.666 17.167 192.999 51.5
s68 83.166 68 146.499c0 69.333 -20.833 119.666 -62.5 150.999s-108.167 47 -199.5 47h-281v-396zM481.001 1502l-160 249h211l105 -167l106 167h211l-154 -249h-319z" />
    <glyph glyph-name="glyph272" unicode="&#xd9;" horiz-adv-x="1354" 
d="M953 1365h269.997v-776c0 -114 -3.66699 -196.333 -11 -247s-22.666 -97 -45.999 -139c-84 -153.333 -247 -230 -489 -230s-405 76.667 -489 230c-23.333 42 -38.666 88.333 -45.999 139s-11 133 -11 247v776h270v-754c0 -147.333 11 -243.666 33 -288.999
c39.333 -82.667 120.333 -124 243 -124c56.667 0 106.834 11.167 150.501 33.5s74.5 52.5 92.5 90.5c22 45.333 33 141.666 33 288.999v754zM675.997 1832c56 0 103.332 -19.5 141.999 -58.5s58 -86.833 58 -143.5c0 -54 -19.5 -100.167 -58.5 -138.5
s-86.167 -57.5 -141.5 -57.5c-54 0 -100.5 19.5 -139.5 58.5s-58.5 85.5 -58.5 139.5c0 55.333 19.333 102.5 58 141.5s85.334 58.5 140.001 58.5zM675.996 1723c-24 0 -44.499 -8.83301 -61.499 -26.5s-25.5 -39.5 -25.5 -65.5c0 -23.333 8.66699 -43.833 26 -61.5
s37.666 -26.5 60.999 -26.5c24.667 0 45.667 8.66699 63 26s26 38.333 26 63c0 25.333 -8.5 46.833 -25.5 64.5s-38.167 26.5 -63.5 26.5z" />
    <glyph glyph-name="glyph272" unicode="&#x16e;" horiz-adv-x="1354" 
d="M953 1365h269.997v-776c0 -114 -3.66699 -196.333 -11 -247s-22.666 -97 -45.999 -139c-84 -153.333 -247 -230 -489 -230s-405 76.667 -489 230c-23.333 42 -38.666 88.333 -45.999 139s-11 133 -11 247v776h270v-754c0 -147.333 11 -243.666 33 -288.999
c39.333 -82.667 120.333 -124 243 -124c56.667 0 106.834 11.167 150.501 33.5s74.5 52.5 92.5 90.5c22 45.333 33 141.666 33 288.999v754zM675.997 1832c56 0 103.332 -19.5 141.999 -58.5s58 -86.833 58 -143.5c0 -54 -19.5 -100.167 -58.5 -138.5
s-86.167 -57.5 -141.5 -57.5c-54 0 -100.5 19.5 -139.5 58.5s-58.5 85.5 -58.5 139.5c0 55.333 19.333 102.5 58 141.5s85.334 58.5 140.001 58.5zM675.996 1723c-24 0 -44.499 -8.83301 -61.499 -26.5s-25.5 -39.5 -25.5 -65.5c0 -23.333 8.66699 -43.833 26 -61.5
s37.666 -26.5 60.999 -26.5c24.667 0 45.667 8.66699 63 26s26 38.333 26 63c0 25.333 -8.5 46.833 -25.5 64.5s-38.167 26.5 -63.5 26.5z" />
    <glyph glyph-name="Uacute" unicode="&#xda;" horiz-adv-x="1354" 
d="M953 1365h269.997v-776c0 -114 -3.66699 -196.333 -11 -247s-22.666 -97 -45.999 -139c-84 -153.333 -247 -230 -489 -230s-405 76.667 -489 230c-23.333 42 -38.666 88.333 -45.999 139s-11 133 -11 247v776h270v-754c0 -147.333 11 -243.666 33 -288.999
c39.333 -82.667 120.333 -124 243 -124c56.667 0 106.834 11.167 150.501 33.5s74.5 52.5 92.5 90.5c22 45.333 33 141.666 33 288.999v754zM655.997 1749h272l-202 -249h-164z" />
    <glyph glyph-name="glyph273" unicode="&#xdb;" horiz-adv-x="1354" 
d="M953 1365h269.997v-776c0 -114 -3.66699 -196.333 -11 -247s-22.666 -97 -45.999 -139c-84 -153.333 -247 -230 -489 -230s-405 76.667 -489 230c-23.333 42 -38.666 88.333 -45.999 139s-11 133 -11 247v776h270v-754c0 -147.333 11 -243.666 33 -288.999
c39.333 -82.667 120.333 -124 243 -124c56.667 0 106.834 11.167 150.501 33.5s74.5 52.5 92.5 90.5c22 45.333 33 141.666 33 288.999v754zM525.997 1749h231l-182 -249h-143zM853.997 1749h232l-182 -249h-143z" />
    <glyph glyph-name="glyph273" unicode="&#x170;" horiz-adv-x="1354" 
d="M953 1365h269.997v-776c0 -114 -3.66699 -196.333 -11 -247s-22.666 -97 -45.999 -139c-84 -153.333 -247 -230 -489 -230s-405 76.667 -489 230c-23.333 42 -38.666 88.333 -45.999 139s-11 133 -11 247v776h270v-754c0 -147.333 11 -243.666 33 -288.999
c39.333 -82.667 120.333 -124 243 -124c56.667 0 106.834 11.167 150.501 33.5s74.5 52.5 92.5 90.5c22 45.333 33 141.666 33 288.999v754zM525.997 1749h231l-182 -249h-143zM853.997 1749h232l-182 -249h-143z" />
    <glyph glyph-name="Udieresis" unicode="&#xdc;" horiz-adv-x="1354" 
d="M953 1365h269.997v-776c0 -114 -3.66699 -196.333 -11 -247s-22.666 -97 -45.999 -139c-84 -153.333 -247 -230 -489 -230s-405 76.667 -489 230c-23.333 42 -38.666 88.333 -45.999 139s-11 133 -11 247v776h270v-754c0 -147.333 11 -243.666 33 -288.999
c39.333 -82.667 120.333 -124 243 -124c56.667 0 106.834 11.167 150.501 33.5s74.5 52.5 92.5 90.5c22 45.333 33 141.666 33 288.999v754zM339.997 1739h237v-217h-237v217zM776.997 1739h237v-217h-237v217z" />
    <glyph glyph-name="Yacute" unicode="&#xdd;" horiz-adv-x="1136" 
d="M-14 1365h289l293 -584l293 584h289l-447 -844v-521h-270v521zM553 1749h273l-203 -249h-163z" />
    <glyph glyph-name="glyph276" unicode="&#xde;" horiz-adv-x="1185" 
d="M728 1150v-1150h-270v1150h-431v215h1131v-215h-430zM717 -109v-158.999c0 -84.667 -20.333 -147.667 -61 -189s-102.667 -62 -186 -62v95c70.667 13.333 106 53.666 106 120.999h-109v194h250z" />
    <glyph glyph-name="glyph276" unicode="&#x162;" horiz-adv-x="1185" 
d="M728 1150v-1150h-270v1150h-431v215h1131v-215h-430zM717 -109v-158.999c0 -84.667 -20.333 -147.667 -61 -189s-102.667 -62 -186 -62v95c70.667 13.333 106 53.666 106 120.999h-109v194h250z" />
    <glyph glyph-name="germandbls" unicode="&#xdf;" horiz-adv-x="1155" 
d="M128 0v892.003c0 98 5.33301 171.333 16 220s31 92 61 130c79.333 100 199.666 150 360.999 150c129.333 0 234.5 -32.333 315.5 -97s121.5 -148.334 121.5 -251.001c0 -113.333 -67 -201.333 -201 -264c83.333 -19.333 149.833 -60.833 199.5 -124.5
s74.5 -138.834 74.5 -225.501c0 -128.667 -42.667 -235.834 -128 -321.501s-192 -128.5 -320 -128.5c-29.333 0 -71 3.33301 -125 10v170c22 -1.33301 37.667 -2 47 -2c86.667 0 153.167 23.667 199.5 71s69.5 115.333 69.5 204c0 180 -90 270 -270 270
c-10 0 -25.333 -0.333008 -46 -1v149h26c72.667 0 128.834 15.5 168.501 46.5s59.5 75.167 59.5 132.5c0 49.333 -18 90.166 -54 122.499s-81.667 48.5 -137 48.5c-74 0 -127.333 -28.333 -160 -85c-19.333 -33.333 -29 -90.666 -29 -171.999v-32v-912h-249z" />
    <glyph glyph-name="glyph288" unicode="&#xe0;" horiz-adv-x="724" 
d="M128 997h248.998v-138c66.667 106 149.334 159 248.001 159c16 0 37.667 -1.66699 65 -5v-214l-40 1c-85.333 0 -152.166 -26 -200.499 -78s-72.5 -123.667 -72.5 -215v-507h-249v997zM387.998 1396h273l-203 -249h-163z" />
    <glyph glyph-name="glyph288" unicode="&#x155;" horiz-adv-x="724" 
d="M128 997h248.998v-138c66.667 106 149.334 159 248.001 159c16 0 37.667 -1.66699 65 -5v-214l-40 1c-85.333 0 -152.166 -26 -200.499 -78s-72.5 -123.667 -72.5 -215v-507h-249v997zM387.998 1396h273l-203 -249h-163z" />
    <glyph glyph-name="aacute" unicode="&#xe1;" horiz-adv-x="1124" 
d="M373 701l-234.997 -0.000976562c15.333 112.667 57.666 194.667 126.999 246s172 77 308 77c132.667 0 235 -24.667 307 -74c44.667 -31.333 76.5 -71.333 95.5 -120s28.5 -115.334 28.5 -200.001v-420c0 -92.667 11.333 -162.667 34 -210h-243l-27 93
c-102.667 -80 -209.334 -120 -320.001 -120c-100.667 0 -187.334 29.667 -260.001 89s-109 129.666 -109 210.999c0 100 41.5 177.667 124.5 233s213.5 93.333 391.5 114c58 6.66699 98.5 17.334 121.5 32.001s34.5 37.334 34.5 68.001c0 38.667 -17 69.834 -51 93.501
s-78.667 35.5 -134 35.5c-57.333 0 -102.833 -13 -136.5 -39s-52.5 -62.333 -56.5 -109zM761.003 523.999c-38.667 -24 -91 -43.999 -157 -59.999c-105.333 -25.333 -176.5 -49.833 -213.5 -73.5s-55.5 -56.5 -55.5 -98.5c0 -36.667 16 -66 48 -88s74 -33 126 -33
c68.667 0 127 16 175 48c29.333 19.333 49.5 41.166 60.5 65.499s16.5 58.833 16.5 103.5v136zM558.003 1396h272l-202 -249h-164z" />
    <glyph glyph-name="acircumflex" unicode="&#xe2;" horiz-adv-x="1124" 
d="M373 701l-234.997 -0.000976562c15.333 112.667 57.666 194.667 126.999 246s172 77 308 77c132.667 0 235 -24.667 307 -74c44.667 -31.333 76.5 -71.333 95.5 -120s28.5 -115.334 28.5 -200.001v-420c0 -92.667 11.333 -162.667 34 -210h-243l-27 93
c-102.667 -80 -209.334 -120 -320.001 -120c-100.667 0 -187.334 29.667 -260.001 89s-109 129.666 -109 210.999c0 100 41.5 177.667 124.5 233s213.5 93.333 391.5 114c58 6.66699 98.5 17.334 121.5 32.001s34.5 37.334 34.5 68.001c0 38.667 -17 69.834 -51 93.501
s-78.667 35.5 -134 35.5c-57.333 0 -102.833 -13 -136.5 -39s-52.5 -62.333 -56.5 -109zM761.003 523.999c-38.667 -24 -91 -43.999 -157 -59.999c-105.333 -25.333 -176.5 -49.833 -213.5 -73.5s-55.5 -56.5 -55.5 -98.5c0 -36.667 16 -66 48 -88s74 -33 126 -33
c68.667 0 127 16 175 48c29.333 19.333 49.5 41.166 60.5 65.499s16.5 58.833 16.5 103.5v136zM416.003 1396h318l155 -249h-211l-106 167l-106 -167h-210z" />
    <glyph glyph-name="glyph278" unicode="&#xe3;" horiz-adv-x="1124" 
d="M373 701l-234.997 -0.000976562c15.333 112.667 57.666 194.667 126.999 246s172 77 308 77c132.667 0 235 -24.667 307 -74c44.667 -31.333 76.5 -71.333 95.5 -120s28.5 -115.334 28.5 -200.001v-420c0 -92.667 11.333 -162.667 34 -210h-243l-27 93
c-102.667 -80 -209.334 -120 -320.001 -120c-100.667 0 -187.334 29.667 -260.001 89s-109 129.666 -109 210.999c0 100 41.5 177.667 124.5 233s213.5 93.333 391.5 114c58 6.66699 98.5 17.334 121.5 32.001s34.5 37.334 34.5 68.001c0 38.667 -17 69.834 -51 93.501
s-78.667 35.5 -134 35.5c-57.333 0 -102.833 -13 -136.5 -39s-52.5 -62.333 -56.5 -109zM761.003 523.999c-38.667 -24 -91 -43.999 -157 -59.999c-105.333 -25.333 -176.5 -49.833 -213.5 -73.5s-55.5 -56.5 -55.5 -98.5c0 -36.667 16 -66 48 -88s74 -33 126 -33
c68.667 0 127 16 175 48c29.333 19.333 49.5 41.166 60.5 65.499s16.5 58.833 16.5 103.5v136zM714.003 1394l167 -0.000976562c-2 -57.333 -23.333 -109.666 -64 -156.999c-56 -65.333 -137.333 -98 -244 -98c-92 0 -166.667 23.5 -224 70.5s-86 108.5 -86 184.5h167
c14.667 -70 63.667 -105 147 -105c72 0 117.667 35 137 105z" />
    <glyph glyph-name="glyph278" unicode="&#x103;" horiz-adv-x="1124" 
d="M373 701l-234.997 -0.000976562c15.333 112.667 57.666 194.667 126.999 246s172 77 308 77c132.667 0 235 -24.667 307 -74c44.667 -31.333 76.5 -71.333 95.5 -120s28.5 -115.334 28.5 -200.001v-420c0 -92.667 11.333 -162.667 34 -210h-243l-27 93
c-102.667 -80 -209.334 -120 -320.001 -120c-100.667 0 -187.334 29.667 -260.001 89s-109 129.666 -109 210.999c0 100 41.5 177.667 124.5 233s213.5 93.333 391.5 114c58 6.66699 98.5 17.334 121.5 32.001s34.5 37.334 34.5 68.001c0 38.667 -17 69.834 -51 93.501
s-78.667 35.5 -134 35.5c-57.333 0 -102.833 -13 -136.5 -39s-52.5 -62.333 -56.5 -109zM761.003 523.999c-38.667 -24 -91 -43.999 -157 -59.999c-105.333 -25.333 -176.5 -49.833 -213.5 -73.5s-55.5 -56.5 -55.5 -98.5c0 -36.667 16 -66 48 -88s74 -33 126 -33
c68.667 0 127 16 175 48c29.333 19.333 49.5 41.166 60.5 65.499s16.5 58.833 16.5 103.5v136zM714.003 1394l167 -0.000976562c-2 -57.333 -23.333 -109.666 -64 -156.999c-56 -65.333 -137.333 -98 -244 -98c-92 0 -166.667 23.5 -224 70.5s-86 108.5 -86 184.5h167
c14.667 -70 63.667 -105 147 -105c72 0 117.667 35 137 105z" />
    <glyph glyph-name="adieresis" unicode="&#xe4;" horiz-adv-x="1124" 
d="M373 701l-234.997 -0.000976562c15.333 112.667 57.666 194.667 126.999 246s172 77 308 77c132.667 0 235 -24.667 307 -74c44.667 -31.333 76.5 -71.333 95.5 -120s28.5 -115.334 28.5 -200.001v-420c0 -92.667 11.333 -162.667 34 -210h-243l-27 93
c-102.667 -80 -209.334 -120 -320.001 -120c-100.667 0 -187.334 29.667 -260.001 89s-109 129.666 -109 210.999c0 100 41.5 177.667 124.5 233s213.5 93.333 391.5 114c58 6.66699 98.5 17.334 121.5 32.001s34.5 37.334 34.5 68.001c0 38.667 -17 69.834 -51 93.501
s-78.667 35.5 -134 35.5c-57.333 0 -102.833 -13 -136.5 -39s-52.5 -62.333 -56.5 -109zM761.003 523.999c-38.667 -24 -91 -43.999 -157 -59.999c-105.333 -25.333 -176.5 -49.833 -213.5 -73.5s-55.5 -56.5 -55.5 -98.5c0 -36.667 16 -66 48 -88s74 -33 126 -33
c68.667 0 127 16 175 48c29.333 19.333 49.5 41.166 60.5 65.499s16.5 58.833 16.5 103.5v136zM252.003 1379h237v-217h-237v217zM655.003 1379h237v-217h-237v217z" />
    <glyph glyph-name="glyph283" unicode="&#xe5;" horiz-adv-x="506" 
d="M128 1365h249v-1365h-249v1365zM245 1749h272l-202 -249h-164z" />
    <glyph glyph-name="glyph283" unicode="&#x13a;" horiz-adv-x="506" 
d="M128 1365h249v-1365h-249v1365zM245 1749h272l-202 -249h-164z" />
    <glyph glyph-name="cacute" unicode="&#xe6;" horiz-adv-x="1090" 
d="M786 352h238.999c-16.667 -117.333 -65.5 -209.833 -146.5 -277.5s-183.5 -101.5 -307.5 -101.5c-143.333 0 -261.166 49 -353.499 147s-138.5 223.333 -138.5 376c0 153.333 46 279.833 138 379.5s208.667 149.5 350 149.5c116.667 0 213.5 -31.5 290.5 -94.5
s129.5 -153.167 157.5 -270.5h-244c-31.333 111.333 -99 167 -203 167c-69.333 0 -125.5 -30.667 -168.5 -92s-64.5 -141.333 -64.5 -240c0 -100 21.333 -179 64 -237s101 -87 175 -87c115.333 0 186 60.333 212 181zM557.999 1396h273l-203 -249h-163z" />
    <glyph glyph-name="cacute" unicode="&#x107;" horiz-adv-x="1090" 
d="M786 352h238.999c-16.667 -117.333 -65.5 -209.833 -146.5 -277.5s-183.5 -101.5 -307.5 -101.5c-143.333 0 -261.166 49 -353.499 147s-138.5 223.333 -138.5 376c0 153.333 46 279.833 138 379.5s208.667 149.5 350 149.5c116.667 0 213.5 -31.5 290.5 -94.5
s129.5 -153.167 157.5 -270.5h-244c-31.333 111.333 -99 167 -203 167c-69.333 0 -125.5 -30.667 -168.5 -92s-64.5 -141.333 -64.5 -240c0 -100 21.333 -179 64 -237s101 -87 175 -87c115.333 0 186 60.333 212 181zM557.999 1396h273l-203 -249h-163z" />
    <glyph glyph-name="ccedilla" unicode="&#xe7;" horiz-adv-x="1090" 
d="M580 -27l-62 -96c30 6.66699 55 10 75 10c48.667 0 88.667 -12.833 120 -38.5s47 -58.5 47 -98.5c0 -54 -21.667 -97 -65 -129s-101.333 -48 -174 -48c-62.667 0 -133.667 14.667 -213 44l37 82c55.333 -22.667 105 -34 149 -34c66 0 99 24.333 99 73
c0 46.667 -32 70 -96 70c-18.667 0 -40.667 -5 -66 -15l-40 39l96 146c-96 22 -172 56 -228 102c-120 96.667 -180 235 -180 415c0 154 46 280.833 138 380.5s208.667 149.5 350 149.5c116.667 0 213.5 -31.5 290.5 -94.5s129.5 -153.167 157.5 -270.5h-244
c-31.333 111.333 -99 167 -203 167c-69.333 0 -125.5 -30.667 -168.5 -92s-64.5 -141.333 -64.5 -240c0 -100 21.333 -179 64 -237s101 -87 175 -87c115.333 0 186 60.333 212 181h239c-16.667 -116 -65 -208.167 -145 -276.5s-180 -102.5 -300 -102.5z" />
    <glyph glyph-name="ccaron" unicode="&#xe8;" horiz-adv-x="1090" 
d="M786 352h238.999c-16.667 -117.333 -65.5 -209.833 -146.5 -277.5s-183.5 -101.5 -307.5 -101.5c-143.333 0 -261.166 49 -353.499 147s-138.5 223.333 -138.5 376c0 153.333 46 279.833 138 379.5s208.667 149.5 350 149.5c116.667 0 213.5 -31.5 290.5 -94.5
s129.5 -153.167 157.5 -270.5h-244c-31.333 111.333 -99 167 -203 167c-69.333 0 -125.5 -30.667 -168.5 -92s-64.5 -141.333 -64.5 -240c0 -100 21.333 -179 64 -237s101 -87 175 -87c115.333 0 186 60.333 212 181zM415.999 1147l-160 249h211l106 -167l106 167h210
l-154 -249h-319z" />
    <glyph glyph-name="ccaron" unicode="&#x10d;" horiz-adv-x="1090" 
d="M786 352h238.999c-16.667 -117.333 -65.5 -209.833 -146.5 -277.5s-183.5 -101.5 -307.5 -101.5c-143.333 0 -261.166 49 -353.499 147s-138.5 223.333 -138.5 376c0 153.333 46 279.833 138 379.5s208.667 149.5 350 149.5c116.667 0 213.5 -31.5 290.5 -94.5
s129.5 -153.167 157.5 -270.5h-244c-31.333 111.333 -99 167 -203 167c-69.333 0 -125.5 -30.667 -168.5 -92s-64.5 -141.333 -64.5 -240c0 -100 21.333 -179 64 -237s101 -87 175 -87c115.333 0 186 60.333 212 181zM415.999 1147l-160 249h211l106 -167l106 167h210
l-154 -249h-319z" />
    <glyph glyph-name="eacute" unicode="&#xe9;" horiz-adv-x="1144" 
d="M1064 441h-729.999c20 -180 102.667 -270 248 -270c97.333 0 168.666 43 213.999 129h259c-30.667 -100.667 -88.167 -180.334 -172.5 -239.001s-183.5 -88 -297.5 -88c-146.667 0 -267.667 48.833 -363 146.5s-143 221.834 -143 372.501c0 162 44.5 291.167 133.5 387.5
s208.167 144.5 357.5 144.5s269 -53.167 359 -159.5s135 -247.5 135 -423.5zM806.001 605c-18 152 -96 228 -234 228c-132 0 -208.667 -76 -230 -228h464zM571.001 1396h272l-202 -249h-164z" />
    <glyph glyph-name="glyph282" unicode="&#xea;" horiz-adv-x="1144" 
d="M936 -231l0.000976562 -128c-44.667 -17.333 -85.667 -26 -123 -26c-66.667 0 -120.667 16.833 -162 50.5s-62 77.167 -62 130.5c0 40 10.333 73.833 31 101.5s58 58.167 112 91.5c-51.333 -11.333 -96.666 -17 -135.999 -17c-152.667 0 -277 48.333 -373 145
s-144 221.667 -144 375c0 162 44.5 291.167 133.5 387.5s208.167 144.5 357.5 144.5c148.667 0 268.167 -53.167 358.5 -159.5s135.5 -247.5 135.5 -423.5h-730c19.333 -180 101.666 -270 246.999 -270c98 0 169.667 43 215 129h259
c-26.667 -87.333 -83.334 -170.666 -170.001 -249.999c-95.333 -86.667 -143 -156.334 -143 -209.001c0 -24.667 10 -46.167 30 -64.5s44 -27.5 72 -27.5c32 0 62.667 6.66699 92 20zM805.001 605c-17.333 152 -95 228 -233 228c-132 0 -208.667 -76 -230 -228h463z" />
    <glyph glyph-name="glyph282" unicode="&#x119;" horiz-adv-x="1144" 
d="M936 -231l0.000976562 -128c-44.667 -17.333 -85.667 -26 -123 -26c-66.667 0 -120.667 16.833 -162 50.5s-62 77.167 -62 130.5c0 40 10.333 73.833 31 101.5s58 58.167 112 91.5c-51.333 -11.333 -96.666 -17 -135.999 -17c-152.667 0 -277 48.333 -373 145
s-144 221.667 -144 375c0 162 44.5 291.167 133.5 387.5s208.167 144.5 357.5 144.5c148.667 0 268.167 -53.167 358.5 -159.5s135.5 -247.5 135.5 -423.5h-730c19.333 -180 101.666 -270 246.999 -270c98 0 169.667 43 215 129h259
c-26.667 -87.333 -83.334 -170.666 -170.001 -249.999c-95.333 -86.667 -143 -156.334 -143 -209.001c0 -24.667 10 -46.167 30 -64.5s44 -27.5 72 -27.5c32 0 62.667 6.66699 92 20zM805.001 605c-17.333 152 -95 228 -233 228c-132 0 -208.667 -76 -230 -228h463z" />
    <glyph glyph-name="edieresis" unicode="&#xeb;" horiz-adv-x="1144" 
d="M1064 441h-729.999c20 -180 102.667 -270 248 -270c97.333 0 168.666 43 213.999 129h259c-30.667 -100.667 -88.167 -180.334 -172.5 -239.001s-183.5 -88 -297.5 -88c-146.667 0 -267.667 48.833 -363 146.5s-143 221.834 -143 372.501c0 162 44.5 291.167 133.5 387.5
s208.167 144.5 357.5 144.5s269 -53.167 359 -159.5s135 -247.5 135 -423.5zM806.001 605c-18 152 -96 228 -234 228c-132 0 -208.667 -76 -230 -228h464zM265.001 1379h237v-217h-237v217zM668.001 1379h237v-217h-237v217z" />
    <glyph glyph-name="glyph281" unicode="&#xec;" horiz-adv-x="1144" 
d="M1064 441h-729.999c20 -180 102.667 -270 248 -270c97.333 0 168.666 43 213.999 129h259c-30.667 -100.667 -88.167 -180.334 -172.5 -239.001s-183.5 -88 -297.5 -88c-146.667 0 -267.667 48.833 -363 146.5s-143 221.834 -143 372.501c0 162 44.5 291.167 133.5 387.5
s208.167 144.5 357.5 144.5s269 -53.167 359 -159.5s135 -247.5 135 -423.5zM806.001 605c-18 152 -96 228 -234 228c-132 0 -208.667 -76 -230 -228h464zM429.001 1147l-160 249h210l106 -167l106 167h211l-155 -249h-318z" />
    <glyph glyph-name="glyph281" unicode="&#x11b;" horiz-adv-x="1144" 
d="M1064 441h-729.999c20 -180 102.667 -270 248 -270c97.333 0 168.666 43 213.999 129h259c-30.667 -100.667 -88.167 -180.334 -172.5 -239.001s-183.5 -88 -297.5 -88c-146.667 0 -267.667 48.833 -363 146.5s-143 221.834 -143 372.501c0 162 44.5 291.167 133.5 387.5
s208.167 144.5 357.5 144.5s269 -53.167 359 -159.5s135 -247.5 135 -423.5zM806.001 605c-18 152 -96 228 -234 228c-132 0 -208.667 -76 -230 -228h464zM429.001 1147l-160 249h210l106 -167l106 167h211l-155 -249h-318z" />
    <glyph glyph-name="iacute" unicode="&#xed;" horiz-adv-x="506" 
d="M128 997h249v-997h-249v997zM245 1396h272l-202 -249h-164z" />
    <glyph glyph-name="icircumflex" unicode="&#xee;" horiz-adv-x="506" 
d="M129 997h249v-997h-249v997zM96 1396h319l127 -249h-204l-85 167l-85 -167h-204z" />
    <glyph glyph-name="glyph280" unicode="&#xef;" horiz-adv-x="1381" 
d="M808 1365l248.998 0.000976562v-1365h-249v116c-53.333 -54.667 -100.666 -92.167 -141.999 -112.5s-90.333 -30.5 -147 -30.5c-126 0 -230.833 48.667 -314.5 146s-125.5 219.666 -125.5 366.999c0 153.333 40.333 281.333 121 384s181.334 154 302.001 154
c110.667 0 212.667 -46.667 306 -140v481zM576.998 826.001c-74 0 -132.833 -30.167 -176.5 -90.5s-65.5 -141.5 -65.5 -243.5c0 -94 22.5 -171 67.5 -231s102.833 -90 173.5 -90c72.667 0 131.667 30.5 177 91.5s68 139.833 68 236.5c0 98 -22.333 177 -67 237
s-103.667 90 -177 90zM1401 1365l-0.000976562 -170c0 -88 -29.667 -152.667 -89 -194c-41.333 -29.333 -85 -44 -131 -44h-12v92c30.667 2 55.334 13.333 74.001 34s28 47 28 79h-105v203h235z" />
    <glyph glyph-name="glyph280" unicode="&#x10f;" horiz-adv-x="1381" 
d="M808 1365l248.998 0.000976562v-1365h-249v116c-53.333 -54.667 -100.666 -92.167 -141.999 -112.5s-90.333 -30.5 -147 -30.5c-126 0 -230.833 48.667 -314.5 146s-125.5 219.666 -125.5 366.999c0 153.333 40.333 281.333 121 384s181.334 154 302.001 154
c110.667 0 212.667 -46.667 306 -140v481zM576.998 826.001c-74 0 -132.833 -30.167 -176.5 -90.5s-65.5 -141.5 -65.5 -243.5c0 -94 22.5 -171 67.5 -231s102.833 -90 173.5 -90c72.667 0 131.667 30.5 177 91.5s68 139.833 68 236.5c0 98 -22.333 177 -67 237
s-103.667 90 -177 90zM1401 1365l-0.000976562 -170c0 -88 -29.667 -152.667 -89 -194c-41.333 -29.333 -85 -44 -131 -44h-12v92c30.667 2 55.334 13.333 74.001 34s28 47 28 79h-105v203h235z" />
    <glyph glyph-name="dmacron" unicode="&#xf0;" horiz-adv-x="1185" 
d="M1057 1080l0.00195312 -1080h-249v116c-53.333 -54.667 -100.5 -92.167 -141.5 -112.5s-89.833 -30.5 -146.5 -30.5c-126.667 0 -231.834 48.667 -315.501 146s-125.5 219.666 -125.5 366.999c0 156.667 39.667 283.5 119 380.5s183.333 145.5 312 145.5
c115.333 0 214.666 -42.667 297.999 -128v196h-232v150h232v135h249v-135h123v-150h-123zM577.002 826.001c-74 0 -132.833 -30 -176.5 -90s-65.5 -141.333 -65.5 -244c0 -94 22.5 -171 67.5 -231s102.833 -90 173.5 -90c72.667 0 131.667 30.5 177 91.5
s68 139.833 68 236.5c0 98 -22.333 177 -67 237s-103.667 90 -177 90z" />
    <glyph glyph-name="dmacron" unicode="&#x111;" horiz-adv-x="1185" 
d="M1057 1080l0.00195312 -1080h-249v116c-53.333 -54.667 -100.5 -92.167 -141.5 -112.5s-89.833 -30.5 -146.5 -30.5c-126.667 0 -231.834 48.667 -315.501 146s-125.5 219.666 -125.5 366.999c0 156.667 39.667 283.5 119 380.5s183.333 145.5 312 145.5
c115.333 0 214.666 -42.667 297.999 -128v196h-232v150h232v135h249v-135h123v-150h-123zM577.002 826.001c-74 0 -132.833 -30 -176.5 -90s-65.5 -141.333 -65.5 -244c0 -94 22.5 -171 67.5 -231s102.833 -90 173.5 -90c72.667 0 131.667 30.5 177 91.5
s68 139.833 68 236.5c0 98 -22.333 177 -67 237s-103.667 90 -177 90z" />
    <glyph glyph-name="glyph285" unicode="&#xf1;" horiz-adv-x="1146" 
d="M128 997l249 -0.000976562v-139c84.667 110.667 181 166 289 166c132.667 0 232 -50.333 298 -151c36 -56 54 -133.667 54 -233v-640h-249v576c0 78.667 -14.5 136.5 -43.5 173.5s-74.833 55.5 -137.5 55.5c-67.333 0 -119.333 -21.667 -156 -65
s-55 -104.666 -55 -183.999v-556h-249v997zM545 1396h272l-202 -249h-164z" />
    <glyph glyph-name="glyph285" unicode="&#x144;" horiz-adv-x="1146" 
d="M128 997l249 -0.000976562v-139c84.667 110.667 181 166 289 166c132.667 0 232 -50.333 298 -151c36 -56 54 -133.667 54 -233v-640h-249v576c0 78.667 -14.5 136.5 -43.5 173.5s-74.833 55.5 -137.5 55.5c-67.333 0 -119.333 -21.667 -156 -65
s-55 -104.666 -55 -183.999v-556h-249v997zM545 1396h272l-202 -249h-164z" />
    <glyph glyph-name="glyph286" unicode="&#xf2;" horiz-adv-x="1146" 
d="M128 997l249 -0.000976562v-139c84.667 110.667 181 166 289 166c132.667 0 232 -50.333 298 -151c36 -56 54 -133.667 54 -233v-640h-249v576c0 78.667 -14.5 136.5 -43.5 173.5s-74.833 55.5 -137.5 55.5c-67.333 0 -119.333 -21.667 -156 -65
s-55 -104.666 -55 -183.999v-556h-249v997zM403 1147l-160 249h210l106 -167l106 167h211l-155 -249h-318z" />
    <glyph glyph-name="glyph286" unicode="&#x148;" horiz-adv-x="1146" 
d="M128 997l249 -0.000976562v-139c84.667 110.667 181 166 289 166c132.667 0 232 -50.333 298 -151c36 -56 54 -133.667 54 -233v-640h-249v576c0 78.667 -14.5 136.5 -43.5 173.5s-74.833 55.5 -137.5 55.5c-67.333 0 -119.333 -21.667 -156 -65
s-55 -104.666 -55 -183.999v-556h-249v997zM403 1147l-160 249h210l106 -167l106 167h211l-155 -249h-318z" />
    <glyph glyph-name="oacute" unicode="&#xf3;" horiz-adv-x="1192" 
d="M595 1024c150 0 273.667 -49.5 371 -148.5s146 -224.833 146 -377.5c0 -152 -48.667 -277.5 -146 -376.5s-221 -148.5 -371 -148.5c-149.333 0 -272.666 49.5 -369.999 148.5s-146 224.5 -146 376.5c0 152.667 48.667 278.5 146 377.5s220.666 148.5 369.999 148.5z
M595 826c-78 0 -140.833 -30 -188.5 -90s-71.5 -139.333 -71.5 -238c0 -98 23.833 -177 71.5 -237s110.5 -90 188.5 -90c78.667 0 141.834 30 189.501 90s71.5 139 71.5 237c0 98.667 -23.833 178 -71.5 238s-110.834 90 -189.501 90zM581 1396h273l-203 -249h-163z" />
    <glyph glyph-name="ocircumflex" unicode="&#xf4;" horiz-adv-x="1192" 
d="M595 1024c150 0 273.667 -49.5 371 -148.5s146 -224.833 146 -377.5c0 -152 -48.667 -277.5 -146 -376.5s-221 -148.5 -371 -148.5c-149.333 0 -272.666 49.5 -369.999 148.5s-146 224.5 -146 376.5c0 152.667 48.667 278.5 146 377.5s220.666 148.5 369.999 148.5z
M595 826c-78 0 -140.833 -30 -188.5 -90s-71.5 -139.333 -71.5 -238c0 -98 23.833 -177 71.5 -237s110.5 -90 188.5 -90c78.667 0 141.834 30 189.501 90s71.5 139 71.5 237c0 98.667 -23.833 178 -71.5 238s-110.834 90 -189.501 90zM439 1396h319l154 -249h-211l-105 167
l-106 -167h-211z" />
    <glyph glyph-name="glyph287" unicode="&#xf5;" horiz-adv-x="1192" 
d="M595 1024c150 0 273.667 -49.5 371 -148.5s146 -224.833 146 -377.5c0 -152 -48.667 -277.5 -146 -376.5s-221 -148.5 -371 -148.5c-149.333 0 -272.666 49.5 -369.999 148.5s-146 224.5 -146 376.5c0 152.667 48.667 278.5 146 377.5s220.666 148.5 369.999 148.5z
M595 826c-78 0 -140.833 -30 -188.5 -90s-71.5 -139.333 -71.5 -238c0 -98 23.833 -177 71.5 -237s110.5 -90 188.5 -90c78.667 0 141.834 30 189.501 90s71.5 139 71.5 237c0 98.667 -23.833 178 -71.5 238s-110.834 90 -189.501 90zM451 1396h231l-182 -249h-142z
M779 1396h232l-182 -249h-143z" />
    <glyph glyph-name="glyph287" unicode="&#x151;" horiz-adv-x="1192" 
d="M595 1024c150 0 273.667 -49.5 371 -148.5s146 -224.833 146 -377.5c0 -152 -48.667 -277.5 -146 -376.5s-221 -148.5 -371 -148.5c-149.333 0 -272.666 49.5 -369.999 148.5s-146 224.5 -146 376.5c0 152.667 48.667 278.5 146 377.5s220.666 148.5 369.999 148.5z
M595 826c-78 0 -140.833 -30 -188.5 -90s-71.5 -139.333 -71.5 -238c0 -98 23.833 -177 71.5 -237s110.5 -90 188.5 -90c78.667 0 141.834 30 189.501 90s71.5 139 71.5 237c0 98.667 -23.833 178 -71.5 238s-110.834 90 -189.501 90zM451 1396h231l-182 -249h-142z
M779 1396h232l-182 -249h-143z" />
    <glyph glyph-name="odieresis" unicode="&#xf6;" horiz-adv-x="1192" 
d="M595 1024c150 0 273.667 -49.5 371 -148.5s146 -224.833 146 -377.5c0 -152 -48.667 -277.5 -146 -376.5s-221 -148.5 -371 -148.5c-149.333 0 -272.666 49.5 -369.999 148.5s-146 224.5 -146 376.5c0 152.667 48.667 278.5 146 377.5s220.666 148.5 369.999 148.5z
M595 826c-78 0 -140.833 -30 -188.5 -90s-71.5 -139.333 -71.5 -238c0 -98 23.833 -177 71.5 -237s110.5 -90 188.5 -90c78.667 0 141.834 30 189.501 90s71.5 139 71.5 237c0 98.667 -23.833 178 -71.5 238s-110.834 90 -189.501 90zM276 1379h237v-217h-237v217zM679 1379
h237v-217h-237v217z" />
    <glyph glyph-name="divide" unicode="&#xf7;" horiz-adv-x="1270" 
d="M123 774h1024v-184h-1024v184zM635 460c30 0 55.667 -10.667 77 -32s32 -47 32 -77s-10.667 -55.667 -32 -77s-47 -32 -77 -32s-55.667 10.667 -77 32s-32 47 -32 77s10.667 55.667 32 77s47 32 77 32zM635 1122c30 0 55.667 -10.667 77 -32s32 -47 32 -77
s-10.667 -55.667 -32 -77s-47 -32 -77 -32s-55.667 10.667 -77 32s-32 47 -32 77s10.667 55.667 32 77s47 32 77 32z" />
    <glyph glyph-name="glyph296" unicode="&#xf8;" horiz-adv-x="724" 
d="M129 997h248.998v-138c66.667 106 149.334 159 248.001 159c16 0 37.667 -1.66699 65 -5v-214l-40 1c-85.333 0 -152.166 -26 -200.499 -78s-72.5 -123.667 -72.5 -215v-507h-249v997zM246.998 1147l-160 249h211l105 -167l106 167h211l-154 -249h-319z" />
    <glyph glyph-name="glyph296" unicode="&#x159;" horiz-adv-x="724" 
d="M129 997h248.998v-138c66.667 106 149.334 159 248.001 159c16 0 37.667 -1.66699 65 -5v-214l-40 1c-85.333 0 -152.166 -26 -200.499 -78s-72.5 -123.667 -72.5 -215v-507h-249v997zM246.998 1147l-160 249h211l105 -167l106 167h211l-154 -249h-319z" />
    <glyph glyph-name="glyph291" unicode="&#xf9;" horiz-adv-x="1138" 
d="M1009 997l-0.000976562 -997.002h-249v102c-92.667 -86 -191.667 -129 -297 -129c-102 0 -184.333 35.667 -247 107c-35.333 40.667 -58.833 85 -70.5 133s-17.5 124 -17.5 228v556h249v-556c0 -91.333 13.5 -155.666 40.5 -192.999s73.167 -56 138.5 -56
c66.667 0 117.334 21.333 152.001 64s52 104.334 52 185.001v556h249zM567.999 1492c56 0 103.332 -19.667 141.999 -59s58 -87 58 -143c0 -54 -19.5 -100.333 -58.5 -139s-86.167 -58 -141.5 -58c-54 0 -100.5 19.5 -139.5 58.5s-58.5 85.833 -58.5 140.5
c0 55.333 19.333 102.5 58 141.5s85.334 58.5 140.001 58.5zM567.998 1383c-24 0 -44.499 -9 -61.499 -27s-25.5 -39.667 -25.5 -65c0 -24 8.66699 -44.833 26 -62.5s37.666 -26.5 60.999 -26.5c24.667 0 45.667 8.83301 63 26.5s26 38.5 26 62.5
c0 26 -8.5 47.833 -25.5 65.5s-38.167 26.5 -63.5 26.5z" />
    <glyph glyph-name="glyph291" unicode="&#x16f;" horiz-adv-x="1138" 
d="M1009 997l-0.000976562 -997.002h-249v102c-92.667 -86 -191.667 -129 -297 -129c-102 0 -184.333 35.667 -247 107c-35.333 40.667 -58.833 85 -70.5 133s-17.5 124 -17.5 228v556h249v-556c0 -91.333 13.5 -155.666 40.5 -192.999s73.167 -56 138.5 -56
c66.667 0 117.334 21.333 152.001 64s52 104.334 52 185.001v556h249zM567.999 1492c56 0 103.332 -19.667 141.999 -59s58 -87 58 -143c0 -54 -19.5 -100.333 -58.5 -139s-86.167 -58 -141.5 -58c-54 0 -100.5 19.5 -139.5 58.5s-58.5 85.833 -58.5 140.5
c0 55.333 19.333 102.5 58 141.5s85.334 58.5 140.001 58.5zM567.998 1383c-24 0 -44.499 -9 -61.499 -27s-25.5 -39.667 -25.5 -65c0 -24 8.66699 -44.833 26 -62.5s37.666 -26.5 60.999 -26.5c24.667 0 45.667 8.83301 63 26.5s26 38.5 26 62.5
c0 26 -8.5 47.833 -25.5 65.5s-38.167 26.5 -63.5 26.5z" />
    <glyph glyph-name="uacute" unicode="&#xfa;" horiz-adv-x="1138" 
d="M1009 997l-0.000976562 -997.002h-249v102c-92.667 -86 -191.667 -129 -297 -129c-102 0 -184.333 35.667 -247 107c-35.333 40.667 -58.833 85 -70.5 133s-17.5 124 -17.5 228v556h249v-556c0 -91.333 13.5 -155.666 40.5 -192.999s73.167 -56 138.5 -56
c66.667 0 117.334 21.333 152.001 64s52 104.334 52 185.001v556h249zM553.999 1396h273l-203 -249h-163z" />
    <glyph glyph-name="glyph292" unicode="&#xfb;" horiz-adv-x="1138" 
d="M1009 997l-0.000976562 -997.002h-249v102c-92.667 -86 -191.667 -129 -297 -129c-102 0 -184.333 35.667 -247 107c-35.333 40.667 -58.833 85 -70.5 133s-17.5 124 -17.5 228v556h249v-556c0 -91.333 13.5 -155.666 40.5 -192.999s73.167 -56 138.5 -56
c66.667 0 117.334 21.333 152.001 64s52 104.334 52 185.001v556h249zM423.999 1396h232l-182 -249h-143zM752.999 1396h231l-182 -249h-143z" />
    <glyph glyph-name="glyph292" unicode="&#x171;" horiz-adv-x="1138" 
d="M1009 997l-0.000976562 -997.002h-249v102c-92.667 -86 -191.667 -129 -297 -129c-102 0 -184.333 35.667 -247 107c-35.333 40.667 -58.833 85 -70.5 133s-17.5 124 -17.5 228v556h249v-556c0 -91.333 13.5 -155.666 40.5 -192.999s73.167 -56 138.5 -56
c66.667 0 117.334 21.333 152.001 64s52 104.334 52 185.001v556h249zM423.999 1396h232l-182 -249h-143zM752.999 1396h231l-182 -249h-143z" />
    <glyph glyph-name="udieresis" unicode="&#xfc;" horiz-adv-x="1138" 
d="M1009 997l-0.000976562 -997.002h-249v102c-92.667 -86 -191.667 -129 -297 -129c-102 0 -184.333 35.667 -247 107c-35.333 40.667 -58.833 85 -70.5 133s-17.5 124 -17.5 228v556h249v-556c0 -91.333 13.5 -155.666 40.5 -192.999s73.167 -56 138.5 -56
c66.667 0 117.334 21.333 152.001 64s52 104.334 52 185.001v556h249zM248.999 1379h237v-217h-237v217zM651.999 1379h237v-217h-237v217z" />
    <glyph glyph-name="yacute" unicode="&#xfd;" horiz-adv-x="979" 
d="M718 997l254.999 0.00195312l-363 -1074c-35.333 -104.667 -80.666 -175.334 -135.999 -212.001c-30 -20 -58.667 -32.667 -86 -38s-76.333 -8 -147 -8h-126v194h74c114.667 0 172 46 172 138c0 49.333 -16 115.666 -48 198.999l-308 801h271l230 -736zM480.999 1396h273
l-203 -249h-163z" />
    <glyph glyph-name="glyph295" unicode="&#xfe;" horiz-adv-x="644" 
d="M399 997h188.002v-157h-188v-507c0 -62 7.5 -103.167 22.5 -123.5s45.833 -30.5 92.5 -30.5c10.667 0 33 1 67 3c4.66699 0.666992 11.667 1 21 1v-183h-179c-64 0 -109.833 4.16699 -137.5 12.5s-53.834 25.5 -78.501 51.5c-22.667 24 -37.834 54.167 -45.501 90.5
s-11.5 95.833 -11.5 178.5v507h-140v157h140v331h249v-331zM457.002 -109v-171c0 -73.333 -26.333 -131.333 -79 -174c-37.333 -30.667 -88.333 -46 -153 -46v84c68 4 102 41.667 102 113h-105v194h235z" />
    <glyph glyph-name="glyph295" unicode="&#x163;" horiz-adv-x="644" 
d="M399 997h188.002v-157h-188v-507c0 -62 7.5 -103.167 22.5 -123.5s45.833 -30.5 92.5 -30.5c10.667 0 33 1 67 3c4.66699 0.666992 11.667 1 21 1v-183h-179c-64 0 -109.833 4.16699 -137.5 12.5s-53.834 25.5 -78.501 51.5c-22.667 24 -37.834 54.167 -45.501 90.5
s-11.5 95.833 -11.5 178.5v507h-140v157h140v331h249v-331zM457.002 -109v-171c0 -73.333 -26.333 -131.333 -79 -174c-37.333 -30.667 -88.333 -46 -153 -46v84c68 4 102 41.667 102 113h-105v194h235z" />
    <glyph glyph-name="dotaccent" unicode="&#xff;" 
d="M393 1379h237v-217h-237v217z" />
    <glyph glyph-name="dotaccent" unicode="&#x2d9;" 
d="M393 1379h237v-217h-237v217z" />
    <glyph glyph-name=".null" horiz-adv-x="0" 
 />
    <glyph glyph-name="nonmarkingreturn" horiz-adv-x="546" 
 />
    <glyph glyph-name="Aring" horiz-adv-x="1246" 
d="M372 292l-91 -292h-281l480 1365h303l463 -1365h-282l-91 292h-501zM433 490h380l-190 612zM622 1832c56 0 103.332 -19.5 141.999 -58.5s58 -86.833 58 -143.5c0 -54 -19.5 -100.167 -58.5 -138.5s-86.167 -57.5 -141.5 -57.5c-54 0 -100.5 19.5 -139.5 58.5
s-58.5 85.5 -58.5 139.5c0 55.333 19.333 102.5 58 141.5s85.334 58.5 140.001 58.5zM621.999 1723c-24 0 -44.499 -8.83301 -61.499 -26.5s-25.5 -39.5 -25.5 -65.5c0 -23.333 8.66699 -43.833 26 -61.5s37.666 -26.5 60.999 -26.5c24.667 0 45.667 8.66699 63 26
s26 38.333 26 63c0 25.333 -8.5 46.833 -25.5 64.5s-38.167 26.5 -63.5 26.5z" />
    <glyph glyph-name="Ntilde" horiz-adv-x="1423" 
d="M145 1365h288l576 -953v953h270v-1365h-280l-584 970v-970h-270v1365zM887 1749h142.999c-5.33301 -76 -22.333 -133.667 -51 -173s-68.334 -59 -119.001 -59c-38 0 -98.333 19 -181 57c-32 14.667 -53 22 -63 22c-26.667 0 -43 -17.667 -49 -53l-3 -18h-143
c15.333 149.333 70.333 224 165 224c32.667 0 93.334 -18 182.001 -54c35.333 -14.667 58.333 -22 69 -22c30.667 0 47.334 25.333 50.001 76z" />
    <glyph glyph-name="agrave" horiz-adv-x="1124" 
d="M373 701l-234.997 -0.000976562c15.333 112.667 57.666 194.667 126.999 246s172 77 308 77c132.667 0 235 -24.667 307 -74c44.667 -31.333 76.5 -71.333 95.5 -120s28.5 -115.334 28.5 -200.001v-420c0 -92.667 11.333 -162.667 34 -210h-243l-27 93
c-102.667 -80 -209.334 -120 -320.001 -120c-100.667 0 -187.334 29.667 -260.001 89s-109 129.666 -109 210.999c0 100 41.5 177.667 124.5 233s213.5 93.333 391.5 114c58 6.66699 98.5 17.334 121.5 32.001s34.5 37.334 34.5 68.001c0 38.667 -17 69.834 -51 93.501
s-78.667 35.5 -134 35.5c-57.333 0 -102.833 -13 -136.5 -39s-52.5 -62.333 -56.5 -109zM761.003 523.999c-38.667 -24 -91 -43.999 -157 -59.999c-105.333 -25.333 -176.5 -49.833 -213.5 -73.5s-55.5 -56.5 -55.5 -98.5c0 -36.667 16 -66 48 -88s74 -33 126 -33
c68.667 0 127 16 175 48c29.333 19.333 49.5 41.166 60.5 65.499s16.5 58.833 16.5 103.5v136zM580.003 1396l93 -249h-163l-203 249h273z" />
    <glyph glyph-name="atilde" horiz-adv-x="1124" 
d="M373 701l-234.997 -0.000976562c15.333 112.667 57.666 194.667 126.999 246s172 77 308 77c132.667 0 235 -24.667 307 -74c44.667 -31.333 76.5 -71.333 95.5 -120s28.5 -115.334 28.5 -200.001v-420c0 -92.667 11.333 -162.667 34 -210h-243l-27 93
c-102.667 -80 -209.334 -120 -320.001 -120c-100.667 0 -187.334 29.667 -260.001 89s-109 129.666 -109 210.999c0 100 41.5 177.667 124.5 233s213.5 93.333 391.5 114c58 6.66699 98.5 17.334 121.5 32.001s34.5 37.334 34.5 68.001c0 38.667 -17 69.834 -51 93.501
s-78.667 35.5 -134 35.5c-57.333 0 -102.833 -13 -136.5 -39s-52.5 -62.333 -56.5 -109zM761.003 523.999c-38.667 -24 -91 -43.999 -157 -59.999c-105.333 -25.333 -176.5 -49.833 -213.5 -73.5s-55.5 -56.5 -55.5 -98.5c0 -36.667 16 -66 48 -88s74 -33 126 -33
c68.667 0 127 16 175 48c29.333 19.333 49.5 41.166 60.5 65.499s16.5 58.833 16.5 103.5v136zM739.003 1381h142.999c-5.33301 -76 -22.333 -133.667 -51 -173s-68.334 -59 -119.001 -59c-37.333 0 -97.666 19 -180.999 57c-32.667 14.667 -53.667 22 -63 22
c-27.333 0 -43.666 -17.667 -48.999 -53l-3 -18h-143c16 149.333 70.667 224 164 224c28.667 0 65 -8.66699 109 -26l71 -28c36 -14.667 60.333 -22 73 -22c30 0 46.333 25.333 49 76z" />
    <glyph glyph-name="aring" horiz-adv-x="1124" 
d="M373 701l-234.997 -0.000976562c15.333 112.667 57.666 194.667 126.999 246s172 77 308 77c132.667 0 235 -24.667 307 -74c44.667 -31.333 76.5 -71.333 95.5 -120s28.5 -115.334 28.5 -200.001v-420c0 -92.667 11.333 -162.667 34 -210h-243l-27 93
c-102.667 -80 -209.334 -120 -320.001 -120c-100.667 0 -187.334 29.667 -260.001 89s-109 129.666 -109 210.999c0 100 41.5 177.667 124.5 233s213.5 93.333 391.5 114c58 6.66699 98.5 17.334 121.5 32.001s34.5 37.334 34.5 68.001c0 38.667 -17 69.834 -51 93.501
s-78.667 35.5 -134 35.5c-57.333 0 -102.833 -13 -136.5 -39s-52.5 -62.333 -56.5 -109zM761.003 523.999c-38.667 -24 -91 -43.999 -157 -59.999c-105.333 -25.333 -176.5 -49.833 -213.5 -73.5s-55.5 -56.5 -55.5 -98.5c0 -36.667 16 -66 48 -88s74 -33 126 -33
c68.667 0 127 16 175 48c29.333 19.333 49.5 41.166 60.5 65.499s16.5 58.833 16.5 103.5v136zM571.003 1492c56 0 103.332 -19.667 141.999 -59s58 -87 58 -143c0 -54 -19.5 -100.333 -58.5 -139s-86.167 -58 -141.5 -58c-54 0 -100.5 19.5 -139.5 58.5
s-58.5 85.833 -58.5 140.5c0 55.333 19.333 102.5 58 141.5s85.334 58.5 140.001 58.5zM571.002 1383c-24 0 -44.499 -9 -61.499 -27s-25.5 -39.667 -25.5 -65c0 -24 8.66699 -44.833 26 -62.5s37.666 -26.5 60.999 -26.5c24.667 0 45.667 8.83301 63 26.5s26 38.5 26 62.5
c0 26 -8.5 47.833 -25.5 65.5s-38.167 26.5 -63.5 26.5z" />
    <glyph glyph-name="egrave" horiz-adv-x="1144" 
d="M1064 441h-729.999c20 -180 102.667 -270 248 -270c97.333 0 168.666 43 213.999 129h259c-30.667 -100.667 -88.167 -180.334 -172.5 -239.001s-183.5 -88 -297.5 -88c-146.667 0 -267.667 48.833 -363 146.5s-143 221.834 -143 372.501c0 162 44.5 291.167 133.5 387.5
s208.167 144.5 357.5 144.5s269 -53.167 359 -159.5s135 -247.5 135 -423.5zM806.001 605c-18 152 -96 228 -234 228c-132 0 -208.667 -76 -230 -228h464zM593.001 1396l93 -249h-163l-203 249h273z" />
    <glyph glyph-name="ecircumflex" horiz-adv-x="1144" 
d="M1064 441h-729.999c20 -180 102.667 -270 248 -270c97.333 0 168.666 43 213.999 129h259c-30.667 -100.667 -88.167 -180.334 -172.5 -239.001s-183.5 -88 -297.5 -88c-146.667 0 -267.667 48.833 -363 146.5s-143 221.834 -143 372.501c0 162 44.5 291.167 133.5 387.5
s208.167 144.5 357.5 144.5s269 -53.167 359 -159.5s135 -247.5 135 -423.5zM806.001 605c-18 152 -96 228 -234 228c-132 0 -208.667 -76 -230 -228h464zM429.001 1396h318l155 -249h-211l-106 167l-106 -167h-210z" />
    <glyph glyph-name="igrave" horiz-adv-x="506" 
d="M128 997h249v-997h-249v997zM261 1396l93 -249h-164l-202 249h273z" />
    <glyph glyph-name="idieresis" horiz-adv-x="506" 
d="M128 997h249v-997h-249v997zM15 1162v217h189v-217h-189zM299 1162v217h191v-217h-191z" />
    <glyph glyph-name="ntilde" horiz-adv-x="1146" 
d="M128 997l249 -0.000976562v-139c84.667 110.667 181 166 289 166c132.667 0 232 -50.333 298 -151c36 -56 54 -133.667 54 -233v-640h-249v576c0 78.667 -14.5 136.5 -43.5 173.5s-74.833 55.5 -137.5 55.5c-67.333 0 -119.333 -21.667 -156 -65
s-55 -104.666 -55 -183.999v-556h-249v997zM721 1381h143c-5.33301 -76 -22.333 -133.667 -51 -173s-68.334 -59 -119.001 -59c-38 0 -98.333 19 -181 57c-32.667 14.667 -54 22 -64 22c-26.667 0 -42.667 -17.667 -48 -53l-3 -18h-143c15.333 149.333 70 224 164 224
c32 0 92.667 -18 182 -54c36 -14.667 59.333 -22 70 -22c30.667 0 47.334 25.333 50.001 76z" />
    <glyph glyph-name="ograve" horiz-adv-x="1192" 
d="M595 1024c150 0 273.667 -49.5 371 -148.5s146 -224.833 146 -377.5c0 -152 -48.667 -277.5 -146 -376.5s-221 -148.5 -371 -148.5c-149.333 0 -272.666 49.5 -369.999 148.5s-146 224.5 -146 376.5c0 152.667 48.667 278.5 146 377.5s220.666 148.5 369.999 148.5z
M595 826c-78 0 -140.833 -30 -188.5 -90s-71.5 -139.333 -71.5 -238c0 -98 23.833 -177 71.5 -237s110.5 -90 188.5 -90c78.667 0 141.834 30 189.501 90s71.5 139 71.5 237c0 98.667 -23.833 178 -71.5 238s-110.834 90 -189.501 90zM603 1396l94 -249h-164l-202 249h272z
" />
    <glyph glyph-name="otilde" horiz-adv-x="1192" 
d="M595 1024c150 0 273.667 -49.5 371 -148.5s146 -224.833 146 -377.5c0 -152 -48.667 -277.5 -146 -376.5s-221 -148.5 -371 -148.5c-149.333 0 -272.666 49.5 -369.999 148.5s-146 224.5 -146 376.5c0 152.667 48.667 278.5 146 377.5s220.666 148.5 369.999 148.5z
M595 826c-78 0 -140.833 -30 -188.5 -90s-71.5 -139.333 -71.5 -238c0 -98 23.833 -177 71.5 -237s110.5 -90 188.5 -90c78.667 0 141.834 30 189.501 90s71.5 139 71.5 237c0 98.667 -23.833 178 -71.5 238s-110.834 90 -189.501 90zM764 1381h143
c-5.33301 -76 -22.333 -133.667 -51 -173s-68.334 -59 -119.001 -59c-37.333 0 -97.666 19 -180.999 57c-32.667 14.667 -53.667 22 -63 22c-27.333 0 -43.666 -17.667 -48.999 -53l-3 -18h-143c15.333 149.333 69.666 224 162.999 224c29.333 0 66 -8.66699 110 -26l71 -28
c36 -14.667 60.333 -22 73 -22c30 0 46.333 25.333 49 76z" />
    <glyph glyph-name="ugrave" horiz-adv-x="1138" 
d="M1009 997l-0.000976562 -997.002h-249v102c-92.667 -86 -191.667 -129 -297 -129c-102 0 -184.333 35.667 -247 107c-35.333 40.667 -58.833 85 -70.5 133s-17.5 124 -17.5 228v556h249v-556c0 -91.333 13.5 -155.666 40.5 -192.999s73.167 -56 138.5 -56
c66.667 0 117.334 21.333 152.001 64s52 104.334 52 185.001v556h249zM576.999 1396l93 -249h-164l-202 249h273z" />
    <glyph glyph-name="ucircumflex" horiz-adv-x="1138" 
d="M1009 997l-0.000976562 -997.002h-249v102c-92.667 -86 -191.667 -129 -297 -129c-102 0 -184.333 35.667 -247 107c-35.333 40.667 -58.833 85 -70.5 133s-17.5 124 -17.5 228v556h249v-556c0 -91.333 13.5 -155.666 40.5 -192.999s73.167 -56 138.5 -56
c66.667 0 117.334 21.333 152.001 64s52 104.334 52 185.001v556h249zM411.999 1396h319l154 -249h-210l-106 167l-106 -167h-211z" />
    <glyph glyph-name="cent" horiz-adv-x="1270" 
d="M715 1348v-156.001c204.667 -34 330.334 -154.333 377.001 -361h-240c-18.667 72.667 -64.334 123.334 -137.001 152.001v-635c84 20.667 134.333 76.334 151 167.001h237c-15.333 -107.333 -57.333 -194 -126 -260s-156 -103.667 -262 -113v-156h-123v155
c-284.667 61.333 -427 235.333 -427 522c0 146 38.833 267.167 116.5 363.5s181.167 151.166 310.5 164.499v157h123zM592 982.999c-117.333 -46 -176 -152.667 -176 -320c0 -176 58.667 -280.667 176 -314v634z" />
    <glyph glyph-name="sterling" horiz-adv-x="1270" 
d="M577 728h415.998v-132h-365c10 -32.667 15 -63 15 -91c0 -48.667 -11.167 -92 -33.5 -130s-63.833 -84.667 -124.5 -140c51.333 16 92.666 24 123.999 24c26.667 0 54.667 -3.66699 84 -11l110 -27c31.333 -8 61 -12 89 -12c92 0 163 34.333 213 103l117 -203
c-75.333 -90.667 -180.666 -136 -315.999 -136c-50 0 -113.333 11.333 -190 34c-87.333 26 -149.333 39 -186 39c-59.333 0 -121.333 -26.667 -186 -80l-143 203c76 52.667 129.167 100.5 159.5 143.5s45.5 92.167 45.5 147.5c0 43.333 -10.333 88.666 -31 135.999h-217v132
h161c-53.333 96.667 -80 182.334 -80 257.001c0 118.667 45.667 216.167 137 292.5s208.333 114.5 351 114.5c144.667 0 260.334 -39.667 347.001 -119s130 -185.666 130 -318.999h-244c-9.33301 146 -86.666 219 -231.999 219c-66.667 0 -121 -17.5 -163 -52.5
s-63 -80.167 -63 -135.5c0 -46.667 25 -132.334 75 -257.001z" />
    <glyph glyph-name="notequal" 
d="M540 989l111 222l157 -78l-72 -144h220v-221h-321l-73 -145h394v-221h-494l-102 -203l-157 79l63 124h-198v221h298l73 145h-371v221h472z" />
    <glyph glyph-name="AE" horiz-adv-x="1885" 
d="M1052 1150v-323h647v-215h-647v-397h751v-215h-1021v289h-406l-91 -289h-285l465 1365h1321v-215h-734zM782 490v660h-143l-199 -660h342z" />
    <glyph glyph-name="Oslash" horiz-adv-x="1483" 
d="M1257 1138c92 -130 138.001 -281.667 138.001 -455c0 -208 -61 -378.333 -183 -511s-278.667 -199 -470 -199c-159.333 0 -298.333 49.333 -417 148l-142 -155l-105 97l149 162c-92 134 -138 286.333 -138 457c0 208 61 378.333 183 511s278.667 199 470 199
c161.333 0 300.666 -49.667 417.999 -149l141 153l107 -96zM1072 942l-578.999 -647c52.667 -40.667 93.667 -67 123 -79s67.666 -18 114.999 -18c120.667 0 216.5 43.667 287.5 131s106.5 205.333 106.5 354c0 114.667 -17.667 201 -53 259zM411.002 417l576 649.001
c-56 67.333 -137.667 101 -245 101c-114.667 0 -207.167 -44.333 -277.5 -133s-105.5 -205.667 -105.5 -351c0 -88.667 17.333 -177.334 52 -266.001z" />
    <glyph glyph-name="infinity" horiz-adv-x="1365" 
d="M689 537c-97.333 -114 -206.666 -170.999 -327.999 -170.999c-95.333 0 -173.5 31.333 -234.5 94s-91.5 143 -91.5 241c0 94 31.167 171.833 93.5 233.5s141.166 92.5 236.499 92.5c114 0 218.333 -56.333 313 -169c90.667 112.667 198.667 169 324 169
c96.667 0 175.667 -30.833 237 -92.5s92 -141.167 92 -238.5c0 -96.667 -31 -175.834 -93 -237.501s-142 -92.5 -240 -92.5c-115.333 0 -218.333 57 -309 171zM804 697.001c54 -82 108.667 -123.001 164 -123.001c34 0 62.667 11.833 86 35.5s35 52.5 35 86.5
c0 34.667 -11.833 63.834 -35.5 87.501s-52.5 35.5 -86.5 35.5c-54.667 0 -109 -40.667 -163 -122zM562 696c-53.333 82 -107.667 123 -163 123c-34 0 -62.833 -11.833 -86.5 -35.5s-35.5 -52.5 -35.5 -86.5s12 -63 36 -87s53 -36 87 -36c54.667 0 108.667 40.667 162 122z
" />
    <glyph glyph-name="lessequal" 
d="M955 1349v-232l-627 -289l627 -287v-232l-887 412v207zM955 250v-229h-887v229h887z" />
    <glyph glyph-name="greaterequal" 
d="M68 309v232l627 288l-627 288v232l887 -421v-207zM68 21v229h887v-229h-887z" />
    <glyph glyph-name="yen" horiz-adv-x="1270" 
d="M54 1365h289l297 -583l293 583h284l-301 -578h240v-132h-308l-71 -133v-58h373v-132h-373v-332h-274v332h-373v132h373v58l-71 133h-302v132h232z" />
    <glyph glyph-name="partialdiff" 
d="M136 1149l32.001 213.001c266.667 -30.667 467.667 -116 603 -256c142.667 -148 214 -337 214 -567c0 -168.667 -43.5 -303.834 -130.5 -405.501s-202.167 -152.5 -345.5 -152.5c-130.667 0 -241.834 45.5 -333.501 136.5s-137.5 201.5 -137.5 331.5
c0 122.667 40.833 226.167 122.5 310.5s182.167 126.5 301.5 126.5c102.667 0 188.667 -34.333 258 -103c-50 110 -122 194.5 -216 253.5s-216.667 96.5 -368 112.5zM512.001 706.001c-64 0 -117.333 -25.333 -160 -76s-64 -114 -64 -190c0 -77.333 21.5 -142.5 64.5 -195.5
s95.833 -79.5 158.5 -79.5s115.5 26.5 158.5 79.5s64.5 118.5 64.5 196.5c0 76 -21 139.167 -63 189.5s-95 75.5 -159 75.5z" />
    <glyph glyph-name="summation" horiz-adv-x="1365" 
d="M1262 1536v-507h-220l-26 277h-694l512 -759l-512 -830h713l15 275h231v-504h-1236v254l501 805l-501 734v255h1217z" />
    <glyph glyph-name="product" horiz-adv-x="1490" 
d="M81 1536h1328v-229h-170v-1590h170v-229h-580v229h164v1590h-497v-1590h163v-229h-578v229h169v1590h-169v229z" />
    <glyph glyph-name="pi" horiz-adv-x="1334" 
d="M230 0v762h-156v221h1186v-221h-154v-762h-246v762h-384v-762h-246z" />
    <glyph glyph-name="integral" 
d="M115 -491l45.998 218.999c45.333 -12.667 82 -19 110 -19c66.667 0 104.667 32.333 114 97c2.66699 19.333 4 76 4 170v1024c0 182 9 297.667 27 347c46.667 126 151.334 189 314.001 189c46.667 0 106.334 -7 179.001 -21l-46 -219c-44 12.667 -80.667 19 -110 19
c-54 0 -89 -19.667 -105 -59c-8.66699 -21.333 -13 -88.666 -13 -201.999v-131v-899c0 -130.667 -2.5 -218.5 -7.5 -263.5s-16.833 -84.5 -35.5 -118.5c-56 -102 -155.333 -153 -298 -153c-60 0 -119.667 6.66699 -179 20z" />
    <glyph glyph-name="ordfeminine" horiz-adv-x="847" 
d="M132 593v96h582v-96h-582zM323 1205h-145.999c9.33301 66 33.666 113.667 72.999 143s99 44 179 44c87.333 0 150.5 -17.167 189.5 -51.5s58.5 -89.833 58.5 -166.5v-228c0 -50.667 7.66699 -90.667 23 -120h-152l-14 46c-56 -40.667 -116.333 -61 -181 -61
c-55.333 0 -103.833 17 -145.5 51s-62.5 73.333 -62.5 118c0 108.667 98.667 173.667 296 195c54 6 81 21.333 81 46c0 42.667 -32.333 64 -97 64c-65.333 0 -99.333 -26.667 -102 -80zM527.001 1104c-18 -10 -44.333 -19.001 -79 -27.001
c-58.667 -14 -97.667 -26.667 -117 -38s-29 -27.666 -29 -48.999c0 -39.333 30.333 -59 91 -59c89.333 0 134 37.333 134 112v61z" />
    <glyph glyph-name="ordmasculine" horiz-adv-x="847" 
d="M133 593v96h582v-96h-582zM424 1392c86 0 156.833 -27.332 212.5 -81.999s83.5 -124 83.5 -208c0 -84.667 -28 -154.334 -84 -209.001s-126.667 -82 -212 -82s-156 27.5 -212 82.5s-84 124.5 -84 208.5s27.833 153.333 83.5 208s126.5 82 212.5 82zM424 1271
c-42 0 -75.667 -15.5 -101 -46.5s-38 -71.833 -38 -122.5c0 -51.333 12.667 -92.5 38 -123.5s59 -46.5 101 -46.5s75.667 15.5 101 46.5s38 72.167 38 123.5c0 50.667 -12.667 91.5 -38 122.5s-59 46.5 -101 46.5z" />
    <glyph glyph-name="Omega" horiz-adv-x="1365" 
d="M59 0v220.996h295c-104 64.667 -179.167 138 -225.5 220s-69.5 182.667 -69.5 302c0 190 59 346.667 177 470s267.667 185 449 185c180.667 0 329.5 -61.667 446.5 -185s175.5 -280 175.5 -470c0 -119.333 -23.167 -220.166 -69.5 -302.499
s-120.833 -155.5 -223.5 -219.5h293v-221h-548v196c103.333 58.667 178.5 129.834 225.5 213.501s70.5 187.5 70.5 311.5c0 130.667 -35.167 239.334 -105.5 326.001s-158.5 130 -264.5 130c-108 0 -197.333 -43.167 -268 -129.5s-106 -195.166 -106 -326.499
c0 -239.333 99.667 -414.333 299 -525v-196h-551z" />
    <glyph glyph-name="ae" horiz-adv-x="1797" 
d="M1718 441l-729.998 -0.00195312c19.333 -180 101.666 -270 246.999 -270c98 0 169.667 43 215 129h259c-30.667 -100.667 -88.167 -180.334 -172.5 -239.001s-183.5 -88 -297.5 -88c-162 0 -288.667 58.333 -380 175c-80 -65.333 -150.167 -110.833 -210.5 -136.5
s-126.5 -38.5 -198.5 -38.5c-101.333 0 -188.5 29.5 -261.5 88.5s-109.5 129.833 -109.5 212.5c0 99.333 41.5 176.833 124.5 232.5s213.5 93.5 391.5 113.5c58 6.66699 98.5 17.334 121.5 32.001s34.5 37.334 34.5 68.001c0 38.667 -17 69.834 -51 93.501
s-78.667 35.5 -134 35.5c-120.667 0 -185 -49.333 -193 -148h-235c16 114 59 196.333 129 247s176 76 318 76c147.333 0 249.666 -43 306.999 -129c92 86 202.667 129 332 129c148.667 0 268.167 -53.333 358.5 -160s135.5 -247.667 135.5 -423zM761.002 523.998
c-40 -24.667 -92.333 -44.665 -157 -59.998c-104.667 -24.667 -175.667 -48.834 -213 -72.501s-56 -56.834 -56 -99.501c0 -36 16 -65.167 48 -87.5s74 -33.5 126 -33.5c68.667 0 127 16 175 48c29.333 20 49.5 42.167 60.5 66.5s16.5 58.5 16.5 102.5v136zM1459 605
c-17.333 151.333 -95.002 227 -233.002 227c-67.333 0 -121.166 -19.667 -161.499 -59s-64.166 -95.333 -71.499 -168h466z" />
    <glyph glyph-name="oslash" horiz-adv-x="1192" 
d="M989 850c82 -98 122.999 -215 122.999 -351c0 -152.667 -48.667 -278.5 -146 -377.5s-220.666 -148.5 -369.999 -148.5c-110 0 -208.333 28.333 -295 85l-125 -144l-92 80l125 144c-86.667 101.333 -130 221.333 -130 360c0 152.667 48.667 278.5 146 377.5
s221 148.5 371 148.5c114 0 215 -30.667 303 -92l116 134l92 -80zM822.999 668l-374 -455c56 -28 105 -42 147 -42c78 0 140.833 30 188.5 90s71.5 139.333 71.5 238c0 46 -11 102.333 -33 169zM370.999 318l379 452c-51.333 37.333 -102.666 56 -153.999 56
c-78.667 0 -141.834 -30 -189.501 -90s-71.5 -139.333 -71.5 -238c0 -61.333 12 -121.333 36 -180z" />
    <glyph glyph-name="questiondown" horiz-adv-x="1090" 
d="M655 768h-273v263h273v-263zM803 89l232 -0.000976562c-6.66699 -139.333 -54.167 -249.333 -142.5 -330s-205.5 -121 -351.5 -121c-141.333 0 -257.833 39.167 -349.5 117.5s-137.5 177.833 -137.5 298.5c0 66.667 15.5 125.334 46.5 176.001s82.833 103 155.5 157
c68 49.333 110 86.833 126 112.5s24 68.5 24 128.5h227v-39c0 -81.333 -10.5 -141 -31.5 -179s-69.5 -85 -145.5 -141c-57.333 -42 -96.5 -78.333 -117.5 -109s-31.5 -67 -31.5 -109c0 -60 21.667 -109 65 -147s99 -57 167 -57c160 0 248 80.667 264 242z" />
    <glyph glyph-name="exclamdown" horiz-adv-x="546" 
d="M410 768h-273v263h273v-263zM409 -335h-268v319l74 650h124l70 -672v-297z" />
    <glyph glyph-name="radical" horiz-adv-x="1365" 
d="M1365 1702l-0.000976562 -228.999h-371l-356 -1473h-324l-125 565h-189v229h392l43 -194c14.667 -63.333 25.667 -163 33 -299h20c16.667 191.333 51.334 396.666 104.001 615.999l188 785h585z" />
    <glyph glyph-name="florin" horiz-adv-x="1270" 
d="M855 1010l162.001 0.00195312l-25 -135h-165l-124 -683c-33.333 -183.333 -86 -308 -158 -374c-78.667 -72 -177.667 -108 -297 -108c-46 0 -85.667 4 -119 12l28 201c23.333 -3.33301 44 -5 62 -5c77.333 0 131.833 21.667 163.5 65s60.167 136.666 85.5 279.999
l110 612h-165l26 135h165l23 127c21.333 118 70.666 211 147.999 279s172 102 284 102c12.667 0 27.334 -1 44.001 -3l-34 -210c-12 1.33301 -21.667 2 -29 2c-44.667 0 -79.834 -14.333 -105.501 -43s-44.5 -74.334 -56.5 -137.001z" />
    <glyph glyph-name="approxequal" 
d="M151 712l-135.999 88.999c42.667 102.667 86.667 174.334 132 215.001s103.333 61 174 61c45.333 0 116.666 -18.667 213.999 -56c88.667 -33.333 150 -50 184 -50c56.667 0 106.667 36.667 150 110l141 -81c-47.333 -98 -95 -166.833 -143 -206.5
s-107.333 -59.5 -178 -59.5c-37.333 0 -105 18 -203 54l-97 35c-30.667 11.333 -58.667 17 -84 17c-34 0 -61.833 -9 -83.5 -27s-45.167 -51.667 -70.5 -101zM151.001 308.999l-136.001 89c43.333 103.333 87.5 175.333 132.5 216s102.833 61 173.5 61
c46 0 117.333 -18.667 214 -56c88.667 -34 150 -51 184 -51c32.667 0 59.667 7.83301 81 23.5s44.333 44.5 69 86.5l141 -81c-46.667 -98 -94.167 -166.833 -142.5 -206.5s-108.166 -59.5 -179.499 -59.5c-36.667 0 -104 18 -202 54c-94.667 35.333 -155 53 -181 53
c-34 0 -61.667 -9 -83 -27s-45 -52 -71 -102z" />
    <glyph glyph-name="Delta" horiz-adv-x="1365" 
d="M37 0l508 1365h266l516 -1365h-1290zM388 230h583l-292 836z" />
    <glyph glyph-name="glyph172" horiz-adv-x="546" 
 />
    <glyph glyph-name="Agrave" horiz-adv-x="1246" 
d="M372 292l-91 -292h-281l480 1365h303l463 -1365h-282l-91 292h-501zM433 490h380l-190 612zM637 1749l94 -249h-164l-202 249h272z" />
    <glyph glyph-name="Atilde" horiz-adv-x="1246" 
d="M372 292l-91 -292h-281l480 1365h303l463 -1365h-282l-91 292h-501zM433 490h380l-190 612zM798 1749h142.999c-5.33301 -76 -22.333 -133.667 -51 -173s-68.334 -59 -119.001 -59c-38 0 -98.333 19 -181 57c-32 14.667 -53 22 -63 22c-26.667 0 -43 -17.667 -49 -53
l-3 -18h-143c15.333 149.333 70.333 224 165 224c32.667 0 93.334 -18 182.001 -54c35.333 -14.667 58.333 -22 69 -22c30.667 0 47.334 25.333 50.001 76z" />
    <glyph glyph-name="Otilde" horiz-adv-x="1483" 
d="M742 1392c190.667 0 347 -66.335 469 -199.002s183 -302.667 183 -510c0 -208 -61 -378.333 -183 -511s-278.333 -199 -469 -199c-193.333 0 -350.5 66.833 -471.5 200.5s-181.5 306.834 -181.5 519.501c0 202.667 61.5 369.834 184.5 501.501s279.167 197.5 468.5 197.5
zM741 1167c-114.667 0 -207 -44.333 -277 -133s-105 -205.667 -105 -351c0 -146 35 -263.333 105 -352s162.333 -133 277 -133c115.333 0 208 44.333 278 133s105 206 105 352c0 145.333 -35 262.333 -105 351s-162.667 133 -278 133zM910 1749h142.999
c-5.33301 -76 -22.333 -133.667 -51 -173s-68.334 -59 -119.001 -59c-38 0 -98.333 19 -181 57c-32 14.667 -53 22 -63 22c-27.333 0 -43.666 -17.667 -48.999 -53l-3 -18h-143c15.333 149.333 70.333 224 165 224c32 0 92.667 -18 182 -54
c35.333 -14.667 58.333 -22 69 -22c30.667 0 47.334 25.333 50.001 76z" />
    <glyph glyph-name="OE" horiz-adv-x="2122" 
d="M1300 1150l0.00195312 -328h642v-215h-642v-392h740v-215h-1010v36c-92.667 -42 -194.334 -63 -305.001 -63c-184.667 0 -336.834 67.5 -456.501 202.5s-179.5 306.5 -179.5 514.5c0 201.333 59.5 368.833 178.5 502.5s268.167 200.5 447.5 200.5
c90 0 195 -24.667 315 -74v46h995v-215h-725zM1030 517v372c0 86 -25 153.833 -75 203.5s-118.333 74.5 -205 74.5c-111.333 0 -204.333 -46.667 -279 -140s-112 -209.333 -112 -348c0 -134.667 37.333 -248.5 112 -341.5s166.334 -139.5 275.001 -139.5
c93.333 0 168.666 30.667 225.999 92c23.333 24 38.833 51.333 46.5 82s11.5 79 11.5 145z" />
    <glyph glyph-name="oe" horiz-adv-x="1897" 
d="M1818 441l-730.001 0.000976562c19.333 -180 101.666 -270 246.999 -270c97.333 0 169 43 215 129h258c-30 -100.667 -87.167 -180.334 -171.5 -239.001s-183.166 -88 -296.499 -88c-161.333 0 -284.666 52.333 -369.999 157c-95.333 -104.667 -220 -157 -374 -157
c-150 0 -273.667 49.5 -371 148.5s-146 224.5 -146 376.5c0 152.667 48.667 278.5 146 377.5s221 148.5 371 148.5c155.333 0 278.333 -50.333 369 -151c84 100.667 203.667 151 359 151c148.667 0 268.167 -53.167 358.5 -159.5s135.5 -247.5 135.5 -423.5z
M594.999 826.001c-78.667 0 -141.667 -29.833 -189 -89.5s-71 -139.167 -71 -238.5c0 -98.667 23.667 -177.834 71 -237.501s110.333 -89.5 189 -89.5c79.333 0 142.666 29.833 189.999 89.5s71 138.834 71 237.501c0 99.333 -23.667 178.833 -71 238.5
s-110.666 89.5 -189.999 89.5zM1559 605.001c-17.333 152 -95 227.999 -233 227.999c-68 0 -122 -19.667 -162 -59s-64 -95.666 -72 -168.999h467z" />
    <glyph glyph-name="lozenge" horiz-adv-x="1365" 
d="M683 1419l531 -736l-531 -736l-532 736zM683 1238l-404 -555l404 -554l403 554z" />
    <glyph glyph-name="ydieresis" horiz-adv-x="979" 
d="M718 997l254.999 0.00195312l-363 -1074c-35.333 -104.667 -80.666 -175.334 -135.999 -212.001c-30 -20 -58.667 -32.667 -86 -38s-76.333 -8 -147 -8h-126v194h74c114.667 0 172 46 172 138c0 49.333 -16 115.666 -48 198.999l-308 801h271l230 -736zM168.999 1379h237
v-217h-237v217zM571.999 1379h237v-217h-237v217z" />
    <glyph glyph-name="Ydieresis" horiz-adv-x="1136" 
d="M-14 1365h289l293 -584l293 584h289l-447 -844v-521h-270v521zM231 1739h237v-217h-237v217zM667 1739h237v-217h-237v217z" />
    <glyph glyph-name="fraction" horiz-adv-x="267" 
d="M348 1355h144l-569 -1355h-144z" />
    <glyph glyph-name="fi" horiz-adv-x="1117" 
d="M400 997h183v-157h-183v-840h-249v840h-127v157h127v60c0 110 31 189 93 237s164.333 72 307 72h31v-196c-72 0 -120.333 -8.66699 -145 -26s-37 -51 -37 -101v-46zM739 1372h249v-228h-249v228zM739 997h249v-997h-249v997z" />
    <glyph glyph-name="fl" horiz-adv-x="1117" 
d="M400 997h183v-157h-183v-840h-249v840h-127v157h127v60c0 110 31 189 93 237s164.333 72 307 72h31v-196c-72 0 -120.333 -8.66699 -145 -26s-37 -51 -37 -101v-46zM740 1365h249v-1365h-249v1365z" />
    <glyph glyph-name="Ecircumflex" horiz-adv-x="1246" 
d="M145 0v1365h1006v-215h-736v-322h644v-215h-644v-398h750v-215h-1020zM492 1751h318l154 -249h-210l-106 167l-106 -167h-210z" />
    <glyph glyph-name="Egrave" horiz-adv-x="1246" 
d="M145 0v1365h1006v-215h-736v-322h644v-215h-644v-398h750v-215h-1020zM670 1749l93 -249h-164l-202 249h273z" />
    <glyph glyph-name="Idieresis" horiz-adv-x="559" 
d="M145 1365h270v-1365h-270v1365zM32 1522v216h199v-216h-199zM326 1522v216h201v-216h-201z" />
    <glyph glyph-name="Igrave" horiz-adv-x="559" 
d="M145 1365h270v-1365h-270v1365zM288 1749l93 -249h-164l-202 249h273z" />
    <glyph glyph-name="apple" horiz-adv-x="546" 
 />
    <glyph glyph-name="Ograve" horiz-adv-x="1483" 
d="M742 1392c190.667 0 347 -66.335 469 -199.002s183 -302.667 183 -510c0 -208 -61 -378.333 -183 -511s-278.333 -199 -469 -199c-193.333 0 -350.5 66.833 -471.5 200.5s-181.5 306.834 -181.5 519.501c0 202.667 61.5 369.834 184.5 501.501s279.167 197.5 468.5 197.5
zM741 1167c-114.667 0 -207 -44.333 -277 -133s-105 -205.667 -105 -351c0 -146 35 -263.333 105 -352s162.333 -133 277 -133c115.333 0 208 44.333 278 133s105 206 105 352c0 145.333 -35 262.333 -105 351s-162.667 133 -278 133zM756 1749l93 -249h-163l-202 249h272z
" />
    <glyph glyph-name="Ucircumflex" horiz-adv-x="1354" 
d="M953 1365h269.997v-776c0 -114 -3.66699 -196.333 -11 -247s-22.666 -97 -45.999 -139c-84 -153.333 -247 -230 -489 -230s-405 76.667 -489 230c-23.333 42 -38.666 88.333 -45.999 139s-11 133 -11 247v776h270v-754c0 -147.333 11 -243.666 33 -288.999
c39.333 -82.667 120.333 -124 243 -124c56.667 0 106.834 11.167 150.501 33.5s74.5 52.5 92.5 90.5c22 45.333 33 141.666 33 288.999v754zM520.997 1751h318l154 -249h-210l-106 167l-106 -167h-210z" />
    <glyph glyph-name="Ugrave" horiz-adv-x="1354" 
d="M953 1365h269.997v-776c0 -114 -3.66699 -196.333 -11 -247s-22.666 -97 -45.999 -139c-84 -153.333 -247 -230 -489 -230s-405 76.667 -489 230c-23.333 42 -38.666 88.333 -45.999 139s-11 133 -11 247v776h270v-754c0 -147.333 11 -243.666 33 -288.999
c39.333 -82.667 120.333 -124 243 -124c56.667 0 106.834 11.167 150.501 33.5s74.5 52.5 92.5 90.5c22 45.333 33 141.666 33 288.999v754zM684.997 1749l93 -249h-163l-203 249h273z" />
    <glyph glyph-name="dotlessi" horiz-adv-x="506" 
d="M128 997h249v-997h-249v997z" />
    <glyph glyph-name="circumflex" 
d="M356 1396h319l154 -249h-211l-106 167l-105 -167h-211z" />
    <glyph glyph-name="tilde" 
d="M674 1381h143c-5.33301 -76 -22.333 -133.667 -51 -173s-68.334 -59 -119.001 -59c-37.333 0 -97.666 19 -180.999 57c-32.667 14.667 -53.667 22 -63 22c-27.333 0 -43.666 -17.667 -48.999 -53l-3 -18h-143c15.333 149.333 69.666 224 162.999 224
c31.333 0 68 -8.66699 110 -26l68 -29c34 -14 59.667 -21 77 -21c29.333 0 45.333 25.333 48 76z" />
    <glyph glyph-name="macron" 
d="M185 1346h654v-157h-654v157z" />
    <glyph glyph-name="ring" 
d="M512 1492c55.333 0 102.333 -19.667 141 -59s58 -87 58 -143c0 -54 -19.5 -100.333 -58.5 -139s-85.833 -58 -140.5 -58s-101.5 19.5 -140.5 58.5s-58.5 85.833 -58.5 140.5c0 55.333 19.333 102.5 58 141.5s85.667 58.5 141 58.5zM512 1383
c-24.667 0 -45.499 -9 -62.499 -27s-25.5 -39.667 -25.5 -65c0 -24 8.66699 -44.833 26 -62.5s37.666 -26.5 60.999 -26.5c24.667 0 45.667 8.83301 63 26.5s26 38.5 26 62.5c0 26 -8.5 47.833 -25.5 65.5s-37.833 26.5 -62.5 26.5z" />
    <glyph glyph-name="eth" horiz-adv-x="1191" 
d="M182 1298l105.999 101c68 -15.333 141 -36 219 -62c10 -4 25.333 -9.33301 46 -16l198 119l91 -65l-178 -108c138.667 -85.333 247.5 -194.5 326.5 -327.5s118.5 -273.167 118.5 -420.5c0 -160.667 -47.667 -291.667 -143 -393s-218.666 -152 -369.999 -152
c-152 0 -276.667 49.333 -374 148s-146 225 -146 379c0 182 68.333 322 205 420c83.333 59.333 171.333 89 264 89c58.667 0 128.667 -21 210 -63c-66 94 -148.667 169.333 -248 226l-194 -121l-96 67l178 108c-24 9.33301 -39 15 -45 17l-69 23c-42 14 -75 24.333 -99 31z
M592.999 824c-82 0 -145.499 -29.502 -190.499 -88.502s-67.5 -142.167 -67.5 -249.5c0 -97.333 24.167 -174.166 72.5 -230.499s114.166 -84.5 197.499 -84.5c74 0 134.167 29.667 180.5 89s69.5 136.333 69.5 231c0 104.667 -23 186.334 -69 245.001s-110.333 88 -193 88z
" />
    <glyph glyph-name="Thorn" horiz-adv-x="1233" 
d="M415 291l0.000976562 -291.001h-270v1365h270v-191h273c115.333 0 205.666 -16.667 270.999 -50c68.667 -35.333 123.5 -88.666 164.5 -159.999s61.5 -149 61.5 -233c0 -92 -21.333 -173 -64 -243s-102 -121.333 -178 -154c-66.667 -28.667 -159 -43 -277 -43h-251z
M415.001 505.999h222c185.333 0 278 72.667 278 218c0 96 -35.667 164 -107 204c-37.333 20.667 -105 31 -203 31h-190v-453z" />
    <glyph glyph-name="thorn" horiz-adv-x="1175" 
d="M128 1365l249 0.000976562v-498c70.667 104.667 164 157 280 157c126.667 0 231.334 -49.167 314.001 -147.5s124 -223.5 124 -375.5c0 -156.667 -39.5 -283.834 -118.5 -381.501s-182.167 -146.5 -309.5 -146.5c-61.333 0 -113.333 12 -156 36
s-87.334 66.667 -134.001 128v-472h-249v1700zM610 826.001c-76 0 -136 -29.834 -180 -89.501s-66 -141.5 -66 -245.5c0 -94.667 22.5 -171.667 67.5 -231s103.5 -89 175.5 -89c69.333 0 125.333 29.833 168 89.5s64 138.167 64 235.5c0 98.667 -21 178.334 -63 239.001
s-97.333 91 -166 91z" />
    <glyph glyph-name="onesuperior" horiz-adv-x="815" 
d="M563 1357v-811h-177v553h-214v111c144.667 0 223.667 49 237 147h154z" />
    <glyph glyph-name="twosuperior" horiz-adv-x="815" 
d="M716 682l0.000976562 -136h-618c10 76.667 30.5 137.5 61.5 182.5s88.833 97.5 173.5 157.5c83.333 60 135.666 102.333 156.999 127s32 55 32 91c0 37.333 -11.167 67.5 -33.5 90.5s-51.166 34.5 -86.499 34.5c-88.667 0 -133 -53 -133 -159h-163
c4.66699 84 21.667 146 51 186c53.333 72.667 134 109 242 109c90 0 162.5 -24.667 217.5 -74s82.5 -114 82.5 -194c0 -52.667 -14.333 -99.167 -43 -139.5s-78.334 -83.5 -149.001 -129.5l-99 -65c-50.667 -33.333 -81.667 -60.333 -93 -81h401z" />
    <glyph glyph-name="threesuperior" horiz-adv-x="815" 
d="M263 1091h-157.997c6 88 34.667 155.667 86 203s121.666 71 210.999 71c84 0 153.833 -21.167 209.5 -63.5s83.5 -95.5 83.5 -159.5c0 -76 -42.667 -131 -128 -165c110 -33.333 165 -100.666 165 -201.999c0 -70.667 -31.333 -129.167 -94 -175.5
s-141.667 -69.5 -237 -69.5c-98.667 0 -176.334 26 -233.001 78s-85 123 -85 213h165c12.667 -103.333 65 -155 157 -155c44.667 0 81 11.167 109 33.5s42 51.833 42 88.5c0 81.333 -53.667 122 -161 122c-10.667 0 -28 -1 -52 -3v120c124 0 186 34.333 186 103
c0 29.333 -11.5 53.166 -34.5 71.499s-53.5 27.5 -91.5 27.5c-80.667 0 -127.334 -46 -140.001 -138z" />
    <glyph glyph-name="onehalf" horiz-adv-x="1897" 
d="M563 1357v-811h-177v553h-214v111c144.667 0 223.667 49 237 147h154zM1163 1355h143l-569 -1355h-143zM1798 136l-0.00195312 -136h-618c10.667 77.333 31.334 138.333 62.001 183s88 97 172 157c84.667 60 137.5 102.167 158.5 126.5s31.5 54.833 31.5 91.5
s-11.167 66.667 -33.5 90s-51.166 35 -86.499 35c-88.667 0 -133 -53 -133 -159h-163c4.66699 84 21.667 146 51 186c53.333 72.667 134 109 242 109c90 0 162.5 -24.667 217.5 -74s82.5 -114 82.5 -194c0 -52.667 -14.5 -99.167 -43.5 -139.5s-78.5 -83.5 -148.5 -129.5
l-99 -65c-50.667 -33.333 -81.667 -60.333 -93 -81h401z" />
    <glyph glyph-name="onequarter" horiz-adv-x="1897" 
d="M563 1357v-811h-177v553h-214v111c144.667 0 223.667 49 237 147h154zM1163 1355h143l-569 -1355h-143zM1717 811v-513h120v-126h-120v-172h-169v172h-388v165l384 474h173zM1548 298v316l-243 -316h243z" />
    <glyph glyph-name="threequarters" horiz-adv-x="1897" 
d="M263 1091h-157.997c6 88 34.667 155.667 86 203s121.666 71 210.999 71c84 0 153.833 -21.167 209.5 -63.5s83.5 -95.5 83.5 -159.5c0 -76 -42.667 -131 -128 -165c110 -33.333 165 -100.666 165 -201.999c0 -70.667 -31.333 -129.167 -94 -175.5
s-141.667 -69.5 -237 -69.5c-98.667 0 -176.334 26 -233.001 78s-85 123 -85 213h165c12.667 -103.333 65 -155 157 -155c44.667 0 81 11.167 109 33.5s42 51.833 42 88.5c0 81.333 -53.667 122 -161 122c-10.667 0 -28 -1 -52 -3v120c124 0 186 34.333 186 103
c0 29.333 -11.5 53.166 -34.5 71.499s-53.5 27.5 -91.5 27.5c-80.667 0 -127.334 -46 -140.001 -138zM1163 1355h144l-569 -1355h-144zM1718 811v-513h120v-126h-120v-172h-169v172h-388v165l384 474h173zM1549 298v316l-243 -316h243z" />
    <glyph glyph-name="franc" horiz-adv-x="1898" 
d="M145 0v1365h976v-215h-706v-351h607v-215h-607v-584h-270zM1303 997h248.998v-138c66.667 106 149.334 159 248.001 159c16 0 37.667 -1.66699 65 -5v-214l-40 1c-85.333 0 -152.166 -26 -200.499 -78s-72.5 -123.667 -72.5 -215v-507h-249v997z" />
    <glyph glyph-name="Gbreve" horiz-adv-x="1466" 
d="M784 740h565.001v-740h-179l-28 186c-112 -142 -259 -213 -441 -213c-172 0 -317 67 -435 201s-177 299 -177 495c0 214.667 61 388.834 183 522.501s280.667 200.5 476 200.5c152.667 0 281.5 -41.333 386.5 -124s170.167 -194.334 195.5 -335.001h-254
c-40.667 156 -145.334 234 -314.001 234c-117.333 0 -213.833 -45.667 -289.5 -137s-113.5 -207.333 -113.5 -348c0 -142 36.5 -258.167 109.5 -348.5s166.833 -135.5 281.5 -135.5c98 0 181.833 30.5 251.5 91.5s110.5 139.5 122.5 235.5h-340v215zM891.001 1749h168
c0 -46.667 -17 -93 -51 -139c-56.667 -76.667 -142.334 -115 -257.001 -115c-92.667 0 -167.667 23.5 -225 70.5s-86 108.167 -86 183.5h168c14.667 -69.333 63.334 -104 146.001 -104c72 0 117.667 34.667 137 104z" />
    <glyph glyph-name="gbreve" horiz-adv-x="1185" 
d="M827 997l230.003 0.000976562v-911c0 -82.667 -10 -147.334 -30 -194.001s-55.667 -89 -107 -127c-84.667 -62.667 -195.667 -94 -333 -94c-126.667 0 -228.334 25 -305.001 75s-124 122 -142 216h254c20.667 -76 81 -114 181 -114c155.333 0 233 79.333 233 238v119
c-70.667 -84 -167.334 -126 -290.001 -126c-128 0 -233 43.167 -315 129.5s-123 196.5 -123 330.5c0 144.667 40 261.667 120 351s184.667 134 314 134c131.333 0 235.666 -49.333 312.999 -148v121zM575.003 826.001c-72.667 0 -130.666 -25.833 -173.999 -77.5
s-65 -120.5 -65 -206.5c0 -82.667 21.667 -149.167 65 -199.5s100.333 -75.5 171 -75.5c76 0 136 24.5 180 73.5s66 116.167 66 201.5c0 84.667 -22.333 153.167 -67 205.5s-103.334 78.5 -176.001 78.5zM744.004 1394l166.999 -0.000976562
c0 -47.333 -16.667 -93.666 -50 -138.999c-57.333 -77.333 -143.333 -116 -258 -116c-92 0 -166.667 23.5 -224 70.5s-86 108.5 -86 184.5h167c14.667 -70 63.334 -105 146.001 -105c72.667 0 118.667 35 138 105z" />
    <glyph glyph-name="Idot" horiz-adv-x="559" 
d="M145 1365h270v-1365h-270v1365zM155 1739h249v-217h-249v217z" />
    <glyph glyph-name="glyph277" horiz-adv-x="779" 
d="M107 1148h167.999v-70c48.667 57.333 106 86 172 86c70.667 0 125.834 -20.667 165.501 -62s59.5 -98.333 59.5 -171v-385h-168v347c0 85.333 -35 128 -105 128c-82.667 0 -124 -46.667 -124 -140v-335h-168v602z" />
    <glyph glyph-name="glyph297" horiz-adv-x="2043" 
d="M415 482l0.00195312 -482.001h-270v1365h379c115.333 0 205.666 -16.667 270.999 -50c69.333 -35.333 124.5 -88.666 165.5 -159.999s61.5 -149 61.5 -233c0 -92 -21.333 -173 -64 -243s-102.334 -121.333 -179.001 -154c-66.667 -28.667 -158.667 -43 -276 -43h-88z
M415.002 696.999h58.001c186 0 279 72.667 279 218c0 95.333 -36 163.333 -108 204c-36.667 20.667 -104.334 31 -203.001 31h-26v-453zM1248 601.999l116 0.000976562v-106h-116v-293c0 -34.667 4 -57.334 12 -68.001s25.667 -16 53 -16c5.33301 0 19 0.666992 41 2
c11.333 0.666992 18 1 20 1v-122h-118c-72 0 -119.333 13 -142 39s-34 80.667 -34 164v293h-87v106h87v195h168v-195zM1962 414l-148.001 0.000976562c-14 54.667 -52.333 82 -115 82c-74 0 -110 -20.667 -108 -62c0.666992 -16 10.334 -27.667 29.001 -35s64 -17 136 -29
c82.667 -14 140.834 -34.833 174.501 -62.5s50.5 -68.834 50.5 -123.501c0 -60 -24.5 -108.333 -73.5 -145s-113.5 -55 -193.5 -55c-180.667 0 -278.334 72.667 -293.001 218h155c12 -63.333 56.333 -95 133 -95c33.333 0 60.333 6 81 18s31 27.667 31 47
c0 16.667 -6.66699 29 -20 37s-39.666 15 -78.999 21c-102.667 16.667 -176 39.834 -220 69.501s-66 71.167 -66 124.5c0 56 23.667 102.333 71 139s107.666 55 180.999 55c80.667 0 145 -17.833 193 -53.5s75 -85.834 81 -150.501z" />
    <glyph glyph-name="glyph298" horiz-adv-x="635" 
d="M318 815c34 0 63 -12 87 -36s36 -53 36 -87s-12 -63 -36 -87s-53 -36 -87 -36s-63 12 -87 36s-36 53 -36 87s12 63 36 87s53 36 87 36z" />
    <glyph glyph-name="glyph299" horiz-adv-x="740" 
d="M128 1365h249v-1365h-249v1365zM486 828h273v-263h-273v263z" />
    <glyph glyph-name="glyph300" horiz-adv-x="1127" 
d="M415 215h685v-215h-955v1365h270v-1150zM666 840h296v-287h-296v287z" />
    <glyph glyph-name="glyph301" horiz-adv-x="1365" 
d="M27 636l-0.000976562 103.998h1024c-20.667 26 -43.667 64.167 -69 114.5s-38 83.166 -38 98.499c0 19.333 10 29 30 29c11.333 0 27 -11.667 47 -35c71.333 -82 161.333 -152.667 270 -212c31.333 -17.333 47 -31.666 47 -42.999c0 -12.667 -6.66699 -22.667 -20 -30
l-14 -8l-26 -15l-31 -20c-96 -58.667 -176 -126 -240 -202c-11.333 -13.333 -22.666 -19.666 -33.999 -18.999c-19.333 0.666992 -29 11.334 -29 32.001c0 15.333 10.667 43.5 32 84.5s46.333 81.5 75 121.5h-1024z" />
    <glyph glyph-name="glyph302" horiz-adv-x="1365" 
d="M1338 744l0.000976562 -103.997h-1024c20.667 -26 43.667 -64 69 -114s38 -82.667 38 -98c0 -19.333 -10 -29 -30 -29c-11.333 0 -27 11.667 -47 35c-70 81.333 -160 151.666 -270 210.999c-31.333 17.333 -47 31.666 -47 42.999c0 12 6.66699 22 20 30l14 8
c69.333 39.333 125.333 75.833 168 109.5s85.667 75.834 129 126.501c11.333 13.333 22.666 19.666 33.999 18.999c19.333 -0.666992 29 -11.334 29 -32.001c0 -15.333 -10.5 -43.333 -31.5 -84s-46.167 -81 -75.5 -121h1024z" />
    <glyph glyph-name="glyph303" horiz-adv-x="1365" 
d="M312 635l12 -16.0029c23.333 -32 45.166 -67.833 65.499 -107.5s30.833 -67.167 31.5 -82.5c0.666992 -21.333 -9 -32 -29 -32c-12 0 -23.333 6.33301 -34 19l-16 19c-53.333 63.333 -127.666 124.333 -222.999 183l-32 20l-26 15l-13 8c-14 7.33301 -21 17.333 -21 30
c0 11.333 15.667 25.333 47 42c109.333 59.333 199.333 130 270 212c20 23.333 35.667 35 47 35c20 0 30 -9.66699 30 -29c0 -15.333 -12.667 -47.666 -38 -96.999s-49 -87.666 -71 -114.999h739c-20 24.667 -42.833 62.334 -68.5 113.001s-38.5 83.667 -38.5 99
c0 19.333 10.333 29 31 29c10.667 0 26 -11.667 46 -35c71.333 -82 161.333 -152.667 270 -212c31.333 -16.667 47 -30.667 47 -42c0 -12.667 -6.66699 -22.667 -20 -30l-14 -8c-6 -3.33301 -14.333 -8.33301 -25 -15l-32 -20c-96 -58.667 -176 -126 -240 -202
c-10.667 -12.667 -22 -19 -34 -19c-19.333 0 -29 10.667 -29 32c0 15.333 10.667 43.5 32 84.5s46.333 81.5 75 121.5h-739z" />
    <glyph glyph-name="glyph304" horiz-adv-x="1365" 
d="M736 27l-103.998 -0.000976562v1024c-26 -21.333 -64 -44.5 -114 -69.5s-82.667 -37.5 -98 -37.5c-19.333 0 -29 10.333 -29 31c0 10.667 11.667 26 35 46c82 71.333 152.667 161.333 212 270c16.667 31.333 30.667 47 42 47c12.667 0 22.667 -6.66699 30 -20l8 -14
l15 -26l20 -31c60 -96.667 127.333 -176.667 202 -240c13.333 -11.333 19.666 -22.666 18.999 -33.999c-0.666992 -19.333 -11.334 -29 -32.001 -29c-16 0 -44.333 10.5 -85 31.5s-81 46.167 -121 75.5v-1024z" />
    <glyph glyph-name="glyph305" horiz-adv-x="1365" 
d="M630 1338l103.998 0.000976562v-1024c26 20.667 64 43.667 114 69s82.667 38 98 38c19.333 0 29 -10.333 29 -31c0 -10.667 -11.667 -26 -35 -46c-81.333 -70.667 -152 -160.667 -212 -270c-16.667 -31.333 -30.667 -47 -42 -47c-12.667 0 -22.667 7 -30 21l-8 13
c-4 7.33301 -9 16 -15 26l-20 31c-60 96.667 -127.333 176.667 -202 240c-13.333 11.333 -19.666 22.666 -18.999 33.999c0.666992 19.333 11.334 29 32.001 29c16 0 44.333 -10.667 85 -32s81 -46.333 121 -75v1024z" />
    <glyph glyph-name="glyph306" horiz-adv-x="1365" 
d="M736 312c38 28.667 77.834 53.999 119.501 75.999s70.5 33 86.5 33c21.333 0 32 -9.66699 32 -29c0 -12 -6.33301 -23.333 -19 -34l-19 -16c-62.667 -52.667 -123.667 -127 -183 -223l-20 -32l-15 -26l-8 -13c-7.33301 -14 -17.333 -21 -30 -21
c-11.333 0 -25.333 15.667 -42 47c-60 109.333 -130.667 199.333 -212 270c-23.333 20 -35 35.667 -35 47c0 20 9.66699 30 29 30c15.333 0 47.833 -12.667 97.5 -38s87.834 -49 114.501 -71v739c-26 -20.667 -64 -43.667 -114 -69s-82.667 -38 -98 -38
c-19.333 0 -29 10 -29 30c0 11.333 11.667 27 35 47c82 71.333 152.667 161.333 212 270c16.667 31.333 30.667 47 42 47c12.667 0 22.667 -6.66699 30 -20l8 -14l15 -26l20 -31c58.667 -96 126 -176 202 -240c13.333 -11.333 19.666 -22.666 18.999 -33.999
c-0.666992 -19.333 -11.334 -29 -32.001 -29c-15.333 0 -43.5 10.667 -84.5 32s-81.5 46.333 -121.5 75v-739z" />
    <glyph glyph-name="glyph307" horiz-adv-x="1365" 
d="M736 312c38 28.667 77.834 53.999 119.501 75.999s70.5 33 86.5 33c21.333 0 32 -9.66699 32 -29c0 -12 -6.33301 -23.333 -19 -34l-19 -16c-62.667 -52.667 -123.667 -127 -183 -223l-20 -32l-15 -26l-8 -13c-7.33301 -14 -17.333 -21 -30 -21
c-11.333 0 -25.333 15.667 -42 47c-60 109.333 -130.667 199.333 -212 270c-23.333 20 -35 35.333 -35 46c0 20.667 9.66699 31 29 31c15.333 0 47.833 -12.667 97.5 -38s87.834 -49 114.501 -71v739c-26 -20.667 -64 -43.667 -114 -69s-82.667 -38 -98 -38
c-19.333 0 -29 10 -29 30c0 11.333 11.667 27 35 47c82 71.333 152.667 161.333 212 270c16.667 31.333 30.667 47 42 47c12.667 0 22.667 -6.66699 30 -20l8 -14l15 -26l20 -31c58.667 -96 126 -176 202 -240c13.333 -11.333 19.666 -22.666 18.999 -33.999
c-0.666992 -19.333 -11.334 -29 -32.001 -29c-15.333 0 -43.5 10.667 -84.5 32s-81.5 46.333 -121.5 75v-739zM413.001 -139.001h540v-88h-540v88z" />
    <glyph glyph-name="glyph308" 
d="M68 1195h887v-238h-887v238zM68 802h887v-238h-887v238zM68 408h887v-238h-887v238z" />
    <glyph glyph-name="glyph309" horiz-adv-x="1235" 
d="M1165 0l-258 0.000976562v630c0 194 -15.667 317.333 -47 370c-52.667 88.667 -133.667 133 -243 133c-108.667 0 -189 -43 -241 -129c-32.667 -54.667 -49 -179.334 -49 -374.001v-630h-258v624c0 170 5.83301 287.5 17.5 352.5s37.5 124.5 77.5 178.5
c104.667 140 255.667 210 453 210s348 -70 452 -210c40 -53.333 66 -113.5 78 -180.5s18 -183.833 18 -350.5v-624z" />
    <glyph glyph-name="glyph310" 
d="M0 -110h1024v-115h-1024v115zM0 -349h1024v-115h-1024v115z" />
    <glyph glyph-name="glyph311" 
d="M0 1783h1024v-162h-1024v162z" />
    <glyph glyph-name="glyph312" horiz-adv-x="904" 
d="M352 1365v-362l-70 -585h-127l-69 581v366h266zM357 296v-296h-276v296h276zM818 1365v-362l-70 -585h-127l-69 581v366h266zM823 296v-296h-276v296h276z" />
    <glyph glyph-name="glyph313" horiz-adv-x="1071" 
d="M125 0v1365h952v-226h-681v-1139h-271z" />
    <glyph glyph-name="glyph314" horiz-adv-x="1494" 
d="M983 788v-169h-473v169h473zM761 1399c195.333 0 353.502 -67.5 474.502 -202.5s181.5 -311.5 181.5 -529.5c0 -205.333 -61.5 -373.5 -184.5 -504.5s-281.167 -196.5 -474.5 -196.5c-204.667 0 -369.334 65.167 -494.001 195.5s-187 302.5 -187 516.5
c0 218.667 62.167 393.5 186.5 524.5s290.166 196.5 497.499 196.5zM746.002 1176c-120.667 0 -216.833 -44.502 -288.5 -133.502s-107.5 -208.833 -107.5 -359.5c0 -155.333 35.667 -276.666 107 -363.999s170 -131 296 -131c118.667 0 213.5 44.5 284.5 133.5
s106.5 207.833 106.5 356.5c0 152.667 -35.833 273.834 -107.5 363.501s-168.5 134.5 -290.5 134.5z" />
    <glyph glyph-name="glyph315" horiz-adv-x="1462" 
d="M618 -27v163.998c-145.333 10.667 -259.333 46 -342 106c-141.333 102.667 -212 249.334 -212 440.001c0 189.333 70.667 335.333 212 438c82.667 60.667 196.667 96.334 342 107.001v164h224v-164c148.667 -11.333 264.667 -48 348 -110
c138.667 -102.667 208 -247.667 208 -435c0 -188 -69.333 -333.667 -208 -437c-84 -62 -200 -98.333 -348 -109v-164h-224zM618 1012c-95.333 -12 -169.168 -47 -221.501 -105s-78.5 -133.667 -78.5 -227c0 -90 26.333 -164 79 -222s126.334 -93.667 221.001 -107v661z
M843.998 350.998c97.333 15.333 171.668 51.6689 223.001 109.002s77 132.666 77 225.999c0 90.667 -27.333 165.667 -82 225s-127.334 92.666 -218.001 99.999v-660z" />
    <glyph glyph-name="glyph316" horiz-adv-x="1285" 
d="M1242 983l-203.001 -477l232 -506h-285l-98 276l-36 -55c-62 -94.667 -119.167 -160.5 -171.5 -197.5s-115.166 -55.5 -188.499 -55.5c-120.667 0 -222.334 50.5 -305.001 151.5s-124 224.833 -124 371.5c0 151.333 41.333 276.333 124 375s187 148 313 148
c86.667 0 163 -24 229 -72c34.667 -25.333 77.334 -77 128.001 -155l31 -46l82 242h272zM824.999 506c-38.667 118 -78.333 200.668 -119 248.001s-92.667 71 -156 71c-69.333 0 -126.333 -31 -171 -93s-67 -141 -67 -237c0 -96.667 22 -175.334 66 -236.001
s101 -91 171 -91c54.667 0 101 20 139 60s74.667 107.667 110 203z" />
    <glyph glyph-name="glyph317" horiz-adv-x="1122" 
d="M936 1364l-0.00195312 -201.001h-408l249 -180c98.667 -70.667 170.334 -146.667 215.001 -228s67 -176 67 -284c0 -148.667 -45.5 -269.667 -136.5 -363s-209.5 -140 -355.5 -140c-152 0 -274 47 -366 141s-138 219 -138 375c0 86 17.167 164.833 51.5 236.5
s81.5 126.834 141.5 165.501c48.667 31.333 133.334 51.333 254.001 60l-334 253v165h760zM558.998 798.999c-75.333 0 -135.832 -29.668 -181.499 -89.001s-68.5 -138 -68.5 -236c0 -99.333 23.333 -179.166 70 -239.499s108 -90.5 184 -90.5c76.667 0 137.667 29 183 87
s68 135.667 68 233c0 106 -22.333 188.333 -67 247s-107.334 88 -188.001 88z" />
    <glyph glyph-name="glyph318" horiz-adv-x="976" 
d="M599 580l-0.00195312 -144l-31 1c-95.333 0 -162.666 -10.833 -201.999 -32.5s-59 -58.5 -59 -110.5c0 -46 18.333 -82.833 55 -110.5s85.334 -41.5 146.001 -41.5c62.667 0 110.167 13.5 142.5 40.5s55.5 72.167 69.5 135.5h241c-14 -110 -61.333 -195.833 -142 -257.5
s-185.667 -92.5 -315 -92.5c-132 0 -237.5 28.667 -316.5 86s-118.5 133.666 -118.5 228.999c0 120 65.667 201 197 243c-111.333 44.667 -167 115.334 -167 212.001c0 82 35.667 148.5 107 199.5s164 76.5 278 76.5c128 0 233.167 -31 315.5 -93
s127.166 -143.667 134.499 -245h-240c-8.66699 111.333 -71 167 -187 167c-49.333 0 -90.166 -13.333 -122.499 -40s-48.5 -60 -48.5 -100c0 -81.333 61.333 -122 184 -122z" />
    <glyph glyph-name="glyph319" horiz-adv-x="1132" 
d="M1131 982l0.000976562 -188.999h-196c51.333 -59.333 86 -111.333 104 -156s27 -101.334 27 -170.001c0 -147.333 -46.333 -267.333 -139 -360s-213 -139 -361 -139c-151.333 0 -273 48.167 -365 144.5s-138 223.5 -138 381.5c0 150 46.833 274.167 140.5 372.5
s212.167 147.5 355.5 147.5c57.333 0 112.666 -10.667 165.999 -32h406zM568.001 840.001c-78.667 0 -141.5 -31.334 -188.5 -94.001s-70.5 -146.667 -70.5 -252c0 -110 23 -196.167 69 -258.5s109.667 -93.5 191 -93.5c80 0 142 30.333 186 91s66 146 66 256
c0 110.667 -22.167 196.834 -66.5 258.501s-106.5 92.5 -186.5 92.5z" />
    <glyph glyph-name="glyph320" horiz-adv-x="840" 
d="M866 983v-202h-316v-781h-247v781h-323v202h886z" />
    <glyph glyph-name="glyph321" horiz-adv-x="546" 
 />
    </font>
</defs>
</svg>
