<?xml version="1.0" standalone="no"?>
<!DOCTYPE svg PUBLIC "-//W3C//DTD SVG 1.1//EN" "http://www.w3.org/Graphics/SVG/1.1/DTD/svg11.dtd" >
<svg>
<metadata>
Created by FontForge 20090914 at Fri Apr 26 11:57:35 2013
 By www-data
URW Software, Copyright 1993 by URW
</metadata>
<defs>
<font id="FuturaTEE-Book" horiz-adv-x="1161" >
  <font-face 
    font-family="FuturTEE"
    font-weight="300"
    font-stretch="normal"
    units-per-em="2048"
    panose-1="0 0 0 0 0 0 0 0 0 0"
    ascent="1638"
    descent="-410"
    x-height="851"
    cap-height="1365"
    bbox="-294 -512 2139 1902"
    underline-thickness="141"
    underline-position="-133"
    unicode-range="U+0020-U+00FF"
  />
<missing-glyph horiz-adv-x="512" 
d="M51 0v1365h410v-1365h-410zM410 51v1263h-308v-1263h308z" />
    <glyph glyph-name=".notdef" horiz-adv-x="512" 
d="M51 0v1365h410v-1365h-410zM410 51v1263h-308v-1263h308z" />
    <glyph glyph-name="space" unicode=" " horiz-adv-x="512" 
 />
    <glyph glyph-name="space" unicode="&#xa0;" horiz-adv-x="512" 
 />
    <glyph glyph-name="exclam" unicode="!" horiz-adv-x="571" 
d="M285 182c28 0 51.833 -9.66699 71.5 -29s29.5 -43.333 29.5 -72c0 -28 -9.83301 -51.833 -29.5 -71.5s-43.5 -29.5 -71.5 -29.5s-51.833 9.83301 -71.5 29.5s-29.5 43.5 -29.5 71.5s9.83301 51.833 29.5 71.5s43.5 29.5 71.5 29.5zM210 277v1088h149v-1088h-149z" />
    <glyph glyph-name="quotedbl" unicode="&#x22;" horiz-adv-x="675" 
d="M247 816h-111l-27 549h165zM539 816h-111l-27 549h165z" />
    <glyph glyph-name="numbersign" unicode="#" horiz-adv-x="1229" 
d="M1144 965v-123h-225l-35 -286h210v-123h-226l-54 -438l-128 18l52 420h-290l-55 -438l-128 18l53 420h-218v123h234l35 286h-218v123h233l51 411l128 -18l-49 -393h288l51 411l128 -18l-49 -393h212zM787 842h-288l-35 -286h288z" />
    <glyph glyph-name="dollar" unicode="$" 
d="M668 1377c122.667 -18 218.338 -87 287.005 -207l-120 -78c-49.333 78.667 -105 125.334 -167 140.001v-448c125.333 -54.667 212.666 -110.334 261.999 -167.001s74 -129.334 74 -218.001c0 -101.333 -30.333 -188.833 -91 -262.5s-142.334 -122.167 -245.001 -145.5
v-199h-120v190c-100.667 6 -184.834 39 -252.501 99s-113.834 143.333 -138.501 250l147 41c34 -153.333 115.333 -235.666 244 -246.999v552c-116.667 48.667 -199.334 100 -248.001 154s-73 121.667 -73 203c0 90 29 166 87 228s136 100.667 234 116v185h120v-186z
M668.004 622v-485c58 22 103 55.167 135 99.5s48 95.5 48 153.5c0 96 -61 173.333 -183 232zM548.004 837v397c-52 -12.667 -93 -37.167 -123 -73.5s-45 -79.5 -45 -129.5c0 -78 56 -142.667 168 -194z" />
    <glyph glyph-name="percent" unicode="%" horiz-adv-x="1465" 
d="M373 1379c84 0 155.667 -29.167 215 -87.5s89 -128.833 89 -211.5c0 -82 -29.667 -152 -89 -210s-131 -87 -215 -87c-84.667 0 -156.667 29 -216 87s-89 128 -89 210c0 83.333 29.667 154 89 212s131.333 87 216 87zM372 1266c-51.333 0 -94.833 -18 -130.5 -54
s-53.5 -79.333 -53.5 -130s18 -94 54 -130s79.333 -54 130 -54s93.834 18 129.501 54s53.5 79.333 53.5 130c0 51.333 -17.833 94.833 -53.5 130.5s-78.834 53.5 -129.501 53.5zM1089 1392l80 -44l-795 -1374l-79 46zM1093 582c84 0 155.499 -29.167 214.499 -87.5
s88.5 -128.833 88.5 -211.5c0 -82 -29.667 -152 -89 -210s-130.666 -87 -213.999 -87c-84 0 -155.667 29 -215 87s-89 128 -89 210c0 82.667 29.5 153.167 88.5 211.5s130.833 87.5 215.5 87.5zM1093 469c-51.333 0 -94.833 -18 -130.5 -54s-53.5 -79.333 -53.5 -130
s18 -94 54 -130s79.333 -54 130 -54s93.834 18 129.501 54s53.5 79.333 53.5 130c0 51.333 -17.833 94.833 -53.5 130.5s-78.834 53.5 -129.501 53.5z" />
    <glyph glyph-name="ampersand" unicode="&#x26;" horiz-adv-x="1303" 
d="M673 778l285.999 -367.002c50 52 101.667 112 155 180l110 -92c-50 -67.333 -108 -134.666 -174 -201.999l232 -297h-191l-148 190c-159.333 -144 -304.333 -216 -435 -216c-113.333 0 -208.166 36.833 -284.499 110.5s-114.5 165.5 -114.5 275.5
c0 82 23.333 153.833 70 215.5s131.667 132.834 255 213.501l26 18c-90 119.333 -135 216.666 -135 291.999c0 83.333 28.167 152.333 84.5 207s127.5 82 213.5 82c81.333 0 150 -26.167 206 -78.5s84 -116.5 84 -192.5c0 -62 -16.5 -116.167 -49.5 -162.5
s-96.5 -105.166 -190.5 -176.499zM549.999 694.998l-20.001 -13.001l-82 -55c-126.667 -88 -190 -177.333 -190 -268c0 -65.333 24.5 -122.666 73.5 -171.999s105.833 -74 170.5 -74c94.667 0 211.334 63.667 350.001 191zM584.998 888.997l22 16.001
c67.333 50 111 88.167 131 114.5s30 59.166 30 98.499s-14.167 72.333 -42.5 99s-63.5 40 -105.5 40s-77.5 -14.5 -106.5 -43.5s-43.5 -64.167 -43.5 -105.5c0 -42 18 -87.333 54 -136l51 -69c0.666992 -1.33301 4 -6 10 -14z" />
    <glyph glyph-name="quotesingle" unicode="'" horiz-adv-x="382" 
d="M247 816h-111l-27 549h165z" />
    <glyph glyph-name="parenleft" unicode="(" horiz-adv-x="601" 
d="M342 1502l130 -60.001c-102.667 -262 -154 -553.667 -154 -875c0 -322 51.333 -614 154 -876l-130 -60c-52.667 112.667 -94.334 252.834 -125.001 420.501s-46 339.5 -46 515.5s15.333 347.667 46 515s72.334 307.333 125.001 420z" />
    <glyph glyph-name="parenright" unicode=")" horiz-adv-x="601" 
d="M260 -369l-130 60.001c102.667 262.667 154 554.334 154 875.001c0 321.333 -51.333 613.333 -154 876l130 60c52.667 -112.667 94.334 -252.834 125.001 -420.501s46 -339.5 46 -515.5c0 -175.333 -15.333 -346.833 -46 -514.5s-72.334 -307.834 -125.001 -420.501z" />
    <glyph glyph-name="asterisk" unicode="*" 
d="M523 1239l-11 255h137l-11 -254l239 88l43 -130l-246 -68l158 -200l-110 -80l-141 212l-141 -212l-111 80l158 200l-245 68l42 130z" />
    <glyph glyph-name="plus" unicode="+" 
d="M98 633v126h419v412h126v-412h419v-126h-419v-412h-126v412h-419z" />
    <glyph glyph-name="comma" unicode="," horiz-adv-x="464" 
d="M218 200l133 -49l-205 -462l-98 39z" />
    <glyph glyph-name="hyphen" unicode="-" horiz-adv-x="371" 
d="M0 502h371v-131h-371v131z" />
    <glyph glyph-name="period" unicode="." horiz-adv-x="465" 
d="M232 182c28 0 51.833 -9.83301 71.5 -29.5s29.5 -43.5 29.5 -71.5s-9.83301 -51.833 -29.5 -71.5s-43.5 -29.5 -71.5 -29.5s-51.833 9.83301 -71.5 29.5s-29.5 43.5 -29.5 71.5s9.83301 51.833 29.5 71.5s43.5 29.5 71.5 29.5z" />
    <glyph glyph-name="slash" unicode="/" horiz-adv-x="994" 
d="M864 1502l118 -55l-893 -1816l-118 55z" />
    <glyph glyph-name="zero" unicode="0" 
d="M580 1385c140 0 256.333 -67.001 349 -201.001s139 -301.667 139 -503c0 -220 -54 -396.667 -162 -530c-92.667 -115.333 -201.667 -173 -327 -173c-127.333 0 -238 60.667 -332 182c-103.333 132.667 -155 306.334 -155 521.001c0 198.667 46.833 365.667 140.5 501
s209.5 203 347.5 203zM579 1246c-95.333 0 -175.5 -54 -240.5 -162s-97.5 -241 -97.5 -399c0 -162 32 -296.833 96 -404.5s144 -161.5 240 -161.5c96.667 0 177.667 54.167 243 162.5s98 242.5 98 402.5c0 158.667 -32.5 292 -97.5 400s-145.5 162 -241.5 162z" />
    <glyph glyph-name="one" unicode="1" 
d="M542 1223h-226l80 142h299v-1365h-153v1223z" />
    <glyph glyph-name="two" unicode="2" 
d="M413 142h572.002v-142h-882l497 575c88.667 102.667 150.167 183.667 184.5 243s51.5 114 51.5 164c0 74 -26.333 136.5 -79 187.5s-117.334 76.5 -194.001 76.5c-88.667 0 -159.334 -31.667 -212.001 -95c-32.667 -40.667 -53 -102 -61 -184h-153
c10 100.667 33 178.667 69 234c37.333 57.333 87.333 102.333 150 135s130 49 202 49c120 0 221.333 -38.667 304 -116s124 -172 124 -284c0 -76.667 -19 -149 -57 -217s-117 -170.333 -237 -307z" />
    <glyph glyph-name="three" unicode="3" 
d="M520 649l-0.000976562 132.999c85.333 0 151.833 20.5 199.5 61.5s71.5 98.167 71.5 171.5c0 66.667 -21.833 122 -65.5 166s-98.167 66 -163.5 66c-71.333 0 -125 -16.667 -161 -50s-61 -89.666 -75 -168.999h-150c18.667 122.667 58.834 213 120.501 271
s148.167 87 259.5 87s203.333 -34.667 276 -104s109 -157 109 -263c0 -136 -58.333 -236.667 -175 -302c130 -61.333 195 -173 195 -335c0 -115.333 -40.333 -211.5 -121 -288.5s-181.667 -115.5 -303 -115.5c-71.333 0 -137.5 15.167 -198.5 45.5s-109.5 72.5 -145.5 126.5
c-34.667 51.333 -54.667 119.333 -60 204h147c11.333 -75.333 39.833 -133.333 85.5 -174s104.834 -61 177.501 -61c75.333 0 138.833 26.167 190.5 78.5s77.5 116.5 77.5 192.5c0 82.667 -25.333 146.5 -76 191.5s-122.334 67.5 -215.001 67.5z" />
    <glyph glyph-name="four" unicode="4" 
d="M891 362h168v-138h-168v-224h-152v224h-700l852 1217v-1079zM739 362v617l-433 -617h433z" />
    <glyph glyph-name="five" unicode="5" 
d="M977 1223l-437.004 0.000976562l-88 -292c26.667 5.33301 52 8 76 8c132.667 0 242.334 -44.833 329.001 -134.5s130 -203.167 130 -340.5c0 -138.667 -47.667 -254.334 -143 -347.001s-214.666 -139 -357.999 -139c-179.333 0 -318.666 81 -417.999 243l121 86
c78.667 -125.333 181.334 -188 308.001 -188c96.667 0 177.5 33.333 242.5 100s97.5 149.667 97.5 249c0 94 -32.5 173.5 -97.5 238.5s-144.833 97.5 -239.5 97.5c-78 0 -166 -31 -264 -93l198 654h543v-142z" />
    <glyph glyph-name="six" unicode="6" 
d="M687 1399l114.001 -86l-315 -437c44.667 12.667 85.667 19 123 19c123.333 0 227.666 -43.667 312.999 -131s128 -194 128 -320c0 -128.667 -46 -238.5 -138 -329.5s-202.667 -136.5 -332 -136.5c-130 0 -241 45.5 -333 136.5s-138 200.833 -138 329.5
c0 102.667 37.333 206 112 310zM579.001 760c-88 0 -163.333 -31.333 -226 -94s-94 -138 -94 -226c0 -88.667 31.333 -164.334 94 -227.001s138 -94 226 -94c88.667 0 164.334 31.333 227.001 94s94 138.334 94 227.001s-31.333 164.167 -94 226.5
s-138.334 93.5 -227.001 93.5z" />
    <glyph glyph-name="seven" unicode="7" 
d="M895 1223h-745v142h1005l-915 -1397l-119 80z" />
    <glyph glyph-name="eight" unicode="8" 
d="M378 710c-112 68 -167.999 167.333 -167.999 298c0 107.333 36.667 197 110 269s164.666 108 273.999 108c108 0 198.5 -35.667 271.5 -107s109.5 -160 109.5 -266c0 -62 -15.5 -120.333 -46.5 -175s-72.5 -97 -124.5 -127c62 -30 110.5 -74 145.5 -132
s52.5 -123.667 52.5 -197c0 -116.667 -39 -213 -117 -289s-177 -114 -297 -114c-118 0 -216.333 38.333 -295 115s-118 172.667 -118 288c0 150 67.667 259.667 203 329zM592.001 1246c-65.333 0 -121.166 -23.167 -167.499 -69.5s-69.5 -102.166 -69.5 -167.499
s23.167 -121.333 69.5 -168s102.166 -70 167.499 -70s121.166 23.167 167.499 69.5s69.5 102.5 69.5 168.5c0 65.333 -23.167 121.166 -69.5 167.499s-102.166 69.5 -167.499 69.5zM589.001 642c-73.333 0 -135.668 -25.5 -187.001 -76.5s-77 -112.5 -77 -184.5
s25.833 -133.667 77.5 -185s113.834 -77 186.501 -77s134.667 25.5 186 76.5s77 112.833 77 185.5c0 72 -25.667 133.5 -77 184.5s-113.333 76.5 -186 76.5z" />
    <glyph glyph-name="nine" unicode="9" 
d="M473 -33l-113.999 85l315 437c-44.667 -12 -85.334 -18 -122.001 -18c-124 0 -228.667 43.5 -314 130.5s-128 193.5 -128 319.5c0 128 46 237.333 138 328s203 136 333 136s241 -45.333 333 -136s138 -200 138 -328c0 -101.333 -38 -204.333 -114 -309zM581.001 1246
c-88.667 0 -164.334 -31.167 -227.001 -93.5s-94 -137.833 -94 -226.5c0 -88 31.333 -163.333 94 -226s138.334 -94 227.001 -94s164.334 31.167 227.001 93.5s94 137.833 94 226.5s-31.333 164.167 -94 226.5s-138.334 93.5 -227.001 93.5z" />
    <glyph glyph-name="colon" unicode=":" horiz-adv-x="465" 
d="M232 182c28 0 51.833 -9.83301 71.5 -29.5s29.5 -43.5 29.5 -71.5s-9.83301 -51.833 -29.5 -71.5s-43.5 -29.5 -71.5 -29.5s-51.833 9.83301 -71.5 29.5s-29.5 43.5 -29.5 71.5s9.83301 51.833 29.5 71.5s43.5 29.5 71.5 29.5zM231 870c28 0 51.833 -9.83301 71.5 -29.5
s29.5 -43.167 29.5 -70.5c0 -28 -9.83301 -51.833 -29.5 -71.5s-43.5 -29.5 -71.5 -29.5c-27.333 0 -50.833 9.83301 -70.5 29.5s-29.5 43.5 -29.5 71.5c0 27.333 9.83301 50.833 29.5 70.5s43.167 29.5 70.5 29.5z" />
    <glyph glyph-name="semicolon" unicode=";" horiz-adv-x="464" 
d="M218 200l134 -49l-206 -462l-98 39zM264 870c28.667 0 52.667 -9.66699 72 -29s29 -43 29 -71s-9.83301 -51.833 -29.5 -71.5s-43.5 -29.5 -71.5 -29.5c-27.333 0 -50.833 9.83301 -70.5 29.5s-29.5 43.5 -29.5 71.5c0 27.333 9.83301 50.833 29.5 70.5
s43.167 29.5 70.5 29.5z" />
    <glyph glyph-name="less" unicode="&#x3c;" horiz-adv-x="1024" 
d="M955 1173v-153l-723 -330l723 -331v-153l-887 418v133z" />
    <glyph glyph-name="equal" unicode="=" 
d="M98 764v119h964v-119h-964zM98 509v119h964v-119h-964z" />
    <glyph glyph-name="greater" unicode="&#x3e;" horiz-adv-x="1024" 
d="M69 206v153l723 331l-723 330v153l887 -417v-133z" />
    <glyph glyph-name="question" unicode="?" horiz-adv-x="893" 
d="M592 586l146 0.00390625c0 -92.667 -27 -168 -81 -226s-124.667 -87 -212 -87c-84.667 0 -155 28.167 -211 84.5s-84 126.5 -84 210.5c0 68.667 19.667 125 59 169s102.333 79.667 189 107c97.333 31.333 160 59.666 188 84.999s42 66.666 42 123.999
c0 54.667 -17.5 99.667 -52.5 135s-79.5 53 -133.5 53c-50.667 0 -93.334 -16.833 -128.001 -50.5s-52 -74.834 -52 -123.501c0 -23.333 4 -53.666 12 -90.999h-150c-5.33301 39.333 -8 73.333 -8 102c0 85.333 32.167 157.166 96.5 215.499s143.5 87.5 237.5 87.5
c92.667 0 170.334 -31.333 233.001 -94s94 -140 94 -232c0 -104 -34.667 -186 -104 -246c-37.333 -32.667 -116.333 -66.334 -237 -101.001c-92.667 -26.667 -139 -77 -139 -151c0 -40.667 14.333 -75.167 43 -103.5s63.667 -42.5 105 -42.5
c89.333 0 138.333 58.333 147 175zM446 182.004c28 0 51.833 -9.83301 71.5 -29.5s29.5 -43.5 29.5 -71.5s-9.83301 -51.833 -29.5 -71.5s-43.5 -29.5 -71.5 -29.5s-51.833 9.83301 -71.5 29.5s-29.5 43.5 -29.5 71.5s9.83301 51.833 29.5 71.5s43.5 29.5 71.5 29.5z" />
    <glyph glyph-name="at" unicode="@" horiz-adv-x="1474" 
d="M1109 1040l-55.001 -464c-4.66699 -36.667 -7 -69.667 -7 -99c0 -40 17.667 -60 53 -60c49.333 0 93.333 35.833 132 107.5s58 152.5 58 242.5c0 147.333 -49.5 267.333 -148.5 360s-227.167 139 -384.5 139c-160.667 0 -296.334 -56.5 -407.001 -169.5
s-166 -251.5 -166 -415.5c0 -94.667 20.5 -183.5 61.5 -266.5s98.5 -151.167 172.5 -204.5c98.667 -72 222.667 -108 372 -108c144 0 289 35.333 435 106l14 6l44 -120l-11 -6c-154 -74.667 -314.333 -112 -481 -112c-180.667 0 -332.667 44.667 -456 134
c-89.333 65.333 -159 148.5 -209 249.5s-75 208.5 -75 322.5c0 199.333 68.333 367 205 503s305.334 204 506.001 204c186 0 341 -58.167 465 -174.5s186 -262.166 186 -437.499c0 -132 -32.833 -246.5 -98.5 -343.5s-143.167 -145.5 -232.5 -145.5c-72 0 -121 40 -147 120
c-75.333 -82.667 -158.666 -124 -249.999 -124c-98.667 0 -180.667 35.167 -246 105.5s-98 159.166 -98 266.499c0 116 36.667 211.833 110 287.5s166.333 113.5 279 113.5c94.667 0 172.667 -38.667 234 -116l11 99h134zM731.999 924
c-66.667 0 -122.668 -26.168 -168.001 -78.501s-68 -117.166 -68 -194.499c0 -68 18.333 -124 55 -168s83.334 -66 140.001 -66c66 0 123.167 29.167 171.5 87.5s72.5 127.166 72.5 206.499c0 62.667 -19 113.834 -57 153.501s-86.667 59.5 -146 59.5z" />
    <glyph glyph-name="A" unicode="A" horiz-adv-x="1269" 
d="M928 386h-583l-165 -386h-166l629 1430l613 -1430h-167zM868 528l-228 547l-233 -547h461z" />
    <glyph glyph-name="B" unicode="B" horiz-adv-x="1085" 
d="M177 0l-0.000976562 1365h248c151.333 0 262.333 -35.667 333 -107c68 -70 102 -157.667 102 -263c0 -112 -45 -200.667 -135 -266c80.667 -23.333 143.834 -65.5 189.501 -126.5s68.5 -133.833 68.5 -218.5c0 -106.667 -37.667 -196.334 -113 -269.001
c-43.333 -41.333 -92 -70.833 -146 -88.5s-123 -26.5 -207 -26.5h-340zM329.999 763.001h113.999c90.667 0 157.834 19 201.501 57s65.5 96.333 65.5 175c0 152 -87.667 228 -263 228h-118v-460zM329.998 142.001l174.001 -0.000976562c68 0 120.167 5.33301 156.5 16
s69.166 30 98.499 58c48 46.667 72 105 72 175c0 78.667 -30.667 140.334 -92 185.001c-50.667 38 -135.667 57 -255 57h-154v-491z" />
    <glyph glyph-name="C" unicode="C" horiz-adv-x="1323" 
d="M1220 1253l-0.000976562 -188.999c-128 120.667 -266.667 181 -416 181c-148 0 -276.333 -55.833 -385 -167.5s-163 -243.834 -163 -396.501c0 -172.667 62.667 -313 188 -421c108.667 -94.667 230 -142 364 -142c146.667 0 284 59.667 412 179v-189
c-129.333 -88.667 -265 -133 -407 -133c-195.333 0 -362.666 68.833 -501.999 206.5s-209 302.834 -209 495.501c0 195.333 69.833 362.666 209.5 501.999s307.167 209 502.5 209c142 0 277.333 -45 406 -135z" />
    <glyph glyph-name="D" unicode="D" horiz-adv-x="1297" 
d="M177 0v1365h280c122 0 226.5 -15.833 313.5 -47.5s164.833 -82.5 233.5 -152.5c126.667 -128 190 -289.667 190 -485c0 -192 -64.667 -352.333 -194 -481c-71.333 -70.667 -149.5 -121.5 -234.5 -152.5s-188.5 -46.5 -310.5 -46.5h-278zM330 142l133 -0.000976562
c180.667 0 322.667 52.333 426 157c100.667 102.667 151 230.334 151 383.001c0 154 -50 282 -150 384c-102 104.667 -244.333 157 -427 157h-133v-1081z" />
    <glyph glyph-name="E" unicode="E" horiz-adv-x="987" 
d="M884 1223h-554v-405h539v-142h-539v-534h554v-142h-707v1365h707v-142z" />
    <glyph glyph-name="F" unicode="F" horiz-adv-x="887" 
d="M798 1223h-468v-405h453v-142h-453v-676h-153v1365h621v-142z" />
    <glyph glyph-name="G" unicode="G" horiz-adv-x="1552" 
d="M881 685l569.001 -0.000976562v-35c0 -108 -12.5 -198.167 -37.5 -270.5s-67.167 -139.166 -126.5 -200.499c-129.333 -136 -290.333 -204 -483 -204s-357.667 69 -495 207s-206 303.667 -206 497c0 198 70 365.667 210 503s310.667 206 512 206
c111.333 0 211.833 -23.5 301.5 -70.5s178.167 -122.5 265.5 -226.5l-112 -102c-130 170.667 -282 256 -456 256c-158.667 0 -292.834 -55 -402.501 -165s-164.5 -244.333 -164.5 -403c0 -153.333 54.5 -284.833 163.5 -394.5s239.833 -164.5 392.5 -164.5
c72 0 144 17.667 216 53s130.333 81.333 175 138c49.333 62.667 77 140.667 83 234h-405v142z" />
    <glyph glyph-name="H" unicode="H" horiz-adv-x="1359" 
d="M330 810h698v555h153v-1365h-153v668h-698v-668h-153v1365h153v-555z" />
    <glyph glyph-name="I" unicode="I" horiz-adv-x="508" 
d="M330 1365v-1365h-153v1365h153z" />
    <glyph glyph-name="J" unicode="J" horiz-adv-x="629" 
d="M451 1365l-0.000976562 -1103c0 -152 -31.667 -259 -95 -321c-56.667 -55.333 -123.667 -83 -201 -83c-84 0 -167.667 34 -251 102l85 117c56.667 -50.667 109.334 -76 158.001 -76c52.667 0 91 20.833 115 62.5s36 107.834 36 198.501v1103h153z" />
    <glyph glyph-name="K" unicode="K" horiz-adv-x="1165" 
d="M330 779l582 586h204l-640 -636l661 -729h-209l-559 626l-39 -38v-588h-153v1365h153v-586z" />
    <glyph glyph-name="L" unicode="L" horiz-adv-x="733" 
d="M330 1365v-1223h375v-142h-528v1365h153z" />
    <glyph glyph-name="M" unicode="M" horiz-adv-x="1767" 
d="M130 0l226 1443l524 -1154l536 1154l212 -1443h-156l-128 950l-465 -1007l-459 1007l-134 -950h-156z" />
    <glyph glyph-name="N" unicode="N" horiz-adv-x="1571" 
d="M177 0v1422l1064 -1114v1057h153v-1427l-1064 1114v-1052h-153z" />
    <glyph glyph-name="O" unicode="O" horiz-adv-x="1626" 
d="M814 1388c194 0 360.667 -69.5 500 -208.5s209 -305.167 209 -498.5s-69.667 -359.333 -209 -498s-306 -208 -500 -208c-182 0 -342 61.667 -480 185c-154.667 137.333 -232 314 -232 530c0 188.667 70.5 352.167 211.5 490.5s307.833 207.5 500.5 207.5zM813 1245
c-152.667 0 -283.667 -54.667 -393 -164s-164 -240 -164 -392c0 -159.333 54 -294.333 162 -405s239.667 -166 395 -166c153.333 0 284.333 55 393 165s163 242.333 163 397c0 156.667 -54 290 -162 400s-239.333 165 -394 165z" />
    <glyph glyph-name="P" unicode="P" horiz-adv-x="937" 
d="M330 598l-0.000976562 -598h-153v1365h248c92 0 166.5 -9.33301 223.5 -28s105.833 -49.667 146.5 -93c66.667 -71.333 100 -159.333 100 -264c0 -118 -38.667 -211.167 -116 -279.5s-182.666 -102.5 -315.999 -102.5h-133zM329.999 737h123.999
c92.667 0 164.334 21.5 215.001 64.5s76 104.167 76 183.5c0 158.667 -100.667 238 -302 238h-113v-486z" />
    <glyph glyph-name="Q" unicode="Q" horiz-adv-x="1626" 
d="M1531 -14l-194 0.000976562l-115 123c-123.333 -89.333 -260.333 -134 -411 -134c-196 0 -363.167 68.667 -501.5 206s-207.5 303.333 -207.5 498c0 195.333 69.667 362.333 209 501s307 208 503 208c195.333 0 362.333 -69.833 501 -209.5s208 -307.834 208 -504.501
c0 -172 -65.333 -332 -196 -480zM986 549.001l234 -245.999c99.333 110.667 149 237 149 379c0 156 -54 288.833 -162 398.5s-239.333 164.5 -394 164.5c-156 0 -287.833 -54.5 -395.5 -163.5s-161.5 -242.5 -161.5 -400.5c0 -164.667 57 -300.334 171 -407.001
c110.667 -103.333 238 -155 382 -155c112.667 0 214.667 32.667 306 98l-329 332h200z" />
    <glyph glyph-name="R" unicode="R" horiz-adv-x="1029" 
d="M533 611l434 -611h-186l-412 599h-39v-599h-153v1365h221c162 0 280.333 -32 355 -96c82 -70 123 -163.667 123 -281c0 -106 -30.833 -193 -92.5 -261s-145.167 -106.667 -250.5 -116zM330 733h95c200.667 0 301 85 301 255c0 76.667 -26 135 -78 175
s-127.667 60 -227 60h-91v-490z" />
    <glyph glyph-name="S" unicode="S" horiz-adv-x="1059" 
d="M906 1175l-120 -79.0029c-35.333 56 -70 94.833 -104 116.5s-77.333 32.5 -130 32.5c-64 0 -117.667 -20.167 -161 -60.5s-65 -90.5 -65 -150.5c0 -80.667 64 -149 192 -205l130 -57c110 -48.667 189 -102.167 237 -160.5s72 -130.166 72 -215.499
c0 -118 -41.5 -217.667 -124.5 -299s-184.833 -122 -305.5 -122c-110 0 -201.833 30.667 -275.5 92s-123.5 148.333 -149.5 261l148 41c18 -82.667 50.167 -145.167 96.5 -187.5s105.5 -63.5 177.5 -63.5c78.667 0 144.834 25.833 198.501 77.5s80.5 115.5 80.5 191.5
c0 56.667 -17 103.834 -51 141.501s-94 75.834 -180 114.501l-124 56c-98 44.667 -168.5 93.167 -211.5 145.5s-64.5 116.833 -64.5 193.5c0 99.333 36.5 182.5 109.5 249.5s163.833 100.5 272.5 100.5c153.333 0 270.666 -71 351.999 -213z" />
    <glyph glyph-name="T" unicode="T" horiz-adv-x="870" 
d="M510 1223v-1223h-153v1223h-330v142h815v-142h-332z" />
    <glyph glyph-name="U" unicode="U" horiz-adv-x="1328" 
d="M330 1365l0.00390625 -835.997c0 -80.667 4.5 -141.334 13.5 -182.001s25.833 -76.334 50.5 -107.001c29.333 -36.667 68.666 -66.167 117.999 -88.5s99.666 -33.5 150.999 -33.5c52 0 102.667 11.167 152 33.5s88.666 51.833 117.999 88.5
c24.667 31.333 41.5 67.166 50.5 107.499s13.5 100.833 13.5 181.5v836h153v-878c0 -154.667 -39.667 -274 -119 -358c-96.667 -102.667 -219.334 -154 -368.001 -154c-148 0 -270.333 51.333 -367 154c-79.333 84 -119 203.333 -119 358v878h153z" />
    <glyph glyph-name="V" unicode="V" horiz-adv-x="1135" 
d="M181 1365l388 -1041l387 1041h166l-555 -1446l-553 1446h167z" />
    <glyph glyph-name="W" unicode="W" horiz-adv-x="1957" 
d="M181 1365l363 -1024l428 1094l404 -1094l401 1024h166l-572 -1436l-402 1092l-431 -1093l-524 1437h167z" />
    <glyph glyph-name="X" unicode="X" horiz-adv-x="1028" 
d="M431 706l-368 659h172l283 -514l289 514h175l-377 -659l396 -706h-171l-314 560l-317 -560h-172z" />
    <glyph glyph-name="Y" unicode="Y" horiz-adv-x="1081" 
d="M461 587l-447 778h176l348 -609l353 609h177l-454 -778v-587h-153v587z" />
    <glyph glyph-name="Z" unicode="Z" horiz-adv-x="1094" 
d="M301 142h726v-142h-979l745 1223h-649v142h902z" />
    <glyph glyph-name="bracketleft" unicode="[" horiz-adv-x="597" 
d="M314 1356v-1578h194v-138h-344v1854h344v-138h-194z" />
    <glyph glyph-name="backslash" unicode="\" horiz-adv-x="994" 
d="M129 1502l893 -1816l-118 -55l-893 1816z" />
    <glyph glyph-name="bracketright" unicode="]" horiz-adv-x="597" 
d="M283 -222v1578h-194v138h344v-1854h-344v138h194z" />
    <glyph glyph-name="asciicircum" unicode="^" horiz-adv-x="1024" 
d="M216 745h-166l361 625h202l361 -625h-167l-296 502z" />
    <glyph glyph-name="underscore" unicode="_" horiz-adv-x="1024" 
d="M0 -132h1024v-141h-1024v141z" />
    <glyph glyph-name="grave" unicode="`" horiz-adv-x="1024" 
d="M233 1275l151 68l216 -296l-91 -51z" />
    <glyph glyph-name="a" unicode="a" horiz-adv-x="1073" 
d="M788 851l146 0.000976562v-851h-146v118c-80 -95.333 -178.667 -143 -296 -143c-116.667 0 -213.667 42.833 -291 128.5s-116 193.5 -116 323.5c0 129.333 38.5 235.666 115.5 318.999s174.833 125 293.5 125c116 0 214 -47 294 -141v121zM512 739.001
c-78 0 -143.833 -29.668 -197.5 -89.001s-80.5 -132 -80.5 -218c0 -94.667 26.167 -172.5 78.5 -233.5s119.5 -91.5 201.5 -91.5c84.667 0 153.167 29.833 205.5 89.5s78.5 137.834 78.5 234.501c0 90.667 -26.667 164.667 -80 222s-122 86 -206 86z" />
    <glyph glyph-name="b" unicode="b" horiz-adv-x="1073" 
d="M285 1494v-765c80.667 94 178.667 141 294 141c118.667 0 216.5 -41.667 293.5 -125s115.5 -189.333 115.5 -318c0 -130 -38.667 -237.833 -116 -323.5s-174.333 -128.5 -291 -128.5c-119.333 0 -218 47.667 -296 143v-118h-146v1494h146zM562 738
c-84.667 0 -153.667 -28.667 -207 -86s-80 -131.333 -80 -222c0 -96 26.167 -173.833 78.5 -233.5s120.833 -89.5 205.5 -89.5c79.333 0 145.833 30 199.5 90s80.5 134.333 80.5 223c0 92 -26.167 168 -78.5 228s-118.5 90 -198.5 90z" />
    <glyph glyph-name="c" unicode="c" horiz-adv-x="892" 
d="M801 789l0.000976562 -191.999c-46.667 52 -89.834 88.5 -129.501 109.5s-85.834 31.5 -138.501 31.5c-84.667 0 -155.834 -30.333 -213.501 -91s-86.5 -135.667 -86.5 -225c0 -88.667 28.333 -163.167 85 -223.5s126.334 -90.5 209.001 -90.5
c55.333 0 103.666 11 144.999 33s86.333 60.667 135 116v-193c-93.333 -59.333 -183.666 -89 -270.999 -89c-127.333 0 -234.5 42.833 -321.5 128.5s-130.5 191.167 -130.5 316.5c0 127.333 43.5 234.166 130.5 320.499s194.833 129.5 323.5 129.5
c92.667 0 180.334 -27 263.001 -81z" />
    <glyph glyph-name="d" unicode="d" horiz-adv-x="1073" 
d="M788 1494h146v-1494h-146v118c-78 -95.333 -176.667 -143 -296 -143c-116.667 0 -213.667 42.833 -291 128.5s-116 193.5 -116 323.5c0 128.667 38.5 234.667 115.5 318s174.833 125 293.5 125c115.333 0 213.333 -47 294 -141v765zM512 738
c-78.667 0 -144.667 -29.5 -198 -88.5s-80 -131.5 -80 -217.5c0 -94.667 26.167 -172.5 78.5 -233.5s119.5 -91.5 201.5 -91.5c84.667 0 153.167 29.833 205.5 89.5s78.5 137.5 78.5 233.5c0 90.667 -26.667 164.667 -80 222s-122 86 -206 86z" />
    <glyph glyph-name="e" unicode="e" horiz-adv-x="986" 
d="M902 395l-663.001 -0.000976562c4 -87.333 30.667 -157.166 80 -209.499s112.666 -78.5 189.999 -78.5c56.667 0 104.334 13.167 143.001 39.5s78.334 72.833 119.001 139.5l123 -69c-92.667 -161.333 -223.667 -242 -393 -242c-123.333 0 -223.5 41.833 -300.5 125.5
s-115.5 192.5 -115.5 326.5c0 130 38.667 236.333 116 319s176.333 124 297 124s218.167 -41 292.5 -123s111.5 -189.667 111.5 -323v-29zM747.999 517.999c-13.333 66.667 -42.5 120 -87.5 160s-98.833 60 -161.5 60c-62 0 -116.5 -20.667 -163.5 -62
s-76.167 -94 -87.5 -158h500z" />
    <glyph glyph-name="f" unicode="f" horiz-adv-x="490" 
d="M286 716l-0.000976562 -716h-146v716h-81v135h81v360c0 204 82.667 306 248 306c34.667 0 71.667 -6 111 -18v-148c-37.333 14 -69.666 21 -96.999 21c-45.333 0 -76 -13.333 -92 -40s-24 -78 -24 -154v-327h213v-135h-213z" />
    <glyph glyph-name="g" unicode="g" horiz-adv-x="1075" 
d="M936 851l0.00195312 -831.999c0 -93.333 -7.83301 -166.5 -23.5 -219.5s-43.5 -101.5 -83.5 -145.5c-78.667 -85.333 -183.334 -128 -314.001 -128c-120.667 0 -219.834 36.667 -297.501 110s-116.5 167 -116.5 281h145c6.66699 -84.667 33.167 -149 79.5 -193
s110.166 -66 191.499 -66c182 0 273 112 273 336v124c-82.667 -94 -182.667 -141 -300 -141c-115.333 0 -211.666 42.5 -288.999 127.5s-116 190.833 -116 317.5c0 129.333 39 236.666 117 321.999s176.333 128 295 128c116 0 213.667 -47 293 -141v120h146z
M513.002 740.001c-80.667 0 -147.333 -29.667 -200 -89s-79 -134.666 -79 -225.999c0 -93.333 26 -169.333 78 -228s119.333 -88 202 -88c82 0 149.667 29.667 203 89s80 134.666 80 225.999c0 92.667 -26.5 168.5 -79.5 227.5s-121.167 88.5 -204.5 88.5z" />
    <glyph glyph-name="h" unicode="h" horiz-adv-x="961" 
d="M139 1494h145.999v-743c68 79.333 150 119 246 119c94.667 0 169.334 -31.333 224.001 -94c44.667 -50.667 67 -133.667 67 -249v-527h-146v517c0 78 -13.833 134.333 -41.5 169s-72.5 52 -134.5 52c-76 0 -130.833 -24.667 -164.5 -74s-50.5 -129 -50.5 -239v-425h-146
v1494z" />
    <glyph glyph-name="i" unicode="i" horiz-adv-x="425" 
d="M285 851v-851h-146v851h146zM212 1275c29.333 0 54.166 -10.167 74.499 -30.5s30.5 -44.833 30.5 -73.5c0 -29.333 -10.167 -54.166 -30.5 -74.499s-45.166 -30.5 -74.499 -30.5c-28.667 0 -53.167 10.167 -73.5 30.5s-30.5 45.166 -30.5 74.499
c0 28.667 10.167 53.167 30.5 73.5s44.833 30.5 73.5 30.5z" />
    <glyph glyph-name="j" unicode="j" horiz-adv-x="425" 
d="M285 851v-1330h-146v1330h146zM212 1275c29.333 0 54.166 -10.167 74.499 -30.5s30.5 -44.833 30.5 -73.5c0 -29.333 -10.167 -54.166 -30.5 -74.499s-45.166 -30.5 -74.499 -30.5c-28.667 0 -53.167 10.167 -73.5 30.5s-30.5 45.166 -30.5 74.499
c0 28.667 10.167 53.167 30.5 73.5s44.833 30.5 73.5 30.5z" />
    <glyph glyph-name="k" unicode="k" horiz-adv-x="862" 
d="M285 1494v-957l308 314h194l-364 -362l433 -489h-191l-344 387l-36 -37v-350h-146v1494h146z" />
    <glyph glyph-name="l" unicode="l" horiz-adv-x="425" 
d="M285 1494v-1494h-146v1494h146z" />
    <glyph glyph-name="m" unicode="m" horiz-adv-x="1393" 
d="M139 851h145.999v-91c56 74.667 126 112 210 112c105.333 0 183 -46.333 233 -139c54 92.667 137 139 249 139c90.667 0 159.334 -28 206.001 -84s70 -138.667 70 -248v-540h-146v516c0 148.667 -51 223 -153 223c-121.333 0 -182 -89 -182 -267v-472h-146v505
c0 156 -51.333 234 -154 234c-124.667 0 -187 -92 -187 -276v-463h-146v851z" />
    <glyph glyph-name="n" unicode="n" horiz-adv-x="960" 
d="M139 851h145.999v-103c66.667 82 148.334 123 245.001 123c193.333 0 290 -114.333 290 -343v-528h-146v503c0 86.667 -13.333 147.667 -40 183s-72.667 53 -138 53c-74 0 -127.667 -24.833 -161 -74.5s-50 -129.5 -50 -239.5v-425h-146v851z" />
    <glyph glyph-name="o" unicode="o" horiz-adv-x="1068" 
d="M533 870c126.667 0 233.334 -43.168 320.001 -129.501s130 -192.166 130 -317.499c0 -126 -43.333 -232.167 -130 -318.5s-193.334 -129.5 -320.001 -129.5s-233 43.667 -319 131s-129 195.333 -129 324c0 120.667 43.833 224.167 131.5 310.5s193.167 129.5 316.5 129.5
zM531 737.999c-86 0 -156.998 -30 -212.998 -90s-84 -135.667 -84 -227c0 -90 28.167 -164.833 84.5 -224.5s127.166 -89.5 212.499 -89.5c88 0 160.5 29.5 217.5 88.5s85.5 134.167 85.5 225.5c0 93.333 -28.333 169.5 -85 228.5s-129.334 88.5 -218.001 88.5z" />
    <glyph glyph-name="p" unicode="p" horiz-adv-x="1073" 
d="M285 -479h-146v1330h145v-120c80.667 93.333 179.667 140 297 140c118.667 0 216.167 -43.167 292.5 -129.5s114.5 -196.5 114.5 -330.5c0 -124.667 -38.833 -228.5 -116.5 -311.5s-175.167 -124.5 -292.5 -124.5c-114.667 0 -212.667 48 -294 144v-598zM560 739
c-83.333 0 -151.668 -30.1689 -205.001 -90.502s-80 -137.833 -80 -232.5c0 -89.333 27 -163.166 81 -221.499s122.667 -87.5 206 -87.5c78 0 143.667 29.667 197 89s80 132.333 80 219c0 94.667 -26.167 172.334 -78.5 233.001s-119.166 91 -200.499 91z" />
    <glyph glyph-name="q" unicode="q" horiz-adv-x="1073" 
d="M788 -479v598c-81.333 -96 -179.333 -144 -294 -144c-117.333 0 -214.833 41.5 -292.5 124.5s-116.5 186.833 -116.5 311.5c0 134 38.167 244.167 114.5 330.5s173.833 129.5 292.5 129.5c120 0 218.667 -46.667 296 -140v120h146v-1330h-146zM514 739
c-79.333 0 -145.833 -30.001 -199.5 -90.001s-80.5 -134.333 -80.5 -223c0 -92 26.167 -168.167 78.5 -228.5s118.833 -90.5 199.5 -90.5c84 0 152.667 28.833 206 86.5s80 131.834 80 222.501c0 96 -26.333 173.833 -79 233.5s-121 89.5 -205 89.5z" />
    <glyph glyph-name="r" unicode="r" horiz-adv-x="603" 
d="M139 851h146v-92c37.333 45.333 68.666 75.5 93.999 90.5s58 22.5 98 22.5c42 0 85.333 -12.333 130 -37l-69 -132c-30 20 -58.333 30 -85 30c-59.333 0 -102.166 -22.5 -128.499 -67.5s-39.5 -117.5 -39.5 -217.5v-448h-146v851z" />
    <glyph glyph-name="s" unicode="s" horiz-adv-x="717" 
d="M608 716l-120.999 -63.0029c-30 56.667 -68.667 85 -116 85c-28.667 0 -53.167 -9.16699 -73.5 -27.5s-30.5 -40.166 -30.5 -65.499c0 -26 9.16699 -47.167 27.5 -63.5s54.833 -36.166 109.5 -59.499c101.333 -42.667 169.166 -82.167 203.499 -118.5
s51.5 -86.833 51.5 -151.5c0 -78 -27.667 -143.667 -83 -197s-123.666 -80 -204.999 -80c-144 0 -244 72.333 -300 217l128 54c25.333 -53.333 50.333 -89.833 75 -109.5s57.667 -29.5 99 -29.5c39.333 0 72 12.833 98 38.5s39 57.5 39 95.5
c0 32.667 -9.33301 58.834 -28 78.501s-55.334 41.167 -110.001 64.5c-98 42 -163.333 79.5 -196 112.5s-49 77.833 -49 134.5c0 69.333 24 126.5 72 171.5s108.333 67.5 181 67.5c99.333 0 175.333 -51.333 228 -154z" />
    <glyph glyph-name="t" unicode="t" horiz-adv-x="439" 
d="M286 716v-716h-146v716h-89v135h89v305h146v-305h150v-135h-150z" />
    <glyph glyph-name="u" unicode="u" horiz-adv-x="953" 
d="M285 851v-497c0 -86.667 15.167 -149.5 45.5 -188.5s78.833 -58.5 145.5 -58.5s115.167 19.5 145.5 58.5s45.5 101.833 45.5 188.5v497h146v-513c0 -68.667 -7.33301 -123.667 -22 -165s-39.667 -78.666 -75 -111.999c-62.667 -57.333 -142.667 -86 -240 -86
s-177.333 28.667 -240 86c-35.333 33.333 -60.333 70.666 -75 111.999s-22 96.333 -22 165v513h146z" />
    <glyph glyph-name="v" unicode="v" horiz-adv-x="867" 
d="M180 851l254 -572l253 572h163l-417 -906l-417 906h164z" />
    <glyph glyph-name="w" unicode="w" horiz-adv-x="1397" 
d="M181 851l251 -575l265 641l265 -641l255 575h164l-422 -910l-262 634l-264 -634l-417 910h165z" />
    <glyph glyph-name="x" unicode="x" horiz-adv-x="931" 
d="M379 454l-310 397h178l222 -290l222 290h181l-312 -397l354 -454h-176l-269 347l-271 -347h-182z" />
    <glyph glyph-name="y" unicode="y" horiz-adv-x="942" 
d="M407 81l-391 770h169l300 -609l275 609h165l-628 -1330h-165z" />
    <glyph glyph-name="z" unicode="z" horiz-adv-x="942" 
d="M310 135h586v-135h-880l615 716h-501v135h792z" />
    <glyph glyph-name="braceleft" unicode="{" horiz-adv-x="597" 
d="M246 565c46 -25.333 78.1689 -55.833 96.502 -91.5s27.5 -85.834 27.5 -150.501v-370c0 -80.667 9.33301 -131.667 28 -153s63.667 -32 135 -32v-128l-55 -1c-93.333 0 -159.5 23 -198.5 69s-58.5 123.667 -58.5 233v377c0 58.667 -8.83301 102.334 -26.5 131.001
s-47.834 49 -90.501 61v121c42 10.667 72 30 90 58s27 69 27 123v400c0 99.333 20.167 171 60.5 215s106.166 66 197.499 66l54 -1v-128h-15l-33 -1c-42.667 0 -72.5 -13 -89.5 -39s-25.5 -72 -25.5 -138v-383c0 -66 -8.83301 -115.833 -26.5 -149.5
s-50.167 -63.167 -97.5 -88.5z" />
    <glyph glyph-name="bar" unicode="|" horiz-adv-x="1024" 
d="M435 1365h154v-1706h-154v1706z" />
    <glyph glyph-name="braceright" unicode="}" horiz-adv-x="597" 
d="M349 568c-46 25.333 -78.167 55.832 -96.5 91.499s-27.5 85.834 -27.5 150.501v370c0 80.667 -9.33301 131.667 -28 153s-63.334 32 -134.001 32v128l55 1c92.667 0 158.5 -23 197.5 -69s58.5 -123.667 58.5 -233v-377c0 -59.333 8.83301 -103.333 26.5 -132
s48.167 -48.667 91.5 -60v-121c-42 -10.667 -72.167 -30 -90.5 -58s-27.5 -69 -27.5 -123v-400c0 -100 -20.167 -172 -60.5 -216s-105.833 -66 -196.5 -66l-54 2v128c8.66699 -0.666992 13.667 -1 15 -1c60.667 0 100.334 11.333 119.001 34s28 71 28 145v383
c0 66 8.83301 115.833 26.5 149.5s50.167 63.167 97.5 88.5z" />
    <glyph glyph-name="asciitilde" unicode="~" horiz-adv-x="1365" 
d="M279 1192l-88.998 57c43.333 88 85.666 149.333 126.999 184s92.333 52 153 52c51.333 0 128 -23.333 230 -70c94 -42.667 160.667 -64 200 -64c67.333 0 128.666 46 183.999 138l91 -53c-76.667 -154 -173 -231 -289 -231c-49.333 0 -108.333 15.333 -177 46l-116 52
c-54 24 -98.333 36 -133 36c-66.667 0 -127 -49 -181 -147z" />
    <glyph glyph-name="quotesinglbase" horiz-adv-x="517" 
d="M264 205l134 -49l-206 -462l-98 39z" />
    <glyph glyph-name="quotesinglbase" unicode="&#x201a;" horiz-adv-x="517" 
d="M264 205l134 -49l-206 -462l-98 39z" />
    <glyph glyph-name="quotedblbase" horiz-adv-x="835" 
d="M286 200l133 -49l-205 -462l-98 39zM586 200l133 -49l-205 -462l-98 39z" />
    <glyph glyph-name="quotedblbase" unicode="&#x201e;" horiz-adv-x="835" 
d="M286 200l133 -49l-205 -462l-98 39zM586 200l133 -49l-205 -462l-98 39z" />
    <glyph glyph-name="ellipsis" unicode="&#x85;" horiz-adv-x="1527" 
d="M254 181c28 0 51.833 -9.83301 71.5 -29.5s29.5 -43.5 29.5 -71.5c0 -27.333 -9.83301 -50.833 -29.5 -70.5s-43.5 -29.5 -71.5 -29.5c-27.333 0 -50.833 9.83301 -70.5 29.5s-29.5 43.167 -29.5 70.5c0 28 9.83301 51.833 29.5 71.5s43.167 29.5 70.5 29.5zM763 181
c28 0 51.833 -9.83301 71.5 -29.5s29.5 -43.5 29.5 -71.5c0 -27.333 -9.83301 -50.833 -29.5 -70.5s-43.5 -29.5 -71.5 -29.5c-27.333 0 -50.833 9.83301 -70.5 29.5s-29.5 43.167 -29.5 70.5c0 28 9.83301 51.833 29.5 71.5s43.167 29.5 70.5 29.5zM1273 181
c28 0 51.833 -9.83301 71.5 -29.5s29.5 -43.5 29.5 -71.5c0 -27.333 -9.83301 -50.833 -29.5 -70.5s-43.5 -29.5 -71.5 -29.5c-27.333 0 -50.833 9.83301 -70.5 29.5s-29.5 43.167 -29.5 70.5c0 28 9.83301 51.833 29.5 71.5s43.167 29.5 70.5 29.5z" />
    <glyph glyph-name="ellipsis" unicode="&#x2026;" horiz-adv-x="1527" 
d="M254 181c28 0 51.833 -9.83301 71.5 -29.5s29.5 -43.5 29.5 -71.5c0 -27.333 -9.83301 -50.833 -29.5 -70.5s-43.5 -29.5 -71.5 -29.5c-27.333 0 -50.833 9.83301 -70.5 29.5s-29.5 43.167 -29.5 70.5c0 28 9.83301 51.833 29.5 71.5s43.167 29.5 70.5 29.5zM763 181
c28 0 51.833 -9.83301 71.5 -29.5s29.5 -43.5 29.5 -71.5c0 -27.333 -9.83301 -50.833 -29.5 -70.5s-43.5 -29.5 -71.5 -29.5c-27.333 0 -50.833 9.83301 -70.5 29.5s-29.5 43.167 -29.5 70.5c0 28 9.83301 51.833 29.5 71.5s43.167 29.5 70.5 29.5zM1273 181
c28 0 51.833 -9.83301 71.5 -29.5s29.5 -43.5 29.5 -71.5c0 -27.333 -9.83301 -50.833 -29.5 -70.5s-43.5 -29.5 -71.5 -29.5c-27.333 0 -50.833 9.83301 -70.5 29.5s-29.5 43.167 -29.5 70.5c0 28 9.83301 51.833 29.5 71.5s43.167 29.5 70.5 29.5z" />
    <glyph glyph-name="dagger" 
d="M507 1494h147v-336h302v-142h-302v-1376h-147v1376h-302v142h302v336z" />
    <glyph glyph-name="dagger" unicode="&#x2020;" 
d="M507 1494h147v-336h302v-142h-302v-1376h-147v1376h-302v142h302v336z" />
    <glyph glyph-name="daggerdbl" 
d="M506 1494h149v-336h301v-142h-301v-617h301v-142h-301v-617h-149v617h-302v142h302v617h-302v142h302v336z" />
    <glyph glyph-name="daggerdbl" unicode="&#x2021;" 
d="M506 1494h149v-336h301v-142h-301v-617h301v-142h-301v-617h-149v617h-302v142h302v617h-302v142h302v336z" />
    <glyph glyph-name="perthousand" horiz-adv-x="2208" 
d="M373 1379c84 0 155.667 -29 215 -87s89 -128.667 89 -212c0 -82 -29.667 -152 -89 -210s-131 -87 -215 -87c-84.667 0 -156.667 29 -216 87s-89 128 -89 210c0 82.667 29.667 153.167 89 211.5s131.333 87.5 216 87.5zM372 1266c-51.333 0 -94.833 -18 -130.5 -54
s-53.5 -79.333 -53.5 -130s18 -94 54 -130s79.333 -54 130 -54s93.834 18 129.501 54s53.5 79.333 53.5 130c0 51.333 -17.833 94.833 -53.5 130.5s-78.834 53.5 -129.501 53.5zM1089 1392l80 -44l-795 -1374l-79 46zM1093 582c84 0 155.499 -29.167 214.499 -87.5
s88.5 -128.833 88.5 -211.5c0 -82 -29.667 -152 -89 -210s-130.666 -87 -213.999 -87c-84 0 -155.667 29 -215 87s-89 128 -89 210c0 82.667 29.5 153.167 88.5 211.5s130.833 87.5 215.5 87.5zM1093 469c-51.333 0 -94.833 -18 -130.5 -54s-53.5 -79.333 -53.5 -130
s18 -94 54 -130s79.333 -54 130 -54s93.834 18 129.501 54s53.5 79.333 53.5 130c0 51.333 -17.833 94.833 -53.5 130.5s-78.834 53.5 -129.501 53.5zM1835 582c84 0 155.667 -29.167 215 -87.5s89 -128.833 89 -211.5c0 -82 -29.833 -152 -89.5 -210
s-131.167 -87 -214.5 -87c-84.667 0 -156.667 29 -216 87s-89 128 -89 210c0 82.667 29.667 153.167 89 211.5s131.333 87.5 216 87.5zM1834 469c-51.333 0 -94.833 -18 -130.5 -54s-53.5 -79.333 -53.5 -130s18 -94 54 -130s79.333 -54 130 -54s93.834 18 129.501 54
s53.5 79.333 53.5 130c0 51.333 -17.833 94.833 -53.5 130.5s-78.834 53.5 -129.501 53.5z" />
    <glyph glyph-name="perthousand" unicode="&#x2030;" horiz-adv-x="2208" 
d="M373 1379c84 0 155.667 -29 215 -87s89 -128.667 89 -212c0 -82 -29.667 -152 -89 -210s-131 -87 -215 -87c-84.667 0 -156.667 29 -216 87s-89 128 -89 210c0 82.667 29.667 153.167 89 211.5s131.333 87.5 216 87.5zM372 1266c-51.333 0 -94.833 -18 -130.5 -54
s-53.5 -79.333 -53.5 -130s18 -94 54 -130s79.333 -54 130 -54s93.834 18 129.501 54s53.5 79.333 53.5 130c0 51.333 -17.833 94.833 -53.5 130.5s-78.834 53.5 -129.501 53.5zM1089 1392l80 -44l-795 -1374l-79 46zM1093 582c84 0 155.499 -29.167 214.499 -87.5
s88.5 -128.833 88.5 -211.5c0 -82 -29.667 -152 -89 -210s-130.666 -87 -213.999 -87c-84 0 -155.667 29 -215 87s-89 128 -89 210c0 82.667 29.5 153.167 88.5 211.5s130.833 87.5 215.5 87.5zM1093 469c-51.333 0 -94.833 -18 -130.5 -54s-53.5 -79.333 -53.5 -130
s18 -94 54 -130s79.333 -54 130 -54s93.834 18 129.501 54s53.5 79.333 53.5 130c0 51.333 -17.833 94.833 -53.5 130.5s-78.834 53.5 -129.501 53.5zM1835 582c84 0 155.667 -29.167 215 -87.5s89 -128.833 89 -211.5c0 -82 -29.833 -152 -89.5 -210
s-131.167 -87 -214.5 -87c-84.667 0 -156.667 29 -216 87s-89 128 -89 210c0 82.667 29.667 153.167 89 211.5s131.333 87.5 216 87.5zM1834 469c-51.333 0 -94.833 -18 -130.5 -54s-53.5 -79.333 -53.5 -130s18 -94 54 -130s79.333 -54 130 -54s93.834 18 129.501 54
s53.5 79.333 53.5 130c0 51.333 -17.833 94.833 -53.5 130.5s-78.834 53.5 -129.501 53.5z" />
    <glyph glyph-name="Scaron" horiz-adv-x="1059" 
d="M906 1175l-120 -79.0029c-35.333 56 -70 94.833 -104 116.5s-77.333 32.5 -130 32.5c-64 0 -117.667 -20.167 -161 -60.5s-65 -90.5 -65 -150.5c0 -80.667 64 -149 192 -205l130 -57c110 -48.667 189 -102.167 237 -160.5s72 -130.166 72 -215.499
c0 -118 -41.5 -217.667 -124.5 -299s-184.833 -122 -305.5 -122c-110 0 -201.833 30.667 -275.5 92s-123.5 148.333 -149.5 261l148 41c18 -82.667 50.167 -145.167 96.5 -187.5s105.5 -63.5 177.5 -63.5c78.667 0 144.834 25.833 198.501 77.5s80.5 115.5 80.5 191.5
c0 56.667 -17 103.834 -51 141.501s-94 75.834 -180 114.501l-124 56c-98 44.667 -168.5 93.167 -211.5 145.5s-64.5 116.833 -64.5 193.5c0 99.333 36.5 182.5 109.5 249.5s163.833 100.5 272.5 100.5c153.333 0 270.666 -71 351.999 -213zM843 1721l-285 -244l-288 244
l108 83l180 -154l180 154z" />
    <glyph glyph-name="Scaron" unicode="&#x160;" horiz-adv-x="1059" 
d="M906 1175l-120 -79.0029c-35.333 56 -70 94.833 -104 116.5s-77.333 32.5 -130 32.5c-64 0 -117.667 -20.167 -161 -60.5s-65 -90.5 -65 -150.5c0 -80.667 64 -149 192 -205l130 -57c110 -48.667 189 -102.167 237 -160.5s72 -130.166 72 -215.499
c0 -118 -41.5 -217.667 -124.5 -299s-184.833 -122 -305.5 -122c-110 0 -201.833 30.667 -275.5 92s-123.5 148.333 -149.5 261l148 41c18 -82.667 50.167 -145.167 96.5 -187.5s105.5 -63.5 177.5 -63.5c78.667 0 144.834 25.833 198.501 77.5s80.5 115.5 80.5 191.5
c0 56.667 -17 103.834 -51 141.501s-94 75.834 -180 114.501l-124 56c-98 44.667 -168.5 93.167 -211.5 145.5s-64.5 116.833 -64.5 193.5c0 99.333 36.5 182.5 109.5 249.5s163.833 100.5 272.5 100.5c153.333 0 270.666 -71 351.999 -213zM843 1721l-285 -244l-288 244
l108 83l180 -154l180 154z" />
    <glyph glyph-name="guilsinglleft" horiz-adv-x="578" 
d="M232 437l244 -300l-95 -76l-306 376l305 384l96 -75z" />
    <glyph glyph-name="guilsinglleft" unicode="&#x2039;" horiz-adv-x="578" 
d="M232 437l244 -300l-95 -76l-306 376l305 384l96 -75z" />
    <glyph glyph-name="uni008C" horiz-adv-x="1059" 
d="M906 1175l-120 -79.0029c-35.333 56 -70 94.833 -104 116.5s-77.333 32.5 -130 32.5c-64 0 -117.667 -20.167 -161 -60.5s-65 -90.5 -65 -150.5c0 -80.667 64 -149 192 -205l130 -57c110 -48.667 189 -102.167 237 -160.5s72 -130.166 72 -215.499
c0 -118 -41.5 -217.667 -124.5 -299s-184.833 -122 -305.5 -122c-110 0 -201.833 30.667 -275.5 92s-123.5 148.333 -149.5 261l148 41c18 -82.667 50.167 -145.167 96.5 -187.5s105.5 -63.5 177.5 -63.5c78.667 0 144.834 25.833 198.501 77.5s80.5 115.5 80.5 191.5
c0 56.667 -17 103.834 -51 141.501s-94 75.834 -180 114.501l-124 56c-98 44.667 -168.5 93.167 -211.5 145.5s-64.5 116.833 -64.5 193.5c0 99.333 36.5 182.5 109.5 249.5s163.833 100.5 272.5 100.5c153.333 0 270.666 -71 351.999 -213zM826 1715l-294 -239l-88 65
l245 265z" />
    <glyph glyph-name="uni008C" unicode="&#x15a;" horiz-adv-x="1059" 
d="M906 1175l-120 -79.0029c-35.333 56 -70 94.833 -104 116.5s-77.333 32.5 -130 32.5c-64 0 -117.667 -20.167 -161 -60.5s-65 -90.5 -65 -150.5c0 -80.667 64 -149 192 -205l130 -57c110 -48.667 189 -102.167 237 -160.5s72 -130.166 72 -215.499
c0 -118 -41.5 -217.667 -124.5 -299s-184.833 -122 -305.5 -122c-110 0 -201.833 30.667 -275.5 92s-123.5 148.333 -149.5 261l148 41c18 -82.667 50.167 -145.167 96.5 -187.5s105.5 -63.5 177.5 -63.5c78.667 0 144.834 25.833 198.501 77.5s80.5 115.5 80.5 191.5
c0 56.667 -17 103.834 -51 141.501s-94 75.834 -180 114.501l-124 56c-98 44.667 -168.5 93.167 -211.5 145.5s-64.5 116.833 -64.5 193.5c0 99.333 36.5 182.5 109.5 249.5s163.833 100.5 272.5 100.5c153.333 0 270.666 -71 351.999 -213zM826 1715l-294 -239l-88 65
l245 265z" />
    <glyph glyph-name="uni008C" unicode="&#x152;" horiz-adv-x="1059" 
d="M906 1175l-120 -79.0029c-35.333 56 -70 94.833 -104 116.5s-77.333 32.5 -130 32.5c-64 0 -117.667 -20.167 -161 -60.5s-65 -90.5 -65 -150.5c0 -80.667 64 -149 192 -205l130 -57c110 -48.667 189 -102.167 237 -160.5s72 -130.166 72 -215.499
c0 -118 -41.5 -217.667 -124.5 -299s-184.833 -122 -305.5 -122c-110 0 -201.833 30.667 -275.5 92s-123.5 148.333 -149.5 261l148 41c18 -82.667 50.167 -145.167 96.5 -187.5s105.5 -63.5 177.5 -63.5c78.667 0 144.834 25.833 198.501 77.5s80.5 115.5 80.5 191.5
c0 56.667 -17 103.834 -51 141.501s-94 75.834 -180 114.501l-124 56c-98 44.667 -168.5 93.167 -211.5 145.5s-64.5 116.833 -64.5 193.5c0 99.333 36.5 182.5 109.5 249.5s163.833 100.5 272.5 100.5c153.333 0 270.666 -71 351.999 -213zM826 1715l-294 -239l-88 65
l245 265z" />
    <glyph glyph-name="uni008D" horiz-adv-x="870" 
d="M510 1223v-1223h-153v1223h-330v142h815v-142h-332zM721 1721l-285 -244l-288 244l108 83l180 -154l179 154z" />
    <glyph glyph-name="uni008D" unicode="&#x164;" horiz-adv-x="870" 
d="M510 1223v-1223h-153v1223h-330v142h815v-142h-332zM721 1721l-285 -244l-288 244l108 83l180 -154l179 154z" />
    <glyph glyph-name="Zcaron" horiz-adv-x="1094" 
d="M301 142h726v-142h-979l745 1223h-649v142h902zM868 1721l-285 -244l-288 244l108 83l180 -154l179 154z" />
    <glyph glyph-name="Zcaron" unicode="&#x17d;" horiz-adv-x="1094" 
d="M301 142h726v-142h-979l745 1223h-649v142h902zM868 1721l-285 -244l-288 244l108 83l180 -154l179 154z" />
    <glyph glyph-name="uni008F" horiz-adv-x="1094" 
d="M301 142h726v-142h-979l745 1223h-649v142h902zM851 1715l-294 -239l-88 65l244 265z" />
    <glyph glyph-name="uni008F" unicode="&#x179;" horiz-adv-x="1094" 
d="M301 142h726v-142h-979l745 1223h-649v142h902zM851 1715l-294 -239l-88 65l244 265z" />
    <glyph glyph-name="quoteleft" horiz-adv-x="535" 
d="M250 923l-134 49l206 462l97 -39z" />
    <glyph glyph-name="quoteleft" unicode="&#x2018;" horiz-adv-x="535" 
d="M250 923l-134 49l206 462l97 -39z" />
    <glyph glyph-name="quoteright" horiz-adv-x="517" 
d="M264 1434l134 -49l-206 -462l-98 39z" />
    <glyph glyph-name="quoteright" unicode="&#x2019;" horiz-adv-x="517" 
d="M264 1434l134 -49l-206 -462l-98 39z" />
    <glyph glyph-name="quotedblleft" horiz-adv-x="836" 
d="M550 923l-134 49l206 462l97 -39zM250 923l-134 49l206 462l97 -39z" />
    <glyph glyph-name="quotedblleft" unicode="&#x201c;" horiz-adv-x="836" 
d="M550 923l-134 49l206 462l97 -39zM250 923l-134 49l206 462l97 -39z" />
    <glyph glyph-name="quotedblright" horiz-adv-x="835" 
d="M286 1434l133 -49l-205 -462l-98 39zM586 1434l133 -49l-205 -462l-98 39z" />
    <glyph glyph-name="quotedblright" unicode="&#x201d;" horiz-adv-x="835" 
d="M286 1434l133 -49l-205 -462l-98 39zM586 1434l133 -49l-205 -462l-98 39z" />
    <glyph glyph-name="bullet" horiz-adv-x="1365" 
d="M687 978c78 0 144.499 -27.833 199.499 -83.5s82.5 -122.5 82.5 -200.5s-27.667 -144.833 -83 -200.5s-121.666 -83.5 -198.999 -83.5c-78.667 0 -146 27.833 -202 83.5s-84 122.5 -84 200.5c0 78.667 27.833 145.667 83.5 201s123.167 83 202.5 83z" />
    <glyph glyph-name="bullet" unicode="&#x2022;" horiz-adv-x="1365" 
d="M687 978c78 0 144.499 -27.833 199.499 -83.5s82.5 -122.5 82.5 -200.5s-27.667 -144.833 -83 -200.5s-121.666 -83.5 -198.999 -83.5c-78.667 0 -146 27.833 -202 83.5s-84 122.5 -84 200.5c0 78.667 27.833 145.667 83.5 201s123.167 83 202.5 83z" />
    <glyph glyph-name="endash" 
d="M240 502h681v-131h-681v131z" />
    <glyph glyph-name="endash" unicode="&#x2013;" 
d="M240 502h681v-131h-681v131z" />
    <glyph glyph-name="emdash" horiz-adv-x="1114" 
d="M0 502h1114v-131h-1114v131z" />
    <glyph glyph-name="emdash" unicode="&#x2014;" horiz-adv-x="1114" 
d="M0 502h1114v-131h-1114v131z" />
    <glyph glyph-name="trademark" horiz-adv-x="1476" 
d="M292 1272v-685h-99v685h-185v93h470v-93h-186zM552 587l134 828l293 -646l301 646l125 -828h-96l-70 528l-261 -567l-256 567l-74 -528h-96z" />
    <glyph glyph-name="trademark" unicode="&#x2122;" horiz-adv-x="1476" 
d="M292 1272v-685h-99v685h-185v93h470v-93h-186zM552 587l134 828l293 -646l301 646l125 -828h-96l-70 528l-261 -567l-256 567l-74 -528h-96z" />
    <glyph glyph-name="scaron" horiz-adv-x="717" 
d="M608 716l-120.999 -63.0029c-30 56.667 -68.667 85 -116 85c-28.667 0 -53.167 -9.16699 -73.5 -27.5s-30.5 -40.166 -30.5 -65.499c0 -26 9.16699 -47.167 27.5 -63.5s54.833 -36.166 109.5 -59.499c101.333 -42.667 169.166 -82.167 203.499 -118.5
s51.5 -86.833 51.5 -151.5c0 -78 -27.667 -143.667 -83 -197s-123.666 -80 -204.999 -80c-144 0 -244 72.333 -300 217l128 54c25.333 -53.333 50.333 -89.833 75 -109.5s57.667 -29.5 99 -29.5c39.333 0 72 12.833 98 38.5s39 57.5 39 95.5
c0 32.667 -9.33301 58.834 -28 78.501s-55.334 41.167 -110.001 64.5c-98 42 -163.333 79.5 -196 112.5s-49 77.833 -49 134.5c0 69.333 24 126.5 72 171.5s108.333 67.5 181 67.5c99.333 0 175.333 -51.333 228 -154zM659.001 1263l-282 -267l-285 267l105 80l180 -169
l179 169z" />
    <glyph glyph-name="scaron" unicode="&#x161;" horiz-adv-x="717" 
d="M608 716l-120.999 -63.0029c-30 56.667 -68.667 85 -116 85c-28.667 0 -53.167 -9.16699 -73.5 -27.5s-30.5 -40.166 -30.5 -65.499c0 -26 9.16699 -47.167 27.5 -63.5s54.833 -36.166 109.5 -59.499c101.333 -42.667 169.166 -82.167 203.499 -118.5
s51.5 -86.833 51.5 -151.5c0 -78 -27.667 -143.667 -83 -197s-123.666 -80 -204.999 -80c-144 0 -244 72.333 -300 217l128 54c25.333 -53.333 50.333 -89.833 75 -109.5s57.667 -29.5 99 -29.5c39.333 0 72 12.833 98 38.5s39 57.5 39 95.5
c0 32.667 -9.33301 58.834 -28 78.501s-55.334 41.167 -110.001 64.5c-98 42 -163.333 79.5 -196 112.5s-49 77.833 -49 134.5c0 69.333 24 126.5 72 171.5s108.333 67.5 181 67.5c99.333 0 175.333 -51.333 228 -154zM659.001 1263l-282 -267l-285 267l105 80l180 -169
l179 169z" />
    <glyph glyph-name="guilsinglright" horiz-adv-x="578" 
d="M346 437l-244 309l95 75l306 -384l-306 -376l-95 76z" />
    <glyph glyph-name="guilsinglright" unicode="&#x203a;" horiz-adv-x="578" 
d="M346 437l-244 309l95 75l306 -384l-306 -376l-95 76z" />
    <glyph glyph-name="uni009C" horiz-adv-x="717" 
d="M608 716l-120.999 -63.0029c-30 56.667 -68.667 85 -116 85c-28.667 0 -53.167 -9.16699 -73.5 -27.5s-30.5 -40.166 -30.5 -65.499c0 -26 9.16699 -47.167 27.5 -63.5s54.833 -36.166 109.5 -59.499c101.333 -42.667 169.166 -82.167 203.499 -118.5
s51.5 -86.833 51.5 -151.5c0 -78 -27.667 -143.667 -83 -197s-123.666 -80 -204.999 -80c-144 0 -244 72.333 -300 217l128 54c25.333 -53.333 50.333 -89.833 75 -109.5s57.667 -29.5 99 -29.5c39.333 0 72 12.833 98 38.5s39 57.5 39 95.5
c0 32.667 -9.33301 58.834 -28 78.501s-55.334 41.167 -110.001 64.5c-98 42 -163.333 79.5 -196 112.5s-49 77.833 -49 134.5c0 69.333 24 126.5 72 171.5s108.333 67.5 181 67.5c99.333 0 175.333 -51.333 228 -154zM644.001 1275l-276 -279l-91 51l216 296z" />
    <glyph glyph-name="uni009C" unicode="&#x153;" horiz-adv-x="717" 
d="M608 716l-120.999 -63.0029c-30 56.667 -68.667 85 -116 85c-28.667 0 -53.167 -9.16699 -73.5 -27.5s-30.5 -40.166 -30.5 -65.499c0 -26 9.16699 -47.167 27.5 -63.5s54.833 -36.166 109.5 -59.499c101.333 -42.667 169.166 -82.167 203.499 -118.5
s51.5 -86.833 51.5 -151.5c0 -78 -27.667 -143.667 -83 -197s-123.666 -80 -204.999 -80c-144 0 -244 72.333 -300 217l128 54c25.333 -53.333 50.333 -89.833 75 -109.5s57.667 -29.5 99 -29.5c39.333 0 72 12.833 98 38.5s39 57.5 39 95.5
c0 32.667 -9.33301 58.834 -28 78.501s-55.334 41.167 -110.001 64.5c-98 42 -163.333 79.5 -196 112.5s-49 77.833 -49 134.5c0 69.333 24 126.5 72 171.5s108.333 67.5 181 67.5c99.333 0 175.333 -51.333 228 -154zM644.001 1275l-276 -279l-91 51l216 296z" />
    <glyph glyph-name="uni009D" horiz-adv-x="633" 
d="M286 716v-716h-146v716h-89v135h89v305h146v-305h150v-135h-150zM492 1398l141 -43l-133 -314l-105 33z" />
    <glyph glyph-name="uni009D" unicode="&#x165;" horiz-adv-x="633" 
d="M286 716v-716h-146v716h-89v135h89v305h146v-305h150v-135h-150zM492 1398l141 -43l-133 -314l-105 33z" />
    <glyph glyph-name="uni009D" unicode="&#x15b;" horiz-adv-x="633" 
d="M286 716v-716h-146v716h-89v135h89v305h146v-305h150v-135h-150zM492 1398l141 -43l-133 -314l-105 33z" />
    <glyph glyph-name="zcaron" horiz-adv-x="942" 
d="M310 135h586v-135h-880l615 716h-501v135h792zM787 1263l-282 -267l-285 267l105 80l180 -169l179 169z" />
    <glyph glyph-name="zcaron" unicode="&#x17e;" horiz-adv-x="942" 
d="M310 135h586v-135h-880l615 716h-501v135h792zM787 1263l-282 -267l-285 267l105 80l180 -169l179 169z" />
    <glyph glyph-name="uni009F" horiz-adv-x="942" 
d="M310 135h586v-135h-880l615 716h-501v135h792zM770 1275l-276 -279l-91 51l216 296z" />
    <glyph glyph-name="uni009F" unicode="&#x17a;" horiz-adv-x="942" 
d="M310 135h586v-135h-880l615 716h-501v135h792zM770 1275l-276 -279l-91 51l216 296z" />
    <glyph glyph-name="uni009F" unicode="&#x178;" horiz-adv-x="942" 
d="M310 135h586v-135h-880l615 716h-501v135h792zM770 1275l-276 -279l-91 51l216 296z" />
    <glyph glyph-name="caron" unicode="&#xa1;" horiz-adv-x="1024" 
d="M796 1263l-282 -267l-285 267l105 80l180 -169l179 169z" />
    <glyph glyph-name="caron" unicode="&#x2c7;" horiz-adv-x="1024" 
d="M796 1263l-282 -267l-285 267l105 80l180 -169l179 169z" />
    <glyph glyph-name="breve" unicode="&#xa2;" horiz-adv-x="1024" 
d="M243 1297h127c3.33301 -44.667 17.5 -79.667 42.5 -105s57.167 -38 96.5 -38c80.667 0 129 47.667 145 143h126c-9.33301 -82 -38.333 -146.833 -87 -194.5s-110 -71.5 -184 -71.5c-76.667 0 -140.167 25.167 -190.5 75.5s-75.5 113.833 -75.5 190.5z" />
    <glyph glyph-name="breve" unicode="&#x2d8;" horiz-adv-x="1024" 
d="M243 1297h127c3.33301 -44.667 17.5 -79.667 42.5 -105s57.167 -38 96.5 -38c80.667 0 129 47.667 145 143h126c-9.33301 -82 -38.333 -146.833 -87 -194.5s-110 -71.5 -184 -71.5c-76.667 0 -140.167 25.167 -190.5 75.5s-75.5 113.833 -75.5 190.5z" />
    <glyph glyph-name="Lslash" unicode="&#xa3;" horiz-adv-x="733" 
d="M331 806l233 164v-155l-233 -164v-509h375v-142h-528v584l-137 -95v155l137 95v626h153v-559z" />
    <glyph glyph-name="Lslash" unicode="&#x141;" horiz-adv-x="733" 
d="M331 806l233 164v-155l-233 -164v-509h375v-142h-528v584l-137 -95v155l137 95v626h153v-559z" />
    <glyph glyph-name="currency" unicode="&#xa4;" horiz-adv-x="1365" 
d="M113 252l193.001 192.999c-70 100 -105 197 -105 291c0 94.667 34 191.334 102 290.001l-195 195l85 85l195 -194c62.667 42 114.167 70.167 154.5 84.5s88.166 21.5 143.499 21.5c53.333 0 100 -7.16699 140 -21.5s90 -42.166 150 -83.499l194 193l85 -85l-193 -193
c68.667 -102.667 103 -200 103 -292c0 -52 -7 -97.833 -21 -137.5s-41.333 -89.834 -82 -150.501l196 -196l-84 -84l-195 195c-99.333 -70 -198 -105 -296 -105c-88 0 -185.667 34 -293 102l-193 -192zM684.001 1083c-95.333 0 -176.5 -33.833 -243.5 -101.5
s-100.5 -149.5 -100.5 -245.5c0 -94 33.667 -174.667 101 -242s148.333 -101 243 -101c94 0 174.667 33.667 242 101s101 148 101 242c0 96 -33.5 177.833 -100.5 245.5s-147.833 101.5 -242.5 101.5z" />
    <glyph glyph-name="glyph259" unicode="&#xa5;" horiz-adv-x="1269" 
d="M1256 0c-102.667 -65.333 -153.999 -127.333 -153.999 -186c0 -22 8.16699 -40.333 24.5 -55s36.166 -22 59.499 -22c32.667 0 69 11.333 109 34l-15 -125c-32.667 -22 -72 -33 -118 -33c-55.333 0 -102 17 -140 51s-57 75.667 -57 125c0 76.667 52.667 147 158 211h-34
l-161 386h-583l-165 -386h-166l629 1430zM868.001 528l-228 547l-233 -547h461z" />
    <glyph glyph-name="glyph259" unicode="&#x104;" horiz-adv-x="1269" 
d="M1256 0c-102.667 -65.333 -153.999 -127.333 -153.999 -186c0 -22 8.16699 -40.333 24.5 -55s36.166 -22 59.499 -22c32.667 0 69 11.333 109 34l-15 -125c-32.667 -22 -72 -33 -118 -33c-55.333 0 -102 17 -140 51s-57 75.667 -57 125c0 76.667 52.667 147 158 211h-34
l-161 386h-583l-165 -386h-166l629 1430zM868.001 528l-228 547l-233 -547h461z" />
    <glyph glyph-name="brokenbar" unicode="&#xa6;" horiz-adv-x="1024" 
d="M435 1365h154v-682h-154v682zM435 314h154v-655h-154v655z" />
    <glyph glyph-name="section" unicode="&#xa7;" 
d="M210 5l149.001 -0.00390625c4.66699 -84 23.167 -144.833 55.5 -182.5s82.5 -56.5 150.5 -56.5c64.667 0 115 18.333 151 55s54 88 54 154c0 50.667 -14 92.334 -42 125.001s-74.333 61.334 -139 86.001l-90 35c-108 42 -183.833 89 -227.5 141s-65.5 121.333 -65.5 208
c0 152.667 68.333 260 205 322c-114.667 65.333 -172 157.666 -172 276.999c0 96.667 34.667 177.334 104 242.001s155.666 97 258.999 97c54.667 0 107.5 -12.333 158.5 -37s90.167 -56.667 117.5 -96c40.667 -59.333 63.667 -143.666 69 -252.999h-144
c0 78.667 -17.5 139.334 -52.5 182.001s-84.833 64 -149.5 64c-64 0 -115.667 -19.5 -155 -58.5s-59 -89.833 -59 -152.5c0 -56.667 15.667 -99 47 -127s99 -60 203 -96c116.667 -40.667 198.667 -88 246 -142s71 -127.333 71 -220c0 -134 -68.667 -241 -206 -321
c64 -37.333 108.667 -77 134 -119s38 -97 38 -165c0 -102.667 -33 -185.5 -99 -248.5s-152.333 -94.5 -259 -94.5c-111.333 0 -197.833 33.5 -259.5 100.5s-92.5 160.5 -92.5 280.5zM580.001 795.996c-61.333 0 -113.666 -21.833 -156.999 -65.5s-65 -96.167 -65 -157.5
s21.667 -113.833 65 -157.5s95.666 -65.5 156.999 -65.5c60.667 0 112.667 21.667 156 65s65 96 65 158c0 61.333 -21.5 113.833 -64.5 157.5s-95.167 65.5 -156.5 65.5z" />
    <glyph glyph-name="dieresis" unicode="&#xa8;" horiz-adv-x="1024" 
d="M334 1249c28.667 0 53 -10 73 -30s30 -44.333 30 -73c0 -28 -10.167 -52 -30.5 -72s-44.5 -30 -72.5 -30s-52 10 -72 30s-30 44 -30 72c0 28.667 10 53 30 73s44 30 72 30zM690 1249c28.667 0 52.833 -10 72.5 -30s29.5 -44.333 29.5 -73c0 -28 -10 -52 -30 -72
s-44 -30 -72 -30s-52.167 10 -72.5 30s-30.5 44 -30.5 72c0 28.667 10 53 30 73s44.333 30 73 30z" />
    <glyph glyph-name="copyright" unicode="&#xa9;" horiz-adv-x="1516" 
d="M1072 980l-0.00195312 -175.001l-36 43c-75.333 88.667 -158.666 133 -249.999 133c-81.333 0 -152.5 -30.667 -213.5 -92s-91.5 -132.666 -91.5 -213.999c0 -84.667 30.5 -157.167 91.5 -217.5s134.167 -90.5 219.5 -90.5c88 0 169.333 42.667 244 128l36 41v-171l-8 -6
c-88 -70 -180 -105 -276 -105c-117.333 0 -217.666 41.833 -300.999 125.5s-125 184.167 -125 301.5c0 112.667 42.167 210 126.5 292s184.5 123 300.5 123c97.333 0 189.333 -36.667 276 -110zM768.998 1388c189.333 0 352.5 -69.5 489.5 -208.5
s205.5 -304.833 205.5 -497.5c0 -194.667 -69 -360.834 -207 -498.501s-304.333 -206.5 -499 -206.5s-361 68.833 -499 206.5s-207 303.834 -207 498.501c0 197.333 69.5 364.333 208.5 501s308.5 205 508.5 205zM766.998 1273c-167.333 0 -309.164 -57.167 -425.497 -171.5
s-174.5 -254.166 -174.5 -419.499c0 -162.667 57.667 -301.667 173 -417s254.666 -173 417.999 -173s302.666 57.667 417.999 173s173 254.333 173 417c0 161.333 -57.333 300.166 -172 416.499s-251.334 174.5 -410.001 174.5z" />
    <glyph glyph-name="Scedilla" unicode="&#xaa;" horiz-adv-x="1059" 
d="M906 1175l-120 -79.0029c-35.333 56 -70 94.833 -104 116.5s-77.333 32.5 -130 32.5c-64 0 -117.667 -20.167 -161 -60.5s-65 -90.5 -65 -150.5c0 -80.667 64 -149 192 -205l130 -57c110 -48.667 189 -102.167 237 -160.5s72 -130.166 72 -215.499
c0 -118 -41.5 -217.667 -124.5 -299s-184.833 -122 -305.5 -122c-110 0 -201.833 30.667 -275.5 92s-123.5 148.333 -149.5 261l148 41c18 -82.667 50.167 -145.167 96.5 -187.5s105.5 -63.5 177.5 -63.5c78.667 0 144.834 25.833 198.501 77.5s80.5 115.5 80.5 191.5
c0 56.667 -17 103.834 -51 141.501s-94 75.834 -180 114.501l-124 56c-98 44.667 -168.5 93.167 -211.5 145.5s-64.5 116.833 -64.5 193.5c0 99.333 36.5 182.5 109.5 249.5s163.833 100.5 272.5 100.5c153.333 0 270.666 -71 351.999 -213zM640 -162.003l-226 -265l-104 53
l183 278z" />
    <glyph glyph-name="Scedilla" unicode="&#x15e;" horiz-adv-x="1059" 
d="M906 1175l-120 -79.0029c-35.333 56 -70 94.833 -104 116.5s-77.333 32.5 -130 32.5c-64 0 -117.667 -20.167 -161 -60.5s-65 -90.5 -65 -150.5c0 -80.667 64 -149 192 -205l130 -57c110 -48.667 189 -102.167 237 -160.5s72 -130.166 72 -215.499
c0 -118 -41.5 -217.667 -124.5 -299s-184.833 -122 -305.5 -122c-110 0 -201.833 30.667 -275.5 92s-123.5 148.333 -149.5 261l148 41c18 -82.667 50.167 -145.167 96.5 -187.5s105.5 -63.5 177.5 -63.5c78.667 0 144.834 25.833 198.501 77.5s80.5 115.5 80.5 191.5
c0 56.667 -17 103.834 -51 141.501s-94 75.834 -180 114.501l-124 56c-98 44.667 -168.5 93.167 -211.5 145.5s-64.5 116.833 -64.5 193.5c0 99.333 36.5 182.5 109.5 249.5s163.833 100.5 272.5 100.5c153.333 0 270.666 -71 351.999 -213zM640 -162.003l-226 -265l-104 53
l183 278z" />
    <glyph glyph-name="guillemotleft" unicode="&#xab;" horiz-adv-x="883" 
d="M537 437l243 -300l-95 -76l-305 376l305 384l95 -75zM232 437l244 -300l-95 -76l-306 376l305 384l96 -75z" />
    <glyph glyph-name="logicalnot" unicode="&#xac;" horiz-adv-x="1024" 
d="M801 0v403h-733v143h887v-546h-154z" />
    <glyph glyph-name="minus" unicode="&#xad;" 
d="M98 633v126h964v-126h-964z" />
    <glyph glyph-name="registered" unicode="&#xae;" horiz-adv-x="1516" 
d="M801 627l250 -361.001h-143l-211 309v-309h-118v819h141c87.333 0 154 -20 200 -60s69 -97.667 69 -173c0 -61.333 -16.5 -111.666 -49.5 -150.999s-79.167 -64 -138.5 -74zM696 733.999h38c90.667 0 136 39.667 136 119s-48.667 119 -146 119h-28v-238zM769 1388
c189.333 0 352.5 -69.5 489.5 -208.5s205.5 -304.833 205.5 -497.5c0 -194.667 -69 -360.834 -207 -498.501s-304.333 -206.5 -499 -206.5s-361 68.833 -499 206.5s-207 303.834 -207 498.501c0 197.333 69.5 364.333 208.5 501s308.5 205 508.5 205zM767 1273
c-167.333 0 -309.164 -57.167 -425.497 -171.5s-174.5 -254.166 -174.5 -419.499c0 -162.667 57.667 -301.667 173 -417s254.666 -173 417.999 -173s302.666 57.667 417.999 173s173 254.333 173 417c0 161.333 -57.333 300.166 -172 416.499s-251.334 174.5 -410.001 174.5
z" />
    <glyph glyph-name="glyph275" unicode="&#xaf;" horiz-adv-x="1094" 
d="M301 142h726v-142h-979l745 1223h-649v142h902zM581 1741c30.667 0 56.667 -10.667 78 -32s32 -47 32 -77c0 -30.667 -10.667 -56.667 -32 -78s-47.333 -32 -78 -32c-29.333 0 -54.833 10.833 -76.5 32.5s-32.5 47.5 -32.5 77.5s10.667 55.667 32 77s47 32 77 32z" />
    <glyph glyph-name="glyph275" unicode="&#x17b;" horiz-adv-x="1094" 
d="M301 142h726v-142h-979l745 1223h-649v142h902zM581 1741c30.667 0 56.667 -10.667 78 -32s32 -47 32 -77c0 -30.667 -10.667 -56.667 -32 -78s-47.333 -32 -78 -32c-29.333 0 -54.833 10.833 -76.5 32.5s-32.5 47.5 -32.5 77.5s10.667 55.667 32 77s47 32 77 32z" />
    <glyph glyph-name="degree" unicode="&#xb0;" 
d="M580 1385c75.333 0 139.666 -26.499 192.999 -79.499s80 -117.5 80 -193.5c0 -74.667 -26.667 -138.667 -80 -192s-117.666 -80 -192.999 -80s-139.666 26.667 -192.999 80s-80 117.333 -80 192c0 75.333 26.667 139.666 80 192.999s117.666 80 192.999 80zM580 1276
c-45.333 0 -84 -16 -116 -48s-48 -70.667 -48 -116c0 -44.667 16 -83 48 -115s70.667 -48 116 -48s84 16 116 48s48 70.333 48 115c0 45.333 -16 84 -48 116s-70.667 48 -116 48z" />
    <glyph glyph-name="plusminus" unicode="&#xb1;" 
d="M99 633v126h419v412h126v-412h419v-126h-419v-398h-126v398h-419zM99 0v126h964v-126h-964z" />
    <glyph glyph-name="ogonek" unicode="&#xb2;" horiz-adv-x="1024" 
d="M784 0h116c-98 -66 -147 -125.333 -147 -178c0 -21.333 7.5 -39.5 22.5 -54.5s33.167 -22.5 54.5 -22.5c32.667 0 68 9 106 27l-18 -112c-34.667 -18.667 -70.667 -28 -108 -28c-50.667 0 -93.167 15.667 -127.5 47s-51.5 70 -51.5 116c0 70.667 51 139 153 205z" />
    <glyph glyph-name="ogonek" unicode="&#x2db;" horiz-adv-x="1024" 
d="M784 0h116c-98 -66 -147 -125.333 -147 -178c0 -21.333 7.5 -39.5 22.5 -54.5s33.167 -22.5 54.5 -22.5c32.667 0 68 9 106 27l-18 -112c-34.667 -18.667 -70.667 -28 -108 -28c-50.667 0 -93.167 15.667 -127.5 47s-51.5 70 -51.5 116c0 70.667 51 139 153 205z" />
    <glyph glyph-name="lslash" unicode="&#xb3;" horiz-adv-x="425" 
d="M286 864l130 97v-156l-130 -97v-708h-146v639l-130 -96v156l130 95v700h146v-630z" />
    <glyph glyph-name="lslash" unicode="&#x142;" horiz-adv-x="425" 
d="M286 864l130 97v-156l-130 -97v-708h-146v639l-130 -96v156l130 95v700h146v-630z" />
    <glyph glyph-name="acute" unicode="&#xb4;" horiz-adv-x="1024" 
d="M791 1275l-276 -279l-91 51l216 296z" />
    <glyph glyph-name="mu" unicode="&#xb5;" horiz-adv-x="953" 
d="M286 -479l-146 0.00195312v1330h146v-519c0 -150 63.667 -225 191 -225c66.667 0 115.167 19.5 145.5 58.5s45.5 101.833 45.5 188.5v497h146v-513c0 -68.667 -7.33301 -123.834 -22 -165.501s-39.667 -78.834 -75 -111.501c-63.333 -57.333 -143.333 -86 -240 -86
c-72.667 0 -138.667 21.333 -198 64z" />
    <glyph glyph-name="paragraph" unicode="&#xb6;" 
d="M434 -202l-0.000976562 873.999l-30 -1c-95.333 0 -172.666 31.833 -231.999 95.5s-89 146.167 -89 247.5c0 112.667 34.333 199.334 103 260.001s166.667 91 294 91h586l-68 -119h-90v-1448h-130v1448h-214v-1448h-130z" />
    <glyph glyph-name="periodcentered" unicode="&#xb7;" horiz-adv-x="461" 
d="M231 538c28 0 51.833 -9.83301 71.5 -29.5s29.5 -43.5 29.5 -71.5s-9.83301 -51.833 -29.5 -71.5s-43.5 -29.5 -71.5 -29.5c-27.333 0 -51 10 -71 30s-30 43.667 -30 71c0 28 9.83301 51.833 29.5 71.5s43.5 29.5 71.5 29.5z" />
    <glyph glyph-name="periodcentered" unicode="&#x2219;" horiz-adv-x="461" 
d="M231 538c28 0 51.833 -9.83301 71.5 -29.5s29.5 -43.5 29.5 -71.5s-9.83301 -51.833 -29.5 -71.5s-43.5 -29.5 -71.5 -29.5c-27.333 0 -51 10 -71 30s-30 43.667 -30 71c0 28 9.83301 51.833 29.5 71.5s43.5 29.5 71.5 29.5z" />
    <glyph glyph-name="cedilla" unicode="&#xb8;" horiz-adv-x="1024" 
d="M679 -151l-206 -263l-101 51l172 267z" />
    <glyph glyph-name="uni00B9" unicode="&#xb9;" horiz-adv-x="1073" 
d="M934 0c-98 -68.667 -147 -127.999 -147 -177.999c0 -22 7.5 -40.333 22.5 -55s33.167 -22 54.5 -22c32.667 0 68 9 106 27l-19 -112c-34 -18.667 -69.667 -28 -107 -28c-50.667 0 -93.167 15.667 -127.5 47s-51.5 70 -51.5 116c0 70.667 51 139 153 205h-30v118
c-80 -95.333 -178.667 -143 -296 -143c-116.667 0 -213.667 42.833 -291 128.5s-116 193.5 -116 323.5c0 129.333 38.5 235.666 115.5 318.999s174.833 125 293.5 125c116 0 214 -47 294 -141v121h146v-851zM512 739.001c-78 0 -143.833 -29.668 -197.5 -89.001
s-80.5 -132 -80.5 -218c0 -94.667 26.167 -172.5 78.5 -233.5s119.5 -91.5 201.5 -91.5c84.667 0 153.167 29.833 205.5 89.5s78.5 137.834 78.5 234.501c0 90.667 -26.667 164.667 -80 222s-122 86 -206 86z" />
    <glyph glyph-name="uni00B9" unicode="&#x105;" horiz-adv-x="1073" 
d="M934 0c-98 -68.667 -147 -127.999 -147 -177.999c0 -22 7.5 -40.333 22.5 -55s33.167 -22 54.5 -22c32.667 0 68 9 106 27l-19 -112c-34 -18.667 -69.667 -28 -107 -28c-50.667 0 -93.167 15.667 -127.5 47s-51.5 70 -51.5 116c0 70.667 51 139 153 205h-30v118
c-80 -95.333 -178.667 -143 -296 -143c-116.667 0 -213.667 42.833 -291 128.5s-116 193.5 -116 323.5c0 129.333 38.5 235.666 115.5 318.999s174.833 125 293.5 125c116 0 214 -47 294 -141v121h146v-851zM512 739.001c-78 0 -143.833 -29.668 -197.5 -89.001
s-80.5 -132 -80.5 -218c0 -94.667 26.167 -172.5 78.5 -233.5s119.5 -91.5 201.5 -91.5c84.667 0 153.167 29.833 205.5 89.5s78.5 137.834 78.5 234.501c0 90.667 -26.667 164.667 -80 222s-122 86 -206 86z" />
    <glyph glyph-name="scedilla" unicode="&#xba;" horiz-adv-x="717" 
d="M608 716l-120.999 -63.0029c-30 56.667 -68.667 85 -116 85c-28.667 0 -53.167 -9.16699 -73.5 -27.5s-30.5 -40.166 -30.5 -65.499c0 -26 9.16699 -47.167 27.5 -63.5s54.833 -36.166 109.5 -59.499c101.333 -42.667 169.166 -82.167 203.499 -118.5
s51.5 -86.833 51.5 -151.5c0 -78 -27.667 -143.667 -83 -197s-123.666 -80 -204.999 -80c-144 0 -244 72.333 -300 217l128 54c25.333 -53.333 50.333 -89.833 75 -109.5s57.667 -29.5 99 -29.5c39.333 0 72 12.833 98 38.5s39 57.5 39 95.5
c0 32.667 -9.33301 58.834 -28 78.501s-55.334 41.167 -110.001 64.5c-98 42 -163.333 79.5 -196 112.5s-49 77.833 -49 134.5c0 69.333 24 126.5 72 171.5s108.333 67.5 181 67.5c99.333 0 175.333 -51.333 228 -154zM458.001 -151.003l-206 -263l-102 51l172 267z" />
    <glyph glyph-name="scedilla" unicode="&#x15f;" horiz-adv-x="717" 
d="M608 716l-120.999 -63.0029c-30 56.667 -68.667 85 -116 85c-28.667 0 -53.167 -9.16699 -73.5 -27.5s-30.5 -40.166 -30.5 -65.499c0 -26 9.16699 -47.167 27.5 -63.5s54.833 -36.166 109.5 -59.499c101.333 -42.667 169.166 -82.167 203.499 -118.5
s51.5 -86.833 51.5 -151.5c0 -78 -27.667 -143.667 -83 -197s-123.666 -80 -204.999 -80c-144 0 -244 72.333 -300 217l128 54c25.333 -53.333 50.333 -89.833 75 -109.5s57.667 -29.5 99 -29.5c39.333 0 72 12.833 98 38.5s39 57.5 39 95.5
c0 32.667 -9.33301 58.834 -28 78.501s-55.334 41.167 -110.001 64.5c-98 42 -163.333 79.5 -196 112.5s-49 77.833 -49 134.5c0 69.333 24 126.5 72 171.5s108.333 67.5 181 67.5c99.333 0 175.333 -51.333 228 -154zM458.001 -151.003l-206 -263l-102 51l172 267z" />
    <glyph glyph-name="guillemotright" unicode="&#xbb;" horiz-adv-x="883" 
d="M346 437l-244 309l95 75l306 -384l-306 -376l-95 76zM650 437l-243 309l95 75l305 -384l-305 -376l-95 76z" />
    <glyph glyph-name="glyph264" unicode="&#xbc;" horiz-adv-x="733" 
d="M330 1365v-1223h375v-142h-528v1365h153zM548 1372l156 -50l-161 -311l-105 34z" />
    <glyph glyph-name="glyph264" unicode="&#x13d;" horiz-adv-x="733" 
d="M330 1365v-1223h375v-142h-528v1365h153zM548 1372l156 -50l-161 -311l-105 34z" />
    <glyph glyph-name="hungarumlaut" unicode="&#xbd;" horiz-adv-x="1024" 
d="M644 1280l-272 -284l-75 48l216 299zM917 1280l-272 -284l-75 48l216 299z" />
    <glyph glyph-name="hungarumlaut" unicode="&#x2dd;" horiz-adv-x="1024" 
d="M644 1280l-272 -284l-75 48l216 299zM917 1280l-272 -284l-75 48l216 299z" />
    <glyph glyph-name="glyph284" unicode="&#xbe;" horiz-adv-x="618" 
d="M285 1494v-1494h-146v1494h146zM476 1501l142 -43l-134 -314l-104 32z" />
    <glyph glyph-name="glyph284" unicode="&#x13e;" horiz-adv-x="618" 
d="M285 1494v-1494h-146v1494h146zM476 1501l142 -43l-134 -314l-104 32z" />
    <glyph glyph-name="glyph294" unicode="&#xbf;" horiz-adv-x="942" 
d="M310 135h586v-135h-880l615 716h-501v135h792zM510 1250c29.333 0 54.166 -10.1689 74.499 -30.502s30.5 -45.166 30.5 -74.499c0 -28.667 -10.167 -53.167 -30.5 -73.5s-45.166 -30.5 -74.499 -30.5c-28 0 -52.333 10.333 -73 31s-31 45 -31 73
c0 28.667 10.167 53.334 30.5 74.001s44.833 31 73.5 31z" />
    <glyph glyph-name="glyph294" unicode="&#x17c;" horiz-adv-x="942" 
d="M310 135h586v-135h-880l615 716h-501v135h792zM510 1250c29.333 0 54.166 -10.1689 74.499 -30.502s30.5 -45.166 30.5 -74.499c0 -28.667 -10.167 -53.167 -30.5 -73.5s-45.166 -30.5 -74.499 -30.5c-28 0 -52.333 10.333 -73 31s-31 45 -31 73
c0 28.667 10.167 53.334 30.5 74.001s44.833 31 73.5 31z" />
    <glyph glyph-name="glyph268" unicode="&#xc0;" horiz-adv-x="1029" 
d="M533 611l434 -611h-186l-412 599h-39v-599h-153v1365h221c162 0 280.333 -32 355 -96c82 -70 123 -163.667 123 -281c0 -106 -30.833 -193 -92.5 -261s-145.167 -106.667 -250.5 -116zM330 733h95c200.667 0 301 85 301 255c0 76.667 -26 135 -78 175
s-127.667 60 -227 60h-91v-490zM756 1715l-294 -239l-88 65l245 265z" />
    <glyph glyph-name="glyph268" unicode="&#x154;" horiz-adv-x="1029" 
d="M533 611l434 -611h-186l-412 599h-39v-599h-153v1365h221c162 0 280.333 -32 355 -96c82 -70 123 -163.667 123 -281c0 -106 -30.833 -193 -92.5 -261s-145.167 -106.667 -250.5 -116zM330 733h95c200.667 0 301 85 301 255c0 76.667 -26 135 -78 175
s-127.667 60 -227 60h-91v-490zM756 1715l-294 -239l-88 65l245 265z" />
    <glyph glyph-name="Aacute" unicode="&#xc1;" horiz-adv-x="1269" 
d="M928 386h-583l-165 -386h-166l629 1430l613 -1430h-167zM868 528l-228 547l-233 -547h461zM911 1715l-293 -239l-88 65l244 265z" />
    <glyph glyph-name="Acircumflex" unicode="&#xc2;" horiz-adv-x="1269" 
d="M928 386h-583l-165 -386h-166l629 1430l613 -1430h-167zM868 528l-228 547l-233 -547h461zM362 1561l285 243l288 -244l-108 -83l-179 155l-180 -155z" />
    <glyph glyph-name="glyph258" unicode="&#xc3;" horiz-adv-x="1269" 
d="M928 386h-583l-165 -386h-166l629 1430l613 -1430h-167zM868 528l-228 547l-233 -547h461zM358 1764h130.999c22.667 -90.667 73.334 -136 152.001 -136c80.667 0 132 45.333 154 136h131c-10 -84 -40 -149.333 -90 -196s-115 -70 -195 -70
c-82.667 0 -148.5 23.167 -197.5 69.5s-77.5 111.833 -85.5 196.5z" />
    <glyph glyph-name="glyph258" unicode="&#x102;" horiz-adv-x="1269" 
d="M928 386h-583l-165 -386h-166l629 1430l613 -1430h-167zM868 528l-228 547l-233 -547h461zM358 1764h130.999c22.667 -90.667 73.334 -136 152.001 -136c80.667 0 132 45.333 154 136h131c-10 -84 -40 -149.333 -90 -196s-115 -70 -195 -70
c-82.667 0 -148.5 23.167 -197.5 69.5s-77.5 111.833 -85.5 196.5z" />
    <glyph glyph-name="Adieresis" unicode="&#xc4;" horiz-adv-x="1269" 
d="M928 386h-583l-165 -386h-166l629 1430l613 -1430h-167zM868 528l-228 547l-233 -547h461zM450 1738c29.333 0 54.166 -10.167 74.499 -30.5s30.5 -45.166 30.5 -74.499c0 -28.667 -10.167 -53.167 -30.5 -73.5s-45.166 -30.5 -74.499 -30.5c-28 0 -52.333 10.333 -73 31
s-31 45 -31 73c0 29.333 10.167 54.166 30.5 74.499s44.833 30.5 73.5 30.5zM839 1738c29.333 0 54.166 -10.167 74.499 -30.5s30.5 -45.166 30.5 -74.499c0 -28 -10.167 -52.333 -30.5 -73s-45.166 -31 -74.499 -31c-28 0 -52.333 10.333 -73 31s-31 45 -31 73
c0 29.333 10.167 54.166 30.5 74.499s44.833 30.5 73.5 30.5z" />
    <glyph glyph-name="glyph263" unicode="&#xc5;" horiz-adv-x="733" 
d="M331 1365v-1223h375v-142h-528v1365h153zM541 1715l-294 -239l-88 65l245 265z" />
    <glyph glyph-name="glyph263" unicode="&#x139;" horiz-adv-x="733" 
d="M331 1365v-1223h375v-142h-528v1365h153zM541 1715l-294 -239l-88 65l245 265z" />
    <glyph glyph-name="Cacute" unicode="&#xc6;" horiz-adv-x="1323" 
d="M1220 1253l-0.000976562 -188.999c-128 120.667 -266.667 181 -416 181c-148 0 -276.333 -55.833 -385 -167.5s-163 -243.834 -163 -396.501c0 -172.667 62.667 -313 188 -421c108.667 -94.667 230 -142 364 -142c146.667 0 284 59.667 412 179v-189
c-129.333 -88.667 -265 -133 -407 -133c-195.333 0 -362.666 68.833 -501.999 206.5s-209 302.834 -209 495.501c0 195.333 69.833 362.666 209.5 501.999s307.167 209 502.5 209c142 0 277.333 -45 406 -135zM1074 1715l-294 -239l-88 65l245 265z" />
    <glyph glyph-name="Cacute" unicode="&#x106;" horiz-adv-x="1323" 
d="M1220 1253l-0.000976562 -188.999c-128 120.667 -266.667 181 -416 181c-148 0 -276.333 -55.833 -385 -167.5s-163 -243.834 -163 -396.501c0 -172.667 62.667 -313 188 -421c108.667 -94.667 230 -142 364 -142c146.667 0 284 59.667 412 179v-189
c-129.333 -88.667 -265 -133 -407 -133c-195.333 0 -362.666 68.833 -501.999 206.5s-209 302.834 -209 495.501c0 195.333 69.833 362.666 209.5 501.999s307.167 209 502.5 209c142 0 277.333 -45 406 -135zM1074 1715l-294 -239l-88 65l245 265z" />
    <glyph glyph-name="Ccedilla" unicode="&#xc7;" horiz-adv-x="1323" 
d="M1220 1253l-0.000976562 -189.001c-128 120.667 -266.667 181 -416 181c-148 0 -276.333 -55.833 -385 -167.5s-163 -243.834 -163 -396.501c0 -172.667 62.667 -313 188 -421c108.667 -94.667 230 -142 364 -142c146 0 283.333 59.667 412 179v-189
c-129.333 -88.667 -265 -133 -407 -133c-195.333 0 -362.666 68.833 -501.999 206.5s-209 302.834 -209 495.501c0 194.667 69.833 361.834 209.5 501.501s307.167 209.5 502.5 209.5c142 0 277.333 -45 406 -135zM886.999 -162.001l-226 -265l-104 53l184 278z" />
    <glyph glyph-name="Ccaron" unicode="&#xc8;" horiz-adv-x="1323" 
d="M1220 1253l-0.000976562 -188.999c-128 120.667 -266.667 181 -416 181c-148 0 -276.333 -55.833 -385 -167.5s-163 -243.834 -163 -396.501c0 -172.667 62.667 -313 188 -421c108.667 -94.667 230 -142 364 -142c146.667 0 284 59.667 412 179v-189
c-129.333 -88.667 -265 -133 -407 -133c-195.333 0 -362.666 68.833 -501.999 206.5s-209 302.834 -209 495.501c0 195.333 69.833 362.666 209.5 501.999s307.167 209 502.5 209c142 0 277.333 -45 406 -135zM1095 1721l-285 -244l-288 244l108 83l179 -154l180 154z" />
    <glyph glyph-name="Ccaron" unicode="&#x10c;" horiz-adv-x="1323" 
d="M1220 1253l-0.000976562 -188.999c-128 120.667 -266.667 181 -416 181c-148 0 -276.333 -55.833 -385 -167.5s-163 -243.834 -163 -396.501c0 -172.667 62.667 -313 188 -421c108.667 -94.667 230 -142 364 -142c146.667 0 284 59.667 412 179v-189
c-129.333 -88.667 -265 -133 -407 -133c-195.333 0 -362.666 68.833 -501.999 206.5s-209 302.834 -209 495.501c0 195.333 69.833 362.666 209.5 501.999s307.167 209 502.5 209c142 0 277.333 -45 406 -135zM1095 1721l-285 -244l-288 244l108 83l179 -154l180 154z" />
    <glyph glyph-name="Eacute" unicode="&#xc9;" horiz-adv-x="987" 
d="M884 1223h-554v-405h539v-142h-539v-534h554v-142h-707v1365h707v-142zM790 1715l-294 -239l-88 65l245 265z" />
    <glyph glyph-name="glyph262" unicode="&#xca;" horiz-adv-x="987" 
d="M884 0c-103.333 -65.333 -155 -127.333 -155 -186c0 -22 8.16699 -40.333 24.5 -55s36.5 -22 60.5 -22c32.667 0 69 11.333 109 34l-15 -125c-33.333 -22 -73 -33 -119 -33c-54.667 0 -101 17 -139 51s-57 75.667 -57 125c0 76.667 52.667 147 158 211h-574v1365h707
v-142h-554v-405h539v-142h-539v-534h554v-142z" />
    <glyph glyph-name="glyph262" unicode="&#x118;" horiz-adv-x="987" 
d="M884 0c-103.333 -65.333 -155 -127.333 -155 -186c0 -22 8.16699 -40.333 24.5 -55s36.5 -22 60.5 -22c32.667 0 69 11.333 109 34l-15 -125c-33.333 -22 -73 -33 -119 -33c-54.667 0 -101 17 -139 51s-57 75.667 -57 125c0 76.667 52.667 147 158 211h-574v1365h707
v-142h-554v-405h539v-142h-539v-534h554v-142z" />
    <glyph glyph-name="Edieresis" unicode="&#xcb;" horiz-adv-x="987" 
d="M884 1223h-554v-405h539v-142h-539v-534h554v-142h-707v1365h707v-142zM336 1738c29.333 0 54.166 -10.167 74.499 -30.5s30.5 -45.166 30.5 -74.499c0 -28.667 -10.167 -53.167 -30.5 -73.5s-45.166 -30.5 -74.499 -30.5c-28 0 -52.333 10.333 -73 31s-31 45 -31 73
c0 29.333 10.167 54.166 30.5 74.499s44.833 30.5 73.5 30.5zM725 1738c29.333 0 54.166 -10.167 74.499 -30.5s30.5 -45.166 30.5 -74.499c0 -28.667 -10.167 -53.167 -30.5 -73.5s-45.166 -30.5 -74.499 -30.5c-28 0 -52.333 10.333 -73 31s-31 45 -31 73
c0 29.333 10.167 54.166 30.5 74.499s44.833 30.5 73.5 30.5z" />
    <glyph glyph-name="glyph261" unicode="&#xcc;" horiz-adv-x="987" 
d="M884 1223h-554v-405h539v-142h-539v-534h554v-142h-707v1365h707v-142zM817 1721l-285 -244l-288 244l108 83l180 -154l180 154z" />
    <glyph glyph-name="glyph261" unicode="&#x11a;" horiz-adv-x="987" 
d="M884 1223h-554v-405h539v-142h-539v-534h554v-142h-707v1365h707v-142zM817 1721l-285 -244l-288 244l108 83l180 -154l180 154z" />
    <glyph glyph-name="Iacute" unicode="&#xcd;" horiz-adv-x="508" 
d="M330 1365v-1365h-153v1365h153zM489 1715l-246 -239l-88 58l197 272z" />
    <glyph glyph-name="Icircumflex" unicode="&#xce;" horiz-adv-x="508" 
d="M331 1365v-1365h-153v1365h153zM2 1561l251 243l254 -244l-102 -83l-152 155l-152 -155z" />
    <glyph glyph-name="glyph260" unicode="&#xcf;" horiz-adv-x="1297" 
d="M177 0v1365h280c122 0 226.5 -15.833 313.5 -47.5s164.833 -82.5 233.5 -152.5c126.667 -128 190 -289.667 190 -485c0 -192 -64.667 -352.333 -194 -481c-71.333 -70.667 -149.5 -121.5 -234.5 -152.5s-188.5 -46.5 -310.5 -46.5h-278zM330 142l133 -0.000976562
c180.667 0 322.667 52.333 426 157c100.667 102.667 151 230.334 151 383.001c0 154 -50 282 -150 384c-102 104.667 -244.333 157 -427 157h-133v-1081zM866 1721l-285 -244l-288 244l109 83l179 -154l180 154z" />
    <glyph glyph-name="glyph260" unicode="&#x10e;" horiz-adv-x="1297" 
d="M177 0v1365h280c122 0 226.5 -15.833 313.5 -47.5s164.833 -82.5 233.5 -152.5c126.667 -128 190 -289.667 190 -485c0 -192 -64.667 -352.333 -194 -481c-71.333 -70.667 -149.5 -121.5 -234.5 -152.5s-188.5 -46.5 -310.5 -46.5h-278zM330 142l133 -0.000976562
c180.667 0 322.667 52.333 426 157c100.667 102.667 151 230.334 151 383.001c0 154 -50 282 -150 384c-102 104.667 -244.333 157 -427 157h-133v-1081zM866 1721l-285 -244l-288 244l109 83l179 -154l180 154z" />
    <glyph glyph-name="Eth" unicode="&#xd0;" horiz-adv-x="1297" 
d="M179 0v667h-137v137h137v561h279c232.667 0 415 -66.667 547 -200c126 -128 189 -290 189 -486c0 -191.333 -64.667 -351.333 -194 -480c-71.333 -70.667 -149.5 -121.5 -234.5 -152.5s-188.167 -46.5 -309.5 -46.5h-277zM332 142h132.001
c173.333 0 312.666 49.333 417.999 148s158 229 158 391c0 164 -52.5 295.333 -157.5 394s-244.5 148 -418.5 148h-132v-419h327v-137h-327v-525z" />
    <glyph glyph-name="Eth" unicode="&#x110;" horiz-adv-x="1297" 
d="M179 0v667h-137v137h137v561h279c232.667 0 415 -66.667 547 -200c126 -128 189 -290 189 -486c0 -191.333 -64.667 -351.333 -194 -480c-71.333 -70.667 -149.5 -121.5 -234.5 -152.5s-188.167 -46.5 -309.5 -46.5h-277zM332 142h132.001
c173.333 0 312.666 49.333 417.999 148s158 229 158 391c0 164 -52.5 295.333 -157.5 394s-244.5 148 -418.5 148h-132v-419h327v-137h-327v-525z" />
    <glyph glyph-name="glyph265" unicode="&#xd1;" horiz-adv-x="1571" 
d="M177 0v1422l1064 -1114v1057h153v-1427l-1064 1114v-1052h-153zM1048 1715l-294 -239l-88 65l245 265z" />
    <glyph glyph-name="glyph265" unicode="&#x143;" horiz-adv-x="1571" 
d="M177 0v1422l1064 -1114v1057h153v-1427l-1064 1114v-1052h-153zM1048 1715l-294 -239l-88 65l245 265z" />
    <glyph glyph-name="glyph266" unicode="&#xd2;" horiz-adv-x="1571" 
d="M177 0v1422l1064 -1114v1057h153v-1427l-1064 1114v-1052h-153zM1072 1721l-285 -244l-288 244l108 83l180 -154l179 154z" />
    <glyph glyph-name="glyph266" unicode="&#x147;" horiz-adv-x="1571" 
d="M177 0v1422l1064 -1114v1057h153v-1427l-1064 1114v-1052h-153zM1072 1721l-285 -244l-288 244l108 83l180 -154l179 154z" />
    <glyph glyph-name="Oacute" unicode="&#xd3;" horiz-adv-x="1626" 
d="M814 1388c194 0 360.667 -69.5 500 -208.5s209 -305.167 209 -498.5s-69.667 -359.333 -209 -498s-306 -208 -500 -208c-182 0 -342 61.667 -480 185c-154.667 137.333 -232 314 -232 530c0 188.667 70.5 352.167 211.5 490.5s307.833 207.5 500.5 207.5zM813 1245
c-152.667 0 -283.667 -54.667 -393 -164s-164 -240 -164 -392c0 -159.333 54 -294.333 162 -405s239.667 -166 395 -166c153.333 0 284.333 55 393 165s163 242.333 163 397c0 156.667 -54 290 -162 400s-239.333 165 -394 165zM1089 1715l-294 -239l-88 65l245 265z" />
    <glyph glyph-name="Ocircumflex" unicode="&#xd4;" horiz-adv-x="1626" 
d="M814 1388c194 0 360.667 -69.5 500 -208.5s209 -305.167 209 -498.5s-69.667 -359.333 -209 -498s-306 -208 -500 -208c-182 0 -342 61.667 -480 185c-154.667 137.333 -232 314 -232 530c0 188.667 70.5 352.167 211.5 490.5s307.833 207.5 500.5 207.5zM813 1245
c-152.667 0 -283.667 -54.667 -393 -164s-164 -240 -164 -392c0 -159.333 54 -294.333 162 -405s239.667 -166 395 -166c153.333 0 284.333 55 393 165s163 242.333 163 397c0 156.667 -54 290 -162 400s-239.333 165 -394 165zM526 1561l285 243l288 -244l-108 -83
l-180 155l-179 -155z" />
    <glyph glyph-name="glyph267" unicode="&#xd5;" horiz-adv-x="1626" 
d="M814 1388c194 0 360.667 -69.5 500 -208.5s209 -305.167 209 -498.5s-69.667 -359.333 -209 -498s-306 -208 -500 -208c-182 0 -342 61.667 -480 185c-154.667 137.333 -232 314 -232 530c0 188.667 70.5 352.167 211.5 490.5s307.833 207.5 500.5 207.5zM813 1245
c-152.667 0 -283.667 -54.667 -393 -164s-164 -240 -164 -392c0 -159.333 54 -294.333 162 -405s239.667 -166 395 -166c153.333 0 284.333 55 393 165s163 242.333 163 397c0 156.667 -54 290 -162 400s-239.333 165 -394 165zM967 1732l-300 -248l-73 57l242 265z
M1308 1732l-300 -248l-72 57l242 265z" />
    <glyph glyph-name="glyph267" unicode="&#x150;" horiz-adv-x="1626" 
d="M814 1388c194 0 360.667 -69.5 500 -208.5s209 -305.167 209 -498.5s-69.667 -359.333 -209 -498s-306 -208 -500 -208c-182 0 -342 61.667 -480 185c-154.667 137.333 -232 314 -232 530c0 188.667 70.5 352.167 211.5 490.5s307.833 207.5 500.5 207.5zM813 1245
c-152.667 0 -283.667 -54.667 -393 -164s-164 -240 -164 -392c0 -159.333 54 -294.333 162 -405s239.667 -166 395 -166c153.333 0 284.333 55 393 165s163 242.333 163 397c0 156.667 -54 290 -162 400s-239.333 165 -394 165zM967 1732l-300 -248l-73 57l242 265z
M1308 1732l-300 -248l-72 57l242 265z" />
    <glyph glyph-name="Odieresis" unicode="&#xd6;" horiz-adv-x="1626" 
d="M814 1388c194 0 360.667 -69.5 500 -208.5s209 -305.167 209 -498.5s-69.667 -359.333 -209 -498s-306 -208 -500 -208c-182 0 -342 61.667 -480 185c-154.667 137.333 -232 314 -232 530c0 188.667 70.5 352.167 211.5 490.5s307.833 207.5 500.5 207.5zM813 1245
c-152.667 0 -283.667 -54.667 -393 -164s-164 -240 -164 -392c0 -159.333 54 -294.333 162 -405s239.667 -166 395 -166c153.333 0 284.333 55 393 165s163 242.333 163 397c0 156.667 -54 290 -162 400s-239.333 165 -394 165zM619 1738
c28.667 0 53.1689 -10.167 73.502 -30.5s30.5 -45.166 30.5 -74.499c0 -28.667 -10.167 -53.167 -30.5 -73.5s-44.833 -30.5 -73.5 -30.5s-53.334 10.333 -74.001 31s-31 45 -31 73c0 29.333 10.167 54.166 30.5 74.499s45.166 30.5 74.499 30.5zM1007 1738
c29.333 0 54.166 -10.167 74.499 -30.5s30.5 -45.166 30.5 -74.499c0 -28.667 -10.167 -53.167 -30.5 -73.5s-45.166 -30.5 -74.499 -30.5c-28 0 -52.333 10.333 -73 31s-31 45 -31 73c0 29.333 10.167 54.166 30.5 74.499s44.833 30.5 73.5 30.5z" />
    <glyph glyph-name="multiply" unicode="&#xd7;" 
d="M177 1013l86 86l317 -317l317 317l86 -86l-317 -317l317 -317l-86 -86l-317 317l-317 -317l-86 86l317 317z" />
    <glyph glyph-name="glyph269" unicode="&#xd8;" horiz-adv-x="1029" 
d="M533 611l434 -611h-186l-412 599h-39v-599h-153v1365h221c162 0 280.333 -32 355 -96c82 -70 123 -163.667 123 -281c0 -106 -30.833 -193 -92.5 -261s-145.167 -106.667 -250.5 -116zM330 733h95c200.667 0 301 85 301 255c0 76.667 -26 135 -78 175
s-127.667 60 -227 60h-91v-490zM773 1721l-285 -244l-288 244l108 83l180 -154l179 154z" />
    <glyph glyph-name="glyph269" unicode="&#x158;" horiz-adv-x="1029" 
d="M533 611l434 -611h-186l-412 599h-39v-599h-153v1365h221c162 0 280.333 -32 355 -96c82 -70 123 -163.667 123 -281c0 -106 -30.833 -193 -92.5 -261s-145.167 -106.667 -250.5 -116zM330 733h95c200.667 0 301 85 301 255c0 76.667 -26 135 -78 175
s-127.667 60 -227 60h-91v-490zM773 1721l-285 -244l-288 244l108 83l180 -154l179 154z" />
    <glyph glyph-name="glyph272" unicode="&#xd9;" horiz-adv-x="1328" 
d="M330 1365l0.00390625 -835.997c0 -80.667 4.5 -141.334 13.5 -182.001s25.833 -76.334 50.5 -107.001c29.333 -36.667 68.666 -66.167 117.999 -88.5s99.666 -33.5 150.999 -33.5c52 0 102.667 11.167 152 33.5s88.666 51.833 117.999 88.5
c24.667 31.333 41.5 67.166 50.5 107.499s13.5 100.833 13.5 181.5v836h153v-878c0 -154.667 -39.667 -274 -119 -358c-96.667 -102.667 -219.334 -154 -368.001 -154c-148 0 -270.333 51.333 -367 154c-79.333 84 -119 203.333 -119 358v878h153zM663.004 1835
c51.333 0 95.166 -18.167 131.499 -54.5s54.5 -80.166 54.5 -131.499c0 -50.667 -18.167 -94.167 -54.5 -130.5s-80.166 -54.5 -131.499 -54.5c-50.667 0 -94.167 18.167 -130.5 54.5s-54.5 79.833 -54.5 130.5c0 51.333 18.167 95.166 54.5 131.499s79.833 54.5 130.5 54.5
zM663.004 1735c-23.333 0 -43.333 -8.33301 -60 -25s-25 -37 -25 -61c0 -23.333 8.33301 -43.333 25 -60s36.667 -25 60 -25c24 0 44.333 8.33301 61 25s25 36.667 25 60c0 24 -8.33301 44.333 -25 61s-37 25 -61 25z" />
    <glyph glyph-name="glyph272" unicode="&#x16e;" horiz-adv-x="1328" 
d="M330 1365l0.00390625 -835.997c0 -80.667 4.5 -141.334 13.5 -182.001s25.833 -76.334 50.5 -107.001c29.333 -36.667 68.666 -66.167 117.999 -88.5s99.666 -33.5 150.999 -33.5c52 0 102.667 11.167 152 33.5s88.666 51.833 117.999 88.5
c24.667 31.333 41.5 67.166 50.5 107.499s13.5 100.833 13.5 181.5v836h153v-878c0 -154.667 -39.667 -274 -119 -358c-96.667 -102.667 -219.334 -154 -368.001 -154c-148 0 -270.333 51.333 -367 154c-79.333 84 -119 203.333 -119 358v878h153zM663.004 1835
c51.333 0 95.166 -18.167 131.499 -54.5s54.5 -80.166 54.5 -131.499c0 -50.667 -18.167 -94.167 -54.5 -130.5s-80.166 -54.5 -131.499 -54.5c-50.667 0 -94.167 18.167 -130.5 54.5s-54.5 79.833 -54.5 130.5c0 51.333 18.167 95.166 54.5 131.499s79.833 54.5 130.5 54.5
zM663.004 1735c-23.333 0 -43.333 -8.33301 -60 -25s-25 -37 -25 -61c0 -23.333 8.33301 -43.333 25 -60s36.667 -25 60 -25c24 0 44.333 8.33301 61 25s25 36.667 25 60c0 24 -8.33301 44.333 -25 61s-37 25 -61 25z" />
    <glyph glyph-name="Uacute" unicode="&#xda;" horiz-adv-x="1328" 
d="M330 1365l0.00390625 -835.997c0 -80.667 4.5 -141.334 13.5 -182.001s25.833 -76.334 50.5 -107.001c29.333 -36.667 68.666 -66.167 117.999 -88.5s99.666 -33.5 150.999 -33.5c52 0 102.667 11.167 152 33.5s88.666 51.833 117.999 88.5
c24.667 31.333 41.5 67.166 50.5 107.499s13.5 100.833 13.5 181.5v836h153v-878c0 -154.667 -39.667 -274 -119 -358c-96.667 -102.667 -219.334 -154 -368.001 -154c-148 0 -270.333 51.333 -367 154c-79.333 84 -119 203.333 -119 358v878h153zM933.004 1715l-294 -239
l-88 65l245 265z" />
    <glyph glyph-name="glyph273" unicode="&#xdb;" horiz-adv-x="1328" 
d="M330 1365l0.00390625 -835.997c0 -80.667 4.5 -141.334 13.5 -182.001s25.833 -76.334 50.5 -107.001c29.333 -36.667 68.666 -66.167 117.999 -88.5s99.666 -33.5 150.999 -33.5c52 0 102.667 11.167 152 33.5s88.666 51.833 117.999 88.5
c24.667 31.333 41.5 67.166 50.5 107.499s13.5 100.833 13.5 181.5v836h153v-878c0 -154.667 -39.667 -274 -119 -358c-96.667 -102.667 -219.334 -154 -368.001 -154c-148 0 -270.333 51.333 -367 154c-79.333 84 -119 203.333 -119 358v878h153zM804.004 1732l-300 -248
l-72 57l242 265zM1146 1732l-300 -248l-73 57l242 265z" />
    <glyph glyph-name="glyph273" unicode="&#x170;" horiz-adv-x="1328" 
d="M330 1365l0.00390625 -835.997c0 -80.667 4.5 -141.334 13.5 -182.001s25.833 -76.334 50.5 -107.001c29.333 -36.667 68.666 -66.167 117.999 -88.5s99.666 -33.5 150.999 -33.5c52 0 102.667 11.167 152 33.5s88.666 51.833 117.999 88.5
c24.667 31.333 41.5 67.166 50.5 107.499s13.5 100.833 13.5 181.5v836h153v-878c0 -154.667 -39.667 -274 -119 -358c-96.667 -102.667 -219.334 -154 -368.001 -154c-148 0 -270.333 51.333 -367 154c-79.333 84 -119 203.333 -119 358v878h153zM804.004 1732l-300 -248
l-72 57l242 265zM1146 1732l-300 -248l-73 57l242 265z" />
    <glyph glyph-name="Udieresis" unicode="&#xdc;" horiz-adv-x="1328" 
d="M330 1365l0.00390625 -835.997c0 -80.667 4.5 -141.334 13.5 -182.001s25.833 -76.334 50.5 -107.001c29.333 -36.667 68.666 -66.167 117.999 -88.5s99.666 -33.5 150.999 -33.5c52 0 102.667 11.167 152 33.5s88.666 51.833 117.999 88.5
c24.667 31.333 41.5 67.166 50.5 107.499s13.5 100.833 13.5 181.5v836h153v-878c0 -154.667 -39.667 -274 -119 -358c-96.667 -102.667 -219.334 -154 -368.001 -154c-148 0 -270.333 51.333 -367 154c-79.333 84 -119 203.333 -119 358v878h153zM469.004 1738
c29.333 0 54.166 -10.167 74.499 -30.5s30.5 -45.166 30.5 -74.499c0 -28.667 -10.167 -53.167 -30.5 -73.5s-45.166 -30.5 -74.499 -30.5c-28 0 -52.333 10.333 -73 31s-31 45 -31 73c0 29.333 10.167 54.166 30.5 74.499s44.833 30.5 73.5 30.5zM858.004 1738
c29.333 0 54.166 -10.167 74.499 -30.5s30.5 -45.166 30.5 -74.499c0 -28.667 -10.167 -53.167 -30.5 -73.5s-45.166 -30.5 -74.499 -30.5c-28 0 -52.333 10.333 -73 31s-31 45 -31 73c0 29.333 10.167 54.166 30.5 74.499s44.833 30.5 73.5 30.5z" />
    <glyph glyph-name="Yacute" unicode="&#xdd;" horiz-adv-x="1081" 
d="M461 587l-447 778h176l348 -609l353 609h177l-454 -778v-587h-153v587zM810 1715l-293 -239l-88 65l244 265z" />
    <glyph glyph-name="glyph276" unicode="&#xde;" horiz-adv-x="870" 
d="M510 1223v-1223h-153v1223h-330v142h815v-142h-332zM368 -109l155 -49l-161 -312l-105 34z" />
    <glyph glyph-name="glyph276" unicode="&#x162;" horiz-adv-x="870" 
d="M510 1223v-1223h-153v1223h-330v142h815v-142h-332zM368 -109l155 -49l-161 -312l-105 34z" />
    <glyph glyph-name="germandbls" unicode="&#xdf;" horiz-adv-x="1073" 
d="M139 0v716.001h-79v135h79v282c0 122 31.5 216.5 94.5 283.5s151.833 100.5 266.5 100.5c100.667 0 184.167 -32.333 250.5 -97s99.5 -146 99.5 -244c0 -121.333 -51 -209 -153 -263c90 -34 161.167 -90.333 213.5 -169s78.5 -167.667 78.5 -267
c0 -138 -48.667 -254 -146 -348s-221.666 -145 -372.999 -153v143c112 8 201.667 45 269 111s101 150 101 252c0 114 -42.667 203.333 -128 268c-53.333 41.333 -134 68.666 -242 81.999v132c75.333 4 132.666 24.667 171.999 62s59 90 59 158c0 58 -19.333 106 -58 144
s-88 57 -148 57c-80 0 -137.667 -27.333 -173 -82c-24.667 -37.333 -37 -116.333 -37 -237v-1066h-146z" />
    <glyph glyph-name="glyph288" unicode="&#xe0;" horiz-adv-x="603" 
d="M139 851h146v-92c37.333 45.333 68.666 75.5 93.999 90.5s58 22.5 98 22.5c42 0 85.333 -12.333 130 -37l-69 -132c-30 20 -58.333 30 -85 30c-59.333 0 -102.166 -22.5 -128.499 -67.5s-39.5 -117.5 -39.5 -217.5v-448h-146v851zM601 1275l-276 -279l-91 51l216 296z
" />
    <glyph glyph-name="glyph288" unicode="&#x155;" horiz-adv-x="603" 
d="M139 851h146v-92c37.333 45.333 68.666 75.5 93.999 90.5s58 22.5 98 22.5c42 0 85.333 -12.333 130 -37l-69 -132c-30 20 -58.333 30 -85 30c-59.333 0 -102.166 -22.5 -128.499 -67.5s-39.5 -117.5 -39.5 -217.5v-448h-146v851zM601 1275l-276 -279l-91 51l216 296z
" />
    <glyph glyph-name="aacute" unicode="&#xe1;" horiz-adv-x="1073" 
d="M788 851l146 0.000976562v-851h-146v118c-80 -95.333 -178.667 -143 -296 -143c-116.667 0 -213.667 42.833 -291 128.5s-116 193.5 -116 323.5c0 129.333 38.5 235.666 115.5 318.999s174.833 125 293.5 125c116 0 214 -47 294 -141v121zM512 739.001
c-78 0 -143.833 -29.668 -197.5 -89.001s-80.5 -132 -80.5 -218c0 -94.667 26.167 -172.5 78.5 -233.5s119.5 -91.5 201.5 -91.5c84.667 0 153.167 29.833 205.5 89.5s78.5 137.834 78.5 234.501c0 90.667 -26.667 164.667 -80 222s-122 86 -206 86zM802 1275l-275 -279
l-92 51l216 296z" />
    <glyph glyph-name="acircumflex" unicode="&#xe2;" horiz-adv-x="1073" 
d="M788 851l146 0.000976562v-851h-146v118c-80 -95.333 -178.667 -143 -296 -143c-116.667 0 -213.667 42.833 -291 128.5s-116 193.5 -116 323.5c0 129.333 38.5 235.666 115.5 318.999s174.833 125 293.5 125c116 0 214 -47 294 -141v121zM512 739.001
c-78 0 -143.833 -29.668 -197.5 -89.001s-80.5 -132 -80.5 -218c0 -94.667 26.167 -172.5 78.5 -233.5s119.5 -91.5 201.5 -91.5c84.667 0 153.167 29.833 205.5 89.5s78.5 137.834 78.5 234.501c0 90.667 -26.667 164.667 -80 222s-122 86 -206 86zM261 1077l282 266
l284 -266l-105 -80l-179 169l-180 -170z" />
    <glyph glyph-name="glyph278" unicode="&#xe3;" horiz-adv-x="1073" 
d="M788 851l146 0.000976562v-851h-146v118c-80 -95.333 -178.667 -143 -296 -143c-116.667 0 -213.667 42.833 -291 128.5s-116 193.5 -116 323.5c0 129.333 38.5 235.666 115.5 318.999s174.833 125 293.5 125c116 0 214 -47 294 -141v121zM512 739.001
c-78 0 -143.833 -29.668 -197.5 -89.001s-80.5 -132 -80.5 -218c0 -94.667 26.167 -172.5 78.5 -233.5s119.5 -91.5 201.5 -91.5c84.667 0 153.167 29.833 205.5 89.5s78.5 137.834 78.5 234.501c0 90.667 -26.667 164.667 -80 222s-122 86 -206 86zM275 1297h127
c4 -44.667 18.333 -79.667 43 -105s56.667 -38 96 -38c80.667 0 129 47.667 145 143h127c-10 -82 -39.167 -146.833 -87.5 -194.5s-109.833 -71.5 -184.5 -71.5c-76 0 -139.333 25.167 -190 75.5s-76 113.833 -76 190.5z" />
    <glyph glyph-name="glyph278" unicode="&#x103;" horiz-adv-x="1073" 
d="M788 851l146 0.000976562v-851h-146v118c-80 -95.333 -178.667 -143 -296 -143c-116.667 0 -213.667 42.833 -291 128.5s-116 193.5 -116 323.5c0 129.333 38.5 235.666 115.5 318.999s174.833 125 293.5 125c116 0 214 -47 294 -141v121zM512 739.001
c-78 0 -143.833 -29.668 -197.5 -89.001s-80.5 -132 -80.5 -218c0 -94.667 26.167 -172.5 78.5 -233.5s119.5 -91.5 201.5 -91.5c84.667 0 153.167 29.833 205.5 89.5s78.5 137.834 78.5 234.501c0 90.667 -26.667 164.667 -80 222s-122 86 -206 86zM275 1297h127
c4 -44.667 18.333 -79.667 43 -105s56.667 -38 96 -38c80.667 0 129 47.667 145 143h127c-10 -82 -39.167 -146.833 -87.5 -194.5s-109.833 -71.5 -184.5 -71.5c-76 0 -139.333 25.167 -190 75.5s-76 113.833 -76 190.5z" />
    <glyph glyph-name="adieresis" unicode="&#xe4;" horiz-adv-x="1073" 
d="M788 851l146 0.000976562v-851h-146v118c-80 -95.333 -178.667 -143 -296 -143c-116.667 0 -213.667 42.833 -291 128.5s-116 193.5 -116 323.5c0 129.333 38.5 235.666 115.5 318.999s174.833 125 293.5 125c116 0 214 -47 294 -141v121zM512 739.001
c-78 0 -143.833 -29.668 -197.5 -89.001s-80.5 -132 -80.5 -218c0 -94.667 26.167 -172.5 78.5 -233.5s119.5 -91.5 201.5 -91.5c84.667 0 153.167 29.833 205.5 89.5s78.5 137.834 78.5 234.501c0 90.667 -26.667 164.667 -80 222s-122 86 -206 86zM366 1249
c28.667 0 53 -10 73 -30s30 -44.333 30 -73c0 -28 -10.167 -52 -30.5 -72s-44.5 -30 -72.5 -30s-52 10 -72 30s-30 44 -30 72c0 28.667 10 53 30 73s44 30 72 30zM722 1249c28.667 0 52.833 -10 72.5 -30s29.5 -44.333 29.5 -73c0 -28 -10 -52 -30 -72s-44 -30 -72 -30
s-52.167 10 -72.5 30s-30.5 44 -30.5 72c0 28.667 10 53 30 73s44.333 30 73 30z" />
    <glyph glyph-name="glyph283" unicode="&#xe5;" horiz-adv-x="425" 
d="M285 1494v-1494h-146v1494h146zM458 1810l-246 -239l-88 59l204 272z" />
    <glyph glyph-name="glyph283" unicode="&#x13a;" horiz-adv-x="425" 
d="M285 1494v-1494h-146v1494h146zM458 1810l-246 -239l-88 59l204 272z" />
    <glyph glyph-name="cacute" unicode="&#xe6;" horiz-adv-x="892" 
d="M801 789l0.000976562 -191.999c-46.667 52 -89.834 88.5 -129.501 109.5s-85.834 31.5 -138.501 31.5c-84.667 0 -155.834 -30.333 -213.501 -91s-86.5 -135.667 -86.5 -225c0 -88.667 28.333 -163.167 85 -223.5s126.334 -90.5 209.001 -90.5
c55.333 0 103.666 11 144.999 33s86.333 60.667 135 116v-193c-93.333 -59.333 -183.666 -89 -270.999 -89c-127.333 0 -234.5 42.833 -321.5 128.5s-130.5 191.167 -130.5 316.5c0 127.333 43.5 234.166 130.5 320.499s194.833 129.5 323.5 129.5
c92.667 0 180.334 -27 263.001 -81zM793.001 1275l-276 -279l-91 51l215 296z" />
    <glyph glyph-name="cacute" unicode="&#x107;" horiz-adv-x="892" 
d="M801 789l0.000976562 -191.999c-46.667 52 -89.834 88.5 -129.501 109.5s-85.834 31.5 -138.501 31.5c-84.667 0 -155.834 -30.333 -213.501 -91s-86.5 -135.667 -86.5 -225c0 -88.667 28.333 -163.167 85 -223.5s126.334 -90.5 209.001 -90.5
c55.333 0 103.666 11 144.999 33s86.333 60.667 135 116v-193c-93.333 -59.333 -183.666 -89 -270.999 -89c-127.333 0 -234.5 42.833 -321.5 128.5s-130.5 191.167 -130.5 316.5c0 127.333 43.5 234.166 130.5 320.499s194.833 129.5 323.5 129.5
c92.667 0 180.334 -27 263.001 -81zM793.001 1275l-276 -279l-91 51l215 296z" />
    <glyph glyph-name="ccedilla" unicode="&#xe7;" horiz-adv-x="892" 
d="M801 789l0.000976562 -191.999c-46.667 52 -89.834 88.5 -129.501 109.5s-85.834 31.5 -138.501 31.5c-85.333 0 -156.666 -30.167 -213.999 -90.5s-86 -135.5 -86 -225.5c0 -88.667 28.167 -163.167 84.5 -223.5s126.166 -90.5 209.499 -90.5
c55.333 0 103.666 11 144.999 33s86.333 60.667 135 116v-193c-93.333 -59.333 -183.666 -89 -270.999 -89c-127.333 0 -234.5 42.833 -321.5 128.5s-130.5 191.167 -130.5 316.5c0 127.333 43.667 234.166 131 320.499s195 129.5 323 129.5
c92.667 0 180.334 -27 263.001 -81zM613.001 -150.999l-206 -263l-102 51l173 267z" />
    <glyph glyph-name="ccaron" unicode="&#xe8;" horiz-adv-x="892" 
d="M801 789l0.000976562 -191.999c-46.667 52 -89.834 88.5 -129.501 109.5s-85.834 31.5 -138.501 31.5c-84.667 0 -155.834 -30.333 -213.501 -91s-86.5 -135.667 -86.5 -225c0 -88.667 28.333 -163.167 85 -223.5s126.334 -90.5 209.001 -90.5
c55.333 0 103.666 11 144.999 33s86.333 60.667 135 116v-193c-93.333 -59.333 -183.666 -89 -270.999 -89c-127.333 0 -234.5 42.833 -321.5 128.5s-130.5 191.167 -130.5 316.5c0 127.333 43.5 234.166 130.5 320.499s194.833 129.5 323.5 129.5
c92.667 0 180.334 -27 263.001 -81zM811.001 1263l-282 -267l-285 267l105 80l180 -169l179 169z" />
    <glyph glyph-name="ccaron" unicode="&#x10d;" horiz-adv-x="892" 
d="M801 789l0.000976562 -191.999c-46.667 52 -89.834 88.5 -129.501 109.5s-85.834 31.5 -138.501 31.5c-84.667 0 -155.834 -30.333 -213.501 -91s-86.5 -135.667 -86.5 -225c0 -88.667 28.333 -163.167 85 -223.5s126.334 -90.5 209.001 -90.5
c55.333 0 103.666 11 144.999 33s86.333 60.667 135 116v-193c-93.333 -59.333 -183.666 -89 -270.999 -89c-127.333 0 -234.5 42.833 -321.5 128.5s-130.5 191.167 -130.5 316.5c0 127.333 43.5 234.166 130.5 320.499s194.833 129.5 323.5 129.5
c92.667 0 180.334 -27 263.001 -81zM811.001 1263l-282 -267l-285 267l105 80l180 -169l179 169z" />
    <glyph glyph-name="eacute" unicode="&#xe9;" horiz-adv-x="986" 
d="M902 395l-663.001 -0.000976562c4 -87.333 30.667 -157.166 80 -209.499s112.666 -78.5 189.999 -78.5c56.667 0 104.334 13.167 143.001 39.5s78.334 72.833 119.001 139.5l123 -69c-92.667 -161.333 -223.667 -242 -393 -242c-123.333 0 -223.5 41.833 -300.5 125.5
s-115.5 192.5 -115.5 326.5c0 130 38.667 236.333 116 319s176.333 124 297 124s218.167 -41 292.5 -123s111.5 -189.667 111.5 -323v-29zM747.999 517.999c-13.333 66.667 -42.5 120 -87.5 160s-98.833 60 -161.5 60c-62 0 -116.5 -20.667 -163.5 -62
s-76.167 -94 -87.5 -158h500zM771.999 1275l-275 -279l-92 51l216 296z" />
    <glyph glyph-name="glyph282" unicode="&#xea;" horiz-adv-x="986" 
d="M804 -228l-19.001 -112c-34 -18.667 -70 -28 -108 -28c-50.667 0 -93.334 16 -128.001 48s-52 72 -52 120c0 58 39.333 121 118 189c-42 -8.66699 -77.667 -13 -107 -13c-127.333 0 -229.666 41.333 -306.999 124s-116 191.667 -116 327c0 130 38.667 236.333 116 319
s176.333 124 297 124s218.167 -41 292.5 -123s111.5 -189.667 111.5 -323v-29h-663c4 -86.667 30.667 -156.167 80 -208.5s112.666 -78.5 189.999 -78.5c56.667 0 104.334 13.167 143.001 39.5s78.334 72.5 119.001 138.5l123 -69c-30.667 -54 -78.667 -113.667 -144 -179
c-87.333 -86.667 -131 -156.667 -131 -210c0 -23.333 7.5 -43 22.5 -59s33.5 -24 55.5 -24c33.333 0 69 9 107 27zM747.999 518c-13.333 66.667 -42.5 120 -87.5 160s-98.833 60 -161.5 60c-62 0 -116.5 -20.667 -163.5 -62s-76.167 -94 -87.5 -158h500z" />
    <glyph glyph-name="glyph282" unicode="&#x119;" horiz-adv-x="986" 
d="M804 -228l-19.001 -112c-34 -18.667 -70 -28 -108 -28c-50.667 0 -93.334 16 -128.001 48s-52 72 -52 120c0 58 39.333 121 118 189c-42 -8.66699 -77.667 -13 -107 -13c-127.333 0 -229.666 41.333 -306.999 124s-116 191.667 -116 327c0 130 38.667 236.333 116 319
s176.333 124 297 124s218.167 -41 292.5 -123s111.5 -189.667 111.5 -323v-29h-663c4 -86.667 30.667 -156.167 80 -208.5s112.666 -78.5 189.999 -78.5c56.667 0 104.334 13.167 143.001 39.5s78.334 72.5 119.001 138.5l123 -69c-30.667 -54 -78.667 -113.667 -144 -179
c-87.333 -86.667 -131 -156.667 -131 -210c0 -23.333 7.5 -43 22.5 -59s33.5 -24 55.5 -24c33.333 0 69 9 107 27zM747.999 518c-13.333 66.667 -42.5 120 -87.5 160s-98.833 60 -161.5 60c-62 0 -116.5 -20.667 -163.5 -62s-76.167 -94 -87.5 -158h500z" />
    <glyph glyph-name="edieresis" unicode="&#xeb;" horiz-adv-x="986" 
d="M902 395l-663.001 -0.000976562c4 -87.333 30.667 -157.166 80 -209.499s112.666 -78.5 189.999 -78.5c56.667 0 104.334 13.167 143.001 39.5s78.334 72.833 119.001 139.5l123 -69c-92.667 -161.333 -223.667 -242 -393 -242c-123.333 0 -223.5 41.833 -300.5 125.5
s-115.5 192.5 -115.5 326.5c0 130 38.667 236.333 116 319s176.333 124 297 124s218.167 -41 292.5 -123s111.5 -189.667 111.5 -323v-29zM747.999 517.999c-13.333 66.667 -42.5 120 -87.5 160s-98.833 60 -161.5 60c-62 0 -116.5 -20.667 -163.5 -62
s-76.167 -94 -87.5 -158h500zM335.999 1249c28.667 0 53 -10 73 -30s30 -44.333 30 -73c0 -28 -10.167 -52 -30.5 -72s-44.5 -30 -72.5 -30s-52 10 -72 30s-30 44 -30 72c0 28.667 10 53 30 73s44 30 72 30zM691.999 1249c28.667 0 52.833 -10 72.5 -30
s29.5 -44.333 29.5 -73c0 -28 -10 -52 -30 -72s-44 -30 -72 -30s-52.167 10 -72.5 30s-30.5 44 -30.5 72c0 28.667 10 53 30 73s44.333 30 73 30z" />
    <glyph glyph-name="glyph281" unicode="&#xec;" horiz-adv-x="986" 
d="M902 395l-663.001 -0.000976562c4 -87.333 30.667 -157.166 80 -209.499s112.666 -78.5 189.999 -78.5c56.667 0 104.334 13.167 143.001 39.5s78.334 72.833 119.001 139.5l123 -69c-92.667 -161.333 -223.667 -242 -393 -242c-123.333 0 -223.5 41.833 -300.5 125.5
s-115.5 192.5 -115.5 326.5c0 130 38.667 236.333 116 319s176.333 124 297 124s218.167 -41 292.5 -123s111.5 -189.667 111.5 -323v-29zM747.999 517.999c-13.333 66.667 -42.5 120 -87.5 160s-98.833 60 -161.5 60c-62 0 -116.5 -20.667 -163.5 -62
s-76.167 -94 -87.5 -158h500zM796.999 1263l-282 -267l-284 267l105 80l179 -169l180 169z" />
    <glyph glyph-name="glyph281" unicode="&#x11b;" horiz-adv-x="986" 
d="M902 395l-663.001 -0.000976562c4 -87.333 30.667 -157.166 80 -209.499s112.666 -78.5 189.999 -78.5c56.667 0 104.334 13.167 143.001 39.5s78.334 72.833 119.001 139.5l123 -69c-92.667 -161.333 -223.667 -242 -393 -242c-123.333 0 -223.5 41.833 -300.5 125.5
s-115.5 192.5 -115.5 326.5c0 130 38.667 236.333 116 319s176.333 124 297 124s218.167 -41 292.5 -123s111.5 -189.667 111.5 -323v-29zM747.999 517.999c-13.333 66.667 -42.5 120 -87.5 160s-98.833 60 -161.5 60c-62 0 -116.5 -20.667 -163.5 -62
s-76.167 -94 -87.5 -158h500zM796.999 1263l-282 -267l-284 267l105 80l179 -169l180 169z" />
    <glyph glyph-name="iacute" unicode="&#xed;" horiz-adv-x="425" 
d="M286 851v-851h-146v851h146zM451 1275l-242 -279l-84 51l175 296z" />
    <glyph glyph-name="icircumflex" unicode="&#xee;" horiz-adv-x="425" 
d="M285 851v-851h-146v851h146zM-30 1077l241 266l244 -266l-98 -80l-146 169l-145 -170z" />
    <glyph glyph-name="glyph280" unicode="&#xef;" horiz-adv-x="1267" 
d="M788 1494h146v-1494h-146v118c-78 -95.333 -176.667 -143 -296 -143c-116.667 0 -213.667 42.833 -291 128.5s-116 193.5 -116 323.5c0 128.667 38.5 234.667 115.5 318s174.833 125 293.5 125c115.333 0 213.333 -47 294 -141v765zM512 738
c-78.667 0 -144.667 -29.5 -198 -88.5s-80 -131.5 -80 -217.5c0 -94.667 26.167 -172.5 78.5 -233.5s119.5 -91.5 201.5 -91.5c84.667 0 153.167 29.833 205.5 89.5s78.5 137.5 78.5 233.5c0 90.667 -26.667 164.667 -80 222s-122 86 -206 86zM1126 1501l141 -43l-134 -314
l-104 32z" />
    <glyph glyph-name="glyph280" unicode="&#x10f;" horiz-adv-x="1267" 
d="M788 1494h146v-1494h-146v118c-78 -95.333 -176.667 -143 -296 -143c-116.667 0 -213.667 42.833 -291 128.5s-116 193.5 -116 323.5c0 128.667 38.5 234.667 115.5 318s174.833 125 293.5 125c115.333 0 213.333 -47 294 -141v765zM512 738
c-78.667 0 -144.667 -29.5 -198 -88.5s-80 -131.5 -80 -217.5c0 -94.667 26.167 -172.5 78.5 -233.5s119.5 -91.5 201.5 -91.5c84.667 0 153.167 29.833 205.5 89.5s78.5 137.5 78.5 233.5c0 90.667 -26.667 164.667 -80 222s-122 86 -206 86zM1126 1501l141 -43l-134 -314
l-104 32z" />
    <glyph glyph-name="dmacron" unicode="&#xf0;" horiz-adv-x="1073" 
d="M788 1494h146v-191h124v-130h-124v-1173h-146v118c-78 -95.333 -176.667 -143 -296 -143c-116.667 0 -213.667 42.833 -291 128.5s-116 193.5 -116 323.5c0 128.667 38.5 234.667 115.5 318s174.833 125 293.5 125c116 0 214 -47 294 -141v444h-245v130h245v191zM511 738
c-78 0 -143.667 -29.5 -197 -88.5s-80 -131.5 -80 -217.5c0 -95.333 26.167 -173.333 78.5 -234s119.5 -91 201.5 -91c84 0 152.167 29.833 204.5 89.5s78.5 137.5 78.5 233.5c0 90.667 -26.667 164.667 -80 222s-122 86 -206 86z" />
    <glyph glyph-name="dmacron" unicode="&#x111;" horiz-adv-x="1073" 
d="M788 1494h146v-191h124v-130h-124v-1173h-146v118c-78 -95.333 -176.667 -143 -296 -143c-116.667 0 -213.667 42.833 -291 128.5s-116 193.5 -116 323.5c0 128.667 38.5 234.667 115.5 318s174.833 125 293.5 125c116 0 214 -47 294 -141v444h-245v130h245v191zM511 738
c-78 0 -143.667 -29.5 -197 -88.5s-80 -131.5 -80 -217.5c0 -95.333 26.167 -173.333 78.5 -234s119.5 -91 201.5 -91c84 0 152.167 29.833 204.5 89.5s78.5 137.5 78.5 233.5c0 90.667 -26.667 164.667 -80 222s-122 86 -206 86z" />
    <glyph glyph-name="glyph285" unicode="&#xf1;" horiz-adv-x="960" 
d="M139 851h145.999v-103c66.667 82 148.334 123 245.001 123c193.333 0 290 -114.333 290 -343v-528h-146v503c0 86.667 -13.333 147.667 -40 183s-72.667 53 -138 53c-74 0 -127.667 -24.833 -161 -74.5s-50 -129.5 -50 -239.5v-425h-146v851zM724.999 1275l-276 -279
l-91 51l215 296z" />
    <glyph glyph-name="glyph285" unicode="&#x144;" horiz-adv-x="960" 
d="M139 851h145.999v-103c66.667 82 148.334 123 245.001 123c193.333 0 290 -114.333 290 -343v-528h-146v503c0 86.667 -13.333 147.667 -40 183s-72.667 53 -138 53c-74 0 -127.667 -24.833 -161 -74.5s-50 -129.5 -50 -239.5v-425h-146v851zM724.999 1275l-276 -279
l-91 51l215 296z" />
    <glyph glyph-name="glyph286" unicode="&#xf2;" horiz-adv-x="960" 
d="M139 851h145.999v-103c66.667 82 148.334 123 245.001 123c193.333 0 290 -114.333 290 -343v-528h-146v503c0 86.667 -13.333 147.667 -40 183s-72.667 53 -138 53c-74 0 -127.667 -24.833 -161 -74.5s-50 -129.5 -50 -239.5v-425h-146v851zM748.999 1263l-282 -267
l-284 267l105 80l179 -169l180 169z" />
    <glyph glyph-name="glyph286" unicode="&#x148;" horiz-adv-x="960" 
d="M139 851h145.999v-103c66.667 82 148.334 123 245.001 123c193.333 0 290 -114.333 290 -343v-528h-146v503c0 86.667 -13.333 147.667 -40 183s-72.667 53 -138 53c-74 0 -127.667 -24.833 -161 -74.5s-50 -129.5 -50 -239.5v-425h-146v851zM748.999 1263l-282 -267
l-284 267l105 80l179 -169l180 169z" />
    <glyph glyph-name="oacute" unicode="&#xf3;" horiz-adv-x="1068" 
d="M533 870c126.667 0 233.334 -43.168 320.001 -129.501s130 -192.166 130 -317.499c0 -126 -43.333 -232.167 -130 -318.5s-193.334 -129.5 -320.001 -129.5s-233 43.667 -319 131s-129 195.333 -129 324c0 120.667 43.833 224.167 131.5 310.5s193.167 129.5 316.5 129.5
zM531 737.999c-86 0 -156.998 -30 -212.998 -90s-84 -135.667 -84 -227c0 -90 28.167 -164.833 84.5 -224.5s127.166 -89.5 212.499 -89.5c88 0 160.5 29.5 217.5 88.5s85.5 134.167 85.5 225.5c0 93.333 -28.333 169.5 -85 228.5s-129.334 88.5 -218.001 88.5z
M800.002 1275l-276 -279l-91 51l215 296z" />
    <glyph glyph-name="ocircumflex" unicode="&#xf4;" horiz-adv-x="1068" 
d="M533 870c126.667 0 233.334 -43.168 320.001 -129.501s130 -192.166 130 -317.499c0 -126 -43.333 -232.167 -130 -318.5s-193.334 -129.5 -320.001 -129.5s-233 43.667 -319 131s-129 195.333 -129 324c0 120.667 43.833 224.167 131.5 310.5s193.167 129.5 316.5 129.5
zM531 737.999c-86 0 -156.998 -30 -212.998 -90s-84 -135.667 -84 -227c0 -90 28.167 -164.833 84.5 -224.5s127.166 -89.5 212.499 -89.5c88 0 160.5 29.5 217.5 88.5s85.5 134.167 85.5 225.5c0 93.333 -28.333 169.5 -85 228.5s-129.334 88.5 -218.001 88.5z
M258.002 1077l282 266l284 -266l-105 -80l-179 169l-180 -170z" />
    <glyph glyph-name="glyph287" unicode="&#xf5;" horiz-adv-x="1068" 
d="M533 870c126.667 0 233.334 -43.168 320.001 -129.501s130 -192.166 130 -317.499c0 -126 -43.333 -232.167 -130 -318.5s-193.334 -129.5 -320.001 -129.5s-233 43.667 -319 131s-129 195.333 -129 324c0 120.667 43.833 224.167 131.5 310.5s193.167 129.5 316.5 129.5
zM531 737.999c-86 0 -156.998 -30 -212.998 -90s-84 -135.667 -84 -227c0 -90 28.167 -164.833 84.5 -224.5s127.166 -89.5 212.499 -89.5c88 0 160.5 29.5 217.5 88.5s85.5 134.167 85.5 225.5c0 93.333 -28.333 169.5 -85 228.5s-129.334 88.5 -218.001 88.5z
M700.002 1280l-272 -284l-75 48l216 299zM973.002 1280l-272 -284l-75 48l216 299z" />
    <glyph glyph-name="glyph287" unicode="&#x151;" horiz-adv-x="1068" 
d="M533 870c126.667 0 233.334 -43.168 320.001 -129.501s130 -192.166 130 -317.499c0 -126 -43.333 -232.167 -130 -318.5s-193.334 -129.5 -320.001 -129.5s-233 43.667 -319 131s-129 195.333 -129 324c0 120.667 43.833 224.167 131.5 310.5s193.167 129.5 316.5 129.5
zM531 737.999c-86 0 -156.998 -30 -212.998 -90s-84 -135.667 -84 -227c0 -90 28.167 -164.833 84.5 -224.5s127.166 -89.5 212.499 -89.5c88 0 160.5 29.5 217.5 88.5s85.5 134.167 85.5 225.5c0 93.333 -28.333 169.5 -85 228.5s-129.334 88.5 -218.001 88.5z
M700.002 1280l-272 -284l-75 48l216 299zM973.002 1280l-272 -284l-75 48l216 299z" />
    <glyph glyph-name="odieresis" unicode="&#xf6;" horiz-adv-x="1068" 
d="M533 870c126.667 0 233.334 -43.168 320.001 -129.501s130 -192.166 130 -317.499c0 -126 -43.333 -232.167 -130 -318.5s-193.334 -129.5 -320.001 -129.5s-233 43.667 -319 131s-129 195.333 -129 324c0 120.667 43.833 224.167 131.5 310.5s193.167 129.5 316.5 129.5
zM531 737.999c-86 0 -156.998 -30 -212.998 -90s-84 -135.667 -84 -227c0 -90 28.167 -164.833 84.5 -224.5s127.166 -89.5 212.499 -89.5c88 0 160.5 29.5 217.5 88.5s85.5 134.167 85.5 225.5c0 93.333 -28.333 169.5 -85 228.5s-129.334 88.5 -218.001 88.5z
M356.002 1249c28.667 0 53 -10 73 -30s30 -44.333 30 -73c0 -28 -10.167 -52 -30.5 -72s-44.5 -30 -72.5 -30s-52 10 -72 30s-30 44 -30 72c0 28.667 10 53 30 73s44 30 72 30zM712.002 1249c28.667 0 52.833 -10 72.5 -30s29.5 -44.333 29.5 -73c0 -28 -10 -52 -30 -72
s-44 -30 -72 -30s-52.167 10 -72.5 30s-30.5 44 -30.5 72c0 28.667 10 53 30 73s44.333 30 73 30z" />
    <glyph glyph-name="divide" unicode="&#xf7;" 
d="M98 633v126h964v-126h-964zM580 524c26.667 0 49.334 -9.33203 68.001 -27.999s28 -41.334 28 -68.001s-9.33301 -49.334 -28 -68.001s-41.334 -28 -68.001 -28s-49.334 9.5 -68.001 28.5s-28 41.5 -28 67.5c0 26.667 9.33301 49.334 28 68.001s41.334 28 68.001 28z
M580 1061c26.667 0 49.333 -9.33203 68 -27.999s28 -41.334 28 -68.001s-9.33301 -49.334 -28 -68.001s-41.334 -28 -68.001 -28c-26 0 -48.5 9.5 -67.5 28.5s-28.5 41.5 -28.5 67.5c0 26.667 9.33301 49.334 28 68.001s41.334 28 68.001 28z" />
    <glyph glyph-name="glyph296" unicode="&#xf8;" horiz-adv-x="603" 
d="M139 851h146v-92c37.333 45.333 68.666 75.5 93.999 90.5s58 22.5 98 22.5c42 0 85.333 -12.333 130 -37l-69 -132c-30 20 -58.333 30 -85 30c-59.333 0 -102.166 -22.5 -128.499 -67.5s-39.5 -117.5 -39.5 -217.5v-448h-146v851zM623 1263l-282 -267l-285 267l105 80
l180 -169l179 169z" />
    <glyph glyph-name="glyph296" unicode="&#x159;" horiz-adv-x="603" 
d="M139 851h146v-92c37.333 45.333 68.666 75.5 93.999 90.5s58 22.5 98 22.5c42 0 85.333 -12.333 130 -37l-69 -132c-30 20 -58.333 30 -85 30c-59.333 0 -102.166 -22.5 -128.499 -67.5s-39.5 -117.5 -39.5 -217.5v-448h-146v851zM623 1263l-282 -267l-285 267l105 80
l180 -169l179 169z" />
    <glyph glyph-name="glyph291" unicode="&#xf9;" horiz-adv-x="953" 
d="M285 851v-497c0 -86.667 15.167 -149.5 45.5 -188.5s78.833 -58.5 145.5 -58.5s115.167 19.5 145.5 58.5s45.5 101.833 45.5 188.5v497h146v-513c0 -68.667 -7.33301 -123.667 -22 -165s-39.667 -78.666 -75 -111.999c-62.667 -57.333 -142.667 -86 -240 -86
s-177.333 28.667 -240 86c-35.333 33.333 -60.333 70.666 -75 111.999s-22 96.333 -22 165v513h146zM477 1361c50.667 0 94.167 -18.167 130.5 -54.5s54.5 -79.833 54.5 -130.5c0 -51.333 -18.167 -95.166 -54.5 -131.499s-79.833 -54.5 -130.5 -54.5
c-51.333 0 -95.166 18.167 -131.499 54.5s-54.5 80.166 -54.5 131.499c0 50.667 18.167 94.167 54.5 130.5s80.166 54.5 131.499 54.5zM476 1261c-23.333 0 -43.333 -8.33301 -60 -25s-25 -37 -25 -61c0 -23.333 8.33301 -43.333 25 -60s36.667 -25 60 -25
c24 0 44.333 8.33301 61 25s25 36.667 25 60c0 24 -8.33301 44.333 -25 61s-37 25 -61 25z" />
    <glyph glyph-name="glyph291" unicode="&#x16f;" horiz-adv-x="953" 
d="M285 851v-497c0 -86.667 15.167 -149.5 45.5 -188.5s78.833 -58.5 145.5 -58.5s115.167 19.5 145.5 58.5s45.5 101.833 45.5 188.5v497h146v-513c0 -68.667 -7.33301 -123.667 -22 -165s-39.667 -78.666 -75 -111.999c-62.667 -57.333 -142.667 -86 -240 -86
s-177.333 28.667 -240 86c-35.333 33.333 -60.333 70.666 -75 111.999s-22 96.333 -22 165v513h146zM477 1361c50.667 0 94.167 -18.167 130.5 -54.5s54.5 -79.833 54.5 -130.5c0 -51.333 -18.167 -95.166 -54.5 -131.499s-79.833 -54.5 -130.5 -54.5
c-51.333 0 -95.166 18.167 -131.499 54.5s-54.5 80.166 -54.5 131.499c0 50.667 18.167 94.167 54.5 130.5s80.166 54.5 131.499 54.5zM476 1261c-23.333 0 -43.333 -8.33301 -60 -25s-25 -37 -25 -61c0 -23.333 8.33301 -43.333 25 -60s36.667 -25 60 -25
c24 0 44.333 8.33301 61 25s25 36.667 25 60c0 24 -8.33301 44.333 -25 61s-37 25 -61 25z" />
    <glyph glyph-name="uacute" unicode="&#xfa;" horiz-adv-x="953" 
d="M285 851v-497c0 -86.667 15.167 -149.5 45.5 -188.5s78.833 -58.5 145.5 -58.5s115.167 19.5 145.5 58.5s45.5 101.833 45.5 188.5v497h146v-513c0 -68.667 -7.33301 -123.667 -22 -165s-39.667 -78.666 -75 -111.999c-62.667 -57.333 -142.667 -86 -240 -86
s-177.333 28.667 -240 86c-35.333 33.333 -60.333 70.666 -75 111.999s-22 96.333 -22 165v513h146zM735 1275l-276 -279l-91 51l216 296z" />
    <glyph glyph-name="glyph292" unicode="&#xfb;" horiz-adv-x="953" 
d="M285 851v-497c0 -86.667 15.167 -149.5 45.5 -188.5s78.833 -58.5 145.5 -58.5s115.167 19.5 145.5 58.5s45.5 101.833 45.5 188.5v497h146v-513c0 -68.667 -7.33301 -123.667 -22 -165s-39.667 -78.666 -75 -111.999c-62.667 -57.333 -142.667 -86 -240 -86
s-177.333 28.667 -240 86c-35.333 33.333 -60.333 70.666 -75 111.999s-22 96.333 -22 165v513h146zM629 1280l-272 -284l-75 48l216 299zM902 1280l-272 -284l-75 48l216 299z" />
    <glyph glyph-name="glyph292" unicode="&#x171;" horiz-adv-x="953" 
d="M285 851v-497c0 -86.667 15.167 -149.5 45.5 -188.5s78.833 -58.5 145.5 -58.5s115.167 19.5 145.5 58.5s45.5 101.833 45.5 188.5v497h146v-513c0 -68.667 -7.33301 -123.667 -22 -165s-39.667 -78.666 -75 -111.999c-62.667 -57.333 -142.667 -86 -240 -86
s-177.333 28.667 -240 86c-35.333 33.333 -60.333 70.666 -75 111.999s-22 96.333 -22 165v513h146zM629 1280l-272 -284l-75 48l216 299zM902 1280l-272 -284l-75 48l216 299z" />
    <glyph glyph-name="udieresis" unicode="&#xfc;" horiz-adv-x="953" 
d="M285 851v-497c0 -86.667 15.167 -149.5 45.5 -188.5s78.833 -58.5 145.5 -58.5s115.167 19.5 145.5 58.5s45.5 101.833 45.5 188.5v497h146v-513c0 -68.667 -7.33301 -123.667 -22 -165s-39.667 -78.666 -75 -111.999c-62.667 -57.333 -142.667 -86 -240 -86
s-177.333 28.667 -240 86c-35.333 33.333 -60.333 70.666 -75 111.999s-22 96.333 -22 165v513h146zM298 1249c28.667 0 53 -9.99902 73 -29.999s30 -44.333 30 -73c0 -28 -10.167 -52 -30.5 -72s-44.5 -30 -72.5 -30s-52 10.167 -72 30.5s-30 44.166 -30 71.499
c0 28.667 10 53 30 73s44 30 72 30zM654 1249c28.667 0 52.833 -10 72.5 -30s29.5 -44.333 29.5 -73c0 -28 -10 -52 -30 -72s-44 -30 -72 -30s-52.167 10 -72.5 30s-30.5 44 -30.5 72c0 28.667 10 53 30 73s44.333 30 73 30z" />
    <glyph glyph-name="yacute" unicode="&#xfd;" horiz-adv-x="942" 
d="M407 81l-391 770h169l300 -609l275 609h165l-628 -1330h-165zM729 1275l-276 -279l-91 51l216 296z" />
    <glyph glyph-name="glyph295" unicode="&#xfe;" horiz-adv-x="439" 
d="M286 716v-716h-146v716h-89v135h89v305h146v-305h150v-135h-150zM152 -109l141 -43l-133 -314l-105 33z" />
    <glyph glyph-name="glyph295" unicode="&#x163;" horiz-adv-x="439" 
d="M286 716v-716h-146v716h-89v135h89v305h146v-305h150v-135h-150zM152 -109l141 -43l-133 -314l-105 33z" />
    <glyph glyph-name="dotaccent" unicode="&#xff;" horiz-adv-x="1024" 
d="M512 1250c29.333 0 54.166 -10.167 74.499 -30.5s30.5 -45.166 30.5 -74.499c0 -28.667 -10.167 -53.167 -30.5 -73.5s-45.166 -30.5 -74.499 -30.5c-28 0 -52.333 10.167 -73 30.5s-31 44.833 -31 73.5c0 29.333 10.167 54.166 30.5 74.499s44.833 30.5 73.5 30.5z" />
    <glyph glyph-name="dotaccent" unicode="&#x2d9;" horiz-adv-x="1024" 
d="M512 1250c29.333 0 54.166 -10.167 74.499 -30.5s30.5 -45.166 30.5 -74.499c0 -28.667 -10.167 -53.167 -30.5 -73.5s-45.166 -30.5 -74.499 -30.5c-28 0 -52.333 10.167 -73 30.5s-31 44.833 -31 73.5c0 29.333 10.167 54.166 30.5 74.499s44.833 30.5 73.5 30.5z" />
    <glyph glyph-name=".null" horiz-adv-x="0" 
 />
    <glyph glyph-name="nonmarkingreturn" horiz-adv-x="512" 
 />
    <glyph glyph-name="Aring" horiz-adv-x="1269" 
d="M928 386h-583l-165 -386h-166l629 1430l613 -1430h-167zM868 528l-228 547l-233 -547h461zM642 1835c51.333 0 95.166 -18.167 131.499 -54.5s54.5 -80.166 54.5 -131.499c0 -50.667 -18.167 -94.167 -54.5 -130.5s-80.166 -54.5 -131.499 -54.5
s-95.166 18.167 -131.499 54.5s-54.5 79.833 -54.5 130.5c0 51.333 18.167 95.166 54.5 131.499s80.166 54.5 131.499 54.5zM642 1735c-24 0 -44.333 -8.33301 -61 -25s-25 -37 -25 -61c0 -23.333 8.5 -43.333 25.5 -60s37.167 -25 60.5 -25c24 0 44.333 8.33301 61 25
s25 36.667 25 60c0 24 -8.33301 44.333 -25 61s-37 25 -61 25z" />
    <glyph glyph-name="Ntilde" horiz-adv-x="1571" 
d="M177 0v1422l1064 -1114v1057h153v-1427l-1064 1114v-1052h-153zM583 1528l-87.002 69c48.667 97.333 107.667 146 177 146c34 0 79 -14.333 135 -43c53.333 -27.333 91 -41 113 -41c33.333 0 64.333 29 93 87l88 -66c-47.333 -98.667 -109.666 -148 -186.999 -148
c-32.667 0 -77 14.333 -133 43c-55.333 27.333 -93.666 41 -114.999 41c-27.333 0 -55.333 -29.333 -84 -88z" />
    <glyph glyph-name="agrave" horiz-adv-x="1073" 
d="M788 851l146 0.000976562v-851h-146v118c-80 -95.333 -178.667 -143 -296 -143c-116.667 0 -213.667 42.833 -291 128.5s-116 193.5 -116 323.5c0 129.333 38.5 235.666 115.5 318.999s174.833 125 293.5 125c116 0 214 -47 294 -141v121zM512 739.001
c-78 0 -143.833 -29.668 -197.5 -89.001s-80.5 -132 -80.5 -218c0 -94.667 26.167 -172.5 78.5 -233.5s119.5 -91.5 201.5 -91.5c84.667 0 153.167 29.833 205.5 89.5s78.5 137.834 78.5 234.501c0 90.667 -26.667 164.667 -80 222s-122 86 -206 86zM292 1275l151 68
l216 -296l-91 -51z" />
    <glyph glyph-name="atilde" horiz-adv-x="1073" 
d="M788 851l146 0.000976562v-851h-146v118c-80 -95.333 -178.667 -143 -296 -143c-116.667 0 -213.667 42.833 -291 128.5s-116 193.5 -116 323.5c0 129.333 38.5 235.666 115.5 318.999s174.833 125 293.5 125c116 0 214 -47 294 -141v121zM512 739.001
c-78 0 -143.833 -29.668 -197.5 -89.001s-80.5 -132 -80.5 -218c0 -94.667 26.167 -172.5 78.5 -233.5s119.5 -91.5 201.5 -91.5c84.667 0 153.167 29.833 205.5 89.5s78.5 137.834 78.5 234.501c0 90.667 -26.667 164.667 -80 222s-122 86 -206 86zM339 1037l-84.998 69
c35.333 97.333 94 146 176 146c37.333 0 79.666 -14.667 126.999 -44c44 -26.667 75.667 -40 95 -40c35.333 0 67.333 29 96 87l85 -66c-16.667 -44.667 -41.167 -80.5 -73.5 -107.5s-66.5 -40.5 -102.5 -40.5c-32 0 -72.333 14 -121 42
c-50.667 29.333 -87.334 44 -110.001 44c-38.667 0 -67.667 -30 -87 -90z" />
    <glyph glyph-name="aring" horiz-adv-x="1073" 
d="M788 851l146 0.000976562v-851h-146v118c-80 -95.333 -178.667 -143 -296 -143c-116.667 0 -213.667 42.833 -291 128.5s-116 193.5 -116 323.5c0 129.333 38.5 235.666 115.5 318.999s174.833 125 293.5 125c116 0 214 -47 294 -141v121zM512 739.001
c-78 0 -143.833 -29.668 -197.5 -89.001s-80.5 -132 -80.5 -218c0 -94.667 26.167 -172.5 78.5 -233.5s119.5 -91.5 201.5 -91.5c84.667 0 153.167 29.833 205.5 89.5s78.5 137.834 78.5 234.501c0 90.667 -26.667 164.667 -80 222s-122 86 -206 86zM544 1361
c51.333 0 95.166 -18 131.499 -54s54.5 -79.667 54.5 -131s-18.167 -95.166 -54.5 -131.499s-80.166 -54.5 -131.499 -54.5s-95.166 18.167 -131.499 54.5s-54.5 80.166 -54.5 131.499c0 50.667 18.167 94.167 54.5 130.5s80.166 54.5 131.499 54.5zM544 1261
c-24 0 -44.333 -8.33301 -61 -25s-25 -37 -25 -61c0 -23.333 8.5 -43.333 25.5 -60s37.167 -25 60.5 -25c24 0 44.333 8.33301 61 25s25 36.667 25 60c0 24 -8.33301 44.333 -25 61s-37 25 -61 25z" />
    <glyph glyph-name="egrave" horiz-adv-x="986" 
d="M902 395l-663.001 -0.000976562c4 -87.333 30.667 -157.166 80 -209.499s112.666 -78.5 189.999 -78.5c56.667 0 104.334 13.167 143.001 39.5s78.334 72.833 119.001 139.5l123 -69c-92.667 -161.333 -223.667 -242 -393 -242c-123.333 0 -223.5 41.833 -300.5 125.5
s-115.5 192.5 -115.5 326.5c0 130 38.667 236.333 116 319s176.333 124 297 124s218.167 -41 292.5 -123s111.5 -189.667 111.5 -323v-29zM747.999 517.999c-13.333 66.667 -42.5 120 -87.5 160s-98.833 60 -161.5 60c-62 0 -116.5 -20.667 -163.5 -62
s-76.167 -94 -87.5 -158h500zM254.999 1275l152 68l215 -296l-91 -51z" />
    <glyph glyph-name="ecircumflex" horiz-adv-x="986" 
d="M902 395l-663.001 -0.000976562c4 -87.333 30.667 -157.166 80 -209.499s112.666 -78.5 189.999 -78.5c56.667 0 104.334 13.167 143.001 39.5s78.334 72.833 119.001 139.5l123 -69c-92.667 -161.333 -223.667 -242 -393 -242c-123.333 0 -223.5 41.833 -300.5 125.5
s-115.5 192.5 -115.5 326.5c0 130 38.667 236.333 116 319s176.333 124 297 124s218.167 -41 292.5 -123s111.5 -189.667 111.5 -323v-29zM747.999 517.999c-13.333 66.667 -42.5 120 -87.5 160s-98.833 60 -161.5 60c-62 0 -116.5 -20.667 -163.5 -62
s-76.167 -94 -87.5 -158h500zM230.999 1077l282 266l284 -266l-105 -80l-179 169l-180 -170z" />
    <glyph glyph-name="igrave" horiz-adv-x="425" 
d="M286 851v-851h-146v851h146zM-25 1275l151 68l175 -296l-84 -51z" />
    <glyph glyph-name="idieresis" horiz-adv-x="425" 
d="M286 851v-851h-146v851h146zM80 1246c27.333 0 50.666 -9.5 69.999 -28.5s29 -42.167 29 -69.5s-9.66699 -50.666 -29 -69.999s-42.666 -29 -69.999 -29s-50.5 9.66699 -69.5 29s-28.5 42.666 -28.5 69.999c0 26.667 9.5 49.667 28.5 69s42.167 29 69.5 29zM346 1246
c27.333 0 50.5 -9.5 69.5 -28.5s28.5 -42.167 28.5 -69.5s-9.5 -50.666 -28.5 -69.999s-42.167 -29 -69.5 -29s-50.666 9.66699 -69.999 29s-29 42.666 -29 69.999c0 26.667 9.66699 49.667 29 69s42.666 29 69.999 29z" />
    <glyph glyph-name="ntilde" horiz-adv-x="960" 
d="M139 851h145.999v-103c66.667 82 148.334 123 245.001 123c193.333 0 290 -114.333 290 -343v-528h-146v503c0 86.667 -13.333 147.667 -40 183s-72.667 53 -138 53c-74 0 -127.667 -24.833 -161 -74.5s-50 -129.5 -50 -239.5v-425h-146v851zM260.999 1037l-85 69
c35.333 97.333 94 146 176 146c38 0 80.333 -14.667 127 -44c44 -26.667 75.667 -40 95 -40c35.333 0 67.333 29 96 87l86 -66c-17.333 -44.667 -42.166 -80.5 -74.499 -107.5s-66.5 -40.5 -102.5 -40.5c-32 0 -72.333 14 -121 42c-50.667 29.333 -87.334 44 -110.001 44
c-38.667 0 -67.667 -30 -87 -90z" />
    <glyph glyph-name="ograve" horiz-adv-x="1068" 
d="M533 870c126.667 0 233.334 -43.168 320.001 -129.501s130 -192.166 130 -317.499c0 -126 -43.333 -232.167 -130 -318.5s-193.334 -129.5 -320.001 -129.5s-233 43.667 -319 131s-129 195.333 -129 324c0 120.667 43.833 224.167 131.5 310.5s193.167 129.5 316.5 129.5
zM531 737.999c-86 0 -156.998 -30 -212.998 -90s-84 -135.667 -84 -227c0 -90 28.167 -164.833 84.5 -224.5s127.166 -89.5 212.499 -89.5c88 0 160.5 29.5 217.5 88.5s85.5 134.167 85.5 225.5c0 93.333 -28.333 169.5 -85 228.5s-129.334 88.5 -218.001 88.5z
M276.002 1275l151 68l216 -296l-91 -51z" />
    <glyph glyph-name="otilde" horiz-adv-x="1068" 
d="M533 870c126.667 0 233.334 -43.168 320.001 -129.501s130 -192.166 130 -317.499c0 -126 -43.333 -232.167 -130 -318.5s-193.334 -129.5 -320.001 -129.5s-233 43.667 -319 131s-129 195.333 -129 324c0 120.667 43.833 224.167 131.5 310.5s193.167 129.5 316.5 129.5
zM531 737.999c-86 0 -156.998 -30 -212.998 -90s-84 -135.667 -84 -227c0 -90 28.167 -164.833 84.5 -224.5s127.166 -89.5 212.499 -89.5c88 0 160.5 29.5 217.5 88.5s85.5 134.167 85.5 225.5c0 93.333 -28.333 169.5 -85 228.5s-129.334 88.5 -218.001 88.5z
M347.002 1037l-85 69c34.667 97.333 93 146 175 146c38 0 80.667 -14.667 128 -44c43.333 -26.667 75 -40 95 -40c34.667 0 66.667 29 96 87l85 -66c-17.333 -44.667 -42.166 -80.5 -74.499 -107.5s-66.5 -40.5 -102.5 -40.5c-31.333 0 -71.333 14 -120 42
c-50.667 29.333 -87.667 44 -111 44c-38.667 0 -67.334 -30 -86.001 -90z" />
    <glyph glyph-name="ugrave" horiz-adv-x="953" 
d="M285 851v-497c0 -86.667 15.167 -149.5 45.5 -188.5s78.833 -58.5 145.5 -58.5s115.167 19.5 145.5 58.5s45.5 101.833 45.5 188.5v497h146v-513c0 -68.667 -7.33301 -123.667 -22 -165s-39.667 -78.666 -75 -111.999c-62.667 -57.333 -142.667 -86 -240 -86
s-177.333 28.667 -240 86c-35.333 33.333 -60.333 70.666 -75 111.999s-22 96.333 -22 165v513h146zM218 1275l151 68l216 -296l-91 -51z" />
    <glyph glyph-name="ucircumflex" horiz-adv-x="953" 
d="M285 851v-497c0 -86.667 15.167 -149.5 45.5 -188.5s78.833 -58.5 145.5 -58.5s115.167 19.5 145.5 58.5s45.5 101.833 45.5 188.5v497h146v-513c0 -68.667 -7.33301 -123.667 -22 -165s-39.667 -78.666 -75 -111.999c-62.667 -57.333 -142.667 -86 -240 -86
s-177.333 28.667 -240 86c-35.333 33.333 -60.333 70.666 -75 111.999s-22 96.333 -22 165v513h146zM193 1077l282 266l285 -266l-105 -80l-180 169l-179 -170z" />
    <glyph glyph-name="cent" 
d="M701 1141c76 -7.33301 148.332 -33.666 216.999 -78.999v-192c-70.667 79.333 -143 125.333 -217 138v-623c76 12.667 150.333 61 223 145v-193c-81.333 -52 -155.666 -80.667 -222.999 -86v-202h-119v205c-109.333 14.667 -200.166 63.5 -272.499 146.5
s-108.5 180.833 -108.5 293.5c0 113.333 36.167 212.166 108.5 296.499s163.166 133.5 272.499 147.5v193h119v-190zM581.999 387v617.001c-68 -14 -123.667 -49.833 -167 -107.5s-65 -124.834 -65 -201.501s21.667 -143.5 65 -200.5s99 -92.833 167 -107.5z" />
    <glyph glyph-name="sterling" 
d="M535 601l257.001 -0.00292969v-116h-217c8 -30.667 12 -57.667 12 -81c0 -59.333 -19.667 -124.666 -59 -195.999l26 -9l93 -32c74 -26.667 125 -40 153 -40c57.333 0 112 45.333 164 136l124 -74c-72 -140.667 -165.333 -211 -280 -211c-52 0 -127.667 18 -227 54
c-94 33.333 -157.667 50 -191 50c-60.667 0 -115 -36 -163 -108l-119 79c75.333 112 163.666 170.333 264.999 175c38.667 60 58 117.333 58 172c0 23.333 -4.33301 51.666 -13 84.999h-229v116h179l-9 19l-49 97c-36.667 69.333 -60.834 122.833 -72.501 160.5
s-17.5 79.5 -17.5 125.5c0 106.667 38.833 196.834 116.5 270.501s172.834 110.5 285.501 110.5c114.667 0 209.5 -38.167 284.5 -114.5s112.5 -173.166 112.5 -290.499l-150 -40c-5.33301 77.333 -15.666 133.333 -30.999 168c-38.667 86.667 -109.334 130 -212.001 130
c-72 0 -132 -23.167 -180 -69.5s-72 -104.5 -72 -174.5c0 -36 7.5 -74.167 22.5 -114.5s44.167 -100.166 87.5 -179.499c24.667 -45.333 41.667 -78 51 -98z" />
    <glyph glyph-name="notequal" 
d="M609 883l127 267l105 -43l-106 -224h327v-119h-383l-65 -136h448v-119h-505l-134 -283l-105 43l113 240h-333v119h390l65 136h-455v119h511z" />
    <glyph glyph-name="AE" horiz-adv-x="1840" 
d="M938 382h-582l-162 -382h-167l608 1365h600l60 -142h-552l171 -408h538l62 -142h-538l221 -531h555l60 -142h-713zM878 524l-226 537l-230 -537h456z" />
    <glyph glyph-name="Oslash" horiz-adv-x="1626" 
d="M260 233c-104.667 143.333 -156.999 291.999 -156.999 445.999c0 194.667 69.833 361.5 209.5 500.5s307.167 208.5 502.5 208.5c84 0 157.667 -11.167 221 -33.5s138.666 -63.833 225.999 -124.5l158 157l87 -89l-154 -157c114 -149.333 171 -302.666 171 -459.999
c0 -193.333 -69.667 -359.333 -209 -498s-306 -208 -500 -208c-156 0 -310.667 56 -464 168l-159 -157l-92 89zM368.001 339.999l784 787c-99.333 78.667 -212 118 -338 118c-154.667 0 -286.167 -55 -394.5 -165s-162.5 -243.333 -162.5 -400c0 -114 37 -227.333 111 -340z
M1246 1037l-788 -786c42.667 -40 96.5 -72.167 161.5 -96.5s129.833 -36.5 194.5 -36.5c152.667 0 283.5 55 392.5 165s163.5 242.333 163.5 397c0 126.667 -41.333 245.667 -124 357z" />
    <glyph glyph-name="infinity" horiz-adv-x="1365" 
d="M686 595c-100.667 -141.333 -212.668 -212 -336.001 -212c-92.667 0 -168 29.333 -226 88s-87 134.667 -87 228c0 91.333 29.333 166.333 88 225s133.667 88 225 88c124 0 233.667 -70.333 329 -211c96.667 140.667 209.334 211 338.001 211
c91.333 0 165.833 -29.5 223.5 -88.5s86.5 -134.833 86.5 -227.5c0 -92 -28.833 -167.333 -86.5 -226s-131.5 -88 -221.5 -88c-126.667 0 -237.667 71 -333 213zM758.999 698c78.667 -123.333 159.332 -185 241.999 -185c50.667 0 92.334 17.5 125.001 52.5
s49 79.833 49 134.5c0 51.333 -16.833 94.333 -50.5 129s-75.5 52 -125.5 52c-80.667 0 -160.667 -61 -240 -183zM604.997 697c-77.333 122.667 -157.999 184 -241.999 184c-50.667 0 -92.334 -17.5 -125.001 -52.5s-49 -79.5 -49 -133.5
c0 -51.333 16.833 -94.333 50.5 -129s75.5 -52 125.5 -52c80.667 0 160.667 61 240 183z" />
    <glyph glyph-name="lessequal" horiz-adv-x="1024" 
d="M955 1253v-147l-723 -320l723 -321v-146l-887 398v133zM955 258v-143h-887v143h887z" />
    <glyph glyph-name="greaterequal" horiz-adv-x="1024" 
d="M68 319v146l723 321l-723 320v147l887 -403v-133zM68 115v143h887v-143h-887z" />
    <glyph glyph-name="yen" 
d="M769 784l-103 -177h393v-116h-405v-491h-153v491h-399v116h388l-102 177h-286v116h219l-267 465h176l348 -609l353 609h176l-271 -465h223v-116h-290z" />
    <glyph glyph-name="partialdiff" horiz-adv-x="1024" 
d="M172 1236l19.998 136.001c127.333 -17.333 233.5 -45.833 318.5 -85.5s161.167 -96.167 228.5 -169.5c148.667 -161.333 223 -365.666 223 -612.999c0 -157.333 -41.167 -284.333 -123.5 -381s-190.833 -145 -325.5 -145c-124 0 -230.333 45.333 -319 136
s-133 199.667 -133 327c0 125.333 41.333 231.666 124 318.999s183.667 131 303 131c64.667 0 119.167 -11 163.5 -33s89.5 -60.667 135.5 -116c-6 15.333 -10.667 26.666 -14 33.999c-35.333 85.333 -71.666 152.5 -108.999 201.5s-86 92.5 -146 130.5
c-107.333 68 -222.666 110.667 -345.999 128zM518.998 775.001c-84.667 0 -156.167 -33.168 -214.5 -99.501s-87.5 -147.833 -87.5 -244.5c0 -92 29 -170.833 87 -236.5s127.333 -98.5 208 -98.5c83.333 0 153 33.833 209 101.5s84 151.834 84 252.501
c0 93.333 -27 170.833 -81 232.5s-122.333 92.5 -205 92.5z" />
    <glyph glyph-name="summation" horiz-adv-x="1365" 
d="M1227 1536v-470h-140l-14 326h-844l517 -840l-517 -921h864l8 323h145v-466h-1189v161l509 903l-509 826v158h1170z" />
    <glyph glyph-name="product" horiz-adv-x="1434" 
d="M75 1536h1283v-143h-163v-1762h163v-143h-485v143h168v1762h-649v-1762h166v-143h-483v143h163v1762h-163v143z" />
    <glyph glyph-name="pi" horiz-adv-x="1196" 
d="M211 0v842h-153v139h1079v-139h-150v-842h-154v842h-468v-842h-154z" />
    <glyph glyph-name="integral" horiz-adv-x="1024" 
d="M192 -490l32.999 136.999c35.333 -13.333 68 -20 98 -20c58 0 92.667 27 104 81c5.33301 24.667 8 80 8 166v1248c0 144.667 7.66699 236.334 23 275.001c36 92.667 114.333 139 235 139c38 0 84.333 -7.33301 139 -22l-33 -137c-36 13.333 -66.667 20 -92 20
c-48 0 -79.5 -13.667 -94.5 -41s-22.5 -84.333 -22.5 -171l-1 -104v-1179c0 -111.333 -3.33301 -186.833 -10 -226.5s-22 -73.5 -46 -101.5c-46.667 -55.333 -120 -83 -220 -83c-45.333 0 -85.666 6.33301 -120.999 19z" />
    <glyph glyph-name="ordfeminine" horiz-adv-x="733" 
d="M56 614v96h587v-96h-587zM519 1360l97 -0.000976562v-512h-97v65c-48 -53.333 -108 -80 -180 -80c-74 0 -135 26.167 -183 78.5s-72 118.833 -72 199.5c0 74.667 24.333 136.834 73 186.501s109.667 74.5 183 74.5c71.333 0 131 -26 179 -78v66zM351 1288
c-48 0 -88.166 -17.334 -120.499 -52.001s-48.5 -77 -48.5 -127c0 -55.333 16 -100.833 48 -136.5s72.667 -53.5 122 -53.5c51.333 0 93 17.5 125 52.5s48 80.5 48 136.5c0 52.667 -16.333 95.834 -49 129.501s-74.334 50.5 -125.001 50.5z" />
    <glyph glyph-name="ordmasculine" horiz-adv-x="734" 
d="M366 1372c80 0 147.167 -25.999 201.5 -77.999s81.5 -115.667 81.5 -191c0 -76 -27.333 -140 -82 -192s-121.667 -78 -201 -78c-78 0 -144.333 26.167 -199 78.5s-82 115.833 -82 190.5c0 75.333 27.167 139.166 81.5 191.499s120.833 78.5 199.5 78.5zM365 1287
c-52.667 0 -96.167 -17.5 -130.5 -52.5s-51.5 -78.833 -51.5 -131.5c0 -53.333 17.167 -97.333 51.5 -132s77.833 -52 130.5 -52c54.667 0 99.334 17.167 134.001 51.5s52 78.5 52 132.5s-17.333 98.167 -52 132.5s-79.334 51.5 -134.001 51.5zM73 614.001v96h588v-96h-588z
" />
    <glyph glyph-name="Omega" horiz-adv-x="1365" 
d="M58 0l0.00195312 135h365c-243.333 144 -365 347 -365 609c0 185.333 60 340.833 180 466.5s268.333 188.5 445 188.5s325 -63 445 -189s180 -281.333 180 -466c0 -263.333 -122 -466.333 -366 -609h366v-135h-535v122c252 144.667 378 346 378 604
c0 150 -45.333 276.833 -136 380.5s-201.334 155.5 -332.001 155.5c-132.667 0 -243.834 -51.333 -333.501 -154s-134.5 -230 -134.5 -382c0 -260.667 126 -462 378 -604v-122h-535z" />
    <glyph glyph-name="ae" horiz-adv-x="1581" 
d="M1496 395h-666c5.33301 -87.333 32.833 -157 82.5 -209s113.167 -78 190.5 -78c103.333 0 189.333 59.667 258 179l125 -73c-97.333 -159.333 -225.666 -239 -384.999 -239c-145.333 0 -256.333 57 -333 171c-68.667 -114 -175 -171 -319 -171
c-109.333 0 -197.333 25.167 -264 75.5s-100 116.833 -100 199.5c0 84 32.5 152.167 97.5 204.5s150.167 78.5 255.5 78.5c85.333 0 166 -24.333 242 -73c0 186 -80.333 279 -241 279c-72 0 -159.667 -17.333 -263 -52v138c110.667 30.667 200.667 46 270 46
c75.333 0 140.666 -15 195.999 -45s95 -72.333 119 -127c32 53.333 77.5 95.333 136.5 126s123.167 46 192.5 46c74 0 141.833 -17.5 203.5 -52.5s109.167 -82.833 142.5 -143.5c40 -72 60 -165.333 60 -280zM1340 519c-12.667 68 -41 121.5 -85 160.5s-98 58.5 -162 58.5
c-135.333 0 -219.333 -73 -252 -219h499zM456 401c-68.667 0 -123.834 -13.5 -165.501 -40.5s-62.5 -62.833 -62.5 -107.5c0 -43.333 20 -78.5 60 -105.5s92.667 -40.5 158 -40.5c66.667 0 121 14.333 163 43s63 65.667 63 111c0 40 -20.667 73.333 -62 100
s-92.666 40 -153.999 40z" />
    <glyph glyph-name="oslash" horiz-adv-x="1068" 
d="M174 153c-59.333 78.667 -88.999 168.333 -88.999 269c0 125.333 43.333 231.333 130 318s192.667 130 318 130c101.333 0 191.666 -30 270.999 -90l121 121l82 -81l-121 -121c28 -26.667 51.167 -66 69.5 -118s27.5 -104.667 27.5 -158
c0 -126 -43.333 -232.167 -130 -318.5s-193.667 -129.5 -321 -129.5c-96 0 -187.333 31 -274 93l-123 -121l-82 84zM278.001 250.999l425 433c-46 36 -103.333 54 -172 54c-86 0 -157 -29.833 -213 -89.5s-84 -135.167 -84 -226.5c0 -64.667 14.667 -121.667 44 -171z
M784.001 601.999l-427 -437c43.333 -38.667 101 -58 173 -58c88.667 0 161.5 29.5 218.5 88.5s85.5 134.5 85.5 226.5c0 71.333 -16.667 131.333 -50 180z" />
    <glyph glyph-name="questiondown" horiz-adv-x="893" 
d="M300 456l-145.999 -0.00195312c0 92.667 27.167 168 81.5 226s125.166 87 212.499 87c84 0 154.167 -28.167 210.5 -84.5s84.5 -126.833 84.5 -211.5c0 -68.667 -19.667 -124.834 -59 -168.501s-102.333 -79.167 -189 -106.5c-97.333 -31.333 -160 -59.666 -188 -84.999
s-42 -67 -42 -125c0 -54.667 17.5 -99.667 52.5 -135s79.5 -53 133.5 -53c50 0 92.333 16.833 127 50.5s52 75.167 52 124.5c0 24 -3.66699 54.667 -11 92h149c6 -38.667 9 -73 9 -103c0 -86 -32.167 -158.167 -96.5 -216.5s-143.5 -87.5 -237.5 -87.5
c-92.667 0 -170.334 31.333 -233.001 94s-94 140.334 -94 233.001c0 104 34.333 186 103 246c37.333 32.667 116.333 66.334 237 101.001c92 26.667 138 77 138 151c0 40.667 -14.167 75.167 -42.5 103.5s-63.166 42.5 -104.499 42.5c-89.333 0 -138.333 -58.333 -147 -175z
M446.001 1063c28 0 51.833 -9.83301 71.5 -29.5s29.5 -43.5 29.5 -71.5s-9.83301 -51.833 -29.5 -71.5s-43.5 -29.5 -71.5 -29.5s-51.833 9.83301 -71.5 29.5s-29.5 43.5 -29.5 71.5s9.83301 51.833 29.5 71.5s43.5 29.5 71.5 29.5z" />
    <glyph glyph-name="exclamdown" horiz-adv-x="568" 
d="M284 1066c28 0 51.833 -9.83301 71.5 -29.5s29.5 -43.5 29.5 -71.5c0 -27.333 -9.83301 -50.833 -29.5 -70.5s-43.5 -29.5 -71.5 -29.5c-27.333 0 -50.833 9.83301 -70.5 29.5s-29.5 43.167 -29.5 70.5c0 28 9.83301 51.833 29.5 71.5s43.167 29.5 70.5 29.5zM357 769
v-1088h-147v1088h147z" />
    <glyph glyph-name="radical" horiz-adv-x="1365" 
d="M1365 1698v-143h-400l-438 -1555h-190l-166 610h-171v143h297l74 -260c6 -21.333 15.333 -66 28 -134l23 -119l6 -32h11c4.66699 23.333 7.66699 37.333 9 42l30 133l49 218l86 305l220 792h532z" />
    <glyph glyph-name="florin" 
d="M678 825l217.001 -0.000976562l-20 -123h-220l-108 -590c-19.333 -106.667 -39 -185 -59 -235s-47.667 -90.667 -83 -122c-69.333 -61.333 -157 -92 -263 -92c-25.333 0 -60 2.33301 -104 7l29 136c28 -1.33301 48 -2 60 -2c82.667 0 143.167 22.333 181.5 67
s68.5 127.334 90.5 248.001l106 583h-148l20 123h151l55 308c36 200 135.333 300 298 300c36 0 77 -7.33301 123 -22l-27 -137c-34.667 14 -67.334 21 -98.001 21c-44 0 -76.5 -14.167 -97.5 -42.5s-39.167 -81.833 -54.5 -160.5z" />
    <glyph glyph-name="approxequal" horiz-adv-x="1024" 
d="M110 713l-90 57.999c38 82.667 79.333 142.834 124 180.501s96.667 56.5 156 56.5c52 0 128.667 -23.333 230 -70c94 -43.333 160.667 -65 200 -65c37.333 0 69.333 10.167 96 30.5s55.334 56.833 86.001 109.5l93 -55c-76.667 -154.667 -173 -232 -289 -232
c-50.667 0 -110.334 15.333 -179.001 46l-115 52c-54 24.667 -98 37 -132 37c-66.667 0 -126.667 -49.333 -180 -148zM110 366.999l-90 59c38 82.667 79.333 143 124 181s96.667 57 156 57c52 0 128.667 -23.667 230 -71c94 -43.333 160.667 -65 200 -65
c67.333 0 128 46.333 182 139l93 -54c-76.667 -154.667 -173.334 -232 -290.001 -232c-49.333 0 -108.666 15.667 -177.999 47l-115 52c-54 24.667 -98 37 -132 37c-66.667 0 -126.667 -50 -180 -150z" />
    <glyph glyph-name="Delta" horiz-adv-x="1365" 
d="M55 0l543 1365h165l547 -1365h-1255zM275 143h812l-406 1035z" />
    <glyph glyph-name="glyph172" horiz-adv-x="512" 
 />
    <glyph glyph-name="Agrave" horiz-adv-x="1269" 
d="M928 386h-583l-165 -386h-166l629 1430l613 -1430h-167zM868 528l-228 547l-233 -547h461zM372 1715l138 91l244 -265l-88 -65z" />
    <glyph glyph-name="Atilde" horiz-adv-x="1269" 
d="M928 386h-583l-165 -386h-166l629 1430l613 -1430h-167zM868 528l-228 547l-233 -547h461zM433 1528l-87 69c48 97.333 107 146 177 146c34 0 79 -14.333 135 -43c53.333 -27.333 90.666 -41 111.999 -41c33.333 0 64.666 29 93.999 87l88 -66
c-47.333 -98.667 -109.666 -148 -186.999 -148c-32.667 0 -77 14.333 -133 43c-55.333 27.333 -93.666 41 -114.999 41c-27.333 0 -55.333 -29.333 -84 -88z" />
    <glyph glyph-name="Otilde" horiz-adv-x="1626" 
d="M814 1388c194 0 360.667 -69.5 500 -208.5s209 -305.167 209 -498.5s-69.667 -359.333 -209 -498s-306 -208 -500 -208c-182 0 -342 61.667 -480 185c-154.667 137.333 -232 314 -232 530c0 188.667 70.5 352.167 211.5 490.5s307.833 207.5 500.5 207.5zM813 1245
c-152.667 0 -283.667 -54.667 -393 -164s-164 -240 -164 -392c0 -159.333 54 -294.333 162 -405s239.667 -166 395 -166c153.333 0 284.333 55 393 165s163 242.333 163 397c0 156.667 -54 290 -162 400s-239.333 165 -394 165zM618 1528l-88.001 69
c48.667 97.333 107.667 146 177 146c34 0 79.333 -14.333 136 -43c52.667 -27.333 90 -41 112 -41c33.333 0 64.333 29 93 87l88 -66c-47.333 -98.667 -109.666 -148 -186.999 -148c-32.667 0 -77 14.333 -133 43c-54.667 27.333 -93 41 -115 41
c-27.333 0 -55 -29.333 -83 -88z" />
    <glyph glyph-name="OE" horiz-adv-x="2163" 
d="M2060 1223h-545v-407h530v-142h-530v-532h545v-142h-698v262c-138 -191.333 -322.333 -287 -553 -287c-181.333 0 -342 64.667 -482 194c-150 139.333 -225 309 -225 509c0 194.667 69 361.667 207 501s303.333 209 496 209c227.333 0 413 -97 557 -291v268h698v-142z
M804 1245c-147.333 0 -275.499 -55.832 -384.499 -167.499s-163.5 -242.834 -163.5 -393.501c0 -156 54 -289.333 162 -400s237.667 -166 389 -166c152 0 282.5 54.833 391.5 164.5s163.5 241.167 163.5 394.5c0 157.333 -54.333 291.333 -163 402
s-240.334 166 -395.001 166z" />
    <glyph glyph-name="oe" horiz-adv-x="1742" 
d="M1657 397h-669.997c4 -84.667 31.667 -154.167 83 -208.5s114.666 -81.5 189.999 -81.5c111.333 0 198.666 60.667 261.999 182l123 -72c-93.333 -161.333 -223.333 -242 -390 -242c-75.333 0 -145 18.5 -209 55.5s-111.667 86.5 -143 148.5
c-39.333 -64.667 -92 -114.834 -158 -150.501s-138 -53.5 -216 -53.5c-123.333 0 -228.333 43.333 -315 130s-130 191.667 -130 315c0 126.667 44 233.334 132 320.001s196.333 130 325 130c76 0 146.5 -18.167 211.5 -54.5s115.167 -85.5 150.5 -147.5
c32 64 78.5 113.667 139.5 149s129.833 53 206.5 53c123.333 0 222.166 -40.5 296.499 -121.5s111.5 -188.167 111.5 -321.5v-30zM1503 520c-28.667 144.667 -113 217 -253 217c-132 0 -215.667 -72.333 -251 -217h504zM536.003 737
c-89.333 0 -162.168 -29.5 -218.501 -88.5s-84.5 -135.167 -84.5 -228.5c0 -90 27.833 -164.667 83.5 -224s125.834 -89 210.501 -89c89.333 0 162.333 29 219 87s85 132.667 85 224c0 92.667 -27.667 169 -83 229s-126 90 -212 90z" />
    <glyph glyph-name="lozenge" horiz-adv-x="1365" 
d="M683 1419l531 -736l-531 -736l-532 736zM683 1134l-328 -451l328 -450l328 450z" />
    <glyph glyph-name="ydieresis" horiz-adv-x="942" 
d="M407 81l-391 770h169l300 -609l275 609h165l-628 -1330h-165zM293 1249c28.667 0 53 -10 73 -30s30 -44.333 30 -73c0 -28 -10.167 -52 -30.5 -72s-44.5 -30 -72.5 -30s-52 10 -72 30s-30 44 -30 72c0 28.667 10 53 30 73s44 30 72 30zM649 1249
c28.667 0 52.833 -10 72.5 -30s29.5 -44.333 29.5 -73c0 -28 -10 -52 -30 -72s-44 -30 -72 -30s-52.167 10 -72.5 30s-30.5 44 -30.5 72c0 28.667 10 53 30 73s44.333 30 73 30z" />
    <glyph glyph-name="Ydieresis" horiz-adv-x="1081" 
d="M461 587l-447 778h176l348 -609l353 609h177l-454 -778v-587h-153v587zM346 1738c29.333 0 54.166 -10.167 74.499 -30.5s30.5 -45.166 30.5 -74.499c0 -28.667 -10.167 -53.167 -30.5 -73.5s-45.166 -30.5 -74.499 -30.5c-28 0 -52.333 10.333 -73 31s-31 45 -31 73
c0 29.333 10.167 54.166 30.5 74.499s44.833 30.5 73.5 30.5zM735 1738c29.333 0 54.166 -10.167 74.499 -30.5s30.5 -45.166 30.5 -74.499c0 -28.667 -10.167 -53.167 -30.5 -73.5s-45.166 -30.5 -74.499 -30.5c-28 0 -52.333 10.333 -73 31s-31 45 -31 73
c0 29.333 10.167 54.166 30.5 74.499s44.833 30.5 73.5 30.5z" />
    <glyph glyph-name="fraction" horiz-adv-x="286" 
d="M501 1392l79 -44l-795 -1375l-79 48z" />
    <glyph glyph-name="fi" horiz-adv-x="915" 
d="M286 716l-0.000976562 -716h-146v716h-81v135h81v360c0 204 82.667 306 248 306c34.667 0 71.667 -6 111 -18v-148c-37.333 14 -69.666 21 -96.999 21c-45.333 0 -76 -13.333 -92 -40s-24 -78 -24 -154v-327h213v-135h-213zM775.999 851v-851h-146v851h146zM701.999 1275
c29.333 0 54.166 -10.167 74.499 -30.5s30.5 -44.833 30.5 -73.5c0 -29.333 -10.167 -54.166 -30.5 -74.499s-45.166 -30.5 -74.499 -30.5c-28.667 0 -53.167 10.167 -73.5 30.5s-30.5 45.166 -30.5 74.499c0 28.667 10.167 53.167 30.5 73.5s44.833 30.5 73.5 30.5z" />
    <glyph glyph-name="fl" horiz-adv-x="915" 
d="M286 716v-715.999h-146v716h-81v135h81v360c0 204 82.667 306 248 306c34.667 0 71.667 -6 111 -18v-148c-38 14 -70.333 21 -97 21c-45.333 0 -76 -13.333 -92 -40s-24 -78.334 -24 -155.001v-326h213v-135h-213zM776 1494v-1494h-146v1494h146z" />
    <glyph glyph-name="Ecircumflex" horiz-adv-x="987" 
d="M884 1223h-554v-405h539v-142h-539v-534h554v-142h-707v1365h707v-142zM244 1561l285 243l288 -244l-108 -83l-180 155l-179 -155z" />
    <glyph glyph-name="Egrave" horiz-adv-x="987" 
d="M884 1223h-554v-405h539v-142h-539v-534h554v-142h-707v1365h707v-142zM265 1715l137 91l245 -265l-89 -65z" />
    <glyph glyph-name="Idieresis" horiz-adv-x="508" 
d="M331 1365v-1365h-153v1365h153zM115 1738c29.333 0 54.166 -10.167 74.499 -30.5s30.5 -45.166 30.5 -74.499c0 -28.667 -10.167 -53.167 -30.5 -73.5s-45.166 -30.5 -74.499 -30.5c-28 0 -52.333 10.333 -73 31s-31 45 -31 73c0 29.333 10.167 54.166 30.5 74.499
s44.833 30.5 73.5 30.5zM392 1738c29.333 0 54.166 -10.167 74.499 -30.5s30.5 -45.166 30.5 -74.499c0 -28.667 -10.167 -53.167 -30.5 -73.5s-45.166 -30.5 -74.499 -30.5c-28 0 -52.333 10.333 -73 31s-31 45 -31 73c0 29.333 10.167 54.166 30.5 74.499
s44.833 30.5 73.5 30.5z" />
    <glyph glyph-name="Igrave" horiz-adv-x="508" 
d="M331 1365v-1365h-153v1365h153zM19 1715l137 91l197 -272l-88 -58z" />
    <glyph glyph-name="apple" horiz-adv-x="512" 
 />
    <glyph glyph-name="Ograve" horiz-adv-x="1626" 
d="M814 1388c194 0 360.667 -69.5 500 -208.5s209 -305.167 209 -498.5s-69.667 -359.333 -209 -498s-306 -208 -500 -208c-182 0 -342 61.667 -480 185c-154.667 137.333 -232 314 -232 530c0 188.667 70.5 352.167 211.5 490.5s307.833 207.5 500.5 207.5zM813 1245
c-152.667 0 -283.667 -54.667 -393 -164s-164 -240 -164 -392c0 -159.333 54 -294.333 162 -405s239.667 -166 395 -166c153.333 0 284.333 55 393 165s163 242.333 163 397c0 156.667 -54 290 -162 400s-239.333 165 -394 165zM543 1715l137 91l245 -265l-88 -65z" />
    <glyph glyph-name="Ucircumflex" horiz-adv-x="1328" 
d="M330 1365l0.00390625 -835.997c0 -80.667 4.5 -141.334 13.5 -182.001s25.833 -76.334 50.5 -107.001c29.333 -36.667 68.666 -66.167 117.999 -88.5s99.666 -33.5 150.999 -33.5c52 0 102.667 11.167 152 33.5s88.666 51.833 117.999 88.5
c24.667 31.333 41.5 67.166 50.5 107.499s13.5 100.833 13.5 181.5v836h153v-878c0 -154.667 -39.667 -274 -119 -358c-96.667 -102.667 -219.334 -154 -368.001 -154c-148 0 -270.333 51.333 -367 154c-79.333 84 -119 203.333 -119 358v878h153zM377.004 1561l285 243
l288 -244l-108 -83l-179 155l-180 -155z" />
    <glyph glyph-name="Ugrave" horiz-adv-x="1328" 
d="M330 1365l0.00390625 -835.997c0 -80.667 4.5 -141.334 13.5 -182.001s25.833 -76.334 50.5 -107.001c29.333 -36.667 68.666 -66.167 117.999 -88.5s99.666 -33.5 150.999 -33.5c52 0 102.667 11.167 152 33.5s88.666 51.833 117.999 88.5
c24.667 31.333 41.5 67.166 50.5 107.499s13.5 100.833 13.5 181.5v836h153v-878c0 -154.667 -39.667 -274 -119 -358c-96.667 -102.667 -219.334 -154 -368.001 -154c-148 0 -270.333 51.333 -367 154c-79.333 84 -119 203.333 -119 358v878h153zM401.004 1715l137 91
l245 -265l-88 -65z" />
    <glyph glyph-name="dotlessi" horiz-adv-x="425" 
d="M286 851v-851h-146v851h146z" />
    <glyph glyph-name="circumflex" horiz-adv-x="1024" 
d="M229 1077l282 266l285 -266l-105 -80l-180 169l-179 -170z" />
    <glyph glyph-name="tilde" horiz-adv-x="1024" 
d="M307 1037l-84.998 69c35.333 97.333 93.666 146 174.999 146c38 0 80.667 -14.667 128 -44c44 -26.667 75.667 -40 95 -40c35.333 0 67.333 29 96 87l85 -66c-17.333 -44.667 -42 -80.5 -74 -107.5s-66 -40.5 -102 -40.5c-32 0 -72.333 14 -121 42
c-50.667 29.333 -87.334 44 -110.001 44c-39.333 0 -68.333 -30 -87 -90z" />
    <glyph glyph-name="macron" horiz-adv-x="1024" 
d="M237 1201h550v-123h-550v123z" />
    <glyph glyph-name="ring" horiz-adv-x="1024" 
d="M512 1361c51.333 0 95 -18 131 -54s54 -79.667 54 -131s-18.167 -95.166 -54.5 -131.499s-79.833 -54.5 -130.5 -54.5c-51.333 0 -95.166 18.167 -131.499 54.5s-54.5 80.166 -54.5 131.499c0 50.667 18.167 94.167 54.5 130.5s80.166 54.5 131.499 54.5zM511 1261
c-23.333 0 -43.333 -8.33301 -60 -25s-25 -37 -25 -61c0 -23.333 8.33301 -43.333 25 -60s36.667 -25 60 -25c24 0 44.333 8.33301 61 25s25 36.667 25 60c0 24 -8.33301 44.333 -25 61s-37 25 -61 25z" />
    <glyph glyph-name="eth" horiz-adv-x="1068" 
d="M155 1410l59.0029 88.999c113.333 -31.333 220.666 -76.666 321.999 -135.999l226 113l84 -82l-210 -110c109.333 -99.333 194.666 -222.166 255.999 -368.499s92 -299.833 92 -460.5c0 -144 -41.333 -260 -124 -348s-191.334 -132 -326.001 -132
c-126.667 0 -233.167 42.833 -319.5 128.5s-129.5 191.5 -129.5 317.5c0 125.333 43.5 231.666 130.5 318.999s193.167 131 318.5 131c63.333 0 114.5 -9.16699 153.5 -27.5s80.167 -52.166 123.5 -101.499c-56.667 207.333 -153.667 367.666 -291 480.999l-221 -114l-91 84
l202 105c-66 42.667 -151 80 -255 112zM531.003 738.999c-85.333 0 -156.166 -29.999 -212.499 -89.999s-84.5 -135.667 -84.5 -227c0 -90.667 28.167 -165.834 84.5 -225.501s127.166 -89.5 212.499 -89.5c89.333 0 162.5 29.5 219.5 88.5s85.5 134.5 85.5 226.5
c0 93.333 -28.333 169.5 -85 228.5s-130 88.5 -220 88.5z" />
    <glyph glyph-name="Thorn" horiz-adv-x="937" 
d="M330 407l-0.000976562 -407h-153v1365h153v-191h95c92.667 0 167.5 -9.33301 224.5 -28s105.833 -49.334 146.5 -92.001c66 -71.333 99 -159.666 99 -264.999c0 -118 -38.667 -211.167 -116 -279.5s-182.666 -102.5 -315.999 -102.5h-133zM329.999 546h123.999
c92.667 0 164.334 21.5 215.001 64.5s76 103.833 76 182.5c0 160 -100.667 240 -302 240h-113v-487z" />
    <glyph glyph-name="thorn" horiz-adv-x="1073" 
d="M285 -479l-146 -0.000976562v1973h146v-764c78 93.333 176.667 140 296 140c118.667 0 216.167 -43.167 292.5 -129.5s114.5 -196.166 114.5 -329.499c0 -124.667 -38.833 -228.5 -116.5 -311.5s-175.167 -124.5 -292.5 -124.5c-114.667 0 -212.667 48 -294 144v-598z
M560 737.999c-84 0 -152.166 -29.834 -204.499 -89.501s-78.5 -137.5 -78.5 -233.5c0 -90 26.667 -163.833 80 -221.5s121.666 -86.5 204.999 -86.5c78 0 143.667 29.5 197 88.5s80 131.833 80 218.5c0 94.667 -26 172.334 -78 233.001s-119 91 -201 91z" />
    <glyph glyph-name="onesuperior" horiz-adv-x="792" 
d="M366 1268h-145l57 97h196v-819h-108v722z" />
    <glyph glyph-name="twosuperior" horiz-adv-x="792" 
d="M308 643h346.001v-97h-569l318 350c97.333 107.333 146 186.333 146 237c0 42 -15.667 77.333 -47 106s-70 43 -116 43c-98.667 0 -153.334 -55 -164.001 -165h-108c6.66699 66 21.667 115.667 45 149c51.333 74 125.666 111 222.999 111
c76.667 0 141.334 -23.5 194.001 -70.5s79 -104.5 79 -172.5c0 -46.667 -11.833 -90.167 -35.5 -130.5s-73.167 -101.5 -148.5 -183.5z" />
    <glyph glyph-name="threesuperior" horiz-adv-x="792" 
d="M353 930v91c112 0 168 44.667 168 134c0 34.667 -13 64.167 -39 88.5s-58 36.5 -96 36.5c-43.333 0 -75.5 -9.5 -96.5 -28.5s-35.833 -52.167 -44.5 -99.5h-107c23.333 150 104.666 225 243.999 225c70 0 128.333 -20.833 175 -62.5s70 -93.5 70 -155.5
c0 -73.333 -32.667 -134 -98 -182c74 -48 111 -114 111 -198c0 -70 -25.667 -128.333 -77 -175s-115.666 -70 -192.999 -70c-76 0 -136.5 20.5 -181.5 61.5s-70.5 98.833 -76.5 173.5h105c14 -92.667 66.333 -139 157 -139c44.667 0 82.5 14.833 113.5 44.5
s46.5 66.167 46.5 109.5c0 97.333 -60.333 146 -181 146z" />
    <glyph glyph-name="onehalf" horiz-adv-x="1761" 
d="M338 1268h-145l57 97h196v-819h-108v722zM1238 1392l79 -44l-795 -1375l-79 48zM1304 97l346.001 -0.000976562v-97h-569l318 351c97.333 106.667 146 185.334 146 236.001c0 42 -15.667 77.333 -47 106s-70 43 -116 43c-98.667 0 -153.334 -55 -164.001 -165h-108
c6.66699 66 21.667 115.667 45 149c51.333 74.667 125.666 112 222.999 112c76.667 0 141.334 -23.5 194.001 -70.5s79 -104.833 79 -173.5c0 -46 -12 -89.333 -36 -130s-73.333 -102 -148 -184z" />
    <glyph glyph-name="onequarter" horiz-adv-x="1761" 
d="M338 1268h-145l57 97h196v-819h-108v722zM1238 1392l79 -44l-795 -1375l-79 48zM1593 228h103v-96h-103v-132h-109v132h-440l549 747v-651zM1484 228v336l-248 -336h248z" />
    <glyph glyph-name="threequarters" horiz-adv-x="1761" 
d="M325 930v91c112 0 168 44.667 168 134c0 34.667 -13 64.167 -39 88.5s-58 36.5 -96 36.5c-43.333 0 -75.5 -9.5 -96.5 -28.5s-35.833 -52.167 -44.5 -99.5h-107c23.333 150 104.666 225 243.999 225c70 0 128.333 -20.833 175 -62.5s70 -93.5 70 -155.5
c0 -73.333 -32.667 -134 -98 -182c74 -48 111 -114 111 -198c0 -70 -25.667 -128.333 -77 -175s-115.666 -70 -192.999 -70c-76 0 -136.5 20.5 -181.5 61.5s-70.5 98.833 -76.5 173.5h105c14 -92.667 66.333 -139 157 -139c44.667 0 82.5 14.833 113.5 44.5
s46.5 66.167 46.5 109.5c0 97.333 -60.333 146 -181 146zM1238 1392l79 -44l-794 -1375l-79 48zM1594 228h102v-96h-102v-132h-109v132h-440l549 747v-651zM1485 228v336l-248 -336h248z" />
    <glyph glyph-name="franc" 
d="M829 1223h-468v-405h453v-142h-453v-676h-153v1365h621v-142zM754 602l123.003 -0.000976562v-71c27.333 38 49.666 62.667 66.999 74s41.666 17 72.999 17c30 0 63 -10.333 99 -31l-62 -106c-20.667 13.333 -40.334 20 -59.001 20c-41.333 0 -71.333 -15.667 -90 -47
s-28 -81.666 -28 -150.999v-307h-123v602z" />
    <glyph glyph-name="Gbreve" horiz-adv-x="1552" 
d="M881 685l569.001 -0.000976562v-35c0 -108 -12.5 -198.167 -37.5 -270.5s-67.167 -139.166 -126.5 -200.499c-129.333 -136 -290.333 -204 -483 -204s-357.667 69 -495 207s-206 303.667 -206 497c0 198 70 365.667 210 503s310.667 206 512 206
c111.333 0 211.833 -23.5 301.5 -70.5s178.167 -122.5 265.5 -226.5l-112 -102c-130 170.667 -282 256 -456 256c-158.667 0 -292.834 -55 -402.501 -165s-164.5 -244.333 -164.5 -403c0 -153.333 54.5 -284.833 163.5 -394.5s239.833 -164.5 392.5 -164.5
c72 0 144 17.667 216 53s130.333 81.333 175 138c49.333 62.667 77 140.667 83 234h-405v142zM540.001 1764h130.998c22.667 -90.667 73 -136 151 -136c81.333 0 133 45.333 155 136h130c-9.33301 -84 -39.166 -149.333 -89.499 -196s-115.5 -70 -195.5 -70
c-82 0 -147.667 23.167 -197 69.5s-77.666 111.833 -84.999 196.5z" />
    <glyph glyph-name="gbreve" horiz-adv-x="1075" 
d="M936 851l0.00195312 -831.999c0 -93.333 -7.83301 -166.5 -23.5 -219.5s-43.5 -101.5 -83.5 -145.5c-78.667 -85.333 -183.334 -128 -314.001 -128c-120.667 0 -219.834 36.667 -297.501 110s-116.5 167 -116.5 281h145c6.66699 -84.667 33.167 -149 79.5 -193
s110.166 -66 191.499 -66c182 0 273 112 273 336v124c-82.667 -94 -182.667 -141 -300 -141c-115.333 0 -211.666 42.5 -288.999 127.5s-116 190.833 -116 317.5c0 129.333 39 236.666 117 321.999s176.333 128 295 128c116 0 213.667 -47 293 -141v120h146z
M513.002 740.001c-80.667 0 -147.333 -29.667 -200 -89s-79 -134.666 -79 -225.999c0 -93.333 26 -169.333 78 -228s119.333 -88 202 -88c82 0 149.667 29.667 203 89s80 134.666 80 225.999c0 92.667 -26.5 168.5 -79.5 227.5s-121.167 88.5 -204.5 88.5zM276.003 1297h126
c4 -44.667 18.333 -79.667 43 -105s57 -38 97 -38c80.667 0 129 47.667 145 143h126c-9.33301 -82 -38.333 -146.833 -87 -194.5s-110 -71.5 -184 -71.5c-76.667 0 -140.167 25.167 -190.5 75.5s-75.5 113.833 -75.5 190.5z" />
    <glyph glyph-name="Idot" horiz-adv-x="508" 
d="M330 1365v-1365h-153v1365h153zM253 1741c30.667 0 56.667 -10.667 78 -32s32 -47 32 -77c0 -30.667 -10.667 -56.667 -32 -78s-47.333 -32 -78 -32c-29.333 0 -54.833 10.833 -76.5 32.5s-32.5 47.5 -32.5 77.5s10.667 55.667 32 77s47 32 77 32z" />
    <glyph glyph-name="glyph277" horiz-adv-x="636" 
d="M93 1067h118v-39c37.333 34 83.333 51 138 51c129.333 0 194 -71 194 -213v-320h-118v305c0 46.667 -7 79 -21 97s-39.333 27 -76 27c-78 0 -117 -56.333 -117 -169v-260h-118v521z" />
    <glyph glyph-name="glyph297" horiz-adv-x="1714" 
d="M330 598l-0.000976562 -598h-153v1365h248c92 0 166.5 -9.33301 223.5 -28s105.833 -49.667 146.5 -93c66.667 -71.333 100 -159.333 100 -264c0 -118 -38.667 -211.167 -116 -279.5s-182.666 -102.5 -315.999 -102.5h-133zM329.999 737h123.999
c92.667 0 164.334 21.5 215.001 64.5s76 104.167 76 183.5c0 158.667 -100.667 238 -302 238h-113v-486zM1054 493v-493h-123v493h-75v109h75v210h123v-210h119v-109h-119zM1656 508l-106.001 -53.9971c-21.333 38.667 -49.333 58 -84 58
c-16.667 0 -31.334 -5.33301 -44.001 -16s-19 -23.334 -19 -38.001c0 -28.667 33 -55.667 99 -81c72 -26.667 121 -53.667 147 -81s39 -65 39 -113c0 -56 -21.333 -103.333 -64 -142s-95 -58 -157 -58c-109.333 0 -185.333 52.667 -228 158l105 48
c32 -64 73.667 -96 125 -96c24.667 0 45.334 8 62.001 24s25 35.667 25 59c0 37.333 -33 68.666 -99 93.999c-68 26 -114.667 51.667 -140 77s-38 58.666 -38 99.999c0 50.667 18.333 92.5 55 125.5s83.334 49.5 140.001 49.5c79.333 0 140 -38 182 -114z" />
    <glyph glyph-name="glyph298" 
d="M581 803c29.333 0 54.333 -10.333 75 -31s31 -46 31 -76c0 -29.333 -10.333 -54.333 -31 -75s-45.667 -31 -75 -31s-54.5 10.5 -75.5 31.5s-31.5 45.833 -31.5 74.5c0 30 10.333 55.333 31 76s46 31 76 31z" />
    <glyph glyph-name="glyph299" horiz-adv-x="687" 
d="M285 1494v-1494h-146v1494h146zM555 878c36 0 66.833 -12.667 92.5 -38s38.5 -56.333 38.5 -93c0 -36 -12.833 -66.833 -38.5 -92.5s-56.5 -38.5 -92.5 -38.5s-66.833 12.833 -92.5 38.5s-38.5 56.5 -38.5 92.5s12.833 66.833 38.5 92.5s56.5 38.5 92.5 38.5z" />
    <glyph glyph-name="glyph300" horiz-adv-x="733" 
d="M330 1365v-1223h375v-142h-528v1365h153zM612 828c36 0 66.833 -12.667 92.5 -38s38.5 -56.333 38.5 -93s-12.833 -67.667 -38.5 -93s-56.5 -38 -92.5 -38s-66.833 12.833 -92.5 38.5s-38.5 56.5 -38.5 92.5s12.833 66.833 38.5 92.5s56.5 38.5 92.5 38.5z" />
    <glyph glyph-name="glyph301" horiz-adv-x="1365" 
d="M27 636l0.000976562 104h1024c-22 29.333 -45.167 68.5 -69.5 117.5s-36.5 81.167 -36.5 96.5c0 19.333 10 29 30 29c11.333 0 27 -11.667 47 -35c70.667 -81.333 160.334 -152 269.001 -212c32 -18 47.667 -33 47 -45s-7.33398 -21.333 -20.001 -28l-13 -8
c-8.66699 -4.66699 -17.334 -9.66699 -26.001 -15l-32 -20c-96 -60.667 -175.667 -128 -239 -202c-10.667 -13.333 -22 -20 -34 -20c-19.333 0 -29 10.667 -29 32c0 15.333 10.5 43.5 31.5 84.5s45.833 81.5 74.5 121.5h-1024z" />
    <glyph glyph-name="glyph302" horiz-adv-x="1365" 
d="M1338 744v-104h-1024c21.333 -26.667 44.333 -65 69 -115s37 -82.667 37 -98c0 -19.333 -9.66699 -29 -29 -29c-12 0 -28 11.667 -48 35c-71.333 82.667 -161 153.667 -269 213c-31.333 17.333 -47 31.333 -47 42c0 12.667 6.66699 23 20 31l14 7
c122 69.333 220.667 148.666 296 237.999c10.667 12.667 22 19 34 19c19.333 0 29 -10.667 29 -32c0 -16 -10.5 -44.667 -31.5 -86s-45.833 -81.666 -74.5 -120.999h1024z" />
    <glyph glyph-name="glyph303" horiz-adv-x="1365" 
d="M312 635c28.667 -38.667 53.6689 -78.334 75.002 -119.001s32.333 -69.667 33 -87c0.666992 -21.333 -9 -32 -29 -32c-12 0 -23.333 6.66699 -34 20l-16 19c-60 72 -153.333 145 -280 219l-13 8c-14 8 -21 18 -21 30c0 11.333 15.667 25.666 47 42.999
c108 58.667 198 129.667 270 213c20 23.333 35.333 35 46 35c20 0 30 -9.66699 30 -29c0 -16 -12.333 -48.5 -37 -97.5s-48.334 -88.5 -71.001 -118.5h739c-22 28.667 -45.167 68 -69.5 118s-36.5 82.667 -36.5 98c0 19.333 10 29 30 29c11.333 0 27 -11.667 47 -35
c72 -84 161.667 -155 269 -213c32 -17.333 47.667 -32.333 47 -45c-0.666992 -11.333 -7.33398 -20.666 -20.001 -27.999l-13 -8c-70.667 -40.667 -127.5 -78.167 -170.5 -112.5s-85.167 -76.166 -126.5 -125.499c-10.667 -13.333 -22 -20 -34 -20
c-19.333 0 -29 10.667 -29 32c0 14 9.83301 41 29.5 81s41.5 76.333 65.5 109l11 16h-739z" />
    <glyph glyph-name="glyph304" horiz-adv-x="1371" 
d="M742 27l-108.997 -0.000976562v1024c-24.667 -20 -62.5 -42.833 -113.5 -68.5s-83.833 -38.5 -98.5 -38.5c-19.333 0 -29 10.333 -29 31c0 10.667 11.667 26 35 46c78 68 148.667 158 212 270c17.333 31.333 32 47 44 47c13.333 0 24 -6.66699 32 -20l8 -14
c1.33301 -2 6.66602 -10.667 15.999 -26c4 -5.33301 10.667 -15.666 20 -30.999c58.667 -96 126 -176 202 -240c13.333 -10.667 19.666 -22 18.999 -34c-0.666992 -19.333 -11.334 -29 -32.001 -29c-14 0 -40.833 10 -80.5 30s-76.167 41.667 -109.5 65l-16 12v-1024z" />
    <glyph glyph-name="glyph305" horiz-adv-x="1365" 
d="M626 1338l109.002 -0.000976562v-1024c27.333 22 65.833 45.333 115.5 70s82.167 37 97.5 37c19.333 0 29 -10.333 29 -31c0 -10.667 -11.667 -26 -35 -46c-78.667 -68.667 -149.334 -158.667 -212.001 -270c-18 -31.333 -33 -47 -45 -47c-12.667 0 -23.334 7 -32.001 21
l-7 13c-2 2.66699 -7.66699 11.334 -17 26.001l-20 32c-58.667 95.333 -125.667 175 -201 239c-13.333 10.667 -20 22 -20 34c0 19.333 10.667 29 32 29c14 0 40.833 -10 80.5 -30s76.167 -41.667 109.5 -65l16 -12v1024z" />
    <glyph glyph-name="glyph306" horiz-adv-x="1365" 
d="M739 312l15.999 11.9971c32.667 23.333 68.5 45 107.5 65s66.5 30.333 82.5 31c21.333 0.666992 32 -9 32 -29c0 -12 -6.33301 -23.333 -19 -34l-19 -16c-63.333 -52.667 -124.333 -127 -183 -223c-9.33301 -15.333 -16 -26 -20 -32c-8.66699 -14 -14 -22.333 -16 -25
l-8 -13c-8 -14 -18.667 -21 -32 -21c-11.333 0 -26 15.667 -44 47c-64 112.667 -134.667 202.667 -212 270c-23.333 20 -35 35.333 -35 46c0 20 9.66699 30 29 30c15.333 0 47.833 -12.667 97.5 -38s87.834 -48.666 114.501 -69.999v739
c-25.333 -20.667 -63.166 -43.5 -113.499 -68.5s-83.166 -37.5 -98.499 -37.5c-19.333 0 -29 10 -29 30c0 11.333 11.667 27 35 47c78.667 68 149.334 157.667 212.001 269c17.333 31.333 32 47 44 47c13.333 0 24 -6.66699 32 -20l8 -14
c2.66699 -3.33301 8 -11.666 16 -24.999l20 -32c59.333 -96 126.666 -175.667 201.999 -239c13.333 -11.333 19.666 -22.666 18.999 -33.999c-0.666992 -19.333 -11.334 -29 -32.001 -29c-14 0 -40.833 9.83301 -80.5 29.5s-76.167 41.167 -109.5 64.5l-16 12v-739z" />
    <glyph glyph-name="glyph307" horiz-adv-x="1365" 
d="M741 312l16 12c31.333 23.333 66.166 45 104.499 65s65.166 30.333 80.499 31c21.333 1.33301 32 -8.33398 32 -29.001c0 -12 -6.33301 -23.333 -19 -34l-19 -16c-60.667 -52 -120 -126.333 -178 -223c-8.66699 -14.667 -15.334 -25.334 -20.001 -32.001
c-10 -16 -15.333 -24.333 -16 -25l-8 -13c-8 -14 -18.667 -21 -32 -21c-11.333 0 -26 15.667 -44 47c-64 112 -134.667 202 -212 270c-23.333 20 -35 35.333 -35 46c0 20 9.66699 30 29 30c15.333 0 47.833 -12.667 97.5 -38s87.834 -48.666 114.501 -69.999v739
c-25.333 -20.667 -63.166 -43.5 -113.499 -68.5s-83.166 -37.5 -98.499 -37.5c-19.333 0 -29 10 -29 30c0 11.333 11.667 27 35 47c78.667 68 149.334 157.667 212.001 269c17.333 31.333 32 47 44 47c13.333 0 24 -6.66699 32 -20l8 -14l16 -25l20 -32
c58.667 -97.333 124.334 -177 197.001 -239c13.333 -11.333 19.666 -22.666 18.999 -33.999c-0.666992 -19.333 -11.334 -29 -32.001 -29c-13.333 0 -39.5 10 -78.5 30s-74.5 41.333 -106.5 64l-16 12v-739zM412 -132h541v-96h-541v96z" />
    <glyph glyph-name="glyph308" 
d="M98 892v119h964v-119h-964zM98 637v119h964v-119h-964zM98 382v119h964v-119h-964z" />
    <glyph glyph-name="glyph309" horiz-adv-x="1196" 
d="M1102 0h-154v640c0 133.333 -4 229 -12 287s-23.667 105.667 -47 143c-30.667 48 -72.334 86.167 -125.001 114.5s-108 42.5 -166 42.5c-57.333 0 -112 -13.667 -164 -41s-92.667 -64 -122 -110c-25.333 -38 -42.333 -87 -51 -147s-13 -156.333 -13 -289v-640h-154v634
c0 172 5.33301 289.667 16 353s35.334 121.333 74.001 174c98 136 236 204 414 204s316 -68 414 -204c38 -52.667 62.5 -111 73.5 -175s16.5 -181.333 16.5 -352v-634z" />
    <glyph glyph-name="glyph310" horiz-adv-x="1024" 
d="M0 -117h1024v-97h-1024v97zM0 -356h1024v-98h-1024v98z" />
    <glyph glyph-name="glyph311" horiz-adv-x="1024" 
d="M0 1769h1024v-138h-1024v138z" />
    <glyph glyph-name="glyph312" horiz-adv-x="868" 
d="M294 1365v-363l-38 -619h-88l-38 617v365h164zM296 239v-239h-169v239h169zM738 1365v-363l-38 -619h-88l-38 617v365h164zM741 239v-239h-169v239h169z" />
    <glyph glyph-name="glyph313" horiz-adv-x="1072" 
d="M168 0v1365h941v-138h-784v-1227h-157z" />
    <glyph glyph-name="glyph314" horiz-adv-x="1435" 
d="M992 773v-116h-549v116h549zM724 1394c162.667 0 297.666 -45.333 404.999 -136c74.667 -63.333 132.834 -147 174.501 -251s62.5 -217.333 62.5 -340c0 -208 -58.667 -376 -176 -504s-271.333 -192 -462 -192c-202 0 -362.5 63.667 -481.5 191s-178.5 299 -178.5 515
c0 220 59 394.5 177 523.5s277.667 193.5 479 193.5zM226.999 682l-0.00195312 -8.99902c0 -173.333 44.167 -310.833 132.5 -412.5s207.833 -152.5 358.5 -152.5s269.834 51 357.501 153s131.5 240.333 131.5 415c0 179.333 -44.167 321.166 -132.5 425.499
s-208.166 156.5 -359.499 156.5c-150.667 0 -269.667 -51.5 -357 -154.5s-131 -243.5 -131 -421.5z" />
    <glyph glyph-name="glyph315" horiz-adv-x="1375" 
d="M611 -21v169c-168 9.33301 -299.833 61.333 -395.5 156s-143.5 221 -143.5 379c0 157.333 48 283.5 144 378.5s227.667 146.833 395 155.5v169h154v-169c169.333 -8.66699 301.5 -60.167 396.5 -154.5s142.5 -220.833 142.5 -379.5c0 -159.333 -47.333 -286 -142 -380
s-227 -145.667 -397 -155v-169h-154zM765 281c121.333 10.667 215.5 51.332 282.5 121.999s100.5 164.334 100.5 281.001c0 116 -34.333 209.667 -103 281s-162 110.333 -280 117v-801zM611 1083c-121.333 -10 -215.666 -50.333 -282.999 -121s-101 -164.334 -101 -281.001
c0 -115.333 33.667 -208.166 101 -278.499s161.666 -110.833 282.999 -121.5v802z" />
    <glyph glyph-name="glyph316" horiz-adv-x="1324" 
d="M1191 983l-199 -466.999l237 -516h-172l-146 364c-74 -150.667 -140.333 -253.834 -199 -309.501s-130.667 -83.5 -216 -83.5c-116 0 -213.333 50.333 -292 151s-118 225 -118 373s40.167 271.167 120.5 369.5s180.833 147.5 301.5 147.5c88 0 159.667 -23.5 215 -70.5
s117.333 -137.5 186 -271.5l117 313h165zM856 516.001c-54.667 139.333 -105 234.834 -151 286.501s-104 77.5 -174 77.5c-82 0 -150 -36.833 -204 -110.5s-81 -166.167 -81 -277.5c0 -108 27 -198.833 81 -272.5s120.667 -110.5 200 -110.5
c65.333 0 118.833 22.667 160.5 68s86.5 129.666 134.5 252.999z" />
    <glyph glyph-name="glyph317" horiz-adv-x="1077" 
d="M887 1365l0.000976562 -138.999h-462l313 -237c99.333 -75.333 169.666 -151.5 210.999 -228.5s62 -170.833 62 -281.5c0 -152.667 -42.833 -275.5 -128.5 -368.5s-198.834 -139.5 -339.501 -139.5c-144 0 -259.667 46.667 -347 140s-131 216.666 -131 369.999
c0 142 38.333 260.5 115 355.5s172.334 142.5 287.001 142.5c18 0 38.667 -2.66699 62 -8l-338 254v140h696zM540.001 866.001c-94.667 0 -171.168 -35.168 -229.501 -105.501s-87.5 -163.166 -87.5 -278.499c0 -112 28.667 -202.333 86 -271s133 -103 227 -103
c98.667 0 176.334 32.833 233.001 98.5s85 155.5 85 269.5c0 120 -28.167 215 -84.5 285s-132.833 105 -229.5 105z" />
    <glyph glyph-name="glyph318" horiz-adv-x="902" 
d="M817 686l-156.999 -0.000976562v21c0 54.667 -19 98.334 -57 131.001s-89.333 49 -154 49c-59.333 0 -107.833 -15.333 -145.5 -46s-56.5 -70.334 -56.5 -119.001c0 -100 78 -150 234 -150h61v-116h-39c-182 0 -273 -57.667 -273 -173c0 -52.667 21 -95.667 63 -129
s96.333 -50 163 -50c74.667 0 133.667 18.833 177 56.5s65 88.834 65 153.501h161c-17.333 -228.667 -152 -343 -404 -343c-116.667 0 -210.834 27.667 -282.501 83s-107.5 128.333 -107.5 219c0 126.667 70 210 210 250c-120.667 40.667 -181 113 -181 217
c0 81.333 33 148 99 200s151.333 78 256 78c115.333 0 205.5 -29.167 270.5 -87.5s97.5 -139.833 97.5 -244.5z" />
    <glyph glyph-name="glyph319" horiz-adv-x="1095" 
d="M1080 981v-136.999h-221c58 -55.333 98.333 -110 121 -164s34 -122.333 34 -205c0 -150.667 -43.5 -272.334 -130.5 -365.001s-201.5 -139 -343.5 -139c-142.667 0 -257.5 47.333 -344.5 142s-130.5 219.667 -130.5 375c0 156 43.833 282.167 131.5 378.5
s202.5 144.5 344.5 144.5c52.667 0 110 -10 172 -30h367zM539 874.001c-95.333 0 -171.833 -34.667 -229.5 -104s-86.5 -161.333 -86.5 -276c0 -117.333 28.5 -211 85.5 -281s133.167 -105 228.5 -105c100 0 178.333 33.5 235 100.5s85 159.5 85 277.5
c0 120 -28.5 214.667 -85.5 284s-134.5 104 -232.5 104z" />
    <glyph glyph-name="glyph320" horiz-adv-x="807" 
d="M811 981v-137h-328v-844h-153v844h-333v137h814z" />
    <glyph glyph-name="glyph321" horiz-adv-x="1079" 
d="M615 1005c127.333 -20.667 225.833 -75.834 295.5 -165.501s104.5 -205.834 104.5 -348.501s-35 -259 -105 -349s-168.333 -145.333 -295 -166v-343h-150v343c-126.667 20.667 -225 76 -295 166s-105 206.333 -105 349s34.833 258.834 104.5 348.501
s168.167 144.834 295.5 165.501v360h150v-360zM615 865v-748.002c79.333 20.667 139.5 62.834 180.5 126.501s61.5 146.167 61.5 247.5c0 100.667 -20.667 182.834 -62 246.501s-101.333 106.167 -180 127.5zM465 116.998v748.002
c-78.667 -21.333 -138.667 -63.833 -180 -127.5s-62 -145.834 -62 -246.501c0 -101.333 20.5 -183.833 61.5 -247.5s101.167 -105.834 180.5 -126.501z" />
    <glyph glyph-name="glyph322" horiz-adv-x="2048" 
d="M123 3v1781h134v-1649h1668v-132h-1802z" />
    <glyph glyph-name="glyph323" horiz-adv-x="512" 
 />
    </font>
</defs>
</svg>
