<?xml version="1.0" standalone="no"?>
<!DOCTYPE svg PUBLIC "-//W3C//DTD SVG 1.1//EN" "http://www.w3.org/Graphics/SVG/1.1/DTD/svg11.dtd" >
<svg>
<metadata>
Created by FontForge 20090914 at Fri Apr 26 12:07:55 2013
 By www-data
URW Software, Copyright 1993 by URW
</metadata>
<defs>
<font id="FuturaTEE-LightCondensed" horiz-adv-x="1024" >
  <font-face 
    font-family="FuturTEELigCon"
    font-weight="300"
    font-stretch="extra-condensed"
    units-per-em="2048"
    panose-1="0 0 0 0 0 0 0 0 0 0"
    ascent="1638"
    descent="-410"
    x-height="928"
    cap-height="1365"
    bbox="-218 -512 1925 1859"
    underline-thickness="115"
    underline-position="-143"
    unicode-range="U+0020-U+00FF"
  />
<missing-glyph horiz-adv-x="382" 
d="M38 0v1365h306v-1365h-306zM306 38v1289h-230v-1289h230z" />
    <glyph glyph-name=".notdef" horiz-adv-x="382" 
d="M38 0v1365h306v-1365h-306zM306 38v1289h-230v-1289h230z" />
    <glyph glyph-name="space" unicode=" " horiz-adv-x="382" 
 />
    <glyph glyph-name="space" unicode="&#xa0;" horiz-adv-x="382" 
 />
    <glyph glyph-name="exclam" unicode="!" horiz-adv-x="485" 
d="M303 341h-123v1024h123v-1024zM242 170c25.333 0 47 -9 65 -27s27 -39.667 27 -65s-9 -47 -27 -65s-39.667 -27 -65 -27s-47 9 -65 27s-27 39.667 -27 65s9 47 27 65s39.667 27 65 27z" />
    <glyph glyph-name="quotedbl" unicode="&#x22;" horiz-adv-x="642" 
d="M233 823h-97l-27 542h152zM506 823h-97l-27 542h152z" />
    <glyph glyph-name="numbersign" unicode="#" horiz-adv-x="751" 
d="M694 565v-115h-168l-59 -450h-111l60 450h-141l-60 -450h-109l60 450h-157v115h172l34 262h-154v115h170l56 423h108l-55 -423h141l56 423h110l-56 -423h151v-115h-166l-34 -262h152zM465 827h-141l-34 -262h142z" />
    <glyph glyph-name="dollar" unicode="$" horiz-adv-x="749" 
d="M627 1261l-63 -96c-66.667 41.333 -126.667 62 -180 62c-60 0 -108.5 -19.333 -145.5 -58s-55.5 -89.667 -55.5 -153c0 -64.667 16.333 -117.334 49 -158.001s97.334 -89 194.001 -145c96.667 -56.667 164 -111.5 202 -164.5s57 -120.167 57 -201.5
c0 -94 -24.833 -173.833 -74.5 -239.5s-115.5 -105.5 -197.5 -119.5v-174h-100v170c-54 9.33301 -96.333 21.833 -127 37.5s-64.667 42.167 -102 79.5l74 87c74 -60 139.333 -90 196 -90c61.333 0 112 22.333 152 67s60 101.334 60 170.001c0 60 -15.5 109.667 -46.5 149
s-89.833 84 -176.5 134c-104.667 60 -177.334 118.667 -218.001 176s-61 129 -61 215c0 177.333 83 287 249 329v158h100v-155c72 -5.33301 143.333 -32 214 -80z" />
    <glyph glyph-name="percent" unicode="%" horiz-adv-x="1029" 
d="M259 1375c54 0 93.333 -27 118 -81s37 -140.333 37 -259c0 -241.333 -56.333 -362 -169 -362c-108.667 0 -163 112.333 -163 337c0 243.333 59 365 177 365zM256 1305c-30 0 -53.833 -26.166 -71.5 -78.499s-26.5 -123.5 -26.5 -213.5
c0 -177.333 30.333 -267.333 91 -270c59.333 -2.66699 89 101.666 89 312.999c0 166 -27.333 249 -82 249zM847 1365l-590 -1365h-75l593 1365h72zM793 692.001c54 0 93.333 -27 118 -81s37 -140.333 37 -259c0 -241.333 -56.333 -362 -169 -362
c-108.667 0 -163 112.333 -163 337c0 243.333 59 365 177 365zM790 622.001c-30 0 -53.833 -26.167 -71.5 -78.5s-26.5 -123.166 -26.5 -212.499c0 -178 30.333 -268.333 91 -271c59.333 -2.66699 89 101.666 89 312.999c0 166 -27.333 249 -82 249z" />
    <glyph glyph-name="ampersand" unicode="&#x26;" horiz-adv-x="909" 
d="M790 392l85 -86.001c-32.667 -42.667 -73 -89.334 -121 -140.001l84 -166h-134l-41 75c-68 -62.667 -142.667 -94 -224 -94c-91.333 0 -169.166 35.667 -233.499 107s-96.5 157.333 -96.5 258c0 144.667 67.333 277.334 202 398.001l-13 24
c-75.333 135.333 -113 240 -113 314c0 77.333 25.667 142.5 77 195.5s114.333 79.5 189 79.5c73.333 0 133.5 -23.833 180.5 -71.5s70.5 -108.5 70.5 -182.5c0 -109.333 -74.667 -230.666 -224 -363.999l-17 -15l235 -445c19.333 20 45.666 51.333 78.999 94zM402 821.999
c118.667 94.667 177.999 189.666 177.999 284.999c0 38.667 -12.333 71.5 -37 98.5s-55 40.5 -91 40.5c-43.333 0 -79.166 -14.667 -107.499 -44s-42.5 -66.666 -42.5 -111.999c0 -54.667 28.333 -134.667 85 -240zM366.999 634.998c-94 -100.667 -141 -194.667 -141 -282
c0 -69.333 20.167 -128 60.5 -176s89.5 -72 147.5 -72c55.333 0 112.333 26.667 171 80z" />
    <glyph glyph-name="quotesingle" unicode="'" horiz-adv-x="369" 
d="M233 823h-97l-27 542h152z" />
    <glyph glyph-name="parenleft" unicode="(" horiz-adv-x="533" 
d="M451 1462l-13 -28c-142 -290 -213 -578.333 -213 -865c0 -286 71 -574 213 -864l13 -28l-100 -48c-74.667 133.333 -133.667 284.333 -177 453s-65 331 -65 487s21.667 318.5 65 487.5s102.333 320.167 177 453.5z" />
    <glyph glyph-name="parenright" unicode=")" horiz-adv-x="533" 
d="M82 -323l14 28c141.333 290 212 578 212 864c0 286.667 -70.667 575 -212 865l-14 28l100 48c74.667 -133.333 133.667 -284.5 177 -453.5s65 -331.5 65 -487.5s-21.667 -318.333 -65 -487s-102.333 -319.667 -177 -453z" />
    <glyph glyph-name="asterisk" unicode="*" horiz-adv-x="751" 
d="M339 1249v245h72v-245l233 76l22 -70l-232 -75l143 -199l-59 -42l-143 198l-143 -198l-59 42l144 199l-233 75l22 70z" />
    <glyph glyph-name="plus" unicode="+" horiz-adv-x="751" 
d="M68 641v113h250v247h116v-247h248v-113h-248v-249h-116v249h-250z" />
    <glyph glyph-name="comma" unicode="," horiz-adv-x="362" 
d="M281 112l-181 -403l-88 41l141 421z" />
    <glyph glyph-name="hyphen" unicode="-" horiz-adv-x="283" 
d="M0 414v143h283v-143h-283z" />
    <glyph glyph-name="period" unicode="." horiz-adv-x="362" 
d="M181 170c25.333 0 47 -9 65 -27s27 -39.667 27 -65s-9 -47 -27 -65s-39.667 -27 -65 -27s-47 9 -65 27s-27 39.667 -27 65s9 47 27 65s39.667 27 65 27z" />
    <glyph glyph-name="slash" unicode="/" horiz-adv-x="836" 
d="M891 1494l-799 -1849h-119l801 1849h117z" />
    <glyph glyph-name="zero" unicode="0" horiz-adv-x="749" 
d="M397 1384c97.333 0 169.166 -53.1689 215.499 -159.502s69.5 -271.833 69.5 -496.5c0 -253.333 -25.667 -441.166 -77 -563.499s-130.333 -183.5 -237 -183.5c-97.333 0 -171.833 57.833 -223.5 173.5s-77.5 281.834 -77.5 498.501c0 236 28.333 416.833 85 542.5
s138.334 188.5 245.001 188.5zM390 1268c-62 0 -110.833 -54 -146.5 -162s-53.5 -256.333 -53.5 -445c0 -180.667 16.5 -319.667 49.5 -417s80.5 -146 142.5 -146c46.667 0 82.667 27 108 81c20 41.333 36.667 116.833 50 226.5s20 224.167 20 343.5
c0 346 -56.667 519 -170 519z" />
    <glyph glyph-name="one" unicode="1" horiz-adv-x="749" 
d="M458 1365v-1365h-127v1246h-176l27 119h276z" />
    <glyph glyph-name="two" unicode="2" horiz-adv-x="748" 
d="M635 120v-120.001h-559l280 578c66.667 137.333 111.167 239.5 133.5 306.5s33.5 131.833 33.5 194.5c0 126 -48.667 189 -146 189c-104.667 0 -157 -81.333 -157 -244v-31h-124c0 81.333 6.66699 146.333 20 195c16.667 61.333 47.5 109.333 92.5 144
s99.167 52 162.5 52c87.333 0 155.833 -27.667 205.5 -83s74.5 -132 74.5 -230c0 -72.667 -12 -144.667 -36 -216s-72 -178.666 -144 -321.999l-208 -413h372z" />
    <glyph glyph-name="three" unicode="3" horiz-adv-x="749" 
d="M221 1046l-118.001 0.00195312c0 106.667 22.667 189.667 68 249s108.333 89 189 89c88.667 0 156.834 -27 204.501 -81s71.5 -130.667 71.5 -230c0 -162.667 -52 -268.667 -156 -318c115.333 -48.667 173 -173.334 173 -374.001c0 -266.667 -96 -400 -288 -400
c-186 0 -279 115.667 -279 347l1 46h126c0 -98.667 11.833 -168.334 35.5 -209.001s64.167 -61 121.5 -61c106.667 0 160 95.667 160 287c0 200.667 -76.333 301 -229 301h-60v113h53c78 0 134 19.167 168 57.5s51 101.5 51 189.5c0 139.333 -48.667 209 -146 209
c-52 0 -89.333 -16.833 -112 -50.5s-34 -88.5 -34 -164.5z" />
    <glyph glyph-name="four" unicode="4" horiz-adv-x="749" 
d="M560 1365v-882h102v-116h-102v-367h-126v367h-359v129l359 869h126zM434 483v429c0 43.333 2.33301 96.333 7 159l4 52l4 41c-17.333 -66 -36.333 -126 -57 -180l-22 -54l-175 -447h239z" />
    <glyph glyph-name="five" unicode="5" horiz-adv-x="749" 
d="M611 1365v-119h-294l-50 -418c29.333 4.66699 54 7 74 7c94.667 0 170 -39.5 226 -118.5s84 -185.167 84 -318.5c0 -124 -29.333 -224.5 -88 -301.5s-135.334 -115.5 -230.001 -115.5c-87.333 0 -165.666 26 -234.999 78l35 126c72 -53.333 137.667 -80 197 -80
c56.667 0 103 27.333 139 82s54 125 54 211c0 209.333 -74 314 -222 314c-54.667 0 -115 -18.667 -181 -56l84 709h407z" />
    <glyph glyph-name="six" unicode="6" horiz-adv-x="749" 
d="M540 1365l-267 -639c46.667 32 90 48 130 48c80.667 0 143 -35.333 187 -106s66 -170 66 -298c0 -259.333 -92.667 -389 -278 -389c-90 0 -160 34.833 -210 104.5s-75 167.167 -75 292.5c0 151.333 36.667 315.333 110 492l205 495h132zM374 665
c-105.333 0 -158 -97 -158 -291c0 -88.667 15 -158 45 -208s71.333 -75 124 -75c98.667 0 148 98.667 148 296c0 185.333 -53 278 -159 278z" />
    <glyph glyph-name="seven" unicode="7" horiz-adv-x="749" 
d="M113 1365h561l-420 -1365h-133l385 1246h-393v119z" />
    <glyph glyph-name="eight" unicode="8" horiz-adv-x="749" 
d="M506 755c104 -57.333 156 -179.335 156 -366.002c0 -131.333 -25.167 -232.166 -75.5 -302.499s-122.5 -105.5 -216.5 -105.5c-90 0 -159.667 34.333 -209 103s-74 165.334 -74 290.001c0 209.333 57.667 336.333 173 381c-95.333 60 -143 158.333 -143 295
c0 102.667 24.5 184 73.5 244s115.5 90 199.5 90c80.667 0 144.167 -29.167 190.5 -87.5s69.5 -137.833 69.5 -238.5c0 -146 -48 -247 -144 -303zM381 1268c-94 0 -141 -70 -141 -210c0 -162.667 48.333 -244 145 -244c94.667 0 142 75.667 142 227s-48.667 227 -146 227z
M377 697.998c-111.333 0 -167 -103 -167 -309c0 -194 54.333 -291 163 -291c111.333 0 167 103.333 167 310c0 91.333 -14.333 162.5 -43 213.5s-68.667 76.5 -120 76.5z" />
    <glyph glyph-name="nine" unicode="9" horiz-adv-x="749" 
d="M209 0l267 639c-47.333 -32 -91 -48 -131 -48c-80 0 -142 35.333 -186 106s-66 170 -66 298c0 259.333 92.667 389 278 389c90 0 160 -34.833 210 -104.5s75 -167.167 75 -292.5c0 -150.667 -36.667 -314.667 -110 -492l-205 -495h-132zM364 1275
c-98.667 0 -148 -98.667 -148 -296c0 -186 53 -279 159 -279c105.333 0 158 97.333 158 292c0 88.667 -15 158 -45 208s-71.333 75 -124 75z" />
    <glyph glyph-name="colon" unicode=":" horiz-adv-x="362" 
d="M181 941c25.333 0 47 -9 65 -27s27 -39.667 27 -65s-9 -47 -27 -65s-39.667 -27 -65 -27s-47 9 -65 27s-27 39.667 -27 65s9 47 27 65s39.667 27 65 27zM181 170c25.333 0 47 -9 65 -27s27 -39.667 27 -65s-9 -47 -27 -65s-39.667 -27 -65 -27s-47 9 -65 27
s-27 39.667 -27 65s9 47 27 65s39.667 27 65 27z" />
    <glyph glyph-name="semicolon" unicode=";" horiz-adv-x="362" 
d="M187 941c25.333 0 47 -9 65 -27s27 -39.667 27 -65s-9 -47 -27 -65s-39.667 -27 -65 -27s-47 9 -65 27s-27 39.667 -27 65s9 47 27 65s39.667 27 65 27zM281 112l-181 -403l-88 41l141 421z" />
    <glyph glyph-name="less" unicode="&#x3c;" 
d="M955 1149v-123l-754 -338l754 -339v-122l-887 407v108z" />
    <glyph glyph-name="equal" unicode="=" horiz-adv-x="749" 
d="M67 750v113h614v-113h-614zM67 531v113h614v-113h-614z" />
    <glyph glyph-name="greater" unicode="&#x3e;" 
d="M69 226v123l754 339l-754 338v123l887 -407v-109z" />
    <glyph glyph-name="question" unicode="?" horiz-adv-x="680" 
d="M213 341v440.001h87c59.333 0 98.666 17.667 117.999 53s29 107.666 29 216.999c0 84 -7.66699 142 -23 174s-42.666 48 -81.999 48c-74 0 -111 -56 -111 -168v-85h-122v96c0 178.667 78.667 268 236 268c81.333 0 139.333 -24.167 174 -72.5s52 -128.5 52 -240.5
c0 -148 -17.5 -251.667 -52.5 -311s-96.167 -89 -183.5 -89v-330h-122zM279 170.001c25.333 0 47 -9 65 -27s27 -39.667 27 -65s-9 -47 -27 -65s-39.667 -27 -65 -27s-47 9 -65 27s-27 39.667 -27 65s9 47 27 65s39.667 27 65 27z" />
    <glyph glyph-name="at" unicode="@" horiz-adv-x="1354" 
d="M957 1031l-54.002 -455.001c-4 -33.333 -6 -67 -6 -101c0 -50 22 -75 66 -75c52 0 97.667 37.833 137 113.5s59 164.167 59 265.5c0 144 -45 262.5 -135 355.5s-204.333 139.5 -343 139.5c-139.333 0 -257 -57.333 -353 -172s-144 -255 -144 -421
c0 -110.667 23.667 -212.667 71 -306s112.333 -165.666 195 -216.999c75.333 -46.667 168.333 -70 279 -70c116.667 0 233.667 36 351 108l48 -103c-128.667 -74.667 -261.667 -112 -399 -112c-162.667 0 -299.667 44.667 -411 134
c-79.333 63.333 -141.5 145.5 -186.5 246.5s-67.5 207.833 -67.5 320.5c0 198 59.833 364.5 179.5 499.5s267.167 202.5 442.5 202.5c164.667 0 301.834 -57.667 411.501 -173s164.5 -259.666 164.5 -432.999c0 -129.333 -31.667 -241.833 -95 -337.5
s-137.333 -143.5 -222 -143.5c-31.333 0 -59.833 10.667 -85.5 32s-41.5 47.666 -47.5 78.999l-6 28l-13 -21c-50.667 -81.333 -107.667 -122 -171 -122c-67.333 0 -123.166 34.167 -167.499 102.5s-66.5 154.5 -66.5 258.5c0 111.333 27 204.833 81 280.5
s121 113.5 201 113.5c64 0 115 -37.333 153 -112l13 -26l14 121h107zM679.998 940.999c-48 0 -88.499 -27.833 -121.499 -83.5s-49.5 -124.5 -49.5 -206.5c0 -74 11.167 -134.333 33.5 -181s51.5 -70 87.5 -70c48 0 90.333 31.167 127 93.5s55 134.833 55 217.5
c0 67.333 -12.333 122.5 -37 165.5s-56.334 64.5 -95.001 64.5z" />
    <glyph glyph-name="A" unicode="A" horiz-adv-x="666" 
d="M391 1365l273 -1365h-135l-52 281h-289l-50 -281h-135l269 1365h119zM457 390l-89.999 482c-20 105.333 -33 212.333 -39 321c-8.66699 -132 -20.334 -239 -35.001 -321l-85 -482h249z" />
    <glyph glyph-name="B" unicode="B" horiz-adv-x="720" 
d="M112 1365h200c106 0 180 -22.333 222 -67c55.333 -58 83 -148.667 83 -272c0 -89.333 -12.833 -158.666 -38.5 -207.999s-69.167 -88.333 -130.5 -117c74 -20.667 126 -55.667 156 -105s45 -125 45 -227c0 -134.667 -26.333 -229.834 -79 -285.501s-143 -83.5 -271 -83.5
h-187v1365zM239 1256v-494h69c67.333 0 114 18.5 140 55.5s39 103.833 39 200.5c0 89.333 -12 151.333 -36 186s-67.667 52 -131 52h-81zM239 649v-540h68c75.333 0 129.5 20 162.5 60s49.5 106 49.5 198c0 188 -68.667 282 -206 282h-74z" />
    <glyph glyph-name="C" unicode="C" horiz-adv-x="655" 
d="M618 1340l-0.000976562 -139c-61.333 40.667 -113.666 61 -156.999 61c-86.667 0 -150.667 -47.667 -192 -143s-62 -243.333 -62 -444c0 -190 20.167 -332.5 60.5 -427.5s101.166 -142.5 182.499 -142.5c50 0 106 20.667 168 62v-128c-58 -38.667 -116 -58 -174 -58
c-90 0 -166.333 35.667 -229 107c-92 104.667 -138 289 -138 553c0 496 125.667 744 377 744c64.667 0 119.334 -15 164.001 -45z" />
    <glyph glyph-name="D" unicode="D" horiz-adv-x="759" 
d="M112 1365h159.998c158.667 0 266.5 -47.167 323.5 -141.5s85.5 -273.5 85.5 -537.5c0 -176 -10.167 -308.833 -30.5 -398.5s-56.166 -158.5 -107.499 -206.5c-57.333 -54 -144.666 -81 -261.999 -81h-169v1365zM238.998 1249v-1133h60c94 0 159.667 36.667 197 110
s56 202.333 56 387c0 182 -8.66699 318.833 -26 410.5s-46 153.5 -86 185.5c-34 26.667 -82.667 40 -146 40h-55z" />
    <glyph glyph-name="E" unicode="E" horiz-adv-x="617" 
d="M539 1365v-116h-300v-482h292v-116h-292v-535h300v-116h-427v1365h427z" />
    <glyph glyph-name="F" unicode="F" horiz-adv-x="605" 
d="M548 1365v-116h-309v-482h292v-116h-292v-651h-127v1365h436z" />
    <glyph glyph-name="G" unicode="G" horiz-adv-x="766" 
d="M376 721l313 -0.00195312v-275c0 -134 -11.333 -229.667 -34 -287c-46.667 -118.667 -132.667 -178 -258 -178c-117.333 0 -199.833 54.833 -247.5 164.5s-71.5 300.5 -71.5 572.5c0 232.667 26 401.834 78 507.501s135.333 158.5 250 158.5
c74.667 0 134.167 -20.333 178.5 -61s78.5 -106 102.5 -196l-125 -49c-25.333 122 -75 183 -149 183c-72.667 0 -125 -41.833 -157 -125.5s-48 -220.167 -48 -409.5c0 -231.333 14.667 -392.666 44 -483.999s80.666 -137 153.999 -137c62.667 0 104.334 24.833 125.001 74.5
s31 149.5 31 299.5v126h-186v116z" />
    <glyph glyph-name="H" unicode="H" horiz-adv-x="789" 
d="M677 1365v-1365h-127v705h-311v-705h-127v1365h127v-544h311v544h127z" />
    <glyph glyph-name="I" unicode="I" horiz-adv-x="351" 
d="M239 1365v-1365h-127v1365h127z" />
    <glyph glyph-name="J" unicode="J" horiz-adv-x="459" 
d="M347 1365v-1131c0 -94 -10 -155.333 -30 -184c-32.667 -46.667 -88.667 -70 -168 -70c-47.333 0 -96 12 -146 36v132c44 -38.667 86 -58 126 -58c60.667 0 91 41.333 91 124v45v1106h127z" />
    <glyph glyph-name="K" unicode="K" horiz-adv-x="674" 
d="M655 1365l-295 -649l297 -716h-144l-274 687v-687h-127v1365h127v-619l274 619h142z" />
    <glyph glyph-name="L" unicode="L" horiz-adv-x="538" 
d="M239 1365v-1249h296v-116h-423v1365h127z" />
    <glyph glyph-name="M" unicode="M" horiz-adv-x="1022" 
d="M812 1365l166.999 -1365h-125l-96 887c-7.33301 67.333 -11 138.666 -11 213.999l-1 33c-1.33301 -16.667 -2.33301 -26.667 -3 -30l-5 -54c-4.66699 -55.333 -11.667 -110 -21 -164l-152 -886h-104l-145 888c-1.33301 7.33301 -3.66602 24.666 -6.99902 51.999l-9 80
c0 2.66699 -1.66699 25.667 -5 69l-3 45l-2 -46l-1 -68c0 -40.667 -3 -84.334 -9 -131.001l-112 -889h-124l192 1365h109l147 -936c13.333 -84 22 -156.333 26 -217c6.66699 80 15 151 25 213l160 940h109z" />
    <glyph glyph-name="N" unicode="N" horiz-adv-x="792" 
d="M680 1365v-1365h-111l-302 901l-12 41l-19 62c-2 5.33301 -6.66699 22.333 -14 51l-11 38l4 -39c5.33301 -66 8 -133.667 8 -203v-851h-111v1365h111l310 -928c1.33301 -4 4.33301 -14.333 9 -31l20 -68l12 -42l6 -20c-7.33301 70 -11 136.333 -11 199v890h111z" />
    <glyph glyph-name="O" unicode="O" horiz-adv-x="827" 
d="M419 1384c220.667 0 331 -233.667 331 -701c0 -468 -110.333 -702 -331 -702c-227.333 0 -341 234 -341 702c0 467.333 113.667 701 341 701zM414 1261c-137.333 0 -206 -192.667 -206 -578s68.667 -578 206 -578c73.333 0 126 45 158 135s48 237.667 48 443
s-16 353 -48 443s-84.667 135 -158 135z" />
    <glyph glyph-name="P" unicode="P" horiz-adv-x="673" 
d="M239 0h-127v1365h164c126.667 0 216.167 -27.667 268.5 -83s78.5 -149.666 78.5 -282.999c0 -126.667 -24.833 -215.834 -74.5 -267.501s-135.167 -77.5 -256.5 -77.5h-53v-654zM239 1249v-479h84c62.667 0 106.667 17 132 51s38 93 38 177c0 94 -14 159.333 -42 196
s-77.667 55 -149 55h-63z" />
    <glyph glyph-name="Q" unicode="Q" horiz-adv-x="827" 
d="M650 118l99 -155l-99 -64l-82 127c-41.333 -30 -93.333 -45 -156 -45c-222.667 0 -334 234 -334 702c0 467.333 113.667 701 341 701c220.667 0 331 -233.667 331 -701c0 -272.667 -33.333 -461 -100 -565zM573 238c31.333 98.667 47 247 47 445
c0 205.333 -16 353 -48 443s-84.667 135 -158 135c-137.333 0 -206 -192.667 -206 -578s68.667 -578 206 -578c33.333 0 62 9 86 27l-121 188l100 65z" />
    <glyph glyph-name="R" unicode="R" horiz-adv-x="770" 
d="M260 669l-0.000976562 -669h-138v1365h171c126.667 0 216.334 -19.667 269.001 -59c75.333 -56.667 113 -156.667 113 -300c0 -220 -89.333 -336.667 -268 -350l316 -656h-145zM259.999 1249v-480h85c69.333 0 118.5 17.667 147.5 53s43.5 95 43.5 179
c0 93.333 -15 158 -45 194s-84 54 -162 54h-69z" />
    <glyph glyph-name="S" unicode="S" horiz-adv-x="710" 
d="M592 1311l0.000976562 -161.004c-66.667 74 -133.667 111 -201 111c-58.667 0 -106.5 -20.667 -143.5 -62s-55.5 -94.666 -55.5 -159.999c0 -56 13.333 -104.667 40 -146s72.667 -84 138 -128c116 -78 193.167 -144.167 231.5 -198.5s57.5 -124.166 57.5 -209.499
c0 -104.667 -33.333 -193.667 -100 -267s-147.667 -110 -243 -110c-79.333 0 -150.666 23.667 -213.999 71v164c71.333 -73.333 144.666 -110 219.999 -110c60 0 109.833 22.833 149.5 68.5s59.5 103.167 59.5 172.5c0 60.667 -14.167 110.667 -42.5 150
s-85.5 88.333 -171.5 147c-95.333 64.667 -161.333 124.334 -198 179.001s-55 121.334 -55 200.001c0 104.667 29.667 191.167 89 259.5s134.333 102.5 225 102.5c73.333 0 144.666 -24.333 213.999 -73z" />
    <glyph glyph-name="T" unicode="T" horiz-adv-x="542" 
d="M540 1365v-116h-205v-1249h-127v1249h-205v116h537z" />
    <glyph glyph-name="U" unicode="U" horiz-adv-x="799" 
d="M687 1365l0.000976562 -954.998c0 -148.667 -14.667 -248.667 -44 -300c-50 -86 -131 -129 -243 -129c-112.667 0 -194 43 -244 129c-29.333 51.333 -44 151.333 -44 300v955h127v-946c0 -84.667 2.33301 -143.334 7 -176.001s14.667 -59.334 30 -80.001
c27.333 -38.667 68.666 -58 123.999 -58c54.667 0 95.667 19.333 123 58c24.667 34 37 119.333 37 256v946h127z" />
    <glyph glyph-name="V" unicode="V" horiz-adv-x="668" 
d="M665 1365l-275.999 -1365h-111l-275 1365h130l172 -904c11.333 -59.333 20.666 -133.666 27.999 -222.999l4 -52c10.667 116.667 21.667 207 33 271l166 908h129z" />
    <glyph glyph-name="W" unicode="W" horiz-adv-x="1035" 
d="M1033 1365l-241.001 -1365h-116l-133 887c-10.667 70.667 -18 143.667 -22 219l-2 35c-2 -18 -3.33301 -29.333 -4 -34l-3 -44c-5.33301 -66 -13 -126.333 -23 -181l-152 -882h-116l-218 1365h130l124 -860c6 -43.333 11 -94 15 -152l5 -68c0 -4 1 -16 3 -36l5 35
c5.33301 44 8.33301 68 9 72l17 112l8 48l146 849h110l127 -863l4 -31c8 -50.667 13.667 -90 17 -118l7 -63c0.666992 -6.66699 2.33398 -20.334 5.00098 -41.001c5.33301 62.667 15 137.334 29 224.001l5 35l134 857h130z" />
    <glyph glyph-name="X" unicode="X" horiz-adv-x="652" 
d="M649 1365l-260 -671l260 -694h-135l-134 387l-14 41c-18 52.667 -31.333 103.667 -40 153c-8 -44.667 -22.333 -96 -43 -154l-15 -44l-129 -383h-136l265 694l-265 671h136l122 -337c31.333 -86 53 -166 65 -240c9.33301 54 25 113.333 47 178l19 54l122 345h135z" />
    <glyph glyph-name="Y" unicode="Y" horiz-adv-x="648" 
d="M645 1365l-250 -767v-598h-127v598l-265 767h136l129 -398c24.667 -75.333 45.667 -157 63 -245c12.667 74 32.667 157.333 60 250l118 393h136z" />
    <glyph glyph-name="Z" unicode="Z" horiz-adv-x="571" 
d="M554 1365l-381 -1249h344v-116h-501l379 1249h-342v116h501z" />
    <glyph glyph-name="bracketleft" unicode="[" horiz-adv-x="547" 
d="M150 -355v1849h329v-96h-209v-1657h209v-96h-329z" />
    <glyph glyph-name="backslash" unicode="\" horiz-adv-x="836" 
d="M-55 1494h117l801 -1849h-119z" />
    <glyph glyph-name="bracketright" unicode="]" horiz-adv-x="547" 
d="M397 1494v-1849h-329v96h209v1657h-209v96h329z" />
    <glyph glyph-name="asciicircum" unicode="^" 
d="M196 762h-135l370 606h162l370 -606h-137l-316 509z" />
    <glyph glyph-name="underscore" unicode="_" 
d="M0 -142h1024v-115h-1024v115z" />
    <glyph glyph-name="grave" unicode="`" 
d="M401 1335l184 -243l-73 -55l-214 213z" />
    <glyph glyph-name="a" unicode="a" horiz-adv-x="677" 
d="M575 928v-928h-118v73c-45.333 -58 -97.666 -87 -156.999 -87c-80.667 0 -137.667 37.667 -171 113s-50 204 -50 386c0 160.667 18.167 277 54.5 349s95.166 108 176.499 108c56 0 105 -25.667 147 -77v63h118zM337 846c-48 0 -82.667 -28.332 -104 -84.999
s-32 -149.667 -32 -279c0 -149.333 9.66699 -253.333 29 -312s53.333 -88 102 -88c52.667 0 88.667 28.167 108 84.5s29 160.166 29 311.499c0 134 -10 228.833 -30 284.5s-54 83.5 -102 83.5z" />
    <glyph glyph-name="b" unicode="b" horiz-adv-x="666" 
d="M102 1494h116.999v-629c40.667 51.333 90 77 148 77c81.333 0 140 -35.833 176 -107.5s54 -188.167 54 -349.5c0 -182 -16.667 -310.667 -50 -386s-90.333 -113 -171 -113c-59.333 0 -111.666 29 -156.999 87v-73h-117v1494zM338.999 847
c-48.667 0 -82.667 -27.333 -102 -82s-29 -150 -29 -286c0 -153.333 9.5 -257.833 28.5 -313.5s54.833 -83.5 107.5 -83.5c48.667 0 82.667 29.5 102 88.5s29 163.167 29 312.5c0 129.333 -10.667 222.333 -32 279s-56 85 -104 85z" />
    <glyph glyph-name="c" unicode="c" horiz-adv-x="508" 
d="M467 907v-136.999c-39.333 42 -76.666 63 -111.999 63c-52.667 0 -93.334 -32.333 -122.001 -97s-43 -156 -43 -274c0 -114 14.5 -203.667 43.5 -269s68.833 -98 119.5 -98c36 0 74 27.667 114 83v-145c-40.667 -31.333 -85 -47 -133 -47
c-82 0 -146.833 42.167 -194.5 126.5s-71.5 199.166 -71.5 344.499c0 151.333 24 270 72 356s114.333 129 199 129c46 0 88.667 -11.667 128 -35z" />
    <glyph glyph-name="d" unicode="d" horiz-adv-x="666" 
d="M564 1494v-1494h-117v73c-45.333 -58 -97.666 -87 -156.999 -87c-80.667 0 -137.667 37.667 -171 113s-50 204 -50 386c0 160.667 18.167 277 54.5 349s95.166 108 176.499 108c56 0 105 -25.667 147 -77v629h117zM327 846c-48 0 -82.666 -28.332 -103.999 -84.999
s-32 -149.667 -32 -279c0 -149.333 9.66699 -253.333 29 -312s53.666 -88 102.999 -88c52 0 87.5 27.667 106.5 83s28.5 159.666 28.5 312.999c0 136 -9.66699 231.333 -29 286s-53.333 82 -102 82z" />
    <glyph glyph-name="e" unicode="e" horiz-adv-x="649" 
d="M579 441l-392.001 -0.000976562c0 -230.667 48.667 -346 146 -346c72.667 0 113.334 73.333 122.001 220h118c0 -101.333 -21.5 -181.5 -64.5 -240.5s-101.167 -88.5 -174.5 -88.5c-177.333 0 -266 158.667 -266 476c0 150.667 23.167 268.334 69.5 353.001
s110.5 127 192.5 127c79.333 0 141 -39 185 -117s66 -187.333 66 -328zM463.999 538.999l-0.999023 27c0 80 -11.833 144.5 -35.5 193.5s-54.834 73.5 -93.501 73.5c-88 0 -136.333 -98 -145 -294h275z" />
    <glyph glyph-name="f" unicode="f" horiz-adv-x="421" 
d="M414 928v-109h-160v-819h-117v819h-105v109h105v342c0 158 56.333 237 169 237c38.667 0 74.667 -7 108 -21v-128c-33.333 26.667 -61.333 40 -84 40c-28.667 0 -48.5 -9.33301 -59.5 -28s-16.5 -51.667 -16.5 -99v-343h160z" />
    <glyph glyph-name="g" unicode="g" horiz-adv-x="685" 
d="M583 928l0.000976562 -984.001c0 -113.333 -15.667 -190.666 -47 -231.999c-40.667 -54 -105.334 -81 -194.001 -81c-160.667 0 -241 85.333 -241 256c0 6.66699 0.333008 19 1 37h117c0 -66 9.5 -113.167 28.5 -141.5s50.833 -42.5 95.5 -42.5
c46 0 77.833 13.167 95.5 39.5s26.5 73.5 26.5 141.5l1 71v73c-42.667 -43.333 -93 -65 -151 -65c-80.667 0 -140 38.167 -178 114.5s-57 195.833 -57 358.5c0 312.667 77.667 469 233 469c58.667 0 109.667 -26 153 -78v64h117zM334.001 845.999
c-46.667 0 -80.333 -30 -101 -90s-31 -158.333 -31 -295c0 -129.333 11.333 -222.5 34 -279.5s59.667 -85.5 111 -85.5c48.667 0 82.5 27.167 101.5 81.5s28.5 151.5 28.5 291.5s-10.5 237.833 -31.5 293.5s-58.167 83.5 -111.5 83.5z" />
    <glyph glyph-name="h" unicode="h" horiz-adv-x="684" 
d="M219 1494v-640c52 58.667 112 88 180 88c65.333 0 112 -19.833 140 -59.5s42 -105.5 42 -197.5v-685h-117v665c0 69.333 -7.5 116.833 -22.5 142.5s-42.833 38.5 -83.5 38.5c-92.667 0 -139 -73.667 -139 -221v-625h-117v1494h117z" />
    <glyph glyph-name="i" unicode="i" horiz-adv-x="322" 
d="M220 928v-928h-117v928h117zM162 1290c24 0 44.5 -8.5 61.5 -25.5s25.5 -37.833 25.5 -62.5c0 -24 -8.5 -44.5 -25.5 -61.5s-37.5 -25.5 -61.5 -25.5c-24.667 0 -45.5 8.5 -62.5 25.5s-25.5 37.5 -25.5 61.5c0 24.667 8.5 45.5 25.5 62.5s37.833 25.5 62.5 25.5z" />
    <glyph glyph-name="j" unicode="j" horiz-adv-x="329" 
d="M227 928v-1283h-117v1283h117zM169 1290c24 0 44.5 -8.5 61.5 -25.5s25.5 -37.833 25.5 -62.5c0 -24 -8.5 -44.5 -25.5 -61.5s-37.5 -25.5 -61.5 -25.5c-24.667 0 -45.5 8.5 -62.5 25.5s-25.5 37.5 -25.5 61.5c0 24.667 8.5 45.5 25.5 62.5s37.833 25.5 62.5 25.5z" />
    <glyph glyph-name="k" unicode="k" horiz-adv-x="643" 
d="M219 1494v-943l230 377h133l-266 -417l339 -511h-147l-289 445v-445h-117v1494h117z" />
    <glyph glyph-name="l" unicode="l" horiz-adv-x="322" 
d="M219 1494v-1494h-117v1494h117z" />
    <glyph glyph-name="m" unicode="m" horiz-adv-x="1053" 
d="M950 0l-117 -0.000976562v687c0 106 -35 159 -105 159c-53.333 0 -90.666 -18.833 -111.999 -56.5s-32 -103.167 -32 -196.5v-593h-117v684c0 108 -31.667 162 -95 162c-56.667 0 -96.334 -20.167 -119.001 -60.5s-34 -110.5 -34 -210.5v-575h-117v928h117v-78
c54.667 61.333 114.667 92 180 92c77.333 0 134.333 -36.333 171 -109c55.333 72.667 119.333 109 192 109c66.667 0 114.667 -19.667 144 -59s44 -103.666 44 -192.999v-690z" />
    <glyph glyph-name="n" unicode="n" horiz-adv-x="684" 
d="M219 928v-74c52 58.667 112 88 180 88c121.333 0 182 -85.667 182 -257v-685h-117v665c0 69.333 -7.5 116.833 -22.5 142.5s-42.833 38.5 -83.5 38.5c-92.667 0 -139 -73.667 -139 -221v-625h-117v928h117z" />
    <glyph glyph-name="o" unicode="o" horiz-adv-x="669" 
d="M341 942c172.667 0 259 -159.333 259 -478s-86.333 -478 -259 -478c-182 0 -273 159.333 -273 478s91 478 273 478zM339 833c-99.333 4.66699 -149 -118.333 -149 -369c0 -246 49.667 -369 149 -369c92.667 0 139 123 139 369c0 242 -46.333 365 -139 369z" />
    <glyph glyph-name="p" unicode="p" horiz-adv-x="666" 
d="M102 928h117v-63c42 51.333 91 77 147 77c81.333 0 140.166 -36 176.499 -108s54.5 -188.333 54.5 -349c0 -182 -16.667 -310.667 -50 -386s-90.333 -113 -171 -113c-59.333 0 -111.666 29 -156.999 87v-428h-117v1283zM339 846c-48.667 0 -82.667 -27.334 -102 -82.001
s-29 -150 -29 -286c0 -153.333 9.5 -257.666 28.5 -312.999s54.833 -83 107.5 -83c48.667 0 82.667 29.333 102 88s29 162.667 29 312c0 129.333 -10.667 222.333 -32 279s-56 85 -104 85z" />
    <glyph glyph-name="q" unicode="q" horiz-adv-x="677" 
d="M575 928v-1283h-117v428c-45.333 -58 -97.666 -87 -156.999 -87c-80.667 0 -137.667 37.667 -171 113s-50 204 -50 386c0 160.667 18.167 277 54.5 349s95.166 108 176.499 108c56 0 105 -25.667 147 -77v63h117zM338 846c-48 0 -82.666 -28.332 -103.999 -84.999
s-32 -149.667 -32 -279c0 -149.333 9.66699 -253.333 29 -312s53.666 -88 102.999 -88c52 0 87.5 27.667 106.5 83s28.5 159.666 28.5 312.999c0 136 -9.66699 231.333 -29 286s-53.333 82 -102 82z" />
    <glyph glyph-name="r" unicode="r" horiz-adv-x="404" 
d="M102 928l117.001 0.000976562v-122c38 87.333 90.333 132.666 157 135.999v-136c-10.667 0.666992 -18.667 1 -24 1c-26 0 -50.333 -9 -73 -27s-38.334 -41 -47.001 -69c-8.66699 -26 -13 -75.333 -13 -148v-563h-117v928z" />
    <glyph glyph-name="s" unicode="s" horiz-adv-x="513" 
d="M452 882l-0.000976562 -142.996c-52 62.667 -104.333 94 -157 94c-33.333 0 -61 -11.333 -83 -34s-33 -51.667 -33 -87c0 -32.667 9 -62.334 27 -89.001s52.333 -61 103 -103c66 -54 110.667 -99.667 134 -137s35 -81.333 35 -132c0 -77.333 -23.667 -140.833 -71 -190.5
s-107.666 -74.5 -180.999 -74.5c-56.667 0 -113 21 -169 63v137c59.333 -60.667 114.333 -91 165 -91c38.667 0 70.667 13.667 96 41s38 61.666 38 102.999c0 34.667 -8.5 64.667 -25.5 90s-53.167 62.666 -108.5 111.999c-110 96.667 -165 185.667 -165 267
c0 67.333 21.333 123.166 64 167.499s96 66.5 160 66.5c60 0 117 -20 171 -60z" />
    <glyph glyph-name="t" unicode="t" horiz-adv-x="411" 
d="M409 928v-109h-155v-819h-117v819h-98v109h98v254h117v-254h155z" />
    <glyph glyph-name="u" unicode="u" horiz-adv-x="688" 
d="M102 928l117 0.000976562v-605c0 -88.667 8.66699 -148.834 26 -180.501s50.333 -47.5 99 -47.5c48 0 80.667 16 98 48s26 92 26 180v605h117v-704c0 -72.667 -21.667 -130.5 -65 -173.5s-102 -64.5 -176 -64.5c-74.667 0 -133.667 21.5 -177 64.5s-65 100.833 -65 173.5
v704z" />
    <glyph glyph-name="v" unicode="v" horiz-adv-x="573" 
d="M559 928l-206.003 -927.999h-126l-213 928h121l123 -556c0.666992 -4.66699 2.33398 -13 5.00098 -25l15 -80c2.66699 -14.667 7.33398 -46 14.001 -94c6.66699 61.333 17.334 126.666 32.001 195.999l114 559h121z" />
    <glyph glyph-name="w" unicode="w" horiz-adv-x="912" 
d="M891 928l-203.997 -928.001h-121l-99 627l-4 28l-7 50c-2.66699 18 -5.66699 40.333 -9 67c-0.666992 -13.333 -1.33398 -22 -2.00098 -26l-5 -41l-6 -51c-1.33301 -6.66699 -3 -16 -5 -28l-102 -626h-120l-187 928h119l105 -563
c11.333 -59.333 19.666 -124.333 24.999 -195l6 44c2.66699 22.667 4.66699 38.334 6 47.001l12 76l3 22l95 569h118l91 -559l4 -25l10 -72l8 -67l5 -35l5 38c9.33301 67.333 17.666 120.333 24.999 159l114 561h120z" />
    <glyph glyph-name="x" unicode="x" horiz-adv-x="579" 
d="M566 928l-209.001 -454l209 -474h-131l-103 264l-13 30c-14 36 -24.333 71.667 -31 107c-8.66699 -44.667 -20 -84.667 -34 -120l-7 -18l-102 -263h-131l213 474l-191 454h129l84 -227c22.667 -60 38.334 -115.333 47.001 -166c12 54.667 26 102.667 42 144l11 28l86 221
h131z" />
    <glyph glyph-name="y" unicode="y" horiz-adv-x="601" 
d="M588 928l-319 -1264h-125l92 361l-222 903h120l117 -515c20 -90.667 34 -168.334 42 -233.001c3.33301 26 10 61 20 105l16 71l10 40l126 532h123z" />
    <glyph glyph-name="z" unicode="z" horiz-adv-x="563" 
d="M493 109v-109h-483l367 819h-317v109h494l-375 -819h314z" />
    <glyph glyph-name="braceleft" unicode="{" horiz-adv-x="563" 
d="M211 568c46.667 -25.333 79.168 -55.833 97.501 -91.5s27.5 -85.834 27.5 -150.501v-371c0 -88 9 -145.167 27 -171.5s57.667 -39.5 119 -39.5h17v-101c-14 -0.666992 -24.667 -1 -32 -1c-86.667 0 -149.334 23.667 -188.001 71s-58 124.333 -58 231v377
c0 58.667 -8.83301 102.334 -26.5 131.001s-47.834 49 -90.501 61v120c42 11.333 72 31 90 59s27 69 27 123v400c0 96.667 19.833 167.667 59.5 213s101.834 68 186.501 68l32 -1v-101h-17l-31 -1c-42.667 0 -72.5 -15 -89.5 -45s-25.5 -83 -25.5 -159v-383
c0 -66 -8.83301 -115.833 -26.5 -149.5s-50.5 -63.167 -98.5 -88.5z" />
    <glyph glyph-name="bar" unicode="|" 
d="M451 1365h123v-1706h-123v1706z" />
    <glyph glyph-name="braceright" unicode="}" horiz-adv-x="563" 
d="M350 570c-46.667 26 -79.168 56.665 -97.501 91.998s-27.5 85.333 -27.5 150v371c0 80 -8.16699 135.167 -24.5 165.5s-46.166 45.5 -89.499 45.5h-31h-17v101l32 1c86 0 148.333 -23.667 187 -71s58 -124.333 58 -231v-377c0 -58.667 8.83301 -102.334 26.5 -131.001
s48.167 -48.667 91.5 -60v-121c-42 -10.667 -72.167 -30.167 -90.5 -58.5s-27.5 -69.166 -27.5 -122.499v-401c0 -187.333 -81.667 -281 -245 -281c-8 0 -18.667 0.333008 -32 1v101h17c60 0 99.167 13.167 117.5 39.5s27.5 81.5 27.5 165.5v383
c0 66.667 8.83301 116.834 26.5 150.501s50.5 62.834 98.5 87.501z" />
    <glyph glyph-name="asciitilde" unicode="~" horiz-adv-x="1365" 
d="M269 1201l-76.998 50c43.333 84 85.5 142.667 126.5 176s91.5 50 151.5 50c50 0 126.333 -24.333 229 -73c95.333 -45.333 163.666 -68 204.999 -68c70 0 133.667 48.333 191 145l79 -47c-74.667 -147.333 -168.334 -221 -281.001 -221c-49.333 0 -106 14.667 -170 44
l-120 55c-60.667 28 -109 42 -145 42c-68.667 0 -131.667 -51 -189 -153z" />
    <glyph glyph-name="quotesinglbase" horiz-adv-x="419" 
d="M337 112l-181 -403l-88 41l141 421z" />
    <glyph glyph-name="quotesinglbase" unicode="&#x201a;" horiz-adv-x="419" 
d="M337 112l-181 -403l-88 41l141 421z" />
    <glyph glyph-name="quotedblbase" horiz-adv-x="661" 
d="M337 112l-181 -403l-88 41l141 421zM578 112l-181 -403l-87 41l141 421z" />
    <glyph glyph-name="quotedblbase" unicode="&#x201e;" horiz-adv-x="661" 
d="M337 112l-181 -403l-88 41l141 421zM578 112l-181 -403l-87 41l141 421z" />
    <glyph glyph-name="ellipsis" unicode="&#x85;" horiz-adv-x="1004" 
d="M167 170c25.333 0 47 -9 65 -27s27 -39.667 27 -65s-9 -47 -27 -65s-39.667 -27 -65 -27s-47 9 -65 27s-27 39.667 -27 65s9 47 27 65s39.667 27 65 27zM502 170c25.333 0 47 -9 65 -27s27 -39.667 27 -65s-9 -47 -27 -65s-39.667 -27 -65 -27s-47 9 -65 27
s-27 39.667 -27 65s9 47 27 65s39.667 27 65 27zM836 170c25.333 0 47 -9 65 -27s27 -39.667 27 -65s-9 -47 -27 -65s-39.667 -27 -65 -27s-47 9 -65 27s-27 39.667 -27 65s9 47 27 65s39.667 27 65 27z" />
    <glyph glyph-name="ellipsis" unicode="&#x2026;" horiz-adv-x="1004" 
d="M167 170c25.333 0 47 -9 65 -27s27 -39.667 27 -65s-9 -47 -27 -65s-39.667 -27 -65 -27s-47 9 -65 27s-27 39.667 -27 65s9 47 27 65s39.667 27 65 27zM502 170c25.333 0 47 -9 65 -27s27 -39.667 27 -65s-9 -47 -27 -65s-39.667 -27 -65 -27s-47 9 -65 27
s-27 39.667 -27 65s9 47 27 65s39.667 27 65 27zM836 170c25.333 0 47 -9 65 -27s27 -39.667 27 -65s-9 -47 -27 -65s-39.667 -27 -65 -27s-47 9 -65 27s-27 39.667 -27 65s9 47 27 65s39.667 27 65 27z" />
    <glyph glyph-name="dagger" horiz-adv-x="751" 
d="M321 -355v1392h-191v96h191v361h109v-361h192v-96h-192v-1392h-109z" />
    <glyph glyph-name="dagger" unicode="&#x2020;" horiz-adv-x="751" 
d="M321 -355v1392h-191v96h191v361h109v-361h192v-96h-192v-1392h-109z" />
    <glyph glyph-name="daggerdbl" horiz-adv-x="751" 
d="M321 1017h-191v96h191v381h109v-381h192v-96h-192v-503h192v-96h-192v-773h-109v773h-191v96h191v503z" />
    <glyph glyph-name="daggerdbl" unicode="&#x2021;" horiz-adv-x="751" 
d="M321 1017h-191v96h191v381h109v-381h192v-96h-192v-503h192v-96h-192v-773h-109v773h-191v96h191v503z" />
    <glyph glyph-name="perthousand" horiz-adv-x="1480" 
d="M259 1375c54 0 93.333 -27 118 -81s37 -140.333 37 -259c0 -241.333 -56.333 -362 -169 -362c-108.667 0 -163 112.333 -163 337c0 243.333 59 365 177 365zM256 1305c-30 0 -53.833 -26.166 -71.5 -78.499s-26.5 -123.5 -26.5 -213.5
c0 -177.333 30.333 -267.333 91 -270c59.333 -2.66699 89 101.666 89 312.999c0 166 -27.333 249 -82 249zM847 1365l-590 -1365h-75l593 1365h72zM793 692.001c54 0 93.333 -27 118 -81s37 -140.333 37 -259c0 -241.333 -56.333 -362 -169 -362
c-108.667 0 -163 112.333 -163 337c0 243.333 59 365 177 365zM790 622.001c-30 0 -53.833 -26.167 -71.5 -78.5s-26.5 -123.166 -26.5 -212.499c0 -178 30.333 -268.333 91 -271c59.333 -2.66699 89 101.666 89 312.999c0 166 -27.333 249 -82 249zM1243 692.001
c54 0 93.333 -27 118 -81s37 -140.333 37 -259c0 -241.333 -56.333 -362 -169 -362c-108.667 0 -163 112.333 -163 337c0 243.333 59 365 177 365zM1240 622.001c-30 0 -53.833 -26.167 -71.5 -78.5s-26.5 -123.166 -26.5 -212.499c0 -178 30.333 -268.333 91 -271
c59.333 -2.66699 89 101.666 89 312.999c0 166 -27.333 249 -82 249z" />
    <glyph glyph-name="perthousand" unicode="&#x2030;" horiz-adv-x="1480" 
d="M259 1375c54 0 93.333 -27 118 -81s37 -140.333 37 -259c0 -241.333 -56.333 -362 -169 -362c-108.667 0 -163 112.333 -163 337c0 243.333 59 365 177 365zM256 1305c-30 0 -53.833 -26.166 -71.5 -78.499s-26.5 -123.5 -26.5 -213.5
c0 -177.333 30.333 -267.333 91 -270c59.333 -2.66699 89 101.666 89 312.999c0 166 -27.333 249 -82 249zM847 1365l-590 -1365h-75l593 1365h72zM793 692.001c54 0 93.333 -27 118 -81s37 -140.333 37 -259c0 -241.333 -56.333 -362 -169 -362
c-108.667 0 -163 112.333 -163 337c0 243.333 59 365 177 365zM790 622.001c-30 0 -53.833 -26.167 -71.5 -78.5s-26.5 -123.166 -26.5 -212.499c0 -178 30.333 -268.333 91 -271c59.333 -2.66699 89 101.666 89 312.999c0 166 -27.333 249 -82 249zM1243 692.001
c54 0 93.333 -27 118 -81s37 -140.333 37 -259c0 -241.333 -56.333 -362 -169 -362c-108.667 0 -163 112.333 -163 337c0 243.333 59 365 177 365zM1240 622.001c-30 0 -53.833 -26.167 -71.5 -78.5s-26.5 -123.166 -26.5 -212.499c0 -178 30.333 -268.333 91 -271
c59.333 -2.66699 89 101.666 89 312.999c0 166 -27.333 249 -82 249z" />
    <glyph glyph-name="Scaron" horiz-adv-x="710" 
d="M592 1311l0.000976562 -161.004c-66.667 74 -133.667 111 -201 111c-58.667 0 -106.5 -20.667 -143.5 -62s-55.5 -94.666 -55.5 -159.999c0 -56 13.333 -104.667 40 -146s72.667 -84 138 -128c116 -78 193.167 -144.167 231.5 -198.5s57.5 -124.166 57.5 -209.499
c0 -104.667 -33.333 -193.667 -100 -267s-147.667 -110 -243 -110c-79.333 0 -150.666 23.667 -213.999 71v164c71.333 -73.333 144.666 -110 219.999 -110c60 0 109.833 22.833 149.5 68.5s59.5 103.167 59.5 172.5c0 60.667 -14.167 110.667 -42.5 150
s-85.5 88.333 -171.5 147c-95.333 64.667 -161.333 124.334 -198 179.001s-55 121.334 -55 200.001c0 104.667 29.667 191.167 89 259.5s134.333 102.5 225 102.5c73.333 0 144.666 -24.333 213.999 -73zM367.001 1461l-228 219l76 79l152 -142l151 142l83 -79z" />
    <glyph glyph-name="Scaron" unicode="&#x160;" horiz-adv-x="710" 
d="M592 1311l0.000976562 -161.004c-66.667 74 -133.667 111 -201 111c-58.667 0 -106.5 -20.667 -143.5 -62s-55.5 -94.666 -55.5 -159.999c0 -56 13.333 -104.667 40 -146s72.667 -84 138 -128c116 -78 193.167 -144.167 231.5 -198.5s57.5 -124.166 57.5 -209.499
c0 -104.667 -33.333 -193.667 -100 -267s-147.667 -110 -243 -110c-79.333 0 -150.666 23.667 -213.999 71v164c71.333 -73.333 144.666 -110 219.999 -110c60 0 109.833 22.833 149.5 68.5s59.5 103.167 59.5 172.5c0 60.667 -14.167 110.667 -42.5 150
s-85.5 88.333 -171.5 147c-95.333 64.667 -161.333 124.334 -198 179.001s-55 121.334 -55 200.001c0 104.667 29.667 191.167 89 259.5s134.333 102.5 225 102.5c73.333 0 144.666 -24.333 213.999 -73zM367.001 1461l-228 219l76 79l152 -142l151 142l83 -79z" />
    <glyph glyph-name="guilsinglleft" horiz-adv-x="437" 
d="M369 827l-195 -342l195 -351l-79 -46l-222 397l222 386z" />
    <glyph glyph-name="guilsinglleft" unicode="&#x2039;" horiz-adv-x="437" 
d="M369 827l-195 -342l195 -351l-79 -46l-222 397l222 386z" />
    <glyph glyph-name="uni008C" horiz-adv-x="710" 
d="M592 1311l0.000976562 -161.004c-66.667 74 -133.667 111 -201 111c-58.667 0 -106.5 -20.667 -143.5 -62s-55.5 -94.666 -55.5 -159.999c0 -56 13.333 -104.667 40 -146s72.667 -84 138 -128c116 -78 193.167 -144.167 231.5 -198.5s57.5 -124.166 57.5 -209.499
c0 -104.667 -33.333 -193.667 -100 -267s-147.667 -110 -243 -110c-79.333 0 -150.666 23.667 -213.999 71v164c71.333 -73.333 144.666 -110 219.999 -110c60 0 109.833 22.833 149.5 68.5s59.5 103.167 59.5 172.5c0 60.667 -14.167 110.667 -42.5 150
s-85.5 88.333 -171.5 147c-95.333 64.667 -161.333 124.334 -198 179.001s-55 121.334 -55 200.001c0 104.667 29.667 191.167 89 259.5s134.333 102.5 225 102.5c73.333 0 144.666 -24.333 213.999 -73zM464.001 1758l103 -85l-214 -212l-73 54z" />
    <glyph glyph-name="uni008C" unicode="&#x15a;" horiz-adv-x="710" 
d="M592 1311l0.000976562 -161.004c-66.667 74 -133.667 111 -201 111c-58.667 0 -106.5 -20.667 -143.5 -62s-55.5 -94.666 -55.5 -159.999c0 -56 13.333 -104.667 40 -146s72.667 -84 138 -128c116 -78 193.167 -144.167 231.5 -198.5s57.5 -124.166 57.5 -209.499
c0 -104.667 -33.333 -193.667 -100 -267s-147.667 -110 -243 -110c-79.333 0 -150.666 23.667 -213.999 71v164c71.333 -73.333 144.666 -110 219.999 -110c60 0 109.833 22.833 149.5 68.5s59.5 103.167 59.5 172.5c0 60.667 -14.167 110.667 -42.5 150
s-85.5 88.333 -171.5 147c-95.333 64.667 -161.333 124.334 -198 179.001s-55 121.334 -55 200.001c0 104.667 29.667 191.167 89 259.5s134.333 102.5 225 102.5c73.333 0 144.666 -24.333 213.999 -73zM464.001 1758l103 -85l-214 -212l-73 54z" />
    <glyph glyph-name="uni008C" unicode="&#x152;" horiz-adv-x="710" 
d="M592 1311l0.000976562 -161.004c-66.667 74 -133.667 111 -201 111c-58.667 0 -106.5 -20.667 -143.5 -62s-55.5 -94.666 -55.5 -159.999c0 -56 13.333 -104.667 40 -146s72.667 -84 138 -128c116 -78 193.167 -144.167 231.5 -198.5s57.5 -124.166 57.5 -209.499
c0 -104.667 -33.333 -193.667 -100 -267s-147.667 -110 -243 -110c-79.333 0 -150.666 23.667 -213.999 71v164c71.333 -73.333 144.666 -110 219.999 -110c60 0 109.833 22.833 149.5 68.5s59.5 103.167 59.5 172.5c0 60.667 -14.167 110.667 -42.5 150
s-85.5 88.333 -171.5 147c-95.333 64.667 -161.333 124.334 -198 179.001s-55 121.334 -55 200.001c0 104.667 29.667 191.167 89 259.5s134.333 102.5 225 102.5c73.333 0 144.666 -24.333 213.999 -73zM464.001 1758l103 -85l-214 -212l-73 54z" />
    <glyph glyph-name="uni008D" horiz-adv-x="542" 
d="M540 1365v-116h-205v-1249h-127v1249h-205v116h537zM269 1461l-227 219l76 79l151 -142l152 142l82 -79z" />
    <glyph glyph-name="uni008D" unicode="&#x164;" horiz-adv-x="542" 
d="M540 1365v-116h-205v-1249h-127v1249h-205v116h537zM269 1461l-227 219l76 79l151 -142l152 142l82 -79z" />
    <glyph glyph-name="Zcaron" horiz-adv-x="571" 
d="M554 1365l-381 -1249h344v-116h-501l379 1249h-342v116h501zM300 1461l-228 219l76 79l152 -142l151 142l83 -79z" />
    <glyph glyph-name="Zcaron" unicode="&#x17d;" horiz-adv-x="571" 
d="M554 1365l-381 -1249h344v-116h-501l379 1249h-342v116h501zM300 1461l-228 219l76 79l152 -142l151 142l83 -79z" />
    <glyph glyph-name="uni008F" horiz-adv-x="571" 
d="M554 1365l-381 -1249h344v-116h-501l379 1249h-342v116h501zM401 1758l103 -85l-214 -212l-73 54z" />
    <glyph glyph-name="uni008F" unicode="&#x179;" horiz-adv-x="571" 
d="M554 1365l-381 -1249h344v-116h-501l379 1249h-342v116h501zM401 1758l103 -85l-214 -212l-73 54z" />
    <glyph glyph-name="quoteleft" horiz-adv-x="419" 
d="M82 980l181 403l88 -41l-141 -421z" />
    <glyph glyph-name="quoteleft" unicode="&#x2018;" horiz-adv-x="419" 
d="M82 980l181 403l88 -41l-141 -421z" />
    <glyph glyph-name="quoteright" horiz-adv-x="419" 
d="M351 1325l-181 -404l-88 42l141 420z" />
    <glyph glyph-name="quoteright" unicode="&#x2019;" horiz-adv-x="419" 
d="M351 1325l-181 -404l-88 42l141 420z" />
    <glyph glyph-name="quotedblleft" horiz-adv-x="661" 
d="M324 980l181 403l87 -41l-141 -421zM82 980l181 403l88 -41l-141 -421z" />
    <glyph glyph-name="quotedblleft" unicode="&#x201c;" horiz-adv-x="661" 
d="M324 980l181 403l87 -41l-141 -421zM82 980l181 403l88 -41l-141 -421z" />
    <glyph glyph-name="quotedblright" horiz-adv-x="661" 
d="M351 1325l-181 -404l-88 42l141 420zM592 1325l-181 -404l-87 42l141 420z" />
    <glyph glyph-name="quotedblright" unicode="&#x201d;" horiz-adv-x="661" 
d="M351 1325l-181 -404l-88 42l141 420zM592 1325l-181 -404l-87 42l141 420z" />
    <glyph glyph-name="bullet" horiz-adv-x="1365" 
d="M687 978c78 0 144.499 -27.833 199.499 -83.5s82.5 -122.5 82.5 -200.5s-27.667 -144.833 -83 -200.5s-121.666 -83.5 -198.999 -83.5c-78.667 0 -146 27.833 -202 83.5s-84 122.5 -84 200.5c0 78.667 27.833 145.667 83.5 201s123.167 83 202.5 83z" />
    <glyph glyph-name="bullet" unicode="&#x2022;" horiz-adv-x="1365" 
d="M687 978c78 0 144.499 -27.833 199.499 -83.5s82.5 -122.5 82.5 -200.5s-27.667 -144.833 -83 -200.5s-121.666 -83.5 -198.999 -83.5c-78.667 0 -146 27.833 -202 83.5s-84 122.5 -84 200.5c0 78.667 27.833 145.667 83.5 201s123.167 83 202.5 83z" />
    <glyph glyph-name="endash" horiz-adv-x="751" 
d="M136 414v143h479v-143h-479z" />
    <glyph glyph-name="endash" unicode="&#x2013;" horiz-adv-x="751" 
d="M136 414v143h479v-143h-479z" />
    <glyph glyph-name="emdash" horiz-adv-x="848" 
d="M0 414v143h848v-143h-848z" />
    <glyph glyph-name="emdash" unicode="&#x2014;" horiz-adv-x="848" 
d="M0 414v143h848v-143h-848z" />
    <glyph glyph-name="trademark" horiz-adv-x="931" 
d="M337 1365v-79h-115v-699h-85v699h-115v79h315zM792 1365l95 -778h-84l-58 534l-92 -534h-70l-86 525l-66 -525h-84l110 778h73l91 -575l97 575h74z" />
    <glyph glyph-name="trademark" unicode="&#x2122;" horiz-adv-x="931" 
d="M337 1365v-79h-115v-699h-85v699h-115v79h315zM792 1365l95 -778h-84l-58 534l-92 -534h-70l-86 525l-66 -525h-84l110 778h73l91 -575l97 575h74z" />
    <glyph glyph-name="scaron" horiz-adv-x="514" 
d="M453 882l-0.00195312 -142.999c-52 62.667 -104.333 94 -157 94c-33.333 0 -61 -11.333 -83 -34s-33 -51.667 -33 -87c0 -32.667 9 -62.334 27 -89.001s52.333 -61 103 -103c66 -54.667 110.667 -100.5 134 -137.5s35 -80.833 35 -131.5
c0 -77.333 -23.667 -140.833 -71 -190.5s-107.666 -74.5 -180.999 -74.5c-56.667 0 -113 21 -169 63v137c60 -60.667 115 -91 165 -91c38.667 0 70.834 13.667 96.501 41s38.5 61.666 38.5 102.999c0 34.667 -8.5 64.834 -25.5 90.501s-53.5 62.834 -109.5 111.501
c-110 96.667 -165 185.667 -165 267c0 67.333 21.333 123.166 64 167.499s96 66.5 160 66.5c60 0 117 -20 171 -60zM274.998 1037l-224 220l78 78l146 -142l147 142l77 -78z" />
    <glyph glyph-name="scaron" unicode="&#x161;" horiz-adv-x="514" 
d="M453 882l-0.00195312 -142.999c-52 62.667 -104.333 94 -157 94c-33.333 0 -61 -11.333 -83 -34s-33 -51.667 -33 -87c0 -32.667 9 -62.334 27 -89.001s52.333 -61 103 -103c66 -54.667 110.667 -100.5 134 -137.5s35 -80.833 35 -131.5
c0 -77.333 -23.667 -140.833 -71 -190.5s-107.666 -74.5 -180.999 -74.5c-56.667 0 -113 21 -169 63v137c60 -60.667 115 -91 165 -91c38.667 0 70.834 13.667 96.501 41s38.5 61.666 38.5 102.999c0 34.667 -8.5 64.834 -25.5 90.501s-53.5 62.834 -109.5 111.501
c-110 96.667 -165 185.667 -165 267c0 67.333 21.333 123.166 64 167.499s96 66.5 160 66.5c60 0 117 -20 171 -60zM274.998 1037l-224 220l78 78l146 -142l147 142l77 -78z" />
    <glyph glyph-name="guilsinglright" horiz-adv-x="437" 
d="M68 827l79 44l222 -386l-222 -397l-79 46l194 351z" />
    <glyph glyph-name="guilsinglright" unicode="&#x203a;" horiz-adv-x="437" 
d="M68 827l79 44l222 -386l-222 -397l-79 46l194 351z" />
    <glyph glyph-name="uni009C" horiz-adv-x="514" 
d="M452 882l-0.000976562 -142.996c-52 62.667 -104.333 94 -157 94c-33.333 0 -61 -11.333 -83 -34s-33 -51.667 -33 -87c0 -32.667 9 -62.334 27 -89.001s52.333 -61 103 -103c66 -54 110.667 -99.667 134 -137s35 -81.333 35 -132c0 -77.333 -23.667 -140.833 -71 -190.5
s-107.666 -74.5 -180.999 -74.5c-56.667 0 -113 21 -169 63v137c59.333 -60.667 114.333 -91 165 -91c38.667 0 70.667 13.667 96 41s38 61.666 38 102.999c0 34.667 -8.5 64.667 -25.5 90s-53.167 62.666 -108.5 111.999c-110 96.667 -165 185.667 -165 267
c0 67.333 21.333 123.166 64 167.499s96 66.5 160 66.5c60 0 117 -20 171 -60zM375.999 1335l103 -85l-214 -213l-73 55z" />
    <glyph glyph-name="uni009C" unicode="&#x153;" horiz-adv-x="514" 
d="M452 882l-0.000976562 -142.996c-52 62.667 -104.333 94 -157 94c-33.333 0 -61 -11.333 -83 -34s-33 -51.667 -33 -87c0 -32.667 9 -62.334 27 -89.001s52.333 -61 103 -103c66 -54 110.667 -99.667 134 -137s35 -81.333 35 -132c0 -77.333 -23.667 -140.833 -71 -190.5
s-107.666 -74.5 -180.999 -74.5c-56.667 0 -113 21 -169 63v137c59.333 -60.667 114.333 -91 165 -91c38.667 0 70.667 13.667 96 41s38 61.666 38 102.999c0 34.667 -8.5 64.667 -25.5 90s-53.167 62.666 -108.5 111.999c-110 96.667 -165 185.667 -165 267
c0 67.333 21.333 123.166 64 167.499s96 66.5 160 66.5c60 0 117 -20 171 -60zM375.999 1335l103 -85l-214 -213l-73 55z" />
    <glyph glyph-name="uni009D" horiz-adv-x="558" 
d="M409 928v-109h-155v-819h-117v819h-98v109h98v254h117v-254h155zM558 1399l-155 -302l-80 37l131 312z" />
    <glyph glyph-name="uni009D" unicode="&#x165;" horiz-adv-x="558" 
d="M409 928v-109h-155v-819h-117v819h-98v109h98v254h117v-254h155zM558 1399l-155 -302l-80 37l131 312z" />
    <glyph glyph-name="uni009D" unicode="&#x15b;" horiz-adv-x="558" 
d="M409 928v-109h-155v-819h-117v819h-98v109h98v254h117v-254h155zM558 1399l-155 -302l-80 37l131 312z" />
    <glyph glyph-name="zcaron" horiz-adv-x="563" 
d="M493 109v-109h-483l367 819h-317v109h494l-375 -819h314zM309 1037l-224 220l78 78l146 -142l147 142l77 -78z" />
    <glyph glyph-name="zcaron" unicode="&#x17e;" horiz-adv-x="563" 
d="M493 109v-109h-483l367 819h-317v109h494l-375 -819h314zM309 1037l-224 220l78 78l146 -142l147 142l77 -78z" />
    <glyph glyph-name="uni009F" horiz-adv-x="563" 
d="M493 109v-109h-483l367 819h-317v109h494l-375 -819h314zM407 1335l103 -85l-214 -213l-73 55z" />
    <glyph glyph-name="uni009F" unicode="&#x17a;" horiz-adv-x="563" 
d="M493 109v-109h-483l367 819h-317v109h494l-375 -819h314zM407 1335l103 -85l-214 -213l-73 55z" />
    <glyph glyph-name="uni009F" unicode="&#x178;" horiz-adv-x="563" 
d="M493 109v-109h-483l367 819h-317v109h494l-375 -819h314zM407 1335l103 -85l-214 -213l-73 55z" />
    <glyph glyph-name="caron" unicode="&#xa1;" 
d="M512 1037l-224 220l78 78l146 -142l147 142l77 -78z" />
    <glyph glyph-name="caron" unicode="&#x2c7;" 
d="M512 1037l-224 220l78 78l146 -142l147 142l77 -78z" />
    <glyph glyph-name="breve" unicode="&#xa2;" 
d="M622 1289h108.999c-7.33301 -77.333 -30.166 -137.333 -68.499 -180s-88.5 -64 -150.5 -64s-112 21.333 -150 64s-60.667 102.667 -68 180h109c14.667 -88 48.667 -132 102 -132c61.333 0 100.333 44 117 132z" />
    <glyph glyph-name="breve" unicode="&#x2d8;" 
d="M622 1289h108.999c-7.33301 -77.333 -30.166 -137.333 -68.499 -180s-88.5 -64 -150.5 -64s-112 21.333 -150 64s-60.667 102.667 -68 180h109c14.667 -88 48.667 -132 102 -132c61.333 0 100.333 44 117 132z" />
    <glyph glyph-name="Lslash" unicode="&#xa3;" horiz-adv-x="538" 
d="M241 664v-548h295v-116h-422v581l-100 -101v131l100 101v653h127v-570l176 170v-131z" />
    <glyph glyph-name="Lslash" unicode="&#x141;" horiz-adv-x="538" 
d="M241 664v-548h295v-116h-422v581l-100 -101v131l100 101v653h127v-570l176 170v-131z" />
    <glyph glyph-name="currency" unicode="&#xa4;" horiz-adv-x="1365" 
d="M127 246l189.999 190c-72 88.667 -108 186 -108 292c0 102 34.667 199.667 104 293l-191 191l73 72l191 -191c94 72.667 193.667 109 299 109c102.667 0 200.334 -35.667 293.001 -107l191 189l72 -72l-189 -190c70 -94 105 -192 105 -294
c0 -100 -35.333 -196.333 -106 -289l193 -193l-72 -72l-192 192c-92 -72 -191 -108 -297 -108c-98.667 0 -196.667 35 -294 105l-190 -189zM682.999 1089c-98.667 0 -182.834 -35.167 -252.501 -105.5s-104.5 -155.5 -104.5 -255.5c0 -98 35 -182 105 -252
s154 -105 252 -105s182 35 252 105s105 154 105 252c0 100 -34.667 185.167 -104 255.5s-153.666 105.5 -252.999 105.5z" />
    <glyph glyph-name="glyph259" unicode="&#xa5;" horiz-adv-x="666" 
d="M390 1365l273.999 -1365c-59.333 -54 -89 -103 -89 -147c0 -42.667 25.667 -64 77 -64c26.667 0 53.334 5.33301 80.001 16v-98c-30.667 -12 -60.667 -18 -90 -18c-52 0 -93.167 12.167 -123.5 36.5s-45.5 57.166 -45.5 98.499c0 52.667 32.333 111.334 97 176.001h-41
l-52 281h-289l-50 -281h-135l269 1365h118zM456.999 390l-89.999 482c-20 105.333 -33 212.333 -39 321c-8.66699 -132 -20.334 -239 -35.001 -321l-85 -482h249z" />
    <glyph glyph-name="glyph259" unicode="&#x104;" horiz-adv-x="666" 
d="M390 1365l273.999 -1365c-59.333 -54 -89 -103 -89 -147c0 -42.667 25.667 -64 77 -64c26.667 0 53.334 5.33301 80.001 16v-98c-30.667 -12 -60.667 -18 -90 -18c-52 0 -93.167 12.167 -123.5 36.5s-45.5 57.166 -45.5 98.499c0 52.667 32.333 111.334 97 176.001h-41
l-52 281h-289l-50 -281h-135l269 1365h118zM456.999 390l-89.999 482c-20 105.333 -33 212.333 -39 321c-8.66699 -132 -20.334 -239 -35.001 -321l-85 -482h249z" />
    <glyph glyph-name="brokenbar" unicode="&#xa6;" 
d="M451 1365h123v-675h-123v675zM451 314h123v-655h-123v655z" />
    <glyph glyph-name="section" unicode="&#xa7;" horiz-adv-x="751" 
d="M638 1234l-120.999 -0.00390625c-14 114 -60.333 171 -139 171c-40 0 -73.167 -16.5 -99.5 -49.5s-39.5 -74.5 -39.5 -124.5c0 -52 12.167 -95.167 36.5 -129.5s70.166 -72.833 137.499 -115.5c75.333 -48 124.5 -82 147.5 -102s42.5 -45.333 58.5 -76
c31.333 -60 47 -140 47 -240c0 -196.667 -63.333 -314.667 -190 -354c103.333 -65.333 155 -161.666 155 -288.999c0 -85.333 -24 -154.5 -72 -207.5s-110.667 -79.5 -188 -79.5c-74.667 0 -133.667 25.833 -177 77.5s-69.666 126.834 -78.999 225.501h120
c7.33301 -129.333 53.666 -194 138.999 -194c42 0 76 17 102 51s39 78.667 39 134c0 54.667 -13.833 100.334 -41.5 137.001s-76.167 73.334 -145.5 110.001c-89.333 47.333 -148 93 -176 137c-44.667 68.667 -67 156.667 -67 264c0 96 18 174.833 54 236.5
s87 101.5 153 119.5c-112.667 74.667 -169 173.667 -169 297c0 82 24 149.333 72 202s109.333 79 184 79c76 0 136.333 -24.167 181 -72.5s70.667 -117.5 78 -207.5zM374.001 859.996c-54 0 -96 -25.167 -126 -75.5s-45 -120.833 -45 -211.5
c0 -189.333 56.333 -284 169 -284c117.333 0 176 87.333 176 262c0 206 -58 309 -174 309z" />
    <glyph glyph-name="dieresis" unicode="&#xa8;" 
d="M384 1235c25.333 0 46.5 -8.5 63.5 -25.5s25.5 -38.167 25.5 -63.5c0 -24 -8.66699 -44.667 -26 -62s-38.333 -26 -63 -26c-24 0 -44.667 8.66699 -62 26s-26 38 -26 62c0 24.667 8.66699 45.667 26 63s38 26 62 26zM639 1235c24 0 44.667 -8.66699 62 -26
s26 -38.333 26 -63c0 -24 -8.66699 -44.667 -26 -62s-38 -26 -62 -26c-24.667 0 -45.667 8.66699 -63 26s-26 38 -26 62c0 24.667 8.66699 45.667 26 63s38.333 26 63 26z" />
    <glyph glyph-name="copyright" unicode="&#xa9;" horiz-adv-x="1548" 
d="M890 1072l-0.000976562 -112l-21 12c-36.667 22 -67 33 -91 33c-98 0 -147 -109 -147 -327c0 -211.333 46.667 -317 140 -317c28.667 0 68.334 15.667 119.001 47v-107c-42 -26 -83 -39 -123 -39c-79.333 0 -140 34.167 -182 102.5s-63 167.5 -63 297.5
c0 294.667 83.667 442 251 442c42 0 78.667 -9.33301 110 -28zM775.999 1390c194 0 359.832 -69.168 497.499 -207.501s206.5 -304.833 206.5 -499.5c0 -195.333 -68.833 -362.166 -206.5 -500.499s-303.5 -207.5 -497.5 -207.5c-195.333 0 -362.166 69 -500.499 207
s-207.5 305 -207.5 501c0 195.333 69 362 207 500s305 207 501 207zM775.998 1317c-174 0 -322.167 -61.833 -444.5 -185.5s-183.5 -273.167 -183.5 -448.5s61.333 -325 184 -449s270.667 -186 444 -186c172 0 319 62 441 186s183 273.667 183 449
c0 174.667 -61 324 -183 448s-269 186 -441 186z" />
    <glyph glyph-name="Scedilla" unicode="&#xaa;" horiz-adv-x="710" 
d="M592 1311l0.000976562 -161.004c-66.667 74 -133.667 111 -201 111c-58.667 0 -106.5 -20.667 -143.5 -62s-55.5 -94.666 -55.5 -159.999c0 -56 13.333 -104.667 40 -146s72.667 -84 138 -128c116 -78 193.167 -144.167 231.5 -198.5s57.5 -124.166 57.5 -209.499
c0 -104.667 -33.333 -193.667 -100 -267s-147.667 -110 -243 -110c-79.333 0 -150.666 23.667 -213.999 71v164c71.333 -73.333 144.666 -110 219.999 -110c60 0 109.833 22.833 149.5 68.5s59.5 103.167 59.5 172.5c0 60.667 -14.167 110.667 -42.5 150
s-85.5 88.333 -171.5 147c-95.333 64.667 -161.333 124.334 -198 179.001s-55 121.334 -55 200.001c0 104.667 29.667 191.167 89 259.5s134.333 102.5 225 102.5c73.333 0 144.666 -24.333 213.999 -73zM395.001 -137.004l-181 -288l-76 44l158 299z" />
    <glyph glyph-name="Scedilla" unicode="&#x15e;" horiz-adv-x="710" 
d="M592 1311l0.000976562 -161.004c-66.667 74 -133.667 111 -201 111c-58.667 0 -106.5 -20.667 -143.5 -62s-55.5 -94.666 -55.5 -159.999c0 -56 13.333 -104.667 40 -146s72.667 -84 138 -128c116 -78 193.167 -144.167 231.5 -198.5s57.5 -124.166 57.5 -209.499
c0 -104.667 -33.333 -193.667 -100 -267s-147.667 -110 -243 -110c-79.333 0 -150.666 23.667 -213.999 71v164c71.333 -73.333 144.666 -110 219.999 -110c60 0 109.833 22.833 149.5 68.5s59.5 103.167 59.5 172.5c0 60.667 -14.167 110.667 -42.5 150
s-85.5 88.333 -171.5 147c-95.333 64.667 -161.333 124.334 -198 179.001s-55 121.334 -55 200.001c0 104.667 29.667 191.167 89 259.5s134.333 102.5 225 102.5c73.333 0 144.666 -24.333 213.999 -73zM395.001 -137.004l-181 -288l-76 44l158 299z" />
    <glyph glyph-name="guillemotleft" unicode="&#xab;" horiz-adv-x="666" 
d="M598 827l-195 -342l195 -351l-79 -46l-222 397l222 386zM369 827l-195 -342l195 -351l-79 -46l-222 397l222 386z" />
    <glyph glyph-name="logicalnot" unicode="&#xac;" 
d="M832 0v432h-764v115h887v-547h-123z" />
    <glyph glyph-name="minus" unicode="&#xad;" horiz-adv-x="749" 
d="M67 641v113h614v-113h-614z" />
    <glyph glyph-name="registered" unicode="&#xae;" horiz-adv-x="1548" 
d="M703 614v-340.998h-107v819h113c85.333 0 145.833 -16.833 181.5 -50.5s53.5 -90.834 53.5 -171.501c0 -128.667 -49.667 -200.334 -149 -215.001l184 -382h-114zM703 998.002v-252h36c36 0 61.167 9 75.5 27s21.5 49.667 21.5 95c0 50 -7.5 84.167 -22.5 102.5
s-43.167 27.5 -84.5 27.5h-26zM776 1390c194 0 359.832 -69.168 497.499 -207.501s206.5 -304.833 206.5 -499.5c0 -195.333 -68.833 -362.166 -206.5 -500.499s-303.5 -207.5 -497.5 -207.5c-195.333 0 -362.166 69 -500.499 207s-207.5 305 -207.5 501
c0 195.333 69 362 207 500s305 207 501 207zM775.999 1317c-174 0 -322.167 -61.833 -444.5 -185.5s-183.5 -273.167 -183.5 -448.5s61.333 -325 184 -449s270.667 -186 444 -186c172 0 319 62 441 186s183 273.667 183 449c0 174.667 -61 324 -183 448s-269 186 -441 186z
" />
    <glyph glyph-name="glyph275" unicode="&#xaf;" horiz-adv-x="571" 
d="M554 1365l-381 -1249h344v-116h-501l379 1249h-342v116h501zM304 1667c26 0 47.999 -8.99902 65.999 -26.999s27 -40 27 -66s-9 -48 -27 -66s-40 -27 -66 -27c-25.333 0 -47.166 9.16699 -65.499 27.5s-27.5 40.166 -27.5 65.499c0 26 9 48 27 66s40 27 66 27z" />
    <glyph glyph-name="glyph275" unicode="&#x17b;" horiz-adv-x="571" 
d="M554 1365l-381 -1249h344v-116h-501l379 1249h-342v116h501zM304 1667c26 0 47.999 -8.99902 65.999 -26.999s27 -40 27 -66s-9 -48 -27 -66s-40 -27 -66 -27c-25.333 0 -47.166 9.16699 -65.499 27.5s-27.5 40.166 -27.5 65.499c0 26 9 48 27 66s40 27 66 27z" />
    <glyph glyph-name="degree" unicode="&#xb0;" horiz-adv-x="751" 
d="M375 1392c84.667 0 156.667 -29 216 -87s89 -128 89 -210c0 -82.667 -29.833 -153 -89.5 -211s-131.5 -87 -215.5 -87s-155.833 29.167 -215.5 87.5s-89.5 128.5 -89.5 210.5s29.833 152 89.5 210s131.5 87 215.5 87zM374 1296c-54.667 0 -101.5 -19.667 -140.5 -59
s-58.5 -86.666 -58.5 -141.999s19.5 -102.666 58.5 -141.999s85.833 -59 140.5 -59c55.333 0 102.5 19.667 141.5 59s58.5 86.666 58.5 141.999s-19.5 102.666 -58.5 141.999s-86.167 59 -141.5 59z" />
    <glyph glyph-name="plusminus" unicode="&#xb1;" horiz-adv-x="749" 
d="M67 641v113h250v247h116v-247h248v-113h-248v-249h-116v249h-250zM67 190v113h614v-113h-614z" />
    <glyph glyph-name="ogonek" unicode="&#xb2;" 
d="M725 0l93.998 0.000976562c-59.333 -53.333 -89 -102.333 -89 -147c0 -42.667 25.667 -64 77 -64c26.667 0 53.334 5.33301 80.001 16v-98c-30.667 -12 -61 -18 -91 -18c-51.333 0 -92.166 12.167 -122.499 36.5s-45.5 57.166 -45.5 98.499c0 53.333 32.333 112 97 176z
" />
    <glyph glyph-name="ogonek" unicode="&#x2db;" 
d="M725 0l93.998 0.000976562c-59.333 -53.333 -89 -102.333 -89 -147c0 -42.667 25.667 -64 77 -64c26.667 0 53.334 5.33301 80.001 16v-98c-30.667 -12 -61 -18 -91 -18c-51.333 0 -92.166 12.167 -122.499 36.5s-45.5 57.166 -45.5 98.499c0 53.333 32.333 112 97 176z
" />
    <glyph glyph-name="lslash" unicode="&#xb3;" horiz-adv-x="352" 
d="M235 794v-794h-117v717l-104 -103v127l104 103v650h117v-573l104 103v-127z" />
    <glyph glyph-name="lslash" unicode="&#x142;" horiz-adv-x="352" 
d="M235 794v-794h-117v717l-104 -103v127l104 103v650h117v-573l104 103v-127z" />
    <glyph glyph-name="acute" unicode="&#xb4;" 
d="M624 1335l103 -85l-214 -213l-73 55z" />
    <glyph glyph-name="mu" unicode="&#xb5;" horiz-adv-x="688" 
d="M219 -341h-116.999v1269h117v-613c0 -84 8.83301 -141.667 26.5 -173s50.5 -47 98.5 -47s80.667 16 98 48s26 92 26 180v605h117v-704c0 -71.333 -21.5 -128.833 -64.5 -172.5s-99.167 -65.5 -168.5 -65.5c-50.667 0 -97.334 16 -140.001 48z" />
    <glyph glyph-name="paragraph" unicode="&#xb6;" horiz-adv-x="751" 
d="M235 -202l-0.000976562 894c-11.333 -0.666992 -20.333 -1 -27 -1c-65.333 0 -117.5 30.167 -156.5 90.5s-58.5 140.833 -58.5 241.5c0 110 24.833 194.5 74.5 253.5s120.834 88.5 213.501 88.5h429l-28 -119h-83v-1448h-123v1448h-118v-1448h-123z" />
    <glyph glyph-name="periodcentered" unicode="&#xb7;" horiz-adv-x="362" 
d="M181 577c25.333 0 47 -9 65 -27s27 -39.667 27 -65s-9 -47 -27 -65s-39.667 -27 -65 -27s-47 9 -65 27s-27 39.667 -27 65s9 47 27 65s39.667 27 65 27z" />
    <glyph glyph-name="periodcentered" unicode="&#x2219;" horiz-adv-x="362" 
d="M181 577c25.333 0 47 -9 65 -27s27 -39.667 27 -65s-9 -47 -27 -65s-39.667 -27 -65 -27s-47 9 -65 27s-27 39.667 -27 65s9 47 27 65s39.667 27 65 27z" />
    <glyph glyph-name="cedilla" unicode="&#xb8;" 
d="M634 -129l-172 -266l-70 41l148 278z" />
    <glyph glyph-name="uni00B9" unicode="&#xb9;" horiz-adv-x="677" 
d="M575 928l-0.000976562 -928c-58.667 -53.333 -88 -102.333 -88 -147c0 -42.667 25.333 -64 76 -64c26.667 0 53.334 5.33301 80.001 16v-98c-30 -12 -60 -18 -90 -18c-52 0 -93.167 12.167 -123.5 36.5s-45.5 57.166 -45.5 98.499c0 52.667 32.667 111.334 98 176.001
h-25v73c-45.333 -58 -97.666 -87 -156.999 -87c-80.667 0 -137.667 37.667 -171 113s-50 204 -50 386c0 160.667 18.167 277 54.5 349s95.166 108 176.499 108c56 0 105 -25.667 147 -77v63h118zM336.999 846c-48 0 -82.667 -28.332 -104 -84.999s-32 -149.667 -32 -279
c0 -149.333 9.66699 -253.333 29 -312s53.333 -88 102 -88c52.667 0 88.667 28.167 108 84.5s29 160.166 29 311.499c0 134 -10 228.833 -30 284.5s-54 83.5 -102 83.5z" />
    <glyph glyph-name="uni00B9" unicode="&#x105;" horiz-adv-x="677" 
d="M575 928l-0.000976562 -928c-58.667 -53.333 -88 -102.333 -88 -147c0 -42.667 25.333 -64 76 -64c26.667 0 53.334 5.33301 80.001 16v-98c-30 -12 -60 -18 -90 -18c-52 0 -93.167 12.167 -123.5 36.5s-45.5 57.166 -45.5 98.499c0 52.667 32.667 111.334 98 176.001
h-25v73c-45.333 -58 -97.666 -87 -156.999 -87c-80.667 0 -137.667 37.667 -171 113s-50 204 -50 386c0 160.667 18.167 277 54.5 349s95.166 108 176.499 108c56 0 105 -25.667 147 -77v63h118zM336.999 846c-48 0 -82.667 -28.332 -104 -84.999s-32 -149.667 -32 -279
c0 -149.333 9.66699 -253.333 29 -312s53.333 -88 102 -88c52.667 0 88.667 28.167 108 84.5s29 160.166 29 311.499c0 134 -10 228.833 -30 284.5s-54 83.5 -102 83.5z" />
    <glyph glyph-name="scedilla" unicode="&#xba;" horiz-adv-x="513" 
d="M452 882l-0.000976562 -142.996c-52 62.667 -104.333 94 -157 94c-33.333 0 -61 -11.333 -83 -34s-33 -51.667 -33 -87c0 -32.667 9 -62.334 27 -89.001s52.333 -61 103 -103c66 -54 110.667 -99.667 134 -137s35 -81.333 35 -132c0 -77.333 -23.667 -140.833 -71 -190.5
s-107.666 -74.5 -180.999 -74.5c-56.667 0 -113 21 -169 63v137c59.333 -60.667 114.333 -91 165 -91c38.667 0 70.667 13.667 96 41s38 61.666 38 102.999c0 34.667 -8.5 64.667 -25.5 90s-53.167 62.666 -108.5 111.999c-110 96.667 -165 185.667 -165 267
c0 67.333 21.333 123.166 64 167.499s96 66.5 160 66.5c60 0 117 -20 171 -60zM305.999 -128.996l-171 -266l-70 41l147 278z" />
    <glyph glyph-name="scedilla" unicode="&#x15f;" horiz-adv-x="513" 
d="M452 882l-0.000976562 -142.996c-52 62.667 -104.333 94 -157 94c-33.333 0 -61 -11.333 -83 -34s-33 -51.667 -33 -87c0 -32.667 9 -62.334 27 -89.001s52.333 -61 103 -103c66 -54 110.667 -99.667 134 -137s35 -81.333 35 -132c0 -77.333 -23.667 -140.833 -71 -190.5
s-107.666 -74.5 -180.999 -74.5c-56.667 0 -113 21 -169 63v137c59.333 -60.667 114.333 -91 165 -91c38.667 0 70.667 13.667 96 41s38 61.666 38 102.999c0 34.667 -8.5 64.667 -25.5 90s-53.167 62.666 -108.5 111.999c-110 96.667 -165 185.667 -165 267
c0 67.333 21.333 123.166 64 167.499s96 66.5 160 66.5c60 0 117 -20 171 -60zM305.999 -128.996l-171 -266l-70 41l147 278z" />
    <glyph glyph-name="guillemotright" unicode="&#xbb;" horiz-adv-x="666" 
d="M68 827l79 44l222 -386l-222 -397l-79 46l194 351zM297 827l79 44l222 -386l-222 -397l-79 46l194 351z" />
    <glyph glyph-name="glyph264" unicode="&#xbc;" horiz-adv-x="538" 
d="M239 1365v-1249h296v-116h-423v1365h127zM544 1337l-155 -302l-80 37l131 311z" />
    <glyph glyph-name="glyph264" unicode="&#x13d;" horiz-adv-x="538" 
d="M239 1365v-1249h296v-116h-423v1365h127zM544 1337l-155 -302l-80 37l131 311z" />
    <glyph glyph-name="hungarumlaut" unicode="&#xbd;" 
d="M747 1335l93 -62l-183 -236l-67 47zM529 1335l93 -62l-184 -236l-66 47z" />
    <glyph glyph-name="hungarumlaut" unicode="&#x2dd;" 
d="M747 1335l93 -62l-183 -236l-67 47zM529 1335l93 -62l-184 -236l-66 47z" />
    <glyph glyph-name="glyph284" unicode="&#xbe;" horiz-adv-x="523" 
d="M219 1494v-1494h-117v1494h117zM523 1447l-155 -302l-80 37l131 312z" />
    <glyph glyph-name="glyph284" unicode="&#x13e;" horiz-adv-x="523" 
d="M219 1494v-1494h-117v1494h117zM523 1447l-155 -302l-80 37l131 312z" />
    <glyph glyph-name="glyph294" unicode="&#xbf;" horiz-adv-x="563" 
d="M493 109v-109h-483l367 819h-317v109h494l-375 -819h314zM306 1244c26 0 47.999 -8.99902 65.999 -26.999s27 -40 27 -66s-9 -48 -27 -66s-40 -27 -66 -27c-25.333 0 -47.166 9.16699 -65.499 27.5s-27.5 40.166 -27.5 65.499c0 26 9 48 27 66s40 27 66 27z" />
    <glyph glyph-name="glyph294" unicode="&#x17c;" horiz-adv-x="563" 
d="M493 109v-109h-483l367 819h-317v109h494l-375 -819h314zM306 1244c26 0 47.999 -8.99902 65.999 -26.999s27 -40 27 -66s-9 -48 -27 -66s-40 -27 -66 -27c-25.333 0 -47.166 9.16699 -65.499 27.5s-27.5 40.166 -27.5 65.499c0 26 9 48 27 66s40 27 66 27z" />
    <glyph glyph-name="glyph268" unicode="&#xc0;" horiz-adv-x="770" 
d="M260 669l-0.000976562 -669h-138v1365h171c126.667 0 216.334 -19.667 269.001 -59c75.333 -56.667 113 -156.667 113 -300c0 -220 -89.333 -336.667 -268 -350l316 -656h-145zM259.999 1249v-480h85c69.333 0 118.5 17.667 147.5 53s43.5 95 43.5 179
c0 93.333 -15 158 -45 194s-84 54 -162 54h-69zM455.999 1758l103 -85l-214 -212l-73 54z" />
    <glyph glyph-name="glyph268" unicode="&#x154;" horiz-adv-x="770" 
d="M260 669l-0.000976562 -669h-138v1365h171c126.667 0 216.334 -19.667 269.001 -59c75.333 -56.667 113 -156.667 113 -300c0 -220 -89.333 -336.667 -268 -350l316 -656h-145zM259.999 1249v-480h85c69.333 0 118.5 17.667 147.5 53s43.5 95 43.5 179
c0 93.333 -15 158 -45 194s-84 54 -162 54h-69zM455.999 1758l103 -85l-214 -212l-73 54z" />
    <glyph glyph-name="Aacute" unicode="&#xc1;" horiz-adv-x="666" 
d="M391 1365l273 -1365h-135l-52 281h-289l-50 -281h-135l269 1365h119zM457 390l-89.999 482c-20 105.333 -33 212.333 -39 321c-8.66699 -132 -20.334 -239 -35.001 -321l-85 -482h249zM442.001 1758l103 -85l-214 -212l-73 54z" />
    <glyph glyph-name="Acircumflex" unicode="&#xc2;" horiz-adv-x="666" 
d="M391 1365l273 -1365h-135l-52 281h-289l-50 -281h-135l269 1365h119zM457 390l-89.999 482c-20 105.333 -33 212.333 -39 321c-8.66699 -132 -20.334 -239 -35.001 -321l-85 -482h249zM331.001 1759l235 -220l-83 -78l-152 142l-151 -142l-76 78z" />
    <glyph glyph-name="glyph258" unicode="&#xc3;" horiz-adv-x="666" 
d="M391 1365l273 -1365h-135l-52 281h-289l-50 -281h-135l269 1365h119zM457 390l-89.999 482c-20 105.333 -33 212.333 -39 321c-8.66699 -132 -20.334 -239 -35.001 -321l-85 -482h249zM446.001 1712h113c-6 -75.333 -29.167 -134.833 -69.5 -178.5
s-92.5 -65.5 -156.5 -65.5c-63.333 0 -115.166 21.833 -155.499 65.5s-63.5 103.167 -69.5 178.5h113c15.333 -88 50.666 -132 105.999 -132c62 0 101.667 44 119 132z" />
    <glyph glyph-name="glyph258" unicode="&#x102;" horiz-adv-x="666" 
d="M391 1365l273 -1365h-135l-52 281h-289l-50 -281h-135l269 1365h119zM457 390l-89.999 482c-20 105.333 -33 212.333 -39 321c-8.66699 -132 -20.334 -239 -35.001 -321l-85 -482h249zM446.001 1712h113c-6 -75.333 -29.167 -134.833 -69.5 -178.5
s-92.5 -65.5 -156.5 -65.5c-63.333 0 -115.166 21.833 -155.499 65.5s-63.5 103.167 -69.5 178.5h113c15.333 -88 50.666 -132 105.999 -132c62 0 101.667 44 119 132z" />
    <glyph glyph-name="Adieresis" unicode="&#xc4;" horiz-adv-x="666" 
d="M391 1365l273 -1365h-135l-52 281h-289l-50 -281h-135l269 1365h119zM457 390l-89.999 482c-20 105.333 -33 212.333 -39 321c-8.66699 -132 -20.334 -239 -35.001 -321l-85 -482h249zM202.001 1658c24.667 0 45.667 -8.66699 63 -26s26 -38.333 26 -63
c0 -24 -8.66699 -44.667 -26 -62s-38.333 -26 -63 -26c-24 0 -44.667 8.66699 -62 26s-26 38 -26 62c0 24.667 8.66699 45.667 26 63s38 26 62 26zM464.001 1658c24.667 0 45.667 -8.66699 63 -26s26 -38.333 26 -63c0 -24 -8.66699 -44.667 -26 -62s-38.333 -26 -63 -26
c-24 0 -44.667 8.66699 -62 26s-26 38 -26 62c0 24.667 8.66699 45.667 26 63s38 26 62 26z" />
    <glyph glyph-name="glyph263" unicode="&#xc5;" horiz-adv-x="538" 
d="M239 1365v-1249h296v-116h-423v1365h127zM296 1758l103 -85l-214 -212l-73 54z" />
    <glyph glyph-name="glyph263" unicode="&#x139;" horiz-adv-x="538" 
d="M239 1365v-1249h296v-116h-423v1365h127zM296 1758l103 -85l-214 -212l-73 54z" />
    <glyph glyph-name="Cacute" unicode="&#xc6;" horiz-adv-x="655" 
d="M618 1340l-0.000976562 -139c-61.333 40.667 -113.666 61 -156.999 61c-86.667 0 -150.667 -47.667 -192 -143s-62 -243.333 -62 -444c0 -190 20.167 -332.5 60.5 -427.5s101.166 -142.5 182.499 -142.5c50 0 106 20.667 168 62v-128c-58 -38.667 -116 -58 -174 -58
c-90 0 -166.333 35.667 -229 107c-92 104.667 -138 289 -138 553c0 496 125.667 744 377 744c64.667 0 119.334 -15 164.001 -45zM525.999 1758l102 -85l-213 -212l-73 54z" />
    <glyph glyph-name="Cacute" unicode="&#x106;" horiz-adv-x="655" 
d="M618 1340l-0.000976562 -139c-61.333 40.667 -113.666 61 -156.999 61c-86.667 0 -150.667 -47.667 -192 -143s-62 -243.333 -62 -444c0 -190 20.167 -332.5 60.5 -427.5s101.166 -142.5 182.499 -142.5c50 0 106 20.667 168 62v-128c-58 -38.667 -116 -58 -174 -58
c-90 0 -166.333 35.667 -229 107c-92 104.667 -138 289 -138 553c0 496 125.667 744 377 744c64.667 0 119.334 -15 164.001 -45zM525.999 1758l102 -85l-213 -212l-73 54z" />
    <glyph glyph-name="Ccedilla" unicode="&#xc7;" horiz-adv-x="655" 
d="M483 -137l-181 -288l-76 44l158 299zM618 1340l-0.000976562 -139c-61.333 40.667 -113.666 61 -156.999 61c-86.667 0 -150.667 -47.667 -192 -143s-62 -243.333 -62 -444c0 -190 20.167 -332.5 60.5 -427.5s101.166 -142.5 182.499 -142.5c50 0 106 20.667 168 62v-128
c-58 -38.667 -116 -58 -174 -58c-90 0 -166.333 35.667 -229 107c-92 104.667 -138 289 -138 553c0 496 125.667 744 377 744c64.667 0 119.334 -15 164.001 -45z" />
    <glyph glyph-name="Ccaron" unicode="&#xc8;" horiz-adv-x="655" 
d="M618 1340l-0.000976562 -139c-61.333 40.667 -113.666 61 -156.999 61c-86.667 0 -150.667 -47.667 -192 -143s-62 -243.333 -62 -444c0 -190 20.167 -332.5 60.5 -427.5s101.166 -142.5 182.499 -142.5c50 0 106 20.667 168 62v-128c-58 -38.667 -116 -58 -174 -58
c-90 0 -166.333 35.667 -229 107c-92 104.667 -138 289 -138 553c0 496 125.667 744 377 744c64.667 0 119.334 -15 164.001 -45zM420.999 1461l-228 219l76 79l152 -142l151 142l83 -79z" />
    <glyph glyph-name="Ccaron" unicode="&#x10c;" horiz-adv-x="655" 
d="M618 1340l-0.000976562 -139c-61.333 40.667 -113.666 61 -156.999 61c-86.667 0 -150.667 -47.667 -192 -143s-62 -243.333 -62 -444c0 -190 20.167 -332.5 60.5 -427.5s101.166 -142.5 182.499 -142.5c50 0 106 20.667 168 62v-128c-58 -38.667 -116 -58 -174 -58
c-90 0 -166.333 35.667 -229 107c-92 104.667 -138 289 -138 553c0 496 125.667 744 377 744c64.667 0 119.334 -15 164.001 -45zM420.999 1461l-228 219l76 79l152 -142l151 142l83 -79z" />
    <glyph glyph-name="Eacute" unicode="&#xc9;" horiz-adv-x="617" 
d="M539 1365v-116h-300v-482h292v-116h-292v-535h300v-116h-427v1365h427zM421 1758l103 -85l-214 -212l-73 54z" />
    <glyph glyph-name="glyph262" unicode="&#xca;" horiz-adv-x="617" 
d="M539 1365v-115.999h-300v-482h292v-116h-292v-535h300v-116c-59.333 -54.667 -89 -103.667 -89 -147c0 -42.667 25.667 -64 77 -64c26.667 0 53.667 5.33301 81 16v-98c-30.667 -12 -61 -18 -91 -18c-52 0 -93.167 12.167 -123.5 36.5s-45.5 57.166 -45.5 98.499
c0 53.333 32.667 112 98 176h-334v1365h427z" />
    <glyph glyph-name="glyph262" unicode="&#x118;" horiz-adv-x="617" 
d="M539 1365v-115.999h-300v-482h292v-116h-292v-535h300v-116c-59.333 -54.667 -89 -103.667 -89 -147c0 -42.667 25.667 -64 77 -64c26.667 0 53.667 5.33301 81 16v-98c-30.667 -12 -61 -18 -91 -18c-52 0 -93.167 12.167 -123.5 36.5s-45.5 57.166 -45.5 98.499
c0 53.333 32.667 112 98 176h-334v1365h427z" />
    <glyph glyph-name="Edieresis" unicode="&#xcb;" horiz-adv-x="617" 
d="M539 1365v-116h-300v-482h292v-116h-292v-535h300v-116h-427v1365h427zM194 1658c24.667 0 45.667 -8.66699 63 -26s26 -38.333 26 -63c0 -24 -8.66699 -44.667 -26 -62s-38.333 -26 -63 -26c-24 0 -44.667 8.66699 -62 26s-26 38 -26 62c0 24.667 8.66699 45.667 26 63
s38 26 62 26zM456 1658c24.667 0 45.667 -8.66699 63 -26s26 -38.333 26 -63c0 -24 -8.66699 -44.667 -26 -62s-38.333 -26 -63 -26c-24 0 -44.667 8.66699 -62 26s-26 38 -26 62c0 24.667 8.66699 45.667 26 63s38 26 62 26z" />
    <glyph glyph-name="glyph261" unicode="&#xcc;" horiz-adv-x="617" 
d="M540 1365v-116h-301v-482h292v-116h-292v-535h301v-116h-428v1365h428zM323 1461l-228 219l76 79l152 -142l151 142l83 -79z" />
    <glyph glyph-name="glyph261" unicode="&#x11a;" horiz-adv-x="617" 
d="M540 1365v-116h-301v-482h292v-116h-292v-535h301v-116h-428v1365h428zM323 1461l-228 219l76 79l152 -142l151 142l83 -79z" />
    <glyph glyph-name="Iacute" unicode="&#xcd;" horiz-adv-x="351" 
d="M239 1365v-1365h-127v1365h127zM270 1758l103 -82l-200 -215l-73 54z" />
    <glyph glyph-name="Icircumflex" unicode="&#xce;" horiz-adv-x="351" 
d="M239 1365v-1365h-127v1365h127zM173 1759l221 -220l-83 -78l-138 142l-138 -142l-76 78z" />
    <glyph glyph-name="glyph260" unicode="&#xcf;" horiz-adv-x="759" 
d="M112 1365h159.998c158.667 0 266.5 -47.167 323.5 -141.5s85.5 -273.5 85.5 -537.5c0 -176 -10.167 -308.833 -30.5 -398.5s-56.166 -158.5 -107.499 -206.5c-57.333 -54 -144.666 -81 -261.999 -81h-169v1365zM238.998 1249v-1133h60c94 0 159.667 36.667 197 110
s56 202.333 56 387c0 182 -8.66699 318.833 -26 410.5s-46 153.5 -86 185.5c-34 26.667 -82.667 40 -146 40h-55zM336.998 1461l-228 219l76 79l152 -142l151 142l83 -79z" />
    <glyph glyph-name="glyph260" unicode="&#x10e;" horiz-adv-x="759" 
d="M112 1365h159.998c158.667 0 266.5 -47.167 323.5 -141.5s85.5 -273.5 85.5 -537.5c0 -176 -10.167 -308.833 -30.5 -398.5s-56.166 -158.5 -107.499 -206.5c-57.333 -54 -144.666 -81 -261.999 -81h-169v1365zM238.998 1249v-1133h60c94 0 159.667 36.667 197 110
s56 202.333 56 387c0 182 -8.66699 318.833 -26 410.5s-46 153.5 -86 185.5c-34 26.667 -82.667 40 -146 40h-55zM336.998 1461l-228 219l76 79l152 -142l151 142l83 -79z" />
    <glyph glyph-name="Eth" unicode="&#xd0;" horiz-adv-x="759" 
d="M112 1365l159.998 -0.000976562c158.667 0 266.5 -47.167 323.5 -141.5s85.5 -273.166 85.5 -536.499c0 -176 -10.167 -309 -30.5 -399s-56.166 -159 -107.499 -207c-57.333 -54 -144.666 -81 -261.999 -81h-169v658h-96v102h96v605zM238.998 1249v-488.999h184v-102
h-184v-542h60c94 0 159.667 36.833 197 110.5s56 203.167 56 388.5c0 181.333 -8.66699 317.666 -26 408.999s-46 153 -86 185c-34 26.667 -82.667 40 -146 40h-55z" />
    <glyph glyph-name="Eth" unicode="&#x110;" horiz-adv-x="759" 
d="M112 1365l159.998 -0.000976562c158.667 0 266.5 -47.167 323.5 -141.5s85.5 -273.166 85.5 -536.499c0 -176 -10.167 -309 -30.5 -399s-56.166 -159 -107.499 -207c-57.333 -54 -144.666 -81 -261.999 -81h-169v658h-96v102h96v605zM238.998 1249v-488.999h184v-102
h-184v-542h60c94 0 159.667 36.833 197 110.5s56 203.167 56 388.5c0 181.333 -8.66699 317.666 -26 408.999s-46 153 -86 185c-34 26.667 -82.667 40 -146 40h-55z" />
    <glyph glyph-name="glyph265" unicode="&#xd1;" horiz-adv-x="792" 
d="M680 1365v-1365h-111l-302 901l-12 41l-19 62c-2 5.33301 -6.66699 22.333 -14 51l-11 38l4 -39c5.33301 -66 8 -133.667 8 -203v-851h-111v1365h111l310 -928c1.33301 -4 4.33301 -14.333 9 -31l20 -68l12 -42l6 -20c-7.33301 70 -11 136.333 -11 199v890h111zM505 1758
l103 -85l-214 -212l-73 54z" />
    <glyph glyph-name="glyph265" unicode="&#x143;" horiz-adv-x="792" 
d="M680 1365v-1365h-111l-302 901l-12 41l-19 62c-2 5.33301 -6.66699 22.333 -14 51l-11 38l4 -39c5.33301 -66 8 -133.667 8 -203v-851h-111v1365h111l310 -928c1.33301 -4 4.33301 -14.333 9 -31l20 -68l12 -42l6 -20c-7.33301 70 -11 136.333 -11 199v890h111zM505 1758
l103 -85l-214 -212l-73 54z" />
    <glyph glyph-name="glyph266" unicode="&#xd2;" horiz-adv-x="792" 
d="M680 1365v-1365h-111l-302 901l-12 41l-19 62c-2 5.33301 -6.66699 22.333 -14 51l-11 38l4 -39c5.33301 -66 8 -133.667 8 -203v-851h-111v1365h111l310 -928c1.33301 -4 4.33301 -14.333 9 -31l20 -68l12 -42l6 -20c-7.33301 70 -11 136.333 -11 199v890h111zM394 1461
l-228 219l76 79l152 -142l151 142l83 -79z" />
    <glyph glyph-name="glyph266" unicode="&#x147;" horiz-adv-x="792" 
d="M680 1365v-1365h-111l-302 901l-12 41l-19 62c-2 5.33301 -6.66699 22.333 -14 51l-11 38l4 -39c5.33301 -66 8 -133.667 8 -203v-851h-111v1365h111l310 -928c1.33301 -4 4.33301 -14.333 9 -31l20 -68l12 -42l6 -20c-7.33301 70 -11 136.333 -11 199v890h111zM394 1461
l-228 219l76 79l152 -142l151 142l83 -79z" />
    <glyph glyph-name="Oacute" unicode="&#xd3;" horiz-adv-x="827" 
d="M419 1384c220.667 0 331 -233.667 331 -701c0 -468 -110.333 -702 -331 -702c-227.333 0 -341 234 -341 702c0 467.333 113.667 701 341 701zM414 1261c-137.333 0 -206 -192.667 -206 -578s68.667 -578 206 -578c73.333 0 126 45 158 135s48 237.667 48 443
s-16 353 -48 443s-84.667 135 -158 135zM516 1758l103 -85l-214 -212l-73 54z" />
    <glyph glyph-name="Ocircumflex" unicode="&#xd4;" horiz-adv-x="827" 
d="M419 1384c220.667 0 331 -233.667 331 -701c0 -468 -110.333 -702 -331 -702c-227.333 0 -341 234 -341 702c0 467.333 113.667 701 341 701zM414 1261c-137.333 0 -206 -192.667 -206 -578s68.667 -578 206 -578c73.333 0 126 45 158 135s48 237.667 48 443
s-16 353 -48 443s-84.667 135 -158 135zM412 1759l234 -220l-83 -78l-151 142l-152 -142l-76 78z" />
    <glyph glyph-name="glyph267" unicode="&#xd5;" horiz-adv-x="827" 
d="M419 1384c220.667 0 331 -233.667 331 -701c0 -468 -110.333 -702 -331 -702c-227.333 0 -341 234 -341 702c0 467.333 113.667 701 341 701zM414 1261c-137.333 0 -206 -192.667 -206 -578s68.667 -578 206 -578c73.333 0 126 45 158 135s48 237.667 48 443
s-16 353 -48 443s-84.667 135 -158 135zM642 1758l96 -61l-200 -236l-66 46zM417 1758l96 -61l-200 -236l-66 46z" />
    <glyph glyph-name="glyph267" unicode="&#x150;" horiz-adv-x="827" 
d="M419 1384c220.667 0 331 -233.667 331 -701c0 -468 -110.333 -702 -331 -702c-227.333 0 -341 234 -341 702c0 467.333 113.667 701 341 701zM414 1261c-137.333 0 -206 -192.667 -206 -578s68.667 -578 206 -578c73.333 0 126 45 158 135s48 237.667 48 443
s-16 353 -48 443s-84.667 135 -158 135zM642 1758l96 -61l-200 -236l-66 46zM417 1758l96 -61l-200 -236l-66 46z" />
    <glyph glyph-name="Odieresis" unicode="&#xd6;" horiz-adv-x="827" 
d="M419 1384c220.667 0 331 -233.667 331 -701c0 -468 -110.333 -702 -331 -702c-227.333 0 -341 234 -341 702c0 467.333 113.667 701 341 701zM414 1261c-137.333 0 -206 -192.667 -206 -578s68.667 -578 206 -578c73.333 0 126 45 158 135s48 237.667 48 443
s-16 353 -48 443s-84.667 135 -158 135zM283 1658c24 0 44.667 -8.66699 62 -26s26 -38.333 26 -63c0 -24 -8.66699 -44.667 -26 -62s-38 -26 -62 -26c-24.667 0 -45.667 8.66699 -63 26s-26 38 -26 62c0 24.667 8.66699 45.667 26 63s38.333 26 63 26zM545 1658
c24 0 44.667 -8.66699 62 -26s26 -38.333 26 -63c0 -24 -8.66699 -44.667 -26 -62s-38 -26 -62 -26c-24.667 0 -45.667 8.66699 -63 26s-26 38 -26 62c0 24.667 8.66699 45.667 26 63s38.333 26 63 26z" />
    <glyph glyph-name="multiply" unicode="&#xd7;" horiz-adv-x="750" 
d="M108 883l80 80l187 -187l187 187l79 -79l-186 -187l187 -187l-80 -81l-188 188l-186 -187l-79 79l186 187z" />
    <glyph glyph-name="glyph269" unicode="&#xd8;" horiz-adv-x="770" 
d="M260 669l-0.000976562 -669h-138v1365h171c126.667 0 216.334 -19.667 269.001 -59c75.333 -56.667 113 -156.667 113 -300c0 -220 -89.333 -336.667 -268 -350l316 -656h-145zM259.999 1249v-480h85c69.333 0 118.5 17.667 147.5 53s43.5 95 43.5 179
c0 93.333 -15 158 -45 194s-84 54 -162 54h-69zM354.999 1461l-228 219l76 79l152 -142l151 142l83 -79z" />
    <glyph glyph-name="glyph269" unicode="&#x158;" horiz-adv-x="770" 
d="M260 669l-0.000976562 -669h-138v1365h171c126.667 0 216.334 -19.667 269.001 -59c75.333 -56.667 113 -156.667 113 -300c0 -220 -89.333 -336.667 -268 -350l316 -656h-145zM259.999 1249v-480h85c69.333 0 118.5 17.667 147.5 53s43.5 95 43.5 179
c0 93.333 -15 158 -45 194s-84 54 -162 54h-69zM354.999 1461l-228 219l76 79l152 -142l151 142l83 -79z" />
    <glyph glyph-name="glyph272" unicode="&#xd9;" horiz-adv-x="799" 
d="M687 1365l0.000976562 -954.998c0 -148.667 -14.667 -248.667 -44 -300c-50 -86 -131 -129 -243 -129c-112.667 0 -194 43 -244 129c-29.333 51.333 -44 151.333 -44 300v955h127v-946c0 -84.667 2.33301 -143.334 7 -176.001s14.667 -59.334 30 -80.001
c27.333 -38.667 68.666 -58 123.999 -58c54.667 0 95.667 19.333 123 58c24.667 34 37 119.333 37 256v946h127zM399.001 1768c43.333 0 80.333 -15.333 111 -46s46 -67.667 46 -111s-15.333 -80.333 -46 -111s-67.667 -46 -111 -46s-80.333 15.333 -111 46
s-46 67.667 -46 111s15.333 80.333 46 111s67.667 46 111 46zM399.001 1686c-20.667 0 -38.334 -7.33301 -53.001 -22s-22 -32.334 -22 -53.001s7.33301 -38.334 22 -53.001s32.334 -22 53.001 -22s38.334 7.33301 53.001 22s22 32.334 22 53.001
s-7.33301 38.334 -22 53.001s-32.334 22 -53.001 22z" />
    <glyph glyph-name="glyph272" unicode="&#x16e;" horiz-adv-x="799" 
d="M687 1365l0.000976562 -954.998c0 -148.667 -14.667 -248.667 -44 -300c-50 -86 -131 -129 -243 -129c-112.667 0 -194 43 -244 129c-29.333 51.333 -44 151.333 -44 300v955h127v-946c0 -84.667 2.33301 -143.334 7 -176.001s14.667 -59.334 30 -80.001
c27.333 -38.667 68.666 -58 123.999 -58c54.667 0 95.667 19.333 123 58c24.667 34 37 119.333 37 256v946h127zM399.001 1768c43.333 0 80.333 -15.333 111 -46s46 -67.667 46 -111s-15.333 -80.333 -46 -111s-67.667 -46 -111 -46s-80.333 15.333 -111 46
s-46 67.667 -46 111s15.333 80.333 46 111s67.667 46 111 46zM399.001 1686c-20.667 0 -38.334 -7.33301 -53.001 -22s-22 -32.334 -22 -53.001s7.33301 -38.334 22 -53.001s32.334 -22 53.001 -22s38.334 7.33301 53.001 22s22 32.334 22 53.001
s-7.33301 38.334 -22 53.001s-32.334 22 -53.001 22z" />
    <glyph glyph-name="Uacute" unicode="&#xda;" horiz-adv-x="799" 
d="M687 1365l0.000976562 -954.998c0 -148.667 -14.667 -248.667 -44 -300c-50 -86 -131 -129 -243 -129c-112.667 0 -194 43 -244 129c-29.333 51.333 -44 151.333 -44 300v955h127v-946c0 -84.667 2.33301 -143.334 7 -176.001s14.667 -59.334 30 -80.001
c27.333 -38.667 68.666 -58 123.999 -58c54.667 0 95.667 19.333 123 58c24.667 34 37 119.333 37 256v946h127zM508.001 1758l103 -85l-214 -212l-73 54z" />
    <glyph glyph-name="glyph273" unicode="&#xdb;" horiz-adv-x="799" 
d="M687 1365l0.000976562 -954.998c0 -148.667 -14.667 -248.667 -44 -300c-50 -86 -131 -129 -243 -129c-112.667 0 -194 43 -244 129c-29.333 51.333 -44 151.333 -44 300v955h127v-946c0 -84.667 2.33301 -143.334 7 -176.001s14.667 -59.334 30 -80.001
c27.333 -38.667 68.666 -58 123.999 -58c54.667 0 95.667 19.333 123 58c24.667 34 37 119.333 37 256v946h127zM631.001 1758l96 -61l-200 -236l-66 46zM406.001 1758l96 -61l-200 -236l-66 46z" />
    <glyph glyph-name="glyph273" unicode="&#x170;" horiz-adv-x="799" 
d="M687 1365l0.000976562 -954.998c0 -148.667 -14.667 -248.667 -44 -300c-50 -86 -131 -129 -243 -129c-112.667 0 -194 43 -244 129c-29.333 51.333 -44 151.333 -44 300v955h127v-946c0 -84.667 2.33301 -143.334 7 -176.001s14.667 -59.334 30 -80.001
c27.333 -38.667 68.666 -58 123.999 -58c54.667 0 95.667 19.333 123 58c24.667 34 37 119.333 37 256v946h127zM631.001 1758l96 -61l-200 -236l-66 46zM406.001 1758l96 -61l-200 -236l-66 46z" />
    <glyph glyph-name="Udieresis" unicode="&#xdc;" horiz-adv-x="799" 
d="M687 1365l0.000976562 -954.998c0 -148.667 -14.667 -248.667 -44 -300c-50 -86 -131 -129 -243 -129c-112.667 0 -194 43 -244 129c-29.333 51.333 -44 151.333 -44 300v955h127v-946c0 -84.667 2.33301 -143.334 7 -176.001s14.667 -59.334 30 -80.001
c27.333 -38.667 68.666 -58 123.999 -58c54.667 0 95.667 19.333 123 58c24.667 34 37 119.333 37 256v946h127zM268.001 1658c24.667 0 45.667 -8.66699 63 -26s26 -38.333 26 -63c0 -24 -8.66699 -44.667 -26 -62s-38.333 -26 -63 -26c-24 0 -44.667 8.66699 -62 26
s-26 38 -26 62c0 24.667 8.66699 45.667 26 63s38 26 62 26zM530.001 1658c24.667 0 45.667 -8.66699 63 -26s26 -38.333 26 -63c0 -24 -8.66699 -44.667 -26 -62s-38.333 -26 -63 -26c-24 0 -44.667 8.66699 -62 26s-26 38 -26 62c0 24.667 8.66699 45.667 26 63
s38 26 62 26z" />
    <glyph glyph-name="Yacute" unicode="&#xdd;" horiz-adv-x="648" 
d="M645 1365l-250 -767v-598h-127v598l-265 767h136l129 -398c24.667 -75.333 45.667 -157 63 -245c12.667 74 32.667 157.333 60 250l118 393h136zM433 1758l103 -85l-214 -212l-73 54z" />
    <glyph glyph-name="glyph276" unicode="&#xde;" horiz-adv-x="542" 
d="M540 1365v-116h-205v-1249h-127v1249h-205v116h537zM329 -135l-155 -303l-80 37l131 312z" />
    <glyph glyph-name="glyph276" unicode="&#x162;" horiz-adv-x="542" 
d="M540 1365v-116h-205v-1249h-127v1249h-205v116h537zM329 -135l-155 -303l-80 37l131 312z" />
    <glyph glyph-name="germandbls" unicode="&#xdf;" horiz-adv-x="696" 
d="M115 0v838.001h-106v120h106v182c0 130.667 18.833 224.5 56.5 281.5s99.5 85.5 185.5 85.5c169.333 0 254 -106.667 254 -320c0 -152.667 -44.667 -249 -134 -289c56 -23.333 95.167 -67.833 117.5 -133.5s33.5 -169.834 33.5 -312.501
c0 -156 -21.167 -270.333 -63.5 -343s-108.833 -109 -199.5 -109h-43v117h35c56 0 94.833 26.667 116.5 80s32.5 149.333 32.5 288c0 130 -11 221.333 -33 274s-60.333 79 -115 79h-36v120h35c46 0 79.5 15.833 100.5 47.5s31.5 82.5 31.5 152.5c0 160 -45 240 -135 240
c-44 0 -75.333 -18.5 -94 -55.5s-28 -99.833 -28 -188.5v-1154h-117z" />
    <glyph glyph-name="glyph288" unicode="&#xe0;" horiz-adv-x="404" 
d="M102 928l117.001 0.000976562v-122c38 87.333 90.333 132.666 157 135.999v-136c-10.667 0.666992 -18.667 1 -24 1c-26 0 -50.333 -9 -73 -27s-38.334 -41 -47.001 -69c-8.66699 -26 -13 -75.333 -13 -148v-563h-117v928zM321.001 1335l103 -85l-214 -213l-73 55z" />
    <glyph glyph-name="glyph288" unicode="&#x155;" horiz-adv-x="404" 
d="M102 928l117.001 0.000976562v-122c38 87.333 90.333 132.666 157 135.999v-136c-10.667 0.666992 -18.667 1 -24 1c-26 0 -50.333 -9 -73 -27s-38.334 -41 -47.001 -69c-8.66699 -26 -13 -75.333 -13 -148v-563h-117v928zM321.001 1335l103 -85l-214 -213l-73 55z" />
    <glyph glyph-name="aacute" unicode="&#xe1;" horiz-adv-x="677" 
d="M575 928v-928h-118v73c-45.333 -58 -97.666 -87 -156.999 -87c-80.667 0 -137.667 37.667 -171 113s-50 204 -50 386c0 160.667 18.167 277 54.5 349s95.166 108 176.499 108c56 0 105 -25.667 147 -77v63h118zM337 846c-48 0 -82.667 -28.332 -104 -84.999
s-32 -149.667 -32 -279c0 -149.333 9.66699 -253.333 29 -312s53.333 -88 102 -88c52.667 0 88.667 28.167 108 84.5s29 160.166 29 311.499c0 134 -10 228.833 -30 284.5s-54 83.5 -102 83.5zM449 1335l103 -85l-213 -213l-74 55z" />
    <glyph glyph-name="acircumflex" unicode="&#xe2;" horiz-adv-x="677" 
d="M575 928v-928h-118v73c-45.333 -58 -97.666 -87 -156.999 -87c-80.667 0 -137.667 37.667 -171 113s-50 204 -50 386c0 160.667 18.167 277 54.5 349s95.166 108 176.499 108c56 0 105 -25.667 147 -77v63h118zM337 846c-48 0 -82.667 -28.332 -104 -84.999
s-32 -149.667 -32 -279c0 -149.333 9.66699 -253.333 29 -312s53.333 -88 102 -88c52.667 0 88.667 28.167 108 84.5s29 160.166 29 311.499c0 134 -10 228.833 -30 284.5s-54 83.5 -102 83.5zM354 1335l224 -219l-77 -79l-147 143l-146 -143l-78 79z" />
    <glyph glyph-name="glyph278" unicode="&#xe3;" horiz-adv-x="677" 
d="M575 928v-928h-118v73c-45.333 -58 -97.666 -87 -156.999 -87c-80.667 0 -137.667 37.667 -171 113s-50 204 -50 386c0 160.667 18.167 277 54.5 349s95.166 108 176.499 108c56 0 105 -25.667 147 -77v63h118zM337 846c-48 0 -82.667 -28.332 -104 -84.999
s-32 -149.667 -32 -279c0 -149.333 9.66699 -253.333 29 -312s53.333 -88 102 -88c52.667 0 88.667 28.167 108 84.5s29 160.166 29 311.499c0 134 -10 228.833 -30 284.5s-54 83.5 -102 83.5zM464 1289h108.001c-6.66699 -77.333 -29.167 -137.333 -67.5 -180
s-88.5 -64 -150.5 -64s-112.167 21.333 -150.5 64s-60.833 102.667 -67.5 180h108c15.333 -88 49.666 -132 102.999 -132c61.333 0 100.333 44 117 132z" />
    <glyph glyph-name="glyph278" unicode="&#x103;" horiz-adv-x="677" 
d="M575 928v-928h-118v73c-45.333 -58 -97.666 -87 -156.999 -87c-80.667 0 -137.667 37.667 -171 113s-50 204 -50 386c0 160.667 18.167 277 54.5 349s95.166 108 176.499 108c56 0 105 -25.667 147 -77v63h118zM337 846c-48 0 -82.667 -28.332 -104 -84.999
s-32 -149.667 -32 -279c0 -149.333 9.66699 -253.333 29 -312s53.333 -88 102 -88c52.667 0 88.667 28.167 108 84.5s29 160.166 29 311.499c0 134 -10 228.833 -30 284.5s-54 83.5 -102 83.5zM464 1289h108.001c-6.66699 -77.333 -29.167 -137.333 -67.5 -180
s-88.5 -64 -150.5 -64s-112.167 21.333 -150.5 64s-60.833 102.667 -67.5 180h108c15.333 -88 49.666 -132 102.999 -132c61.333 0 100.333 44 117 132z" />
    <glyph glyph-name="adieresis" unicode="&#xe4;" horiz-adv-x="677" 
d="M575 928v-928h-118v73c-45.333 -58 -97.666 -87 -156.999 -87c-80.667 0 -137.667 37.667 -171 113s-50 204 -50 386c0 160.667 18.167 277 54.5 349s95.166 108 176.499 108c56 0 105 -25.667 147 -77v63h118zM337 846c-48 0 -82.667 -28.332 -104 -84.999
s-32 -149.667 -32 -279c0 -149.333 9.66699 -253.333 29 -312s53.333 -88 102 -88c52.667 0 88.667 28.167 108 84.5s29 160.166 29 311.499c0 134 -10 228.833 -30 284.5s-54 83.5 -102 83.5zM226 1235c24.667 0 45.667 -8.66699 63 -26s26 -38.333 26 -63
c0 -24 -8.66699 -44.667 -26 -62s-38.333 -26 -63 -26c-24 0 -44.667 8.66699 -62 26s-26 38 -26 62c0 24.667 8.66699 45.667 26 63s38 26 62 26zM481 1235c24 0 44.667 -8.66699 62 -26s26 -38.333 26 -63c0 -24 -8.66699 -44.667 -26 -62s-38 -26 -62 -26
c-24.667 0 -45.667 8.66699 -63 26s-26 38 -26 62c0 24.667 8.66699 45.667 26 63s38.333 26 63 26z" />
    <glyph glyph-name="glyph283" unicode="&#xe5;" horiz-adv-x="322" 
d="M220 1494v-1494h-117v1494h117zM263 1859l103 -82l-200 -215l-73 54z" />
    <glyph glyph-name="glyph283" unicode="&#x13a;" horiz-adv-x="322" 
d="M220 1494v-1494h-117v1494h117zM263 1859l103 -82l-200 -215l-73 54z" />
    <glyph glyph-name="cacute" unicode="&#xe6;" horiz-adv-x="508" 
d="M467 907v-136.999c-39.333 42 -76.666 63 -111.999 63c-52.667 0 -93.334 -32.333 -122.001 -97s-43 -156 -43 -274c0 -114 14.5 -203.667 43.5 -269s68.833 -98 119.5 -98c36 0 74 27.667 114 83v-145c-40.667 -31.333 -85 -47 -133 -47
c-82 0 -146.833 42.167 -194.5 126.5s-71.5 199.166 -71.5 344.499c0 151.333 24 270 72 356s114.333 129 199 129c46 0 88.667 -11.667 128 -35zM429 1335l103 -85l-213 -213l-74 55z" />
    <glyph glyph-name="cacute" unicode="&#x107;" horiz-adv-x="508" 
d="M467 907v-136.999c-39.333 42 -76.666 63 -111.999 63c-52.667 0 -93.334 -32.333 -122.001 -97s-43 -156 -43 -274c0 -114 14.5 -203.667 43.5 -269s68.833 -98 119.5 -98c36 0 74 27.667 114 83v-145c-40.667 -31.333 -85 -47 -133 -47
c-82 0 -146.833 42.167 -194.5 126.5s-71.5 199.166 -71.5 344.499c0 151.333 24 270 72 356s114.333 129 199 129c46 0 88.667 -11.667 128 -35zM429 1335l103 -85l-213 -213l-74 55z" />
    <glyph glyph-name="ccedilla" unicode="&#xe7;" horiz-adv-x="508" 
d="M467 907v-136.999c-39.333 42 -76.666 63 -111.999 63c-52.667 0 -93.334 -32.333 -122.001 -97s-43 -156 -43 -274c0 -114 14.5 -203.667 43.5 -269s68.833 -98 119.5 -98c36 0 74 27.667 114 83v-145c-40.667 -31.333 -85 -47 -133 -47
c-82 0 -146.833 42.167 -194.5 126.5s-71.5 199.166 -71.5 344.499c0 151.333 24 270 72 356s114.333 129 199 129c46 0 88.667 -11.667 128 -35zM375 -128.999l-172 -266l-70 41l147 278z" />
    <glyph glyph-name="ccaron" unicode="&#xe8;" horiz-adv-x="508" 
d="M467 907v-136.999c-39.333 42 -76.666 63 -111.999 63c-52.667 0 -93.334 -32.333 -122.001 -97s-43 -156 -43 -274c0 -114 14.5 -203.667 43.5 -269s68.833 -98 119.5 -98c36 0 74 27.667 114 83v-145c-40.667 -31.333 -85 -47 -133 -47
c-82 0 -146.833 42.167 -194.5 126.5s-71.5 199.166 -71.5 344.499c0 151.333 24 270 72 356s114.333 129 199 129c46 0 88.667 -11.667 128 -35zM322 1037l-210 220l77 78l133 -142l133 142l77 -78z" />
    <glyph glyph-name="ccaron" unicode="&#x10d;" horiz-adv-x="508" 
d="M467 907v-136.999c-39.333 42 -76.666 63 -111.999 63c-52.667 0 -93.334 -32.333 -122.001 -97s-43 -156 -43 -274c0 -114 14.5 -203.667 43.5 -269s68.833 -98 119.5 -98c36 0 74 27.667 114 83v-145c-40.667 -31.333 -85 -47 -133 -47
c-82 0 -146.833 42.167 -194.5 126.5s-71.5 199.166 -71.5 344.499c0 151.333 24 270 72 356s114.333 129 199 129c46 0 88.667 -11.667 128 -35zM322 1037l-210 220l77 78l133 -142l133 142l77 -78z" />
    <glyph glyph-name="eacute" unicode="&#xe9;" horiz-adv-x="649" 
d="M579 441l-392.001 -0.000976562c0 -230.667 48.667 -346 146 -346c72.667 0 113.334 73.333 122.001 220h118c0 -101.333 -21.5 -181.5 -64.5 -240.5s-101.167 -88.5 -174.5 -88.5c-177.333 0 -266 158.667 -266 476c0 150.667 23.167 268.334 69.5 353.001
s110.5 127 192.5 127c79.333 0 141 -39 185 -117s66 -187.333 66 -328zM463.999 538.999l-0.999023 27c0 80 -11.833 144.5 -35.5 193.5s-54.834 73.5 -93.501 73.5c-88 0 -136.333 -98 -145 -294h275zM433 1335l103 -85l-214 -213l-73 55z" />
    <glyph glyph-name="glyph282" unicode="&#xea;" horiz-adv-x="649" 
d="M546 -174l-0.00195312 -99.001c-30 -12 -60.333 -18 -91 -18c-51.333 0 -92.166 12.167 -122.499 36.5s-45.5 57.166 -45.5 98.499c0 59.333 26 107.333 78 144c-14.667 -1.33301 -24.667 -2 -30 -2c-178 0 -267 158.667 -267 476c0 150.667 23.167 268.334 69.5 353.001
s110.5 127 192.5 127c79.333 0 141 -39 185 -117s66 -187.333 66 -328l-1 -56h-393c0 -230.667 48.667 -346 146 -346c73.333 0 114.333 73.333 123 220h117c0 -109.333 -34.333 -206.666 -103 -291.999c-54 -67.333 -81 -117.333 -81 -150c0 -42.667 25.667 -64 77 -64
c26.667 0 53.334 5.66699 80.001 17zM463.998 538.999l-1 27c0 80 -11.667 144.5 -35 193.5s-54.333 73.5 -93 73.5c-88 0 -136.667 -98 -146 -294h275z" />
    <glyph glyph-name="glyph282" unicode="&#x119;" horiz-adv-x="649" 
d="M546 -174l-0.00195312 -99.001c-30 -12 -60.333 -18 -91 -18c-51.333 0 -92.166 12.167 -122.499 36.5s-45.5 57.166 -45.5 98.499c0 59.333 26 107.333 78 144c-14.667 -1.33301 -24.667 -2 -30 -2c-178 0 -267 158.667 -267 476c0 150.667 23.167 268.334 69.5 353.001
s110.5 127 192.5 127c79.333 0 141 -39 185 -117s66 -187.333 66 -328l-1 -56h-393c0 -230.667 48.667 -346 146 -346c73.333 0 114.333 73.333 123 220h117c0 -109.333 -34.333 -206.666 -103 -291.999c-54 -67.333 -81 -117.333 -81 -150c0 -42.667 25.667 -64 77 -64
c26.667 0 53.334 5.66699 80.001 17zM463.998 538.999l-1 27c0 80 -11.667 144.5 -35 193.5s-54.333 73.5 -93 73.5c-88 0 -136.667 -98 -146 -294h275z" />
    <glyph glyph-name="edieresis" unicode="&#xeb;" horiz-adv-x="649" 
d="M579 441l-392.001 -0.000976562c0 -230.667 48.667 -346 146 -346c72.667 0 113.334 73.333 122.001 220h118c0 -101.333 -21.5 -181.5 -64.5 -240.5s-101.167 -88.5 -174.5 -88.5c-177.333 0 -266 158.667 -266 476c0 150.667 23.167 268.334 69.5 353.001
s110.5 127 192.5 127c79.333 0 141 -39 185 -117s66 -187.333 66 -328zM463.999 538.999l-0.999023 27c0 80 -11.833 144.5 -35.5 193.5s-54.834 73.5 -93.501 73.5c-88 0 -136.333 -98 -145 -294h275zM202 1235c24.667 0 45.667 -8.66699 63 -26s26 -38.333 26 -63
c0 -24 -8.66699 -44.667 -26 -62s-38.333 -26 -63 -26c-24 0 -44.667 8.66699 -62 26s-26 38 -26 62c0 24.667 8.66699 45.667 26 63s38 26 62 26zM456 1235c24.667 0 45.667 -8.66699 63 -26s26 -38.333 26 -63c0 -24 -8.66699 -44.667 -26 -62s-38.333 -26 -63 -26
c-24 0 -44.667 8.66699 -62 26s-26 38 -26 62c0 24.667 8.66699 45.667 26 63s38 26 62 26z" />
    <glyph glyph-name="glyph281" unicode="&#xec;" horiz-adv-x="649" 
d="M579 441l-392.001 -0.000976562c0 -230.667 48.667 -346 146 -346c72.667 0 113.334 73.333 122.001 220h118c0 -101.333 -21.5 -181.5 -64.5 -240.5s-101.167 -88.5 -174.5 -88.5c-177.333 0 -266 158.667 -266 476c0 150.667 23.167 268.334 69.5 353.001
s110.5 127 192.5 127c79.333 0 141 -39 185 -117s66 -187.333 66 -328zM463.999 538.999l-0.999023 27c0 80 -11.833 144.5 -35.5 193.5s-54.834 73.5 -93.501 73.5c-88 0 -136.333 -98 -145 -294h275zM331 1037l-224 220l78 78l146 -142l147 142l77 -78z" />
    <glyph glyph-name="glyph281" unicode="&#x11b;" horiz-adv-x="649" 
d="M579 441l-392.001 -0.000976562c0 -230.667 48.667 -346 146 -346c72.667 0 113.334 73.333 122.001 220h118c0 -101.333 -21.5 -181.5 -64.5 -240.5s-101.167 -88.5 -174.5 -88.5c-177.333 0 -266 158.667 -266 476c0 150.667 23.167 268.334 69.5 353.001
s110.5 127 192.5 127c79.333 0 141 -39 185 -117s66 -187.333 66 -328zM463.999 538.999l-0.999023 27c0 80 -11.833 144.5 -35.5 193.5s-54.834 73.5 -93.501 73.5c-88 0 -136.333 -98 -145 -294h275zM331 1037l-224 220l78 78l146 -142l147 142l77 -78z" />
    <glyph glyph-name="iacute" unicode="&#xed;" horiz-adv-x="322" 
d="M219 928v-928h-117v928h117zM256 1335l103 -82l-200 -216l-73 55z" />
    <glyph glyph-name="icircumflex" unicode="&#xee;" horiz-adv-x="322" 
d="M220 928v-928h-117v928h117zM161 1335l211 -219l-78 -79l-133 143l-132 -143l-78 79z" />
    <glyph glyph-name="glyph280" unicode="&#xef;" horiz-adv-x="867" 
d="M563 1494v-1494h-117v73c-45.333 -58 -97.666 -87 -156.999 -87c-80.667 0 -137.667 37.667 -171 113s-50 204 -50 386c0 160.667 18.167 277 54.5 349s95.166 108 176.499 108c56 0 105 -25.667 147 -77v629h117zM326 846c-48 0 -82.666 -28.332 -103.999 -84.999
s-32 -149.667 -32 -279c0 -149.333 9.66699 -253.333 29 -312s53.666 -88 102.999 -88c52 0 87.5 27.667 106.5 83s28.5 159.666 28.5 312.999c0 136 -9.66699 231.333 -29 286s-53.333 82 -102 82zM867.001 1447l-155 -302l-80 37l131 312z" />
    <glyph glyph-name="glyph280" unicode="&#x10f;" horiz-adv-x="867" 
d="M563 1494v-1494h-117v73c-45.333 -58 -97.666 -87 -156.999 -87c-80.667 0 -137.667 37.667 -171 113s-50 204 -50 386c0 160.667 18.167 277 54.5 349s95.166 108 176.499 108c56 0 105 -25.667 147 -77v629h117zM326 846c-48 0 -82.666 -28.332 -103.999 -84.999
s-32 -149.667 -32 -279c0 -149.333 9.66699 -253.333 29 -312s53.666 -88 102.999 -88c52 0 87.5 27.667 106.5 83s28.5 159.666 28.5 312.999c0 136 -9.66699 231.333 -29 286s-53.333 82 -102 82zM867.001 1447l-155 -302l-80 37l131 312z" />
    <glyph glyph-name="dmacron" unicode="&#xf0;" horiz-adv-x="666" 
d="M564 1494l0.000976562 -232.001h82v-96h-82v-1166h-117v73c-45.333 -58 -97.666 -87 -156.999 -87c-78.667 0 -135.334 36.333 -170.001 109s-52 191.334 -52 356.001c0 177.333 17.667 303.5 53 378.5s94.666 112.5 177.999 112.5c56.667 0 106 -25.667 148 -77v301
h-151v96h151v232h117zM323.001 845.999c-48.667 0 -83.001 -29 -103.001 -87s-30 -157.333 -30 -298c0 -138.667 10 -236.5 30 -293.5s54 -85.5 102 -85.5c52 0 87.667 28.167 107 84.5s29 160.5 29 312.5c0 133.333 -10.167 227.833 -30.5 283.5
s-55.166 83.5 -104.499 83.5z" />
    <glyph glyph-name="dmacron" unicode="&#x111;" horiz-adv-x="666" 
d="M564 1494l0.000976562 -232.001h82v-96h-82v-1166h-117v73c-45.333 -58 -97.666 -87 -156.999 -87c-78.667 0 -135.334 36.333 -170.001 109s-52 191.334 -52 356.001c0 177.333 17.667 303.5 53 378.5s94.666 112.5 177.999 112.5c56.667 0 106 -25.667 148 -77v301
h-151v96h151v232h117zM323.001 845.999c-48.667 0 -83.001 -29 -103.001 -87s-30 -157.333 -30 -298c0 -138.667 10 -236.5 30 -293.5s54 -85.5 102 -85.5c52 0 87.667 28.167 107 84.5s29 160.5 29 312.5c0 133.333 -10.167 227.833 -30.5 283.5
s-55.166 83.5 -104.499 83.5z" />
    <glyph glyph-name="glyph285" unicode="&#xf1;" horiz-adv-x="684" 
d="M219 928v-74c52 58.667 112 88 180 88c121.333 0 182 -85.667 182 -257v-685h-117v665c0 69.333 -7.5 116.833 -22.5 142.5s-42.833 38.5 -83.5 38.5c-92.667 0 -139 -73.667 -139 -221v-625h-117v928h117zM437 1335l103 -85l-214 -213l-73 55z" />
    <glyph glyph-name="glyph285" unicode="&#x144;" horiz-adv-x="684" 
d="M219 928v-74c52 58.667 112 88 180 88c121.333 0 182 -85.667 182 -257v-685h-117v665c0 69.333 -7.5 116.833 -22.5 142.5s-42.833 38.5 -83.5 38.5c-92.667 0 -139 -73.667 -139 -221v-625h-117v928h117zM437 1335l103 -85l-214 -213l-73 55z" />
    <glyph glyph-name="glyph286" unicode="&#xf2;" horiz-adv-x="684" 
d="M219 928v-74c52 58.667 112 88 180 88c121.333 0 182 -85.667 182 -257v-685h-117v665c0 69.333 -7.5 116.833 -22.5 142.5s-42.833 38.5 -83.5 38.5c-92.667 0 -139 -73.667 -139 -221v-625h-117v928h117zM335 1037l-224 220l77 78l147 -142l146 142l78 -78z" />
    <glyph glyph-name="glyph286" unicode="&#x148;" horiz-adv-x="684" 
d="M219 928v-74c52 58.667 112 88 180 88c121.333 0 182 -85.667 182 -257v-685h-117v665c0 69.333 -7.5 116.833 -22.5 142.5s-42.833 38.5 -83.5 38.5c-92.667 0 -139 -73.667 -139 -221v-625h-117v928h117zM335 1037l-224 220l77 78l147 -142l146 142l78 -78z" />
    <glyph glyph-name="oacute" unicode="&#xf3;" horiz-adv-x="669" 
d="M341 942c172.667 0 259 -159.333 259 -478s-86.333 -478 -259 -478c-182 0 -273 159.333 -273 478s91 478 273 478zM339 833c-99.333 4.66699 -149 -118.333 -149 -369c0 -246 49.667 -369 149 -369c92.667 0 139 123 139 369c0 242 -46.333 365 -139 369zM443 1335
l103 -85l-214 -213l-73 55z" />
    <glyph glyph-name="ocircumflex" unicode="&#xf4;" horiz-adv-x="669" 
d="M341 942c172.667 0 259 -159.333 259 -478s-86.333 -478 -259 -478c-182 0 -273 159.333 -273 478s91 478 273 478zM339 833c-99.333 4.66699 -149 -118.333 -149 -369c0 -246 49.667 -369 149 -369c92.667 0 139 123 139 369c0 242 -46.333 365 -139 369zM334 1335
l224 -219l-77 -79l-147 143l-146 -143l-78 79z" />
    <glyph glyph-name="glyph287" unicode="&#xf5;" horiz-adv-x="669" 
d="M341 942c172.667 0 259 -159.333 259 -478s-86.333 -478 -259 -478c-182 0 -273 159.333 -273 478s91 478 273 478zM339 833c-99.333 4.66699 -149 -118.333 -149 -369c0 -246 49.667 -369 149 -369c92.667 0 139 123 139 369c0 242 -46.333 365 -139 369zM550 1335
l93 -62l-183 -236l-66 47zM332 1335l93 -62l-183 -236l-67 47z" />
    <glyph glyph-name="glyph287" unicode="&#x151;" horiz-adv-x="669" 
d="M341 942c172.667 0 259 -159.333 259 -478s-86.333 -478 -259 -478c-182 0 -273 159.333 -273 478s91 478 273 478zM339 833c-99.333 4.66699 -149 -118.333 -149 -369c0 -246 49.667 -369 149 -369c92.667 0 139 123 139 369c0 242 -46.333 365 -139 369zM550 1335
l93 -62l-183 -236l-66 47zM332 1335l93 -62l-183 -236l-67 47z" />
    <glyph glyph-name="odieresis" unicode="&#xf6;" horiz-adv-x="669" 
d="M341 942c172.667 0 259 -159.333 259 -478s-86.333 -478 -259 -478c-182 0 -273 159.333 -273 478s91 478 273 478zM339 833c-99.333 4.66699 -149 -118.333 -149 -369c0 -246 49.667 -369 149 -369c92.667 0 139 123 139 369c0 242 -46.333 365 -139 369zM208 1235
c24 0 44.667 -8.66699 62 -26s26 -38.333 26 -63c0 -24 -8.66699 -44.667 -26 -62s-38 -26 -62 -26c-24.667 0 -45.667 8.66699 -63 26s-26 38 -26 62c0 24.667 8.66699 45.667 26 63s38.333 26 63 26zM461 1235c24 0 44.667 -8.66699 62 -26s26 -38.333 26 -63
c0 -24 -8.66699 -44.667 -26 -62s-38 -26 -62 -26c-24.667 0 -45.667 8.66699 -63 26s-26 38 -26 62c0 24.667 8.66699 45.667 26 63s38.333 26 63 26z" />
    <glyph glyph-name="divide" unicode="&#xf7;" horiz-adv-x="749" 
d="M67 641v113h614v-113h-614zM374 530c24.667 0 45.5 -8.5 62.5 -25.5s25.5 -37.5 25.5 -61.5c0 -24.667 -8.5 -45.5 -25.5 -62.5s-37.833 -25.5 -62.5 -25.5c-24 0 -44.5 8.5 -61.5 25.5s-25.5 37.833 -25.5 62.5c0 24 8.5 44.5 25.5 61.5s37.5 25.5 61.5 25.5zM374 1038
c24.667 0 45.5 -8.5 62.5 -25.5s25.5 -37.5 25.5 -61.5c0 -24.667 -8.5 -45.5 -25.5 -62.5s-37.833 -25.5 -62.5 -25.5c-24 0 -44.5 8.5 -61.5 25.5s-25.5 37.833 -25.5 62.5c0 24 8.5 44.5 25.5 61.5s37.5 25.5 61.5 25.5z" />
    <glyph glyph-name="glyph296" unicode="&#xf8;" horiz-adv-x="404" 
d="M103 928l117.001 0.000976562v-122c38 87.333 90.333 132.666 157 135.999v-136c-10.667 0.666992 -18.667 1 -24 1c-26 0 -50.333 -9 -73 -27s-38.334 -41 -47.001 -69c-8.66699 -26 -13 -75.333 -13 -148v-563h-117v928zM222.001 1037l-217 220l78 78l139 -142l140 142
l78 -78z" />
    <glyph glyph-name="glyph296" unicode="&#x159;" horiz-adv-x="404" 
d="M103 928l117.001 0.000976562v-122c38 87.333 90.333 132.666 157 135.999v-136c-10.667 0.666992 -18.667 1 -24 1c-26 0 -50.333 -9 -73 -27s-38.334 -41 -47.001 -69c-8.66699 -26 -13 -75.333 -13 -148v-563h-117v928zM222.001 1037l-217 220l78 78l139 -142l140 142
l78 -78z" />
    <glyph glyph-name="glyph291" unicode="&#xf9;" horiz-adv-x="688" 
d="M102 928l117 0.000976562v-605c0 -88.667 8.66699 -148.834 26 -180.501s50.333 -47.5 99 -47.5c48 0 80.667 16 98 48s26 92 26 180v605h117v-704c0 -72.667 -21.667 -130.5 -65 -173.5s-102 -64.5 -176 -64.5c-74.667 0 -133.667 21.5 -177 64.5s-65 100.833 -65 173.5
v704zM344 1351c43.333 0 80.333 -15.333 111 -46s46 -67.667 46 -111s-15.333 -80.333 -46 -111s-67.667 -46 -111 -46s-80.333 15.333 -111 46s-46 67.667 -46 111s15.333 80.333 46 111s67.667 46 111 46zM344 1269c-20.667 0 -38.334 -7.33301 -53.001 -22
s-22 -32.334 -22 -53.001s7.33301 -38.334 22 -53.001s32.334 -22 53.001 -22s38.334 7.33301 53.001 22s22 32.334 22 53.001s-7.33301 38.334 -22 53.001s-32.334 22 -53.001 22z" />
    <glyph glyph-name="glyph291" unicode="&#x16f;" horiz-adv-x="688" 
d="M102 928l117 0.000976562v-605c0 -88.667 8.66699 -148.834 26 -180.501s50.333 -47.5 99 -47.5c48 0 80.667 16 98 48s26 92 26 180v605h117v-704c0 -72.667 -21.667 -130.5 -65 -173.5s-102 -64.5 -176 -64.5c-74.667 0 -133.667 21.5 -177 64.5s-65 100.833 -65 173.5
v704zM344 1351c43.333 0 80.333 -15.333 111 -46s46 -67.667 46 -111s-15.333 -80.333 -46 -111s-67.667 -46 -111 -46s-80.333 15.333 -111 46s-46 67.667 -46 111s15.333 80.333 46 111s67.667 46 111 46zM344 1269c-20.667 0 -38.334 -7.33301 -53.001 -22
s-22 -32.334 -22 -53.001s7.33301 -38.334 22 -53.001s32.334 -22 53.001 -22s38.334 7.33301 53.001 22s22 32.334 22 53.001s-7.33301 38.334 -22 53.001s-32.334 22 -53.001 22z" />
    <glyph glyph-name="uacute" unicode="&#xfa;" horiz-adv-x="688" 
d="M102 928l117 0.000976562v-605c0 -88.667 8.66699 -148.834 26 -180.501s50.333 -47.5 99 -47.5c48 0 80.667 16 98 48s26 92 26 180v605h117v-704c0 -72.667 -21.667 -130.5 -65 -173.5s-102 -64.5 -176 -64.5c-74.667 0 -133.667 21.5 -177 64.5s-65 100.833 -65 173.5
v704zM452 1335l103 -85l-213 -213l-73 55z" />
    <glyph glyph-name="glyph292" unicode="&#xfb;" horiz-adv-x="688" 
d="M102 928l117 0.000976562v-605c0 -88.667 8.66699 -148.834 26 -180.501s50.333 -47.5 99 -47.5c48 0 80.667 16 98 48s26 92 26 180v605h117v-704c0 -72.667 -21.667 -130.5 -65 -173.5s-102 -64.5 -176 -64.5c-74.667 0 -133.667 21.5 -177 64.5s-65 100.833 -65 173.5
v704zM546 1335l93 -62l-183 -236l-67 47zM328 1335l93 -62l-184 -236l-66 47z" />
    <glyph glyph-name="glyph292" unicode="&#x171;" horiz-adv-x="688" 
d="M102 928l117 0.000976562v-605c0 -88.667 8.66699 -148.834 26 -180.501s50.333 -47.5 99 -47.5c48 0 80.667 16 98 48s26 92 26 180v605h117v-704c0 -72.667 -21.667 -130.5 -65 -173.5s-102 -64.5 -176 -64.5c-74.667 0 -133.667 21.5 -177 64.5s-65 100.833 -65 173.5
v704zM546 1335l93 -62l-183 -236l-67 47zM328 1335l93 -62l-184 -236l-66 47z" />
    <glyph glyph-name="udieresis" unicode="&#xfc;" horiz-adv-x="688" 
d="M102 928l117 0.000976562v-605c0 -88.667 8.66699 -148.834 26 -180.501s50.333 -47.5 99 -47.5c48 0 80.667 16 98 48s26 92 26 180v605h117v-704c0 -72.667 -21.667 -130.5 -65 -173.5s-102 -64.5 -176 -64.5c-74.667 0 -133.667 21.5 -177 64.5s-65 100.833 -65 173.5
v704zM217 1235c24 0 44.667 -8.66699 62 -26s26 -38.333 26 -63c0 -24 -8.66699 -44.667 -26 -62s-38 -26 -62 -26c-24.667 0 -45.667 8.66699 -63 26s-26 38 -26 62c0 24.667 8.66699 45.667 26 63s38.333 26 63 26zM471 1235c24 0 44.667 -8.66699 62 -26
s26 -38.333 26 -63c0 -24 -8.66699 -44.667 -26 -62s-38 -26 -62 -26c-24.667 0 -45.667 8.66699 -63 26s-26 38 -26 62c0 24.667 8.66699 45.667 26 63s38.333 26 63 26z" />
    <glyph glyph-name="yacute" unicode="&#xfd;" horiz-adv-x="601" 
d="M588 928l-319 -1264h-125l92 361l-222 903h120l117 -515c20 -90.667 34 -168.334 42 -233.001c3.33301 26 10 61 20 105l16 71l10 40l126 532h123zM414 1335l103 -85l-214 -213l-73 55z" />
    <glyph glyph-name="glyph295" unicode="&#xfe;" horiz-adv-x="411" 
d="M408 928v-109h-154v-819h-117v819h-99v109h99v254h117v-254h154zM253 -129l-152 -294l-80 37l129 304z" />
    <glyph glyph-name="glyph295" unicode="&#x163;" horiz-adv-x="411" 
d="M408 928v-109h-154v-819h-117v819h-99v109h99v254h117v-254h154zM253 -129l-152 -294l-80 37l129 304z" />
    <glyph glyph-name="dotaccent" unicode="&#xff;" 
d="M512 1244c26 0 47.999 -8.99902 65.999 -26.999s27 -40 27 -66s-9 -48 -27 -66s-40 -27 -66 -27c-25.333 0 -47.166 9.16699 -65.499 27.5s-27.5 40.166 -27.5 65.499c0 26 9 48 27 66s40 27 66 27z" />
    <glyph glyph-name="dotaccent" unicode="&#x2d9;" 
d="M512 1244c26 0 47.999 -8.99902 65.999 -26.999s27 -40 27 -66s-9 -48 -27 -66s-40 -27 -66 -27c-25.333 0 -47.166 9.16699 -65.499 27.5s-27.5 40.166 -27.5 65.499c0 26 9 48 27 66s40 27 66 27z" />
    <glyph glyph-name=".null" horiz-adv-x="0" 
 />
    <glyph glyph-name="nonmarkingreturn" horiz-adv-x="382" 
 />
    <glyph glyph-name="Aring" horiz-adv-x="666" 
d="M391 1365l273 -1365h-135l-52 281h-289l-50 -281h-135l269 1365h119zM457 390l-89.999 482c-20 105.333 -33 212.333 -39 321c-8.66699 -132 -20.334 -239 -35.001 -321l-85 -482h249zM333.001 1768c43.333 0 80.333 -15.333 111 -46s46 -67.667 46 -111
s-15.333 -80.333 -46 -111s-67.667 -46 -111 -46s-80.333 15.333 -111 46s-46 67.667 -46 111s15.333 80.333 46 111s67.667 46 111 46zM333.001 1686c-20.667 0 -38.334 -7.33301 -53.001 -22s-22 -32.334 -22 -53.001s7.33301 -38.334 22 -53.001s32.334 -22 53.001 -22
s38.334 7.33301 53.001 22s22 32.334 22 53.001s-7.33301 38.334 -22 53.001s-32.334 22 -53.001 22z" />
    <glyph glyph-name="Ntilde" horiz-adv-x="792" 
d="M680 1365v-1365h-111l-302 901l-12 41l-19 62c-2 5.33301 -6.66699 22.333 -14 51l-11 38l4 -39c5.33301 -66 8 -133.667 8 -203v-851h-111v1365h111l310 -928c1.33301 -4 4.33301 -14.333 9 -31l20 -68l12 -42l6 -20c-7.33301 70 -11 136.333 -11 199v890h111zM636 1649
c-8.66699 -104 -56.333 -156.001 -143 -156.001c-35.333 0 -80.333 14.667 -135 44c-18.667 9.33301 -34 14.333 -46 15c-22 0.666992 -33 -12.666 -33 -39.999v-11h-115c14.667 104 61.334 156 140.001 156c24 0 56.667 -9 98 -27l44 -20
c15.333 -6.66699 28.666 -10.334 39.999 -11.001c23.333 -1.33301 35 12.334 35 41.001v9h115z" />
    <glyph glyph-name="agrave" horiz-adv-x="677" 
d="M575 928v-928h-118v73c-45.333 -58 -97.666 -87 -156.999 -87c-80.667 0 -137.667 37.667 -171 113s-50 204 -50 386c0 160.667 18.167 277 54.5 349s95.166 108 176.499 108c56 0 105 -25.667 147 -77v63h118zM337 846c-48 0 -82.667 -28.332 -104 -84.999
s-32 -149.667 -32 -279c0 -149.333 9.66699 -253.333 29 -312s53.333 -88 102 -88c52.667 0 88.667 28.167 108 84.5s29 160.166 29 311.499c0 134 -10 228.833 -30 284.5s-54 83.5 -102 83.5zM273 1335l184 -243l-74 -55l-213 213z" />
    <glyph glyph-name="atilde" horiz-adv-x="677" 
d="M575 928v-928h-118v73c-45.333 -58 -97.666 -87 -156.999 -87c-80.667 0 -137.667 37.667 -171 113s-50 204 -50 386c0 160.667 18.167 277 54.5 349s95.166 108 176.499 108c56 0 105 -25.667 147 -77v63h118zM337 846c-48 0 -82.667 -28.332 -104 -84.999
s-32 -149.667 -32 -279c0 -149.333 9.66699 -253.333 29 -312s53.333 -88 102 -88c52.667 0 88.667 28.167 108 84.5s29 160.166 29 311.499c0 134 -10 228.833 -30 284.5s-54 83.5 -102 83.5zM593 1226c-8.66699 -104.667 -56.334 -156.999 -143.001 -156.999
c-36 0 -81.333 14.667 -136 44c-19.333 10 -34.666 15 -45.999 15c-22 0 -33 -13.333 -33 -40c0 -2.66699 0.333008 -6.33398 1 -11.001h-115c14 104.667 60.667 157 140 157c23.333 0 56 -9.33301 98 -28l43 -19c16 -7.33301 29.667 -11.333 41 -12
c23.333 -1.33301 35 12.667 35 42v9h115z" />
    <glyph glyph-name="aring" horiz-adv-x="677" 
d="M575 928v-928h-118v73c-45.333 -58 -97.666 -87 -156.999 -87c-80.667 0 -137.667 37.667 -171 113s-50 204 -50 386c0 160.667 18.167 277 54.5 349s95.166 108 176.499 108c56 0 105 -25.667 147 -77v63h118zM337 846c-48 0 -82.667 -28.332 -104 -84.999
s-32 -149.667 -32 -279c0 -149.333 9.66699 -253.333 29 -312s53.333 -88 102 -88c52.667 0 88.667 28.167 108 84.5s29 160.166 29 311.499c0 134 -10 228.833 -30 284.5s-54 83.5 -102 83.5zM354 1351c43.333 0 80.333 -15.333 111 -46s46 -67.667 46 -111
s-15.333 -80.333 -46 -111s-67.667 -46 -111 -46s-80.333 15.333 -111 46s-46 67.667 -46 111s15.333 80.333 46 111s67.667 46 111 46zM354 1269c-20.667 0 -38.3359 -7.33105 -53.0029 -21.998s-22 -32.334 -22 -53.001s7.33301 -38.334 22 -53.001s32.334 -22 53.001 -22
s38.334 7.33301 53.001 22s22 32.334 22 53.001c0 21.333 -7.16699 39.166 -21.5 53.499s-32.166 21.5 -53.499 21.5z" />
    <glyph glyph-name="egrave" horiz-adv-x="649" 
d="M579 441l-392.001 -0.000976562c0 -230.667 48.667 -346 146 -346c72.667 0 113.334 73.333 122.001 220h118c0 -101.333 -21.5 -181.5 -64.5 -240.5s-101.167 -88.5 -174.5 -88.5c-177.333 0 -266 158.667 -266 476c0 150.667 23.167 268.334 69.5 353.001
s110.5 127 192.5 127c79.333 0 141 -39 185 -117s66 -187.333 66 -328zM463.999 538.999l-0.999023 27c0 80 -11.833 144.5 -35.5 193.5s-54.834 73.5 -93.501 73.5c-88 0 -136.333 -98 -145 -294h275zM240 1335l184 -243l-73 -55l-214 213z" />
    <glyph glyph-name="ecircumflex" horiz-adv-x="649" 
d="M579 441l-392.001 -0.000976562c0 -230.667 48.667 -346 146 -346c72.667 0 113.334 73.333 122.001 220h118c0 -101.333 -21.5 -181.5 -64.5 -240.5s-101.167 -88.5 -174.5 -88.5c-177.333 0 -266 158.667 -266 476c0 150.667 23.167 268.334 69.5 353.001
s110.5 127 192.5 127c79.333 0 141 -39 185 -117s66 -187.333 66 -328zM463.999 538.999l-0.999023 27c0 80 -11.833 144.5 -35.5 193.5s-54.834 73.5 -93.501 73.5c-88 0 -136.333 -98 -145 -294h275zM332 1335l225 -219l-78 -79l-147 143l-146 -143l-78 79z" />
    <glyph glyph-name="igrave" horiz-adv-x="322" 
d="M220 928v-928h-117v928h117zM66 1335l170 -243l-73 -55l-200 216z" />
    <glyph glyph-name="idieresis" horiz-adv-x="322" 
d="M220 928v-928h-117v928h117zM51 1222c22.667 0 42 -8 58 -24s24 -35.333 24 -58s-8 -42 -24 -58s-35.333 -24 -58 -24s-42 8 -58 24s-24 35.333 -24 58s8 42 24 58s35.333 24 58 24zM274 1221c22 0 41 -8 57 -24s24 -35 24 -57c0 -22.667 -8 -42 -24 -58s-35 -24 -57 -24
c-22.667 0 -42 8 -58 24s-24 35.333 -24 58c0 22 8 41 24 57s35.333 24 58 24z" />
    <glyph glyph-name="ntilde" horiz-adv-x="684" 
d="M219 928v-74c52 58.667 112 88 180 88c121.333 0 182 -85.667 182 -257v-685h-117v665c0 69.333 -7.5 116.833 -22.5 142.5s-42.833 38.5 -83.5 38.5c-92.667 0 -139 -73.667 -139 -221v-625h-117v928h117zM577 1226
c-8.66699 -104.667 -56.001 -156.999 -142.001 -156.999c-36 0 -81.333 14.667 -136 44c-19.333 10 -34.666 15 -45.999 15c-22 0 -33 -13.333 -33 -40c0 -2.66699 0.333008 -6.33398 1 -11.001h-115c14 104.667 60.667 157 140 157c23.333 0 56 -9.33301 98 -28l43 -19
c16 -7.33301 29.667 -11.333 41 -12c23.333 -1.33301 35 12.667 35 42c0 1.33301 -0.333008 4.33301 -1 9h115z" />
    <glyph glyph-name="ograve" horiz-adv-x="669" 
d="M341 942c172.667 0 259 -159.333 259 -478s-86.333 -478 -259 -478c-182 0 -273 159.333 -273 478s91 478 273 478zM339 833c-99.333 4.66699 -149 -118.333 -149 -369c0 -246 49.667 -369 149 -369c92.667 0 139 123 139 369c0 242 -46.333 365 -139 369zM240 1335
l184 -243l-73 -55l-213 213z" />
    <glyph glyph-name="otilde" horiz-adv-x="669" 
d="M341 942c172.667 0 259 -159.333 259 -478s-86.333 -478 -259 -478c-182 0 -273 159.333 -273 478s91 478 273 478zM339 833c-99.333 4.66699 -149 -118.333 -149 -369c0 -246 49.667 -369 149 -369c92.667 0 139 123 139 369c0 242 -46.333 365 -139 369zM577 1226
c-8.66699 -104.667 -56.333 -157 -143 -157c-35.333 0 -80.333 14.667 -135 44c-19.333 10 -34.666 15 -45.999 15c-22 0 -33 -13.333 -33 -40v-11h-115c14 104.667 60.667 157 140 157c24 0 56.667 -9.33301 98 -28l44 -19c15.333 -7.33301 28.666 -11.333 39.999 -12
c23.333 -1.33301 35 12.667 35 42v9h115z" />
    <glyph glyph-name="ugrave" horiz-adv-x="688" 
d="M102 928l117 0.000976562v-605c0 -88.667 8.66699 -148.834 26 -180.501s50.333 -47.5 99 -47.5c48 0 80.667 16 98 48s26 92 26 180v605h117v-704c0 -72.667 -21.667 -130.5 -65 -173.5s-102 -64.5 -176 -64.5c-74.667 0 -133.667 21.5 -177 64.5s-65 100.833 -65 173.5
v704zM243 1335l184 -243l-73 -55l-214 213z" />
    <glyph glyph-name="ucircumflex" horiz-adv-x="688" 
d="M102 928l117 0.000976562v-605c0 -88.667 8.66699 -148.834 26 -180.501s50.333 -47.5 99 -47.5c48 0 80.667 16 98 48s26 92 26 180v605h117v-704c0 -72.667 -21.667 -130.5 -65 -173.5s-102 -64.5 -176 -64.5c-74.667 0 -133.667 21.5 -177 64.5s-65 100.833 -65 173.5
v704zM344 1335l224 -219l-78 -79l-146 143l-147 -143l-77 79z" />
    <glyph glyph-name="cent" horiz-adv-x="749" 
d="M386 1173v165h102v-161c33.333 -8 61 -18.333 83 -31v-136c-39.333 41.333 -76.666 62 -111.999 62c-52.667 0 -93.334 -32.333 -122.001 -97s-43 -156 -43 -274c0 -113.333 14.5 -202.666 43.5 -267.999s68.5 -98 118.5 -98c36.667 0 75 27.667 115 83v-145
c-22 -17.333 -49.667 -31 -83 -41v-180h-102v181c-142.667 53.333 -214 207.666 -214 462.999c0 134.667 17.5 241 52.5 319s88.833 130.667 161.5 158z" />
    <glyph glyph-name="sterling" horiz-adv-x="749" 
d="M580 616l0.00292969 -86.001h-172c24.667 -50.667 37 -99.334 37 -146.001c0 -82.667 -25.667 -155.667 -77 -219c15.333 -8.66699 32.333 -19.667 51 -33c47.333 -33.333 84 -50 110 -50c39.333 0 62.666 33.333 69.999 100l107 -34c-5.33301 -56 -24.333 -101 -57 -135
s-73.334 -51 -122.001 -51c-38.667 0 -87.667 18.667 -147 56l-47 30c-35.333 22.667 -62.666 34 -81.999 34c-37.333 0 -66 -27.333 -86 -82l-105 62c47.333 93.333 106.666 140 177.999 140c6.66699 0 17 -1 31 -3c35.333 52.667 53 106.334 53 161.001
c0 62 -17 118.667 -51 170h-191v86h147c-92.667 146 -139 277.333 -139 394c0 96.667 29.333 176.167 88 238.5s133.334 93.5 224.001 93.5c79.333 0 146.666 -28.833 201.999 -86.5s83 -128.167 83 -211.5l-119 -23c0 58 -15.833 105.5 -47.5 142.5
s-72.834 55.5 -123.501 55.5c-54 0 -97 -19.167 -129 -57.5s-48 -90.166 -48 -155.499c0 -110 49.333 -240 148 -390h214z" />
    <glyph glyph-name="notequal" 
d="M562 898l111 233l89 -32l-96 -201h290v-109h-341l-95 -202h436v-109h-487l-116 -243l-88 32l99 211h-296v109h347l96 202h-443v109h494z" />
    <glyph glyph-name="AE" horiz-adv-x="946" 
d="M726 1365l21 -116h-293l88 -482h276l21 -116h-277l97 -535h286l19 -116h-422l-46 280h-310l-48 -280h-135l268 1365h455zM478 389l-97 577c-10.667 62 -20 134 -28 216l-3 37l-12 -83l-16 -100c-4 -28.667 -7.66699 -51 -11 -67l-104 -580h271z" />
    <glyph glyph-name="Oslash" horiz-adv-x="855" 
d="M703 1161c40 -106.667 59.999 -266.332 59.999 -478.999c0 -467.333 -110.333 -701 -331 -701c-97.333 0 -172.666 41 -225.999 123l-58 -121l-81 39l88 183c-42 111.333 -63 270.666 -63 477.999c0 467.333 113.333 701 340 701c93.333 0 166.333 -40.667 219 -122
l58 120l78 -39zM615.999 995.002l-340 -762c32.667 -85.333 83 -128 151 -128c73.333 0 126 45 158 135s48 237.667 48 443c0 111.333 -5.66699 215.333 -17 312zM240.999 368.002l342.999 765c-33.333 85.333 -85.666 128 -156.999 128c-138 0 -207 -192.667 -207 -578
c0 -108 7 -213 21 -315z" />
    <glyph glyph-name="infinity" horiz-adv-x="1365" 
d="M685 613c-104 -150.667 -217.333 -225.999 -340 -225.999c-90.667 0 -164.5 28.833 -221.5 86.5s-85.5 132.167 -85.5 223.5s28.667 165.833 86 223.5s131 86.5 221 86.5c123.333 0 235 -75.333 335 -226c101.333 150.667 215.333 226 342 226
c90 0 163.167 -29 219.5 -87s84.5 -133 84.5 -225c0 -90.667 -28.167 -164.834 -84.5 -222.501s-128.833 -86.5 -217.5 -86.5c-126.667 0 -239.667 75.667 -339 227zM744 697.001c87.333 -136.667 176.667 -205.001 268 -205.001c56 0 102 19.333 138 58
s54 88.334 54 149.001c0 58 -18.333 106.167 -55 144.5s-83 57.5 -139 57.5c-49.333 0 -93.5 -15 -132.5 -45s-83.5 -83 -133.5 -159zM620.001 696c-86 136.667 -175.333 205.001 -268 205.001c-56 0 -102 -19.333 -138 -58s-54 -88.334 -54 -149.001
c0 -58 18.5 -106.167 55.5 -144.5s83.167 -57.5 138.5 -57.5c89.333 0 178 68 266 204z" />
    <glyph glyph-name="lessequal" 
d="M955 1221v-118l-754 -332l754 -331v-118l-887 394v108zM955 261v-115h-887v115h887z" />
    <glyph glyph-name="greaterequal" 
d="M68 322v118l754 332l-754 331v118l887 -397v-109zM68 146v115h887v-115h-887z" />
    <glyph glyph-name="yen" horiz-adv-x="749" 
d="M524 855l193 0.00195312v-85h-221l-43 -134h264v-85h-277v-551h-116v551h-292v85h279l-46 134h-233v85h203l-176 510h131l129 -398c25.333 -78.667 46 -160.334 62 -245.001c12.667 73.333 33 156.666 61 249.999l117 393h131z" />
    <glyph glyph-name="partialdiff" 
d="M185 1264l15.999 110.999c122.667 -18 224.834 -46.667 306.501 -86s155.834 -95.666 222.501 -168.999c150.667 -166.667 226 -376.334 226 -629.001c0 -146.667 -36 -264.667 -108 -354c-86.667 -106.667 -197.667 -160 -333 -160c-122 0 -226.833 45.333 -314.5 136
s-131.5 199 -131.5 325c0 124.667 41.5 231.334 124.5 320.001s182.833 133 299.5 133c71.333 0 130.5 -12.167 177.5 -36.5s93.5 -66.833 139.5 -127.5l-12 31c-38 99.333 -76.167 175.5 -114.5 228.5s-90.833 102.167 -157.5 147.5
c-102.667 68.667 -216.334 112 -341.001 130zM522.999 795.999c-91.333 0 -169 -35.3311 -233 -105.998s-96 -156.334 -96 -257.001s31.5 -185.834 94.5 -255.501s140.167 -104.5 231.5 -104.5c87.333 0 161 36.167 221 108.5s90 160.833 90 265.5
c0 101.333 -29 184.833 -87 250.5s-131.667 98.5 -221 98.5z" />
    <glyph glyph-name="summation" horiz-adv-x="1365" 
d="M1215 1536v-458h-113l-10 342h-894l518 -866l-518 -951h913l6 338h117v-453h-1173v130l511 936l-511 856v126h1154z" />
    <glyph glyph-name="product" horiz-adv-x="1416" 
d="M74 1536h1268v-115h-161v-1818h161v-115h-453v115h169v1818h-701v-1818h169v-115h-452v115h160v1818h-160v115z" />
    <glyph glyph-name="pi" horiz-adv-x="1149" 
d="M204 0v870h-151v111h1044v-111h-149v-870h-123v870h-498v-870h-123z" />
    <glyph glyph-name="integral" 
d="M217 -490l29.001 110c33.333 -14 62.666 -21 87.999 -21c58.667 0 94.334 25.333 107.001 76c6 24 9 79 9 165v1323c0 132 7.33301 215.667 22 251c32.667 81.333 101.667 122 207 122c36 0 78.333 -7.33301 127 -22l-29 -110c-32.667 14 -61.667 21 -87 21
c-46 0 -76.833 -13.333 -92.5 -40s-23.5 -78.667 -23.5 -156l-1 -96v-1271c0 -98.667 -2.83301 -165.667 -8.5 -201s-17.834 -65.333 -36.501 -90c-42.667 -54 -110.667 -81 -204 -81c-38 0 -73.667 6.66699 -107 20z" />
    <glyph glyph-name="ordfeminine" horiz-adv-x="492" 
d="M55 583v67h382v-67h-382zM395 1365l-0.000976562 -603.001h-87v37c-27.333 -30 -59.333 -45 -96 -45c-54 0 -92.167 24.5 -114.5 73.5s-33.5 132.167 -33.5 249.5c0 104.667 12.167 180.334 36.5 227.001s63.833 70 118.5 70c34.667 0 64.334 -13.333 89.001 -40v31h87z
M234.999 1303c-54.667 0 -81.999 -70.334 -81.999 -211.001c0 -99.333 5.83301 -168.666 17.5 -207.999s32.5 -59 62.5 -59c31.333 0 52.666 17.167 63.999 51.5s17 99.833 17 196.5c0 86 -5.83301 145.833 -17.5 179.5s-32.167 50.5 -61.5 50.5z" />
    <glyph glyph-name="ordmasculine" horiz-adv-x="492" 
d="M55 583v67h382v-67h-382zM251 1373c115.333 0 173 -103.333 173 -310s-57.667 -310 -173 -310c-121.333 0 -182 103.333 -182 310s60.667 310 182 310zM249 1292c-60.667 0 -91 -76.333 -91 -229s30.333 -229 91 -229c56.667 0 85 76.333 85 229s-28.333 229 -85 229z
" />
    <glyph glyph-name="Omega" horiz-adv-x="1365" 
d="M58 0l0.000976562 114h384c-256 148.667 -384 358 -384 628c0 185.333 60.167 341.166 180.5 467.499s268.833 189.5 445.5 189.5c175.333 0 323.166 -63.167 443.499 -189.5s180.5 -282.166 180.5 -467.499c0 -270.667 -128 -480 -384 -628h384v-114h-531v104
c266.667 152 400 360 400 624c0 156 -47.833 287.833 -143.5 395.5s-212.5 161.5 -350.5 161.5c-140 0 -257.5 -53.5 -352.5 -160.5s-142.5 -239.167 -142.5 -396.5c0 -265.333 134 -473.333 402 -624v-104h-532z" />
    <glyph glyph-name="ae" horiz-adv-x="1052" 
d="M984 445l-409.998 -0.000976562c0 -109.333 14.5 -195 43.5 -257s68.833 -93 119.5 -93c38 0 67.833 20.167 89.5 60.5s32.5 95.5 32.5 165.5h112c0 -94.667 -23.333 -174.167 -70 -238.5s-104.334 -96.5 -173.001 -96.5c-86 0 -152.333 51.333 -199 154
c-19.333 -48 -49 -85.667 -89 -113s-85.333 -41 -136 -41c-72 0 -129.333 29.333 -172 88s-64 137.334 -64 236.001c0 96.667 20.667 172.167 62 226.5s98.666 81.5 171.999 81.5c68 0 123 -25 165 -75c0 192.667 -61 289 -183 289c-43.333 0 -97 -24.333 -161 -73v130
c54.667 35.333 111 53 169 53c110 0 189 -52 237 -156c18.667 48 46 86 82 114s75 42 117 42c82 0 145.167 -42.833 189.5 -128.5s66.5 -208.5 66.5 -368.5zM867.002 542.999c0 85.333 -13.667 155 -41 209s-62.333 81 -105 81c-42 0 -76.333 -27 -103 -81
s-40 -123.667 -40 -209h289zM324.002 521.999c-94.667 0 -142 -70.666 -142 -211.999c0 -143.333 46.667 -215 140 -215c44.667 0 80.5 18.667 107.5 56s40.5 86.666 40.5 147.999c0 148.667 -48.667 223 -146 223z" />
    <glyph glyph-name="oslash" horiz-adv-x="696" 
d="M570 777c29.333 -77.333 44.001 -181.668 44.001 -313.001c0 -318.667 -86.333 -478 -259 -478c-78.667 0 -141.334 31 -188.001 93l-52 -93l-66 39l77 134c-29.333 84.667 -44 186.334 -44 305.001c0 318.667 91 478 273 478c69.333 0 127 -29 173 -87l53 93l65 -39z
M479.001 636.998l-237 -454c24 -58.667 60.667 -88 110 -88c93.333 0 140 123 140 369c0 48 -4.33301 105.667 -13 173zM213.001 288.998l240 461c-22 55.333 -55.333 83 -100 83c-99.333 0 -149 -123 -149 -369c0 -48 3 -106.333 9 -175z" />
    <glyph glyph-name="questiondown" horiz-adv-x="679" 
d="M465 669l0.000976562 -440h-87c-59.333 0 -98.666 -17.5 -117.999 -52.5s-29 -107.167 -29 -216.5c0 -84.667 7.66699 -143 23 -175s42.666 -48 81.999 -48c74 0 111 56 111 168v85h122v-96c0 -178.667 -78.667 -268 -236 -268c-80.667 0 -138.334 24 -173.001 72
s-52 128.333 -52 241c0 148 17.5 251.667 52.5 311s95.833 89 182.5 89v330h122zM399.001 1024c25.333 0 47 -9 65 -27s27 -39.667 27 -65s-9 -47 -27 -65s-39.667 -27 -65 -27s-47 9 -65 27s-27 39.667 -27 65s9 47 27 65s39.667 27 65 27z" />
    <glyph glyph-name="exclamdown" horiz-adv-x="485" 
d="M303 669v-1024h-123v1024h123zM242 1024c25.333 0 47 -9 65 -27s27 -39.667 27 -65s-9 -47 -27 -65s-39.667 -27 -65 -27s-47 9 -65 27s-27 39.667 -27 65s9 47 27 65s39.667 27 65 27z" />
    <glyph glyph-name="radical" horiz-adv-x="1365" 
d="M1365 1697l0.000976562 -115h-410l-464 -1582h-146l-180 625h-165v115h265l84 -283c6 -20.667 16.333 -63.667 31 -129l27 -117l8 -34h8c5.33301 24 8.66602 38.667 9.99902 44l35 138l54 213l98 331l231 794h514z" />
    <glyph glyph-name="florin" horiz-adv-x="750" 
d="M472 882l-165.997 -936.998c-14.667 -84.667 -38.334 -145.334 -71.001 -182.001s-79.334 -55 -140.001 -55c-31.333 0 -66.666 7 -105.999 21l22 124c27.333 -24 54.333 -36 81 -36c48 0 79 41 93 123l166 942h-111l16 93h112l54 309
c15.333 85.333 39.166 146.166 71.499 182.499s79.166 54.5 140.499 54.5c40 0 75.333 -7 106 -21l-22 -124c-28 24 -55.333 36 -82 36c-47.333 0 -78.333 -41.333 -93 -124l-55 -313h159l-16 -93h-159z" />
    <glyph glyph-name="approxequal" 
d="M96 712l-75 49c38 78.667 79 135.667 123 171s95.667 53 155 53c49.333 0 125.666 -25 228.999 -75c95.333 -46 163.666 -69 204.999 -69c39.333 0 73 10.833 101 32.5s58.667 60.167 92 115.5l77 -45c-75.333 -147.333 -168.666 -221 -279.999 -221
c-50.667 0 -107 14.667 -169 44l-121 58c-60.667 28.667 -109.667 43 -147 43c-69.333 0 -132.666 -52 -189.999 -156zM96 387l-75 48.001c38.667 79.333 79.834 136.666 123.501 171.999s95.167 53 154.5 53c49.333 0 125.666 -25 228.999 -75
c95.333 -46 163.666 -69 204.999 -69c39.333 0 73 10.833 101 32.5s58.667 60.167 92 115.5l77 -46c-74.667 -146.667 -168 -220 -280 -220c-50 0 -106.333 14.667 -169 44l-121 58c-61.333 28.667 -110.333 43 -147 43c-69.333 0 -132.666 -52 -189.999 -156z" />
    <glyph glyph-name="Delta" horiz-adv-x="1365" 
d="M61 0l554 1365h131l558 -1365h-1243zM238 115h887l-444 1100z" />
    <glyph glyph-name="glyph172" horiz-adv-x="382" 
 />
    <glyph glyph-name="Agrave" horiz-adv-x="666" 
d="M391 1365l273 -1365h-135l-52 281h-289l-50 -281h-135l269 1365h119zM457 390l-89.999 482c-20 105.333 -33 212.333 -39 321c-8.66699 -132 -20.334 -239 -35.001 -321l-85 -482h249zM216.001 1758l184 -243l-73 -54l-213 212z" />
    <glyph glyph-name="Atilde" horiz-adv-x="666" 
d="M391 1365l273 -1365h-135l-52 281h-289l-50 -281h-135l269 1365h119zM457 390l-89.999 482c-20 105.333 -33 212.333 -39 321c-8.66699 -132 -20.334 -239 -35.001 -321l-85 -482h249zM569.001 1649c-8.66699 -104 -56.001 -156 -142.001 -156
c-35.333 0 -80.666 14.667 -135.999 44c-19.333 10 -34.666 15 -45.999 15c-22 0 -33 -13.333 -33 -40v-11h-114c14 104 60.333 156 139 156c24 0 56.667 -9 98 -27l44 -20c15.333 -6.66699 28.666 -10.334 39.999 -11.001c23.333 -1.33301 35 12.334 35 41.001v9h115z" />
    <glyph glyph-name="Otilde" horiz-adv-x="827" 
d="M419 1384c220.667 0 331 -233.667 331 -701c0 -468 -110.333 -702 -331 -702c-227.333 0 -341 234 -341 702c0 467.333 113.667 701 341 701zM414 1261c-137.333 0 -206 -192.667 -206 -578s68.667 -578 206 -578c73.333 0 126 45 158 135s48 237.667 48 443
s-16 353 -48 443s-84.667 135 -158 135zM658 1649c-8.66699 -104 -56.334 -156 -143.001 -156c-34.667 0 -79.667 14.667 -135 44c-19.333 10 -34.666 15 -45.999 15c-22 0 -33 -13.333 -33 -40v-11h-115c14.667 104 61.334 156 140.001 156c24 0 56.667 -9 98 -27l44 -20
c15.333 -6.66699 28.666 -10.334 39.999 -11.001c23.333 -1.33301 35 12.334 35 41.001v9h115z" />
    <glyph glyph-name="OE" horiz-adv-x="1107" 
d="M608 0l-0.000976562 142c-48 -108 -120.333 -162 -217 -162c-208.667 0 -313 238.333 -313 715c0 459.333 108 689 324 689c84.667 0 153.334 -47 206.001 -141v122h422v-116h-301v-482h293v-116h-293v-535h301v-116h-422zM409.999 1261c-51.333 0 -91 -23.333 -119 -70
c-25.333 -42 -45.833 -113.167 -61.5 -213.5s-23.5 -210.833 -23.5 -331.5c0 -184 16.167 -320.167 48.5 -408.5s82.5 -132.5 150.5 -132.5c69.333 0 119.833 43 151.5 129s47.5 223.333 47.5 412c0 212 -15.5 367.5 -46.5 466.5s-80.167 148.5 -147.5 148.5z" />
    <glyph glyph-name="oe" horiz-adv-x="1041" 
d="M972 444h-399.998c0 -106.667 14.333 -191.5 43 -254.5s67 -94.5 115 -94.5c76 0 114 65.667 114 197l-1 27h110v-26c0 -90 -21.333 -163.667 -64 -221s-97.334 -86 -164.001 -86c-48.667 0 -91.334 17.333 -128.001 52s-63 82.334 -79 143.001
c-32.667 -130 -99 -195 -199 -195c-78 0 -139.333 42.667 -184 128s-67 202.666 -67 351.999c0 148.667 22.5 265.167 67.5 349.5s107.167 126.5 186.5 126.5c47.333 0 88.333 -17.167 123 -51.5s59 -81.833 73 -142.5c13.333 58 39.333 104.833 78 140.5s83 53.5 133 53.5
c99.333 0 170.333 -68 213 -204c20 -65.333 30 -163.333 30 -294zM860.002 542l1 17.999c0 78 -13.333 142.833 -40 194.5s-60 77.5 -100 77.5c-42 0 -76.833 -25.167 -104.5 -75.5s-41.5 -114.166 -41.5 -191.499v-23h285zM323.002 831.999
c-44.667 0 -79.667 -32.332 -105 -96.999s-38 -154.334 -38 -269.001c0 -111.333 13 -201 39 -269s60.333 -102 103 -102c44 0 78.667 32 104 96s38 153 38 267c0 249.333 -47 374 -141 374z" />
    <glyph glyph-name="lozenge" horiz-adv-x="1365" 
d="M683 1419l531 -736l-531 -736l-532 736zM683 1162l-349 -479l349 -478l348 478z" />
    <glyph glyph-name="ydieresis" horiz-adv-x="601" 
d="M588 928l-319 -1264h-125l92 361l-222 903h120l117 -515c20 -90.667 34 -168.334 42 -233.001c3.33301 26 10 61 20 105l16 71l10 40l126 532h123zM173 1235c25.333 0 46.5 -8.5 63.5 -25.5s25.5 -38.167 25.5 -63.5c0 -24 -8.66699 -44.667 -26 -62s-38.333 -26 -63 -26
c-24 0 -44.667 8.66699 -62 26s-26 38 -26 62c0 24.667 8.66699 45.667 26 63s38 26 62 26zM428 1235c24 0 44.667 -8.66699 62 -26s26 -38.333 26 -63c0 -24 -8.66699 -44.667 -26 -62s-38 -26 -62 -26c-24.667 0 -45.667 8.66699 -63 26s-26 38 -26 62
c0 24.667 8.66699 45.667 26 63s38.333 26 63 26z" />
    <glyph glyph-name="Ydieresis" horiz-adv-x="648" 
d="M645 1365l-250 -767v-598h-127v598l-265 767h136l129 -398c24.667 -75.333 45.667 -157 63 -245c12.667 74 32.667 157.333 60 250l118 393h136zM193 1658c24 0 44.667 -8.66699 62 -26s26 -38.333 26 -63c0 -24 -8.66699 -44.667 -26 -62s-38 -26 -62 -26
c-24.667 0 -45.667 8.66699 -63 26s-26 38 -26 62c0 24.667 8.66699 45.667 26 63s38.333 26 63 26zM455 1658c24 0 44.667 -8.66699 62 -26s26 -38.333 26 -63c0 -24 -8.66699 -44.667 -26 -62s-38 -26 -62 -26c-24.667 0 -45.667 8.66699 -63 26s-26 38 -26 62
c0 24.667 8.66699 45.667 26 63s38.333 26 63 26z" />
    <glyph glyph-name="fraction" horiz-adv-x="237" 
d="M456 1365l-590 -1365h-84l592 1365h82z" />
    <glyph glyph-name="fi" horiz-adv-x="716" 
d="M414 928v-109h-160v-819h-117v819h-105v109h105v342c0 158 56.333 237 169 237c38.667 0 74.667 -7 108 -21v-128c-33.333 26.667 -61.333 40 -84 40c-28.667 0 -48.5 -9.33301 -59.5 -28s-16.5 -51.667 -16.5 -99v-343h160zM614 928v-928h-117v928h117zM555 1290
c24.667 0 45.5 -8.5 62.5 -25.5s25.5 -37.833 25.5 -62.5c0 -24 -8.5 -44.5 -25.5 -61.5s-37.833 -25.5 -62.5 -25.5c-24 0 -44.5 8.5 -61.5 25.5s-25.5 37.5 -25.5 61.5c0 24.667 8.5 45.5 25.5 62.5s37.5 25.5 61.5 25.5z" />
    <glyph glyph-name="fl" horiz-adv-x="716" 
d="M414 928v-109h-160v-819h-117v819h-105v109h105v342c0 158 56.333 237 169 237c38.667 0 74.667 -6.66699 108 -20v-129c-33.333 26.667 -61.333 40 -84 40c-28.667 0 -48.5 -9.33301 -59.5 -28s-16.5 -51.667 -16.5 -99v-343h160zM614 1494v-1494h-117v1494h117z" />
    <glyph glyph-name="Ecircumflex" horiz-adv-x="617" 
d="M540 1365v-116h-301v-482h292v-116h-292v-535h301v-116h-428v1365h428zM323 1759l234 -220l-83 -78l-151 142l-152 -142l-76 78z" />
    <glyph glyph-name="Egrave" horiz-adv-x="617" 
d="M539 1365v-116h-300v-482h292v-116h-292v-535h300v-116h-427v1365h427zM258 1758l184 -243l-73 -54l-214 212z" />
    <glyph glyph-name="Idieresis" horiz-adv-x="351" 
d="M239 1365v-1365h-127v1365h127zM52 1658c24.667 0 45.667 -8.66699 63 -26s26 -38.333 26 -63c0 -24 -8.66699 -44.667 -26 -62s-38.333 -26 -63 -26c-24 0 -44.667 8.66699 -62 26s-26 38 -26 62c0 24.667 8.66699 45.667 26 63s38 26 62 26zM299 1658
c24 0 44.667 -8.66699 62 -26s26 -38.333 26 -63c0 -24 -8.66699 -44.667 -26 -62s-38 -26 -62 -26c-24.667 0 -45.667 8.66699 -63 26s-26 38 -26 62c0 24.667 8.66699 45.667 26 63s38.333 26 63 26z" />
    <glyph glyph-name="Igrave" horiz-adv-x="351" 
d="M238 1365v-1365h-127v1365h127zM80 1758l170 -243l-73 -54l-200 215z" />
    <glyph glyph-name="apple" horiz-adv-x="382" 
 />
    <glyph glyph-name="Ograve" horiz-adv-x="827" 
d="M419 1384c220.667 0 331 -233.667 331 -701c0 -468 -110.333 -702 -331 -702c-227.333 0 -341 234 -341 702c0 467.333 113.667 701 341 701zM414 1261c-137.333 0 -206 -192.667 -206 -578s68.667 -578 206 -578c73.333 0 126 45 158 135s48 237.667 48 443
s-16 353 -48 443s-84.667 135 -158 135zM319 1758l184 -243l-74 -54l-213 212z" />
    <glyph glyph-name="Ucircumflex" horiz-adv-x="799" 
d="M687 1365l0.000976562 -954.998c0 -148.667 -14.667 -248.667 -44 -300c-50 -86 -131 -129 -243 -129c-112.667 0 -194 43 -244 129c-29.333 51.333 -44 151.333 -44 300v955h127v-946c0 -84.667 2.33301 -143.334 7 -176.001s14.667 -59.334 30 -80.001
c27.333 -38.667 68.666 -58 123.999 -58c54.667 0 95.667 19.333 123 58c24.667 34 37 119.333 37 256v946h127zM397.001 1759l235 -220l-83 -78l-152 142l-151 -142l-76 78z" />
    <glyph glyph-name="Ugrave" horiz-adv-x="799" 
d="M687 1365l0.000976562 -954.998c0 -148.667 -14.667 -248.667 -44 -300c-50 -86 -131 -129 -243 -129c-112.667 0 -194 43 -244 129c-29.333 51.333 -44 151.333 -44 300v955h127v-946c0 -84.667 2.33301 -143.334 7 -176.001s14.667 -59.334 30 -80.001
c27.333 -38.667 68.666 -58 123.999 -58c54.667 0 95.667 19.333 123 58c24.667 34 37 119.333 37 256v946h127zM304.001 1758l184 -243l-73 -54l-214 212z" />
    <glyph glyph-name="dotlessi" horiz-adv-x="322" 
d="M219 928v-928h-117v928h117z" />
    <glyph glyph-name="circumflex" 
d="M512 1335l224 -219l-77 -79l-147 143l-146 -143l-78 79z" />
    <glyph glyph-name="tilde" 
d="M748 1226c-8.66699 -104.667 -56.335 -156.999 -143.002 -156.999c-35.333 0 -80.666 14.667 -135.999 44c-19.333 10 -34.666 15 -45.999 15c-22 0 -33 -13.333 -33 -40c0 -2.66699 0.333008 -6.33398 1 -11.001h-115c14 104.667 60.667 157 140 157
c23.333 0 56 -9.33301 98 -28l43 -19c16 -7.33301 29.667 -11.333 41 -12c23.333 -1.33301 35 12.667 35 42c0 2 -0.333008 5 -1 9h116z" />
    <glyph glyph-name="macron" 
d="M298 1086v109h427v-109h-427z" />
    <glyph glyph-name="ring" 
d="M512 1351c43.333 0 80.333 -15.333 111 -46s46 -67.667 46 -111s-15.333 -80.333 -46 -111s-67.667 -46 -111 -46s-80.333 15.333 -111 46s-46 67.667 -46 111s15.333 80.333 46 111s67.667 46 111 46zM512 1269c-20.667 0 -38.334 -7.33301 -53.001 -22
s-22 -32.334 -22 -53.001s7.33301 -38.334 22 -53.001s32.334 -22 53.001 -22s38.334 7.33301 53.001 22s22 32.334 22 53.001s-7.33301 38.334 -22 53.001s-32.334 22 -53.001 22z" />
    <glyph glyph-name="eth" horiz-adv-x="669" 
d="M503 1461l50.999 -75.998l-117 -74c62 -76 104.667 -174.833 128 -296.5s35 -304.834 35 -549.501c0 -319.333 -86.333 -479 -259 -479c-182 0 -273 160 -273 480c0 151.333 23.167 268.5 69.5 351.5s111.833 124.5 196.5 124.5c58.667 0 102 -23.333 130 -70
c-10 106 -22.667 184.167 -38 234.5s-40.666 99.5 -75.999 147.5l-137 -90l-48 76l116 79c-44 36 -102.667 69.667 -176 101l48 73c74.667 -26.667 145.667 -65.334 213 -116.001zM338.999 832.002c-99.333 4.66699 -149 -118 -149 -368c0 -246 49.667 -369 149 -369
c92.667 0 139 123 139 369c0 241.333 -46.333 364 -139 368z" />
    <glyph glyph-name="Thorn" horiz-adv-x="673" 
d="M239 0h-127v1365h127v-239h37c126.667 0 216.167 -27.667 268.5 -83s78.5 -149.666 78.5 -282.999c0 -126.667 -24.833 -215.834 -74.5 -267.501s-135.167 -77.5 -256.5 -77.5h-53v-415zM239 1010v-479h84c62.667 0 106.667 17 132 51s38 93 38 177
c0 94 -14 159.333 -42 196s-77.667 55 -149 55h-63z" />
    <glyph glyph-name="thorn" horiz-adv-x="666" 
d="M102 1494h117v-629c42 51.333 91 77 147 77c81.333 0 140.166 -36 176.499 -108s54.5 -188.333 54.5 -349c0 -182 -16.667 -310.667 -50 -386s-90.333 -113 -171 -113c-59.333 0 -111.666 29 -156.999 87v-428h-117v1849zM339 846
c-48.667 0 -82.667 -27.334 -102 -82.001s-29 -150 -29 -286c0 -153.333 9.5 -257.666 28.5 -312.999s54.833 -83 107.5 -83c48.667 0 82.667 29.333 102 88s29 162.667 29 312c0 129.333 -10.667 222.333 -32 279s-56 85 -104 85z" />
    <glyph glyph-name="onesuperior" horiz-adv-x="519" 
d="M317 1365v-819h-91v736h-112l20 83h183z" />
    <glyph glyph-name="twosuperior" horiz-adv-x="517" 
d="M427 629v-83h-366l180 350c69.333 134.667 104 232.667 104 294c0 70 -28.333 105 -85 105c-61.333 0 -92 -48.333 -92 -145v-17h-90c0 162.667 59.333 244 178 244c56.667 0 101.167 -17 133.5 -51s48.5 -81 48.5 -141c0 -71.333 -38 -178.333 -114 -321l-126 -235h229z
" />
    <glyph glyph-name="threesuperior" horiz-adv-x="517" 
d="M168 1165l-85.999 -0.00292969c0 141.333 55.667 212 167 212c118.667 0 178 -63.333 178 -190c0 -49.333 -6.33301 -87.5 -19 -114.5s-35.667 -51.5 -69 -73.5c36 -21.333 61.5 -48.666 76.5 -81.999s22.5 -79.666 22.5 -138.999c0 -161.333 -62.333 -242 -187 -242
c-120 0 -180 70.333 -180 211l1 33h90c0 -59.333 6.66699 -100.666 20 -123.999s36.666 -35 69.999 -35c64 0 96 52.333 96 157c0 118 -45.333 177 -136 177h-44v79h39c46.667 0 80 10.667 100 32s30 57.333 30 108c0 78 -28.333 117 -85 117c-56 0 -84 -42 -84 -126z" />
    <glyph glyph-name="onehalf" horiz-adv-x="1273" 
d="M317 1365v-819h-91v736h-112l20 83h183zM974 1365l-590 -1365h-84l592 1365h82zM1183 83v-83.001h-366l180 351c69.333 134.667 104 232.334 104 293.001c0 70 -28.333 105 -85 105c-61.333 0 -92 -48.333 -92 -145v-17h-90c0 162 59.333 243 178 243
c56.667 0 101.167 -17 133.5 -51s48.5 -80.667 48.5 -140c0 -71.333 -38 -178.333 -114 -321l-126 -235h229z" />
    <glyph glyph-name="onequarter" horiz-adv-x="1273" 
d="M317 1365v-819h-91v736h-112l20 83h183zM974 1365l-590 -1365h-84l592 1365h82zM1138 819v-521h63v-81h-63v-217h-91v217h-226v84l228 518h89zM1047 298v247c0 19.333 1.33301 49 4 89c-8.66699 -22.667 -15 -38.667 -19 -48l-13 -32l-107 -256h135z" />
    <glyph glyph-name="threequarters" horiz-adv-x="1271" 
d="M168 1165l-85.999 -0.00292969c0 141.333 55.667 212 167 212c118.667 0 178 -63.333 178 -190c0 -49.333 -6.33301 -87.5 -19 -114.5s-35.667 -51.5 -69 -73.5c36 -21.333 61.5 -48.666 76.5 -81.999s22.5 -79.666 22.5 -138.999c0 -161.333 -62.333 -242 -187 -242
c-120 0 -180 70.333 -180 211l1 33h90c0 -59.333 6.66699 -100.666 20 -123.999s36.666 -35 69.999 -35c64 0 96 52.333 96 157c0 118 -45.333 177 -136 177h-44v79h39c46.667 0 80 10.667 100 32s30 57.333 30 108c0 78 -28.333 117 -85 117c-56 0 -84 -42 -84 -126z
M972.001 1365l-590 -1365h-84l592 1365h82zM1135 818.997v-521h63v-81h-63v-217h-91v217h-226v84l228 518h89zM1044 297.997v247c0 19.333 1.33301 49 4 89c-8.66699 -22.667 -15 -38.667 -19 -48l-13 -32l-107 -256h135z" />
    <glyph glyph-name="franc" horiz-adv-x="751" 
d="M548 1365v-116h-309v-482h292v-116h-292v-651h-127v1365h436zM513 582l109 -0.000976562v-86c30.667 70.667 72 107 124 109v-122c-10 0.666992 -18.667 1 -26 1c-36 0 -61.333 -12.667 -76 -38s-22 -69.666 -22 -132.999v-313h-109v582z" />
    <glyph glyph-name="Gbreve" horiz-adv-x="766" 
d="M376 721l313 -0.00195312v-275c0 -134 -11.333 -229.667 -34 -287c-46.667 -118.667 -132.667 -178 -258 -178c-117.333 0 -199.833 54.833 -247.5 164.5s-71.5 300.5 -71.5 572.5c0 232.667 26 401.834 78 507.501s135.333 158.5 250 158.5
c74.667 0 134.167 -20.333 178.5 -61s78.5 -106 102.5 -196l-125 -49c-25.333 122 -75 183 -149 183c-72.667 0 -125 -41.833 -157 -125.5s-48 -220.167 -48 -409.5c0 -231.333 14.667 -392.666 44 -483.999s80.666 -137 153.999 -137c62.667 0 104.334 24.833 125.001 74.5
s31 149.5 31 299.5v126h-186v116zM523 1712h112.999c-5.33301 -75.333 -28.333 -134.833 -69 -178.5s-92.667 -65.5 -156 -65.5c-64 0 -116.167 21.833 -156.5 65.5s-63.166 103.167 -68.499 178.5h112c16 -88 51.333 -132 106 -132c62 0 101.667 44 119 132z" />
    <glyph glyph-name="gbreve" horiz-adv-x="686" 
d="M583 928l0.000976562 -984.001c0 -113.333 -15.667 -190.666 -47 -231.999c-40.667 -54 -105.334 -81 -194.001 -81c-160.667 0 -241 85.333 -241 256c0 6.66699 0.333008 19 1 37h117c0 -66 9.5 -113.167 28.5 -141.5s50.833 -42.5 95.5 -42.5
c46 0 77.833 13.167 95.5 39.5s26.5 73.5 26.5 141.5l1 71v73c-42.667 -43.333 -93 -65 -151 -65c-80.667 0 -140 38.167 -178 114.5s-57 195.833 -57 358.5c0 312.667 77.667 469 233 469c58.667 0 109.667 -26 153 -78v64h117zM334.001 845.999
c-46.667 0 -80.333 -30 -101 -90s-31 -158.333 -31 -295c0 -129.333 11.333 -222.5 34 -279.5s59.667 -85.5 111 -85.5c48.667 0 82.5 27.167 101.5 81.5s28.5 151.5 28.5 291.5s-10.5 237.833 -31.5 293.5s-58.167 83.5 -111.5 83.5zM461.002 1289h108.996
c-7.33301 -77.333 -30.166 -137.333 -68.499 -180s-88.5 -64 -150.5 -64c-61.333 0 -111.166 21.333 -149.499 64s-61.166 102.667 -68.499 180h109c14.667 -88 49 -132 103 -132c60.667 0 99.334 44 116.001 132z" />
    <glyph glyph-name="Idot" horiz-adv-x="351" 
d="M240 1365v-1365h-127v1365h127zM177 1667c26 0 47.999 -8.99902 65.999 -26.999s27 -40 27 -66s-9 -48 -27 -66s-40 -27 -66 -27c-25.333 0 -47.166 9.16699 -65.499 27.5s-27.5 40.166 -27.5 65.499c0 26 9 48 27 66s40 27 66 27z" />
    <glyph glyph-name="glyph277" horiz-adv-x="465" 
d="M170 1112v-40l11 12c23.333 24 53 36 89 36c82.667 0 124 -54.333 124 -163v-411h-100v400c0 36 -3.5 60.167 -10.5 72.5s-20.833 18.5 -41.5 18.5c-48 0 -72 -38.333 -72 -115v-376h-100v566h100z" />
    <glyph glyph-name="glyph297" horiz-adv-x="1211" 
d="M239 0h-127v1365h164c126.667 0 216.167 -27.667 268.5 -83s78.5 -149.666 78.5 -282.999c0 -126.667 -24.833 -215.834 -74.5 -267.501s-135.167 -77.5 -256.5 -77.5h-53v-654zM239 1249v-479h84c62.667 0 106.667 17 132 51s38 93 38 177c0 94 -14 159.333 -42 196
s-77.667 55 -149 55h-63zM823 595v-104h-95v-491h-109v491h-55v104h55v164h109v-164h95zM1168 571l-0.000976562 -114c-40 38.667 -81.333 58 -124 58c-45.333 0 -68 -21.333 -68 -64c0 -34 30.667 -73.333 92 -118c46.667 -34.667 78 -63.334 94 -86.001s24 -50 24 -82
c0 -51.333 -17.833 -93.666 -53.5 -126.999s-81.167 -50 -136.5 -50c-44 0 -88 13 -132 39v109c47.333 -37.333 90.333 -56 129 -56c53.333 0 80 27 80 81c0 32.667 -31.333 73.334 -94 122.001c-76.667 60.667 -115 118 -115 172c0 43.333 16.833 79.666 50.5 108.999
s75.5 44 125.5 44c42.667 0 85.334 -12.333 128.001 -37z" />
    <glyph glyph-name="glyph298" horiz-adv-x="377" 
d="M188 784c24 0 44.5 -8.5 61.5 -25.5s25.5 -37.833 25.5 -62.5c0 -24 -8.5 -44.5 -25.5 -61.5s-37.5 -25.5 -61.5 -25.5s-44.667 8.5 -62 25.5s-26 37.5 -26 61.5c0 24.667 8.5 45.5 25.5 62.5s37.833 25.5 62.5 25.5z" />
    <glyph glyph-name="glyph299" horiz-adv-x="563" 
d="M219 1494v-1494h-117v1494h117zM442 823c33.333 0 61.666 -11.667 84.999 -35s35 -51.666 35 -84.999s-11.667 -61.666 -35 -84.999s-51.666 -35 -84.999 -35s-61.666 11.667 -84.999 35s-35 51.666 -35 84.999s11.667 61.666 35 84.999s51.666 35 84.999 35z" />
    <glyph glyph-name="glyph300" horiz-adv-x="538" 
d="M239 1365v-1249h296v-116h-423v1365h127zM444 823c33.333 0 61.666 -11.667 84.999 -35s35 -51.666 35 -84.999s-11.667 -61.666 -35 -84.999s-51.666 -35 -84.999 -35s-61.666 11.667 -84.999 35s-35 51.666 -35 84.999s11.667 61.666 35 84.999s51.666 35 84.999 35z
" />
    <glyph glyph-name="glyph301" horiz-adv-x="1365" 
d="M27 636l0.000976562 104h1024c-22 29.333 -45.167 68.5 -69.5 117.5s-36.5 81.167 -36.5 96.5c0 19.333 10 29 30 29c11.333 0 27 -11.667 47 -35c70.667 -81.333 160.334 -152 269.001 -212c32 -18 47.667 -33 47 -45s-7.33398 -21.333 -20.001 -28l-13 -8
c-8.66699 -4.66699 -17.334 -9.66699 -26.001 -15l-32 -20c-96 -60.667 -175.667 -128 -239 -202c-10.667 -13.333 -22 -20 -34 -20c-19.333 0 -29 10.667 -29 32c0 15.333 10.5 43.5 31.5 84.5s45.833 81.5 74.5 121.5h-1024z" />
    <glyph glyph-name="glyph302" horiz-adv-x="1365" 
d="M1338 744v-104h-1024c21.333 -26.667 44.333 -65 69 -115s37 -82.667 37 -98c0 -19.333 -9.66699 -29 -29 -29c-12 0 -28 11.667 -48 35c-71.333 82.667 -161 153.667 -269 213c-31.333 17.333 -47 31.333 -47 42c0 12.667 6.66699 23 20 31l14 7
c122 69.333 220.667 148.666 296 237.999c10.667 12.667 22 19 34 19c19.333 0 29 -10.667 29 -32c0 -16 -10.5 -44.667 -31.5 -86s-45.833 -81.666 -74.5 -120.999h1024z" />
    <glyph glyph-name="glyph303" horiz-adv-x="1365" 
d="M312 635c28.667 -38.667 53.6689 -78.334 75.002 -119.001s32.333 -69.667 33 -87c0.666992 -21.333 -9 -32 -29 -32c-12 0 -23.333 6.66699 -34 20l-16 19c-60 72 -153.333 145 -280 219l-13 8c-14 8 -21 18 -21 30c0 11.333 15.667 25.666 47 42.999
c108 58.667 198 129.667 270 213c20 23.333 35.333 35 46 35c20 0 30 -9.66699 30 -29c0 -16 -12.333 -48.5 -37 -97.5s-48.334 -88.5 -71.001 -118.5h739c-22 28.667 -45.167 68 -69.5 118s-36.5 82.667 -36.5 98c0 19.333 10 29 30 29c11.333 0 27 -11.667 47 -35
c72 -84 161.667 -155 269 -213c32 -17.333 47.667 -32.333 47 -45c-0.666992 -11.333 -7.33398 -20.666 -20.001 -27.999l-13 -8c-70.667 -40.667 -127.5 -78.167 -170.5 -112.5s-85.167 -76.166 -126.5 -125.499c-10.667 -13.333 -22 -20 -34 -20
c-19.333 0 -29 10.667 -29 32c0 14 9.83301 41 29.5 81s41.5 76.333 65.5 109l11 16h-739z" />
    <glyph glyph-name="glyph304" horiz-adv-x="1371" 
d="M742 27l-108.996 -0.000976562v1024c-26.667 -21.333 -64.834 -44.5 -114.501 -69.5s-82.167 -37.5 -97.5 -37.5c-19.333 0 -29 10.333 -29 31c0 10.667 11.667 26 35 46c78 68 148.667 158 212 270c17.333 31.333 32 47 44 47c13.333 0 24 -6.66699 32 -20l8 -14
c1.33301 -2 6.66602 -10.667 15.999 -26c4 -5.33301 10.667 -15.666 20 -30.999c58.667 -96 126 -176 202 -240c13.333 -10.667 19.666 -22 18.999 -34c-0.666992 -19.333 -11.334 -29 -32.001 -29c-14 0 -40.5 9.83301 -79.5 29.5s-75.833 41.5 -110.5 65.5l-16 12v-1024z
" />
    <glyph glyph-name="glyph305" horiz-adv-x="1365" 
d="M626 1338l109.002 -0.000976562v-1024c27.333 22 65.833 45.333 115.5 70s82.167 37 97.5 37c19.333 0 29 -10.333 29 -31c0 -10.667 -11.667 -26 -35 -46c-78.667 -68.667 -149.334 -158.667 -212.001 -270c-18 -31.333 -33 -47 -45 -47c-12.667 0 -23.334 7 -32.001 21
l-7 13c-2 2.66699 -7.66699 11.334 -17 26.001l-20 32c-58.667 95.333 -125.667 175 -201 239c-13.333 10.667 -20 22 -20 34c0 19.333 10.667 29 32 29c14 0 40.833 -10 80.5 -30s76.167 -41.667 109.5 -65l16 -12v1024z" />
    <glyph glyph-name="glyph306" horiz-adv-x="1365" 
d="M739 312l16 11.999c32.667 23.333 68.5 45 107.5 65s66.5 30.333 82.5 31c21.333 0.666992 32 -9 32 -29c0 -12 -6.33301 -23.333 -19 -34l-19 -16c-63.333 -52.667 -124.333 -127 -183 -223c-9.33301 -15.333 -16 -26 -20 -32c-8.66699 -14 -14 -22.333 -16 -25l-8 -13
c-8 -14 -18.667 -21 -32 -21c-11.333 0 -26 15.667 -44 47c-64 112.667 -134.667 202.667 -212 270c-23.333 20 -35 35.333 -35 46c0 20 9.66699 30 29 30c15.333 0 47.833 -12.667 97.5 -38s87.834 -48.666 114.501 -69.999v739
c-26.667 -21.333 -64.834 -44.5 -114.501 -69.5s-82.167 -37.5 -97.5 -37.5c-19.333 0 -29 10 -29 30c0 11.333 11.667 27 35 47c78.667 68 149.334 158 212.001 270c17.333 31.333 32 47 44 47c14 0 24.667 -6.66699 32 -20l8 -14l16 -26
c4.66699 -6 11.334 -16.333 20.001 -31c60 -97.333 127.333 -177.333 202 -240c13.333 -10.667 19.666 -22 18.999 -34c-0.666992 -19.333 -11.334 -29 -32.001 -29c-14 0 -40.5 9.83301 -79.5 29.5s-75.833 41.5 -110.5 65.5l-16 12v-739z" />
    <glyph glyph-name="glyph307" horiz-adv-x="1365" 
d="M741 312l16.0039 12c31.333 23.333 66.166 45 104.499 65s65.166 30.333 80.499 31c21.333 1.33301 32 -8.33398 32 -29.001c0 -12 -6.33301 -23.333 -19 -34l-19 -16c-60.667 -52 -120 -126.333 -178 -223c-8.66699 -14.667 -15.334 -25.334 -20.001 -32.001
c-10 -16 -15.333 -24.333 -16 -25l-8 -13c-8 -14 -18.667 -21 -32 -21c-11.333 0 -26 15.667 -44 47c-64 112 -134.667 202 -212 270c-23.333 20 -35 35.333 -35 46c0 20 9.66699 30 29 30c15.333 0 47.833 -12.667 97.5 -38s87.834 -48.666 114.501 -69.999v739
c-26.667 -21.333 -64.834 -44.5 -114.501 -69.5s-82.167 -37.5 -97.5 -37.5c-19.333 0 -29 10 -29 30c0 11.333 11.667 27 35 47c78.667 68.667 149.334 158.667 212.001 270c17.333 31.333 32 47 44 47c13.333 0 24 -6.66699 32 -20l8 -14
c1.33301 -2 6.66602 -10.667 15.999 -26c4.66699 -6.66699 11.334 -17 20.001 -31c58.667 -98 124.334 -178 197.001 -240c13.333 -11.333 19.666 -22.666 18.999 -33.999c-0.666992 -19.333 -11.334 -29 -32.001 -29c-13.333 0 -39.333 9.83301 -78 29.5
s-74.334 41.5 -107.001 65.5l-16 12v-739zM412.004 -132h541v-96h-541v96z" />
    <glyph glyph-name="glyph308" 
d="M68 1036h887v-111h-887v111zM68 743h887v-111h-887v111zM68 450h887v-111h-887v111z" />
    <glyph glyph-name="glyph309" horiz-adv-x="1149" 
d="M1062 0l-122.996 0.000976562v649c0 138.667 -4.16699 237.5 -12.5 296.5s-24.833 107.833 -49.5 146.5c-32 49.333 -75.333 88.666 -130 117.999s-112 44 -172 44c-58.667 0 -115 -14.167 -169 -42.5s-96.667 -65.833 -128 -112.5c-26 -40 -43.667 -90.667 -53 -152
s-14 -160.666 -14 -297.999v-649h-123v643c0 171.333 5.16699 288.166 15.5 350.499s34.166 119.5 71.499 171.5c95.333 133.333 228.666 200 399.999 200s304.666 -66.667 399.999 -200c37.333 -52 61.166 -109.5 71.499 -172.5s15.5 -179.5 15.5 -349.5v-643z" />
    <glyph glyph-name="glyph310" 
d="M0 -122h1024v-81h-1024v81zM0 -360h1024v-82h-1024v82z" />
    <glyph glyph-name="glyph311" 
d="M0 1753h1024v-111h-1024v111z" />
    <glyph glyph-name="glyph312" horiz-adv-x="825" 
d="M267 1365v-363l-28 -628h-75l-27 626v365h130zM269 225v-225h-134v225h134zM688 1365v-363l-27 -628h-76l-27 626v365h130zM690 225v-225h-134v225h134z" />
    <glyph glyph-name="glyph313" horiz-adv-x="1040" 
d="M176 0v1365h919v-114h-789v-1251h-130z" />
    <glyph glyph-name="glyph314" horiz-adv-x="1423" 
d="M994 766v-98h-564v98h564zM731 1394c189.333 0 341 -67.332 455 -201.999s171 -313.667 171 -537c0 -202 -58.833 -366.5 -176.5 -493.5s-270.167 -190.5 -457.5 -190.5c-201.333 0 -361 63.5 -479 190.5s-177 298.833 -177 515.5c0 223.333 59 398.666 177 525.999
s280.333 191 487 191zM725 1282c-165.333 0 -294.499 -53.167 -387.499 -159.5s-139.5 -253.5 -139.5 -441.5c0 -186 46.333 -331.833 139 -437.5s220.667 -158.5 384 -158.5c150.667 0 272.5 53.167 365.5 159.5s139.5 245.5 139.5 417.5c0 189.333 -45.333 340 -136 452
s-212.334 168 -365.001 168z" />
    <glyph glyph-name="glyph315" horiz-adv-x="1354" 
d="M613 -20l0.000976562 170.002c-138.667 6.66699 -250.334 41 -335.001 103c-138 100.667 -207 244 -207 430c0 185.333 69 328.333 207 429c85.333 62.667 197 97 335 103v170h127v-170c144.667 -6.66699 260 -43.334 346 -110.001
c131.333 -100.667 197 -241.334 197 -422.001c0 -182 -65.667 -323.333 -197 -424c-86.667 -66 -202 -102.333 -346 -109v-170h-127zM740.001 260.002c130.667 9.33301 232.5 51.167 305.5 125.5s109.5 173.833 109.5 298.5c0 123.333 -37 222.5 -111 297.5
s-175.333 115.5 -304 121.5v-843zM613.001 1104c-130.667 -8.66699 -232.5 -50.167 -305.5 -124.5s-109.5 -173.833 -109.5 -298.5c0 -123.333 36.5 -222 109.5 -296s174.833 -115.667 305.5 -125v844z" />
    <glyph glyph-name="glyph316" horiz-adv-x="1317" 
d="M1174 983l-195.003 -464.999l234 -518h-141l-160 391c-75.333 -164.667 -141.666 -275.834 -198.999 -333.501s-130.333 -86.5 -219 -86.5c-113.333 0 -209.166 49.667 -287.499 149s-117.5 221.333 -117.5 366c0 152.667 39 278.5 117 377.5s177 148.5 297 148.5
c83.333 0 153.333 -23.167 210 -69.5s113.334 -126.833 170.001 -241.5l27 -55l129 337h135zM864.997 518.001c-60.667 150.667 -114.499 252.333 -161.499 305s-107.5 79 -181.5 79c-86 0 -157.667 -39.167 -215 -117.5s-86 -176.166 -86 -293.499
c0 -114.667 28.667 -211 86 -289s127.666 -117 210.999 -117c69.333 0 125.5 23.667 168.5 71s90.5 137.666 142.5 270.999z" />
    <glyph glyph-name="glyph317" horiz-adv-x="1057" 
d="M867 1365v-116h-482l347 -266c95.333 -72.667 163 -147.5 203 -224.5s60 -170.167 60 -279.5c0 -152.667 -42.167 -275.5 -126.5 -368.5s-195.833 -139.5 -334.5 -139.5c-144 0 -258.5 47 -343.5 141s-127.5 220.667 -127.5 380c0 147.333 38.333 264.833 115 352.5
s179.667 131.5 309 131.5l67 -2l-362 274v117h675zM531 891c-100.667 0 -182.166 -37.3311 -244.499 -111.998s-93.5 -172.334 -93.5 -293.001c0 -122.667 30.833 -220.334 92.5 -293.001s144.167 -109 247.5 -109c101.333 0 182.166 35.667 242.499 107
s90.5 166.666 90.5 285.999c0 126.667 -30.167 227.334 -90.5 302.001s-141.833 112 -244.5 112z" />
    <glyph glyph-name="glyph318" horiz-adv-x="882" 
d="M534 564l0.00195312 -96.999h-43h-45c-76.667 0 -137.334 -17 -182.001 -51s-67 -79.667 -67 -137c0 -59.333 23.167 -107.166 69.5 -143.499s107.166 -54.5 182.499 -54.5c164 0 249.667 77.333 257 232h132c-8 -110.667 -45 -195.334 -111 -254.001
s-157.667 -88 -275 -88c-118.667 0 -213.5 27.167 -284.5 81.5s-106.5 126.833 -106.5 217.5c0 130 72 214 216 252c-124.667 37.333 -187 109.666 -187 216.999c0 80 32.5 146 97.5 198s147.833 78 248.5 78c112.667 0 200.667 -29 264 -87s95 -139 95 -243h-129v19
c0 62.667 -20.5 112.167 -61.5 148.5s-96.833 54.5 -167.5 54.5c-62.667 0 -114.167 -16.167 -154.5 -48.5s-60.5 -73.5 -60.5 -123.5c0 -114 88.333 -171 265 -171h47z" />
    <glyph glyph-name="glyph319" horiz-adv-x="1071" 
d="M1059 980l0.00195312 -113h-230c61.333 -54.667 104.666 -111.5 129.999 -170.5s38 -132.5 38 -220.5c0 -150 -42.5 -271.667 -127.5 -365s-196.167 -140 -333.5 -140c-146 0 -261.5 47.167 -346.5 141.5s-127.5 222.5 -127.5 384.5c0 150.667 43.667 273.667 131 369
s199.666 143 336.999 143c53.333 0 110.333 -9.66699 171 -29h358zM529.002 896c-100.667 0 -181.998 -36.833 -243.998 -110.5s-93 -170.834 -93 -291.501c0 -126.667 30.667 -226.667 92 -300s144.666 -110 249.999 -110c102 0 183.167 36.167 243.5 108.5
s90.5 169.833 90.5 292.5c0 126.667 -30.333 226.834 -91 300.501s-143.334 110.5 -248.001 110.5z" />
    <glyph glyph-name="glyph320" horiz-adv-x="788" 
d="M792 981v-113h-333v-868h-126v868h-337v113h796z" />
    <glyph glyph-name="glyph321" horiz-adv-x="1141" 
d="M513 1007v370h113v-370c138 -8.66699 247.667 -59.834 329 -153.501s122 -215.5 122 -365.5c0 -150.667 -40.667 -272.834 -122 -366.501s-191 -144.834 -329 -153.501v-341h-113v341c-138 8.66699 -247.667 59.834 -329 153.501s-122 215.834 -122 366.501
c0 150 40.667 271.833 122 365.5s191 144.834 329 153.501zM513 916c-101.333 -7.33301 -181.666 -49.668 -240.999 -127.001s-89 -177.666 -89 -300.999c0 -124 29.667 -224.5 89 -301.5s139.666 -119.167 240.999 -126.5v856zM626 915.998v-855.998
c101.333 7.33301 181.666 49.5 240.999 126.5s89 177.5 89 301.5c0 123.333 -29.667 223.666 -89 300.999s-139.666 119.666 -240.999 126.999z" />
    <glyph glyph-name="glyph322" horiz-adv-x="2048" 
d="M123 3v1781h134v-1649h1668v-132h-1802z" />
    <glyph glyph-name="glyph323" horiz-adv-x="382" 
 />
    </font>
</defs>
</svg>
