<?xml version="1.0" standalone="no"?>
<!DOCTYPE svg PUBLIC "-//W3C//DTD SVG 1.1//EN" "http://www.w3.org/Graphics/SVG/1.1/DTD/svg11.dtd" >
<svg>
<metadata>
Created by FontForge 20090914 at Fri Apr 26 12:21:34 2013
 By www-data
URW Software, Copyright 1993 by URW
</metadata>
<defs>
<font id="NimbusSansDEE-Light" horiz-adv-x="1024" >
  <font-face 
    font-family="NimbuSanDEELig"
    font-weight="300"
    font-stretch="normal"
    units-per-em="2048"
    panose-1="0 0 0 0 0 0 0 0 0 0"
    ascent="1638"
    descent="-410"
    x-height="983"
    cap-height="1365"
    bbox="-360 -512 1957 1812"
    underline-thickness="115"
    underline-position="-143"
    unicode-range="U+0020-U+00FF"
  />
<missing-glyph horiz-adv-x="546" 
d="M55 0v1365h436v-1365h-436zM436 55v1255h-326v-1255h326z" />
    <glyph glyph-name=".notdef" horiz-adv-x="546" 
d="M55 0v1365h436v-1365h-436zM436 55v1255h-326v-1255h326z" />
    <glyph glyph-name="space" unicode=" " horiz-adv-x="546" 
 />
    <glyph glyph-name="space" unicode="&#xa0;" horiz-adv-x="546" 
 />
    <glyph glyph-name="exclam" unicode="!" horiz-adv-x="467" 
d="M164 0v174h140v-174h-140zM187 335l-3 67l-8 195l-9 227l-3 160v381h140v-381l-3 -164l-10 -218l-8 -199c0 -1.33301 -1 -24 -3 -68h-93z" />
    <glyph glyph-name="quotedbl" unicode="&#x22;" horiz-adv-x="695" 
d="M238 819h-84l-17 546h118zM542 819h-85l-16 546h118z" />
    <glyph glyph-name="numbersign" unicode="#" horiz-adv-x="1105" 
d="M950 517l-15 -98h-161l-66 -419h-107l67 419h-301l-66 -419h-106l66 419h-160l16 98h160l52 331h-160l15 98h161l66 419h106l-66 -419h300l67 419h106l-66 -419h157l-16 -98h-157l-52 -331h160zM735 848h-300l-52 -331h300z" />
    <glyph glyph-name="dollar" unicode="$" horiz-adv-x="1104" 
d="M227 415c0 -180.667 91.667 -284.331 275 -310.998v564c-120.667 27.333 -202 56.333 -244 87c-80 57.333 -120 149.666 -120 276.999c0 208.667 121.333 328 364 358v181h98v-181c216.667 -10 338.334 -123.667 365.001 -341h-124c-11.333 78.667 -35 135.667 -71 171
s-92.667 57.666 -170 66.999v-515c126 -30 212.667 -59 260 -87c96.667 -56.667 145 -152.667 145 -288c0 -118 -35.333 -211.833 -106 -281.5s-170.334 -109.167 -299.001 -118.5v-177h-98v177c-128 10 -227.167 51.333 -297.5 124s-105.5 170.667 -105.5 294h128z
M600 103.003c185.333 28 278 123 278 285c0 68.667 -17.5 122 -52.5 160s-94.167 67.667 -177.5 89l-48 12v-546zM502 793.003v494c-159.333 -20.667 -239 -103.667 -239 -249c0 -70 17 -122.5 51 -157.5s96.667 -64.167 188 -87.5z" />
    <glyph glyph-name="percent" unicode="%" horiz-adv-x="1396" 
d="M312 1372c162.667 0 244 -116 244 -348s-81.333 -348 -244 -348s-244 116 -244 348s81.333 348 244 348zM312 1289c-97.333 0 -146 -88.333 -146 -265s48.667 -265 146 -265s146 88.333 146 265s-48.667 265 -146 265zM203 0l872 1365h117l-870 -1365h-119zM1084 689
c162.667 0 244 -116 244 -348s-81.333 -348 -244 -348s-244 116 -244 348s81.333 348 244 348zM1084 606c-97.333 0 -146 -88.333 -146 -265s48.667 -265 146 -265s146 88.333 146 265s-48.667 265 -146 265z" />
    <glyph glyph-name="ampersand" unicode="&#x26;" horiz-adv-x="1248" 
d="M1136 629c-17.333 -132 -50.3311 -249 -98.998 -351l225 -278h-142l-151 178c-68.667 -70.667 -134.167 -120.334 -196.5 -149.001s-136.5 -43 -222.5 -43c-140.667 0 -249.334 41 -326.001 123c-72 76.667 -108 169.667 -108 279c0 96 24.667 176.5 74 241.5
s132 125.833 248 182.5c-50 66 -84.333 119.833 -103 161.5s-28 85.834 -28 132.501c0 78 29.167 143 87.5 195s131.166 78 218.499 78c79.333 0 144 -25 194 -75s75 -115 75 -195c0 -70 -16.167 -127.5 -48.5 -172.5s-90.833 -91.167 -175.5 -138.5l-37 -21l338 -404
c36 76 54 161.333 54 256h123zM893.002 270l-387 461.002c-98.667 -52.667 -167 -103.334 -205 -152.001s-57 -109.334 -57 -182.001c0 -89.333 30.333 -162.833 91 -220.5s138 -86.5 232 -86.5c133.333 0 242 60 326 180zM550.002 862.002
c79.333 35.333 134.998 70.8311 166.998 106.498s48 79.834 48 132.501c0 50 -14.667 90.333 -44 121s-67.666 46 -114.999 46c-51.333 0 -93.666 -15.5 -126.999 -46.5s-50 -70.5 -50 -118.5c0 -63.333 40.333 -143.666 121 -240.999z" />
    <glyph glyph-name="quotesingle" unicode="'" horiz-adv-x="391" 
d="M238 819h-84l-17 546h118z" />
    <glyph glyph-name="parenleft" unicode="(" horiz-adv-x="599" 
d="M375 -227c-97.333 144.667 -166.499 277.667 -207.499 399s-61.5 253 -61.5 395c0 289.333 89.667 555.333 269 798h94c-82.667 -120 -142.334 -242.5 -179.001 -367.5s-55 -267.833 -55 -428.5c0 -294.667 78 -560 234 -796h-94z" />
    <glyph glyph-name="parenright" unicode=")" horiz-adv-x="599" 
d="M224 1365c96.667 -143.333 165.667 -276 207 -398s62 -254 62 -396c0 -288.667 -89.667 -554.667 -269 -798h-94c82.667 120 142.5 242.5 179.5 367.5s55.5 267.5 55.5 427.5c0 296 -78.333 561.667 -235 797h94z" />
    <glyph glyph-name="asterisk" unicode="*" horiz-adv-x="750" 
d="M661 1137l-224 -76l138 -187l-60 -45l-141 192l-140 -190l-64 45l140 185l-221 76l26 72l220 -79v235h78v-235l220 79z" />
    <glyph glyph-name="plus" unicode="+" horiz-adv-x="1104" 
d="M190 737h303v307h117v-307h304v-109h-304v-307h-117v307h-303v109z" />
    <glyph glyph-name="comma" unicode="," horiz-adv-x="444" 
d="M293 173v-150.001c0 -87.333 -10.667 -152.5 -32 -195.5s-58.333 -73.833 -111 -92.5v82c46 20.667 69 72.334 69 155.001l-1 28h-68v173h143z" />
    <glyph glyph-name="hyphen" unicode="-" horiz-adv-x="437" 
d="M0 433v117h437v-117h-437z" />
    <glyph glyph-name="period" unicode="." horiz-adv-x="444" 
d="M150 0v171h143v-171h-143z" />
    <glyph glyph-name="slash" unicode="/" horiz-adv-x="887" 
d="M65 -235l620 1600h117l-622 -1600h-115z" />
    <glyph glyph-name="zero" unicode="0" horiz-adv-x="1104" 
d="M552 1379c145.333 0 255.5 -59 330.5 -177s112.5 -291 112.5 -519c0 -228.667 -37.5 -402 -112.5 -520s-185.167 -177 -330.5 -177s-255.5 59 -330.5 177s-112.5 291.333 -112.5 520c0 228 37.5 401 112.5 519s185.167 177 330.5 177zM552 1262
c-99.333 0 -175.333 -49.668 -228 -149.001s-79 -242.666 -79 -429.999c0 -386.667 102.333 -580 307 -580s307 193.333 307 580c0 386 -102.333 579 -307 579z" />
    <glyph glyph-name="one" unicode="1" horiz-adv-x="1104" 
d="M567 0v1026h-321v82c116.667 0 202 20 256 60s85 105.667 93 197h97v-1365h-125z" />
    <glyph glyph-name="two" unicode="2" horiz-adv-x="1104" 
d="M984 116l0.00195312 -116h-868c0 137.333 28.833 246.833 86.5 328.5s168.5 170.167 332.5 265.5c126.667 74 211.167 137.5 253.5 190.5s63.5 121.5 63.5 205.5c0 181.333 -94 272 -282 272c-98 0 -169.667 -26.333 -215 -79s-71.333 -140 -78 -262h-134
c0 138 39.5 248.833 118.5 332.5s184.167 125.5 315.5 125.5c123.333 0 222.666 -35 297.999 -105s113 -162.667 113 -278c0 -105.333 -26.833 -192.5 -80.5 -261.5s-155.834 -147.5 -306.501 -235.5c-128.667 -74.667 -218.5 -140.167 -269.5 -196.5
s-76.5 -118.5 -76.5 -186.5h729z" />
    <glyph glyph-name="three" unicode="3" horiz-adv-x="1104" 
d="M238 406c8 -99.333 38 -174.667 90 -226s124.667 -77 218 -77c91.333 0 166.5 27.333 225.5 82s88.5 125 88.5 211c0 87.333 -27.833 155.5 -83.5 204.5s-133.167 73.5 -232.5 73.5c-22.667 0 -53 -2 -91 -6v104c24 -3.33301 45.667 -5 65 -5
c98 0 173.167 22.667 225.5 68s78.5 110.333 78.5 195c0 69.333 -24.5 125.166 -73.5 167.499s-113.5 63.5 -193.5 63.5c-194 0 -291 -102 -291 -306h-128v21v25c0 96.667 36.667 183.334 110 260.001c76 78.667 180 118 312 118c117.333 0 212.333 -32.167 285 -96.5
s109 -148.5 109 -252.5c0 -132 -63 -231.667 -189 -299c155.333 -54 233 -163.333 233 -328c0 -120 -41.833 -219.5 -125.5 -298.5s-189.167 -118.5 -316.5 -118.5c-134 0 -242 37 -324 111s-123 171.667 -123 293v16h131z" />
    <glyph glyph-name="four" unicode="4" horiz-adv-x="1104" 
d="M701 0v341h-601v109l613 915h110v-915h190v-109h-190v-341h-122zM233 450h468v714z" />
    <glyph glyph-name="five" unicode="5" horiz-adv-x="1104" 
d="M242 365c6.66699 -82 35.668 -146.333 87.001 -193s118.666 -70 201.999 -70c100.667 0 180 30.5 238 91.5s87 144.5 87 250.5c0 104 -26.833 184.5 -80.5 241.5s-129.167 85.5 -226.5 85.5c-123.333 0 -217.333 -44.667 -282 -134h-111l111 728h659v-116h-568l-68 -440
c94.667 53.333 189.667 80 285 80c129.333 0 231.333 -39.5 306 -118.5s112 -187.167 112 -324.5c0 -141.333 -41.167 -253.333 -123.5 -336s-193.5 -124 -333.5 -124c-118.667 0 -216.167 34 -292.5 102s-120.5 160.333 -132.5 277h131z" />
    <glyph glyph-name="six" unicode="6" horiz-adv-x="1104" 
d="M838 1043c-20.667 146.667 -102.332 220.001 -244.999 220.001c-112 0 -196.667 -44.667 -254 -134c-65.333 -101.333 -98 -227.333 -98 -378l2 -58c79.333 118.667 190.666 178 333.999 178c123.333 0 223.833 -40.833 301.5 -122.5s116.5 -186.834 116.5 -315.501
c0 -133.333 -39.5 -241.166 -118.5 -323.499s-182.5 -123.5 -310.5 -123.5c-135.333 0 -241 41.667 -317 125c-49.333 55.333 -85 124.5 -107 207.5s-33 191.167 -33 324.5c0 240.667 41.333 423.5 124 548.5s203.667 187.5 363 187.5c116 0 210 -37.333 282 -112
c49.333 -50.667 81.333 -125.334 96 -224.001h-136zM564.002 755.001c-92 0 -165.501 -29.668 -220.501 -89.001s-82.5 -139 -82.5 -239c0 -101.333 26.333 -180.666 79 -237.999s125.334 -86 218.001 -86s165.834 29.167 219.501 87.5s80.5 137.833 80.5 238.5
s-26.333 180.167 -79 238.5s-124.334 87.5 -215.001 87.5z" />
    <glyph glyph-name="seven" unicode="7" horiz-adv-x="1104" 
d="M313 0c30 178 73.334 344.667 130.001 500c52.667 144.667 102.167 259.5 148.5 344.5s124.166 204.167 233.499 357.5l33 46h-729v117h864v-116c-161.333 -185.333 -290 -404.333 -386 -657c-84.667 -220.667 -135.667 -418 -153 -592h-141z" />
    <glyph glyph-name="eight" unicode="8" horiz-adv-x="1104" 
d="M341 739c-70 40.667 -118.501 81.168 -145.501 121.501s-40.5 93.166 -40.5 158.499c0 105.333 37.333 191.666 112 258.999s171 101 289 101c116 0 209.333 -31.5 280 -94.5s106 -146.167 106 -249.5c0 -132 -62.333 -227.667 -187 -287c167.333 -58 251 -174 251 -348
c0 -123.333 -41.667 -223.166 -125 -299.499s-192 -114.5 -326 -114.5c-129.333 0 -237.666 38.833 -324.999 116.5s-131 174.5 -131 290.5c0 80.667 18.833 148 56.5 202s99.5 102 185.5 144zM550.999 686.001c-95.333 0 -172 -26.667 -230 -80s-87 -124 -87 -212
c0 -88.667 28.667 -159.5 86 -212.5s134 -79.5 230 -79.5c94 0 170.5 27.667 229.5 83s88.5 127 88.5 215c0 89.333 -28 159.333 -84 210s-133.667 76 -233 76zM555.999 1262c-82.667 0 -148.333 -21.667 -197 -65s-73 -102 -73 -176c0 -70 24 -126.833 72 -170.5
s111 -65.5 189 -65.5c77.333 0 141 23.667 191 71s75 107.333 75 180c0 68.667 -23.333 123.5 -70 164.5s-109 61.5 -187 61.5z" />
    <glyph glyph-name="nine" unicode="9" horiz-adv-x="1104" 
d="M265 322c21.333 -146.667 103.334 -220 246.001 -220c112 0 196.667 44.667 254 134c65.333 101.333 98 227.333 98 378c0 11.333 -0.666992 30.666 -2 57.999c-80 -118.667 -191.667 -178 -335 -178c-122.667 0 -222.834 40.833 -300.501 122.5
s-116.5 186.834 -116.5 315.501c0 133.333 39.5 241.166 118.5 323.499s182.5 123.5 310.5 123.5c135.333 0 241 -41.667 317 -125c49.333 -55.333 85 -124.5 107 -207.5s33 -191.5 33 -325.5c0 -240 -41.333 -422.5 -124 -547.5s-203.667 -187.5 -363 -187.5
c-116 0 -210.333 37.333 -283 112c-49.333 50.667 -81 125.334 -95 224.001h135zM546.001 1262c-92.667 0 -165.832 -29.166 -219.499 -87.499s-80.5 -137.833 -80.5 -238.5c0 -100 26.5 -179.333 79.5 -238s124.5 -88 214.5 -88c92 0 165.5 29.667 220.5 89
s82.5 138.666 82.5 237.999c0 102 -26.333 181.667 -79 239s-125.334 86 -218.001 86z" />
    <glyph glyph-name="colon" unicode=":" horiz-adv-x="444" 
d="M150 716v171h143v-171h-143zM150 0v171h143v-171h-143z" />
    <glyph glyph-name="semicolon" unicode=";" horiz-adv-x="444" 
d="M293 173v-150.001c0 -87.333 -10.667 -152.5 -32 -195.5s-58.333 -73.833 -111 -92.5v82c46 20.667 69 72.334 69 155.001l-1 28h-68v173h143zM150 715.999v171h143v-171h-143z" />
    <glyph glyph-name="less" unicode="&#x3c;" 
d="M955 1149v-123l-754 -338l754 -339v-122l-887 407v108z" />
    <glyph glyph-name="equal" unicode="=" horiz-adv-x="1104" 
d="M198 882h709v-109h-709v109zM198 593h709v-109h-709v109z" />
    <glyph glyph-name="greater" unicode="&#x3e;" 
d="M69 226v123l754 339l-754 338v123l887 -407v-109z" />
    <glyph glyph-name="question" unicode="?" horiz-adv-x="937" 
d="M387 0v170h137v-170h-137zM398 337c0 99.333 11.833 175.165 35.5 227.498s71.834 109.166 144.501 170.499c66.667 56.667 111.167 104.334 133.5 143.001s33.5 87.334 33.5 146.001c0 76 -23.333 135.833 -70 179.5s-110.667 65.5 -192 65.5
c-195.333 0 -293 -109.333 -293 -328h-129c16.667 292 157 438 421 438c119.333 0 214.666 -32.167 285.999 -96.5s107 -150.166 107 -257.499c0 -63.333 -14 -120 -42 -170s-77 -105.667 -147 -167l-66 -59c-40.667 -35.333 -68.5 -71 -83.5 -107s-22.5 -84.333 -22.5 -145
l-1 -40h-115z" />
    <glyph glyph-name="at" unicode="@" horiz-adv-x="1399" 
d="M983 1014h75.0029l-88 -452c-8 -40 -12 -72 -12 -96c0 -69.333 30.667 -104 92 -104c66 0 123.333 41.5 172 124.5s73 181.167 73 294.5c0 151.333 -53.5 275.833 -160.5 373.5s-243.167 146.5 -408.5 146.5c-173.333 0 -319.5 -59.667 -438.5 -179
s-178.5 -265.666 -178.5 -438.999c0 -152 46 -284.667 138 -398c120 -148 290.333 -222 511 -222c150 0 299.667 36.333 449 109l28 -85c-151.333 -74.667 -310.333 -112 -477 -112c-248 0 -441 82 -579 246c-111.333 132 -167 286.333 -167 463
c0 108 22.167 209.5 66.5 304.5s106.5 175.167 186.5 240.5c134 107.333 286.333 161 457 161c193.333 0 352.666 -57.5 477.999 -172.5s188 -261.167 188 -438.5c0 -128.667 -34.333 -242.834 -103 -342.501s-147.334 -149.5 -236.001 -149.5c-46.667 0 -83.667 13 -111 39
s-41 61.333 -41 106c-64 -98.667 -148.333 -148 -253 -148c-84.667 0 -154.167 31.167 -208.5 93.5s-81.5 142.5 -81.5 240.5c0 118.667 34.833 218.667 104.5 300s155.167 122 256.5 122c119.333 0 198.666 -61.333 237.999 -184zM720.003 959
c-76 0 -141.333 -32.8301 -196 -98.4971s-82 -143.834 -82 -234.501c0 -78.667 19.5 -141.834 58.5 -189.501s90.5 -71.5 154.5 -71.5c74 0 135.667 35 185 105s74 157 74 261c0 71.333 -17.167 127.166 -51.5 167.499s-81.833 60.5 -142.5 60.5z" />
    <glyph glyph-name="A" unicode="A" horiz-adv-x="1268" 
d="M27 0l538 1365h141l535 -1365h-142l-164 433h-604l-162 -433h-142zM374 540h523l-264 697z" />
    <glyph glyph-name="B" unicode="B" horiz-adv-x="1293" 
d="M164 0l-0.000976562 1365h550c84.667 0 151 -6.83301 199 -20.5s89.667 -37.5 125 -71.5c64.667 -62.667 97 -145 97 -247c0 -72 -15.167 -131.667 -45.5 -179s-80.166 -88.666 -149.499 -123.999c172 -54.667 258 -165.334 258 -332.001
c0 -117.333 -35.667 -211.666 -107 -282.999c-38.667 -38.667 -85.5 -66.334 -140.5 -83.001s-127.5 -25 -217.5 -25h-569zM301.999 114h431.001c118.667 0 204.167 21 256.5 63s78.5 110.667 78.5 206c0 96 -26.333 165.167 -79 207.5s-138.334 63.5 -257.001 63.5h-430
v-540zM302 761l392 0.000976562c107.333 0 183 18 227 54c56 46 84 112 84 198c0 73.333 -21 131.666 -63 174.999c-40 41.333 -124 62 -252 62h-388v-489z" />
    <glyph glyph-name="C" unicode="C" horiz-adv-x="1367" 
d="M1288 485c-24 -163.333 -86.165 -289.499 -186.498 -378.499s-230.5 -133.5 -390.5 -133.5c-186.667 0 -334.167 64.167 -442.5 192.5s-162.5 302.833 -162.5 523.5c0 215.333 56 386.333 168 513s263.333 190 454 190c291.333 0 471 -138.667 539 -416h-132
c-62.667 198.667 -199.334 298 -410.001 298c-148.667 0 -266.334 -53 -353.001 -159s-130 -250 -130 -432c0 -180.667 42.5 -324.834 127.5 -432.501s198.833 -161.5 341.5 -161.5c120 0 220.333 36 301 108s128.667 168 144 288h132z" />
    <glyph glyph-name="D" unicode="D" horiz-adv-x="1355" 
d="M164 0v1365h482c126 0 222 -13 288 -39s126 -74 180 -144c90 -117.333 135 -279 135 -485c0 -258 -66.333 -448.667 -199 -572c-89.333 -83.333 -222.333 -125 -399 -125h-487zM302 117h339c144.667 0 250.667 35 318 105c102 105.333 153 265.333 153 480
c0 166.667 -34 298 -102 394c-40.667 57.333 -88 97 -142 119s-131 33 -231 33h-335v-1131z" />
    <glyph glyph-name="E" unicode="E" horiz-adv-x="1184" 
d="M164 0v1365h917v-117h-780v-491h717v-110h-717v-532h798v-115h-935z" />
    <glyph glyph-name="F" unicode="F" horiz-adv-x="1091" 
d="M164 0v1365h866v-117h-729v-494h634v-109h-634v-645h-137z" />
    <glyph glyph-name="G" unicode="G" horiz-adv-x="1439" 
d="M726 702l575.999 -0.000976562v-702h-105v227c-70 -91.333 -141.667 -156.5 -215 -195.5s-161.666 -58.5 -264.999 -58.5c-184.667 0 -332.667 64.667 -444 194s-167 301.333 -167 516s57.167 386.5 171.5 515.5s266.5 193.5 456.5 193.5
c149.333 0 273.5 -38.5 372.5 -115.5s159.833 -182.167 182.5 -315.5h-131c-49.333 209.333 -192 314 -428 314c-152 0 -271.167 -52.167 -357.5 -156.5s-129.5 -248.166 -129.5 -431.499c0 -180.667 43.5 -325.667 130.5 -435s202.5 -164 346.5 -164
c136.667 0 248 44.333 334 133s129 203 129 343v28h-457v110z" />
    <glyph glyph-name="H" unicode="H" horiz-adv-x="1350" 
d="M164 0v1365h136v-586h750v586h137v-1365h-137v668h-750v-668h-136z" />
    <glyph glyph-name="I" unicode="I" horiz-adv-x="466" 
d="M164 0v1365h139v-1365h-139z" />
    <glyph glyph-name="J" unicode="J" horiz-adv-x="926" 
d="M22 440h130c0 -109.333 8.33301 -183.333 25 -222c36.667 -85.333 110.667 -128 222 -128c88.667 0 151 22.167 187 66.5s54 120.5 54 228.5v980h136v-961c0 -148 -30.167 -256.833 -90.5 -326.5s-154.5 -104.5 -282.5 -104.5c-255.333 0 -383 130.667 -383 392z" />
    <glyph glyph-name="K" unicode="K" horiz-adv-x="1259" 
d="M164 0v1365h135v-705l741 705h183l-605 -565l614 -800h-164l-541 711l-228 -211v-500h-135z" />
    <glyph glyph-name="L" unicode="L" horiz-adv-x="1046" 
d="M164 0v1365h137v-1249h711v-116h-848z" />
    <glyph glyph-name="M" unicode="M" horiz-adv-x="1601" 
d="M164 0v1365h167l473 -1206l467 1206h166v-1365h-124v1147l-443 -1147h-128l-458 1147v-1147h-120z" />
    <glyph glyph-name="N" unicode="N" horiz-adv-x="1360" 
d="M164 0v1365h137l775 -1167v1167h121v-1365h-136l-775 1169v-1169h-122z" />
    <glyph glyph-name="O" unicode="O" horiz-adv-x="1475" 
d="M737 1392c194 0 347.667 -64.667 461 -194s170 -305.333 170 -528c0 -212.667 -57 -382 -171 -508s-267.333 -189 -460 -189s-346 63 -460 189s-171 295.333 -171 508c0 222.667 56.667 398.667 170 528s267 194 461 194zM737 1276c-152.667 0 -273 -52.667 -361 -158
s-132 -249.666 -132 -432.999c0 -186 43.667 -331.833 131 -437.5s208 -158.5 362 -158.5c151.333 0 271.333 52.333 360 157s133 246 133 424c0 191.333 -43.167 340.166 -129.5 446.499s-207.5 159.5 -363.5 159.5z" />
    <glyph glyph-name="P" unicode="P" horiz-adv-x="1188" 
d="M164 0v1365h531c161.333 0 274.333 -38.667 339 -116c57.333 -68 86 -159 86 -273c0 -112.667 -32.333 -202.334 -97 -269.001c-38.667 -40 -86.5 -68.333 -143.5 -85s-133.5 -25 -229.5 -25h-350v-597h-136zM300 715.001l307.001 0.00195312c90 0 155 4 195 12
s73.667 23.667 101 47c53.333 45.333 80 115.666 80 210.999s-24.333 162.666 -73 201.999s-132.334 59 -251.001 59h-359v-531z" />
    <glyph glyph-name="Q" unicode="Q" horiz-adv-x="1478" 
d="M1165 127l176 -134l-70 -88l-195 158c-100.667 -60 -217 -90 -349 -90c-187.333 0 -337.666 63.167 -450.999 189.5s-170 294.166 -170 503.499c0 220 56.5 396 169.5 528s264.167 198 453.5 198c187.333 0 334.666 -57 441.999 -171c133.333 -140.667 200 -321 200 -541
c0 -113.333 -16.333 -213.666 -49 -300.999s-85 -171.333 -157 -252zM1066 208c110 120 165.001 277 165.001 471c0 186 -43.833 331.833 -131.5 437.5s-208.834 158.5 -363.501 158.5c-153.333 0 -273.5 -52.5 -360.5 -157.5s-130.5 -249.833 -130.5 -434.5
s43.833 -330 131.5 -436s207.5 -159 359.5 -159c92.667 0 170 19.333 232 58l-135 107l67 84z" />
    <glyph glyph-name="R" unicode="R" horiz-adv-x="1300" 
d="M164 0l0.00195312 1365h554c98 0 174.5 -8.33301 229.5 -25s100.833 -45.667 137.5 -87c58.667 -66 88 -151 88 -255c0 -155.333 -70.333 -265 -211 -329c70 -38 113.5 -76.833 130.5 -116.5s29.833 -131.167 38.5 -274.5c6 -101.333 12.833 -165.666 20.5 -192.999
s26.5 -55.666 56.5 -84.999h-164c-16.667 48.667 -28 121.334 -34 218.001c-10.667 166 -33.334 274 -68.001 324c-20.667 29.333 -47.834 48.666 -81.501 57.999s-93.5 14 -179.5 14h-382v-614h-135zM299.002 725.998h366c138.667 0 231.667 17.667 279 53
c61.333 46 92 119 92 219c0 80 -22.333 141.667 -67 185c-26.667 26 -60 43.333 -100 52s-106.333 13 -199 13h-371v-522z" />
    <glyph glyph-name="S" unicode="S" horiz-adv-x="1193" 
d="M83 453h131.999c17.333 -241.333 148.333 -362 393 -362c110 0 197.167 25 261.5 75s96.5 117.667 96.5 203c0 80 -29.667 139.667 -89 179s-172.666 74.333 -339.999 105c-168.667 30.667 -278.667 73 -330 127c-59.333 62 -89 140.333 -89 235
c0 118 42.333 210.333 127 277s201.667 100 351 100c292 0 451.667 -134.333 479 -403h-137c0 90.667 -30.167 161 -90.5 211s-144.833 75 -253.5 75c-106 0 -189.333 -22.833 -250 -68.5s-91 -108.834 -91 -189.501c0 -70.667 24.167 -124 72.5 -160
s134.833 -64.667 259.5 -86c192.667 -33.333 326.5 -78 401.5 -134s112.5 -138.667 112.5 -248c0 -124 -45.667 -224.333 -137 -301s-210.333 -115 -357 -115c-164 0 -292 42.333 -384 127s-138 202.334 -138 353.001z" />
    <glyph glyph-name="T" unicode="T" horiz-adv-x="1089" 
d="M478 0v1248h-444v117h1021v-117h-440v-1248h-137z" />
    <glyph glyph-name="U" unicode="U" horiz-adv-x="1308" 
d="M150 1365h137v-902c0 -75.333 7.83301 -135 23.5 -179s43.167 -82 82.5 -114c64.667 -54 152 -81 262 -81c114 0 202.667 28.667 266 86c66 59.333 99 160 99 302v888h138v-870c0 -102 -12.333 -185.5 -37 -250.5s-65 -119.833 -121 -164.5
c-88.667 -71.333 -205 -107 -349 -107c-148 0 -266.667 35.333 -356 106c-53.333 42 -90.833 93.333 -112.5 154s-32.5 144.667 -32.5 252v880z" />
    <glyph glyph-name="V" unicode="V" horiz-adv-x="1158" 
d="M503 0l-476 1365h139l407 -1201l424 1201h133l-495 -1365h-132z" />
    <glyph glyph-name="W" unicode="W" horiz-adv-x="1698" 
d="M380 0l-353 1365h142l288 -1173l314 1173h161l308 -1193l296 1193h134l-358 -1365h-152l-311 1169l-322 -1169h-147z" />
    <glyph glyph-name="X" unicode="X" horiz-adv-x="1124" 
d="M20 0l464 689l-456 676h162l372 -562l379 562h150l-454 -676l466 -689h-162l-379 574l-382 -574h-160z" />
    <glyph glyph-name="Y" unicode="Y" horiz-adv-x="1183" 
d="M527 0v600l-513 765h169l413 -637l419 637h155l-506 -765v-600h-137z" />
    <glyph glyph-name="Z" unicode="Z" horiz-adv-x="1164" 
d="M1109 0h-1052v82l880 1166h-806v117h960v-115l-853 -1132h871v-118z" />
    <glyph glyph-name="bracketleft" unicode="[" horiz-adv-x="605" 
d="M150 -227v1592h318v-101h-203v-1390h203v-101h-318z" />
    <glyph glyph-name="backslash" unicode="\" horiz-adv-x="887" 
d="M856 -235h-114l-623 1600h118z" />
    <glyph glyph-name="bracketright" unicode="]" horiz-adv-x="605" 
d="M455 1365v-1592h-318v101h203v1390h-203v101h318z" />
    <glyph glyph-name="asciicircum" unicode="^" 
d="M196 762h-135l370 606h162l370 -606h-137l-316 509z" />
    <glyph glyph-name="underscore" unicode="_" 
d="M0 -142h1024v-115h-1024v115z" />
    <glyph glyph-name="grave" unicode="`" 
d="M623 1161h-99l-205 252h164z" />
    <glyph glyph-name="a" unicode="a" horiz-adv-x="1038" 
d="M758 136c-54.667 -60 -108.331 -102.168 -160.998 -126.501s-117 -36.5 -193 -36.5c-100 0 -177.833 24.667 -233.5 74s-83.5 118.333 -83.5 207c0 74 19.333 135.333 58 184c27.333 33.333 59.833 58.333 97.5 75s92.5 30.667 164.5 42l244 36
c53.333 8 85.166 17.833 95.499 29.5s15.5 43.834 15.5 96.501c0 66 -20.167 114 -60.5 144s-104.833 45 -193.5 45c-83.333 0 -143.833 -16.5 -181.5 -49.5s-60.167 -88.5 -67.5 -166.5h-131c13.333 213.333 140 320 380 320c106.667 0 192.667 -19.667 258 -59
c44 -26.667 74.333 -58.834 91 -96.501s25 -92.5 25 -164.5v-519c0 -37.333 4.16699 -62.666 12.5 -75.999s24.5 -20 48.5 -20c12 0 29 3 51 9v-84c-36 -12.667 -67 -19 -93 -19c-48.667 0 -83.334 11.333 -104.001 34s-33.667 63 -39 121zM758.003 508.999l-336 -53
c-74 -12 -127.667 -33 -161 -63s-50 -72.667 -50 -128c0 -125.333 71 -188 213 -188c78.667 0 148 20 208 60c48 32 81 69 99 111s27 102.667 27 182v79z" />
    <glyph glyph-name="b" unicode="b" horiz-adv-x="1121" 
d="M150 0l0.000976562 1365h123v-527c93.333 114.667 202.666 172 327.999 172c132 0 236 -46.333 312 -139s114 -219.334 114 -380.001c0 -154.667 -40 -279.667 -120 -375s-184.667 -143 -314 -143c-119.333 0 -226 54.333 -320 163v-136h-123zM599.001 906.001
c-93.333 0 -170.999 -33.334 -232.999 -100.001c-62.667 -67.333 -94 -172.666 -94 -315.999c0 -130.667 27.333 -232.5 82 -305.5s131 -109.5 229 -109.5c97.333 0 175.166 37.833 233.499 113.5s87.5 177.167 87.5 304.5c0 134.667 -26 237.167 -78 307.5
s-127.667 105.5 -227 105.5z" />
    <glyph glyph-name="c" unicode="c" horiz-adv-x="1011" 
d="M819 339l119.997 -0.00195312c-54.667 -244 -193.667 -366 -417 -366c-127.333 0 -230.5 46.667 -309.5 140s-118.5 215.333 -118.5 366c0 160.667 41.833 289.334 125.5 386.001s195.167 145 334.5 145c107.333 0 195 -29.5 263 -88.5s109.667 -141.833 125 -248.5h-123
c-15.333 152.667 -104.666 229 -267.999 229c-103.333 0 -184.666 -37 -243.999 -111s-89 -175.333 -89 -304c0 -122.667 29.333 -221 88 -295s136.334 -111 233.001 -111c80 0 144.333 22.333 193 67s77.667 108.334 87 191.001z" />
    <glyph glyph-name="d" unicode="d" horiz-adv-x="1121" 
d="M971 0l-122.998 -0.000976562v136c-94.667 -108.667 -201.334 -163 -320.001 -163c-129.333 0 -234 47.667 -314 143s-120 220.333 -120 375c0 160.667 38 287.334 114 380.001s180 139 312 139c125.333 0 234.666 -57.333 327.999 -172v527h123v-1365zM522.002 905.999
c-99.333 0 -174.999 -35.167 -226.999 -105.5s-78 -172.833 -78 -307.5c0 -126.667 29.167 -228 87.5 -304s136.166 -114 233.499 -114c98 0 174.333 36.5 229 109.5s82 174.833 82 305.5c0 142.667 -31.333 248 -94 316c-62 66.667 -139.667 100 -233 100z" />
    <glyph glyph-name="e" unicode="e" horiz-adv-x="1046" 
d="M827 308h124c-44 -116.667 -99.333 -201.667 -166 -255s-151 -80 -253 -80c-136.667 0 -243.834 44.5 -321.501 133.5s-116.5 212.167 -116.5 369.5c0 163.333 40 293.166 120 389.499s188 144.5 324 144.5c148 0 258.333 -56 331 -168c45.333 -70 72 -179 80 -327l2 -42
h-739c0 -127.333 27.833 -225.166 83.5 -293.499s135.167 -102.5 238.5 -102.5c156.667 0 254.334 77 293.001 231zM217 577h609.999c0 99.333 -26.667 179.333 -80 240s-123.666 91 -210.999 91c-88 0 -159.333 -28.167 -214 -84.5s-89.667 -138.5 -105 -246.5z" />
    <glyph glyph-name="f" unicode="f" horiz-adv-x="528" 
d="M306 983h166.001v-96h-166v-887h-124v887h-143v96h143v180c0 144.667 65.333 217 196 217c23.333 0 54.666 -2 93.999 -6v-106c-25.333 4 -44 6 -56 6c-46 0 -75.833 -8.83301 -89.5 -26.5s-20.5 -56.167 -20.5 -115.5v-149z" />
    <glyph glyph-name="g" unicode="g" horiz-adv-x="1119" 
d="M969 983l-0.000976562 -885.998c0 -154.667 -36.333 -269 -109 -343s-185 -111 -337 -111c-111.333 0 -199.5 22.167 -264.5 66.5s-103.833 108.833 -116.5 193.5h125c4 -52 30 -92.667 78 -122s112.333 -44 193 -44c97.333 0 174 28.333 230 85
c28.667 29.333 48.5 65.166 59.5 107.499s16.5 104.833 16.5 187.5l2 50c-53.333 -61.333 -103.166 -104 -149.499 -128s-102.833 -36 -169.5 -36c-132.667 0 -238 45.333 -316 136s-117 213 -117 367c0 149.333 39.833 270.666 119.5 363.999s183.167 140 310.5 140
c132.667 0 240 -55.667 322 -167v140h123zM538.999 907.002c-99.333 0 -178.167 -35.999 -236.5 -107.999s-87.5 -169 -87.5 -291c0 -125.333 27.833 -224 83.5 -296s132.167 -108 229.5 -108c105.333 0 186 35.667 242 107s84 173.666 84 306.999
c0 123.333 -27.5 219 -82.5 287s-132.5 102 -232.5 102z" />
    <glyph glyph-name="h" unicode="h" horiz-adv-x="1077" 
d="M150 0l-0.000976562 1365h125v-501c48.667 54.667 95.667 92.667 141 114s103 32 173 32c109.333 0 192.333 -26.667 249 -80c34 -31.333 57.333 -68.333 70 -111s19 -104 19 -184v-635h-122v642c0 94 -18.667 161.667 -56 203s-98.333 62 -183 62
c-91.333 0 -162.666 -29.5 -213.999 -88.5s-77 -140.833 -77 -245.5v-573h-125z" />
    <glyph glyph-name="i" unicode="i" horiz-adv-x="425" 
d="M150 0v983h124v-983h-124zM150 1199v166h124v-166h-124z" />
    <glyph glyph-name="j" unicode="j" horiz-adv-x="430" 
d="M158 983l123 -0.000976562v-1043c0 -109.333 -15.5 -184.166 -46.5 -224.499s-88.833 -60.5 -173.5 -60.5c-8.66699 0 -23 0.333008 -43 1v108c18.667 -3.33301 33.667 -5 45 -5c36 0 60.833 13.5 74.5 40.5s20.5 75.833 20.5 146.5v1037zM158 1197v168h123v-168h-123z
" />
    <glyph glyph-name="k" unicode="k" horiz-adv-x="1001" 
d="M150 0v1365h125v-841l480 459l177 7l-398 -367l424 -623h-150l-359 544l-174 -161v-383h-125z" />
    <glyph glyph-name="l" unicode="l" horiz-adv-x="424" 
d="M150 0v1365h123v-1365h-123z" />
    <glyph glyph-name="m" unicode="m" horiz-adv-x="1607" 
d="M150 0v983h124v-107c76.667 89.333 169.667 134 279 134c132 0 227 -56 285 -168c70 112 174 168 312 168c97.333 0 173 -26.667 227 -80c30.667 -30 51.5 -64.667 62.5 -104s16.5 -99 16.5 -179v-647h-124v658c0 87.333 -15.667 150.666 -47 189.999s-82 59 -152 59
c-176.667 0 -265 -112 -265 -336v-571h-124v653c0 90.667 -15.5 155.834 -46.5 195.501s-81.833 59.5 -152.5 59.5c-92 0 -160.167 -29.333 -204.5 -88s-66.5 -149 -66.5 -271v-549h-124z" />
    <glyph glyph-name="n" unicode="n" horiz-adv-x="1077" 
d="M150 0l-0.000976562 983h125v-119c48.667 54.667 95.667 92.667 141 114s103 32 173 32c109.333 0 192.333 -26.667 249 -80c34 -31.333 57.333 -68.333 70 -111s19 -104 19 -184v-635h-122v642c0 94 -18.667 161.667 -56 203s-98.333 62 -183 62
c-91.333 0 -162.666 -29.5 -213.999 -88.5s-77 -140.833 -77 -245.5v-573h-125z" />
    <glyph glyph-name="o" unicode="o" horiz-adv-x="1095" 
d="M548 1010c136.667 0 246.333 -48.333 329 -145s124 -225.334 124 -386.001c0 -156 -40.5 -279.333 -121.5 -370s-191.5 -136 -331.5 -136s-250.667 45.333 -332 136s-122 214 -122 370c0 160.667 41.333 289.334 124 386.001s192.667 145 330 145zM547.999 906
c-102.667 0 -183.499 -38 -242.499 -114s-88.5 -180 -88.5 -312c0 -126.667 29.167 -225.5 87.5 -296.5s139.5 -106.5 243.5 -106.5c103.333 0 184.166 35.5 242.499 106.5s87.5 169.833 87.5 296.5c0 132 -29.5 236 -88.5 312s-139.5 114 -241.5 114z" />
    <glyph glyph-name="p" unicode="p" horiz-adv-x="1119" 
d="M274 -353h-124v1336h124v-140c84 111.333 190.667 167 320 167c126.667 0 230.167 -47.333 310.5 -142s120.5 -216.667 120.5 -366c0 -161.333 -40.333 -289.833 -121 -385.5s-189 -143.5 -325 -143.5c-126 0 -227.667 50.667 -305 152v-478zM593 907
c-104.667 0 -185.001 -35.168 -241.001 -105.501s-84 -171.166 -84 -302.499c0 -138.667 26.333 -244 79 -316s130 -108 232 -108c99.333 0 178 37.667 236 113s87 177.333 87 306c0 127.333 -27.667 228 -83 302s-130.666 111 -225.999 111z" />
    <glyph glyph-name="q" unicode="q" horiz-adv-x="1119" 
d="M845 -353l0.000976562 478c-76.667 -101.333 -178.334 -152 -305.001 -152c-136 0 -244.333 47.833 -325 143.5s-121 224.167 -121 385.5c0 149.333 40.167 271.333 120.5 366s183.833 142 310.5 142c129.333 0 236 -55.667 320 -167v140h124v-1336h-124zM526.001 907
c-95.333 0 -170.667 -36.999 -226 -110.999s-83 -174.667 -83 -302c0 -128.667 29 -230.667 87 -306s136.667 -113 236 -113c102 0 179.333 36 232 108s79 177.333 79 316c0 131.333 -28 232.166 -84 302.499s-136.333 105.5 -241 105.5z" />
    <glyph glyph-name="r" unicode="r" horiz-adv-x="646" 
d="M150 0l-0.000976562 983h123v-164c38 65.333 77.5 111.5 118.5 138.5s92.167 40.5 153.5 40.5c16.667 0 34.334 -1.33301 53.001 -4v-120c-20 2.66699 -34.333 4 -43 4c-83.333 0 -153.333 -38.667 -210 -116c-48 -65.333 -72 -156.333 -72 -273v-489h-123z" />
    <glyph glyph-name="s" unicode="s" horiz-adv-x="931" 
d="M205 310c11.333 -153.333 105.666 -230.001 282.999 -230.001c75.333 0 134.666 17.333 177.999 52s65 81.667 65 141c0 44.667 -17.333 78.834 -52 102.501s-100.334 45.834 -197.001 66.501l-113 25c-174 37.333 -261 123.666 -261 258.999c0 88 32 157.333 96 208
s151.333 76 262 76c223.333 0 346.666 -102.333 369.999 -307h-121c-13.333 72.667 -39.166 123.5 -77.499 152.5s-98.166 43.5 -179.499 43.5c-72 0 -127.833 -14.167 -167.5 -42.5s-59.5 -68.166 -59.5 -119.499c0 -50.667 16.333 -86.334 49 -107.001
s111 -45.334 235 -74.001c136.667 -31.333 227.334 -65.166 272.001 -101.499s67 -94.5 67 -174.5c0 -93.333 -34.167 -167.833 -102.5 -223.5s-160.166 -83.5 -275.499 -83.5c-120.667 0 -216.5 29 -287.5 87s-106.5 136.667 -106.5 236v14h123z" />
    <glyph glyph-name="t" unicode="t" horiz-adv-x="529" 
d="M178 888h-142v95h142v291h124v-291h154v-95h-154v-699c0 -41.333 5.16699 -69.333 15.5 -84s30.5 -22 60.5 -22c20 0 45.667 6.33301 77 19v-80c-38.667 -18 -80 -27 -124 -27c-58 0 -98 14 -120 42s-33 78.667 -33 152v699z" />
    <glyph glyph-name="u" unicode="u" horiz-adv-x="1077" 
d="M927 983l0.000976562 -983h-125v119c-48 -54.667 -94.833 -92.667 -140.5 -114s-103.5 -32 -173.5 -32c-108.667 0 -191.667 26.667 -249 80c-33.333 31.333 -56.5 68.333 -69.5 111s-19.5 104 -19.5 184v635h122v-642c0 -94 18.667 -161.667 56 -203s98.333 -62 183 -62
c91.333 0 162.666 29.5 213.999 88.5s77 140.833 77 245.5v573h125z" />
    <glyph glyph-name="v" unicode="v" horiz-adv-x="893" 
d="M379 0l-365 983h135l297 -828l302 828h131l-375 -983h-125z" />
    <glyph glyph-name="w" unicode="w" horiz-adv-x="1338" 
d="M318 0l-304 983h130l238 -796l224 796h127l214 -796l249 796h129l-315 -983h-124l-218 785l-227 -785h-123z" />
    <glyph glyph-name="x" unicode="x" horiz-adv-x="903" 
d="M7 0l375 513l-340 470h146l261 -380l268 380h147l-347 -470l379 -513h-147l-300 420l-296 -420h-146z" />
    <glyph glyph-name="y" unicode="y" horiz-adv-x="900" 
d="M122 -236c34 -10 60.333 -14.999 79 -14.999c66 0 116 45.667 150 137l47 125l-384 972h132l310 -817l306 817h126l-447 -1150c-27.333 -70.667 -58 -119.334 -92 -146.001s-82 -40 -144 -40c-24 0 -51.667 3 -83 9v108z" />
    <glyph glyph-name="z" unicode="z" horiz-adv-x="877" 
d="M841 0h-782v90l603 781h-559v112h714v-86l-600 -786h624v-111z" />
    <glyph glyph-name="braceleft" unicode="{" horiz-adv-x="528" 
d="M212 568c38 -23.333 64.667 -52.499 80 -87.499s23 -85.167 23 -150.5v-257c0 -74.667 12.167 -125.834 36.5 -153.501s69.5 -41.5 135.5 -41.5v-103l-28 -1c-94 0 -160.333 23 -199 69s-58 124.333 -58 235v251c0 59.333 -7.83301 103.5 -23.5 132.5
s-43.167 49.833 -82.5 62.5v96c38 12 65.167 32.333 81.5 61s24.5 70.667 24.5 126v280c0 185.333 82.667 278 248 278l37 -1v-103c-64.667 0 -109.5 -13.667 -134.5 -41s-37.5 -76 -37.5 -146v-273c0 -64.667 -7.5 -114 -22.5 -148s-41.833 -62.333 -80.5 -85z" />
    <glyph glyph-name="bar" unicode="|" 
d="M451 1365h123v-1706h-123v1706z" />
    <glyph glyph-name="braceright" unicode="}" horiz-adv-x="528" 
d="M317 572c-38 22.667 -64.6689 51.668 -80.002 87.001s-23 85.333 -23 150v258c0 74.667 -12.167 125.667 -36.5 153s-69.833 41 -136.5 41v104h29c93.333 0 159.5 -23 198.5 -69s58.5 -124.333 58.5 -235v-250c0 -60 7.83301 -104.333 23.5 -133
s42.834 -49.334 81.501 -62.001v-96c-38 -12 -65 -32.333 -81 -61s-24 -71 -24 -127v-279c0 -186 -83 -279 -249 -279c-7.33301 0 -19.666 0.333008 -36.999 1v104c64.667 0 109.667 13.5 135 40.5s38 75.5 38 145.5v273c0 64.667 7.5 114 22.5 148s41.833 62.667 80.5 86z
" />
    <glyph glyph-name="asciitilde" unicode="~" horiz-adv-x="1365" 
d="M267 1202l-74.999 48.999c42 82.667 83.833 140.834 125.5 174.501s92.5 50.5 152.5 50.5c49.333 0 125.666 -25 228.999 -75c94.667 -46.667 163 -70 205 -70c39.333 0 73.166 10.833 101.499 32.5s58.833 60.5 91.5 116.5l77 -46c-74.667 -147.333 -168 -221 -280 -221
c-50.667 0 -107 15 -169 45l-121 57c-61.333 29.333 -110.333 44 -147 44c-69.333 0 -132.666 -52.333 -189.999 -157z" />
    <glyph glyph-name="quotesinglbase" horiz-adv-x="444" 
d="M290 164v-141.998c0 -82.667 -10.167 -144.334 -30.5 -185.001s-55.5 -70.334 -105.5 -89.001v78c43.333 20 65 69.333 65 148v26h-65v164h136z" />
    <glyph glyph-name="quotesinglbase" unicode="&#x201a;" horiz-adv-x="444" 
d="M290 164v-141.998c0 -82.667 -10.167 -144.334 -30.5 -185.001s-55.5 -70.334 -105.5 -89.001v78c43.333 20 65 69.333 65 148v26h-65v164h136z" />
    <glyph glyph-name="quotedblbase" horiz-adv-x="696" 
d="M546 173v-150.001c0 -87.333 -10.667 -152.5 -32 -195.5s-58.333 -73.833 -111 -92.5v82c46 20.667 69 72.334 69 155.001l-1 28h-68v173h143zM293 172.999v-150.001c0 -87.333 -10.667 -152.5 -32 -195.5s-58.333 -73.833 -111 -92.5v82c46 20.667 69 72.334 69 155.001
l-1 28h-68v173h143z" />
    <glyph glyph-name="quotedblbase" unicode="&#x201e;" horiz-adv-x="696" 
d="M546 173v-150.001c0 -87.333 -10.667 -152.5 -32 -195.5s-58.333 -73.833 -111 -92.5v82c46 20.667 69 72.334 69 155.001l-1 28h-68v173h143zM293 172.999v-150.001c0 -87.333 -10.667 -152.5 -32 -195.5s-58.333 -73.833 -111 -92.5v82c46 20.667 69 72.334 69 155.001
l-1 28h-68v173h143z" />
    <glyph glyph-name="ellipsis" unicode="&#x85;" horiz-adv-x="1331" 
d="M150 0v171h143v-171h-143zM594 0v171h143v-171h-143zM1038 0v171h143v-171h-143z" />
    <glyph glyph-name="ellipsis" unicode="&#x2026;" horiz-adv-x="1331" 
d="M150 0v171h143v-171h-143zM594 0v171h143v-171h-143zM1038 0v171h143v-171h-143z" />
    <glyph glyph-name="dagger" horiz-adv-x="1327" 
d="M600 -235v1012h-436v110h436v478h125v-478h438v-110h-438v-1012h-125z" />
    <glyph glyph-name="dagger" unicode="&#x2020;" horiz-adv-x="1327" 
d="M600 -235v1012h-436v110h436v478h125v-478h438v-110h-438v-1012h-125z" />
    <glyph glyph-name="daggerdbl" horiz-adv-x="1327" 
d="M600 859h-436v110h436v396h125v-396h438v-110h-438v-588h438v-110h-438v-396h-125v396h-436v110h436v588z" />
    <glyph glyph-name="daggerdbl" unicode="&#x2021;" horiz-adv-x="1327" 
d="M600 859h-436v110h436v396h125v-396h438v-110h-438v-588h438v-110h-438v-396h-125v396h-436v110h436v588z" />
    <glyph glyph-name="perthousand" horiz-adv-x="2025" 
d="M312 1372c162.667 0 244 -116 244 -348s-81.333 -348 -244 -348s-244 116 -244 348s81.333 348 244 348zM312 1289c-97.333 0 -146 -88.333 -146 -265s48.667 -265 146 -265s146 88.333 146 265s-48.667 265 -146 265zM203 0l872 1365h117l-870 -1365h-119zM1084 689
c162.667 0 244 -116 244 -348s-81.333 -348 -244 -348s-244 116 -244 348s81.333 348 244 348zM1084 606c-97.333 0 -146 -88.333 -146 -265s48.667 -265 146 -265s146 88.333 146 265s-48.667 265 -146 265zM1713 689c162.667 0 244 -116 244 -348s-81.333 -348 -244 -348
s-244 116 -244 348s81.333 348 244 348zM1713 606c-97.333 0 -146 -88.333 -146 -265s48.667 -265 146 -265s146 88.333 146 265s-48.667 265 -146 265z" />
    <glyph glyph-name="perthousand" unicode="&#x2030;" horiz-adv-x="2025" 
d="M312 1372c162.667 0 244 -116 244 -348s-81.333 -348 -244 -348s-244 116 -244 348s81.333 348 244 348zM312 1289c-97.333 0 -146 -88.333 -146 -265s48.667 -265 146 -265s146 88.333 146 265s-48.667 265 -146 265zM203 0l872 1365h117l-870 -1365h-119zM1084 689
c162.667 0 244 -116 244 -348s-81.333 -348 -244 -348s-244 116 -244 348s81.333 348 244 348zM1084 606c-97.333 0 -146 -88.333 -146 -265s48.667 -265 146 -265s146 88.333 146 265s-48.667 265 -146 265zM1713 689c162.667 0 244 -116 244 -348s-81.333 -348 -244 -348
s-244 116 -244 348s81.333 348 244 348zM1713 606c-97.333 0 -146 -88.333 -146 -265s48.667 -265 146 -265s146 88.333 146 265s-48.667 265 -146 265z" />
    <glyph glyph-name="Scaron" horiz-adv-x="1193" 
d="M83 453h131.999c17.333 -241.333 148.333 -362 393 -362c110 0 197.167 25 261.5 75s96.5 117.667 96.5 203c0 80 -29.667 139.667 -89 179s-172.666 74.333 -339.999 105c-168.667 30.667 -278.667 73 -330 127c-59.333 62 -89 140.333 -89 235
c0 118 42.333 210.333 127 277s201.667 100 351 100c292 0 451.667 -134.333 479 -403h-137c0 90.667 -30.167 161 -90.5 211s-144.833 75 -253.5 75c-106 0 -189.333 -22.833 -250 -68.5s-91 -108.834 -91 -189.501c0 -70.667 24.167 -124 72.5 -160
s134.833 -64.667 259.5 -86c192.667 -33.333 326.5 -78 401.5 -134s112.5 -138.667 112.5 -248c0 -124 -45.667 -224.333 -137 -301s-210.333 -115 -357 -115c-164 0 -292 42.333 -384 127s-138 202.334 -138 353.001zM322.999 1745h129l148 -174l139 174h132l-201 -248
h-144z" />
    <glyph glyph-name="Scaron" unicode="&#x160;" horiz-adv-x="1193" 
d="M83 453h131.999c17.333 -241.333 148.333 -362 393 -362c110 0 197.167 25 261.5 75s96.5 117.667 96.5 203c0 80 -29.667 139.667 -89 179s-172.666 74.333 -339.999 105c-168.667 30.667 -278.667 73 -330 127c-59.333 62 -89 140.333 -89 235
c0 118 42.333 210.333 127 277s201.667 100 351 100c292 0 451.667 -134.333 479 -403h-137c0 90.667 -30.167 161 -90.5 211s-144.833 75 -253.5 75c-106 0 -189.333 -22.833 -250 -68.5s-91 -108.834 -91 -189.501c0 -70.667 24.167 -124 72.5 -160
s134.833 -64.667 259.5 -86c192.667 -33.333 326.5 -78 401.5 -134s112.5 -138.667 112.5 -248c0 -124 -45.667 -224.333 -137 -301s-210.333 -115 -357 -115c-164 0 -292 42.333 -384 127s-138 202.334 -138 353.001zM322.999 1745h129l148 -174l139 174h132l-201 -248
h-144z" />
    <glyph glyph-name="guilsinglleft" horiz-adv-x="534" 
d="M418 823v-143l-213 -186l213 -185v-149l-322 276v107z" />
    <glyph glyph-name="guilsinglleft" unicode="&#x2039;" horiz-adv-x="534" 
d="M418 823v-143l-213 -186l213 -185v-149l-322 276v107z" />
    <glyph glyph-name="uni008C" horiz-adv-x="1193" 
d="M83 453h131.999c17.333 -241.333 148.333 -362 393 -362c110 0 197.167 25 261.5 75s96.5 117.667 96.5 203c0 80 -29.667 139.667 -89 179s-172.666 74.333 -339.999 105c-168.667 30.667 -278.667 73 -330 127c-59.333 62 -89 140.333 -89 235
c0 118 42.333 210.333 127 277s201.667 100 351 100c292 0 451.667 -134.333 479 -403h-137c0 90.667 -30.167 161 -90.5 211s-144.833 75 -253.5 75c-106 0 -189.333 -22.833 -250 -68.5s-91 -108.834 -91 -189.501c0 -70.667 24.167 -124 72.5 -160
s134.833 -64.667 259.5 -86c192.667 -33.333 326.5 -78 401.5 -134s112.5 -138.667 112.5 -248c0 -124 -45.667 -224.333 -137 -301s-210.333 -115 -357 -115c-164 0 -292 42.333 -384 127s-138 202.334 -138 353.001zM505.999 1495l140 252h164l-205 -252h-99z" />
    <glyph glyph-name="uni008C" unicode="&#x15a;" horiz-adv-x="1193" 
d="M83 453h131.999c17.333 -241.333 148.333 -362 393 -362c110 0 197.167 25 261.5 75s96.5 117.667 96.5 203c0 80 -29.667 139.667 -89 179s-172.666 74.333 -339.999 105c-168.667 30.667 -278.667 73 -330 127c-59.333 62 -89 140.333 -89 235
c0 118 42.333 210.333 127 277s201.667 100 351 100c292 0 451.667 -134.333 479 -403h-137c0 90.667 -30.167 161 -90.5 211s-144.833 75 -253.5 75c-106 0 -189.333 -22.833 -250 -68.5s-91 -108.834 -91 -189.501c0 -70.667 24.167 -124 72.5 -160
s134.833 -64.667 259.5 -86c192.667 -33.333 326.5 -78 401.5 -134s112.5 -138.667 112.5 -248c0 -124 -45.667 -224.333 -137 -301s-210.333 -115 -357 -115c-164 0 -292 42.333 -384 127s-138 202.334 -138 353.001zM505.999 1495l140 252h164l-205 -252h-99z" />
    <glyph glyph-name="uni008C" unicode="&#x152;" horiz-adv-x="1193" 
d="M83 453h131.999c17.333 -241.333 148.333 -362 393 -362c110 0 197.167 25 261.5 75s96.5 117.667 96.5 203c0 80 -29.667 139.667 -89 179s-172.666 74.333 -339.999 105c-168.667 30.667 -278.667 73 -330 127c-59.333 62 -89 140.333 -89 235
c0 118 42.333 210.333 127 277s201.667 100 351 100c292 0 451.667 -134.333 479 -403h-137c0 90.667 -30.167 161 -90.5 211s-144.833 75 -253.5 75c-106 0 -189.333 -22.833 -250 -68.5s-91 -108.834 -91 -189.501c0 -70.667 24.167 -124 72.5 -160
s134.833 -64.667 259.5 -86c192.667 -33.333 326.5 -78 401.5 -134s112.5 -138.667 112.5 -248c0 -124 -45.667 -224.333 -137 -301s-210.333 -115 -357 -115c-164 0 -292 42.333 -384 127s-138 202.334 -138 353.001zM505.999 1495l140 252h164l-205 -252h-99z" />
    <glyph glyph-name="uni008D" horiz-adv-x="1089" 
d="M478 0v1248h-444v117h1021v-117h-440v-1248h-137zM270 1745h129l149 -174l139 174h132l-201 -248h-144z" />
    <glyph glyph-name="uni008D" unicode="&#x164;" horiz-adv-x="1089" 
d="M478 0v1248h-444v117h1021v-117h-440v-1248h-137zM270 1745h129l149 -174l139 174h132l-201 -248h-144z" />
    <glyph glyph-name="Zcaron" horiz-adv-x="1164" 
d="M1109 0h-1052v82l880 1166h-806v117h960v-115l-853 -1132h871v-118zM335 1745h128l149 -174l139 174h132l-201 -248h-144z" />
    <glyph glyph-name="Zcaron" unicode="&#x17d;" horiz-adv-x="1164" 
d="M1109 0h-1052v82l880 1166h-806v117h960v-115l-853 -1132h871v-118zM335 1745h128l149 -174l139 174h132l-201 -248h-144z" />
    <glyph glyph-name="uni008F" horiz-adv-x="1164" 
d="M1109 0h-1052v82l880 1166h-806v117h960v-115l-853 -1132h871v-118zM518 1495l140 252h164l-205 -252h-99z" />
    <glyph glyph-name="uni008F" unicode="&#x179;" horiz-adv-x="1164" 
d="M1109 0h-1052v82l880 1166h-806v117h960v-115l-853 -1132h871v-118zM518 1495l140 252h164l-205 -252h-99z" />
    <glyph glyph-name="quoteleft" horiz-adv-x="444" 
d="M150 927v150c0 87.333 10.667 152.333 32 195s58.333 73.667 111 93v-82c-46 -21.333 -69 -73 -69 -155l1 -28h68v-173h-143z" />
    <glyph glyph-name="quoteleft" unicode="&#x2018;" horiz-adv-x="444" 
d="M150 927v150c0 87.333 10.667 152.333 32 195s58.333 73.667 111 93v-82c-46 -21.333 -69 -73 -69 -155l1 -28h68v-173h-143z" />
    <glyph glyph-name="quoteright" horiz-adv-x="444" 
d="M290 1365v-141.998c0 -82.667 -10.167 -144.334 -30.5 -185.001s-55.5 -70.334 -105.5 -89.001v78c43.333 20 65 69.333 65 148v26h-65v164h136z" />
    <glyph glyph-name="quoteright" unicode="&#x2019;" horiz-adv-x="444" 
d="M290 1365v-141.998c0 -82.667 -10.167 -144.334 -30.5 -185.001s-55.5 -70.334 -105.5 -89.001v78c43.333 20 65 69.333 65 148v26h-65v164h136z" />
    <glyph glyph-name="quotedblleft" horiz-adv-x="696" 
d="M150 927v150c0 87.333 10.667 152.333 32 195s58.333 73.667 111 93v-82c-46 -21.333 -69 -73 -69 -155l1 -28h68v-173h-143zM403 927v150c0 87.333 10.667 152.333 32 195s58.333 73.667 111 93v-82c-46 -21.333 -69 -73 -69 -155l1 -28h68v-173h-143z" />
    <glyph glyph-name="quotedblleft" unicode="&#x201c;" horiz-adv-x="696" 
d="M150 927v150c0 87.333 10.667 152.333 32 195s58.333 73.667 111 93v-82c-46 -21.333 -69 -73 -69 -155l1 -28h68v-173h-143zM403 927v150c0 87.333 10.667 152.333 32 195s58.333 73.667 111 93v-82c-46 -21.333 -69 -73 -69 -155l1 -28h68v-173h-143z" />
    <glyph glyph-name="quotedblright" horiz-adv-x="696" 
d="M546 1365v-150.001c0 -87.333 -10.667 -152.5 -32 -195.5s-58.333 -73.833 -111 -92.5v82c46 20.667 69 72.334 69 155.001l-1 28h-68v173h143zM293 1365v-150.001c0 -87.333 -10.667 -152.5 -32 -195.5s-58.333 -73.833 -111 -92.5v82c46 20.667 69 72.334 69 155.001
l-1 28h-68v173h143z" />
    <glyph glyph-name="quotedblright" unicode="&#x201d;" horiz-adv-x="696" 
d="M546 1365v-150.001c0 -87.333 -10.667 -152.5 -32 -195.5s-58.333 -73.833 -111 -92.5v82c46 20.667 69 72.334 69 155.001l-1 28h-68v173h143zM293 1365v-150.001c0 -87.333 -10.667 -152.5 -32 -195.5s-58.333 -73.833 -111 -92.5v82c46 20.667 69 72.334 69 155.001
l-1 28h-68v173h143z" />
    <glyph glyph-name="bullet" horiz-adv-x="1365" 
d="M687 978c77.333 0 143.666 -27.833 198.999 -83.5s83 -122.5 83 -200.5s-27.667 -144.833 -83 -200.5s-121.666 -83.5 -198.999 -83.5c-79.333 0 -146.833 27.667 -202.5 83s-83.5 122.333 -83.5 201s27.833 145.667 83.5 201s123.167 83 202.5 83z" />
    <glyph glyph-name="bullet" unicode="&#x2022;" horiz-adv-x="1365" 
d="M687 978c77.333 0 143.666 -27.833 198.999 -83.5s83 -122.5 83 -200.5s-27.667 -144.833 -83 -200.5s-121.666 -83.5 -198.999 -83.5c-79.333 0 -146.833 27.667 -202.5 83s-83.5 122.333 -83.5 201s27.833 145.667 83.5 201s123.167 83 202.5 83z" />
    <glyph glyph-name="endash" horiz-adv-x="1104" 
d="M163 433v117h778v-117h-778z" />
    <glyph glyph-name="endash" unicode="&#x2013;" horiz-adv-x="1104" 
d="M163 433v117h778v-117h-778z" />
    <glyph glyph-name="emdash" horiz-adv-x="1311" 
d="M0 433v117h1311v-117h-1311z" />
    <glyph glyph-name="emdash" unicode="&#x2014;" horiz-adv-x="1311" 
d="M0 433v117h1311v-117h-1311z" />
    <glyph glyph-name="trademark" horiz-adv-x="1587" 
d="M275 587v699h-262v79h616v-79h-260v-699h-94zM732 587v778h110l274 -664l271 664h110v-778h-87v614l-250 -614h-85l-259 615v-615h-84z" />
    <glyph glyph-name="trademark" unicode="&#x2122;" horiz-adv-x="1587" 
d="M275 587v699h-262v79h616v-79h-260v-699h-94zM732 587v778h110l274 -664l271 664h110v-778h-87v614l-250 -614h-85l-259 615v-615h-84z" />
    <glyph glyph-name="scaron" horiz-adv-x="931" 
d="M205 310c11.333 -153.333 105.666 -230.001 282.999 -230.001c75.333 0 134.666 17.333 177.999 52s65 81.667 65 141c0 44.667 -17.333 78.834 -52 102.501s-100.334 45.834 -197.001 66.501l-113 25c-174 37.333 -261 123.666 -261 258.999c0 88 32 157.333 96 208
s151.333 76 262 76c223.333 0 346.666 -102.333 369.999 -307h-121c-13.333 72.667 -39.166 123.5 -77.499 152.5s-98.166 43.5 -179.499 43.5c-72 0 -127.833 -14.167 -167.5 -42.5s-59.5 -68.166 -59.5 -119.499c0 -50.667 16.333 -86.334 49 -107.001
s111 -45.334 235 -74.001c136.667 -31.333 227.334 -65.166 272.001 -101.499s67 -94.5 67 -174.5c0 -93.333 -34.167 -167.833 -102.5 -223.5s-160.166 -83.5 -275.499 -83.5c-120.667 0 -216.5 29 -287.5 87s-106.5 136.667 -106.5 236v14h123zM207 1411h129l149 -175
l139 175h132l-201 -249h-144z" />
    <glyph glyph-name="scaron" unicode="&#x161;" horiz-adv-x="931" 
d="M205 310c11.333 -153.333 105.666 -230.001 282.999 -230.001c75.333 0 134.666 17.333 177.999 52s65 81.667 65 141c0 44.667 -17.333 78.834 -52 102.501s-100.334 45.834 -197.001 66.501l-113 25c-174 37.333 -261 123.666 -261 258.999c0 88 32 157.333 96 208
s151.333 76 262 76c223.333 0 346.666 -102.333 369.999 -307h-121c-13.333 72.667 -39.166 123.5 -77.499 152.5s-98.166 43.5 -179.499 43.5c-72 0 -127.833 -14.167 -167.5 -42.5s-59.5 -68.166 -59.5 -119.499c0 -50.667 16.333 -86.334 49 -107.001
s111 -45.334 235 -74.001c136.667 -31.333 227.334 -65.166 272.001 -101.499s67 -94.5 67 -174.5c0 -93.333 -34.167 -167.833 -102.5 -223.5s-160.166 -83.5 -275.499 -83.5c-120.667 0 -216.5 29 -287.5 87s-106.5 136.667 -106.5 236v14h123zM207 1411h129l149 -175
l139 175h132l-201 -249h-144z" />
    <glyph glyph-name="guilsinglright" horiz-adv-x="534" 
d="M116 160v143l213 186l-213 185v149l322 -276v-107z" />
    <glyph glyph-name="guilsinglright" unicode="&#x203a;" horiz-adv-x="534" 
d="M116 160v143l213 186l-213 185v149l322 -276v-107z" />
    <glyph glyph-name="uni009C" horiz-adv-x="931" 
d="M205 310c11.333 -153.333 105.666 -230.001 282.999 -230.001c75.333 0 134.666 17.333 177.999 52s65 81.667 65 141c0 44.667 -17.333 78.834 -52 102.501s-100.334 45.834 -197.001 66.501l-113 25c-174 37.333 -261 123.666 -261 258.999c0 88 32 157.333 96 208
s151.333 76 262 76c223.333 0 346.666 -102.333 369.999 -307h-121c-13.333 72.667 -39.166 123.5 -77.499 152.5s-98.166 43.5 -179.499 43.5c-72 0 -127.833 -14.167 -167.5 -42.5s-59.5 -68.166 -59.5 -119.499c0 -50.667 16.333 -86.334 49 -107.001
s111 -45.334 235 -74.001c136.667 -31.333 227.334 -65.166 272.001 -101.499s67 -94.5 67 -174.5c0 -93.333 -34.167 -167.833 -102.5 -223.5s-160.166 -83.5 -275.499 -83.5c-120.667 0 -216.5 29 -287.5 87s-106.5 136.667 -106.5 236v14h123zM391 1161l140 252h164
l-206 -252h-98z" />
    <glyph glyph-name="uni009C" unicode="&#x153;" horiz-adv-x="931" 
d="M205 310c11.333 -153.333 105.666 -230.001 282.999 -230.001c75.333 0 134.666 17.333 177.999 52s65 81.667 65 141c0 44.667 -17.333 78.834 -52 102.501s-100.334 45.834 -197.001 66.501l-113 25c-174 37.333 -261 123.666 -261 258.999c0 88 32 157.333 96 208
s151.333 76 262 76c223.333 0 346.666 -102.333 369.999 -307h-121c-13.333 72.667 -39.166 123.5 -77.499 152.5s-98.166 43.5 -179.499 43.5c-72 0 -127.833 -14.167 -167.5 -42.5s-59.5 -68.166 -59.5 -119.499c0 -50.667 16.333 -86.334 49 -107.001
s111 -45.334 235 -74.001c136.667 -31.333 227.334 -65.166 272.001 -101.499s67 -94.5 67 -174.5c0 -93.333 -34.167 -167.833 -102.5 -223.5s-160.166 -83.5 -275.499 -83.5c-120.667 0 -216.5 29 -287.5 87s-106.5 136.667 -106.5 236v14h123zM391 1161l140 252h164
l-206 -252h-98z" />
    <glyph glyph-name="uni009D" horiz-adv-x="527" 
d="M178 888h-142v95h142v291h124v-291h154v-95h-154v-699c0 -41.333 5.16699 -69.333 15.5 -84s30.5 -22 60.5 -22c20 0 45.667 6.33301 77 19v-80c-38.667 -18 -80 -27 -124 -27c-58 0 -98 14 -120 42s-33 78.667 -33 152v699zM568 1458v-138
c0 -130.667 -50 -206 -150 -226l-7 -2v84c32.667 14 53 27.333 61 40s12 37.667 12 75h-73v167h157z" />
    <glyph glyph-name="uni009D" unicode="&#x165;" horiz-adv-x="527" 
d="M178 888h-142v95h142v291h124v-291h154v-95h-154v-699c0 -41.333 5.16699 -69.333 15.5 -84s30.5 -22 60.5 -22c20 0 45.667 6.33301 77 19v-80c-38.667 -18 -80 -27 -124 -27c-58 0 -98 14 -120 42s-33 78.667 -33 152v699zM568 1458v-138
c0 -130.667 -50 -206 -150 -226l-7 -2v84c32.667 14 53 27.333 61 40s12 37.667 12 75h-73v167h157z" />
    <glyph glyph-name="uni009D" unicode="&#x15b;" horiz-adv-x="527" 
d="M178 888h-142v95h142v291h124v-291h154v-95h-154v-699c0 -41.333 5.16699 -69.333 15.5 -84s30.5 -22 60.5 -22c20 0 45.667 6.33301 77 19v-80c-38.667 -18 -80 -27 -124 -27c-58 0 -98 14 -120 42s-33 78.667 -33 152v699zM568 1458v-138
c0 -130.667 -50 -206 -150 -226l-7 -2v84c32.667 14 53 27.333 61 40s12 37.667 12 75h-73v167h157z" />
    <glyph glyph-name="zcaron" horiz-adv-x="877" 
d="M841 0h-782v90l603 781h-559v112h714v-86l-600 -786h624v-111zM190 1411h129l148 -175l139 175h132l-201 -249h-144z" />
    <glyph glyph-name="zcaron" unicode="&#x17e;" horiz-adv-x="877" 
d="M841 0h-782v90l603 781h-559v112h714v-86l-600 -786h624v-111zM190 1411h129l148 -175l139 175h132l-201 -249h-144z" />
    <glyph glyph-name="uni009F" horiz-adv-x="877" 
d="M841 0h-782v90l603 781h-559v112h714v-86l-600 -786h624v-111zM380 1161l140 252h164l-205 -252h-99z" />
    <glyph glyph-name="uni009F" unicode="&#x17a;" horiz-adv-x="877" 
d="M841 0h-782v90l603 781h-559v112h714v-86l-600 -786h624v-111zM380 1161l140 252h164l-205 -252h-99z" />
    <glyph glyph-name="uni009F" unicode="&#x178;" horiz-adv-x="877" 
d="M841 0h-782v90l603 781h-559v112h714v-86l-600 -786h624v-111zM380 1161l140 252h164l-205 -252h-99z" />
    <glyph glyph-name="caron" unicode="&#xa1;" 
d="M238 1411h129l149 -175l139 175h131l-201 -249h-144z" />
    <glyph glyph-name="caron" unicode="&#x2c7;" 
d="M238 1411h129l149 -175l139 175h131l-201 -249h-144z" />
    <glyph glyph-name="breve" unicode="&#xa2;" 
d="M789 1405c-24.667 -163.333 -118.333 -245 -281 -245c-78 0 -141.5 22 -190.5 66s-76.167 103.667 -81.5 179h82c21.333 -100.667 85 -151 191 -151c108.667 0 174.667 50.333 198 151h82z" />
    <glyph glyph-name="breve" unicode="&#x2d8;" 
d="M789 1405c-24.667 -163.333 -118.333 -245 -281 -245c-78 0 -141.5 22 -190.5 66s-76.167 103.667 -81.5 179h82c21.333 -100.667 85 -151 191 -151c108.667 0 174.667 50.333 198 151h82z" />
    <glyph glyph-name="Lslash" unicode="&#xa3;" horiz-adv-x="1046" 
d="M164 530l-150 -113v129l150 114v705h137v-631l376 271v-130l-376 -270v-489h711v-116h-848v530z" />
    <glyph glyph-name="Lslash" unicode="&#x141;" horiz-adv-x="1046" 
d="M164 530l-150 -113v129l150 114v705h137v-631l376 271v-130l-376 -270v-489h711v-116h-848v530z" />
    <glyph glyph-name="currency" unicode="&#xa4;" horiz-adv-x="1104" 
d="M1033 168l-239 240c-74 -60 -154.333 -90 -241 -90c-88.667 0 -169.667 30 -243 90l-239 -240l-54 54l239 239c-59.333 77.333 -89 158.333 -89 243c0 88.667 29.667 169 89 241l-239 240l54 53l239 -239c76 60 156.667 90 242 90c88 0 168.667 -30 242 -90l239 239
l54 -53l-239 -240c59.333 -72.667 89 -153 89 -241c0 -85.333 -29.667 -166.333 -89 -243l239 -239zM552 996c-80.667 0 -149.5 -28.5 -206.5 -85.5s-85.5 -125.833 -85.5 -206.5s28.5 -149.667 85.5 -207s125.833 -86 206.5 -86s149.5 28.5 206.5 85.5
s85.5 126.167 85.5 207.5c0 80.667 -28.5 149.5 -85.5 206.5s-125.833 85.5 -206.5 85.5z" />
    <glyph glyph-name="glyph259" unicode="&#xa5;" horiz-adv-x="1268" 
d="M1241 0l-37 -21c-78.667 -46.667 -118 -100 -118 -160c0 -28 11.167 -51.333 33.5 -70s50.166 -28 83.499 -28c26.667 0 53 4.33301 79 13v-81c-29.333 -11.333 -62.666 -17 -99.999 -17c-54.667 0 -100.5 16 -137.5 48s-55.5 71.667 -55.5 119c0 40 15.5 78 46.5 114
s72.167 63.667 123.5 83h-60l-164 433h-604l-162 -433h-142l538 1365h141zM374 540h523l-264 697z" />
    <glyph glyph-name="glyph259" unicode="&#x104;" horiz-adv-x="1268" 
d="M1241 0l-37 -21c-78.667 -46.667 -118 -100 -118 -160c0 -28 11.167 -51.333 33.5 -70s50.166 -28 83.499 -28c26.667 0 53 4.33301 79 13v-81c-29.333 -11.333 -62.666 -17 -99.999 -17c-54.667 0 -100.5 16 -137.5 48s-55.5 71.667 -55.5 119c0 40 15.5 78 46.5 114
s72.167 63.667 123.5 83h-60l-164 433h-604l-162 -433h-142l538 1365h141zM374 540h523l-264 697z" />
    <glyph glyph-name="brokenbar" unicode="&#xa6;" 
d="M451 1365h123v-675h-123v675zM451 314h123v-655h-123v655z" />
    <glyph glyph-name="section" unicode="&#xa7;" horiz-adv-x="1159" 
d="M910 1056l-126.003 0.00195312c-7.33301 150 -78 225 -212 225c-56 0 -101.333 -14.333 -136 -43s-52 -66.334 -52 -113.001c0 -40 12.333 -73.333 37 -100s77.334 -63 158.001 -109c185.333 -106 303.333 -183.833 354 -233.5s76 -112.5 76 -188.5
c0 -119.333 -63 -207 -189 -263c64.667 -62.667 97 -130.334 97 -203.001c0 -82 -30.833 -149.333 -92.5 -202s-140.167 -79 -235.5 -79c-110 0 -196.667 31.167 -260 93.5s-95 147.833 -95 256.5h128c8.66699 -158.667 83.334 -238 224.001 -238c60 0 108.5 15 145.5 45
s55.5 69.333 55.5 118c0 44.667 -17.667 83.667 -53 117s-113.666 85.333 -234.999 156l-116 68c-83.333 48.667 -143 96.667 -179 144s-54 102.333 -54 165c0 123.333 62.667 211 188 263c-54.667 56.667 -82 118 -82 184c0 81.333 30 147 90 197s138.667 75 236 75
c102.667 0 183 -29.667 241 -89s87 -141.333 87 -246zM417.997 866.002c-96.667 -46 -145 -107.667 -145 -185c0 -46 17 -85 51 -117s117.333 -86.667 250 -164c54 -31.333 108 -65 162 -101c98.667 42.667 148 103 148 181c0 44.667 -20.333 86.5 -61 125.5
s-120 92.167 -238 159.5l-92 53z" />
    <glyph glyph-name="dieresis" unicode="&#xa8;" 
d="M267 1197v174h139v-174h-139zM618 1197v174h139v-174h-139z" />
    <glyph glyph-name="copyright" unicode="&#xa9;" horiz-adv-x="1684" 
d="M1199 586c-14.667 -96.667 -52 -170.999 -112 -222.999s-138.667 -78 -236 -78c-112 0 -200.667 36.667 -266 110s-98 172.666 -98 297.999c0 122.667 33.667 220.167 101 292.5s158 108.5 272 108.5c176.667 0 285.667 -82.333 327 -247h-92
c-36 111.333 -114.667 167 -236 167c-86 0 -153.833 -29 -203.5 -87s-74.5 -137 -74.5 -237c0 -99.333 24.5 -178.5 73.5 -237.5s114.5 -88.5 196.5 -88.5c70 0 128 20 174 60s73.333 94 82 162h92zM845 1390c194 0 359.666 -69 496.999 -207s206 -304.667 206 -500
c0 -194.667 -68.833 -361.167 -206.5 -499.5s-303.167 -207.5 -496.5 -207.5c-195.333 0 -362.166 69 -500.499 207s-207.5 304.667 -207.5 500s69 362 207 500s305 207 501 207zM843.999 1306c-170 0 -314.999 -60.833 -434.999 -182.5s-180 -268.5 -180 -440.5
s60.167 -318.833 180.5 -440.5s265.166 -182.5 434.499 -182.5c168.667 0 312.834 60.833 432.501 182.5s179.5 268.5 179.5 440.5s-59.833 318.833 -179.5 440.5s-263.834 182.5 -432.501 182.5z" />
    <glyph glyph-name="Scedilla" unicode="&#xaa;" horiz-adv-x="1193" 
d="M602 -28l-55.999 -89.998c24 6 44.333 9 61 9c42 0 76.5 -12.333 103.5 -37s40.5 -56 40.5 -94c0 -46.667 -18.333 -84.667 -55 -114s-84.334 -44 -143.001 -44c-51.333 0 -110.333 13 -177 39l26 58c50 -20.667 97.333 -31 142 -31c31.333 0 57.166 8.5 77.499 25.5
s30.5 38.167 30.5 63.5c0 21.333 -9 39 -27 53s-40.667 21 -68 21c-21.333 0 -48.333 -6 -81 -18l-30 30l88 133c-148 15.333 -260.167 63.5 -336.5 144.5s-114.5 191.833 -114.5 332.5h132c17.333 -242 148.333 -363 393 -363c110 0 197.167 25 261.5 75
s96.5 117.667 96.5 203c0 80.667 -29.667 140.667 -89 180s-172.666 74.333 -339.999 105c-168.667 30.667 -278.667 73 -330 127c-59.333 61.333 -89 139.666 -89 234.999c0 118 42.333 210.333 127 277s201.667 100 351 100c292 0 451.667 -134.333 479 -403h-137
c0 90.667 -30.167 161 -90.5 211s-144.833 75 -253.5 75c-106 0 -189.333 -22.833 -250 -68.5s-91 -108.834 -91 -189.501c0 -70.667 24.167 -124 72.5 -160s134.833 -65 259.5 -87c192.667 -33.333 326.5 -77.833 401.5 -133.5s112.5 -138.5 112.5 -248.5
c0 -124 -45.667 -224.333 -137 -301s-211.333 -115 -360 -115z" />
    <glyph glyph-name="Scedilla" unicode="&#x15e;" horiz-adv-x="1193" 
d="M602 -28l-55.999 -89.998c24 6 44.333 9 61 9c42 0 76.5 -12.333 103.5 -37s40.5 -56 40.5 -94c0 -46.667 -18.333 -84.667 -55 -114s-84.334 -44 -143.001 -44c-51.333 0 -110.333 13 -177 39l26 58c50 -20.667 97.333 -31 142 -31c31.333 0 57.166 8.5 77.499 25.5
s30.5 38.167 30.5 63.5c0 21.333 -9 39 -27 53s-40.667 21 -68 21c-21.333 0 -48.333 -6 -81 -18l-30 30l88 133c-148 15.333 -260.167 63.5 -336.5 144.5s-114.5 191.833 -114.5 332.5h132c17.333 -242 148.333 -363 393 -363c110 0 197.167 25 261.5 75
s96.5 117.667 96.5 203c0 80.667 -29.667 140.667 -89 180s-172.666 74.333 -339.999 105c-168.667 30.667 -278.667 73 -330 127c-59.333 61.333 -89 139.666 -89 234.999c0 118 42.333 210.333 127 277s201.667 100 351 100c292 0 451.667 -134.333 479 -403h-137
c0 90.667 -30.167 161 -90.5 211s-144.833 75 -253.5 75c-106 0 -189.333 -22.833 -250 -68.5s-91 -108.834 -91 -189.501c0 -70.667 24.167 -124 72.5 -160s134.833 -65 259.5 -87c192.667 -33.333 326.5 -77.833 401.5 -133.5s112.5 -138.5 112.5 -248.5
c0 -124 -45.667 -224.333 -137 -301s-211.333 -115 -360 -115z" />
    <glyph glyph-name="guillemotleft" unicode="&#xab;" horiz-adv-x="889" 
d="M418 823v-143l-213 -186l213 -185v-149l-322 276v107zM773 823v-143l-213 -186l213 -185v-149l-322 276v107z" />
    <glyph glyph-name="logicalnot" unicode="&#xac;" 
d="M832 0v432h-764v115h887v-547h-123z" />
    <glyph glyph-name="minus" unicode="&#xad;" horiz-adv-x="1104" 
d="M198 737h709v-109h-709v109z" />
    <glyph glyph-name="registered" unicode="&#xae;" horiz-adv-x="1684" 
d="M564 300l-0.00195312 779.002h333c94.667 0 164.334 -17.167 209.001 -51.5s67 -87.833 67 -160.5c0 -88 -38.667 -149.667 -116 -185c36 -20 58.833 -41.5 68.5 -64.5s17.167 -74.5 22.5 -154.5c3.33301 -58.667 7.5 -95.334 12.5 -110.001s19.5 -32.334 43.5 -53.001
h-119c-11.333 30 -18.666 73 -21.999 129c-6.66699 98 -20 158.5 -40 181.5s-69 34.5 -147 34.5h-219v-345h-93zM656.998 721.002h209c79.333 0 134.5 10.667 165.5 32s46.5 59.333 46.5 114c0 51.333 -14.667 86.333 -44 105s-84.333 28 -165 28h-212v-279zM844.998 1390
c194 0 359.666 -69 496.999 -207s206 -304.667 206 -500c0 -194.667 -68.833 -361.167 -206.5 -499.5s-303.167 -207.5 -496.5 -207.5c-195.333 0 -362.166 69 -500.499 207s-207.5 304.667 -207.5 500s69 362 207 500s305 207 501 207zM843.997 1306
c-170 0 -314.999 -60.833 -434.999 -182.5s-180 -268.5 -180 -440.5s60.167 -318.833 180.5 -440.5s265.166 -182.5 434.499 -182.5c168.667 0 312.834 60.833 432.501 182.5s179.5 268.5 179.5 440.5s-59.833 318.833 -179.5 440.5s-263.834 182.5 -432.501 182.5z" />
    <glyph glyph-name="glyph275" unicode="&#xaf;" horiz-adv-x="1164" 
d="M1109 0h-1052v82l880 1166h-806v117h960v-115l-853 -1132h871v-118zM539 1534v174h139v-174h-139z" />
    <glyph glyph-name="glyph275" unicode="&#x17b;" horiz-adv-x="1164" 
d="M1109 0h-1052v82l880 1166h-806v117h960v-115l-853 -1132h871v-118zM539 1534v174h139v-174h-139z" />
    <glyph glyph-name="degree" unicode="&#xb0;" horiz-adv-x="1365" 
d="M683 1382c76.667 0 142.167 -26.5 196.5 -79.5s81.5 -117.167 81.5 -192.5s-27.167 -139.5 -81.5 -192.5s-119.833 -79.5 -196.5 -79.5s-142.167 26.5 -196.5 79.5s-81.5 117.167 -81.5 192.5s27.167 139.5 81.5 192.5s119.833 79.5 196.5 79.5zM684 1309
c-56 0 -103.833 -19.5 -143.5 -58.5s-59.5 -85.833 -59.5 -140.5s19.833 -101.5 59.5 -140.5s87.5 -58.5 143.5 -58.5c55.333 0 102.833 19.5 142.5 58.5s59.5 85.833 59.5 140.5s-19.833 101.5 -59.5 140.5s-87.167 58.5 -142.5 58.5z" />
    <glyph glyph-name="plusminus" unicode="&#xb1;" horiz-adv-x="1104" 
d="M198 825h297v284h115v-284h297v-109h-297v-278h-115v278h-297v109zM198 278h709v-109h-709v109z" />
    <glyph glyph-name="ogonek" unicode="&#xb2;" 
d="M747 0l89 -0.000976562l-37 -21c-78.667 -46.667 -118 -100 -118 -160c0 -28 11.167 -51.333 33.5 -70s50.166 -28 83.499 -28c26 0 52.333 4.33301 79 13v-81c-29.333 -11.333 -62.666 -17 -99.999 -17c-54.667 0 -100.5 16 -137.5 48s-55.5 71.667 -55.5 119
c0 76.667 54.333 142.334 163 197.001z" />
    <glyph glyph-name="ogonek" unicode="&#x2db;" 
d="M747 0l89 -0.000976562l-37 -21c-78.667 -46.667 -118 -100 -118 -160c0 -28 11.167 -51.333 33.5 -70s50.166 -28 83.499 -28c26 0 52.333 4.33301 79 13v-81c-29.333 -11.333 -62.666 -17 -99.999 -17c-54.667 0 -100.5 16 -137.5 48s-55.5 71.667 -55.5 119
c0 76.667 54.333 142.334 163 197.001z" />
    <glyph glyph-name="lslash" unicode="&#xb3;" horiz-adv-x="424" 
d="M150 619l-150 -110v123l150 110v623h123v-558l151 112v-123l-151 -112v-684h-123v619z" />
    <glyph glyph-name="lslash" unicode="&#x142;" horiz-adv-x="424" 
d="M150 619l-150 -110v123l150 110v623h123v-558l151 112v-123l-151 -112v-684h-123v619z" />
    <glyph glyph-name="acute" unicode="&#xb4;" 
d="M401 1161l140 252h164l-206 -252h-98z" />
    <glyph glyph-name="mu" unicode="&#xb5;" horiz-adv-x="1104" 
d="M146 -239l0.000976562 1222h123v-565c0 -74.667 5.83301 -131.834 17.5 -171.501s33.167 -74.5 64.5 -104.5c52 -48.667 117 -73 195 -73c88 0 158.167 33.5 210.5 100.5s78.5 156.833 78.5 269.5v544h123v-983h-123v189c-62.667 -144 -160.334 -216 -293.001 -216
c-116 0 -207 52 -273 156v-368h-123z" />
    <glyph glyph-name="paragraph" unicode="&#xb6;" horiz-adv-x="1104" 
d="M942 1365l0.00292969 -1604h-119v1485h-145v-1485h-119v836h-77c-82.667 0 -148.334 8.5 -197.001 25.5s-89.334 45.5 -122.001 85.5c-55.333 67.333 -83 156.666 -83 267.999c0 132.667 29.167 230.667 87.5 294s148.166 95 269.499 95h505z" />
    <glyph glyph-name="periodcentered" unicode="&#xb7;" horiz-adv-x="444" 
d="M150 427v171h143v-171h-143z" />
    <glyph glyph-name="periodcentered" unicode="&#x2219;" horiz-adv-x="444" 
d="M150 427v171h143v-171h-143z" />
    <glyph glyph-name="cedilla" unicode="&#xb8;" 
d="M569 0l-73.9971 -118c23.333 5.33301 43.666 8 60.999 8c42 0 76.5 -12.333 103.5 -37s40.5 -56 40.5 -94c0 -46.667 -18.333 -84.5 -55 -113.5s-84.334 -43.5 -143.001 -43.5c-51.333 0 -110.333 13 -177 39l26 58c50 -21.333 97.333 -32 142 -32
c31.333 0 57.166 8.5 77.499 25.5s30.5 38.167 30.5 63.5c0 21.333 -9 39 -27 53s-40.667 21 -68 21c-20.667 0 -47.667 -5.66699 -81 -17l-30 29l104 158h70z" />
    <glyph glyph-name="uni00B9" unicode="&#xb9;" horiz-adv-x="1038" 
d="M994 0c-98.667 -54.667 -147.997 -115.001 -147.997 -181.001c0 -28 11.167 -51.333 33.5 -70s50.166 -28 83.499 -28c26 0 52.333 4.33301 79 13v-81c-29.333 -11.333 -62.666 -17 -99.999 -17c-54.667 0 -100.5 16 -137.5 48s-55.5 71.667 -55.5 119
c0 35.333 12.333 69.333 37 102s58 59.334 100 80.001c-42.667 0 -73.334 11 -92.001 33s-30.667 61.333 -36 118c-54.667 -60 -108.334 -102.167 -161.001 -126.5s-117 -36.5 -193 -36.5c-100 0 -177.833 24.667 -233.5 74s-83.5 118.333 -83.5 207
c0 74 19.333 135.333 58 184c27.333 33.333 59.833 58.333 97.5 75s92.5 30.667 164.5 42l244 36c53.333 8 85.166 17.833 95.499 29.5s15.5 43.834 15.5 96.501c0 66 -20.167 114 -60.5 144s-104.833 45 -193.5 45c-83.333 0 -143.833 -16.5 -181.5 -49.5
s-60.167 -88.5 -67.5 -166.5h-131c13.333 213.333 140 320 380 320c106.667 0 192.667 -19.667 258 -59c44 -26.667 74.333 -58.834 91 -96.501s25 -92.5 25 -164.5v-519c0 -64 20 -96 60 -96c12.667 0 30 3 52 9v-84zM758.003 508.999l-336 -53
c-74 -12 -127.667 -33 -161 -63s-50 -72.667 -50 -128c0 -125.333 71 -188 213 -188c78.667 0 148 20 208 60c48 32 81 69 99 111s27 102.667 27 182v79z" />
    <glyph glyph-name="uni00B9" unicode="&#x105;" horiz-adv-x="1038" 
d="M994 0c-98.667 -54.667 -147.997 -115.001 -147.997 -181.001c0 -28 11.167 -51.333 33.5 -70s50.166 -28 83.499 -28c26 0 52.333 4.33301 79 13v-81c-29.333 -11.333 -62.666 -17 -99.999 -17c-54.667 0 -100.5 16 -137.5 48s-55.5 71.667 -55.5 119
c0 35.333 12.333 69.333 37 102s58 59.334 100 80.001c-42.667 0 -73.334 11 -92.001 33s-30.667 61.333 -36 118c-54.667 -60 -108.334 -102.167 -161.001 -126.5s-117 -36.5 -193 -36.5c-100 0 -177.833 24.667 -233.5 74s-83.5 118.333 -83.5 207
c0 74 19.333 135.333 58 184c27.333 33.333 59.833 58.333 97.5 75s92.5 30.667 164.5 42l244 36c53.333 8 85.166 17.833 95.499 29.5s15.5 43.834 15.5 96.501c0 66 -20.167 114 -60.5 144s-104.833 45 -193.5 45c-83.333 0 -143.833 -16.5 -181.5 -49.5
s-60.167 -88.5 -67.5 -166.5h-131c13.333 213.333 140 320 380 320c106.667 0 192.667 -19.667 258 -59c44 -26.667 74.333 -58.834 91 -96.501s25 -92.5 25 -164.5v-519c0 -64 20 -96 60 -96c12.667 0 30 3 52 9v-84zM758.003 508.999l-336 -53
c-74 -12 -127.667 -33 -161 -63s-50 -72.667 -50 -128c0 -125.333 71 -188 213 -188c78.667 0 148 20 208 60c48 32 81 69 99 111s27 102.667 27 182v79z" />
    <glyph glyph-name="scedilla" unicode="&#xba;" horiz-adv-x="931" 
d="M486 -27l-55.9941 -91c23.333 6 43.666 9 60.999 9c42 0 76.5 -12.333 103.5 -37s40.5 -56 40.5 -94c0 -46.667 -18.333 -84.667 -55 -114s-84.334 -44 -143.001 -44c-51.333 0 -110.333 13 -177 39l26 58c49.333 -20.667 96.666 -31 141.999 -31
c31.333 0 57.166 8.33301 77.499 25s30.5 38 30.5 64c0 20.667 -9 38 -27 52s-40.667 21 -68 21c-20.667 0 -47.667 -5.33301 -81 -16l-30 29l74 132l-12 5l-111 25c-54.667 12.667 -101.5 47.5 -140.5 104.5s-58.5 119.167 -58.5 186.5v14h123
c11.333 -153.333 105.666 -230 282.999 -230c75.333 0 134.666 17.333 177.999 52s65 82 65 142c0 44 -17.333 77.833 -52 101.5s-100.334 45.834 -197.001 66.501l-113 25c-174 37.333 -261 123.666 -261 258.999c0 88 32 157.333 96 208s151.333 76 262 76
c223.333 0 346.666 -102.333 369.999 -307h-121c-13.333 72.667 -39.166 123.5 -77.499 152.5s-98.166 43.5 -179.499 43.5c-72 0 -127.833 -14.167 -167.5 -42.5s-59.5 -68.166 -59.5 -119.499c0 -40.667 13.833 -73.167 41.5 -97.5s73.167 -43.833 136.5 -58.5l106 -25
c138 -32.667 229 -66.834 273 -102.501s66 -93.5 66 -173.5c0 -91.333 -34 -165.333 -102 -222s-156.667 -85 -266 -85z" />
    <glyph glyph-name="scedilla" unicode="&#x15f;" horiz-adv-x="931" 
d="M486 -27l-55.9941 -91c23.333 6 43.666 9 60.999 9c42 0 76.5 -12.333 103.5 -37s40.5 -56 40.5 -94c0 -46.667 -18.333 -84.667 -55 -114s-84.334 -44 -143.001 -44c-51.333 0 -110.333 13 -177 39l26 58c49.333 -20.667 96.666 -31 141.999 -31
c31.333 0 57.166 8.33301 77.499 25s30.5 38 30.5 64c0 20.667 -9 38 -27 52s-40.667 21 -68 21c-20.667 0 -47.667 -5.33301 -81 -16l-30 29l74 132l-12 5l-111 25c-54.667 12.667 -101.5 47.5 -140.5 104.5s-58.5 119.167 -58.5 186.5v14h123
c11.333 -153.333 105.666 -230 282.999 -230c75.333 0 134.666 17.333 177.999 52s65 82 65 142c0 44 -17.333 77.833 -52 101.5s-100.334 45.834 -197.001 66.501l-113 25c-174 37.333 -261 123.666 -261 258.999c0 88 32 157.333 96 208s151.333 76 262 76
c223.333 0 346.666 -102.333 369.999 -307h-121c-13.333 72.667 -39.166 123.5 -77.499 152.5s-98.166 43.5 -179.499 43.5c-72 0 -127.833 -14.167 -167.5 -42.5s-59.5 -68.166 -59.5 -119.499c0 -40.667 13.833 -73.167 41.5 -97.5s73.167 -43.833 136.5 -58.5l106 -25
c138 -32.667 229 -66.834 273 -102.501s66 -93.5 66 -173.5c0 -91.333 -34 -165.333 -102 -222s-156.667 -85 -266 -85z" />
    <glyph glyph-name="guillemotright" unicode="&#xbb;" horiz-adv-x="889" 
d="M471 160v143l213 186l-213 185v149l322 -276v-107zM116 160v143l213 186l-213 185v149l322 -276v-107z" />
    <glyph glyph-name="glyph264" unicode="&#xbc;" horiz-adv-x="1046" 
d="M164 0v1365h137v-1249h711v-116h-848zM670 1365v-138c0 -130 -50 -205.333 -150 -226l-7 -1v83c32.667 14 53 27.333 61 40s12 37.667 12 75h-73v167h157z" />
    <glyph glyph-name="glyph264" unicode="&#x13d;" horiz-adv-x="1046" 
d="M164 0v1365h137v-1249h711v-116h-848zM670 1365v-138c0 -130 -50 -205.333 -150 -226l-7 -1v83c32.667 14 53 27.333 61 40s12 37.667 12 75h-73v167h157z" />
    <glyph glyph-name="hungarumlaut" unicode="&#xbd;" 
d="M341 1161l140 252h125l-180 -252h-85zM556 1161l140 252h125l-180 -252h-85z" />
    <glyph glyph-name="hungarumlaut" unicode="&#x2dd;" 
d="M341 1161l140 252h125l-180 -252h-85zM556 1161l140 252h125l-180 -252h-85z" />
    <glyph glyph-name="glyph284" unicode="&#xbe;" horiz-adv-x="499" 
d="M150 0v1365h123v-1365h-123zM539 1365v-138c0 -130 -50 -205.333 -150 -226l-7 -1v83c32.667 14 53 27.333 61 40s12 37.667 12 75h-73v167h157z" />
    <glyph glyph-name="glyph284" unicode="&#x13e;" horiz-adv-x="499" 
d="M150 0v1365h123v-1365h-123zM539 1365v-138c0 -130 -50 -205.333 -150 -226l-7 -1v83c32.667 14 53 27.333 61 40s12 37.667 12 75h-73v167h157z" />
    <glyph glyph-name="glyph294" unicode="&#xbf;" horiz-adv-x="877" 
d="M841 0h-782v90l603 781h-559v112h714v-86l-600 -786h624v-111zM394 1197v174h139v-174h-139z" />
    <glyph glyph-name="glyph294" unicode="&#x17c;" horiz-adv-x="877" 
d="M841 0h-782v90l603 781h-559v112h714v-86l-600 -786h624v-111zM394 1197v174h139v-174h-139z" />
    <glyph glyph-name="glyph268" unicode="&#xc0;" horiz-adv-x="1300" 
d="M164 0l0.00195312 1365h554c98 0 174.5 -8.33301 229.5 -25s100.833 -45.667 137.5 -87c58.667 -66 88 -151 88 -255c0 -155.333 -70.333 -265 -211 -329c70 -38 113.5 -76.833 130.5 -116.5s29.833 -131.167 38.5 -274.5c6 -101.333 12.833 -165.666 20.5 -192.999
s26.5 -55.666 56.5 -84.999h-164c-16.667 48.667 -28 121.334 -34 218.001c-10.667 166 -33.334 274 -68.001 324c-20.667 29.333 -47.834 48.666 -81.501 57.999s-93.5 14 -179.5 14h-382v-614h-135zM299.002 725.998h366c138.667 0 231.667 17.667 279 53
c61.333 46 92 119 92 219c0 80 -22.333 141.667 -67 185c-26.667 26 -60 43.333 -100 52s-106.333 13 -199 13h-371v-522zM533.002 1495l139 252h165l-206 -252h-98z" />
    <glyph glyph-name="glyph268" unicode="&#x154;" horiz-adv-x="1300" 
d="M164 0l0.00195312 1365h554c98 0 174.5 -8.33301 229.5 -25s100.833 -45.667 137.5 -87c58.667 -66 88 -151 88 -255c0 -155.333 -70.333 -265 -211 -329c70 -38 113.5 -76.833 130.5 -116.5s29.833 -131.167 38.5 -274.5c6 -101.333 12.833 -165.666 20.5 -192.999
s26.5 -55.666 56.5 -84.999h-164c-16.667 48.667 -28 121.334 -34 218.001c-10.667 166 -33.334 274 -68.001 324c-20.667 29.333 -47.834 48.666 -81.501 57.999s-93.5 14 -179.5 14h-382v-614h-135zM299.002 725.998h366c138.667 0 231.667 17.667 279 53
c61.333 46 92 119 92 219c0 80 -22.333 141.667 -67 185c-26.667 26 -60 43.333 -100 52s-106.333 13 -199 13h-371v-522zM533.002 1495l139 252h165l-206 -252h-98z" />
    <glyph glyph-name="Aacute" unicode="&#xc1;" horiz-adv-x="1268" 
d="M27 0l538 1365h141l535 -1365h-142l-164 433h-604l-162 -433h-142zM374 540h523l-264 697zM564 1495l139 252h165l-206 -252h-98z" />
    <glyph glyph-name="Acircumflex" unicode="&#xc2;" horiz-adv-x="1268" 
d="M27 0l538 1365h141l535 -1365h-142l-164 433h-604l-162 -433h-142zM374 540h523l-264 697zM360 1497l203 248h144l201 -248h-132l-139 174l-148 -174h-129z" />
    <glyph glyph-name="glyph258" unicode="&#xc3;" horiz-adv-x="1268" 
d="M27 0l538 1365h141l535 -1365h-142l-164 433h-604l-162 -433h-142zM374 540h523l-264 697zM910 1743c-24.667 -163.333 -118 -245 -280 -245c-78.667 0 -142.5 22 -191.5 66s-76.167 103.667 -81.5 179h82c22 -100.667 85.667 -151 191 -151
c108.667 0 175 50.333 199 151h81z" />
    <glyph glyph-name="glyph258" unicode="&#x102;" horiz-adv-x="1268" 
d="M27 0l538 1365h141l535 -1365h-142l-164 433h-604l-162 -433h-142zM374 540h523l-264 697zM910 1743c-24.667 -163.333 -118 -245 -280 -245c-78.667 0 -142.5 22 -191.5 66s-76.167 103.667 -81.5 179h82c22 -100.667 85.667 -151 191 -151
c108.667 0 175 50.333 199 151h81z" />
    <glyph glyph-name="Adieresis" unicode="&#xc4;" horiz-adv-x="1268" 
d="M27 0l538 1365h141l535 -1365h-142l-164 433h-604l-162 -433h-142zM374 540h523l-264 697zM348 1534v174h139v-174h-139zM781 1534v174h139v-174h-139z" />
    <glyph glyph-name="glyph263" unicode="&#xc5;" horiz-adv-x="1046" 
d="M164 0v1365h137v-1249h711v-116h-848zM166 1495l140 252h164l-205 -252h-99z" />
    <glyph glyph-name="glyph263" unicode="&#x139;" horiz-adv-x="1046" 
d="M164 0v1365h137v-1249h711v-116h-848zM166 1495l140 252h164l-205 -252h-99z" />
    <glyph glyph-name="Cacute" unicode="&#xc6;" horiz-adv-x="1367" 
d="M1288 485c-24 -163.333 -86.165 -289.499 -186.498 -378.499s-230.5 -133.5 -390.5 -133.5c-186.667 0 -334.167 64.167 -442.5 192.5s-162.5 302.833 -162.5 523.5c0 215.333 56 386.333 168 513s263.333 190 454 190c291.333 0 471 -138.667 539 -416h-132
c-62.667 198.667 -199.334 298 -410.001 298c-148.667 0 -266.334 -53 -353.001 -159s-130 -250 -130 -432c0 -180.667 42.5 -324.834 127.5 -432.501s198.833 -161.5 341.5 -161.5c120 0 220.333 36 301 108s128.667 168 144 288h132zM626.002 1495l140 252h164l-205 -252
h-99z" />
    <glyph glyph-name="Cacute" unicode="&#x106;" horiz-adv-x="1367" 
d="M1288 485c-24 -163.333 -86.165 -289.499 -186.498 -378.499s-230.5 -133.5 -390.5 -133.5c-186.667 0 -334.167 64.167 -442.5 192.5s-162.5 302.833 -162.5 523.5c0 215.333 56 386.333 168 513s263.333 190 454 190c291.333 0 471 -138.667 539 -416h-132
c-62.667 198.667 -199.334 298 -410.001 298c-148.667 0 -266.334 -53 -353.001 -159s-130 -250 -130 -432c0 -180.667 42.5 -324.834 127.5 -432.501s198.833 -161.5 341.5 -161.5c120 0 220.333 36 301 108s128.667 168 144 288h132zM626.002 1495l140 252h164l-205 -252
h-99z" />
    <glyph glyph-name="Ccedilla" unicode="&#xc7;" horiz-adv-x="1367" 
d="M733 -27l-52.9941 -90.998c23.333 6 43.666 9 60.999 9c42 0 76.5 -12.333 103.5 -37s40.5 -56 40.5 -94c0 -46.667 -18.333 -84.667 -55 -114s-84.334 -44 -143.001 -44c-51.333 0 -110.333 13 -177 39l26 58c49.333 -20.667 96.666 -31 141.999 -31
c31.333 0 57.166 8.5 77.499 25.5s30.5 38.167 30.5 63.5c0 21.333 -9 39 -27 53s-40.667 21 -68 21c-21.333 0 -48.333 -5.66699 -81 -17l-31 29l84 130c-144.667 19.333 -258 64.666 -340 135.999c-144.667 125.333 -217 318.666 -217 579.999
c0 215.333 56 386.333 168 513s263.333 190 454 190c291.333 0 471 -138.667 539 -416h-132c-62.667 198.667 -199.334 298 -410.001 298c-148.667 0 -266.334 -53 -353.001 -159s-130 -250.333 -130 -433c0 -180 42.5 -324 127.5 -432s198.833 -162 341.5 -162
c120 0 220.333 36 301 108s128.667 168.333 144 289h132c-22.667 -158.667 -83.5 -283.667 -182.5 -375s-223.167 -137 -372.5 -137z" />
    <glyph glyph-name="Ccaron" unicode="&#xc8;" horiz-adv-x="1367" 
d="M1288 485c-24 -163.333 -86.165 -289.499 -186.498 -378.499s-230.5 -133.5 -390.5 -133.5c-186.667 0 -334.167 64.167 -442.5 192.5s-162.5 302.833 -162.5 523.5c0 215.333 56 386.333 168 513s263.333 190 454 190c291.333 0 471 -138.667 539 -416h-132
c-62.667 198.667 -199.334 298 -410.001 298c-148.667 0 -266.334 -53 -353.001 -159s-130 -250 -130 -432c0 -180.667 42.5 -324.834 127.5 -432.501s198.833 -161.5 341.5 -161.5c120 0 220.333 36 301 108s128.667 168 144 288h132zM450.002 1745h129l148 -174l139 174
h132l-201 -248h-144z" />
    <glyph glyph-name="Ccaron" unicode="&#x10c;" horiz-adv-x="1367" 
d="M1288 485c-24 -163.333 -86.165 -289.499 -186.498 -378.499s-230.5 -133.5 -390.5 -133.5c-186.667 0 -334.167 64.167 -442.5 192.5s-162.5 302.833 -162.5 523.5c0 215.333 56 386.333 168 513s263.333 190 454 190c291.333 0 471 -138.667 539 -416h-132
c-62.667 198.667 -199.334 298 -410.001 298c-148.667 0 -266.334 -53 -353.001 -159s-130 -250 -130 -432c0 -180.667 42.5 -324.834 127.5 -432.501s198.833 -161.5 341.5 -161.5c120 0 220.333 36 301 108s128.667 168 144 288h132zM450.002 1745h129l148 -174l139 174
h132l-201 -248h-144z" />
    <glyph glyph-name="Eacute" unicode="&#xc9;" horiz-adv-x="1184" 
d="M164 0v1365h917v-117h-780v-491h717v-110h-717v-532h798v-115h-935zM529 1495l139 252h165l-206 -252h-98z" />
    <glyph glyph-name="glyph262" unicode="&#xca;" horiz-adv-x="1184" 
d="M1099 0l-35.999 -21.001c-78.667 -47.333 -118 -100.666 -118 -159.999c0 -28 11.167 -51.333 33.5 -70s50.166 -28 83.499 -28c26 0 52.333 4.33301 79 13v-81c-30 -11.333 -63.333 -17 -100 -17c-54.667 0 -100.5 16 -137.5 48s-55.5 71.667 -55.5 119
c0 83.333 56.667 149 170 197h-854v1365h917v-117h-780v-491h717v-110h-717v-532h798v-115z" />
    <glyph glyph-name="glyph262" unicode="&#x118;" horiz-adv-x="1184" 
d="M1099 0l-35.999 -21.001c-78.667 -47.333 -118 -100.666 -118 -159.999c0 -28 11.167 -51.333 33.5 -70s50.166 -28 83.499 -28c26 0 52.333 4.33301 79 13v-81c-30 -11.333 -63.333 -17 -100 -17c-54.667 0 -100.5 16 -137.5 48s-55.5 71.667 -55.5 119
c0 83.333 56.667 149 170 197h-854v1365h917v-117h-780v-491h717v-110h-717v-532h798v-115z" />
    <glyph glyph-name="Edieresis" unicode="&#xcb;" horiz-adv-x="1184" 
d="M164 0v1365h917v-117h-780v-491h717v-110h-717v-532h798v-115h-935zM334 1534v174h139v-174h-139zM766 1534v174h139v-174h-139z" />
    <glyph glyph-name="glyph261" unicode="&#xcc;" horiz-adv-x="1184" 
d="M164 0v1365h917v-117h-780v-491h717v-110h-717v-532h798v-115h-935zM345 1745h129l149 -174l139 174h131l-200 -248h-144z" />
    <glyph glyph-name="glyph261" unicode="&#x11a;" horiz-adv-x="1184" 
d="M164 0v1365h917v-117h-780v-491h717v-110h-717v-532h798v-115h-935zM345 1745h129l149 -174l139 174h131l-200 -248h-144z" />
    <glyph glyph-name="Iacute" unicode="&#xcd;" horiz-adv-x="466" 
d="M164 0v1365h139v-1365h-139zM163 1495l140 252h164l-206 -252h-98z" />
    <glyph glyph-name="Icircumflex" unicode="&#xce;" horiz-adv-x="466" 
d="M164 0v1365h139v-1365h-139zM-7 1497l169 248h144l167 -248h-125l-112 174l-121 -174h-122z" />
    <glyph glyph-name="glyph260" unicode="&#xcf;" horiz-adv-x="1355" 
d="M164 0v1365h482c126 0 222 -13 288 -39s126 -74 180 -144c90 -117.333 135 -279 135 -485c0 -258 -66.333 -448.667 -199 -572c-89.333 -83.333 -222.333 -125 -399 -125h-487zM302 117h339c144.667 0 250.667 35 318 105c102 105.333 153 265.333 153 480
c0 166.667 -34 298 -102 394c-40.667 57.333 -88 97 -142 119s-131 33 -231 33h-335v-1131zM349 1745h129l149 -174l139 174h131l-201 -248h-144z" />
    <glyph glyph-name="glyph260" unicode="&#x10e;" horiz-adv-x="1355" 
d="M164 0v1365h482c126 0 222 -13 288 -39s126 -74 180 -144c90 -117.333 135 -279 135 -485c0 -258 -66.333 -448.667 -199 -572c-89.333 -83.333 -222.333 -125 -399 -125h-487zM302 117h339c144.667 0 250.667 35 318 105c102 105.333 153 265.333 153 480
c0 166.667 -34 298 -102 394c-40.667 57.333 -88 97 -142 119s-131 33 -231 33h-335v-1131zM349 1745h129l149 -174l139 174h131l-201 -248h-144z" />
    <glyph glyph-name="Eth" unicode="&#xd0;" horiz-adv-x="1355" 
d="M164 667h-149.999v110h150v588h482c126 0 222.167 -13 288.5 -39s126.166 -74 179.499 -144c90 -117.333 135 -279 135 -485c0 -258 -66.333 -448.667 -199 -572c-89.333 -83.333 -222 -125 -398 -125h-488v667zM302.001 667l0.000976562 -550h339
c144.667 0 251 35 319 105c101.333 105.333 152 265.333 152 480c0 166.667 -34 298 -102 394c-40.667 57.333 -87.834 97 -141.501 119s-130.5 33 -230.5 33h-336v-471h429v-110h-429z" />
    <glyph glyph-name="Eth" unicode="&#x110;" horiz-adv-x="1355" 
d="M164 667h-149.999v110h150v588h482c126 0 222.167 -13 288.5 -39s126.166 -74 179.499 -144c90 -117.333 135 -279 135 -485c0 -258 -66.333 -448.667 -199 -572c-89.333 -83.333 -222 -125 -398 -125h-488v667zM302.001 667l0.000976562 -550h339
c144.667 0 251 35 319 105c101.333 105.333 152 265.333 152 480c0 166.667 -34 298 -102 394c-40.667 57.333 -87.834 97 -141.501 119s-130.5 33 -230.5 33h-336v-471h429v-110h-429z" />
    <glyph glyph-name="glyph265" unicode="&#xd1;" horiz-adv-x="1360" 
d="M164 0v1365h137l775 -1167v1167h121v-1365h-136l-775 1169v-1169h-122zM583 1495l140 252h164l-206 -252h-98z" />
    <glyph glyph-name="glyph265" unicode="&#x143;" horiz-adv-x="1360" 
d="M164 0v1365h137l775 -1167v1167h121v-1365h-136l-775 1169v-1169h-122zM583 1495l140 252h164l-206 -252h-98z" />
    <glyph glyph-name="glyph266" unicode="&#xd2;" horiz-adv-x="1360" 
d="M164 0v1365h137l775 -1167v1167h121v-1365h-136l-775 1169v-1169h-122zM406 1745h129l149 -174l139 174h132l-201 -248h-144z" />
    <glyph glyph-name="glyph266" unicode="&#x147;" horiz-adv-x="1360" 
d="M164 0v1365h137l775 -1167v1167h121v-1365h-136l-775 1169v-1169h-122zM406 1745h129l149 -174l139 174h132l-201 -248h-144z" />
    <glyph glyph-name="Oacute" unicode="&#xd3;" horiz-adv-x="1475" 
d="M737 1392c194 0 347.667 -64.667 461 -194s170 -305.333 170 -528c0 -212.667 -57 -382 -171 -508s-267.333 -189 -460 -189s-346 63 -460 189s-171 295.333 -171 508c0 222.667 56.667 398.667 170 528s267 194 461 194zM737 1276c-152.667 0 -273 -52.667 -361 -158
s-132 -249.666 -132 -432.999c0 -186 43.667 -331.833 131 -437.5s208 -158.5 362 -158.5c151.333 0 271.333 52.333 360 157s133 246 133 424c0 191.333 -43.167 340.166 -129.5 446.499s-207.5 159.5 -363.5 159.5zM640 1495l139 252h165l-206 -252h-98z" />
    <glyph glyph-name="Ocircumflex" unicode="&#xd4;" horiz-adv-x="1475" 
d="M737 1392c194 0 347.667 -64.667 461 -194s170 -305.333 170 -528c0 -212.667 -57 -382 -171 -508s-267.333 -189 -460 -189s-346 63 -460 189s-171 295.333 -171 508c0 222.667 56.667 398.667 170 528s267 194 461 194zM737 1276c-152.667 0 -273 -52.667 -361 -158
s-132 -249.666 -132 -432.999c0 -186 43.667 -331.833 131 -437.5s208 -158.5 362 -158.5c151.333 0 271.333 52.333 360 157s133 246 133 424c0 191.333 -43.167 340.166 -129.5 446.499s-207.5 159.5 -363.5 159.5zM463 1497l203 248h144l201 -248h-131l-139 174
l-149 -174h-129z" />
    <glyph glyph-name="glyph267" unicode="&#xd5;" horiz-adv-x="1475" 
d="M737 1392c194 0 347.667 -64.667 461 -194s170 -305.333 170 -528c0 -212.667 -57 -382 -171 -508s-267.333 -189 -460 -189s-346 63 -460 189s-171 295.333 -171 508c0 222.667 56.667 398.667 170 528s267 194 461 194zM737 1276c-152.667 0 -273 -52.667 -361 -158
s-132 -249.666 -132 -432.999c0 -186 43.667 -331.833 131 -437.5s208 -158.5 362 -158.5c151.333 0 271.333 52.333 360 157s133 246 133 424c0 191.333 -43.167 340.166 -129.5 446.499s-207.5 159.5 -363.5 159.5zM579 1495l140 252h125l-180 -252h-85zM794 1495l140 252
h125l-180 -252h-85z" />
    <glyph glyph-name="glyph267" unicode="&#x150;" horiz-adv-x="1475" 
d="M737 1392c194 0 347.667 -64.667 461 -194s170 -305.333 170 -528c0 -212.667 -57 -382 -171 -508s-267.333 -189 -460 -189s-346 63 -460 189s-171 295.333 -171 508c0 222.667 56.667 398.667 170 528s267 194 461 194zM737 1276c-152.667 0 -273 -52.667 -361 -158
s-132 -249.666 -132 -432.999c0 -186 43.667 -331.833 131 -437.5s208 -158.5 362 -158.5c151.333 0 271.333 52.333 360 157s133 246 133 424c0 191.333 -43.167 340.166 -129.5 446.499s-207.5 159.5 -363.5 159.5zM579 1495l140 252h125l-180 -252h-85zM794 1495l140 252
h125l-180 -252h-85z" />
    <glyph glyph-name="Odieresis" unicode="&#xd6;" horiz-adv-x="1475" 
d="M737 1392c194 0 347.667 -64.667 461 -194s170 -305.333 170 -528c0 -212.667 -57 -382 -171 -508s-267.333 -189 -460 -189s-346 63 -460 189s-171 295.333 -171 508c0 222.667 56.667 398.667 170 528s267 194 461 194zM737 1276c-152.667 0 -273 -52.667 -361 -158
s-132 -249.666 -132 -432.999c0 -186 43.667 -331.833 131 -437.5s208 -158.5 362 -158.5c151.333 0 271.333 52.333 360 157s133 246 133 424c0 191.333 -43.167 340.166 -129.5 446.499s-207.5 159.5 -363.5 159.5zM451 1534v174h139v-174h-139zM884 1534v174h139v-174
h-139z" />
    <glyph glyph-name="multiply" unicode="&#xd7;" horiz-adv-x="1104" 
d="M297 1018l255 -255l255 255l80 -81l-254 -254l254 -255l-80 -81l-255 255l-255 -255l-80 81l255 255l-255 254z" />
    <glyph glyph-name="glyph269" unicode="&#xd8;" horiz-adv-x="1300" 
d="M164 0l0.00195312 1365h554c98 0 174.5 -8.33301 229.5 -25s100.833 -45.667 137.5 -87c58.667 -66 88 -151 88 -255c0 -155.333 -70.333 -265 -211 -329c70 -38 113.5 -76.833 130.5 -116.5s29.833 -131.167 38.5 -274.5c6 -101.333 12.833 -165.666 20.5 -192.999
s26.5 -55.666 56.5 -84.999h-164c-16.667 48.667 -28 121.334 -34 218.001c-10.667 166 -33.334 274 -68.001 324c-20.667 29.333 -47.834 48.666 -81.501 57.999s-93.5 14 -179.5 14h-382v-614h-135zM299.002 725.998h366c138.667 0 231.667 17.667 279 53
c61.333 46 92 119 92 219c0 80 -22.333 141.667 -67 185c-26.667 26 -60 43.333 -100 52s-106.333 13 -199 13h-371v-522zM349.002 1745h129l149 -174l139 174h131l-201 -248h-144z" />
    <glyph glyph-name="glyph269" unicode="&#x158;" horiz-adv-x="1300" 
d="M164 0l0.00195312 1365h554c98 0 174.5 -8.33301 229.5 -25s100.833 -45.667 137.5 -87c58.667 -66 88 -151 88 -255c0 -155.333 -70.333 -265 -211 -329c70 -38 113.5 -76.833 130.5 -116.5s29.833 -131.167 38.5 -274.5c6 -101.333 12.833 -165.666 20.5 -192.999
s26.5 -55.666 56.5 -84.999h-164c-16.667 48.667 -28 121.334 -34 218.001c-10.667 166 -33.334 274 -68.001 324c-20.667 29.333 -47.834 48.666 -81.501 57.999s-93.5 14 -179.5 14h-382v-614h-135zM299.002 725.998h366c138.667 0 231.667 17.667 279 53
c61.333 46 92 119 92 219c0 80 -22.333 141.667 -67 185c-26.667 26 -60 43.333 -100 52s-106.333 13 -199 13h-371v-522zM349.002 1745h129l149 -174l139 174h131l-201 -248h-144z" />
    <glyph glyph-name="glyph272" unicode="&#xd9;" horiz-adv-x="1308" 
d="M150 1365h137v-902c0 -75.333 7.83301 -135 23.5 -179s43.167 -82 82.5 -114c64.667 -54 152 -81 262 -81c114 0 202.667 28.667 266 86c66 59.333 99 160 99 302v888h138v-870c0 -102 -12.333 -185.5 -37 -250.5s-65 -119.833 -121 -164.5
c-88.667 -71.333 -205 -107 -349 -107c-148 0 -266.667 35.333 -356 106c-53.333 42 -90.833 93.333 -112.5 154s-32.5 144.667 -32.5 252v880zM654 1812c47.333 0 87.666 -16.667 120.999 -50s50 -73.333 50 -120c0 -47.333 -16.667 -87.666 -50 -120.999
s-73.666 -50 -120.999 -50s-87.666 16.667 -120.999 50s-50 73.666 -50 120.999c0 46.667 16.667 86.667 50 120s73.666 50 120.999 50zM654 1737c-26.667 0 -49.334 -9.33301 -68.001 -28s-28 -41 -28 -67c0 -26.667 9.33301 -49.334 28 -68.001s41.334 -28 68.001 -28
s49.334 9.33301 68.001 28s28 41.334 28 68.001c0 26 -9.33301 48.333 -28 67s-41.334 28 -68.001 28z" />
    <glyph glyph-name="glyph272" unicode="&#x16e;" horiz-adv-x="1308" 
d="M150 1365h137v-902c0 -75.333 7.83301 -135 23.5 -179s43.167 -82 82.5 -114c64.667 -54 152 -81 262 -81c114 0 202.667 28.667 266 86c66 59.333 99 160 99 302v888h138v-870c0 -102 -12.333 -185.5 -37 -250.5s-65 -119.833 -121 -164.5
c-88.667 -71.333 -205 -107 -349 -107c-148 0 -266.667 35.333 -356 106c-53.333 42 -90.833 93.333 -112.5 154s-32.5 144.667 -32.5 252v880zM654 1812c47.333 0 87.666 -16.667 120.999 -50s50 -73.333 50 -120c0 -47.333 -16.667 -87.666 -50 -120.999
s-73.666 -50 -120.999 -50s-87.666 16.667 -120.999 50s-50 73.666 -50 120.999c0 46.667 16.667 86.667 50 120s73.666 50 120.999 50zM654 1737c-26.667 0 -49.334 -9.33301 -68.001 -28s-28 -41 -28 -67c0 -26.667 9.33301 -49.334 28 -68.001s41.334 -28 68.001 -28
s49.334 9.33301 68.001 28s28 41.334 28 68.001c0 26 -9.33301 48.333 -28 67s-41.334 28 -68.001 28z" />
    <glyph glyph-name="Uacute" unicode="&#xda;" horiz-adv-x="1308" 
d="M150 1365h137v-902c0 -75.333 7.83301 -135 23.5 -179s43.167 -82 82.5 -114c64.667 -54 152 -81 262 -81c114 0 202.667 28.667 266 86c66 59.333 99 160 99 302v888h138v-870c0 -102 -12.333 -185.5 -37 -250.5s-65 -119.833 -121 -164.5
c-88.667 -71.333 -205 -107 -349 -107c-148 0 -266.667 35.333 -356 106c-53.333 42 -90.833 93.333 -112.5 154s-32.5 144.667 -32.5 252v880zM557 1495l139 252h165l-206 -252h-98z" />
    <glyph glyph-name="glyph273" unicode="&#xdb;" horiz-adv-x="1308" 
d="M150 1365h137v-902c0 -75.333 7.83301 -135 23.5 -179s43.167 -82 82.5 -114c64.667 -54 152 -81 262 -81c114 0 202.667 28.667 266 86c66 59.333 99 160 99 302v888h138v-870c0 -102 -12.333 -185.5 -37 -250.5s-65 -119.833 -121 -164.5
c-88.667 -71.333 -205 -107 -349 -107c-148 0 -266.667 35.333 -356 106c-53.333 42 -90.833 93.333 -112.5 154s-32.5 144.667 -32.5 252v880zM489 1495l140 252h125l-180 -252h-85zM704 1495l140 252h125l-180 -252h-85z" />
    <glyph glyph-name="glyph273" unicode="&#x170;" horiz-adv-x="1308" 
d="M150 1365h137v-902c0 -75.333 7.83301 -135 23.5 -179s43.167 -82 82.5 -114c64.667 -54 152 -81 262 -81c114 0 202.667 28.667 266 86c66 59.333 99 160 99 302v888h138v-870c0 -102 -12.333 -185.5 -37 -250.5s-65 -119.833 -121 -164.5
c-88.667 -71.333 -205 -107 -349 -107c-148 0 -266.667 35.333 -356 106c-53.333 42 -90.833 93.333 -112.5 154s-32.5 144.667 -32.5 252v880zM489 1495l140 252h125l-180 -252h-85zM704 1495l140 252h125l-180 -252h-85z" />
    <glyph glyph-name="Udieresis" unicode="&#xdc;" horiz-adv-x="1308" 
d="M150 1365h137v-902c0 -75.333 7.83301 -135 23.5 -179s43.167 -82 82.5 -114c64.667 -54 152 -81 262 -81c114 0 202.667 28.667 266 86c66 59.333 99 160 99 302v888h138v-870c0 -102 -12.333 -185.5 -37 -250.5s-65 -119.833 -121 -164.5
c-88.667 -71.333 -205 -107 -349 -107c-148 0 -266.667 35.333 -356 106c-53.333 42 -90.833 93.333 -112.5 154s-32.5 144.667 -32.5 252v880zM368 1534v174h139v-174h-139zM801 1534v174h139v-174h-139z" />
    <glyph glyph-name="Yacute" unicode="&#xdd;" horiz-adv-x="1183" 
d="M527 0v600l-513 765h169l413 -637l419 637h155l-506 -765v-600h-137zM494 1495l140 252h164l-205 -252h-99z" />
    <glyph glyph-name="glyph276" unicode="&#xde;" horiz-adv-x="1089" 
d="M478 0v1248h-444v117h1021v-117h-440v-1248h-137zM627 -109v-138c0 -69.333 -12.333 -120.5 -37 -153.5s-64.667 -51.833 -120 -56.5v79c30 8 50.167 18.167 60.5 30.5s15.5 31.833 15.5 58.5l1 13h-77v167h157z" />
    <glyph glyph-name="glyph276" unicode="&#x162;" horiz-adv-x="1089" 
d="M478 0v1248h-444v117h1021v-117h-440v-1248h-137zM627 -109v-138c0 -69.333 -12.333 -120.5 -37 -153.5s-64.667 -51.833 -120 -56.5v79c30 8 50.167 18.167 60.5 30.5s15.5 31.833 15.5 58.5l1 13h-77v167h157z" />
    <glyph glyph-name="germandbls" unicode="&#xdf;" horiz-adv-x="1047" 
d="M150 0l-0.00390625 950c0 105.333 6.33301 180.833 19 226.5s38.334 86.5 77.001 122.5c68 62 157 93 267 93c112 0 200.5 -30 265.5 -90s97.5 -142 97.5 -246c0 -122 -57.333 -214.667 -172 -278c88.667 -35.333 152.334 -82.166 191.001 -140.499s58 -136.5 58 -234.5
c0 -132 -37.667 -236.833 -113 -314.5s-176.666 -116.5 -303.999 -116.5c-42 0 -90.333 7 -145 21v109c55.333 -16.667 103 -25 143 -25c87.333 0 158 30.167 212 90.5s81 139.166 81 236.499c0 99.333 -28.333 176.333 -85 231s-136.334 82 -239.001 82
c-27.333 0 -55.666 -2.33301 -84.999 -7v104c22.667 -3.33301 43 -5 61 -5c86.667 0 153.334 22 200.001 66s70 107 70 189c0 147.333 -78.667 221 -236 221c-90.667 0 -153.167 -23.5 -187.5 -70.5s-51.5 -132.833 -51.5 -257.5v-957h-124z" />
    <glyph glyph-name="glyph288" unicode="&#xe0;" horiz-adv-x="646" 
d="M150 0l-0.000976562 983h123v-164c38 65.333 77.5 111.5 118.5 138.5s92.167 40.5 153.5 40.5c16.667 0 34.334 -1.33301 53.001 -4v-120c-20 2.66699 -34.333 4 -43 4c-83.333 0 -153.333 -38.667 -210 -116c-48 -65.333 -72 -156.333 -72 -273v-489h-123zM255.999 1161
l139 252h165l-206 -252h-98z" />
    <glyph glyph-name="glyph288" unicode="&#x155;" horiz-adv-x="646" 
d="M150 0l-0.000976562 983h123v-164c38 65.333 77.5 111.5 118.5 138.5s92.167 40.5 153.5 40.5c16.667 0 34.334 -1.33301 53.001 -4v-120c-20 2.66699 -34.333 4 -43 4c-83.333 0 -153.333 -38.667 -210 -116c-48 -65.333 -72 -156.333 -72 -273v-489h-123zM255.999 1161
l139 252h165l-206 -252h-98z" />
    <glyph glyph-name="aacute" unicode="&#xe1;" horiz-adv-x="1038" 
d="M758 136c-54.667 -60 -108.331 -102.168 -160.998 -126.501s-117 -36.5 -193 -36.5c-100 0 -177.833 24.667 -233.5 74s-83.5 118.333 -83.5 207c0 74 19.333 135.333 58 184c27.333 33.333 59.833 58.333 97.5 75s92.5 30.667 164.5 42l244 36
c53.333 8 85.166 17.833 95.499 29.5s15.5 43.834 15.5 96.501c0 66 -20.167 114 -60.5 144s-104.833 45 -193.5 45c-83.333 0 -143.833 -16.5 -181.5 -49.5s-60.167 -88.5 -67.5 -166.5h-131c13.333 213.333 140 320 380 320c106.667 0 192.667 -19.667 258 -59
c44 -26.667 74.333 -58.834 91 -96.501s25 -92.5 25 -164.5v-519c0 -37.333 4.16699 -62.666 12.5 -75.999s24.5 -20 48.5 -20c12 0 29 3 51 9v-84c-36 -12.667 -67 -19 -93 -19c-48.667 0 -83.334 11.333 -104.001 34s-33.667 63 -39 121zM758.003 508.999l-336 -53
c-74 -12 -127.667 -33 -161 -63s-50 -72.667 -50 -128c0 -125.333 71 -188 213 -188c78.667 0 148 20 208 60c48 32 81 69 99 111s27 102.667 27 182v79zM423.003 1161l140 252h164l-206 -252h-98z" />
    <glyph glyph-name="acircumflex" unicode="&#xe2;" horiz-adv-x="1038" 
d="M758 136c-54.667 -60 -108.331 -102.168 -160.998 -126.501s-117 -36.5 -193 -36.5c-100 0 -177.833 24.667 -233.5 74s-83.5 118.333 -83.5 207c0 74 19.333 135.333 58 184c27.333 33.333 59.833 58.333 97.5 75s92.5 30.667 164.5 42l244 36
c53.333 8 85.166 17.833 95.499 29.5s15.5 43.834 15.5 96.501c0 66 -20.167 114 -60.5 144s-104.833 45 -193.5 45c-83.333 0 -143.833 -16.5 -181.5 -49.5s-60.167 -88.5 -67.5 -166.5h-131c13.333 213.333 140 320 380 320c106.667 0 192.667 -19.667 258 -59
c44 -26.667 74.333 -58.834 91 -96.501s25 -92.5 25 -164.5v-519c0 -37.333 4.16699 -62.666 12.5 -75.999s24.5 -20 48.5 -20c12 0 29 3 51 9v-84c-36 -12.667 -67 -19 -93 -19c-48.667 0 -83.334 11.333 -104.001 34s-33.667 63 -39 121zM758.003 508.999l-336 -53
c-74 -12 -127.667 -33 -161 -63s-50 -72.667 -50 -128c0 -125.333 71 -188 213 -188c78.667 0 148 20 208 60c48 32 81 69 99 111s27 102.667 27 182v79zM246.003 1162l203 249h144l201 -249h-131l-139 175l-149 -175h-129z" />
    <glyph glyph-name="glyph278" unicode="&#xe3;" horiz-adv-x="1038" 
d="M758 136c-54.667 -60 -108.331 -102.168 -160.998 -126.501s-117 -36.5 -193 -36.5c-100 0 -177.833 24.667 -233.5 74s-83.5 118.333 -83.5 207c0 74 19.333 135.333 58 184c27.333 33.333 59.833 58.333 97.5 75s92.5 30.667 164.5 42l244 36
c53.333 8 85.166 17.833 95.499 29.5s15.5 43.834 15.5 96.501c0 66 -20.167 114 -60.5 144s-104.833 45 -193.5 45c-83.333 0 -143.833 -16.5 -181.5 -49.5s-60.167 -88.5 -67.5 -166.5h-131c13.333 213.333 140 320 380 320c106.667 0 192.667 -19.667 258 -59
c44 -26.667 74.333 -58.834 91 -96.501s25 -92.5 25 -164.5v-519c0 -37.333 4.16699 -62.666 12.5 -75.999s24.5 -20 48.5 -20c12 0 29 3 51 9v-84c-36 -12.667 -67 -19 -93 -19c-48.667 0 -83.334 11.333 -104.001 34s-33.667 63 -39 121zM758.003 508.999l-336 -53
c-74 -12 -127.667 -33 -161 -63s-50 -72.667 -50 -128c0 -125.333 71 -188 213 -188c78.667 0 148 20 208 60c48 32 81 69 99 111s27 102.667 27 182v79zM797.003 1405c-24.667 -163.333 -118.333 -245 -281 -245c-78 0 -141.5 22 -190.5 66s-76.167 103.667 -81.5 179h82
c21.333 -100.667 85 -151 191 -151c108 0 174 50.333 198 151h82z" />
    <glyph glyph-name="glyph278" unicode="&#x103;" horiz-adv-x="1038" 
d="M758 136c-54.667 -60 -108.331 -102.168 -160.998 -126.501s-117 -36.5 -193 -36.5c-100 0 -177.833 24.667 -233.5 74s-83.5 118.333 -83.5 207c0 74 19.333 135.333 58 184c27.333 33.333 59.833 58.333 97.5 75s92.5 30.667 164.5 42l244 36
c53.333 8 85.166 17.833 95.499 29.5s15.5 43.834 15.5 96.501c0 66 -20.167 114 -60.5 144s-104.833 45 -193.5 45c-83.333 0 -143.833 -16.5 -181.5 -49.5s-60.167 -88.5 -67.5 -166.5h-131c13.333 213.333 140 320 380 320c106.667 0 192.667 -19.667 258 -59
c44 -26.667 74.333 -58.834 91 -96.501s25 -92.5 25 -164.5v-519c0 -37.333 4.16699 -62.666 12.5 -75.999s24.5 -20 48.5 -20c12 0 29 3 51 9v-84c-36 -12.667 -67 -19 -93 -19c-48.667 0 -83.334 11.333 -104.001 34s-33.667 63 -39 121zM758.003 508.999l-336 -53
c-74 -12 -127.667 -33 -161 -63s-50 -72.667 -50 -128c0 -125.333 71 -188 213 -188c78.667 0 148 20 208 60c48 32 81 69 99 111s27 102.667 27 182v79zM797.003 1405c-24.667 -163.333 -118.333 -245 -281 -245c-78 0 -141.5 22 -190.5 66s-76.167 103.667 -81.5 179h82
c21.333 -100.667 85 -151 191 -151c108 0 174 50.333 198 151h82z" />
    <glyph glyph-name="adieresis" unicode="&#xe4;" horiz-adv-x="1038" 
d="M758 136c-54.667 -60 -108.331 -102.168 -160.998 -126.501s-117 -36.5 -193 -36.5c-100 0 -177.833 24.667 -233.5 74s-83.5 118.333 -83.5 207c0 74 19.333 135.333 58 184c27.333 33.333 59.833 58.333 97.5 75s92.5 30.667 164.5 42l244 36
c53.333 8 85.166 17.833 95.499 29.5s15.5 43.834 15.5 96.501c0 66 -20.167 114 -60.5 144s-104.833 45 -193.5 45c-83.333 0 -143.833 -16.5 -181.5 -49.5s-60.167 -88.5 -67.5 -166.5h-131c13.333 213.333 140 320 380 320c106.667 0 192.667 -19.667 258 -59
c44 -26.667 74.333 -58.834 91 -96.501s25 -92.5 25 -164.5v-519c0 -37.333 4.16699 -62.666 12.5 -75.999s24.5 -20 48.5 -20c12 0 29 3 51 9v-84c-36 -12.667 -67 -19 -93 -19c-48.667 0 -83.334 11.333 -104.001 34s-33.667 63 -39 121zM758.003 508.999l-336 -53
c-74 -12 -127.667 -33 -161 -63s-50 -72.667 -50 -128c0 -125.333 71 -188 213 -188c78.667 0 148 20 208 60c48 32 81 69 99 111s27 102.667 27 182v79zM275.003 1197v174h139v-174h-139zM626.003 1197v174h139v-174h-139z" />
    <glyph glyph-name="glyph283" unicode="&#xe5;" horiz-adv-x="424" 
d="M150 0v1365h123v-1365h-123zM142 1495l133 252h157l-192 -252h-98z" />
    <glyph glyph-name="glyph283" unicode="&#x13a;" horiz-adv-x="424" 
d="M150 0v1365h123v-1365h-123zM142 1495l133 252h157l-192 -252h-98z" />
    <glyph glyph-name="cacute" unicode="&#xe6;" horiz-adv-x="1011" 
d="M819 339l119.997 -0.00195312c-54.667 -244 -193.667 -366 -417 -366c-127.333 0 -230.5 46.667 -309.5 140s-118.5 215.333 -118.5 366c0 160.667 41.833 289.334 125.5 386.001s195.167 145 334.5 145c107.333 0 195 -29.5 263 -88.5s109.667 -141.833 125 -248.5h-123
c-15.333 152.667 -104.666 229 -267.999 229c-103.333 0 -184.666 -37 -243.999 -111s-89 -175.333 -89 -304c0 -122.667 29.333 -221 88 -295s136.334 -111 233.001 -111c80 0 144.333 22.333 193 67s77.667 108.334 87 191.001zM458.997 1161l139 252h164l-205 -252h-98z
" />
    <glyph glyph-name="cacute" unicode="&#x107;" horiz-adv-x="1011" 
d="M819 339l119.997 -0.00195312c-54.667 -244 -193.667 -366 -417 -366c-127.333 0 -230.5 46.667 -309.5 140s-118.5 215.333 -118.5 366c0 160.667 41.833 289.334 125.5 386.001s195.167 145 334.5 145c107.333 0 195 -29.5 263 -88.5s109.667 -141.833 125 -248.5h-123
c-15.333 152.667 -104.666 229 -267.999 229c-103.333 0 -184.666 -37 -243.999 -111s-89 -175.333 -89 -304c0 -122.667 29.333 -221 88 -295s136.334 -111 233.001 -111c80 0 144.333 22.333 193 67s77.667 108.334 87 191.001zM458.997 1161l139 252h164l-205 -252h-98z
" />
    <glyph glyph-name="ccedilla" unicode="&#xe7;" horiz-adv-x="1011" 
d="M550 -27l-56 -91c24 6 44.333 9 61 9c42 0 76.5 -12.333 103.5 -37s40.5 -56 40.5 -94c0 -46.667 -18.333 -84.667 -55 -114s-84.334 -44 -143.001 -44c-51.333 0 -110.333 13 -177 39l26 58c49.333 -20.667 96.666 -31 141.999 -31c31.333 0 57.166 8.33301 77.499 25
s30.5 38 30.5 64c0 20.667 -9 38 -27 52s-40.667 21 -68 21c-21.333 0 -48.333 -5.33301 -81 -16l-30 29l87 132c-123.333 17.333 -218.666 69.666 -285.999 156.999s-101 203 -101 347c0 160.667 41.833 289.334 125.5 386.001s195.167 145 334.5 145
c107.333 0 195 -29.5 263 -88.5s109.667 -141.833 125 -248.5h-123c-15.333 152.667 -104.666 229 -267.999 229c-103.333 0 -184.666 -37.167 -243.999 -111.5s-89 -175.833 -89 -304.5c0 -122 29.333 -220.167 88 -294.5s136.334 -111.5 233.001 -111.5
c80 0 144.333 22.5 193 67.5s77.667 108.833 87 191.5h120c-50.667 -225.333 -180.334 -347.333 -389.001 -366z" />
    <glyph glyph-name="ccaron" unicode="&#xe8;" horiz-adv-x="1011" 
d="M819 339l119.997 -0.00195312c-54.667 -244 -193.667 -366 -417 -366c-127.333 0 -230.5 46.667 -309.5 140s-118.5 215.333 -118.5 366c0 160.667 41.833 289.334 125.5 386.001s195.167 145 334.5 145c107.333 0 195 -29.5 263 -88.5s109.667 -141.833 125 -248.5h-123
c-15.333 152.667 -104.666 229 -267.999 229c-103.333 0 -184.666 -37 -243.999 -111s-89 -175.333 -89 -304c0 -122.667 29.333 -221 88 -295s136.334 -111 233.001 -111c80 0 144.333 22.333 193 67s77.667 108.334 87 191.001zM271.997 1411h128l149 -175l139 175h132
l-201 -249h-144z" />
    <glyph glyph-name="ccaron" unicode="&#x10d;" horiz-adv-x="1011" 
d="M819 339l119.997 -0.00195312c-54.667 -244 -193.667 -366 -417 -366c-127.333 0 -230.5 46.667 -309.5 140s-118.5 215.333 -118.5 366c0 160.667 41.833 289.334 125.5 386.001s195.167 145 334.5 145c107.333 0 195 -29.5 263 -88.5s109.667 -141.833 125 -248.5h-123
c-15.333 152.667 -104.666 229 -267.999 229c-103.333 0 -184.666 -37 -243.999 -111s-89 -175.333 -89 -304c0 -122.667 29.333 -221 88 -295s136.334 -111 233.001 -111c80 0 144.333 22.333 193 67s77.667 108.334 87 191.001zM271.997 1411h128l149 -175l139 175h132
l-201 -249h-144z" />
    <glyph glyph-name="eacute" unicode="&#xe9;" horiz-adv-x="1046" 
d="M827 308h124c-44 -116.667 -99.333 -201.667 -166 -255s-151 -80 -253 -80c-136.667 0 -243.834 44.5 -321.501 133.5s-116.5 212.167 -116.5 369.5c0 163.333 40 293.166 120 389.499s188 144.5 324 144.5c148 0 258.333 -56 331 -168c45.333 -70 72 -179 80 -327l2 -42
h-739c0 -127.333 27.833 -225.166 83.5 -293.499s135.167 -102.5 238.5 -102.5c156.667 0 254.334 77 293.001 231zM217 577h609.999c0 99.333 -26.667 179.333 -80 240s-123.666 91 -210.999 91c-88 0 -159.333 -28.167 -214 -84.5s-89.667 -138.5 -105 -246.5z
M445.999 1161l139 252h165l-206 -252h-98z" />
    <glyph glyph-name="glyph282" unicode="&#xea;" horiz-adv-x="1046" 
d="M819 -266l-0.00292969 -81c-29.333 -11.333 -62.666 -17 -99.999 -17c-54.667 0 -100.5 16 -137.5 48s-55.5 71.667 -55.5 119c0 74 51 138.333 153 193c-63.333 -15.333 -115.666 -23 -156.999 -23c-132 0 -236.333 45 -313 135s-115 212.667 -115 368
c0 163.333 40 293.166 120 389.499s188 144.5 324 144.5c148 0 258.333 -56 331 -168c44.667 -70 71.334 -179 80.001 -327l2 -42h-740c0 -127.333 28 -225.166 84 -293.499s135.667 -102.5 239 -102.5c156.667 0 254.334 77 293.001 231h124
c-42 -112 -105.667 -209 -191 -291c-56.667 -53.333 -93.667 -92.5 -111 -117.5s-26 -51.833 -26 -80.5c0 -28 11.167 -51.333 33.5 -70s50.166 -28 83.499 -28c26 0 52.333 4.33301 79 13zM216.997 577h609.998c0 99.333 -26.667 179.333 -80 240s-123.666 91 -210.999 91
c-88.667 0 -160.167 -28.167 -214.5 -84.5s-89.166 -138.5 -104.499 -246.5z" />
    <glyph glyph-name="glyph282" unicode="&#x119;" horiz-adv-x="1046" 
d="M819 -266l-0.00292969 -81c-29.333 -11.333 -62.666 -17 -99.999 -17c-54.667 0 -100.5 16 -137.5 48s-55.5 71.667 -55.5 119c0 74 51 138.333 153 193c-63.333 -15.333 -115.666 -23 -156.999 -23c-132 0 -236.333 45 -313 135s-115 212.667 -115 368
c0 163.333 40 293.166 120 389.499s188 144.5 324 144.5c148 0 258.333 -56 331 -168c44.667 -70 71.334 -179 80.001 -327l2 -42h-740c0 -127.333 28 -225.166 84 -293.499s135.667 -102.5 239 -102.5c156.667 0 254.334 77 293.001 231h124
c-42 -112 -105.667 -209 -191 -291c-56.667 -53.333 -93.667 -92.5 -111 -117.5s-26 -51.833 -26 -80.5c0 -28 11.167 -51.333 33.5 -70s50.166 -28 83.499 -28c26 0 52.333 4.33301 79 13zM216.997 577h609.998c0 99.333 -26.667 179.333 -80 240s-123.666 91 -210.999 91
c-88.667 0 -160.167 -28.167 -214.5 -84.5s-89.166 -138.5 -104.499 -246.5z" />
    <glyph glyph-name="edieresis" unicode="&#xeb;" horiz-adv-x="1046" 
d="M827 308h124c-44 -116.667 -99.333 -201.667 -166 -255s-151 -80 -253 -80c-136.667 0 -243.834 44.5 -321.501 133.5s-116.5 212.167 -116.5 369.5c0 163.333 40 293.166 120 389.499s188 144.5 324 144.5c148 0 258.333 -56 331 -168c45.333 -70 72 -179 80 -327l2 -42
h-739c0 -127.333 27.833 -225.166 83.5 -293.499s135.167 -102.5 238.5 -102.5c156.667 0 254.334 77 293.001 231zM217 577h609.999c0 99.333 -26.667 179.333 -80 240s-123.666 91 -210.999 91c-88 0 -159.333 -28.167 -214 -84.5s-89.667 -138.5 -105 -246.5z
M297.999 1197v174h139v-174h-139zM648.999 1197v174h139v-174h-139z" />
    <glyph glyph-name="glyph281" unicode="&#xec;" horiz-adv-x="1046" 
d="M827 308h124c-44 -116.667 -99.333 -201.667 -166 -255s-151 -80 -253 -80c-136.667 0 -243.834 44.5 -321.501 133.5s-116.5 212.167 -116.5 369.5c0 163.333 40 293.166 120 389.499s188 144.5 324 144.5c148 0 258.333 -56 331 -168c45.333 -70 72 -179 80 -327l2 -42
h-739c0 -127.333 27.833 -225.166 83.5 -293.499s135.167 -102.5 238.5 -102.5c156.667 0 254.334 77 293.001 231zM217 577h609.999c0 99.333 -26.667 179.333 -80 240s-123.666 91 -210.999 91c-88 0 -159.333 -28.167 -214 -84.5s-89.667 -138.5 -105 -246.5z
M268.999 1411h129l149 -175l139 175h131l-201 -249h-144z" />
    <glyph glyph-name="glyph281" unicode="&#x11b;" horiz-adv-x="1046" 
d="M827 308h124c-44 -116.667 -99.333 -201.667 -166 -255s-151 -80 -253 -80c-136.667 0 -243.834 44.5 -321.501 133.5s-116.5 212.167 -116.5 369.5c0 163.333 40 293.166 120 389.499s188 144.5 324 144.5c148 0 258.333 -56 331 -168c45.333 -70 72 -179 80 -327l2 -42
h-739c0 -127.333 27.833 -225.166 83.5 -293.499s135.167 -102.5 238.5 -102.5c156.667 0 254.334 77 293.001 231zM217 577h609.999c0 99.333 -26.667 179.333 -80 240s-123.666 91 -210.999 91c-88 0 -159.333 -28.167 -214 -84.5s-89.667 -138.5 -105 -246.5z
M268.999 1411h129l149 -175l139 175h131l-201 -249h-144z" />
    <glyph glyph-name="iacute" unicode="&#xed;" horiz-adv-x="425" 
d="M150 0v983h124v-983h-124zM142 1161l133 252h157l-192 -252h-98z" />
    <glyph glyph-name="icircumflex" unicode="&#xee;" horiz-adv-x="424" 
d="M150 0v983h124v-983h-124zM-21 1162l162 249h144l160 -249h-125l-104 175l-115 -175h-122z" />
    <glyph glyph-name="glyph280" unicode="&#xef;" horiz-adv-x="1196" 
d="M971 0l-122.998 -0.000976562v136c-94.667 -108.667 -201.334 -163 -320.001 -163c-129.333 0 -234 47.667 -314 143s-120 220.333 -120 375c0 160.667 38 287.334 114 380.001s180 139 312 139c125.333 0 234.666 -57.333 327.999 -172v527h123v-1365zM522.002 905.999
c-99.333 0 -174.999 -35.167 -226.999 -105.5s-78 -172.833 -78 -307.5c0 -126.667 29.167 -228 87.5 -304s136.166 -114 233.499 -114c98 0 174.333 36.5 229 109.5s82 174.833 82 305.5c0 142.667 -31.333 248 -94 316c-62 66.667 -139.667 100 -233 100zM1237 1365v-138
c0 -130 -50 -205.333 -150 -226l-7 -1v83c32.667 14 53 27.333 61 40s12 37.667 12 75h-73v167h157z" />
    <glyph glyph-name="glyph280" unicode="&#x10f;" horiz-adv-x="1196" 
d="M971 0l-122.998 -0.000976562v136c-94.667 -108.667 -201.334 -163 -320.001 -163c-129.333 0 -234 47.667 -314 143s-120 220.333 -120 375c0 160.667 38 287.334 114 380.001s180 139 312 139c125.333 0 234.666 -57.333 327.999 -172v527h123v-1365zM522.002 905.999
c-99.333 0 -174.999 -35.167 -226.999 -105.5s-78 -172.833 -78 -307.5c0 -126.667 29.167 -228 87.5 -304s136.166 -114 233.499 -114c98 0 174.333 36.5 229 109.5s82 174.833 82 305.5c0 142.667 -31.333 248 -94 316c-62 66.667 -139.667 100 -233 100zM1237 1365v-138
c0 -130 -50 -205.333 -150 -226l-7 -1v83c32.667 14 53 27.333 61 40s12 37.667 12 75h-73v167h157z" />
    <glyph glyph-name="dmacron" unicode="&#xf0;" horiz-adv-x="1121" 
d="M971 0l-122.998 0.000976562v136c-94.667 -108.667 -201.334 -163 -320.001 -163c-129.333 0 -234 47.833 -314 143.5s-120 220.5 -120 374.5c0 161.333 38 288.166 114 380.499s180 138.5 312 138.5c125.333 0 234.666 -57.333 327.999 -172v267h-287v96h287v164h123
v-164h136v-96h-136v-1105zM522.002 906.001c-99.333 0 -174.999 -35.167 -226.999 -105.5s-78 -172.833 -78 -307.5c0 -126.667 29.167 -228 87.5 -304s136.166 -114 233.499 -114c98 0 174.333 36.5 229 109.5s82 174.833 82 305.5c0 142.667 -31.333 248 -94 316
c-62 66.667 -139.667 100 -233 100z" />
    <glyph glyph-name="dmacron" unicode="&#x111;" horiz-adv-x="1121" 
d="M971 0l-122.998 0.000976562v136c-94.667 -108.667 -201.334 -163 -320.001 -163c-129.333 0 -234 47.833 -314 143.5s-120 220.5 -120 374.5c0 161.333 38 288.166 114 380.499s180 138.5 312 138.5c125.333 0 234.666 -57.333 327.999 -172v267h-287v96h287v164h123
v-164h136v-96h-136v-1105zM522.002 906.001c-99.333 0 -174.999 -35.167 -226.999 -105.5s-78 -172.833 -78 -307.5c0 -126.667 29.167 -228 87.5 -304s136.166 -114 233.499 -114c98 0 174.333 36.5 229 109.5s82 174.833 82 305.5c0 142.667 -31.333 248 -94 316
c-62 66.667 -139.667 100 -233 100z" />
    <glyph glyph-name="glyph285" unicode="&#xf1;" horiz-adv-x="1077" 
d="M150 0l-0.000976562 983h125v-119c48.667 54.667 95.667 92.667 141 114s103 32 173 32c109.333 0 192.333 -26.667 249 -80c34 -31.333 57.333 -68.333 70 -111s19 -104 19 -184v-635h-122v642c0 94 -18.667 161.667 -56 203s-98.333 62 -183 62
c-91.333 0 -162.666 -29.5 -213.999 -88.5s-77 -140.833 -77 -245.5v-573h-125zM440.999 1161l140 252h164l-205 -252h-99z" />
    <glyph glyph-name="glyph285" unicode="&#x144;" horiz-adv-x="1077" 
d="M150 0l-0.000976562 983h125v-119c48.667 54.667 95.667 92.667 141 114s103 32 173 32c109.333 0 192.333 -26.667 249 -80c34 -31.333 57.333 -68.333 70 -111s19 -104 19 -184v-635h-122v642c0 94 -18.667 161.667 -56 203s-98.333 62 -183 62
c-91.333 0 -162.666 -29.5 -213.999 -88.5s-77 -140.833 -77 -245.5v-573h-125zM440.999 1161l140 252h164l-205 -252h-99z" />
    <glyph glyph-name="glyph286" unicode="&#xf2;" horiz-adv-x="1077" 
d="M150 0l-0.000976562 983h125v-119c48.667 54.667 95.667 92.667 141 114s103 32 173 32c109.333 0 192.333 -26.667 249 -80c34 -31.333 57.333 -68.333 70 -111s19 -104 19 -184v-635h-122v642c0 94 -18.667 161.667 -56 203s-98.333 62 -183 62
c-91.333 0 -162.666 -29.5 -213.999 -88.5s-77 -140.833 -77 -245.5v-573h-125zM250.999 1411h128l149 -175l139 175h132l-201 -249h-144z" />
    <glyph glyph-name="glyph286" unicode="&#x148;" horiz-adv-x="1077" 
d="M150 0l-0.000976562 983h125v-119c48.667 54.667 95.667 92.667 141 114s103 32 173 32c109.333 0 192.333 -26.667 249 -80c34 -31.333 57.333 -68.333 70 -111s19 -104 19 -184v-635h-122v642c0 94 -18.667 161.667 -56 203s-98.333 62 -183 62
c-91.333 0 -162.666 -29.5 -213.999 -88.5s-77 -140.833 -77 -245.5v-573h-125zM250.999 1411h128l149 -175l139 175h132l-201 -249h-144z" />
    <glyph glyph-name="oacute" unicode="&#xf3;" horiz-adv-x="1095" 
d="M548 1010c136.667 0 246.333 -48.333 329 -145s124 -225.334 124 -386.001c0 -156 -40.5 -279.333 -121.5 -370s-191.5 -136 -331.5 -136s-250.667 45.333 -332 136s-122 214 -122 370c0 160.667 41.333 289.334 124 386.001s192.667 145 330 145zM547.999 906
c-102.667 0 -183.499 -38 -242.499 -114s-88.5 -180 -88.5 -312c0 -126.667 29.167 -225.5 87.5 -296.5s139.5 -106.5 243.5 -106.5c103.333 0 184.166 35.5 242.499 106.5s87.5 169.833 87.5 296.5c0 132 -29.5 236 -88.5 312s-139.5 114 -241.5 114zM457 1161l140 252h164
l-205 -252h-99z" />
    <glyph glyph-name="ocircumflex" unicode="&#xf4;" horiz-adv-x="1095" 
d="M548 1010c136.667 0 246.333 -48.333 329 -145s124 -225.334 124 -386.001c0 -156 -40.5 -279.333 -121.5 -370s-191.5 -136 -331.5 -136s-250.667 45.333 -332 136s-122 214 -122 370c0 160.667 41.333 289.334 124 386.001s192.667 145 330 145zM547.999 906
c-102.667 0 -183.499 -38 -242.499 -114s-88.5 -180 -88.5 -312c0 -126.667 29.167 -225.5 87.5 -296.5s139.5 -106.5 243.5 -106.5c103.333 0 184.166 35.5 242.499 106.5s87.5 169.833 87.5 296.5c0 132 -29.5 236 -88.5 312s-139.5 114 -241.5 114zM274 1162l203 249h144
l201 -249h-132l-139 175l-149 -175h-128z" />
    <glyph glyph-name="glyph287" unicode="&#xf5;" horiz-adv-x="1095" 
d="M548 1010c136.667 0 246.333 -48.333 329 -145s124 -225.334 124 -386.001c0 -156 -40.5 -279.333 -121.5 -370s-191.5 -136 -331.5 -136s-250.667 45.333 -332 136s-122 214 -122 370c0 160.667 41.333 289.334 124 386.001s192.667 145 330 145zM547.999 906
c-102.667 0 -183.499 -38 -242.499 -114s-88.5 -180 -88.5 -312c0 -126.667 29.167 -225.5 87.5 -296.5s139.5 -106.5 243.5 -106.5c103.333 0 184.166 35.5 242.499 106.5s87.5 169.833 87.5 296.5c0 132 -29.5 236 -88.5 312s-139.5 114 -241.5 114zM383 1161l139 252h126
l-180 -252h-85zM598 1161l140 252h125l-180 -252h-85z" />
    <glyph glyph-name="glyph287" unicode="&#x151;" horiz-adv-x="1095" 
d="M548 1010c136.667 0 246.333 -48.333 329 -145s124 -225.334 124 -386.001c0 -156 -40.5 -279.333 -121.5 -370s-191.5 -136 -331.5 -136s-250.667 45.333 -332 136s-122 214 -122 370c0 160.667 41.333 289.334 124 386.001s192.667 145 330 145zM547.999 906
c-102.667 0 -183.499 -38 -242.499 -114s-88.5 -180 -88.5 -312c0 -126.667 29.167 -225.5 87.5 -296.5s139.5 -106.5 243.5 -106.5c103.333 0 184.166 35.5 242.499 106.5s87.5 169.833 87.5 296.5c0 132 -29.5 236 -88.5 312s-139.5 114 -241.5 114zM383 1161l139 252h126
l-180 -252h-85zM598 1161l140 252h125l-180 -252h-85z" />
    <glyph glyph-name="odieresis" unicode="&#xf6;" horiz-adv-x="1095" 
d="M548 1010c136.667 0 246.333 -48.333 329 -145s124 -225.334 124 -386.001c0 -156 -40.5 -279.333 -121.5 -370s-191.5 -136 -331.5 -136s-250.667 45.333 -332 136s-122 214 -122 370c0 160.667 41.333 289.334 124 386.001s192.667 145 330 145zM547.999 906
c-102.667 0 -183.499 -38 -242.499 -114s-88.5 -180 -88.5 -312c0 -126.667 29.167 -225.5 87.5 -296.5s139.5 -106.5 243.5 -106.5c103.333 0 184.166 35.5 242.499 106.5s87.5 169.833 87.5 296.5c0 132 -29.5 236 -88.5 312s-139.5 114 -241.5 114zM303 1197v174h139
v-174h-139zM654 1197v174h139v-174h-139z" />
    <glyph glyph-name="divide" unicode="&#xf7;" horiz-adv-x="1104" 
d="M552 1068c20.667 0 38.5 -7.33301 53.5 -22s22.5 -32.667 22.5 -54c0 -20.667 -7.5 -38.5 -22.5 -53.5s-32.833 -22.5 -53.5 -22.5s-38.5 7.5 -53.5 22.5s-22.5 32.833 -22.5 53.5s7.5 38.5 22.5 53.5s32.833 22.5 53.5 22.5zM552 449c20.667 0 38.5 -7.5 53.5 -22.5
s22.5 -32.833 22.5 -53.5s-7.5 -38.5 -22.5 -53.5s-32.833 -22.5 -53.5 -22.5s-38.5 7.5 -53.5 22.5s-22.5 32.833 -22.5 53.5s7.5 38.5 22.5 53.5s32.833 22.5 53.5 22.5zM198 737h709v-109h-709v109z" />
    <glyph glyph-name="glyph296" unicode="&#xf8;" horiz-adv-x="647" 
d="M150 0l-0.000976562 983h123v-164c38 65.333 77.5 111.5 118.5 138.5s92.167 40.5 153.5 40.5c16.667 0 34.334 -1.33301 53.001 -4v-120c-20 2.66699 -34.333 4 -43 4c-83.333 0 -153.333 -38.667 -210 -116c-48 -65.333 -72 -156.333 -72 -273v-489h-123zM71.999 1411
h129l149 -175l139 175h131l-201 -249h-144z" />
    <glyph glyph-name="glyph296" unicode="&#x159;" horiz-adv-x="647" 
d="M150 0l-0.000976562 983h123v-164c38 65.333 77.5 111.5 118.5 138.5s92.167 40.5 153.5 40.5c16.667 0 34.334 -1.33301 53.001 -4v-120c-20 2.66699 -34.333 4 -43 4c-83.333 0 -153.333 -38.667 -210 -116c-48 -65.333 -72 -156.333 -72 -273v-489h-123zM71.999 1411
h129l149 -175l139 175h131l-201 -249h-144z" />
    <glyph glyph-name="glyph291" unicode="&#xf9;" horiz-adv-x="1077" 
d="M927 983l0.000976562 -983h-125v119c-48 -54.667 -94.833 -92.667 -140.5 -114s-103.5 -32 -173.5 -32c-108.667 0 -191.667 26.667 -249 80c-33.333 31.333 -56.5 68.333 -69.5 111s-19.5 104 -19.5 184v635h122v-642c0 -94 18.667 -161.667 56 -203s98.333 -62 183 -62
c91.333 0 162.666 29.5 213.999 88.5s77 140.833 77 245.5v573h125zM538.001 1458c47.333 0 87.666 -16.667 120.999 -50s50 -73.333 50 -120c0 -47.333 -16.667 -87.666 -50 -120.999s-73.666 -50 -120.999 -50c-46.667 0 -86.667 16.667 -120 50s-50 73.666 -50 120.999
c0 46.667 16.667 86.667 50 120s73.333 50 120 50zM538.001 1383c-26 0 -48.333 -9.33301 -67 -28s-28 -41 -28 -67c0 -26.667 9.33301 -49.334 28 -68.001s41 -28 67 -28c26.667 0 49.334 9.33301 68.001 28s28 41.334 28 68.001c0 26 -9.33301 48.333 -28 67
s-41.334 28 -68.001 28z" />
    <glyph glyph-name="glyph291" unicode="&#x16f;" horiz-adv-x="1077" 
d="M927 983l0.000976562 -983h-125v119c-48 -54.667 -94.833 -92.667 -140.5 -114s-103.5 -32 -173.5 -32c-108.667 0 -191.667 26.667 -249 80c-33.333 31.333 -56.5 68.333 -69.5 111s-19.5 104 -19.5 184v635h122v-642c0 -94 18.667 -161.667 56 -203s98.333 -62 183 -62
c91.333 0 162.666 29.5 213.999 88.5s77 140.833 77 245.5v573h125zM538.001 1458c47.333 0 87.666 -16.667 120.999 -50s50 -73.333 50 -120c0 -47.333 -16.667 -87.666 -50 -120.999s-73.666 -50 -120.999 -50c-46.667 0 -86.667 16.667 -120 50s-50 73.666 -50 120.999
c0 46.667 16.667 86.667 50 120s73.333 50 120 50zM538.001 1383c-26 0 -48.333 -9.33301 -67 -28s-28 -41 -28 -67c0 -26.667 9.33301 -49.334 28 -68.001s41 -28 67 -28c26.667 0 49.334 9.33301 68.001 28s28 41.334 28 68.001c0 26 -9.33301 48.333 -28 67
s-41.334 28 -68.001 28z" />
    <glyph glyph-name="uacute" unicode="&#xfa;" horiz-adv-x="1077" 
d="M927 983l0.000976562 -983h-125v119c-48 -54.667 -94.833 -92.667 -140.5 -114s-103.5 -32 -173.5 -32c-108.667 0 -191.667 26.667 -249 80c-33.333 31.333 -56.5 68.333 -69.5 111s-19.5 104 -19.5 184v635h122v-642c0 -94 18.667 -161.667 56 -203s98.333 -62 183 -62
c91.333 0 162.666 29.5 213.999 88.5s77 140.833 77 245.5v573h125zM434.001 1161l140 252h164l-205 -252h-99z" />
    <glyph glyph-name="glyph292" unicode="&#xfb;" horiz-adv-x="1077" 
d="M927 983l0.000976562 -983h-125v119c-48 -54.667 -94.833 -92.667 -140.5 -114s-103.5 -32 -173.5 -32c-108.667 0 -191.667 26.667 -249 80c-33.333 31.333 -56.5 68.333 -69.5 111s-19.5 104 -19.5 184v635h122v-642c0 -94 18.667 -161.667 56 -203s98.333 -62 183 -62
c91.333 0 162.666 29.5 213.999 88.5s77 140.833 77 245.5v573h125zM360.001 1161l140 252h125l-180 -252h-85zM575.001 1161l140 252h125l-180 -252h-85z" />
    <glyph glyph-name="glyph292" unicode="&#x171;" horiz-adv-x="1077" 
d="M927 983l0.000976562 -983h-125v119c-48 -54.667 -94.833 -92.667 -140.5 -114s-103.5 -32 -173.5 -32c-108.667 0 -191.667 26.667 -249 80c-33.333 31.333 -56.5 68.333 -69.5 111s-19.5 104 -19.5 184v635h122v-642c0 -94 18.667 -161.667 56 -203s98.333 -62 183 -62
c91.333 0 162.666 29.5 213.999 88.5s77 140.833 77 245.5v573h125zM360.001 1161l140 252h125l-180 -252h-85zM575.001 1161l140 252h125l-180 -252h-85z" />
    <glyph glyph-name="udieresis" unicode="&#xfc;" horiz-adv-x="1077" 
d="M927 983l0.000976562 -983h-125v119c-48 -54.667 -94.833 -92.667 -140.5 -114s-103.5 -32 -173.5 -32c-108.667 0 -191.667 26.667 -249 80c-33.333 31.333 -56.5 68.333 -69.5 111s-19.5 104 -19.5 184v635h122v-642c0 -94 18.667 -161.667 56 -203s98.333 -62 183 -62
c91.333 0 162.666 29.5 213.999 88.5s77 140.833 77 245.5v573h125zM293.001 1197v174h139v-174h-139zM644.001 1197v174h139v-174h-139z" />
    <glyph glyph-name="yacute" unicode="&#xfd;" horiz-adv-x="900" 
d="M122 -236c34 -10 60.333 -14.999 79 -14.999c66 0 116 45.667 150 137l47 125l-384 972h132l310 -817l306 817h126l-447 -1150c-27.333 -70.667 -58 -119.334 -92 -146.001s-82 -40 -144 -40c-24 0 -51.667 3 -83 9v108zM353 1161l140 252h164l-205 -252h-99z" />
    <glyph glyph-name="glyph295" unicode="&#xfe;" horiz-adv-x="529" 
d="M178 888h-142v95h142v291h124v-291h154v-95h-154v-699c0 -41.333 5.16699 -69.333 15.5 -84s30.5 -22 60.5 -22c20 0 45.667 6.33301 77 19v-80c-38.667 -18 -80 -27 -124 -27c-58 0 -98 14 -120 42s-33 78.667 -33 152v699zM365 -109v-138
c0 -69.333 -12.333 -120.5 -37 -153.5s-64.667 -51.833 -120 -56.5v79c30 8 50.167 18.167 60.5 30.5s15.5 31.833 15.5 58.5l1 13h-77v167h157z" />
    <glyph glyph-name="glyph295" unicode="&#x163;" horiz-adv-x="529" 
d="M178 888h-142v95h142v291h124v-291h154v-95h-154v-699c0 -41.333 5.16699 -69.333 15.5 -84s30.5 -22 60.5 -22c20 0 45.667 6.33301 77 19v-80c-38.667 -18 -80 -27 -124 -27c-58 0 -98 14 -120 42s-33 78.667 -33 152v699zM365 -109v-138
c0 -69.333 -12.333 -120.5 -37 -153.5s-64.667 -51.833 -120 -56.5v79c30 8 50.167 18.167 60.5 30.5s15.5 31.833 15.5 58.5l1 13h-77v167h157z" />
    <glyph glyph-name="dotaccent" unicode="&#xff;" 
d="M443 1197v174h139v-174h-139z" />
    <glyph glyph-name="dotaccent" unicode="&#x2d9;" 
d="M443 1197v174h139v-174h-139z" />
    <glyph glyph-name=".null" horiz-adv-x="0" 
 />
    <glyph glyph-name="nonmarkingreturn" horiz-adv-x="546" 
 />
    <glyph glyph-name="Aring" horiz-adv-x="1268" 
d="M27 0l538 1365h141l535 -1365h-142l-164 433h-604l-162 -433h-142zM374 540h523l-264 697zM634 1812c47.333 0 87.666 -16.667 120.999 -50s50 -73.333 50 -120c0 -47.333 -16.667 -87.666 -50 -120.999s-73.666 -50 -120.999 -50s-87.666 16.667 -120.999 50
s-50 73.666 -50 120.999c0 46.667 16.667 86.667 50 120s73.666 50 120.999 50zM634 1737c-26.667 0 -49.334 -9.33301 -68.001 -28s-28 -41 -28 -67c0 -26.667 9.33301 -49.334 28 -68.001s41.334 -28 68.001 -28s49.334 9.33301 68.001 28s28 41.334 28 68.001
c0 26 -9.33301 48.333 -28 67s-41.334 28 -68.001 28z" />
    <glyph glyph-name="Ntilde" horiz-adv-x="1360" 
d="M164 0v1365h137l775 -1167v1167h121v-1365h-136l-775 1169v-1169h-122zM996 1718c-23.333 -124 -78.999 -186 -166.999 -186c-36 0 -80.333 13 -133 39l-67 32c-24 12 -47.333 18 -70 18c-46.667 0 -78.334 -32.333 -95.001 -97h-72c21.333 124.667 80 187 176 187
c34 0 76 -12.333 126 -37c68.667 -33.333 113 -50 133 -50c47.333 0 79 31.333 95 94h74z" />
    <glyph glyph-name="agrave" horiz-adv-x="1038" 
d="M758 136c-54.667 -60 -108.331 -102.168 -160.998 -126.501s-117 -36.5 -193 -36.5c-100 0 -177.833 24.667 -233.5 74s-83.5 118.333 -83.5 207c0 74 19.333 135.333 58 184c27.333 33.333 59.833 58.333 97.5 75s92.5 30.667 164.5 42l244 36
c53.333 8 85.166 17.833 95.499 29.5s15.5 43.834 15.5 96.501c0 66 -20.167 114 -60.5 144s-104.833 45 -193.5 45c-83.333 0 -143.833 -16.5 -181.5 -49.5s-60.167 -88.5 -67.5 -166.5h-131c13.333 213.333 140 320 380 320c106.667 0 192.667 -19.667 258 -59
c44 -26.667 74.333 -58.834 91 -96.501s25 -92.5 25 -164.5v-519c0 -37.333 4.16699 -62.666 12.5 -75.999s24.5 -20 48.5 -20c12 0 29 3 51 9v-84c-36 -12.667 -67 -19 -93 -19c-48.667 0 -83.334 11.333 -104.001 34s-33.667 63 -39 121zM758.003 508.999l-336 -53
c-74 -12 -127.667 -33 -161 -63s-50 -72.667 -50 -128c0 -125.333 71 -188 213 -188c78.667 0 148 20 208 60c48 32 81 69 99 111s27 102.667 27 182v79zM611.003 1161h-99l-205 252h164z" />
    <glyph glyph-name="atilde" horiz-adv-x="1038" 
d="M758 136c-54.667 -60 -108.331 -102.168 -160.998 -126.501s-117 -36.5 -193 -36.5c-100 0 -177.833 24.667 -233.5 74s-83.5 118.333 -83.5 207c0 74 19.333 135.333 58 184c27.333 33.333 59.833 58.333 97.5 75s92.5 30.667 164.5 42l244 36
c53.333 8 85.166 17.833 95.499 29.5s15.5 43.834 15.5 96.501c0 66 -20.167 114 -60.5 144s-104.833 45 -193.5 45c-83.333 0 -143.833 -16.5 -181.5 -49.5s-60.167 -88.5 -67.5 -166.5h-131c13.333 213.333 140 320 380 320c106.667 0 192.667 -19.667 258 -59
c44 -26.667 74.333 -58.834 91 -96.501s25 -92.5 25 -164.5v-519c0 -37.333 4.16699 -62.666 12.5 -75.999s24.5 -20 48.5 -20c12 0 29 3 51 9v-84c-36 -12.667 -67 -19 -93 -19c-48.667 0 -83.334 11.333 -104.001 34s-33.667 63 -39 121zM758.003 508.999l-336 -53
c-74 -12 -127.667 -33 -161 -63s-50 -72.667 -50 -128c0 -125.333 71 -188 213 -188c78.667 0 148 20 208 60c48 32 81 69 99 111s27 102.667 27 182v79zM824.003 1384c-23.333 -123.333 -78.999 -185 -166.999 -185c-36 0 -80.333 12.667 -133 38l-67 33
c-24 11.333 -47.333 17 -70 17c-46.667 0 -78.334 -32 -95.001 -96h-72c21.333 124 80 186 176 186c34.667 0 76.667 -12.333 126 -37c68 -33.333 112.333 -50 133 -50c47.333 0 79 31.333 95 94h74z" />
    <glyph glyph-name="aring" horiz-adv-x="1038" 
d="M758 136c-54.667 -60 -108.331 -102.168 -160.998 -126.501s-117 -36.5 -193 -36.5c-100 0 -177.833 24.667 -233.5 74s-83.5 118.333 -83.5 207c0 74 19.333 135.333 58 184c27.333 33.333 59.833 58.333 97.5 75s92.5 30.667 164.5 42l244 36
c53.333 8 85.166 17.833 95.499 29.5s15.5 43.834 15.5 96.501c0 66 -20.167 114 -60.5 144s-104.833 45 -193.5 45c-83.333 0 -143.833 -16.5 -181.5 -49.5s-60.167 -88.5 -67.5 -166.5h-131c13.333 213.333 140 320 380 320c106.667 0 192.667 -19.667 258 -59
c44 -26.667 74.333 -58.834 91 -96.501s25 -92.5 25 -164.5v-519c0 -37.333 4.16699 -62.666 12.5 -75.999s24.5 -20 48.5 -20c12 0 29 3 51 9v-84c-36 -12.667 -67 -19 -93 -19c-48.667 0 -83.334 11.333 -104.001 34s-33.667 63 -39 121zM758.003 508.999l-336 -53
c-74 -12 -127.667 -33 -161 -63s-50 -72.667 -50 -128c0 -125.333 71 -188 213 -188c78.667 0 148 20 208 60c48 32 81 69 99 111s27 102.667 27 182v79zM518.003 1458c47.333 0 87.666 -16.667 120.999 -50s50 -73.333 50 -120c0 -47.333 -16.667 -87.666 -50 -120.999
s-73.666 -50 -120.999 -50c-46.667 0 -86.667 16.667 -120 50s-50 73.666 -50 120.999c0 46.667 16.667 86.667 50 120s73.333 50 120 50zM518.003 1383c-26 0 -48.333 -9.33301 -67 -28s-28 -41 -28 -67c0 -26.667 9.33301 -49.334 28 -68.001s41 -28 67 -28
c26.667 0 49.334 9.33301 68.001 28s28 41.334 28 68.001c0 26 -9.33301 48.333 -28 67s-41.334 28 -68.001 28z" />
    <glyph glyph-name="egrave" horiz-adv-x="1046" 
d="M827 308h124c-44 -116.667 -99.333 -201.667 -166 -255s-151 -80 -253 -80c-136.667 0 -243.834 44.5 -321.501 133.5s-116.5 212.167 -116.5 369.5c0 163.333 40 293.166 120 389.499s188 144.5 324 144.5c148 0 258.333 -56 331 -168c45.333 -70 72 -179 80 -327l2 -42
h-739c0 -127.333 27.833 -225.166 83.5 -293.499s135.167 -102.5 238.5 -102.5c156.667 0 254.334 77 293.001 231zM217 577h609.999c0 99.333 -26.667 179.333 -80 240s-123.666 91 -210.999 91c-88 0 -159.333 -28.167 -214 -84.5s-89.667 -138.5 -105 -246.5z
M633.999 1161h-99l-205 252h164z" />
    <glyph glyph-name="ecircumflex" horiz-adv-x="1046" 
d="M827 308h124c-44 -116.667 -99.333 -201.667 -166 -255s-151 -80 -253 -80c-136.667 0 -243.834 44.5 -321.501 133.5s-116.5 212.167 -116.5 369.5c0 163.333 40 293.166 120 389.499s188 144.5 324 144.5c148 0 258.333 -56 331 -168c45.333 -70 72 -179 80 -327l2 -42
h-739c0 -127.333 27.833 -225.166 83.5 -293.499s135.167 -102.5 238.5 -102.5c156.667 0 254.334 77 293.001 231zM217 577h609.999c0 99.333 -26.667 179.333 -80 240s-123.666 91 -210.999 91c-88 0 -159.333 -28.167 -214 -84.5s-89.667 -138.5 -105 -246.5z
M268.999 1162l203 249h144l201 -249h-131l-139 175l-149 -175h-129z" />
    <glyph glyph-name="igrave" horiz-adv-x="425" 
d="M150 0v983h124v-983h-124zM282 1161h-98l-192 252h158z" />
    <glyph glyph-name="idieresis" horiz-adv-x="425" 
d="M150 0v983h124v-983h-124zM25 1197v174h139v-174h-139zM260 1197v174h139v-174h-139z" />
    <glyph glyph-name="ntilde" horiz-adv-x="1077" 
d="M150 0l-0.000976562 983h125v-119c48.667 54.667 95.667 92.667 141 114s103 32 173 32c109.333 0 192.333 -26.667 249 -80c34 -31.333 57.333 -68.333 70 -111s19 -104 19 -184v-635h-122v642c0 94 -18.667 161.667 -56 203s-98.333 62 -183 62
c-91.333 0 -162.666 -29.5 -213.999 -88.5s-77 -140.833 -77 -245.5v-573h-125zM826.999 1384c-23.333 -123.333 -78.998 -185 -166.998 -185c-36 0 -80.333 12.667 -133 38l-68 33c-24 11.333 -47 17 -69 17c-46.667 0 -78.334 -32 -95.001 -96h-72
c21.333 124 79.666 186 174.999 186c34.667 0 77 -12.333 127 -37c68 -33.333 112 -50 132 -50c47.333 0 79.333 31.333 96 94h74z" />
    <glyph glyph-name="ograve" horiz-adv-x="1095" 
d="M548 1010c136.667 0 246.333 -48.333 329 -145s124 -225.334 124 -386.001c0 -156 -40.5 -279.333 -121.5 -370s-191.5 -136 -331.5 -136s-250.667 45.333 -332 136s-122 214 -122 370c0 160.667 41.333 289.334 124 386.001s192.667 145 330 145zM547.999 906
c-102.667 0 -183.499 -38 -242.499 -114s-88.5 -180 -88.5 -312c0 -126.667 29.167 -225.5 87.5 -296.5s139.5 -106.5 243.5 -106.5c103.333 0 184.166 35.5 242.499 106.5s87.5 169.833 87.5 296.5c0 132 -29.5 236 -88.5 312s-139.5 114 -241.5 114zM645 1161h-98
l-206 252h165z" />
    <glyph glyph-name="otilde" horiz-adv-x="1095" 
d="M548 1010c136.667 0 246.333 -48.333 329 -145s124 -225.334 124 -386.001c0 -156 -40.5 -279.333 -121.5 -370s-191.5 -136 -331.5 -136s-250.667 45.333 -332 136s-122 214 -122 370c0 160.667 41.333 289.334 124 386.001s192.667 145 330 145zM547.999 906
c-102.667 0 -183.499 -38 -242.499 -114s-88.5 -180 -88.5 -312c0 -126.667 29.167 -225.5 87.5 -296.5s139.5 -106.5 243.5 -106.5c103.333 0 184.166 35.5 242.499 106.5s87.5 169.833 87.5 296.5c0 132 -29.5 236 -88.5 312s-139.5 114 -241.5 114zM864 1384
c-24 -123.333 -80 -185 -168 -185c-36 0 -80.333 12.667 -133 38l-67 33c-24 11.333 -47.333 17 -70 17c-46 0 -77.667 -32 -95 -96h-72c21.333 124 80 186 176 186c34.667 0 77 -12.333 127 -37c68 -33.333 112 -50 132 -50c47.333 0 79 31.333 95 94h75z" />
    <glyph glyph-name="ugrave" horiz-adv-x="1077" 
d="M927 983l0.000976562 -983h-125v119c-48 -54.667 -94.833 -92.667 -140.5 -114s-103.5 -32 -173.5 -32c-108.667 0 -191.667 26.667 -249 80c-33.333 31.333 -56.5 68.333 -69.5 111s-19.5 104 -19.5 184v635h122v-642c0 -94 18.667 -161.667 56 -203s98.333 -62 183 -62
c91.333 0 162.666 29.5 213.999 88.5s77 140.833 77 245.5v573h125zM636.001 1161h-99l-205 252h164z" />
    <glyph glyph-name="ucircumflex" horiz-adv-x="1077" 
d="M927 983l0.000976562 -983h-125v119c-48 -54.667 -94.833 -92.667 -140.5 -114s-103.5 -32 -173.5 -32c-108.667 0 -191.667 26.667 -249 80c-33.333 31.333 -56.5 68.333 -69.5 111s-19.5 104 -19.5 184v635h122v-642c0 -94 18.667 -161.667 56 -203s98.333 -62 183 -62
c91.333 0 162.666 29.5 213.999 88.5s77 140.833 77 245.5v573h125zM264.001 1162l204 249h143l201 -249h-131l-139 175l-149 -175h-129z" />
    <glyph glyph-name="cent" horiz-adv-x="1104" 
d="M851 527h122.998c-44 -216.667 -161.667 -337.334 -353 -362.001v-185h-92v185c-127.333 12 -225.833 62 -295.5 150s-104.5 206.333 -104.5 355c0 150 34 269.667 102 359s167.333 145 298 167v185h92v-185c204.667 -18 322.334 -129.333 353.001 -334h-123
c-10 137.333 -86.667 213 -230 227v-816c136.667 24.667 213.334 109.334 230.001 254.001zM528.998 274v811.001c-89.333 -15.333 -158 -58.333 -206 -129s-72 -164.334 -72 -281.001c0 -114.667 24.167 -206.667 72.5 -276s116.833 -111 205.5 -125z" />
    <glyph glyph-name="sterling" horiz-adv-x="1104" 
d="M1017 62c-78 -59.333 -159.001 -89.002 -243.001 -89.002c-38 0 -101.667 14 -191 42c-76.667 24 -141 36 -193 36c-72.667 0 -152.334 -26 -239.001 -78l-64 89c70.667 42.667 125.834 93.667 165.501 153s59.5 120.666 59.5 183.999
c0 72.667 -18.667 147.334 -56 224.001h-169v79h135c-4.66699 12 -8.33398 21 -11.001 27c-26.667 64.667 -43.834 112.5 -51.501 143.5s-11.5 67.833 -11.5 110.5c0 114.667 41.333 209.334 124 284.001s187 112 313 112c146.667 0 258.667 -53 336 -159
c42 -58 69 -145.667 81 -263h-136c0 96.667 -25.167 171.5 -75.5 224.5s-121.166 79.5 -212.499 79.5c-84 0 -153.833 -25.833 -209.5 -77.5s-83.5 -116.5 -83.5 -194.5c0 -73.333 26.333 -169 79 -287h354v-79h-322c23.333 -75.333 35 -138.666 35 -189.999
c0 -91.333 -46.667 -193 -140 -305c60 18.667 110 28 150 28c43.333 0 99.333 -9.33301 168 -28c82.667 -23.333 140.334 -35 173.001 -35c54.667 0 111.334 24.333 170.001 73z" />
    <glyph glyph-name="notequal" 
d="M562 898l111 233l89 -32l-96 -201h290v-109h-341l-95 -202h436v-109h-487l-116 -243l-88 32l99 211h-296v109h347l96 202h-443v109h494z" />
    <glyph glyph-name="AE" horiz-adv-x="1791" 
d="M27 0l526 1365h1134v-117h-718v-488h662v-108h-662v-535h737v-117h-871v424h-514l-159 -424h-135zM365 534h470v714h-203z" />
    <glyph glyph-name="Oslash" horiz-adv-x="1475" 
d="M96 21l153 174.998c-93.333 131.333 -140 293.333 -140 486c0 214.667 57.167 386.334 171.5 515.001s266.5 193 456.5 193c176 0 318 -52.333 426 -157l147 166l77 -69l-158 -178c92.667 -132 139 -290.333 139 -475c0 -219.333 -55.667 -391.833 -167 -517.5
s-264.333 -188.5 -459 -188.5c-89.333 0 -166 11.333 -230 34s-128.333 61.334 -193 116.001l-147 -168zM338 299.998l740 835.999c-79.333 90.667 -192.333 136 -339 136c-154 0 -274.5 -52.167 -361.5 -156.5s-130.5 -249.166 -130.5 -434.499
c0 -147.333 30.333 -274.333 91 -381zM406 217.997c80 -88 191.333 -132.001 334 -132.001c152 0 272 52.5 360 157.5s132 248.167 132 429.5c0 152.667 -30.667 278.334 -92 377.001z" />
    <glyph glyph-name="infinity" horiz-adv-x="1365" 
d="M685 613c-103.333 -150.667 -216.667 -225.999 -340 -225.999c-90.667 0 -164.5 28.833 -221.5 86.5s-85.5 132.167 -85.5 223.5s28.667 165.833 86 223.5s131 86.5 221 86.5c124 0 235.667 -75 335 -225c100.667 150 214.667 225 342 225c90 0 163.167 -29 219.5 -87
s84.5 -132.667 84.5 -224c0 -90.667 -28.167 -164.834 -84.5 -222.501s-128.833 -86.5 -217.5 -86.5c-126.667 0 -239.667 75.333 -339 226zM743.999 698.001c87.333 -136.667 176.668 -205 268.001 -205c56 0 102 19.333 138 58s54 88 54 148
c0 58 -18.333 106.167 -55 144.5s-83 57.5 -139 57.5c-88.667 0 -177.334 -67.667 -266.001 -203zM620.001 696.001c-86 136.667 -175.333 205.001 -268 205.001c-56 0 -102 -19.333 -138 -58s-54 -88.334 -54 -149.001c0 -58 18.5 -106.167 55.5 -144.5
s83.167 -57.5 138.5 -57.5c89.333 0 178 68 266 204z" />
    <glyph glyph-name="lessequal" 
d="M955 1221v-118l-754 -332l754 -331v-118l-887 394v108zM955 261v-115h-887v115h887z" />
    <glyph glyph-name="greaterequal" 
d="M68 322v118l754 332l-754 331v118l887 -397v-109zM68 146v115h887v-115h-887z" />
    <glyph glyph-name="yen" horiz-adv-x="1104" 
d="M491 0v494h-420v104h420l-112 165h-308v102h240l-336 500h151l430 -654l427 654h146l-327 -500h241v-102h-306l-109 -165h415v-104h-415v-494h-137z" />
    <glyph glyph-name="partialdiff" 
d="M185 1264l16 110.999c122.667 -18 224.834 -46.667 306.501 -86s155.834 -95.666 222.501 -168.999c150.667 -166.667 226 -376.334 226 -629.001c0 -146.667 -36 -264.667 -108 -354c-86.667 -106.667 -197.667 -160 -333 -160c-122 0 -226.833 45.333 -314.5 136
s-131.5 199 -131.5 325c0 124.667 41.5 231.334 124.5 320.001s182.833 133 299.5 133c71.333 0 130.5 -12.167 177.5 -36.5s93.5 -66.5 139.5 -126.5l-12 30c-37.333 99.333 -75.333 175.5 -114 228.5s-91.334 102.167 -158.001 147.5
c-102.667 68.667 -216.334 112 -341.001 130zM523 795.999c-91.333 0 -169 -35.3311 -233 -105.998s-96 -156.334 -96 -257.001s31.5 -185.834 94.5 -255.501s140.167 -104.5 231.5 -104.5c87.333 0 161 36.167 221 108.5s90 160.833 90 265.5
c0 101.333 -29 184.833 -87 250.5s-131.667 98.5 -221 98.5z" />
    <glyph glyph-name="summation" horiz-adv-x="1365" 
d="M1215 1536v-458h-113l-10 342h-894l518 -866l-518 -951h913l6 338h117v-453h-1173v130l511 936l-511 856v126h1154z" />
    <glyph glyph-name="product" horiz-adv-x="1416" 
d="M74 1536h1268v-115h-161v-1818h161v-115h-453v115h169v1818h-701v-1818h169v-115h-452v115h160v1818h-160v115z" />
    <glyph glyph-name="pi" horiz-adv-x="1149" 
d="M204 0v870h-151v111h1044v-111h-149v-870h-123v870h-498v-870h-123z" />
    <glyph glyph-name="integral" 
d="M217 -490l29.001 110c33.333 -14 62.666 -21 87.999 -21c58.667 0 94.334 25.333 107.001 76c6 24 9 79 9 165v1323c0 132 7.33301 215.667 22 251c32.667 81.333 101.667 122 207 122c36 0 78.333 -7.33301 127 -22l-29 -110c-32.667 14 -61.667 21 -87 21
c-46 0 -76.833 -13.333 -92.5 -40s-23.5 -78.667 -23.5 -156l-1 -96v-1271c0 -98.667 -2.83301 -165.667 -8.5 -201s-17.834 -65.333 -36.501 -90c-42.667 -54 -110.667 -81 -204 -81c-38 0 -73.667 6.66699 -107 20z" />
    <glyph glyph-name="ordfeminine" horiz-adv-x="737" 
d="M637 879l-0.000976562 -57.998c-22.667 -8 -42.334 -12 -59.001 -12c-47.333 0 -75 24.667 -83 74c-54 -52 -117.333 -78 -190 -78c-56.667 0 -101 13.667 -133 41s-48 65.666 -48 114.999c0 48.667 14.333 86.167 43 112.5s75 44.166 139 53.499l134 19
c27.333 4 43.333 8.5 48 13.5s7 20.5 7 46.5c0 62.667 -42.667 94 -128 94c-48 0 -81.667 -8.16699 -101 -24.5s-30.666 -46.5 -33.999 -90.5h-86c6.66699 122 80.667 183 222 183c70.667 0 122.834 -14.333 156.501 -43s50.5 -73 50.5 -133v-275c0 -30 8.66699 -45 26 -45
c8 0 20 2.33301 36 7zM492.999 1088l-177 -27c-73.333 -11.333 -110 -43 -110 -95c0 -61.333 36.667 -92 110 -92c118 0 177 60 177 180v34zM93.999 614.002v69h573v-69h-573z" />
    <glyph glyph-name="ordmasculine" horiz-adv-x="737" 
d="M368 1368c76 0 137.833 -26.167 185.5 -78.5s71.5 -120.166 71.5 -203.499c0 -88 -22.667 -157 -68 -207s-108.333 -75 -189 -75c-80 0 -142.667 25 -188 75s-68 119 -68 207c0 83.333 23.833 151.166 71.5 203.499s109.167 78.5 184.5 78.5zM368 1299
c-53.333 0 -95.833 -19.167 -127.5 -57.5s-47.5 -89.833 -47.5 -154.5c0 -142.667 58.333 -214 175 -214c55.333 0 98.5 18.167 129.5 54.5s46.5 86.833 46.5 151.5c0 68.667 -15.667 122.5 -47 161.5s-74.333 58.5 -129 58.5zM82 614v69h573v-69h-573z" />
    <glyph glyph-name="Omega" horiz-adv-x="1365" 
d="M58 0l-0.000976562 111.001h386c-257.333 149.333 -386 359.666 -386 630.999c0 184.667 60.167 340.167 180.5 466.5s268.5 189.5 444.5 189.5s324 -63.167 444 -189.5s180 -281.833 180 -466.5c0 -272 -128.333 -482.333 -385 -631h385v-111h-530v101
c269.333 152.667 404 362 404 628c0 156 -48.167 288 -144.5 396s-214.166 162 -353.499 162c-141.333 0 -259.833 -53.5 -355.5 -160.5s-143.5 -239.833 -143.5 -398.5c0 -266 135 -475 405 -627v-101h-531z" />
    <glyph glyph-name="ae" horiz-adv-x="1658" 
d="M118 686c12.667 104 52.502 184 119.502 240s156.5 84 268.5 84c137.333 0 244 -54 320 -162c93.333 108 200.333 162 321 162c135.333 0 238.666 -46.5 309.999 -139.5s107 -227.833 107 -404.5h-721c0 -124.667 26.833 -220.5 80.5 -287.5s130.5 -100.5 230.5 -100.5
c66.667 0 126.167 21 178.5 63s87.166 96.333 104.499 163h119c-79.333 -220.667 -218 -331 -416 -331c-153.333 0 -271 72 -353 216c-92 -144 -214.333 -216 -367 -216c-104 0 -185.5 25.833 -244.5 77.5s-88.5 122.834 -88.5 213.501c0 110 45 189.333 135 238
c48.667 26 157 48.333 325 67c95.333 10 150.5 19.667 165.5 29s22.5 37.666 22.5 84.999c0 78 -18.5 134.833 -55.5 170.5s-96.167 53.5 -177.5 53.5c-164 0 -251.333 -73.667 -262 -221h-122zM727.002 505c-45.333 -12 -99.334 -22.001 -162.001 -30.001
c-145.333 -17.333 -237.333 -38 -276 -62c-55.333 -33.333 -83 -84 -83 -152c0 -123.333 72.667 -185 218 -185c98.667 0 174.334 27.333 227.001 82s79 133.334 79 236.001zM844.001 567.999l601.001 -0.00195312c0 102.667 -27.333 184.834 -82 246.501
s-127.334 92.5 -218.001 92.5c-95.333 0 -169.333 -29.667 -222 -89s-79 -142.666 -79 -249.999z" />
    <glyph glyph-name="oslash" horiz-adv-x="1093" 
d="M75 14l111 129.999c-62 84.667 -93 191 -93 319c0 166.667 41 299.334 123 398.001s192.333 148 331 148c105.333 0 203 -36.667 293 -110l107 122l71 -63l-119 -134c66.667 -78 100 -190.667 100 -338c0 -167.333 -39.667 -295 -119 -383s-194.666 -132 -345.999 -132
c-114.667 0 -209.334 34.667 -284.001 104l-105 -121zM266 235.999l500 580c-64.667 58 -137.667 87 -219 87c-102 0 -182.333 -38 -241 -114s-88 -179.667 -88 -311c0 -74.667 14 -149.667 42 -225c1.33301 -4 3.33301 -9.66699 6 -17zM324 159.999
c59.333 -56.667 133.333 -85 222 -85c106.667 0 188.5 35.167 245.5 105.5s85.5 171.833 85.5 304.5c0 104 -19.333 187.667 -58 251z" />
    <glyph glyph-name="questiondown" horiz-adv-x="937" 
d="M549 983v-170h-137v170h137zM538 646c0 -99.333 -11.835 -175.165 -35.502 -227.498s-71.5 -109.166 -143.5 -170.499c-67.333 -56.667 -112.166 -104.334 -134.499 -143.001s-33.5 -87.334 -33.5 -146.001c0 -76 23.333 -135.833 70 -179.5s110.667 -65.5 192 -65.5
c195.333 0 293 109.333 293 328h129c-16.667 -292 -157 -438 -421 -438c-119.333 0 -214.666 32.167 -285.999 96.5s-107 150.166 -107 257.499c0 63.333 14 120 42 170s77 105.667 147 167l66 59c40.667 35.333 68.5 71 83.5 107s22.5 84.333 22.5 145l1 40h115z" />
    <glyph glyph-name="exclamdown" horiz-adv-x="467" 
d="M304 983v-174h-140v174h140zM281 649l3 -67l8 -195l9 -228l3 -160v-381h-140v381l3 164l10 218l8 200c0 1.33301 1 24 3 68h93z" />
    <glyph glyph-name="radical" horiz-adv-x="1365" 
d="M1365 1697l0.000976562 -115h-410l-464 -1582h-146l-180 625h-165v115h265l84 -283c6 -20.667 16.333 -63.667 31 -129l27 -117l8 -34h8c5.33301 24 8.66602 38.667 9.99902 44l35 138l54 213l98 331l231 794h514z" />
    <glyph glyph-name="florin" horiz-adv-x="1104" 
d="M746 1068l199.002 0.000976562l-17 -89h-199l-143 -826c-20 -116.667 -38 -196 -54 -238s-43 -81.333 -81 -118c-71.333 -68 -161.333 -102 -270 -102c-41.333 0 -73.666 4.66699 -96.999 14l22 119c22 -5.33301 42.667 -8 62 -8c79.333 0 143 20.667 191 62
c43.333 37.333 78.333 132 105 284l142 813h-201l19 89h198l7 43c23.333 130.667 65.166 230.667 125.499 300s136.166 104 227.499 104c4 0 12 -0.666992 24 -2c2.66699 -0.666992 7 -1.33398 13 -2.00098l-22 -137c-12 2 -22.333 3 -31 3
c-108.667 0 -179.334 -88.667 -212.001 -266z" />
    <glyph glyph-name="approxequal" 
d="M96 712l-74.999 49c38 78.667 79 135.667 123 171s95.667 53 155 53c49.333 0 125.666 -25 228.999 -75c95.333 -46 163.666 -69 204.999 -69c39.333 0 73.166 10.833 101.499 32.5s58.833 60.167 91.5 115.5l77 -45c-75.333 -147.333 -168.666 -221 -279.999 -221
c-50.667 0 -107 14.667 -169 44l-121 58c-60.667 28.667 -109.667 43 -147 43c-69.333 0 -132.666 -52 -189.999 -156zM96.001 387l-75 48.001c38.667 79.333 79.834 136.666 123.501 171.999s95.167 53 154.5 53c49.333 0 125.666 -25 228.999 -75
c95.333 -46 163.666 -69 204.999 -69c39.333 0 73 10.833 101 32.5s58.667 60.167 92 115.5l77 -46c-74.667 -146.667 -168 -220 -280 -220c-50 0 -106.333 14.667 -169 44l-121 58c-61.333 28.667 -110.333 43 -147 43c-69.333 0 -132.666 -52 -189.999 -156z" />
    <glyph glyph-name="Delta" horiz-adv-x="1365" 
d="M61 0l554 1365h131l558 -1365h-1243zM238 115h887l-444 1100z" />
    <glyph glyph-name="glyph172" horiz-adv-x="546" 
 />
    <glyph glyph-name="Agrave" horiz-adv-x="1268" 
d="M27 0l538 1365h141l535 -1365h-142l-164 433h-604l-162 -433h-142zM374 540h523l-264 697zM704 1495h-99l-205 252h164z" />
    <glyph glyph-name="Atilde" horiz-adv-x="1268" 
d="M27 0l538 1365h141l535 -1365h-142l-164 433h-604l-162 -433h-142zM374 540h523l-264 697zM946 1718c-23.333 -124 -78.999 -186 -166.999 -186c-36 0 -80.333 13 -133 39l-67 32c-24 12 -47.333 18 -70 18c-46.667 0 -78.334 -32.333 -95.001 -97h-72
c21.333 124.667 80 187 176 187c34 0 76 -12.333 126 -37c68.667 -33.333 113 -50 133 -50c47.333 0 79 31.333 95 94h74z" />
    <glyph glyph-name="Otilde" horiz-adv-x="1475" 
d="M737 1392c194 0 347.667 -64.667 461 -194s170 -305.333 170 -528c0 -212.667 -57 -382 -171 -508s-267.333 -189 -460 -189s-346 63 -460 189s-171 295.333 -171 508c0 222.667 56.667 398.667 170 528s267 194 461 194zM737 1276c-152.667 0 -273 -52.667 -361 -158
s-132 -249.666 -132 -432.999c0 -186 43.667 -331.833 131 -437.5s208 -158.5 362 -158.5c151.333 0 271.333 52.333 360 157s133 246 133 424c0 191.333 -43.167 340.166 -129.5 446.499s-207.5 159.5 -363.5 159.5zM1053 1718c-23.333 -124 -78.998 -186 -166.998 -186
c-36 0 -80.333 13 -133 39l-68 32c-24 12 -47 18 -69 18c-46.667 0 -78.334 -32.333 -95.001 -97h-72c21.333 124.667 79.666 187 174.999 187c34.667 0 77 -12.333 127 -37c68 -33.333 112 -50 132 -50c48 0 80 31.333 96 94h74z" />
    <glyph glyph-name="OE" horiz-adv-x="2033" 
d="M1948 0l-878.999 -0.000976562v143c-83.333 -113.333 -200.333 -170 -351 -170c-179.333 0 -327 63 -443 189c-112.667 122.667 -169 293.334 -169 512.001c0 216 55.5 389.667 166.5 521s258.167 197 441.5 197c143.333 0 261.666 -51.667 354.999 -155v128h864v-117
h-728v-491h669v-109h-669v-531h743v-117zM1069 507.999v430.001c0 111.333 -30.5 195.666 -91.5 252.999s-150.5 86 -268.5 86c-138.667 0 -251 -53.333 -337 -160s-129 -246.667 -129 -420c0 -183.333 42.667 -330.5 128 -441.5s198.666 -166.5 339.999 -166.5
c126.667 0 224 40.333 292 121c28.667 34 46.834 68.667 54.501 104s11.5 100 11.5 194z" />
    <glyph glyph-name="oe" horiz-adv-x="1763" 
d="M1666 302c-68.667 -219.333 -202.332 -329 -400.999 -329c-160.667 0 -285.667 76 -375 228c-74 -152.667 -194.333 -229 -361 -229c-136 0 -242.5 46.667 -319.5 140s-115.5 222 -115.5 386c0 154 40.167 277.833 120.5 371.5s186.166 140.5 317.499 140.5
c88 0 160.333 -17.167 217 -51.5s106.334 -91.166 149.001 -170.499c93.333 148 215.666 222 366.999 222c129.333 0 229 -46.833 299 -140.5s105 -227.5 105 -401.5h-714v-28c0 -108 28.833 -195.833 86.5 -263.5s132.5 -101.5 224.5 -101.5c66 0 124.333 20.667 175 62
s87 97.666 109 168.999zM535.002 907c-102 0 -180.833 -35.667 -236.5 -107s-83.5 -172.333 -83.5 -303c0 -136.667 26.833 -241.334 80.5 -314.001s131.167 -109 232.5 -109c99.333 0 176.5 35.833 231.5 107.5s82.5 171.5 82.5 299.5
c0 136.667 -26.5 241.834 -79.5 315.501s-128.833 110.5 -227.5 110.5zM957.002 571h590.999c0 102 -25.833 183.833 -77.5 245.5s-120.5 92.5 -206.5 92.5c-85.333 0 -155.166 -29.833 -209.499 -89.5s-86.833 -142.5 -97.5 -248.5z" />
    <glyph glyph-name="lozenge" horiz-adv-x="1365" 
d="M683 1419l531 -736l-531 -736l-532 736zM683 1238l-404 -555l404 -554l403 554z" />
    <glyph glyph-name="ydieresis" horiz-adv-x="900" 
d="M122 -236c34 -10 60.333 -14.999 79 -14.999c66 0 116 45.667 150 137l47 125l-384 972h132l310 -817l306 817h126l-447 -1150c-27.333 -70.667 -58 -119.334 -92 -146.001s-82 -40 -144 -40c-24 0 -51.667 3 -83 9v108zM206 1197v174h139v-174h-139zM556 1197v174h139
v-174h-139z" />
    <glyph glyph-name="Ydieresis" horiz-adv-x="1183" 
d="M527 0v600l-513 765h169l413 -637l419 637h155l-506 -765v-600h-137zM306 1534v174h139v-174h-139zM739 1534v174h139v-174h-139z" />
    <glyph glyph-name="fraction" horiz-adv-x="268" 
d="M-360 0l872 1365h117l-871 -1365h-118z" />
    <glyph glyph-name="fi" horiz-adv-x="980" 
d="M306 983h166.001v-96h-166v-887h-124v887h-143v96h143v180c0 144.667 65.333 217 196 217c23.333 0 54.666 -2 93.999 -6v-106c-25.333 4 -44 6 -56 6c-46 0 -75.833 -8.83301 -89.5 -26.5s-20.5 -56.167 -20.5 -115.5v-149zM706.001 0v983h124v-983h-124zM706.001 1199
v166h124v-166h-124z" />
    <glyph glyph-name="fl" horiz-adv-x="979" 
d="M306 983h166.001v-96h-166v-887h-124v887h-143v96h143v180c0 144.667 65.333 217 196 217c23.333 0 54.666 -2 93.999 -6v-106c-25.333 4 -44 6 -56 6c-46 0 -75.833 -8.83301 -89.5 -26.5s-20.5 -56.167 -20.5 -115.5v-149zM706.001 0v1365h123v-1365h-123z" />
    <glyph glyph-name="Ecircumflex" horiz-adv-x="1184" 
d="M164 0v1365h917v-117h-780v-491h717v-110h-717v-532h798v-115h-935zM345 1497l204 248h144l200 -248h-131l-139 174l-149 -174h-129z" />
    <glyph glyph-name="Egrave" horiz-adv-x="1184" 
d="M164 0v1365h917v-117h-780v-491h717v-110h-717v-532h798v-115h-935zM717 1495h-99l-205 252h164z" />
    <glyph glyph-name="Idieresis" horiz-adv-x="466" 
d="M164 0v1365h139v-1365h-139zM53 1534v174h125v-174h-125zM288 1534v174h125v-174h-125z" />
    <glyph glyph-name="Igrave" horiz-adv-x="466" 
d="M163 0v1365h139v-1365h-139zM303 1495h-99l-205 252h164z" />
    <glyph glyph-name="apple" horiz-adv-x="546" 
 />
    <glyph glyph-name="Ograve" horiz-adv-x="1475" 
d="M737 1392c194 0 347.667 -64.667 461 -194s170 -305.333 170 -528c0 -212.667 -57 -382 -171 -508s-267.333 -189 -460 -189s-346 63 -460 189s-171 295.333 -171 508c0 222.667 56.667 398.667 170 528s267 194 461 194zM737 1276c-152.667 0 -273 -52.667 -361 -158
s-132 -249.666 -132 -432.999c0 -186 43.667 -331.833 131 -437.5s208 -158.5 362 -158.5c151.333 0 271.333 52.333 360 157s133 246 133 424c0 191.333 -43.167 340.166 -129.5 446.499s-207.5 159.5 -363.5 159.5zM835 1495h-99l-205 252h164z" />
    <glyph glyph-name="Ucircumflex" horiz-adv-x="1308" 
d="M150 1365h137v-902c0 -75.333 7.83301 -135 23.5 -179s43.167 -82 82.5 -114c64.667 -54 152 -81 262 -81c114 0 202.667 28.667 266 86c66 59.333 99 160 99 302v888h138v-870c0 -102 -12.333 -185.5 -37 -250.5s-65 -119.833 -121 -164.5
c-88.667 -71.333 -205 -107 -349 -107c-148 0 -266.667 35.333 -356 106c-53.333 42 -90.833 93.333 -112.5 154s-32.5 144.667 -32.5 252v880zM380 1497l203 248h144l201 -248h-132l-139 174l-148 -174h-129z" />
    <glyph glyph-name="Ugrave" horiz-adv-x="1308" 
d="M150 1365h137v-902c0 -75.333 7.83301 -135 23.5 -179s43.167 -82 82.5 -114c64.667 -54 152 -81 262 -81c114 0 202.667 28.667 266 86c66 59.333 99 160 99 302v888h138v-870c0 -102 -12.333 -185.5 -37 -250.5s-65 -119.833 -121 -164.5
c-88.667 -71.333 -205 -107 -349 -107c-148 0 -266.667 35.333 -356 106c-53.333 42 -90.833 93.333 -112.5 154s-32.5 144.667 -32.5 252v880zM751 1495h-98l-206 252h165z" />
    <glyph glyph-name="dotlessi" horiz-adv-x="425" 
d="M150 0v983h124v-983h-124z" />
    <glyph glyph-name="circumflex" 
d="M238 1162l203 249h144l201 -249h-131l-139 175l-149 -175h-129z" />
    <glyph glyph-name="tilde" 
d="M814 1384c-23.333 -123.333 -78.999 -185 -166.999 -185c-36 0 -80.333 12.667 -133 38l-67 33c-24 11.333 -47.333 17 -70 17c-46.667 0 -78.334 -32 -95.001 -96h-72c21.333 124 80 186 176 186c34.667 0 76.667 -12.333 126 -37c68 -33.333 112.333 -50 133 -50
c47.333 0 79 31.333 95 94h74z" />
    <glyph glyph-name="macron" 
d="M788 1329v-92h-552v92h552z" />
    <glyph glyph-name="ring" 
d="M512 1458c46.667 0 86.667 -16.667 120 -50s50 -73.333 50 -120c0 -47.333 -16.667 -87.666 -50 -120.999s-73.333 -50 -120 -50c-47.333 0 -87.666 16.667 -120.999 50s-50 73.666 -50 120.999c0 46.667 16.667 86.667 50 120s73.666 50 120.999 50zM512 1383
c-26.667 0 -49.334 -9.33301 -68.001 -28s-28 -41 -28 -67c0 -26.667 9.33301 -49.334 28 -68.001s41.334 -28 68.001 -28c26 0 48.333 9.33301 67 28s28 41.334 28 68.001c0 26 -9.33301 48.333 -28 67s-41 28 -67 28z" />
    <glyph glyph-name="eth" horiz-adv-x="1095" 
d="M185 1320l70 67.002c32.667 -8.66699 52.667 -14.667 60 -18l82 -32l73 -29l30 -15l191 115l80 -54l-187 -111c132 -82 234.5 -189.833 307.5 -323.5s109.5 -280.167 109.5 -439.5c0 -156.667 -40.333 -280.334 -121 -371.001s-191 -136 -331 -136
c-141.333 0 -252.5 44.833 -333.5 134.5s-121.5 212.5 -121.5 368.5c0 159.333 40.667 288.333 122 387s187.333 148 318 148c59.333 0 129.333 -21.667 210 -65c-72 91.333 -158.667 171.333 -260 240l-197 -118l-78 52l180 108c-35.333 21.333 -65 36.666 -89 45.999
l-69 27c-8 2.66699 -23.333 9 -46 19zM550 908.002c-104.667 0 -186.833 -37.8311 -246.5 -113.498s-89.5 -179.834 -89.5 -312.501c0 -130.667 28.833 -230.834 86.5 -300.501s140.167 -104.5 247.5 -104.5c102.667 0 182.667 35.333 240 106s86 169.667 86 297
c0 150 -32.667 259.667 -98 329c-62 66 -137.333 99 -226 99z" />
    <glyph glyph-name="Thorn" horiz-adv-x="1188" 
d="M164 0l-0.000976562 1365h136v-204h395c86.667 0 156.167 -9 208.5 -27s95.833 -47.667 130.5 -89c57.333 -68 86 -159 86 -273c0 -112.667 -32.333 -202.334 -97 -269.001c-38.667 -40 -86.667 -68.333 -144 -85s-133.666 -25 -228.999 -25h-350v-393h-136z
M299.999 511.001l307.001 0.00195312c90 0 155 4 195 12s73.667 23.667 101 47c53.333 45.333 80 115.666 80 210.999s-24.333 162.666 -73 201.999s-132.334 59 -251.001 59h-359v-531z" />
    <glyph glyph-name="thorn" horiz-adv-x="1119" 
d="M274 -353h-124v1718h124v-522c84 111.333 190.667 167 320 167c126.667 0 230.167 -47.333 310.5 -142s120.5 -216.667 120.5 -366c0 -161.333 -40.333 -289.833 -121 -385.5s-189 -143.5 -325 -143.5c-126 0 -227.667 50.667 -305 152v-478zM593 907
c-104.667 0 -185.001 -35.168 -241.001 -105.501s-84 -171.166 -84 -302.499c0 -138.667 26.333 -244 79 -316s130 -108 232 -108c99.333 0 178 37.667 236 113s87 177.333 87 306c0 127.333 -27.667 228 -83 302s-130.666 111 -225.999 111z" />
    <glyph glyph-name="onesuperior" horiz-adv-x="726" 
d="M377 546v595h-199v75h16c70 0 120.167 11.167 150.5 33.5s47.5 60.833 51.5 115.5h86v-819h-105z" />
    <glyph glyph-name="twosuperior" horiz-adv-x="726" 
d="M645 641l-0.000976562 -94.998h-566c0 89.333 18 159 54 209s107 103.667 213 161c75.333 41.333 125.833 76.333 151.5 105s38.5 64.667 38.5 108c0 99.333 -53.667 149 -161 149c-59.333 0 -101.333 -14.333 -126 -43s-39 -80.334 -43 -155.001h-110
c0 92 25.333 163.833 76 215.5s121.667 77.5 213 77.5c77.333 0 140.5 -21.833 189.5 -65.5s73.5 -100.167 73.5 -169.5c0 -64.667 -17.167 -117.834 -51.5 -159.501s-99.5 -88.834 -195.5 -141.501c-75.333 -40.667 -125.666 -73.167 -150.999 -97.5
s-44 -57.166 -56 -98.499h451z" />
    <glyph glyph-name="threesuperior" horiz-adv-x="726" 
d="M182 809c8.66699 -117.333 69.668 -176.001 183.001 -176.001c50.667 0 92.667 14.833 126 44.5s50 66.834 50 111.501c0 98.667 -60.667 148 -182 148c-16 0 -39.333 -1.66699 -70 -5v91c22.667 -2.66699 40.667 -4 54 -4c116 0 174 46 174 138
c0 37.333 -14 66.666 -42 87.999s-66 32 -114 32c-108 0 -162 -59 -162 -177h-107v24c0 72.667 25.167 132.334 75.5 179.001s114.5 70 192.5 70c80.667 0 145 -19.5 193 -58.5s72 -91.5 72 -157.5c0 -66.667 -32 -123.667 -96 -171c45.333 -22.667 77.333 -48.5 96 -77.5
s28 -67.167 28 -114.5c0 -73.333 -27.333 -134.333 -82 -183s-123.334 -73 -206.001 -73c-86 0 -156 22.667 -210 68s-81 104.333 -81 177l1 26h107z" />
    <glyph glyph-name="onehalf" horiz-adv-x="1721" 
d="M377 546v595h-199v75h16c70 0 120.167 11.167 150.5 33.5s47.5 60.833 51.5 115.5h86v-819h-105zM366 0l872 1365h117l-871 -1365h-118zM1640 95v-94.999h-566c0 89.333 18 159 54 209s107 103.667 213 161c75.333 40.667 125.833 75.5 151.5 104.5
s38.5 65.167 38.5 108.5c0 99.333 -53.667 149 -161 149c-59.333 0 -101.333 -14.333 -126 -43s-39.334 -80.334 -44.001 -155.001h-110c0 92 25.5 163.833 76.5 215.5s122.167 77.5 213.5 77.5c77.333 0 140.5 -21.833 189.5 -65.5s73.5 -100.5 73.5 -170.5
c0 -64 -17.167 -116.833 -51.5 -158.5s-99.5 -88.834 -195.5 -141.501c-75.333 -40.667 -125.666 -73.167 -150.999 -97.5s-44 -57.166 -56 -98.499h451z" />
    <glyph glyph-name="onequarter" horiz-adv-x="1721" 
d="M377 546v595h-199v75h16c70 0 120.167 11.167 150.5 33.5s47.5 60.833 51.5 115.5h86v-819h-105zM366 0l872 1365h117l-871 -1365h-118zM1437 0v198h-373v82l387 539h89v-530h117v-91h-117v-198h-103zM1187 289h250v357z" />
    <glyph glyph-name="threequarters" horiz-adv-x="1721" 
d="M182 809c8.66699 -117.333 69.668 -176.001 183.001 -176.001c50.667 0 92.667 14.833 126 44.5s50 66.834 50 111.501c0 98.667 -60.667 148 -182 148c-16 0 -39.333 -1.66699 -70 -5v91c22.667 -2.66699 40.667 -4 54 -4c116 0 174 46 174 138
c0 37.333 -14 66.666 -42 87.999s-66 32 -114 32c-108 0 -162 -59 -162 -177h-107v24c0 72.667 25.167 132.334 75.5 179.001s114.5 70 192.5 70c80.667 0 145 -19.5 193 -58.5s72 -91.5 72 -157.5c0 -66.667 -32 -123.667 -96 -171c45.333 -22.667 77.333 -48.5 96 -77.5
s28 -67.167 28 -114.5c0 -73.333 -27.333 -134.333 -82 -183s-123.334 -73 -206.001 -73c-86 0 -156 22.667 -210 68s-81 104.333 -81 177l1 26h107zM366.001 -0.000976562l872 1365h118l-871 -1365h-119zM1437 -0.000976562v198h-373v82l387 539h89v-530h118v-91h-118v-198
h-103zM1187 288.999h250v357z" />
    <glyph glyph-name="franc" horiz-adv-x="1738" 
d="M164 0v1365h866v-117h-729v-494h634v-109h-634v-645h-137zM1241 0l-0.000976562 983h123v-164c38 65.333 77.5 111.5 118.5 138.5s92.167 40.5 153.5 40.5c16.667 0 34.334 -1.33301 53.001 -4v-120c-20 2.66699 -34.333 4 -43 4c-83.333 0 -153.333 -38.667 -210 -116
c-48 -65.333 -72 -156.333 -72 -273v-489h-123z" />
    <glyph glyph-name="Gbreve" horiz-adv-x="1439" 
d="M726 702l575.999 -0.000976562v-702h-105v227c-70 -91.333 -141.667 -156.5 -215 -195.5s-161.666 -58.5 -264.999 -58.5c-184.667 0 -332.667 64.667 -444 194s-167 301.333 -167 516s57.167 386.5 171.5 515.5s266.5 193.5 456.5 193.5
c149.333 0 273.5 -38.5 372.5 -115.5s159.833 -182.167 182.5 -315.5h-131c-49.333 209.333 -192 314 -428 314c-152 0 -271.167 -52.167 -357.5 -156.5s-129.5 -248.166 -129.5 -431.499c0 -180.667 43.5 -325.667 130.5 -435s202.5 -164 346.5 -164
c136.667 0 248 44.333 334 133s129 203 129 343v28h-457v110zM1008 1743c-24.667 -163.333 -118.333 -245 -281 -245c-78 0 -141.5 22 -190.5 66s-76.167 103.667 -81.5 179h82c22 -100.667 85.667 -151 191 -151c108 0 174 50.333 198 151h82z" />
    <glyph glyph-name="gbreve" horiz-adv-x="1119" 
d="M969 983l-0.000976562 -885.998c0 -154.667 -36.333 -269 -109 -343s-185 -111 -337 -111c-111.333 0 -199.5 22.167 -264.5 66.5s-103.833 108.833 -116.5 193.5h125c4 -52 30 -92.667 78 -122s112.333 -44 193 -44c97.333 0 174 28.333 230 85
c28.667 29.333 48.5 65.166 59.5 107.499s16.5 104.833 16.5 187.5l2 50c-53.333 -61.333 -103.166 -104 -149.499 -128s-102.833 -36 -169.5 -36c-132.667 0 -238 45.333 -316 136s-117 213 -117 367c0 149.333 39.833 270.666 119.5 363.999s183.167 140 310.5 140
c132.667 0 240 -55.667 322 -167v140h123zM538.999 907.002c-99.333 0 -178.167 -35.999 -236.5 -107.999s-87.5 -169 -87.5 -291c0 -125.333 27.833 -224 83.5 -296s132.167 -108 229.5 -108c105.333 0 186 35.667 242 107s84 173.666 84 306.999
c0 123.333 -27.5 219 -82.5 287s-132.5 102 -232.5 102zM848.998 1405c-24.667 -163.333 -118.333 -245 -281 -245c-78 0 -141.5 22 -190.5 66s-76.167 103.667 -81.5 179h82c21.333 -100.667 85 -151 191 -151c108 0 174 50.333 198 151h82z" />
    <glyph glyph-name="Idot" horiz-adv-x="466" 
d="M164 0v1365h139v-1365h-139zM164 1534v174h139v-174h-139z" />
    <glyph glyph-name="glyph277" horiz-adv-x="747" 
d="M122 546v594h93v-60c50 50.667 113.333 76 190 76c77.333 0 133.333 -18 168 -54s52 -94 52 -174v-382h-91v386c0 53.333 -11 91.5 -33 114.5s-58.667 34.5 -110 34.5c-55.333 0 -98.5 -16.667 -129.5 -50s-46.5 -80 -46.5 -140v-345h-93z" />
    <glyph glyph-name="glyph297" horiz-adv-x="1780" 
d="M164 0v1365h327c144 0 250.667 -31.667 320 -95s104 -161.333 104 -294c0 -112.667 -32.333 -202.334 -97 -269.001c-38.667 -40 -86.5 -68.333 -143.5 -85s-133.5 -25 -229.5 -25h-145v-597h-136zM300 715.001l102.001 0.00195312c90 0 155 4 195 12
s73.667 23.667 101 47c53.333 45.333 80 115.666 80 210.999s-24.333 162.666 -73 201.999s-132.334 59 -251.001 59h-154v-531zM931.001 524.003h-89v70h89v171h92v-171h97v-70h-97v-406c0 -22.667 2.66699 -37.5 8 -44.5s16.333 -10.5 33 -10.5
c12.667 0 31.334 4.66699 56.001 14v-62c-28.667 -12 -57.334 -18 -86.001 -18c-38 0 -64.667 9 -80 27s-23 49.333 -23 94v406zM1295 196.003c5.33301 -90 62.667 -134.999 172 -134.999c97.333 0 146 35.667 146 107c0 24 -10.5 42.5 -31.5 55.5s-60.833 25.5 -119.5 37.5
l-72 15c-112.667 22.667 -169 74.667 -169 156c0 118.667 80 178 240 178c140.667 0 218.334 -65 233.001 -195h-90c-8.66699 44 -24 74.333 -46 91s-58.333 25 -109 25c-91.333 0 -137 -29.667 -137 -89c0 -41.333 35.667 -70 107 -86l66 -14
c88 -19.333 146.5 -40.333 175.5 -63s43.5 -58.334 43.5 -107.001c0 -57.333 -22.167 -103 -66.5 -137s-103.833 -51 -178.5 -51c-78.667 0 -140.834 17.833 -186.501 53.5s-68.5 84.167 -68.5 145.5v13h91z" />
    <glyph glyph-name="glyph298" horiz-adv-x="552" 
d="M276 791c30 0 55.499 -10.499 76.499 -31.499s31.5 -46.5 31.5 -76.5s-10.667 -55.667 -32 -77s-46.666 -32 -75.999 -32c-30 0 -55.667 10.667 -77 32s-32 47 -32 77c0 29.333 10.667 54.666 32 75.999s47 32 77 32z" />
    <glyph glyph-name="glyph299" horiz-adv-x="540" 
d="M162 0v1365h123v-1365h-123zM411 597v171h143v-171h-143z" />
    <glyph glyph-name="glyph300" horiz-adv-x="1046" 
d="M164 0v1365h137v-1249h711v-116h-848zM644 582v256h215v-256h-215z" />
    <glyph glyph-name="glyph301" horiz-adv-x="1365" 
d="M27 636l-0.000976562 103.997h1024c-20.667 26 -43.667 64 -69 114s-38 82.667 -38 98c0 19.333 10 29 30 29c11.333 0 27 -11.667 47 -35c70.667 -82 160.667 -152.667 270 -212c31.333 -16.667 47 -30.667 47 -42c0 -12.667 -6.66699 -22.667 -20 -30l-14 -8l-26 -15
l-31 -20c-96 -59.333 -176 -126.666 -240 -201.999c-11.333 -13.333 -22.666 -19.666 -33.999 -18.999c-19.333 0.666992 -29 11.334 -29 32.001c0 15.333 10.667 43.5 32 84.5s46.333 81.5 75 121.5h-1024z" />
    <glyph glyph-name="glyph302" horiz-adv-x="1365" 
d="M1338 744v-103.998h-1024c20.667 -26 43.667 -64 69 -114s38 -82.667 38 -98c0 -19.333 -10 -29 -30 -29c-11.333 0 -27 11.667 -47 35c-70.667 81.333 -160.667 152 -270 212c-31.333 16.667 -47 30.667 -47 42c0 12.667 6.66699 22.667 20 30l14 8
c6.66699 3.33301 15.334 8.33301 26.001 15l31 20c95.333 58.667 175.333 125.667 240 201c11.333 13.333 22.666 19.666 33.999 18.999c19.333 -0.666992 29 -11.334 29 -32.001c0 -15.333 -10.5 -43.333 -31.5 -84s-46.167 -81 -75.5 -121h1024z" />
    <glyph glyph-name="glyph303" horiz-adv-x="1365" 
d="M312 635l12.001 -16.0029c23.333 -32 45.166 -67.833 65.499 -107.5s30.833 -67.167 31.5 -82.5c0.666992 -21.333 -9 -32 -29 -32c-12 0 -23.333 6.33301 -34 19l-16 19c-61.333 73.333 -155 146 -281 218l-13 8c-14 7.33301 -21 17.333 -21 30
c0 11.333 15.667 25.333 47 42c110 60.667 200 131.334 270 212.001c20 23.333 35.667 35 47 35c20 0 30 -9.66699 30 -29c0 -15.333 -12.667 -47.666 -38 -96.999s-49 -87.666 -71 -114.999h739c-20 24.667 -42.833 62.334 -68.5 113.001s-38.5 83.667 -38.5 99
c0 19.333 10.333 29 31 29c10.667 0 26 -11.667 46 -35c70 -80.667 160 -151.334 270 -212.001c31.333 -16.667 47 -30.667 47 -42c0 -12.667 -6.66699 -22.667 -20 -30l-14 -8c-123.333 -70 -222.333 -149 -297 -237c-10.667 -12.667 -22 -19 -34 -19
c-19.333 0 -29 10.667 -29 32c0 15.333 10.667 43.5 32 84.5s46.333 81.5 75 121.5h-739z" />
    <glyph glyph-name="glyph304" horiz-adv-x="1365" 
d="M736 27l-103.997 -0.000976562v1024c-26 -20.667 -64.167 -43.667 -114.5 -69s-82.833 -38 -97.5 -38c-19.333 0 -29 10.333 -29 31c0 10.667 11.667 26 35 46c82 71.333 152.667 161.333 212 270c16.667 31.333 30.667 47 42 47c12.667 0 22.667 -6.66699 30 -20l8 -14
l15 -26l20 -31c59.333 -96.667 126.666 -176.667 201.999 -240c13.333 -11.333 19.666 -22.666 18.999 -33.999c-0.666992 -19.333 -11.334 -29 -32.001 -29c-14 0 -41 10 -81 30s-76.333 41.667 -109 65l-16 12v-1024z" />
    <glyph glyph-name="glyph305" horiz-adv-x="1365" 
d="M630 1338l103.998 0.000976562v-1024c26 20.667 64 43.667 114 69s82.667 38 98 38c19.333 0 29 -10.333 29 -31c0 -10.667 -11.667 -26 -35 -46c-81.333 -70.667 -152 -160.667 -212 -270c-16.667 -31.333 -30.667 -47 -42 -47c-12.667 0 -22.667 7 -30 21l-8 13
c-4 7.33301 -9 16 -15 26l-20 31c-60 96.667 -127.333 176.667 -202 240c-13.333 11.333 -19.666 22.666 -18.999 33.999c0.666992 19.333 11.334 29 32.001 29c16 0 44.333 -10.667 85 -32s81 -46.333 121 -75v1024z" />
    <glyph glyph-name="glyph306" horiz-adv-x="1365" 
d="M736 312l16.001 11.999c32 23.333 68.167 45.333 108.5 66s67.5 31 81.5 31c21.333 0 32 -9.66699 32 -29c0 -12 -6.33301 -23.333 -19 -34l-19 -16c-62.667 -52.667 -123.667 -127 -183 -223l-20 -32l-15 -26l-8 -13c-7.33301 -14 -17.333 -21 -30 -21
c-11.333 0 -25.333 15.667 -42 47c-60 109.333 -130.667 199.333 -212 270c-23.333 20 -35 35.667 -35 47c0 20 9.66699 30 29 30c15.333 0 47.333 -12.5 96 -37.5s87.334 -48.833 116.001 -71.5v739c-26 -20.667 -64 -43.667 -114 -69s-82.667 -38 -98 -38
c-19.333 0 -29 10 -29 30c0 11.333 11.667 27 35 47c82 70.667 152.667 160.667 212 270c16.667 31.333 30.667 47 42 47c12.667 0 22.667 -6.66699 30 -20l8 -14l15 -26l20 -31c58 -94 119 -168.333 183 -223l19 -17c13.333 -11.333 19.666 -22.666 18.999 -33.999
c-0.666992 -19.333 -11.334 -29 -32.001 -29c-14 0 -41 10 -81 30s-76.333 41.667 -109 65l-16 12v-739z" />
    <glyph glyph-name="glyph307" horiz-adv-x="1365" 
d="M736 312l16.001 11.999c32 23.333 68.167 45.333 108.5 66s67.5 31 81.5 31c21.333 0 32 -9.66699 32 -29c0 -12 -6.33301 -23.333 -19 -34l-19 -16c-62.667 -52.667 -123.667 -127 -183 -223l-20 -32l-15 -26l-8 -13c-7.33301 -14 -17.333 -21 -30 -21
c-11.333 0 -25.333 15.667 -42 47c-60 109.333 -130.667 199.333 -212 270c-23.333 20 -35 35.333 -35 46c0 20.667 9.66699 31 29 31c15.333 0 47.333 -12.5 96 -37.5s87.334 -48.833 116.001 -71.5v739c-26 -20.667 -64 -43.667 -114 -69s-82.667 -38 -98 -38
c-19.333 0 -29 10 -29 30c0 11.333 11.667 27 35 47c82 70.667 152.667 160.667 212 270c16.667 31.333 30.667 47 42 47c12.667 0 22.667 -6.66699 30 -20l8 -14l15 -26l20 -31c58 -94 119 -168.333 183 -223l19 -17c13.333 -11.333 19.666 -22.666 18.999 -33.999
c-0.666992 -19.333 -11.334 -29 -32.001 -29c-14 0 -41 10 -81 30s-76.333 41.667 -109 65l-16 12v-739zM413.001 -139.001h540v-88h-540v88z" />
    <glyph glyph-name="glyph308" 
d="M68 1062h887v-117h-887v117zM68 741h887v-117h-887v117zM68 420h887v-117h-887v117z" />
    <glyph glyph-name="glyph309" horiz-adv-x="1108" 
d="M1037 0l-125.999 0.000976562v657c0 135.333 -4.16699 232.166 -12.5 290.499s-24.5 106.5 -48.5 144.5c-31.333 48 -73.833 86.5 -127.5 115.5s-109.834 43.5 -168.501 43.5c-58 0 -113.5 -13.833 -166.5 -41.5s-94.833 -64.5 -125.5 -110.5
c-26 -39.333 -43.5 -89 -52.5 -149s-13.5 -157.667 -13.5 -293v-657h-126v651c0 170 5.16699 285.5 15.5 346.5s33.833 117.5 70.5 169.5c94 132 226.667 198 398 198c170.667 0 303 -66 397 -198c36.667 -51.333 60.167 -108 70.5 -170s15.5 -177.333 15.5 -346v-651z" />
    <glyph glyph-name="glyph310" 
d="M0 -125h1024v-67h-1024v67zM0 -363h1024v-68h-1024v68z" />
    <glyph glyph-name="glyph311" 
d="M0 1738h1024v-87h-1024v87z" />
    <glyph glyph-name="glyph312" horiz-adv-x="787" 
d="M259 1365v-363l-28 -626h-75l-27 624v365h130zM261 229v-229h-134v229h134zM658 1365v-363l-28 -626h-74l-28 624v365h130zM660 229v-229h-134v229h134z" />
    <glyph glyph-name="glyph313" horiz-adv-x="1016" 
d="M134 0v1365h888v-112h-757v-1253h-131z" />
    <glyph glyph-name="glyph314" horiz-adv-x="1478" 
d="M1017 759v-89h-557v89h557zM758 1398c189.333 0 341.332 -67.833 455.999 -203.5s172 -315.5 172 -539.5c0 -202.667 -59.167 -368 -177.5 -496s-271.166 -192 -458.499 -192c-201.333 0 -361.333 64.167 -480 192.5s-178 301.5 -178 519.5
c0 222.667 59.5 398.167 178.5 526.5s281.5 192.5 487.5 192.5zM746.999 1287c-162 0 -289.501 -53.999 -382.501 -161.999s-139.5 -256 -139.5 -444s46.333 -335.667 139 -443s220.334 -161 383.001 -161c150.667 0 272.667 53.667 366 161s140 247.666 140 420.999
c0 192.667 -45.5 345.5 -136.5 458.5s-214.167 169.5 -369.5 169.5z" />
    <glyph glyph-name="glyph315" horiz-adv-x="1353" 
d="M620 -20l-0.000976562 169.001c-162.667 0 -295.5 49.667 -398.5 149s-154.5 227.666 -154.5 384.999c0 156.667 51.5 284.667 154.5 384s235.833 149 398.5 149v170h113v-170c162.667 0 295.5 -49.667 398.5 -149s154.5 -227.333 154.5 -384
c0 -182 -67 -323.667 -201 -425c-87.333 -66 -204.666 -102.333 -351.999 -109v-169h-113zM619.999 1109c-134.667 -8.66699 -239.667 -50.5 -315 -125.5s-113 -175.833 -113 -302.5c0 -124.667 37.667 -224.667 113 -300s180.333 -117.333 315 -126v854zM732.999 255.001
c136 10 241.167 52.332 315.5 126.999s111.5 175.334 111.5 302.001c0 125.333 -38 225.833 -114 301.5s-180.333 116.5 -313 122.5v-853z" />
    <glyph glyph-name="glyph316" horiz-adv-x="1207" 
d="M1162 983l-192 -465l229 -518h-139l-162 399l-33 -70c-63.333 -138.667 -121.833 -233 -175.5 -283s-123.5 -75 -209.5 -75c-113.333 0 -208.666 49.5 -285.999 148.5s-116 220.833 -116 365.5c0 152.667 38.333 278.167 115 376.5s174.667 147.5 294 147.5
c93.333 0 173.666 -31.333 240.999 -94c38 -36 85.667 -111.333 143 -226l26 -50l133 344h132zM860 518c-59.333 152.667 -113.498 256.499 -162.498 311.499s-111.5 82.5 -187.5 82.5c-88 0 -161.333 -40.333 -220 -121s-88 -181 -88 -301c0 -118 29.167 -217 87.5 -297
s130.166 -120 215.499 -120c71.333 0 129.166 24.333 173.499 73s92.833 141.334 145.5 278.001z" />
    <glyph glyph-name="glyph317" horiz-adv-x="1084" 
d="M875 1363v-102.002h-490l372 -287c90 -69.333 154.333 -142.166 193 -218.499s58 -168.833 58 -277.5c0 -152 -42.333 -274.5 -127 -367.5s-196 -139.5 -334 -139.5c-144 0 -258.167 47.167 -342.5 141.5s-126.5 221.5 -126.5 381.5
c0 144.667 39.5 261.334 118.5 350.001s182.833 133 311.5 133c24 0 56 -1.66699 96 -5l-397 302v89h668zM543 901.998c-101.333 0 -183.667 -38.168 -247 -114.501s-95 -175.833 -95 -298.5c0 -130 31.167 -233.5 93.5 -310.5s145.833 -115.5 250.5 -115.5
c103.333 0 186 37.5 248 112.5s93 175.167 93 300.5c0 130.667 -30.833 234.334 -92.5 311.001s-145.167 115 -250.5 115z" />
    <glyph glyph-name="glyph318" horiz-adv-x="930" 
d="M576 555l-0.000976562 -77.999h-52l-183 -20c-38.667 -10.667 -70.5 -33 -95.5 -67s-37.5 -72 -37.5 -114c0 -64 24.833 -115.667 74.5 -155s114.834 -59 195.501 -59c168.667 0 262.334 83 281.001 249h120c-10 -110 -50 -194.167 -120 -252.5
s-166.333 -87.5 -289 -87.5c-112.667 0 -204.334 27.667 -275.001 83s-106 127 -106 215c0 131.333 73.333 216 220 254c-128 31.333 -192 102 -192 212c0 80 32.333 145.667 97 197s147 77 247 77c112 0 203.333 -30.5 274 -91.5s106 -139.833 106 -236.5h-120
c0 76.667 -21.5 135.5 -64.5 176.5s-104.5 61.5 -184.5 61.5c-68.667 0 -125.167 -18.333 -169.5 -55s-66.5 -83.334 -66.5 -140.001c0 -70 30.333 -118.667 91 -146c34.667 -15.333 117.667 -23 249 -23z" />
    <glyph glyph-name="glyph319" horiz-adv-x="1088" 
d="M1067 981v-97h-235c118.667 -100 178 -236 178 -408c0 -150.667 -42.333 -272.5 -127 -365.5s-195.667 -139.5 -333 -139.5c-145.333 0 -260.333 47.333 -345 142s-127 223 -127 385c0 148.667 43.833 271 131.5 367s199.5 144 335.5 144
c56.667 0 110.667 -9.33301 162 -28h360zM546 918c-102.667 0 -185.832 -39 -249.499 -117s-95.5 -179.333 -95.5 -304c0 -134 31 -240 93 -318s146.333 -117 253 -117c104.667 0 187.667 38 249 114s92 178.667 92 308c0 133.333 -30.833 239 -92.5 317
s-144.834 117 -249.501 117z" />
    <glyph glyph-name="glyph320" horiz-adv-x="771" 
d="M785 983v-104h-336v-879h-122v879h-339v104h797z" />
    <glyph glyph-name="glyph321" horiz-adv-x="546" 
 />
    </font>
</defs>
</svg>
